<svg version="1.1" id="Layer_1" xmlns="http://www.w3.org/2000/svg" xmlns:xlink="http://www.w3.org/1999/xlink" x="0px" y="0px"
	 viewBox="0 0 155 155" style="enable-background:new 0 0 155 155;" xml:space="preserve">
<style type="text/css">
	.st0{fill:#70D44B;}
</style>
<path class="st0" d="M77.5,16.5c6.1,0,11.6,3.4,14.3,8.8l45,90c4,7.9,0.8,17.5-7.1,21.5c-2.2,1.1-4.7,1.7-7.2,1.7h-90
	c-8.8,0-16-7.2-16-16c0-2.5,0.6-4.9,1.7-7.2l45-90C65.9,19.9,71.4,16.5,77.5,16.5 M77.5,5.5c-10.2,0-19.6,5.8-24.1,14.9l-45,90
	c-6.7,13.3-1.3,29.6,12.1,36.2c3.8,1.9,7.9,2.9,12.1,2.9h90c14.9,0,27-12.1,27-27c0-4.2-1-8.3-2.9-12.1l-45-90
	C97.1,11.3,87.7,5.5,77.5,5.5z"/>
</svg>
