<svg xmlns="http://www.w3.org/2000/svg" xmlns:xlink="http://www.w3.org/1999/xlink" width="25" height="25" viewBox="0 0 25 25">
  <defs>
    <clipPath id="clip-path">
      <rect id="Rectangle_1344" data-name="Rectangle 1344" width="25" height="25" fill="#fff"/>
    </clipPath>
  </defs>
  <g id="Group_2626" data-name="Group 2626" transform="translate(0 0)">
    <g id="Group_2625" data-name="Group 2625" transform="translate(0 0)" clip-path="url(#clip-path)">
      <path id="Path_1586" data-name="Path 1586" d="M12.5,25A12.5,12.5,0,1,1,25,12.5,12.514,12.514,0,0,1,12.5,25M12.5.555A11.945,11.945,0,1,0,24.446,12.5,11.959,11.959,0,0,0,12.5.555" transform="translate(0 0)" fill="#fff"/>
      <path id="Path_1587" data-name="Path 1587" d="M14.124,25.385A11.231,11.231,0,1,1,25.356,14.153,11.244,11.244,0,0,1,14.124,25.385m0-21.982A10.751,10.751,0,1,0,24.875,14.153,10.763,10.763,0,0,0,14.124,3.4" transform="translate(-1.591 -1.607)" fill="#fff"/>
      <path id="Path_1588" data-name="Path 1588" d="M15.748,25.769a9.963,9.963,0,1,1,9.963-9.963,9.974,9.974,0,0,1-9.963,9.963m0-19.519A9.556,9.556,0,1,0,25.3,15.806,9.567,9.567,0,0,0,15.748,6.25" transform="translate(-3.182 -3.214)" fill="#fff"/>
      <path id="Path_1589" data-name="Path 1589" d="M17.373,26.153a8.694,8.694,0,1,1,8.694-8.694,8.7,8.7,0,0,1-8.694,8.694m0-17.055a8.361,8.361,0,1,0,8.361,8.362A8.371,8.371,0,0,0,17.373,9.1" transform="translate(-4.773 -4.82)" fill="#fff"/>
      <path id="Path_1590" data-name="Path 1590" d="M19,26.538a7.425,7.425,0,1,1,7.425-7.425A7.434,7.434,0,0,1,19,26.538m0-14.592a7.166,7.166,0,1,0,7.166,7.166A7.174,7.174,0,0,0,19,11.946" transform="translate(-6.364 -6.427)" fill="#fff"/>
      <path id="Path_1591" data-name="Path 1591" d="M20.621,26.921a6.157,6.157,0,1,1,6.156-6.157,6.164,6.164,0,0,1-6.156,6.157m0-12.128a5.972,5.972,0,1,0,5.972,5.971,5.978,5.978,0,0,0-5.972-5.971" transform="translate(-7.955 -8.034)" fill="#fff"/>
    </g>
  </g>
</svg>
