<svg xmlns="http://www.w3.org/2000/svg" xmlns:xlink="http://www.w3.org/1999/xlink" width="30.781" height="30.781" viewBox="0 0 30.781 30.781">
  <defs>
    <linearGradient id="linear-gradient" x1="1" y1="0.854" x2="0.151" y2="0.318" gradientUnits="objectBoundingBox">
      <stop offset="0" stop-color="#374b92"/>
      <stop offset="1" stop-color="#e72850"/>
    </linearGradient>
    <clipPath id="clip-path">
      <rect id="Rectangle_1331" data-name="Rectangle 1331" width="30.781" height="30.781" transform="translate(0 0)" fill="url(#linear-gradient)"/>
    </clipPath>
  </defs>
  <g id="Group_2614" data-name="Group 2614" clip-path="url(#clip-path)">
    <path id="Path_1579" data-name="Path 1579" d="M15.39,30.781a15.39,15.39,0,1,1,15.39-15.39,15.408,15.408,0,0,1-15.39,15.39m0-30.1A14.708,14.708,0,1,0,30.1,15.39,14.724,14.724,0,0,0,15.39.683" transform="translate(0 0)" fill="url(#linear-gradient)"/>
    <path id="Path_1580" data-name="Path 1580" d="M22.272,32.5A13.829,13.829,0,1,1,36.1,18.672,13.844,13.844,0,0,1,22.272,32.5m0-27.065A13.237,13.237,0,1,0,35.509,18.672,13.251,13.251,0,0,0,22.272,5.436" transform="translate(-5.622 -3.225)" fill="url(#linear-gradient)"/>
    <path id="Path_1581" data-name="Path 1581" d="M29.154,34.22A12.266,12.266,0,1,1,41.42,21.954,12.28,12.28,0,0,1,29.154,34.22m0-24.032A11.766,11.766,0,1,0,40.92,21.954,11.779,11.779,0,0,0,29.154,10.188" transform="translate(-11.244 -6.449)" fill="url(#linear-gradient)"/>
    <path id="Path_1582" data-name="Path 1582" d="M36.035,35.94a10.7,10.7,0,1,1,10.7-10.7,10.717,10.717,0,0,1-10.7,10.7m0-21A10.295,10.295,0,1,0,46.33,25.235,10.307,10.307,0,0,0,36.035,14.941" transform="translate(-16.865 -9.675)" fill="url(#linear-gradient)"/>
    <path id="Path_1583" data-name="Path 1583" d="M42.916,37.66a9.142,9.142,0,1,1,9.142-9.142,9.153,9.153,0,0,1-9.142,9.142m0-17.966a8.824,8.824,0,1,0,8.824,8.824,8.833,8.833,0,0,0-8.824-8.824" transform="translate(-22.486 -12.9)" fill="url(#linear-gradient)"/>
    <path id="Path_1584" data-name="Path 1584" d="M49.8,39.379a7.58,7.58,0,1,1,7.58-7.58,7.589,7.589,0,0,1-7.58,7.58m0-14.933A7.353,7.353,0,1,0,57.151,31.8,7.361,7.361,0,0,0,49.8,24.446" transform="translate(-28.108 -16.124)" fill="url(#linear-gradient)"/>
  </g>
</svg>
