<?xml version="1.0" encoding="utf-8"?>
<!-- Generator: Adobe Illustrator 25.4.1, SVG Export Plug-In . SVG Version: 6.00 Build 0)  -->
<svg version="1.1" id="Layer_1" xmlns="http://www.w3.org/2000/svg" xmlns:xlink="http://www.w3.org/1999/xlink" x="0px" y="0px"
	 viewBox="0 0 288.9 274" style="enable-background:new 0 0 288.9 274;" xml:space="preserve">
<style type="text/css">
	.st0{fill-rule:evenodd;clip-rule:evenodd;fill:#2849A9;}
	.st1{fill-rule:evenodd;clip-rule:evenodd;fill:#5795ED;}
</style>
<path class="st0" d="M151.1,0.3c33.7,0,64.9,12.1,88.7,32.9c31.8,24.5,22.6,113.9-9.6,90.3c-70.8-0.3-202.4-38.2-163.2-90.3
	c4-5.3,9-9.6,14.5-13.7h-0.3c0.9-0.5,1.9-1,2.8-1.6c0.9-0.5,1.9-1.1,2.8-1.6h0c2.8-1.6,5.6-3.1,8.7-4.3
	C112.5,4.6,131.3,0.3,151.1,0.3z M174.9,272.8c-14.2,0.9-42.6-21.4-50.7-50.9c-15.1-55.9,107.2-84.4,118.7-85.4
	c31.2,0.9,38.9,38.2,16.1,76.7C229.3,262.6,175.5,272.8,174.9,272.8z"/>
<path class="st1" d="M14.8,77.9c9.9,2.8,70.5-16.5,88.4-43.8c0.3-0.3,14.2-21.7-12.7-22c-3.1,0-11.7,0.3-20.1,5.3
	c-4,2.5-7.7,5-11.4,7.8c-5.8,4.3-11.3,9.5-16.5,14.4h0l-0.2,0.2c-5.3,5-10.2,10.9-14.5,16.8c-4.3,5.9-8.3,12.4-11.7,18.9
	c-0.2,0.5-0.4,0.9-0.6,1.2C15.2,77,15,77.4,14.8,77.9z M86.5,272.8c1.9-2.8,3.1-36.6,1.9-45.3c-1.2-8.7-4-26.4-20.7-55.6
	c-2.8-4.7-16.1-26.4-26-39.7c-5.6-7.8-11.7-15-17.8-22.3h0c-5.1-6-10.2-12.1-15-18.4c-0.3,0.8-0.5,1.5-0.8,2.2s-0.5,1.4-0.8,2.2
	c-2.5,7.1-4.3,14.6-5.6,22.4S0,133.8,0,141.8c0,8.1,0.6,15.8,1.9,23.6s3.4,15.2,5.6,22.4c2.2,7.1,5.3,14.3,8.7,20.8
	s7.4,13,11.7,18.9c4.3,5.9,9.3,11.5,14.5,16.8c4.9,5.3,10.8,10.2,16.7,14.6h0h0c4.6,3.1,9.3,6.2,13.9,9c8.5,5,11.7,5,13.4,5
	C86.4,272.8,86.4,272.8,86.5,272.8z M288.9,141.8c0,18.9-3.7,36.9-10.2,53.4c-15.7,17-115.3-20.7-130.8-26.6c-1.2-0.5-2-0.7-2-0.8
	c-15.8-6.8-63.3-27.9-67.7-60.8c-6.2-47.5,89.6-80.7,131.9-82c4.9,0,20.4,0.3,29.4,7.5C269.8,59.2,288.9,98.4,288.9,141.8z
	 M188.8,260.1c-3.7,12.1,10.2,16.5,22.6,10.6c24.7-13,45.1-33.2,59-57.1c0.9-1.2,0-2.5-1.5-2.2C255.6,212.6,195.6,236.5,188.8,260.1
	z"/>
</svg>
