<svg xmlns="http://www.w3.org/2000/svg" xmlns:xlink="http://www.w3.org/1999/xlink" width="324.529" height="313.159" viewBox="0 0 324.529 313.159">
  <defs>
    <linearGradient id="linear-gradient" x1="0.5" x2="1" y2="0.59" gradientUnits="objectBoundingBox">
      <stop offset="0" stop-color="#e72850"/>
      <stop offset="1" stop-color="#5189c8"/>
    </linearGradient>
    <linearGradient id="linear-gradient-2" x1="0.396" y1="0.247" x2="0.5" y2="1" xlink:href="#linear-gradient"/>
    <linearGradient id="linear-gradient-3" x1="0.282" y1="1" x2="0.4" y2="11.536" xlink:href="#linear-gradient"/>
    <linearGradient id="linear-gradient-4" x2="0.5" y2="1" xlink:href="#linear-gradient"/>
    <clipPath id="clip-path">
      <rect id="Rectangle_1497" data-name="Rectangle 1497" width="82.825" height="93.598" fill="url(#linear-gradient)"/>
    </clipPath>
    <clipPath id="clip-path-2">
      <rect id="Rectangle_1498" data-name="Rectangle 1498" width="90.249" height="89.763" fill="url(#linear-gradient-2)"/>
    </clipPath>
    <clipPath id="clip-path-3">
      <rect id="Rectangle_1499" data-name="Rectangle 1499" width="89.325" height="89.325" fill="url(#linear-gradient-3)"/>
    </clipPath>
    <clipPath id="clip-path-4">
      <rect id="Rectangle_1668" data-name="Rectangle 1668" width="96.498" height="83.711" fill="url(#linear-gradient-4)"/>
    </clipPath>
    <clipPath id="clip-path-5">
      <rect id="Rectangle_1669" data-name="Rectangle 1669" width="82.752" height="82.716" fill="url(#linear-gradient-4)"/>
    </clipPath>
    <clipPath id="clip-path-6">
      <rect id="Rectangle_1670" data-name="Rectangle 1670" width="87.085" height="86.963" fill="url(#linear-gradient-4)"/>
    </clipPath>
    <clipPath id="clip-path-7">
      <rect id="Rectangle_1677" data-name="Rectangle 1677" width="87.443" height="87.444" fill="url(#linear-gradient-4)"/>
    </clipPath>
  </defs>
  <g id="Group_3233" data-name="Group 3233" transform="translate(-812.999 -2736.582)">
    <g id="Group_3080" data-name="Group 3080" transform="translate(15793.999 11056.195)">
      <g id="Component_15_7" data-name="Component 15 – 7" transform="translate(-14977.4 -8319.613)">
        <g id="Group_2819" data-name="Group 2819" clip-path="url(#clip-path)">
          <path id="Path_1873" data-name="Path 1873" d="M320.578,93.154l-1.578,46-1.578-46a1.579,1.579,0,0,1,3.155-.108c0,.035,0,.074,0,.108" transform="translate(-237.753 -68.551)" fill="url(#linear-gradient)"/>
          <path id="Path_1874" data-name="Path 1874" d="M307.352,85.53l-1.578,49.829L304.2,85.53a1.578,1.578,0,1,1,3.155-.1c0,.032,0,.068,0,.1" transform="translate(-227.847 -62.844)" fill="url(#linear-gradient)"/>
          <path id="Path_1875" data-name="Path 1875" d="M294.126,77.905l-1.578,53.662-1.578-53.662a1.578,1.578,0,0,1,3.155-.093c0,.03,0,.064,0,.093" transform="translate(-217.941 -57.135)" fill="url(#linear-gradient)"/>
          <path id="Path_1876" data-name="Path 1876" d="M280.9,70.279l-1.578,57.5-1.578-57.5a1.578,1.578,0,0,1,3.155-.087c0,.027,0,.06,0,.087" transform="translate(-208.035 -51.426)" fill="url(#linear-gradient)"/>
          <path id="Path_1877" data-name="Path 1877" d="M267.675,62.651,266.1,123.979l-1.578-61.328a1.578,1.578,0,1,1,3.155-.081c0,.025,0,.056,0,.081" transform="translate(-198.129 -45.714)" fill="url(#linear-gradient)"/>
          <path id="Path_1878" data-name="Path 1878" d="M254.449,55.022l-1.578,65.161-1.578-65.161a1.578,1.578,0,0,1,3.155-.076c0,.024,0,.053,0,.076" transform="translate(-188.222 -40.002)" fill="url(#linear-gradient)"/>
          <path id="Path_1879" data-name="Path 1879" d="M241.223,47.393l-1.578,68.995-1.578-68.995a1.578,1.578,0,0,1,3.155-.072c0,.023,0,.05,0,.072" transform="translate(-178.316 -34.289)" fill="url(#linear-gradient)"/>
          <path id="Path_1880" data-name="Path 1880" d="M228,39.764l-1.578,72.828-1.578-72.828A1.578,1.578,0,1,1,228,39.7c0,.021,0,.048,0,.068" transform="translate(-168.41 -28.576)" fill="url(#linear-gradient)"/>
          <path id="Path_1881" data-name="Path 1881" d="M214.772,32.133l-1.578,76.661-1.578-76.661a1.578,1.578,0,0,1,3.155-.065c0,.02,0,.045,0,.065" transform="translate(-158.504 -22.862)" fill="url(#linear-gradient)"/>
          <path id="Path_1882" data-name="Path 1882" d="M201.546,24.5,199.969,105,198.391,24.5a1.578,1.578,0,0,1,3.155-.062c0,.019,0,.044,0,.062" transform="translate(-148.598 -17.147)" fill="url(#linear-gradient)"/>
          <path id="Path_1883" data-name="Path 1883" d="M188.321,16.87,186.743,101.2,185.165,16.87a1.578,1.578,0,0,1,3.155-.059c0,.018,0,.042,0,.059" transform="translate(-138.691 -11.432)" fill="url(#linear-gradient)"/>
          <path id="Path_1884" data-name="Path 1884" d="M175.095,9.238,173.517,97.4,171.939,9.238a1.578,1.578,0,0,1,3.155-.056c0,.017,0,.04,0,.056" transform="translate(-128.785 -5.716)" fill="url(#linear-gradient)"/>
          <path id="Path_1885" data-name="Path 1885" d="M161.869,1.605,160.291,93.6,158.713,1.605a1.578,1.578,0,0,1,3.155-.054c0,.016,0,.038,0,.054" transform="translate(-118.878 0)" fill="url(#linear-gradient)"/>
          <path id="Path_1886" data-name="Path 1886" d="M148.643,9.238,147.065,97.4,145.487,9.238a1.578,1.578,0,0,1,3.155-.056c0,.017,0,.04,0,.056" transform="translate(-108.972 -5.716)" fill="url(#linear-gradient)"/>
          <path id="Path_1887" data-name="Path 1887" d="M135.417,16.87,133.839,101.2,132.261,16.87a1.578,1.578,0,0,1,3.155-.059c0,.018,0,.042,0,.059" transform="translate(-99.065 -11.432)" fill="url(#linear-gradient)"/>
          <path id="Path_1888" data-name="Path 1888" d="M122.19,24.5,120.613,105,119.035,24.5a1.578,1.578,0,0,1,3.155-.062c0,.019,0,.044,0,.062" transform="translate(-89.159 -17.147)" fill="url(#linear-gradient)"/>
          <path id="Path_1889" data-name="Path 1889" d="M108.965,32.133l-1.578,76.661L105.81,32.133a1.578,1.578,0,0,1,3.155-.065c0,.02,0,.045,0,.065" transform="translate(-79.253 -22.862)" fill="url(#linear-gradient)"/>
          <path id="Path_1890" data-name="Path 1890" d="M95.739,39.763,94.162,112.59,92.584,39.763a1.578,1.578,0,1,1,3.155-.068c0,.021,0,.048,0,.068" transform="translate(-69.346 -28.575)" fill="url(#linear-gradient)"/>
          <path id="Path_1891" data-name="Path 1891" d="M82.513,47.393l-1.578,68.995L79.358,47.393a1.578,1.578,0,1,1,3.155-.072c0,.022,0,.05,0,.072" transform="translate(-59.44 -34.289)" fill="url(#linear-gradient)"/>
          <path id="Path_1892" data-name="Path 1892" d="M69.287,55.022l-1.578,65.161L66.132,55.022a1.578,1.578,0,0,1,3.155-.076c0,.024,0,.053,0,.076" transform="translate(-49.533 -40.002)" fill="url(#linear-gradient)"/>
          <path id="Path_1893" data-name="Path 1893" d="M56.061,62.651l-1.578,61.328L52.905,62.651a1.578,1.578,0,1,1,3.155-.081c0,.025,0,.056,0,.081" transform="translate(-39.627 -45.714)" fill="url(#linear-gradient)"/>
          <path id="Path_1894" data-name="Path 1894" d="M42.835,70.279l-1.578,57.5-1.578-57.5a1.578,1.578,0,0,1,3.155-.087c0,.027,0,.06,0,.087" transform="translate(-29.72 -51.426)" fill="url(#linear-gradient)"/>
          <path id="Path_1895" data-name="Path 1895" d="M29.608,77.905l-1.578,53.662L26.453,77.905a1.578,1.578,0,0,1,3.155-.093c0,.03,0,.064,0,.093" transform="translate(-19.813 -57.135)" fill="url(#linear-gradient)"/>
          <path id="Path_1896" data-name="Path 1896" d="M16.382,85.53,14.8,135.36,13.227,85.53a1.578,1.578,0,1,1,3.155-.1c0,.032,0,.068,0,.1" transform="translate(-9.906 -62.844)" fill="url(#linear-gradient)"/>
          <path id="Path_1897" data-name="Path 1897" d="M3.156,93.154l-1.578,46L0,93.154a1.579,1.579,0,0,1,3.155-.108c0,.035,0,.074,0,.108" transform="translate(0.001 -68.551)" fill="url(#linear-gradient)"/>
        </g>
      </g>
      <g id="Component_16_1" data-name="Component 16 – 1" transform="translate(-14981 -8205.779)">
        <g id="Group_2821" data-name="Group 2821" clip-path="url(#clip-path-2)">
          <path id="Path_1898" data-name="Path 1898" d="M44.873,89.763a45.694,45.694,0,0,1-27.3-9.456,44.879,44.879,0,0,1-16.4-45.854,42.413,42.413,0,0,1,2.238-6.994A44.47,44.47,0,0,1,36.246.748,45,45,0,0,1,50.881.469,44.41,44.41,0,0,1,71.016,8.933a44.8,44.8,0,0,1,5.451,4.931A43.5,43.5,0,0,1,86.813,54.854a42.691,42.691,0,0,1-2.5,6.916,44.088,44.088,0,0,1-3.624,6.395,42.952,42.952,0,0,1-28.1,18.011A42.3,42.3,0,0,1,3.267,49.735,41.559,41.559,0,0,1,42.6,2.986,40.849,40.849,0,0,1,82.771,29.54,40.354,40.354,0,0,1,80.5,62.779a38.614,38.614,0,0,1-4.84,7.073A39.909,39.909,0,0,1,53.961,82.9a39.807,39.807,0,0,1-17.043.043A39.4,39.4,0,0,1,10.4,62.8,39.386,39.386,0,0,1,5.947,46.348,38.654,38.654,0,0,1,33.759,7.415,37.951,37.951,0,0,1,77.828,25.777a37.454,37.454,0,0,1-3.14,40.584,37.937,37.937,0,0,1-5.978,6.165,36.834,36.834,0,0,1-15.349,7.466A36.419,36.419,0,0,1,36.3,79.756a36.488,36.488,0,0,1-24.927-21.92A37.716,37.716,0,0,1,9.2,49.518a37.16,37.16,0,0,1-.145-8.6A35.821,35.821,0,0,1,14.8,24.845a35.139,35.139,0,0,1,5.566-6.558,37,37,0,0,1,3.327-2.735,37.323,37.323,0,0,1,3.648-2.293,34.9,34.9,0,0,1,7.98-3.2,34.365,34.365,0,0,1,8.518-1.186A34.983,34.983,0,0,1,60.47,12.757a33.631,33.631,0,0,1,7.115,4.84A34.183,34.183,0,0,1,73.3,24.029a35.239,35.239,0,0,1,2.227,3.7,34.722,34.722,0,0,1,1.73,3.951,33.777,33.777,0,0,1,1.954,8.379,34.472,34.472,0,0,1-2.468,16.9A34.229,34.229,0,0,1,66.418,70.584a33.986,33.986,0,0,1-15.633,6.891,35.2,35.2,0,0,1-4.3.436,34.229,34.229,0,0,1-4.314-.145,33.773,33.773,0,0,1-8.41-1.882,32.751,32.751,0,0,1-3.945-1.754,31.367,31.367,0,0,1-3.7-2.227,33.744,33.744,0,0,1-6.377-5.8,33.311,33.311,0,0,1-7.363-15.428,33.932,33.932,0,0,1-.466-8.609A33.229,33.229,0,0,1,13.7,33.636,32.7,32.7,0,0,1,38.878,12.3,32.13,32.13,0,0,1,69.667,24.083a31.821,31.821,0,0,1,6.546,15.8A31.378,31.378,0,0,1,62.461,69.8,31.045,31.045,0,0,1,46.15,74.958,30.6,30.6,0,0,1,17.956,58.072a30.019,30.019,0,0,1,3.733-32.6,29.482,29.482,0,0,1,31.4-9.372,28.92,28.92,0,0,1,20.34,25.64,28.674,28.674,0,0,1-4.041,16.65,28.071,28.071,0,0,1-29.936,12.99,27.747,27.747,0,0,1-14.8-8.64,27.386,27.386,0,0,1-6.812-15.73A26.872,26.872,0,0,1,35.054,19.449a26.342,26.342,0,0,1,17.14-.533,26.1,26.1,0,0,1,13.812,10.17,25.8,25.8,0,0,1,4.447,16.565,25.506,25.506,0,0,1-7,15.658A25.175,25.175,0,0,1,48.062,68.9,24.735,24.735,0,0,1,25.18,58.672,24.54,24.54,0,0,1,21.5,50.764,24.116,24.116,0,0,1,23.3,33.7,23.786,23.786,0,0,1,36.064,22.22a23.4,23.4,0,0,1,17.164.211A23.115,23.115,0,0,1,65.583,34.35a22.771,22.771,0,0,1,.587,17.158A22.456,22.456,0,0,1,61.6,58.974a22.156,22.156,0,0,1-15.633,7.121A21.669,21.669,0,0,1,25.15,52.47,21.252,21.252,0,0,1,25.8,35.3,20.708,20.708,0,0,1,47.826,23.926a20.471,20.471,0,0,1,8.15,3.316,20.015,20.015,0,0,1,8.591,14.877,19.764,19.764,0,0,1-1.295,8.718A19.4,19.4,0,0,1,50.585,62.41a19.081,19.081,0,0,1-8.821.393A18.667,18.667,0,0,1,28.254,52.21a18.305,18.305,0,0,1-1.615-8.694,18.087,18.087,0,0,1,2.662-8.44,17.872,17.872,0,0,1,6.365-6.153,17.644,17.644,0,0,1,8.549-2.317,17.416,17.416,0,0,1,8.6,2.16,17,17,0,0,1,8.845,14.677,16.758,16.758,0,0,1-2.251,8.6,16.451,16.451,0,0,1-6.377,6.189,16.056,16.056,0,0,1-8.694,1.918,15.869,15.869,0,0,1-8.379-3.025,15.6,15.6,0,0,1-5.409-7.091,15.4,15.4,0,0,1-.587-8.912,15.1,15.1,0,0,1,4.526-7.708,14.817,14.817,0,0,1,8.131-3.745,14.5,14.5,0,0,1,8.8,1.7,14.162,14.162,0,0,1,6.074,6.6,13.894,13.894,0,0,1,.835,8.942,13.6,13.6,0,0,1-4.882,7.557,13.332,13.332,0,0,1-8.579,2.765,12.929,12.929,0,0,1-8.343-3.455,12.572,12.572,0,0,1-3.969-8.125,12.258,12.258,0,0,1,2.614-8.676,11.908,11.908,0,0,1,7.938-4.4A11.5,11.5,0,0,1,51.807,35.2a11.093,11.093,0,0,1,3.957,8.21,10.7,10.7,0,0,1-3.679,8.361,10.281,10.281,0,0,1-8.869,2.293,9.828,9.828,0,0,1-7.055-5.875,9.415,9.415,0,0,1-.635-4.707,9.247,9.247,0,0,1,1.767-4.429,9.006,9.006,0,0,1,3.775-2.934,8.758,8.758,0,0,1,4.774-.539A8.406,8.406,0,0,1,50.173,37.7a8.24,8.24,0,0,1,2.438,4.193,7.95,7.95,0,0,1-.429,4.852,7.6,7.6,0,0,1-3.267,3.648,7.272,7.272,0,0,1-4.864.817A6.972,6.972,0,0,1,39.8,48.628,6.594,6.594,0,0,1,38.472,43.8a6.2,6.2,0,0,1,2.608-4.338,5.794,5.794,0,0,1,5.07-.775,5.357,5.357,0,0,1,3.57,3.8,5.053,5.053,0,0,1-.115,2.746,4.724,4.724,0,0,1-1.64,2.269,4.363,4.363,0,0,1-2.723.877,4.091,4.091,0,0,1-2.723-1.107,3.726,3.726,0,0,1-1.162-2.819,3.286,3.286,0,0,1,1.67-2.759,2.865,2.865,0,0,1,1.773-.333,2.573,2.573,0,0,1,1.712.98,2.178,2.178,0,0,1,.242,2.305,1.792,1.792,0,0,1-1.289.974,1.523,1.523,0,0,1-1.7-.871,1.374,1.374,0,0,0,.405.8,1.865,1.865,0,0,0,2.384.055,2.476,2.476,0,0,0,.883-2.571A3.02,3.02,0,0,0,45.43,40.9a3.481,3.481,0,0,0-3.049.46,3.919,3.919,0,0,0-1.652,2.728,4.349,4.349,0,0,0,.865,3.171A4.722,4.722,0,0,0,44.462,49a5.047,5.047,0,0,0,3.358-.563,5.4,5.4,0,0,0,2.311-2.571,5.682,5.682,0,0,0,.309-3.485,5.923,5.923,0,0,0-1.767-3.055,6.2,6.2,0,0,0-3.2-1.573,6.55,6.55,0,0,0-3.57.393,6.86,6.86,0,0,0-2.862,2.214,7.222,7.222,0,0,0-.877,7.018,7.69,7.69,0,0,0,5.506,4.592,8.156,8.156,0,0,0,7.024-1.809,8.586,8.586,0,0,0,2.964-6.7,9,9,0,0,0-3.2-6.667,9.447,9.447,0,0,0-7.127-2.16,9.835,9.835,0,0,0-6.57,3.63,10.193,10.193,0,0,0-2.184,7.224,10.555,10.555,0,0,0,3.315,6.825,10.937,10.937,0,0,0,7.042,2.928,11.27,11.27,0,0,0,7.3-2.335,11.608,11.608,0,0,0,4.193-6.45,11.982,11.982,0,0,0-.7-7.7,12.239,12.239,0,0,0-5.245-5.705,12.574,12.574,0,0,0-7.629-1.489,12.944,12.944,0,0,0-7.085,3.255,13.176,13.176,0,0,0-3.969,6.734,13.439,13.439,0,0,0,.5,7.823,13.786,13.786,0,0,0,4.755,6.256,14.045,14.045,0,0,0,7.4,2.686,14.287,14.287,0,0,0,7.708-1.688,14.653,14.653,0,0,0,5.687-5.5,14.912,14.912,0,0,0,2.015-7.66,15.172,15.172,0,0,0-2.178-7.635,15.346,15.346,0,0,0-5.73-5.506,15.643,15.643,0,0,0-7.72-1.948,15.913,15.913,0,0,0-7.7,2.081A16.1,16.1,0,0,0,30.795,36a16.369,16.369,0,0,0-2.414,7.617,16.624,16.624,0,0,0,1.458,7.871,16.944,16.944,0,0,0,4.949,6.3,17.195,17.195,0,0,0,15.325,2.977,17.471,17.471,0,0,0,7.018-3.915A17.8,17.8,0,0,0,61.7,50.22a18.255,18.255,0,0,0-6.673-21.605A18.692,18.692,0,0,0,39.47,25.946,19.215,19.215,0,0,0,27.262,36.02a19.632,19.632,0,0,0-.617,15.851A20.046,20.046,0,0,0,37.916,63.1a20.4,20.4,0,0,0,15.93-.423,20.89,20.89,0,0,0,10.878-11.7A21.231,21.231,0,0,0,64.2,34.967,21.61,21.61,0,0,0,52.66,23.823a21.852,21.852,0,0,0-16.069-.206A22.319,22.319,0,0,0,24.618,34.368a22.665,22.665,0,0,0-1.706,16.027,23.108,23.108,0,0,0,3.455,7.436A23.28,23.28,0,0,0,47.91,67.474a23.74,23.74,0,0,0,14.52-7.145,24.086,24.086,0,0,0,6.625-14.787,24.412,24.412,0,0,0-4.2-15.676,24.681,24.681,0,0,0-13.068-9.638,25.053,25.053,0,0,0-8.168-1.119A25.285,25.285,0,0,0,22.948,31.041a25.875,25.875,0,0,0,2.686,30.831,26.427,26.427,0,0,0,14.1,8.24A26.8,26.8,0,0,0,68.3,57.728a27.336,27.336,0,0,0,3.866-15.906,27.866,27.866,0,0,0-35.847-24.63A28.546,28.546,0,0,0,16.159,41.35a28.966,28.966,0,0,0,2.862,16.19,29.414,29.414,0,0,0,27.1,16.244A29.948,29.948,0,0,0,72.54,56.312a30.355,30.355,0,0,0,2.553-16.293,30.686,30.686,0,0,0-6.3-15.246,31.2,31.2,0,0,0-44.7-4.4A31.626,31.626,0,0,0,14.7,33.993a32.123,32.123,0,0,0-1.724,8.161,32.581,32.581,0,0,0,.448,8.331,32.339,32.339,0,0,0,20.7,24.406,32.624,32.624,0,0,0,16.493,1.573,33.038,33.038,0,0,0,15.162-6.685,34.127,34.127,0,0,0,5.844-5.971,33.44,33.44,0,0,0,6.589-23.65,32.691,32.691,0,0,0-1.894-8.138,34.919,34.919,0,0,0-1.682-3.836,34.852,34.852,0,0,0-4.731-6.9,36.1,36.1,0,0,0-2.977-2.953,34.234,34.234,0,0,0-31.364-7.351,33.592,33.592,0,0,0-7.768,3.11,33.027,33.027,0,0,0-6.788,4.895,33.3,33.3,0,0,0-5.427,6.371,34.907,34.907,0,0,0-5.6,15.658,35.57,35.57,0,0,0,.133,8.373A36.124,36.124,0,0,0,12.239,57.5,35.638,35.638,0,0,0,53.168,79.121a36.189,36.189,0,0,0,14.98-7.279,37.375,37.375,0,0,0,5.838-6.02A36.644,36.644,0,0,0,81.47,42.264a36.919,36.919,0,0,0-4.4-16.076,37.98,37.98,0,0,0-4.792-6.9,38.439,38.439,0,0,0-6.238-5.614,37.2,37.2,0,0,0-15.4-6.407A37.642,37.642,0,0,0,9.68,29.873a38.189,38.189,0,0,0,1.428,32.562A38.761,38.761,0,0,0,53.8,82.146,39.165,39.165,0,0,0,79.849,62.429a39.777,39.777,0,0,0-6.728-46.762A40.416,40.416,0,0,0,26.408,7.851a41.036,41.036,0,0,0-22.482,41.8,41.648,41.648,0,0,0,31.8,35.381,42.158,42.158,0,0,0,32.4-5.548,43.071,43.071,0,0,0,6.613-5.233,42.218,42.218,0,0,0,5.445-6.437,42.838,42.838,0,0,0-4.144-53.55A43.329,43.329,0,0,0,50.8,1.032,43.849,43.849,0,0,0,3.9,27.665a44.622,44.622,0,0,0,26.724,59.1,44.151,44.151,0,0,0,31.551-.877A45.248,45.248,0,0,0,90.249,44.272,45.481,45.481,0,0,1,44.873,89.763" transform="translate(0 0)" fill="url(#linear-gradient-2)"/>
        </g>
      </g>
      <g id="Component_17_1" data-name="Component 17 – 1" transform="translate(-14980.486 -8095.78)">
        <g id="Group_2823" data-name="Group 2823" clip-path="url(#clip-path-3)">
          <path id="Path_1899" data-name="Path 1899" d="M149.457,2.532H132.679a1.266,1.266,0,1,1,0-2.533h16.778a1.266,1.266,0,0,1,0,2.533" transform="translate(-96.406 0.001)" fill="url(#linear-gradient-3)"/>
          <path id="Path_1900" data-name="Path 1900" d="M136.511,13.581H104.885a1.239,1.239,0,0,1,0-2.478h31.627a1.239,1.239,0,0,1,0,2.478" transform="translate(-76.036 -8.145)" fill="url(#linear-gradient-3)"/>
          <path id="Path_1901" data-name="Path 1901" d="M125.874,24.654H81.987a1.2,1.2,0,1,1,0-2.395h43.886a1.2,1.2,0,0,1,0,2.395" transform="translate(-59.268 -16.329)" fill="url(#linear-gradient-3)"/>
          <path id="Path_1902" data-name="Path 1902" d="M118.211,35.725H65.457a1.156,1.156,0,0,1,0-2.312h52.754a1.156,1.156,0,0,1,0,2.312" transform="translate(-47.172 -24.512)" fill="url(#linear-gradient-3)"/>
          <path id="Path_1903" data-name="Path 1903" d="M112.137,46.774H52.37a1.129,1.129,0,1,1,0-2.257h59.767a1.129,1.129,0,0,1,0,2.257" transform="translate(-37.591 -32.658)" fill="url(#linear-gradient-3)"/>
          <path id="Path_1904" data-name="Path 1904" d="M107.2,57.847H41.677a1.087,1.087,0,1,1,0-2.174H107.2a1.087,1.087,0,1,1,0,2.174" transform="translate(-29.777 -40.842)" fill="url(#linear-gradient-3)"/>
          <path id="Path_1905" data-name="Path 1905" d="M103.1,68.919H32.765a1.046,1.046,0,1,1,0-2.092H103.1a1.046,1.046,0,0,1,0,2.092" transform="translate(-23.269 -49.025)" fill="url(#linear-gradient-3)"/>
          <path id="Path_1906" data-name="Path 1906" d="M99.649,79.979H25.272a1.011,1.011,0,1,1,0-2.023H99.649a1.011,1.011,0,1,1,0,2.023" transform="translate(-17.798 -57.189)" fill="url(#linear-gradient-3)"/>
          <path id="Path_1907" data-name="Path 1907" d="M96.768,91.04H19a.977.977,0,1,1,0-1.954h77.77a.977.977,0,0,1,0,1.954" transform="translate(-13.22 -65.354)" fill="url(#linear-gradient-3)"/>
          <path id="Path_1908" data-name="Path 1908" d="M94.424,102.125H13.83a.929.929,0,0,1,0-1.858H94.424a.929.929,0,0,1,0,1.858" transform="translate(-9.464 -73.557)" fill="url(#linear-gradient-3)"/>
          <path id="Path_1909" data-name="Path 1909" d="M92.472,113.172H9.565a.9.9,0,0,1,0-1.8H92.472a.9.9,0,1,1,0,1.8" transform="translate(-6.356 -81.702)" fill="url(#linear-gradient-3)"/>
          <path id="Path_1910" data-name="Path 1910" d="M90.952,124.233H6.2a.867.867,0,0,1,0-1.733H90.952a.867.867,0,0,1,0,1.733" transform="translate(-3.915 -89.867)" fill="url(#linear-gradient-3)"/>
          <path id="Path_1911" data-name="Path 1911" d="M89.854,135.318H3.7a.818.818,0,1,1,0-1.636H89.854a.818.818,0,1,1,0,1.636" transform="translate(-2.116 -98.07)" fill="url(#linear-gradient-3)"/>
          <path id="Path_1912" data-name="Path 1912" d="M89.068,146.366H1.933a.791.791,0,0,1,0-1.581H89.068a.791.791,0,0,1,0,1.581" transform="translate(-0.838 -106.215)" fill="url(#linear-gradient-3)"/>
          <path id="Path_1913" data-name="Path 1913" d="M88.671,157.439H.954a.749.749,0,1,1,0-1.5H88.671a.749.749,0,1,1,0,1.5" transform="translate(-0.15 -114.4)" fill="url(#linear-gradient-3)"/>
          <path id="Path_1914" data-name="Path 1914" d="M88.617,168.513H.708a.708.708,0,0,1,0-1.416H88.617a.708.708,0,0,1,0,1.416" transform="translate(0 -122.584)" fill="url(#linear-gradient-3)"/>
          <path id="Path_1915" data-name="Path 1915" d="M88.861,179.56H1.144a.68.68,0,1,1,0-1.36H88.861a.68.68,0,1,1,0,1.36" transform="translate(-0.34 -130.729)" fill="url(#linear-gradient-3)"/>
          <path id="Path_1916" data-name="Path 1916" d="M89.486,190.633H2.351a.639.639,0,0,1,0-1.278H89.486a.639.639,0,0,1,0,1.278" transform="translate(-1.256 -138.912)" fill="url(#linear-gradient-3)"/>
          <path id="Path_1917" data-name="Path 1917" d="M90.462,201.706H4.311a.6.6,0,1,1,0-1.2H90.462a.6.6,0,1,1,0,1.2" transform="translate(-2.724 -147.096)" fill="url(#linear-gradient-3)"/>
          <path id="Path_1918" data-name="Path 1918" d="M91.787,212.766H7.038a.563.563,0,0,1,0-1.127H91.787a.563.563,0,0,1,0,1.127" transform="translate(-4.75 -155.26)" fill="url(#linear-gradient-3)"/>
          <path id="Path_1919" data-name="Path 1919" d="M93.516,223.838H10.609a.522.522,0,1,1,0-1.044H93.516a.522.522,0,1,1,0,1.044" transform="translate(-7.4 -163.443)" fill="url(#linear-gradient-3)"/>
          <path id="Path_1920" data-name="Path 1920" d="M95.64,234.9H15.045a.487.487,0,1,1,0-.974H95.64a.487.487,0,1,1,0,.974" transform="translate(-10.68 -171.609)" fill="url(#linear-gradient-3)"/>
          <path id="Path_1921" data-name="Path 1921" d="M98.21,245.96H20.44a.453.453,0,1,1,0-.906H98.21a.453.453,0,0,1,0,.906" transform="translate(-14.663 -179.774)" fill="url(#linear-gradient-3)"/>
          <path id="Path_1922" data-name="Path 1922" d="M101.3,257.031H26.925a.412.412,0,0,1,0-.823H101.3a.412.412,0,0,1,0,.823" transform="translate(-19.45 -187.956)" fill="url(#linear-gradient-3)"/>
          <path id="Path_1923" data-name="Path 1923" d="M104.941,268.093H34.607a.377.377,0,1,1,0-.754h70.334a.377.377,0,1,1,0,.754" transform="translate(-25.111 -196.122)" fill="url(#linear-gradient-3)"/>
          <path id="Path_1924" data-name="Path 1924" d="M109.272,279.164H43.747a.336.336,0,0,1,0-.671h65.525a.336.336,0,0,1,0,.671" transform="translate(-31.847 -204.305)" fill="url(#linear-gradient-3)"/>
          <path id="Path_1925" data-name="Path 1925" d="M114.435,290.236H54.667a.294.294,0,1,1,0-.589h59.767a.294.294,0,0,1,0,.589" transform="translate(-39.888 -212.488)" fill="url(#linear-gradient-3)"/>
          <path id="Path_1926" data-name="Path 1926" d="M120.679,301.3H67.925a.26.26,0,1,1,0-.52h52.754a.26.26,0,1,1,0,.52" transform="translate(-49.64 -220.652)" fill="url(#linear-gradient-3)"/>
          <path id="Path_1927" data-name="Path 1927" d="M128.551,312.357H84.664a.225.225,0,1,1,0-.45h43.886a.225.225,0,1,1,0,.45" transform="translate(-61.945 -228.817)" fill="url(#linear-gradient-3)"/>
          <path id="Path_1928" data-name="Path 1928" d="M139.416,323.43H107.79a.184.184,0,0,1,0-.368h31.627a.184.184,0,0,1,0,.368" transform="translate(-78.941 -237.001)" fill="url(#linear-gradient-3)"/>
          <path id="Path_1929" data-name="Path 1929" d="M152.532,334.49H135.755a.15.15,0,1,1,0-.3h16.778a.15.15,0,1,1,0,.3" transform="translate(-99.481 -245.165)" fill="url(#linear-gradient-3)"/>
        </g>
      </g>
    </g>
    <g id="Group_3141" data-name="Group 3141" transform="translate(196.124)">
      <g id="Group_3136" data-name="Group 3136" transform="translate(731.127 2966.03)">
        <g id="Group_3135" data-name="Group 3135" clip-path="url(#clip-path-4)">
          <path id="Path_2673" data-name="Path 2673" d="M94.949,58.805A4.748,4.748,0,1,1,99.7,54.057a4.753,4.753,0,0,1-4.748,4.748m0-8.406a3.658,3.658,0,1,0,3.658,3.658A3.662,3.662,0,0,0,94.949,50.4" transform="translate(-46.7 -25.529)" fill="url(#linear-gradient-4)"/>
          <path id="Path_2674" data-name="Path 2674" d="M90.436,58.5a8.951,8.951,0,1,1,8.95-8.951,8.962,8.962,0,0,1-8.95,8.951m0-16.811a7.861,7.861,0,1,0,7.86,7.861,7.87,7.87,0,0,0-7.86-7.861" transform="translate(-42.187 -21.017)" fill="url(#linear-gradient-4)"/>
          <path id="Path_2675" data-name="Path 2675" d="M85.925,58.187A13.154,13.154,0,1,1,99.078,45.033,13.169,13.169,0,0,1,85.925,58.187m0-25.217A12.064,12.064,0,1,0,97.988,45.033,12.077,12.077,0,0,0,85.925,32.969" transform="translate(-37.676 -16.505)" fill="url(#linear-gradient-4)"/>
          <path id="Path_2676" data-name="Path 2676" d="M81.412,57.878A17.357,17.357,0,1,1,98.769,40.521,17.377,17.377,0,0,1,81.412,57.878m0-33.623A16.267,16.267,0,1,0,97.678,40.521,16.286,16.286,0,0,0,81.412,24.255" transform="translate(-33.163 -11.993)" fill="url(#linear-gradient-4)"/>
          <path id="Path_2677" data-name="Path 2677" d="M76.9,57.569a21.56,21.56,0,1,1,21.56-21.56A21.584,21.584,0,0,1,76.9,57.569m0-42.029a20.469,20.469,0,1,0,20.47,20.469A20.492,20.492,0,0,0,76.9,15.54" transform="translate(-28.652 -7.481)" fill="url(#linear-gradient-4)"/>
          <path id="Path_2678" data-name="Path 2678" d="M72.389,57.26A25.763,25.763,0,1,1,98.151,31.5,25.792,25.792,0,0,1,72.389,57.26m0-50.435A24.672,24.672,0,1,0,97.061,31.5,24.7,24.7,0,0,0,72.389,6.825" transform="translate(-24.14 -2.969)" fill="url(#linear-gradient-4)"/>
          <path id="Path_2679" data-name="Path 2679" d="M138.025,35.182a.546.546,0,0,1-.534-.658,29.1,29.1,0,0,0,.623-6A28.805,28.805,0,0,0,118.179,1.063a.545.545,0,0,1,.338-1.037,30.011,30.011,0,0,1,20.041,34.723.546.546,0,0,1-.533.433" transform="translate(-60.99 0)" fill="url(#linear-gradient-4)"/>
          <path id="Path_2680" data-name="Path 2680" d="M39.092,35.182a.546.546,0,0,1-.533-.433A30.011,30.011,0,0,1,58.6.026a.545.545,0,0,1,.338,1.037A28.921,28.921,0,0,0,39.626,34.524a.546.546,0,0,1-.534.658" transform="translate(-19.628 0)" fill="url(#linear-gradient-4)"/>
          <path id="Path_2681" data-name="Path 2681" d="M78.321,112a29.9,29.9,0,0,1-20.057-7.7.545.545,0,1,1,.73-.81,28.876,28.876,0,0,0,38.654,0,.545.545,0,1,1,.73.81A29.9,29.9,0,0,1,78.321,112" transform="translate(-30.071 -53.506)" fill="url(#linear-gradient-4)"/>
          <path id="Path_2682" data-name="Path 2682" d="M153.033,26.921a.545.545,0,0,1-.544-.511A33.271,33.271,0,0,0,137.822,1a.545.545,0,0,1,.606-.907,34.367,34.367,0,0,1,15.15,26.249.545.545,0,0,1-.51.579h-.035" transform="translate(-71.229 0)" fill="url(#linear-gradient-4)"/>
          <path id="Path_2683" data-name="Path 2683" d="M29.883,26.921h-.035a.545.545,0,0,1-.51-.579A34.367,34.367,0,0,1,44.488.092.545.545,0,0,1,45.094,1,33.271,33.271,0,0,0,30.427,26.41a.545.545,0,0,1-.544.511" transform="translate(-15.189 0)" fill="url(#linear-gradient-4)"/>
          <path id="Path_2684" data-name="Path 2684" d="M83.457,125.1a33.828,33.828,0,0,1-15.15-3.534.545.545,0,0,1,.484-.977,33.151,33.151,0,0,0,29.331,0,.545.545,0,0,1,.484.977A33.827,33.827,0,0,1,83.457,125.1" transform="translate(-35.208 -62.403)" fill="url(#linear-gradient-4)"/>
          <path id="Path_2685" data-name="Path 2685" d="M163.748,21.014a.545.545,0,0,1-.532-.43A37.048,37.048,0,0,0,151.868.949.545.545,0,1,1,152.6.142a38.129,38.129,0,0,1,11.68,20.211.545.545,0,0,1-.417.649.568.568,0,0,1-.116.013" transform="translate(-78.534 0)" fill="url(#linear-gradient-4)"/>
          <path id="Path_2686" data-name="Path 2686" d="M22.812,21.014A.568.568,0,0,1,22.7,21a.545.545,0,0,1-.417-.649A38.129,38.129,0,0,1,33.958.142a.545.545,0,0,1,.734.806A37.048,37.048,0,0,0,23.344,20.584a.545.545,0,0,1-.532.43" transform="translate(-11.528 0)" fill="url(#linear-gradient-4)"/>
          <path id="Path_2687" data-name="Path 2687" d="M87.114,135.636a38.367,38.367,0,0,1-11.667-1.806.545.545,0,0,1,.331-1.039,37.494,37.494,0,0,0,22.671,0,.545.545,0,1,1,.331,1.039,38.367,38.367,0,0,1-11.666,1.806" transform="translate(-38.864 -68.737)" fill="url(#linear-gradient-4)"/>
          <path id="Path_2688" data-name="Path 2688" d="M173.046,15.9a.545.545,0,0,1-.518-.375A41.192,41.192,0,0,0,164.078.909a.545.545,0,0,1,.814-.726,42.29,42.29,0,0,1,8.673,15,.546.546,0,0,1-.347.689.54.54,0,0,1-.171.027" transform="translate(-84.876 0)" fill="url(#linear-gradient-4)"/>
          <path id="Path_2689" data-name="Path 2689" d="M16.682,15.9a.54.54,0,0,1-.171-.027.546.546,0,0,1-.347-.689,42.29,42.29,0,0,1,8.673-15,.545.545,0,0,1,.814.726A41.191,41.191,0,0,0,17.2,15.52a.545.545,0,0,1-.518.375" transform="translate(-8.355 0)" fill="url(#linear-gradient-4)"/>
          <path id="Path_2690" data-name="Path 2690" d="M90.283,145.328a42.871,42.871,0,0,1-8.66-.882.545.545,0,0,1,.221-1.068,42.066,42.066,0,0,0,16.877,0,.545.545,0,1,1,.22,1.068,42.862,42.862,0,0,1-8.659.882" transform="translate(-42.034 -74.225)" fill="url(#linear-gradient-4)"/>
          <path id="Path_2691" data-name="Path 2691" d="M181.613,11.181a.545.545,0,0,1-.5-.334A45.663,45.663,0,0,0,175.341.876a.545.545,0,1,1,.868-.661,46.741,46.741,0,0,1,5.907,10.21.545.545,0,0,1-.292.713.535.535,0,0,1-.211.043" transform="translate(-90.722 0)" fill="url(#linear-gradient-4)"/>
          <path id="Path_2692" data-name="Path 2692" d="M11.041,11.181a.535.535,0,0,1-.211-.043.545.545,0,0,1-.292-.713A46.742,46.742,0,0,1,16.445.215a.545.545,0,1,1,.868.661,45.663,45.663,0,0,0-5.769,9.971.545.545,0,0,1-.5.334" transform="translate(-5.434 0)" fill="url(#linear-gradient-4)"/>
          <path id="Path_2693" data-name="Path 2693" d="M93.2,154.585a47.4,47.4,0,0,1-5.9-.368.545.545,0,1,1,.136-1.082,46.54,46.54,0,0,0,11.524,0,.545.545,0,1,1,.136,1.082,47.406,47.406,0,0,1-5.9.368" transform="translate(-44.952 -79.28)" fill="url(#linear-gradient-4)"/>
          <path id="Path_2694" data-name="Path 2694" d="M189.733,6.716a.545.545,0,0,1-.489-.3,49.941,49.941,0,0,0-3.22-5.564.545.545,0,0,1,.907-.606,51.039,51.039,0,0,1,3.29,5.686.545.545,0,0,1-.488.787" transform="translate(-96.263 0)" fill="url(#linear-gradient-4)"/>
          <path id="Path_2695" data-name="Path 2695" d="M5.694,6.716a.545.545,0,0,1-.488-.787A51.037,51.037,0,0,1,8.5.243.545.545,0,1,1,9.4.849a49.941,49.941,0,0,0-3.22,5.564.545.545,0,0,1-.489.3" transform="translate(-2.666 0)" fill="url(#linear-gradient-4)"/>
          <path id="Path_2696" data-name="Path 2696" d="M95.969,163.58c-1.1,0-2.2-.035-3.288-.1a.545.545,0,0,1,.069-1.088,50.832,50.832,0,0,0,6.437,0,.545.545,0,1,1,.069,1.088c-1.087.069-2.193.1-3.287.1" transform="translate(-47.719 -84.072)" fill="url(#linear-gradient-4)"/>
          <path id="Path_2697" data-name="Path 2697" d="M197.553,2.415a.543.543,0,0,1-.476-.279c-.245-.436-.5-.877-.759-1.31a.545.545,0,1,1,.936-.559c.264.442.525.892.774,1.337a.545.545,0,0,1-.475.812" transform="translate(-101.6 0)" fill="url(#linear-gradient-4)"/>
          <path id="Path_2698" data-name="Path 2698" d="M.545,2.415A.546.546,0,0,1,.07,1.6C.321,1.156.581.706.844.266A.545.545,0,1,1,1.78.825c-.258.431-.513.872-.759,1.311a.544.544,0,0,1-.476.279" transform="translate(0 0)" fill="url(#linear-gradient-4)"/>
          <path id="Path_2699" data-name="Path 2699" d="M98.634,172.4q-.39,0-.778-.005a.545.545,0,0,1,.016-1.09c.507.007,1.018.007,1.524,0a.545.545,0,0,1,.016,1.09q-.389.005-.778.005" transform="translate(-50.384 -88.69)" fill="url(#linear-gradient-4)"/>
          <path id="Path_2700" data-name="Path 2700" d="M99.459,59.114a.55.55,0,0,1-.384-.158.62.62,0,0,1-.068-.084.583.583,0,0,1-.052-.093c-.011-.036-.022-.068-.03-.1a.538.538,0,0,1,0-.213c.008-.035.019-.068.03-.1a.558.558,0,0,1,.12-.177.4.4,0,0,1,.082-.068.7.7,0,0,1,.1-.052.64.64,0,0,1,.1-.03.564.564,0,0,1,.213,0,.66.66,0,0,1,.1.03.621.621,0,0,1,.093.052.525.525,0,0,1,.085.068.768.768,0,0,1,.068.082.522.522,0,0,1,.049.1.434.434,0,0,1,.03.1.538.538,0,0,1,0,.213.5.5,0,0,1-.03.1.6.6,0,0,1-.049.093,1.062,1.062,0,0,1-.068.084.557.557,0,0,1-.387.158" transform="translate(-51.211 -30.041)" fill="url(#linear-gradient-4)"/>
        </g>
      </g>
      <g id="Group_3138" data-name="Group 3138" transform="translate(738 2742.15)">
        <g id="Group_3137" data-name="Group 3137" clip-path="url(#clip-path-5)">
          <path id="Path_2701" data-name="Path 2701" d="M80.663,90.973a2.307,2.307,0,0,1-1.154-.309L71.1,85.81a2.315,2.315,0,0,1-1.154-2V74.1a2.313,2.313,0,0,1,1.154-2l8.408-4.855a2.313,2.313,0,0,1,2.307,0L90.224,72.1a2.313,2.313,0,0,1,1.154,2v9.709a2.314,2.314,0,0,1-1.154,2l-8.408,4.854a2.3,2.3,0,0,1-1.153.309m0-23.041a1.317,1.317,0,0,0-.658.176L71.6,72.962a1.322,1.322,0,0,0-.658,1.141v9.709a1.322,1.322,0,0,0,.658,1.14L80,89.806a1.318,1.318,0,0,0,1.316,0l8.408-4.854a1.322,1.322,0,0,0,.658-1.14V74.1a1.321,1.321,0,0,0-.658-1.141l-8.408-4.854a1.319,1.319,0,0,0-.658-.176" transform="translate(-39.287 -37.599)" fill="url(#linear-gradient-4)"/>
          <path id="Path_2702" data-name="Path 2702" d="M75.05,89.794a7.883,7.883,0,0,1-3.944-1.054L63.9,84.579a7.911,7.911,0,0,1-3.944-6.832V69.426A7.911,7.911,0,0,1,63.9,62.594l7.207-4.161a7.91,7.91,0,0,1,7.889,0L86.2,62.594a7.911,7.911,0,0,1,3.945,6.832v8.322A7.912,7.912,0,0,1,86.2,84.579L79,88.74a7.889,7.889,0,0,1-3.945,1.054m0-31.424a6.9,6.9,0,0,0-3.449.921l-7.207,4.161a6.917,6.917,0,0,0-3.449,5.974v8.322a6.917,6.917,0,0,0,3.449,5.974L71.6,87.882a6.917,6.917,0,0,0,6.9,0l7.207-4.161a6.917,6.917,0,0,0,3.449-5.974V69.426a6.917,6.917,0,0,0-3.449-5.974L78.5,59.291a6.9,6.9,0,0,0-3.449-.921" transform="translate(-33.674 -32.228)" fill="url(#linear-gradient-4)"/>
          <path id="Path_2703" data-name="Path 2703" d="M69.439,88.613a13.465,13.465,0,0,1-6.735-1.8L56.7,83.347a13.506,13.506,0,0,1-6.735-11.665V64.747A13.508,13.508,0,0,1,56.7,53.081L62.7,49.614a13.507,13.507,0,0,1,13.47,0l6.006,3.467a13.507,13.507,0,0,1,6.735,11.665v6.935a13.506,13.506,0,0,1-6.735,11.665l-6.006,3.468a13.467,13.467,0,0,1-6.735,1.8m0-39.808A12.474,12.474,0,0,0,63.2,50.472L57.193,53.94a12.514,12.514,0,0,0-6.24,10.807v6.935a12.514,12.514,0,0,0,6.24,10.807L63.2,85.956a12.514,12.514,0,0,0,12.479,0l6.006-3.468a12.513,12.513,0,0,0,6.239-10.807V64.747A12.513,12.513,0,0,0,81.684,53.94l-6.006-3.467a12.472,12.472,0,0,0-6.239-1.667" transform="translate(-28.062 -26.856)" fill="url(#linear-gradient-4)"/>
          <path id="Path_2704" data-name="Path 2704" d="M63.826,87.434A19.048,19.048,0,0,1,54.3,84.89L49.5,82.116a19.1,19.1,0,0,1-9.525-16.5V60.069a19.1,19.1,0,0,1,9.525-16.5L54.3,40.8a19.1,19.1,0,0,1,19.051,0l4.8,2.774a19.1,19.1,0,0,1,9.526,16.5v5.548a19.1,19.1,0,0,1-9.526,16.5l-4.8,2.774a19.05,19.05,0,0,1-9.526,2.544m0-48.191a18.057,18.057,0,0,0-9.03,2.412l-4.8,2.774a18.11,18.11,0,0,0-9.03,15.64v5.548a18.11,18.11,0,0,0,9.03,15.64l4.8,2.774a18.111,18.111,0,0,0,18.06,0l4.805-2.774a18.111,18.111,0,0,0,9.03-15.64V60.069a18.11,18.11,0,0,0-9.03-15.64l-4.805-2.774a18.056,18.056,0,0,0-9.03-2.412" transform="translate(-22.45 -21.485)" fill="url(#linear-gradient-4)"/>
          <path id="Path_2705" data-name="Path 2705" d="M58.212,86.255A24.629,24.629,0,0,1,45.9,82.965l-3.6-2.08A24.7,24.7,0,0,1,29.977,59.552V55.391A24.7,24.7,0,0,1,42.293,34.059l3.6-2.08a24.7,24.7,0,0,1,24.632,0l3.6,2.08A24.7,24.7,0,0,1,86.448,55.391v4.161A24.7,24.7,0,0,1,74.132,80.885l-3.6,2.08a24.627,24.627,0,0,1-12.316,3.29m0-56.575a23.64,23.64,0,0,0-11.821,3.157l-3.6,2.081A23.706,23.706,0,0,0,30.968,55.391v4.161A23.708,23.708,0,0,0,42.789,80.026l3.6,2.08a23.707,23.707,0,0,0,23.641,0l3.6-2.08A23.708,23.708,0,0,0,85.458,59.552V55.391A23.707,23.707,0,0,0,73.637,34.917l-3.6-2.081A23.64,23.64,0,0,0,58.213,29.68" transform="translate(-16.837 -16.114)" fill="url(#linear-gradient-4)"/>
          <path id="Path_2706" data-name="Path 2706" d="M52.6,85.075A30.21,30.21,0,0,1,37.494,81.04l-2.4-1.387A30.3,30.3,0,0,1,19.985,53.488V50.713A30.3,30.3,0,0,1,35.092,24.548l2.4-1.387a30.3,30.3,0,0,1,30.213,0l2.4,1.387A30.3,30.3,0,0,1,85.217,50.713v2.774A30.3,30.3,0,0,1,70.11,79.653l-2.4,1.387A30.21,30.21,0,0,1,52.6,85.075m0-64.959a29.218,29.218,0,0,0-14.611,3.9l-2.4,1.387A29.3,29.3,0,0,0,20.976,50.713v2.774A29.3,29.3,0,0,0,35.587,78.8l2.4,1.387a29.3,29.3,0,0,0,29.222,0l2.4-1.387A29.3,29.3,0,0,0,84.226,53.488V50.713A29.3,29.3,0,0,0,69.614,25.406l-2.4-1.387a29.218,29.218,0,0,0-14.611-3.9" transform="translate(-11.225 -10.742)" fill="url(#linear-gradient-4)"/>
          <path id="Path_2707" data-name="Path 2707" d="M46.989,83.9a35.784,35.784,0,0,1-17.9-4.781l-1.2-.693a35.894,35.894,0,0,1-17.9-31V46.036a35.893,35.893,0,0,1,17.9-31l1.2-.694a35.9,35.9,0,0,1,35.795,0l1.2.694a35.893,35.893,0,0,1,17.9,31v1.387a35.893,35.893,0,0,1-17.9,31l-1.2.693a35.784,35.784,0,0,1-17.9,4.781m0-73.342a34.791,34.791,0,0,0-17.4,4.648l-1.2.694a34.9,34.9,0,0,0-17.4,30.141v1.387a34.9,34.9,0,0,0,17.4,30.141l1.2.693a34.9,34.9,0,0,0,34.8,0l1.2-.693a34.9,34.9,0,0,0,17.4-30.141V46.036A34.9,34.9,0,0,0,65.592,15.9l-1.2-.694a34.8,34.8,0,0,0-17.4-4.648" transform="translate(-5.613 -5.371)" fill="url(#linear-gradient-4)"/>
          <path id="Path_2708" data-name="Path 2708" d="M41.376,82.716a41.335,41.335,0,1,1,20.688-5.526,41.367,41.367,0,0,1-20.688,5.526m0-81.726A40.344,40.344,0,1,0,61.569,6.384,40.374,40.374,0,0,0,41.376.991" transform="translate(0 0)" fill="url(#linear-gradient-4)"/>
        </g>
      </g>
      <g id="Group_3140" data-name="Group 3140" transform="translate(737.213 2853.19)">
        <g id="Group_3139" data-name="Group 3139" clip-path="url(#clip-path-6)">
          <path id="Path_2709" data-name="Path 2709" d="M420.326,728.9a65.641,65.641,0,0,1-10.515,2.66,43.468,43.468,0,0,0,6.441-.96c1.444-.4,2.85-.835,4.211-1.284q.93-.306,1.844-.565,1.326-.513,2.608-1.109a46.815,46.815,0,0,0-4.59,1.258" transform="translate(-363.04 -644.599)" fill="url(#linear-gradient-4)"/>
          <path id="Path_2710" data-name="Path 2710" d="M209.076,695.326q.471-.279.935-.57a42.135,42.135,0,0,0-9.542,2.306c-7.58,2.824-15.957,4.978-25.833,1.643a31.977,31.977,0,0,1-4.885-2.3,24,24,0,0,0-6.687-2.79,10.91,10.91,0,0,0-1.234-.169q.383.27.773.533c.125.02.25.042.377.066a23.667,23.667,0,0,1,6.562,2.745,32.28,32.28,0,0,0,4.953,2.33c10.006,3.377,18.47,1.2,26.127-1.648a41.238,41.238,0,0,1,8.454-2.147" transform="translate(-143.36 -614.305)" fill="url(#linear-gradient-4)"/>
          <path id="Path_2711" data-name="Path 2711" d="M145,677.635a25.364,25.364,0,0,1,6.723,2.908,34.511,34.511,0,0,0,5.061,2.446c9.577,3.4,17.067,1.78,25.367-1.69a39.481,39.481,0,0,1,12.012-2.781q.337-.244.668-.493a40.5,40.5,0,0,0-12.849,2.869c-8.441,3.529-15.576,5.041-25.051,1.682a34.206,34.206,0,0,1-5-2.416,25.689,25.689,0,0,0-6.842-2.953,10.911,10.911,0,0,0-3.861-.158q.241.2.486.389a10.506,10.506,0,0,1,3.282.2" transform="translate(-125.112 -599.686)" fill="url(#linear-gradient-4)"/>
          <path id="Path_2712" data-name="Path 2712" d="M131.663,661.16a26.619,26.619,0,0,1,6.917,3.1,36.79,36.79,0,0,0,5.109,2.557c9.775,3.671,16.2,2.23,24.645-1.712a38.756,38.756,0,0,1,14.826-3.224q.271-.229.538-.462a39.756,39.756,0,0,0-15.549,3.288c-8.333,3.892-14.674,5.316-24.3,1.7a36.437,36.437,0,0,1-5.047-2.528,26.93,26.93,0,0,0-7.033-3.144,10.952,10.952,0,0,0-5.843.182q.2.176.392.35a10.521,10.521,0,0,1,5.351-.1" transform="translate(-111.549 -585.049)" fill="url(#linear-gradient-4)"/>
          <path id="Path_2713" data-name="Path 2713" d="M120.749,645a28.371,28.371,0,0,1,7.058,3.27,39.314,39.314,0,0,0,5.176,2.667c9.822,3.875,15.781,2.451,23.98-1.751,5.044-2.584,11.06-3.416,17.188-3.556q.232-.222.46-.448c-6.343.109-12.6.926-17.848,3.614-8.256,4.231-13.9,5.568-23.618,1.733a39.048,39.048,0,0,1-5.118-2.639,28.7,28.7,0,0,0-7.17-3.316,11.108,11.108,0,0,0-7.459.62q.171.169.344.336a10.678,10.678,0,0,1,7.007-.53" transform="translate(-100.456 -570.676)" fill="url(#linear-gradient-4)"/>
          <path id="Path_2714" data-name="Path 2714" d="M146.765,633.414c-8.091,4.5-13.325,5.847-22.954,1.908a41.132,41.132,0,0,1-5.228-2.76,30.511,30.511,0,0,0-7.266-3.469,11.464,11.464,0,0,0-8.82,1.039q.151.162.3.323a10.929,10.929,0,0,1,8.4-.939,30.2,30.2,0,0,1,7.159,3.423,41.426,41.426,0,0,0,5.285,2.789c9.8,4.008,15.117,2.643,23.334-1.931,4.9-2.726,9.725-3.113,14.215-3.113h.225c1.433,0,2.876-.028,4.307-.067q.216-.225.429-.452c-1.617.045-3.251.079-4.87.081-4.577-.008-9.5.375-14.52,3.169" transform="translate(-90.798 -556.896)" fill="url(#linear-gradient-4)"/>
          <path id="Path_2715" data-name="Path 2715" d="M101.992,617.629a38.406,38.406,0,0,1,7.561,3.345,53.652,53.652,0,0,0,5.466,2.643l.368.144c3.139,1.234,6.611,2.6,10.073,2.6a11.7,11.7,0,0,0,2.678-.3,22.88,22.88,0,0,0,7.035-3.475c.8-.515,1.621-1.048,2.446-1.527,4.793-2.786,9.3-3.123,14.591-2.773a59.922,59.922,0,0,0,6.2.043q.2-.226.388-.455a61.482,61.482,0,0,1-6.557-.026c-5.37-.355-9.951-.011-14.841,2.831-.833.484-1.662,1.02-2.464,1.538a22.557,22.557,0,0,1-6.9,3.416c-4.189.984-8.6-.75-12.49-2.281l-.367-.144a53.317,53.317,0,0,1-5.421-2.622,38.744,38.744,0,0,0-7.65-3.38,12.535,12.535,0,0,0-9.629,1.066q.149.174.3.345a12.131,12.131,0,0,1,9.211-.988" transform="translate(-81.925 -546.31)" fill="url(#linear-gradient-4)"/>
          <path id="Path_2716" data-name="Path 2716" d="M92.961,607.7a48.774,48.774,0,0,1,7.79,3.155c1.848.875,3.759,1.78,5.7,2.487l.144.052c3.013,1.1,6.328,2.3,9.622,2.3a11.594,11.594,0,0,0,3.221-.436,24.186,24.186,0,0,0,6.555-3.5c.88-.591,1.789-1.2,2.688-1.733,5.061-2.985,9.28-3.156,14.859-2.446a42.054,42.054,0,0,0,7.964.123q.179-.23.355-.463a42.8,42.8,0,0,1-8.263-.1c-5.53-.705-9.991-.532-15.138,2.5-.91.536-1.825,1.152-2.71,1.747a23.874,23.874,0,0,1-6.431,3.439c-4.171,1.2-8.635-.425-12.572-1.859l-.143-.052c-1.921-.7-3.823-1.6-5.662-2.471a49.1,49.1,0,0,0-7.861-3.182,13.922,13.922,0,0,0-10.037.855q.139.174.279.346a13.329,13.329,0,0,1,9.641-.778" transform="translate(-73.564 -537.468)" fill="url(#linear-gradient-4)"/>
          <path id="Path_2717" data-name="Path 2717" d="M83.7,591.059a64.141,64.141,0,0,1,7.874,2.916c1.973.831,4.013,1.689,6.071,2.372a29.12,29.12,0,0,0,8.977,1.9,12.1,12.1,0,0,0,3.91-.609,28.059,28.059,0,0,0,6.25-3.452c.979-.653,1.992-1.328,2.98-1.9,5.438-3.139,9.464-3.182,14.991-2.163a34.857,34.857,0,0,0,9.687.14q.164-.234.324-.471a34.925,34.925,0,0,1-9.931-.1c-5.629-1.038-9.734-.993-15.29,2.214-1,.577-2.019,1.257-3,1.914a27.74,27.74,0,0,1-6.148,3.4c-3.977,1.349-8.063.211-12.607-1.3-2.043-.677-4.074-1.533-6.039-2.36a64.407,64.407,0,0,0-7.929-2.935,15.77,15.77,0,0,0-10.274.469q.133.181.267.361a15.163,15.163,0,0,1,9.892-.407" transform="translate(-65.144 -521.861)" fill="url(#linear-gradient-4)"/>
          <path id="Path_2718" data-name="Path 2718" d="M83.671,576.722c1.931.688,3.929,1.4,6,2.023a28.115,28.115,0,0,0,8.008,1.481,12.886,12.886,0,0,0,4.687-.829,35.212,35.212,0,0,0,6.067-3.366c1.158-.744,2.356-1.514,3.523-2.15,5.346-2.916,8.892-3.334,15.175-1.786,3.839.945,7.283.563,10.9.106q.149-.239.3-.48c-3.7.471-7.205.9-11.088-.052-6.41-1.578-10.029-1.152-15.491,1.827-1.181.644-2.385,1.418-3.55,2.166a34.92,34.92,0,0,1-5.988,3.326c-4.135,1.6-8.4.548-12.409-.663-2.056-.621-4.049-1.331-5.975-2.017-6.25-2.226-12.208-4.348-18.884-2.834q.133.2.268.393c6.5-1.409,12.341.672,18.469,2.854" transform="translate(-57.523 -505.627)" fill="url(#linear-gradient-4)"/>
          <path id="Path_2719" data-name="Path 2719" d="M74.023,558.28c2.187.771,4.448,1.568,6.744,2.209a21.112,21.112,0,0,0,5.708.839c5.085,0,9.017-2.179,13.678-4.762,1.059-.587,2.154-1.193,3.314-1.8,5.84-3.074,9.187-3.386,15.568-1.449,4.4,1.334,5.624,1.6,10.551.239.5-.138.977-.253,1.443-.354q.139-.252.275-.506c-.588.117-1.2.261-1.834.437-4.81,1.326-6.008,1.068-10.307-.236-6.517-1.978-9.935-1.658-15.9,1.481-1.164.613-2.261,1.221-3.322,1.809-6.171,3.42-11.045,6.12-19.056,3.884-2.282-.637-4.536-1.432-6.716-2.2-6.181-2.179-12.062-4.253-18.5-2.971q.123.2.247.4c6.267-1.189,12.043.846,18.108,2.985" transform="translate(-49.315 -488.695)" fill="url(#linear-gradient-4)"/>
          <path id="Path_2720" data-name="Path 2720" d="M122.136,533.633c-4.577,1.43-5.685,1.042-9.359-.245-.351-.123-.725-.254-1.128-.392-5.462-1.878-9.539-2.3-15.426.862-1.546.83-2.993,1.686-4.392,2.514-5.971,3.534-11.129,6.585-19.139,4.416-2.421-.656-4.742-1.44-6.987-2.2-5.973-2.018-11.651-3.933-18.18-3.115q.115.208.233.415c6.361-.747,11.94,1.134,17.807,3.116,2.251.76,4.579,1.547,7.012,2.206a20.166,20.166,0,0,0,5.3.746c5.376,0,9.534-2.46,14.176-5.208,1.4-.826,2.838-1.68,4.376-2.5,5.745-3.083,9.731-2.671,15.075-.834.4.138.775.269,1.125.391,3.68,1.289,4.919,1.723,9.635.25a25.888,25.888,0,0,1,2.587-.679q.119-.246.235-.494a25.446,25.446,0,0,0-2.953.754" transform="translate(-42.102 -470.871)" fill="url(#linear-gradient-4)"/>
          <path id="Path_2721" data-name="Path 2721" d="M55.635,522.428a74.4,74.4,0,0,0,8,2.621,20.588,20.588,0,0,0,4.986.638c5.549,0,9.918-2.5,14.806-5.293,1.609-.92,3.272-1.871,5.034-2.758,5.642-2.841,9.69-2.4,15.655-.485,4.845,1.551,5.467,1.751,10.609,0a15.5,15.5,0,0,1,3.6-.816q.093-.229.184-.459a15.7,15.7,0,0,0-3.93.859c-5,1.708-5.611,1.513-10.357-.006-6.055-1.939-10.186-2.391-15.963.519-1.773.893-3.441,1.847-5.054,2.769-6.178,3.532-11.513,6.583-19.469,4.61a74.042,74.042,0,0,1-7.95-2.607c-5.5-2.04-10.705-3.968-16.908-2.932q.1.206.2.411c6.032-.967,11.15.928,16.551,2.932" transform="translate(-34.443 -456.372)" fill="url(#linear-gradient-4)"/>
          <path id="Path_2722" data-name="Path 2722" d="M108.327,499.593l-.521.193c-4.557,1.691-4.93,1.829-9.646.44-5.914-1.742-10.247-2.662-16.353.3-1.943.942-3.772,1.967-5.54,2.958-6.394,3.583-11.915,6.677-20.043,4.726a56.32,56.32,0,0,1-8.09-2.806c-5.021-2.039-9.765-3.965-15.709-2.882-.261.048-.5.09-.719.128q.09.207.183.413c.193-.033.4-.069.615-.109,5.817-1.06,10.5.842,15.464,2.857a56.642,56.642,0,0,0,8.153,2.827,21.012,21.012,0,0,0,4.927.6c5.842,0,10.53-2.627,15.433-5.374,1.763-.988,3.585-2.009,5.517-2.946,5.964-2.893,10.223-1.986,16.038-.273,4.857,1.43,5.336,1.252,9.923-.45l.521-.193a11.208,11.208,0,0,1,4.394-.761q.074-.218.145-.436a11.577,11.577,0,0,0-4.691.786" transform="translate(-28.087 -441.699)" fill="url(#linear-gradient-4)"/>
          <path id="Path_2723" data-name="Path 2723" d="M102.493,480.066c-.841.339-1.532.636-2.141.9-3.028,1.3-3.574,1.539-7.785.4-5.8-1.569-10.383-2.808-16.572.1-2.088.98-4.036,2.041-5.919,3.067-6.606,3.6-12.309,6.706-20.795,4.787a42.171,42.171,0,0,1-8.06-2.974c-4.4-1.979-8.546-3.849-13.917-2.932a18.555,18.555,0,0,1-2.277.3q.082.214.165.426a21.078,21.078,0,0,0,2.185-.3c5.237-.894,9.33.949,13.663,2.9a42.493,42.493,0,0,0,8.144,3,23.213,23.213,0,0,0,5.148.6c5.986,0,10.687-2.561,15.953-5.43,1.878-1.023,3.819-2.081,5.9-3.055,6.044-2.837,10.334-1.677,16.272-.071,4.359,1.179,5,.9,8.073-.421.607-.262,1.3-.558,2.131-.9a8.972,8.972,0,0,1,5-.58q.059-.211.116-.423a9.47,9.47,0,0,0-5.282.6" transform="translate(-22.17 -424.628)" fill="url(#linear-gradient-4)"/>
          <path id="Path_2724" data-name="Path 2724" d="M96.482,458.7a26.025,26.025,0,0,0-3.3,1.649c-1.793,1.03-2.535,1.455-6.026.638-.8-.188-1.574-.379-2.32-.565-5.4-1.343-9.67-2.4-15.611.687-1.144.595-2.278,1.206-3.374,1.8-7.531,4.06-14.645,7.9-23.939,5.725a32.736,32.736,0,0,1-7.45-3.077c-3.887-2-7.56-3.886-12.22-3.106-2.447.41-3.369.532-4.329.153q.083.262.17.522c.916.259,1.962.137,4.231-.243,4.515-.756,8.126,1.1,11.946,3.064a33.083,33.083,0,0,0,7.551,3.114,23.85,23.85,0,0,0,5.447.641c6.913,0,12.722-3.132,18.8-6.408,1.095-.59,2.226-1.2,3.368-1.794,5.794-3.014,9.783-2.022,15.3-.65.748.186,1.521.378,2.326.566,3.659.856,4.5.373,6.345-.685a25.642,25.642,0,0,1,3.246-1.624,7.56,7.56,0,0,1,5.253-.158q.048-.213.094-.427a8.033,8.033,0,0,0-5.514.179" transform="translate(-15.871 -405.832)" fill="url(#linear-gradient-4)"/>
          <path id="Path_2725" data-name="Path 2725" d="M17.731,442.6c4.082-.616,7.263,1.2,10.629,3.133a26.466,26.466,0,0,0,7.224,3.219,25.465,25.465,0,0,0,5.665.647c7.188,0,13.314-3.137,19.723-6.418,1.192-.61,2.424-1.241,3.663-1.852,5.514-2.717,9.372-1.785,14.257-.6,1.029.249,2.094.506,3.235.745,3.515.737,4.35.135,5.867-.958a16.577,16.577,0,0,1,3.481-2.013,7.011,7.011,0,0,1,5.587.185q.038-.219.074-.439A7.436,7.436,0,0,0,91.3,438.1a16.975,16.975,0,0,0-3.565,2.06c-1.462,1.053-2.2,1.582-5.52.885-1.134-.238-2.2-.494-3.222-.742-4.971-1.2-8.9-2.15-14.554.637-1.243.612-2.477,1.244-3.67,1.855-7.953,4.072-15.466,7.919-25.091,5.734a26.134,26.134,0,0,1-7.1-3.172c-3.434-1.967-6.678-3.828-10.913-3.185-2.931.443-3.961.494-5.674-.123q.066.256.135.511c1.616.536,2.75.478,5.6.046" transform="translate(-10.622 -387.623)" fill="url(#linear-gradient-4)"/>
          <path id="Path_2726" data-name="Path 2726" d="M14.661,421.5c3.688-.4,6.541,1.329,9.559,3.154a22.88,22.88,0,0,0,7.013,3.215,27.574,27.574,0,0,0,5.742.609c7.584,0,14.173-3.171,21.069-6.489,1.141-.549,2.321-1.117,3.5-1.667,5.245-2.448,8.823-1.628,13.353-.59,1.2.275,2.436.559,3.794.8,3.4.614,4.257-.14,5.551-1.279a12.229,12.229,0,0,1,3.565-2.321c2.094-.908,4.043-.3,5.922.609.019-.152.038-.305.055-.458-1.893-.9-3.957-1.5-6.151-.554a12.626,12.626,0,0,0-3.681,2.395c-1.24,1.093-1.989,1.752-5.183,1.176-1.347-.243-2.581-.526-3.773-.8-4.612-1.057-8.255-1.892-13.637.62-1.182.552-2.363,1.12-3.5,1.669-8.508,4.094-16.544,7.961-26.53,5.847a22.557,22.557,0,0,1-6.877-3.161c-2.949-1.783-5.995-3.627-9.833-3.215-3.078.33-4.47.437-6.737-.1q.049.236.1.472c2.228.5,3.7.386,6.684.066" transform="translate(-6.979 -368.573)" fill="url(#linear-gradient-4)"/>
          <path id="Path_2727" data-name="Path 2727" d="M12.429,402.6c3.708-.564,6.727,1.019,9.924,2.7a28.915,28.915,0,0,0,6.176,2.645,28.228,28.228,0,0,0,7.066.9c7.291,0,13.844-2.814,20.684-5.752,1.11-.477,2.229-.958,3.362-1.431,4.994-2.087,8.439-1.569,12.8-.912,1.269.191,2.582.388,4.032.536,3.1.317,4.086-.524,5.332-1.588a11.472,11.472,0,0,1,3.546-2.219c2.167-.865,4.172-.1,6.1.908q.019-.238.034-.476c-1.926-.986-4.04-1.743-6.3-.84a12,12,0,0,0-3.669,2.292c-1.212,1.035-2.087,1.783-5,1.485-1.439-.147-2.747-.344-4.011-.534-4.255-.64-7.929-1.193-13.036.941-1.134.474-2.255.955-3.366,1.432-8.9,3.823-17.311,7.435-27.468,4.829a28.6,28.6,0,0,1-6.082-2.608c-3.262-1.711-6.343-3.327-10.194-2.741-3.245.494-4.725.586-7.277-.094q.039.238.081.476c2.506.646,4.025.545,7.262.052" transform="translate(-4.505 -351.397)" fill="url(#linear-gradient-4)"/>
          <path id="Path_2728" data-name="Path 2728" d="M10.269,388.176c4.066-.789,7.584.682,11.308,2.239a47.3,47.3,0,0,0,5.371,1.991,30.372,30.372,0,0,0,8.327,1.185c6.807,0,12.871-2.36,19.6-4.977,1.374-.535,2.794-1.088,4.239-1.626,3.843-1.432,6.809-1.061,9.949-.669a36.637,36.637,0,0,0,5.875.395,7.794,7.794,0,0,0,4.744-1.69,22.205,22.205,0,0,1,2.152-1.305c3.27-1.7,5.094-1.432,7.818-.145q.008-.238.014-.477c-2.709-1.251-4.675-1.516-8.035.233a22.613,22.613,0,0,0-2.193,1.329,7.347,7.347,0,0,1-4.514,1.616,36.232,36.232,0,0,1-5.807-.391c-3.2-.4-6.214-.775-10.157.694-1.448.539-2.87,1.093-4.245,1.628-9.256,3.6-17.251,6.713-27.644,3.779a46.951,46.951,0,0,1-5.321-1.974c-3.787-1.583-7.365-3.079-11.561-2.265a14.172,14.172,0,0,1-7.263-.293q.029.234.061.468a14.59,14.59,0,0,0,7.285.256" transform="translate(-2.589 -338.481)" fill="url(#linear-gradient-4)"/>
          <path id="Path_2729" data-name="Path 2729" d="M9.063,369.692c4.561-1.049,9.183.552,13.652,2.1,1.03.357,2.1.726,3.145,1.057A38.71,38.71,0,0,0,37.4,375.075a19.414,19.414,0,0,0,4.794-.577,89.883,89.883,0,0,0,10.839-3.764c1.768-.7,3.6-1.423,5.4-2.071,3.385-1.213,6.165-1.022,9.108-.82a33.306,33.306,0,0,0,6.054.028,8.989,8.989,0,0,0,4.5-1.879,20.132,20.132,0,0,1,2.286-1.386c3.279-1.651,5.208-1.278,8.044.073q0-.246-.008-.49c-2.855-1.339-4.852-1.678-8.233.025a20.48,20.48,0,0,0-2.333,1.414,8.636,8.636,0,0,1-4.3,1.806,32.934,32.934,0,0,1-5.978-.029c-2.991-.205-5.814-.4-9.286.845-1.815.65-3.647,1.375-5.418,2.076a89.583,89.583,0,0,1-10.785,3.747c-5.575,1.416-11.228-.105-16.089-1.641-1.043-.33-2.106-.7-3.133-1.054-4.527-1.568-9.209-3.191-13.894-2.113a14.411,14.411,0,0,1-7.45-.17q.021.231.044.462a14.638,14.638,0,0,0,7.5.136" transform="translate(-1.341 -321.622)" fill="url(#linear-gradient-4)"/>
          <path id="Path_2730" data-name="Path 2730" d="M79.318,345.37a18.818,18.818,0,0,0-2.522,1.541,10.075,10.075,0,0,1-4.048,1.943,30.71,30.71,0,0,1-6.224.352,23.952,23.952,0,0,0-8.431.943c-1.723.583-3.481,1.239-5.181,1.873a84.139,84.139,0,0,1-11.321,3.629c-5.458,1.185-10.345-.53-15.519-2.346l-.52-.182c-5.143-1.8-11.769-3.663-17.4-2.063a14.983,14.983,0,0,1-7.419.269q.014.226.031.452a15.262,15.262,0,0,0,7.508-.3c5.512-1.567,12.051.275,17.133,2.055l.519.182c4.023,1.412,7.873,2.764,11.973,2.763a17.717,17.717,0,0,0,3.785-.4,84.44,84.44,0,0,0,11.382-3.646c1.7-.633,3.452-1.288,5.168-1.869a23.29,23.29,0,0,1,8.285-.919,31.125,31.125,0,0,0,6.311-.36,10.429,10.429,0,0,0,4.215-2.013,18.425,18.425,0,0,1,2.465-1.507c3.359-1.633,5.42-1.079,8.155.248q-.014-.251-.032-.5c-2.678-1.271-4.882-1.811-8.316-.142" transform="translate(-0.651 -305.027)" fill="url(#linear-gradient-4)"/>
          <path id="Path_2731" data-name="Path 2731" d="M7.61,332.971c4.9-1.638,11.811-1.251,17.613.988.68.263,1.351.531,2.016.8,3.66,1.463,7.156,2.861,11.088,2.861a16.464,16.464,0,0,0,3.018-.279,82.216,82.216,0,0,0,11.823-3.48c1.658-.579,3.373-1.178,5.033-1.7a27.628,27.628,0,0,1,7.486-.972,29.461,29.461,0,0,0,6.739-.771,11.814,11.814,0,0,0,3.883-2.1,16.992,16.992,0,0,1,2.676-1.675c3.252-1.534,5.318-.971,8.064.363q-.028-.257-.058-.514c-2.675-1.268-4.878-1.81-8.193-.246a17.324,17.324,0,0,0-2.745,1.715,11.47,11.47,0,0,1-3.743,2.029,28.686,28.686,0,0,1-6.639.756,27.966,27.966,0,0,0-7.6.993c-1.666.528-3.384,1.128-5.045,1.708a81.89,81.89,0,0,1-11.758,3.463c-5.1.945-9.356-.756-13.863-2.558-.667-.266-1.339-.535-2.021-.8-5.891-2.274-12.921-2.664-17.91-1a16.106,16.106,0,0,1-7.232.763c.005.149.012.3.019.445a16.445,16.445,0,0,0,7.352-.792" transform="translate(-0.212 -288.16)" fill="url(#linear-gradient-4)"/>
          <path id="Path_2732" data-name="Path 2732" d="M7.03,314.439c4.706-2.229,12.86-2.235,18.177-.012.954.4,1.885.818,2.786,1.224,3.457,1.558,6.755,3.044,10.683,3.044a15.924,15.924,0,0,0,2.545-.207,85.959,85.959,0,0,0,12.141-3.241c1.631-.521,3.317-1.059,4.936-1.531a33.267,33.267,0,0,1,6.663-.966,28.486,28.486,0,0,0,7.353-1.209,13.481,13.481,0,0,0,3.539-2.13,15.678,15.678,0,0,1,2.92-1.878c3.081-1.4,5.184-.85,7.767.39q-.042-.263-.087-.526c-2.513-1.169-4.735-1.689-7.861-.264a16.023,16.023,0,0,0-3,1.927,12.94,12.94,0,0,1-3.423,2.067,27.708,27.708,0,0,1-7.238,1.185,33.592,33.592,0,0,0-6.752.983c-1.625.473-3.313,1.012-4.947,1.534a85.651,85.651,0,0,1-12.078,3.226c-4.974.8-8.862-.95-12.978-2.8-.9-.407-1.837-.828-2.8-1.229-5.416-2.263-13.73-2.255-18.534.021A13.461,13.461,0,0,1,0,315.292q0,.217.007.434a14.012,14.012,0,0,0,7.024-1.288" transform="translate(0 -271.316)" fill="url(#linear-gradient-4)"/>
          <path id="Path_2733" data-name="Path 2733" d="M6.462,301.227a24.573,24.573,0,0,1,18.8-.819c.877.344,1.736.7,2.566,1.043,3.721,1.541,7.262,3.008,11.5,3.008a18.658,18.658,0,0,0,1.883-.1,57.225,57.225,0,0,0,11.639-2.9c2.039-.661,4.147-1.345,6.2-1.871a31.729,31.729,0,0,1,6.56-.718,28.533,28.533,0,0,0,6.913-.837,13.533,13.533,0,0,0,3.627-1.9,16.774,16.774,0,0,1,2.811-1.615,8.676,8.676,0,0,1,7.239.074q-.053-.258-.109-.515a8.922,8.922,0,0,0-7.3.036,17.12,17.12,0,0,0-2.885,1.655A13,13,0,0,1,72.4,297.62a27.785,27.785,0,0,1-6.805.819,32.063,32.063,0,0,0-6.652.732c-2.071.53-4.185,1.216-6.231,1.879a56.92,56.92,0,0,1-11.548,2.878c-4.994.506-8.785-1.063-13.173-2.881-.832-.344-1.693-.7-2.574-1.047a25.048,25.048,0,0,0-19.16.836,14.571,14.571,0,0,1-6.248,1.548c0,.147-.006.294-.008.441a14.99,14.99,0,0,0,6.456-1.6" transform="translate(-0.005 -259.84)" fill="url(#linear-gradient-4)"/>
          <path id="Path_2734" data-name="Path 2734" d="M6.914,287.9c4.689-2.531,12.552-4.187,18.737-1.841.851.323,1.681.652,2.484.969,4.057,1.607,7.642,3.027,12.117,3.027a22.1,22.1,0,0,0,2.4-.133,53.848,53.848,0,0,0,10.04-2.432c2.011-.626,4.09-1.274,6.153-1.75a32.583,32.583,0,0,1,7.456-.615,42.155,42.155,0,0,0,5.571-.268,12.618,12.618,0,0,0,4.773-1.887,18.981,18.981,0,0,1,3.013-1.482,9.393,9.393,0,0,1,6.505-.06q-.062-.251-.127-.5a9.659,9.659,0,0,0-6.526.147,19.357,19.357,0,0,0-3.083,1.514,12.27,12.27,0,0,1-4.613,1.833,41.853,41.853,0,0,1-5.515.264,32.945,32.945,0,0,0-7.553.626c-2.079.48-4.166,1.13-6.184,1.758a53.554,53.554,0,0,1-9.957,2.415c-5.545.605-9.608-1-14.31-2.866-.8-.318-1.635-.648-2.49-.972-6.314-2.394-14.327-.712-19.1,1.865a17.165,17.165,0,0,1-6.276,1.933q-.013.223-.023.447A17.609,17.609,0,0,0,6.914,287.9" transform="translate(-0.36 -248.424)" fill="url(#linear-gradient-4)"/>
          <path id="Path_2735" data-name="Path 2735" d="M80.322,268.9A22.607,22.607,0,0,0,77.4,270.09a12.73,12.73,0,0,1-4.846,1.484,44.019,44.019,0,0,1-5.067-.087,30.3,30.3,0,0,0-7.844.269,66.549,66.549,0,0,0-6.64,1.777,43.506,43.506,0,0,1-10.088,2.219c-5.327.308-9.358-1.124-14.029-2.781-.669-.237-1.349-.479-2.047-.72-7.728-2.67-15.552.641-19.528,2.852a18.618,18.618,0,0,1-5.965,2.063q-.02.218-.038.437a19.106,19.106,0,0,0,6.217-2.117c3.912-2.175,11.6-5.434,19.171-2.82.7.241,1.376.482,2.044.719,4.716,1.673,8.788,3.117,14.2,2.805a43.841,43.841,0,0,0,10.192-2.237,66.238,66.238,0,0,1,6.6-1.766,29.567,29.567,0,0,1,7.736-.262,44.464,44.464,0,0,0,5.116.087,13.08,13.08,0,0,0,5.006-1.524,22.23,22.23,0,0,1,2.862-1.166,11.036,11.036,0,0,1,6.086-.189q-.07-.242-.143-.483a11.341,11.341,0,0,0-6.073.253" transform="translate(-1.161 -237.725)" fill="url(#linear-gradient-4)"/>
          <path id="Path_2736" data-name="Path 2736" d="M8.429,262.456c7.219-4.372,13.268-5.548,19.612-3.811,1.056.289,2.082.589,3.074.88,3.992,1.169,7.764,2.275,12.36,2.275h.165a35.237,35.237,0,0,0,10.314-2.118,51.318,51.318,0,0,1,6.916-1.816,25.307,25.307,0,0,1,8.043.181,43.72,43.72,0,0,0,4.7.456,12.7,12.7,0,0,0,5.26-1.167,26.439,26.439,0,0,1,2.551-.881,12.923,12.923,0,0,1,5.849-.272q-.078-.236-.16-.472a13.26,13.26,0,0,0-5.805.32,26.818,26.818,0,0,0-2.593.895,12.33,12.33,0,0,1-5.089,1.137,43.342,43.342,0,0,1-4.659-.452,25.658,25.658,0,0,0-8.173-.179,51.6,51.6,0,0,0-6.976,1.83,34.9,34.9,0,0,1-10.185,2.1c-4.616.023-8.392-1.083-12.4-2.256-.994-.291-2.021-.592-3.081-.882-6.471-1.771-12.625-.581-19.956,3.859a17.919,17.919,0,0,1-5.439,2.131q-.03.231-.058.462a18.426,18.426,0,0,0,5.724-2.218" transform="translate(-2.396 -226.366)" fill="url(#linear-gradient-4)"/>
          <path id="Path_2737" data-name="Path 2737" d="M9.649,250.491c6.562-4.1,11.836-6.84,19.972-4.862q1.177.286,2.321.576a62.219,62.219,0,0,0,13.064,2.284c3.711.146,7.109-.979,10.4-2.067a41.666,41.666,0,0,1,7.131-1.894,21.909,21.909,0,0,1,8.357.626c1.34.288,2.725.586,4.286.768a12.62,12.62,0,0,0,5.5-.735c.684-.2,1.391-.415,2.177-.6a15.1,15.1,0,0,1,5.727-.233q-.087-.235-.176-.469a15.43,15.43,0,0,0-5.649.274c-.8.184-1.513.4-2.2.6a12.082,12.082,0,0,1-5.321.719c-1.54-.18-2.915-.476-4.245-.761a22.251,22.251,0,0,0-8.511-.632,41.98,41.98,0,0,0-7.207,1.912c-3.252,1.075-6.618,2.184-10.244,2.045a61.879,61.879,0,0,1-12.974-2.272q-1.148-.288-2.324-.576c-8.3-2.02-13.654.764-20.309,4.916A17.437,17.437,0,0,1,4.8,252.1q-.041.238-.078.477a17.983,17.983,0,0,0,4.925-2.091" transform="translate(-4.185 -215.93)" fill="url(#linear-gradient-4)"/>
          <path id="Path_2738" data-name="Path 2738" d="M11.388,228.5l1.063-.677c6.522-4.157,10.83-6.9,19.194-5.111l.667.143a114.7,114.7,0,0,0,15.126,2.547c3.818.3,7.2-.926,10.476-2.117a34.46,34.46,0,0,1,7.253-2.047,18.719,18.719,0,0,1,8.623,1.053c1.2.356,2.439.723,3.859,1.016a22.082,22.082,0,0,0,7.714-.187,31.823,31.823,0,0,1,5.388-.462q-.09-.222-.182-.442a33.2,33.2,0,0,0-5.268.47,21.438,21.438,0,0,1-7.563.192c-1.4-.288-2.632-.654-3.823-1.007a19.306,19.306,0,0,0-8.8-1.067,34.779,34.779,0,0,0-7.345,2.07c-3.378,1.229-6.569,2.392-10.291,2.092A114.36,114.36,0,0,1,32.4,222.429l-.667-.143c-8.54-1.83-12.908.955-19.521,5.17l-1.062.676a16.527,16.527,0,0,1-3.331,1.607q-.054.25-.106.5a17.087,17.087,0,0,0,3.671-1.737" transform="translate(-6.836 -195.474)" fill="url(#linear-gradient-4)"/>
          <path id="Path_2739" data-name="Path 2739" d="M14.641,207.906l.571-.354c7.1-4.4,12.227-7.58,20.787-5.431a126.018,126.018,0,0,0,14.887,2.965c4.335.547,7.883-1.041,11.313-2.577,2.746-1.23,5.585-2.5,8.856-2.711a17.62,17.62,0,0,1,7.488,1.509,28.169,28.169,0,0,0,4.816,1.423,23.218,23.218,0,0,0,6.716-.117,33.121,33.121,0,0,1,4.835-.316q-.1-.223-.2-.444a34.876,34.876,0,0,0-4.682.324,22.591,22.591,0,0,1-6.589.121,27.872,27.872,0,0,1-4.742-1.4,18.2,18.2,0,0,0-7.666-1.534c-3.35.215-6.226,1.5-9.007,2.748-3.53,1.581-6.864,3.074-11.079,2.542A125.626,125.626,0,0,1,36.106,201.7c-8.739-2.193-14.205,1.2-21.125,5.484l-.571.354c-.371.23-.748.442-1.129.64q-.081.286-.159.575.771-.38,1.519-.841" transform="translate(-11.624 -176.584)" fill="url(#linear-gradient-4)"/>
          <path id="Path_2740" data-name="Path 2740" d="M20.555,188.649c6.735-4.415,12.547-7.606,20.851-5.251q1.124.318,2.238.644a68.758,68.758,0,0,0,12.921,2.863c4.356.4,7.845-1.424,11.221-3.194,2.8-1.467,5.693-2.984,9.082-3.232,2.879-.209,5.23.705,7.718,1.675a28.661,28.661,0,0,0,4.762,1.537,23.415,23.415,0,0,0,6.39.12,33.863,33.863,0,0,1,4.395-.129q-.112-.227-.228-.452a36.179,36.179,0,0,0-4.2.143,23.07,23.07,0,0,1-6.271-.112,28.3,28.3,0,0,1-4.689-1.515c-2.424-.945-4.932-1.921-7.909-1.7-3.48.255-6.415,1.793-9.253,3.281-3.472,1.82-6.748,3.541-10.977,3.145a68.393,68.393,0,0,1-12.84-2.848q-1.117-.324-2.241-.645c-8.483-2.4-14.381.83-21.211,5.307-.091.059-.182.116-.273.173q-.115.325-.225.652c.248-.147.495-.3.739-.458" transform="translate(-17.554 -159.466)" fill="url(#linear-gradient-4)"/>
          <path id="Path_2741" data-name="Path 2741" d="M27.661,169.714c6.426-4.554,12.26-7.083,19.837-4.627,1.049.34,2.117.709,3.149,1.066,3.875,1.341,7.883,2.727,12.069,2.989,4.4.27,7.852-1.806,11.193-3.818,2.845-1.713,5.788-3.485,9.3-3.778,2.949-.245,5.462.768,8.123,1.841a31.191,31.191,0,0,0,4.691,1.606,29.7,29.7,0,0,0,6.75.49c1.043-.005,2.1-.009,3.164.04q-.122-.225-.247-.449c-.982-.038-1.958-.034-2.92-.03a29.4,29.4,0,0,1-6.65-.479,30.831,30.831,0,0,1-4.624-1.585c-2.592-1.046-5.275-2.127-8.324-1.871-3.61.3-6.6,2.1-9.485,3.839-3.435,2.068-6.678,4.023-10.94,3.755-4.126-.257-8.105-1.634-11.953-2.965-1.034-.358-2.1-.728-3.157-1.069-7.726-2.5-13.651.039-20.159,4.639q-.156.369-.3.741.246-.163.49-.335" transform="translate(-24.07 -142.688)" fill="url(#linear-gradient-4)"/>
          <path id="Path_2742" data-name="Path 2742" d="M35.318,151.085c6.64-5.233,12.413-6.524,18.719-4.186,1.17.434,2.38.934,3.55,1.418,3.713,1.536,7.552,3.123,11.551,3.28,4.469.173,7.912-2.169,11.243-4.435,2.891-1.967,5.881-4,9.513-4.341,3-.283,5.821.89,8.543,2.023a33.7,33.7,0,0,0,4.639,1.671,39.08,39.08,0,0,0,7.907.876l.941.041q-.135-.227-.272-.452l-.651-.028a38.742,38.742,0,0,1-7.818-.864,33.367,33.367,0,0,1-4.577-1.651c-2.772-1.153-5.633-2.344-8.753-2.055-3.745.35-6.782,2.417-9.719,4.415-3.272,2.226-6.664,4.523-10.979,4.359-3.92-.154-7.723-1.726-11.4-3.247-1.174-.485-2.387-.987-3.565-1.424-6.384-2.367-12.219-1.116-18.883,4.052q-.211.432-.413.869c.142-.106.284-.213.424-.324" transform="translate(-30.912 -126.095)" fill="url(#linear-gradient-4)"/>
          <path id="Path_2743" data-name="Path 2743" d="M62.762,130.493c1.391.57,2.785,1.278,4.26,2.027,3.927,1.994,7.986,4.059,12.3,3.612,3.9-.4,7.015-2.683,10.032-4.889,2.623-1.919,5.336-3.9,8.516-4.589,3.68-.8,6.556.422,9.6,1.71a40.875,40.875,0,0,0,3.943,1.506,40.393,40.393,0,0,0,8.728,1.479q-.152-.233-.307-.465a39.141,39.141,0,0,1-8.292-1.434,40.561,40.561,0,0,1-3.9-1.491c-3.11-1.316-6.047-2.557-9.865-1.735-3.272.706-6.022,2.718-8.683,4.664-2.969,2.172-6.04,4.417-9.818,4.807-4.183.429-8.184-1.6-12.054-3.567-1.484-.753-2.885-1.465-4.293-2.042-5.677-2.328-11.417-1.19-17.064,3.378q-.3.525-.589,1.06.237-.2.487-.411c5.636-4.717,11.356-5.936,17-3.622" transform="translate(-40.108 -111.586)" fill="url(#linear-gradient-4)"/>
          <path id="Path_2744" data-name="Path 2744" d="M76.253,112.055a45.622,45.622,0,0,1,4.376,2.416c3.713,2.224,7.553,4.524,11.768,3.992,3.968-.5,7.074-3.014,10.078-5.444,2.655-2.148,5.4-4.369,8.7-5.133,3.725-.863,6.738.458,9.928,1.856a42.061,42.061,0,0,0,3.981,1.583,46.082,46.082,0,0,0,7.374,1.7q-.181-.251-.366-.5a45.288,45.288,0,0,1-6.873-1.614,41.721,41.721,0,0,1-3.94-1.568c-3.259-1.428-6.337-2.778-10.2-1.882-3.4.787-6.183,3.04-8.877,5.219-2.956,2.392-6.012,4.864-9.857,5.349-4.065.513-7.838-1.747-11.488-3.933a45.93,45.93,0,0,0-4.419-2.439c-4.981-2.27-10.493-1.5-15.108,2.015q-.434.625-.846,1.265c4.693-4.181,10.539-5.265,15.771-2.88" transform="translate(-53.579 -94.939)" fill="url(#linear-gradient-4)"/>
          <path id="Path_2745" data-name="Path 2745" d="M149.171,99.237c-1.384-.413-2.688-.94-3.95-1.45-3.277-1.324-6.372-2.575-10.319-1.66-3.315.769-6.125,2.91-8.843,4.98-3.023,2.3-6.149,4.684-9.935,5.11-3.83.431-7.438-1.758-10.927-3.875A40.98,40.98,0,0,0,100.58,99.8a15.369,15.369,0,0,0-12.336.086q-.329.379-.649.766a15.146,15.146,0,0,1,12.809-.45,40.736,40.736,0,0,1,4.566,2.52c3.552,2.155,7.226,4.382,11.2,3.935,3.907-.44,7.082-2.858,10.152-5.2,2.681-2.042,5.452-4.154,8.676-4.9,3.81-.884,6.844.342,10.055,1.64,1.271.513,2.585,1.045,3.989,1.463a40.847,40.847,0,0,0,5.862,1.261q-.208-.255-.419-.507a39.805,39.805,0,0,1-5.318-1.176" transform="translate(-77.598 -84.879)" fill="url(#linear-gradient-4)"/>
          <path id="Path_2746" data-name="Path 2746" d="M121.289,88.387a33.911,33.911,0,0,1,4.75,2.584c3.244,1.985,6.6,4.038,10.266,3.678,3.833-.375,7.1-2.631,10.256-4.813,2.745-1.9,5.583-3.857,8.765-4.552,3.88-.847,6.662.244,9.884,1.506,1.251.49,2.545,1,3.967,1.407a32.76,32.76,0,0,0,4.856.986q-.232-.255-.468-.507a31.688,31.688,0,0,1-4.267-.9c-1.4-.4-2.687-.908-3.929-1.394-3.151-1.235-6.128-2.4-10.138-1.526-3.266.713-6.141,2.7-8.921,4.619-3.112,2.15-6.33,4.373-10.05,4.737-3.52.341-6.812-1.668-9.994-3.615a34.2,34.2,0,0,0-4.814-2.616,17.084,17.084,0,0,0-9.98-.813q-.294.285-.583.576a16.873,16.873,0,0,1,10.4.644" transform="translate(-98.235 -74.902)" fill="url(#linear-gradient-4)"/>
          <path id="Path_2747" data-name="Path 2747" d="M139.735,76.214a28.259,28.259,0,0,1,4.943,2.6c2.885,1.761,5.865,3.583,9.243,3.334,3.756-.276,7.119-2.363,10.372-4.382,2.8-1.736,5.69-3.531,8.807-4.153,3.927-.782,6.553.242,9.594,1.43,1.213.473,2.467.963,3.89,1.373a26.43,26.43,0,0,0,4.005.807q-.262-.26-.528-.516a25.351,25.351,0,0,1-3.356-.714c-1.4-.4-2.649-.89-3.852-1.36-3.105-1.213-5.787-2.261-9.839-1.452-3.195.638-6.122,2.454-8.952,4.211-3.207,1.991-6.524,4.049-10.172,4.317-3.237.239-6.156-1.546-8.983-3.27a28.563,28.563,0,0,0-5.024-2.634,19.8,19.8,0,0,0-7.971-1.053q-.285.239-.566.483a19.612,19.612,0,0,1,8.389.983" transform="translate(-116.356 -64.574)" fill="url(#linear-gradient-4)"/>
          <path id="Path_2748" data-name="Path 2748" d="M162.808,66.193c2.721,1.6,5.535,3.264,8.671,3.056,3.647-.238,7.035-2.126,10.311-3.953,2.82-1.572,5.736-3.2,8.8-3.758,3.964-.724,6.457.252,9.344,1.383,1.17.458,2.379.932,3.79,1.343a21.743,21.743,0,0,0,2.863.621q-.312-.278-.631-.549a20.726,20.726,0,0,1-2.11-.493c-1.392-.406-2.592-.876-3.753-1.331-2.95-1.155-5.5-2.154-9.583-1.406-3.132.573-6.08,2.217-8.932,3.806-3.234,1.8-6.578,3.667-10.126,3.9-3,.195-5.756-1.427-8.42-3A26.458,26.458,0,0,0,158,63.3a21.814,21.814,0,0,0-6.022-1.028q-.289.211-.574.428a21.633,21.633,0,0,1,6.46,1.017,26.146,26.146,0,0,1,4.948,2.473" transform="translate(-134.121 -53.903)" fill="url(#linear-gradient-4)"/>
          <path id="Path_2749" data-name="Path 2749" d="M180.677,53.116c2.656,1.44,5.4,2.931,8.35,2.738,3.521-.228,6.887-1.9,10.142-3.514a32.447,32.447,0,0,1,8.762-3.355c4.005-.665,6.3.226,9.2,1.355,1.137.443,2.314.9,3.713,1.311.334.1.671.185,1.01.263q-.455-.353-.92-.694c-1.366-.4-2.524-.853-3.644-1.289-2.847-1.108-5.3-2.064-9.431-1.379a32.765,32.765,0,0,0-8.885,3.395c-3.216,1.6-6.542,3.247-9.975,3.469-2.82.179-5.511-1.275-8.112-2.686a26.52,26.52,0,0,0-5.021-2.295,24.4,24.4,0,0,0-4.094-.811q-.3.189-.587.382a24.115,24.115,0,0,1,4.559.851,26.189,26.189,0,0,1,4.934,2.259" transform="translate(-151.647 -42.807)" fill="url(#linear-gradient-4)"/>
          <path id="Path_2750" data-name="Path 2750" d="M193.57,38.592a26.863,26.863,0,0,1,4.91,2.089C201.1,42,203.821,43.372,206.6,43.2c3.438-.215,6.814-1.711,10.079-3.157a36.008,36.008,0,0,1,8.7-3.008c4.07-.639,6.329.19,9.188,1.238l.789.288q-1.085-.663-2.212-1.262a14.875,14.875,0,0,0-7.833-.7,36.334,36.334,0,0,0-8.808,3.041c-3.23,1.431-6.569,2.911-9.929,3.121-2.66.172-5.326-1.173-7.9-2.469a27.149,27.149,0,0,0-4.994-2.121q-1.067-.284-2.132-.486-.3.167-.595.337,1.306.226,2.613.573" transform="translate(-169.163 -32.216)" fill="url(#linear-gradient-4)"/>
          <path id="Path_2751" data-name="Path 2751" d="M210.333,24.542a30.138,30.138,0,0,1,4.592,1.709,20.568,20.568,0,0,0,6.918,2.1c3.888.189,7.85-1.377,11.678-2.892a36.987,36.987,0,0,1,9.3-2.789,14.427,14.427,0,0,1,1.962-.075q-.569-.222-1.145-.428c-.282.014-.57.036-.863.067a37.325,37.325,0,0,0-9.416,2.818c-3.784,1.5-7.7,3.049-11.495,2.862a20.265,20.265,0,0,1-6.765-2.063,30.466,30.466,0,0,0-4.662-1.733c-.172-.043-.345-.081-.517-.12q-.313.152-.624.31c.345.074.69.152,1.035.237" transform="translate(-185.411 -19.635)" fill="url(#linear-gradient-4)"/>
          <path id="Path_2752" data-name="Path 2752" d="M236.713,18.9q.418.026.835.025c3.711,0,7.44-1.47,11.054-2.894a47,47,0,0,1,7.421-2.464q-.44-.13-.883-.251a53.447,53.447,0,0,0-6.7,2.306c-3.84,1.514-7.81,3.079-11.7,2.838a22.726,22.726,0,0,1-6.656-1.89c-1.167-.461-2.365-.932-3.549-1.285q-.318.136-.633.277a37.994,37.994,0,0,1,4.021,1.416,23.048,23.048,0,0,0,6.79,1.921" transform="translate(-200.12 -11.794)" fill="url(#linear-gradient-4)"/>
          <path id="Path_2753" data-name="Path 2753" d="M250.335,12.564a25.594,25.594,0,0,1-6.568-1.825c-.717-.268-1.447-.54-2.176-.789q-.322.122-.642.249c.888.288,1.786.623,2.664.952A25.912,25.912,0,0,0,250.3,13q.535.045,1.069.044c3.739,0,7.462-1.558,11.072-3.068,1.436-.6,2.9-1.211,4.358-1.721q-.4-.093-.808-.177c-1.249.46-2.493.98-3.719,1.493-3.905,1.634-7.948,3.32-11.935,2.992" transform="translate(-213.45 -7.157)" fill="url(#linear-gradient-4)"/>
          <path id="Path_2754" data-name="Path 2754" d="M257.684,6.917a29.3,29.3,0,0,0,6.737,1.8q.593.056,1.183.055c3.791,0,7.467-1.649,11.032-3.249.573-.257,1.15-.516,1.73-.768q-.394-.07-.79-.132-.562.249-1.119.5c-3.883,1.742-7.9,3.546-11.994,3.157a28.968,28.968,0,0,1-6.631-1.78l-.707-.248q-.34.112-.678.229c.407.14.819.285,1.238.433" transform="translate(-227.178 -4.098)" fill="url(#linear-gradient-4)"/>
          <path id="Path_2755" data-name="Path 2755" d="M282.711,4.476a29.62,29.62,0,0,1-5.518-1.23q-.4.106-.792.218a32.8,32.8,0,0,0,6.268,1.449q.63.061,1.249.06c3.5,0,6.761-1.383,9.926-2.845q-.42-.052-.842-.1c-3.281,1.491-6.675,2.8-10.29,2.445" transform="translate(-244.856 -1.799)" fill="url(#linear-gradient-4)"/>
          <path id="Path_2756" data-name="Path 2756" d="M318.468,1.023q.563.045,1.111.044a17.206,17.206,0,0,0,5.6-1.023q-.648-.032-1.3-.044A15.01,15.01,0,0,1,318.5.585c-.526-.042-1.055-.1-1.586-.17q-.721.1-1.435.226c1,.169,2,.3,2.986.382" transform="translate(-279.476)" fill="url(#linear-gradient-4)"/>
        </g>
      </g>
    </g>
    <g id="Group_3190" data-name="Group 3190">
      <g id="Group_3182" data-name="Group 3182" transform="translate(16069.978 6874.108)">
        <path id="Path_2962" data-name="Path 2962" d="M164.89,50.868H148.552V34.53H164.89Zm-14.612-1.726h12.886V36.256H150.278Z" transform="translate(-15133.729 -3906.038)" fill="url(#linear-gradient-4)"/>
        <path id="Path_2963" data-name="Path 2963" d="M164.162,53.1l-18.683-2.959,2.959-18.683,18.683,2.959Zm-16.707-4.393,15.273,2.418,2.418-15.273-15.273-2.419Z" transform="translate(-15133.308 -3905.617)" fill="url(#linear-gradient-4)"/>
        <path id="Path_2964" data-name="Path 2964" d="M162.868,55.63l-20.874-6.783,6.783-20.875,20.874,6.783Zm-18.7-7.891,17.592,5.716,5.716-17.592-17.593-5.715Z" transform="translate(-15132.83 -3905.14)" fill="url(#linear-gradient-4)"/>
        <path id="Path_2965" data-name="Path 2965" d="M160.871,58.433,138.134,46.849l11.585-22.737L172.455,35.7ZM140.455,46.094l19.661,10.018,10.018-19.661L150.472,26.434Z" transform="translate(-15132.302 -3904.611)" fill="url(#linear-gradient-4)"/>
        <path id="Path_2966" data-name="Path 2966" d="M158.011,61.457,133.97,43.99l17.466-24.041,24.042,17.467Zm-21.63-17.849,21.248,15.438L173.068,37.8,151.819,22.36Z" transform="translate(-15131.731 -3904.041)" fill="url(#linear-gradient-4)"/>
        <path id="Path_2967" data-name="Path 2967" d="M154.129,64.614,129.624,40.108,154.129,15.6l24.506,24.506ZM132.065,40.108l22.064,22.064,22.065-22.064L154.129,18.044Z" transform="translate(-15131.137 -3903.446)" fill="url(#linear-gradient-4)"/>
        <path id="Path_2968" data-name="Path 2968" d="M149.056,67.775,125.271,35.036,158.01,11.25l23.785,32.738ZM127.682,35.417l21.757,29.946,29.946-21.756L157.626,13.661Z" transform="translate(-15130.54 -3902.85)" fill="url(#linear-gradient-4)"/>
        <path id="Path_2969" data-name="Path 2969" d="M142.634,70.76,121.158,28.613,163.306,7.137l21.475,42.148ZM123.479,29.367l19.908,39.072L182.46,48.53,162.551,9.459Z" transform="translate(-15129.978 -3902.287)" fill="url(#linear-gradient-4)"/>
        <path id="Path_2970" data-name="Path 2970" d="M134.717,73.334,117.613,20.7l52.638-17.1,17.1,52.638ZM119.788,21.8l16.037,49.354,49.356-16.037L169.144,5.767Z" transform="translate(-15129.491 -3901.802)" fill="url(#linear-gradient-4)"/>
        <path id="Path_2971" data-name="Path 2971" d="M125.2,75.188,115.059,11.177,179.071,1.039,189.21,65.05Zm-8.164-62.577,9.6,60.6,60.6-9.6-9.6-60.6Z" transform="translate(-15129.142 -3901.452)" fill="url(#linear-gradient-4)"/>
        <path id="Path_2972" data-name="Path 2972" d="M115.748,1.726h72.49v72.49h-72.49Zm-1.726,74.216h75.941V0H114.022Z" transform="translate(-15129 -3901.31)" fill="url(#linear-gradient-4)"/>
      </g>
      <g id="Group_3183" data-name="Group 3183" transform="translate(15960.046 6642.55)">
        <path id="Path_2973" data-name="Path 2973" d="M271.382,52.217h-9.627l-4.814-8.338,4.814-8.338h9.627l4.814,8.338Zm-8.613-1.757h7.6l3.8-6.581-3.8-6.581h-7.6l-3.8,6.581Z" transform="translate(-15133.851 -3905.51)" fill="url(#linear-gradient-4)"/>
        <path id="Path_2974" data-name="Path 2974" d="M268.752,54.428l-10.6-3.444-2.317-10.9,8.283-7.459,10.6,3.445,2.317,10.9Zm-9.094-4.8,8.672,2.818,6.776-6.1-1.9-8.92L264.538,34.6l-6.776,6.1Z" transform="translate(-15133.716 -3905.156)" fill="url(#linear-gradient-4)"/>
        <path id="Path_2975" data-name="Path 2975" d="M264.913,56.119l-10.464-7.6L255.8,35.65l11.818-5.262,10.464,7.6-1.351,12.866ZM256.3,47.69l8.824,6.411,9.964-4.436,1.141-10.848-8.824-6.411-9.964,4.437Z" transform="translate(-15133.548 -3904.885)" fill="url(#linear-gradient-4)"/>
        <path id="Path_2976" data-name="Path 2976" d="M259.716,56.873l-8.841-12.167,6.118-13.739,14.957-1.572,8.84,12.167L274.673,55.3Zm-6.822-12.379,7.647,10.526,12.94-1.36,5.291-11.886-7.647-10.526-12.939,1.36Z" transform="translate(-15133.114 -3904.765)" fill="url(#linear-gradient-4)"/>
        <path id="Path_2977" data-name="Path 2977" d="M270.945,59.387l-17.132-3.64L248.4,39.089l11.721-13.016,17.131,3.64,5.413,16.658ZM255.17,54.238l15.148,3.22L280.679,45.95l-4.784-14.729L260.747,28,250.386,39.511Z" transform="translate(-15132.814 -3904.362)" fill="url(#linear-gradient-4)"/>
        <path id="Path_2978" data-name="Path 2978" d="M265.456,62.636,247.765,52.423V32l17.691-10.212L283.146,32V52.423ZM249.522,51.408l15.933,9.2,15.932-9.2v-18.4l-15.932-9.2-15.933,9.2Z" transform="translate(-15132.737 -3903.842)" fill="url(#linear-gradient-4)"/>
        <path id="Path_2979" data-name="Path 2979" d="M257.306,64.583,241.345,46.857l7.371-22.684,23.331-4.959,15.961,17.726-7.371,22.684ZM243.331,46.435l14.6,16.218,21.347-4.538,6.743-20.755-14.6-16.218L250.074,25.68Z" transform="translate(-15131.958 -3903.53)" fill="url(#linear-gradient-4)"/>
        <path id="Path_2980" data-name="Path 2980" d="M275.41,66.985l-27.729-2.915L236.339,38.6l16.389-22.558,27.73,2.915L291.8,44.427Zm-26.537-4.556,25.712,2.7,15.2-20.916L279.266,20.6l-25.712-2.7-15.2,20.916Z" transform="translate(-15131.352 -3903.145)" fill="url(#linear-gradient-4)"/>
        <path id="Path_2981" data-name="Path 2981" d="M267.194,72.995l-29.8-13.269L233.98,27.281,260.373,8.105l29.8,13.269,3.409,32.446ZM239.032,58.533l27.95,12.444,24.752-17.983-3.2-30.427-27.95-12.444L235.833,28.107Z" transform="translate(-15131.065 -3902.182)" fill="url(#linear-gradient-4)"/>
        <path id="Path_2982" data-name="Path 2982" d="M254.939,77.238,226.55,51.676l7.943-37.367L270.825,2.5l28.39,25.562-7.943,37.367ZM228.48,51.048l26.881,24.2,34.4-11.178,7.521-35.382L270.4,4.488,236,15.666Z" transform="translate(-15130.164 -3901.503)" fill="url(#linear-gradient-4)"/>
        <path id="Path_2983" data-name="Path 2983" d="M218.983,39.677,240.35,2.667h42.736l21.367,37.01-21.367,37.01H240.35ZM239.335.91,216.954,39.677l22.381,38.767H284.1l22.382-38.767L284.1.91Z" transform="translate(-15129 -3901.31)" fill="url(#linear-gradient-4)"/>
      </g>
      <g id="Group_3158" data-name="Group 3158" transform="translate(1049 2854.62)">
        <g id="Group_3157" data-name="Group 3157" clip-path="url(#clip-path-7)">
          <path id="Path_3077" data-name="Path 3077" d="M94.123,92.877h-.01a1.213,1.213,0,0,1-.853-.356,1.175,1.175,0,0,1-.348-.849,1.205,1.205,0,0,1,1.194-1.2h.01a1.212,1.212,0,0,1,.861.364,1.18,1.18,0,0,1,.341.841,1.206,1.206,0,0,1-1.195,1.2M94.106,90.8a.877.877,0,0,0-.866.877.847.847,0,0,0,.252.613.886.886,0,0,0,.625.26h.007a.877.877,0,0,0,.867-.877.853.853,0,0,0-.247-.608.887.887,0,0,0-.63-.265Z" transform="translate(-32.026 -31.185)" fill="url(#linear-gradient-4)"/>
          <path id="Path_3078" data-name="Path 3078" d="M93.232,93.343h-.043a2.643,2.643,0,0,1-1.872-.807,2.468,2.468,0,0,1-.7-1.771A2.566,2.566,0,0,1,93.2,88.193,2.644,2.644,0,0,1,95.066,89a2.471,2.471,0,0,1,.7,1.771,2.585,2.585,0,0,1-2.534,2.571m-.081-4.822a2.256,2.256,0,0,0-2.206,2.25,2.14,2.14,0,0,0,.609,1.537,2.315,2.315,0,0,0,1.641.706h.037a2.256,2.256,0,0,0,2.206-2.25,2.141,2.141,0,0,0-.609-1.537,2.318,2.318,0,0,0-1.641-.706h-.037" transform="translate(-31.235 -30.399)" fill="url(#linear-gradient-4)"/>
          <path id="Path_3079" data-name="Path 3079" d="M92.207,93.675h-.091a4.1,4.1,0,0,1-2.9-1.271,3.72,3.72,0,0,1-1.039-2.68,3.969,3.969,0,0,1,3.859-3.942h.091a4.1,4.1,0,0,1,2.9,1.271,3.721,3.721,0,0,1,1.039,2.68,3.969,3.969,0,0,1-3.859,3.942m-.174-7.566A3.641,3.641,0,0,0,88.5,89.733a3.394,3.394,0,0,0,.95,2.446,3.774,3.774,0,0,0,2.673,1.168h.083a3.641,3.641,0,0,0,3.531-3.624,3.4,3.4,0,0,0-.95-2.446,3.779,3.779,0,0,0-2.673-1.168h-.083" transform="translate(-30.392 -29.568)" fill="url(#linear-gradient-4)"/>
          <path id="Path_3080" data-name="Path 3080" d="M90.874,93.879a5.274,5.274,0,0,1-3.649-1.561,5.384,5.384,0,0,1-1.632-3.756,5.288,5.288,0,0,1,5.284-5.318h.035a5.469,5.469,0,0,1,5.317,5.319,5.669,5.669,0,0,1-5.317,5.316Zm0-10.307a4.959,4.959,0,0,0-4.955,4.989,5.051,5.051,0,0,0,1.533,3.524,4.985,4.985,0,0,0,3.455,1.467A5.322,5.322,0,0,0,95.9,88.561a5.142,5.142,0,0,0-4.991-4.989Z" transform="translate(-29.503 -28.694)" fill="url(#linear-gradient-4)"/>
          <path id="Path_3081" data-name="Path 3081" d="M89.331,93.969a6.185,6.185,0,0,1-4.25-1.8,6.648,6.648,0,0,1-.065-9.813,6.145,6.145,0,0,1,4.567-1.767c3.244.152,6.7,2.877,6.682,6.69-.02,3.652-3.544,6.543-6.682,6.688-.084,0-.168.006-.252.006M89.3,80.906a5.86,5.86,0,0,0-4.062,1.682,6.322,6.322,0,0,0,.064,9.339,5.831,5.831,0,0,0,4.261,1.709c2.991-.139,6.35-2.889,6.369-6.363.02-3.571-3.341-6.219-6.369-6.361-.088,0-.176-.006-.263-.006" transform="translate(-28.57 -27.775)" fill="url(#linear-gradient-4)"/>
          <path id="Path_3082" data-name="Path 3082" d="M88.2,93.948h-.086c-4.063-.06-8.055-4.053-8.058-8.061a8.5,8.5,0,0,1,8.058-8.061,7.786,7.786,0,0,1,5.472,2.388,8.233,8.233,0,0,1,2.592,5.674,8.337,8.337,0,0,1-2.644,5.665,7.825,7.825,0,0,1-5.334,2.4m.031-15.8h-.111c-3.979.079-7.739,3.837-7.737,7.733,0,3.845,3.835,7.676,7.736,7.733a7.507,7.507,0,0,0,5.185-2.3,8.007,8.007,0,0,0,2.546-5.433,7.9,7.9,0,0,0-2.495-5.438,7.483,7.483,0,0,0-5.124-2.295" transform="translate(-27.596 -26.826)" fill="url(#linear-gradient-4)"/>
          <path id="Path_3083" data-name="Path 3083" d="M86.529,93.833a9.433,9.433,0,0,1,.025-18.864h.007A9.833,9.833,0,0,1,95.993,84.4c-.019,4.74-4.691,9.412-9.432,9.431ZM86.554,75.3a9.209,9.209,0,0,0-9.1,9.1,9.483,9.483,0,0,0,9.072,9.1h.031c4.577-.019,9.087-4.529,9.105-9.1a9.506,9.506,0,0,0-9.1-9.1Z" transform="translate(-26.586 -25.841)" fill="url(#linear-gradient-4)"/>
          <path id="Path_3084" data-name="Path 3084" d="M84.874,93.63A10.8,10.8,0,0,1,84.9,72.022h0a11.247,11.247,0,0,1,10.8,10.8h0c-.018,5.433-5.369,10.784-10.8,10.8ZM84.9,72.35A10.479,10.479,0,0,0,84.874,93.3H84.9c5.27-.018,10.46-5.208,10.477-10.477A10.92,10.92,0,0,0,84.9,72.35Z" transform="translate(-25.542 -24.825)" fill="url(#linear-gradient-4)"/>
          <path id="Path_3085" data-name="Path 3085" d="M82.933,93.35a11.8,11.8,0,0,1-8.115-3.495,11.9,11.9,0,0,1-.061-17.436A11.569,11.569,0,0,1,83.167,69c6.5.147,12.184,5.836,12.171,12.176-.012,6.11-5.927,12.028-12.171,12.176-.078,0-.156,0-.234,0m-.018-24.029a11.319,11.319,0,0,0-7.929,3.332,11.573,11.573,0,0,0,.061,16.968,11.4,11.4,0,0,0,8.112,3.4c6.08-.145,11.839-5.9,11.851-11.849.013-6.168-5.526-11.7-11.851-11.847-.081,0-.163,0-.244,0" transform="translate(-24.469 -23.781)" fill="url(#linear-gradient-4)"/>
          <path id="Path_3086" data-name="Path 3086" d="M81.082,93a13.129,13.129,0,0,1-9.043-3.864,13.347,13.347,0,0,1-.068-19.45A12.947,12.947,0,0,1,81.35,65.9c7.225.166,13.554,6.5,13.543,13.547C94.883,86.371,88.427,92.827,81.35,93c-.089,0-.179,0-.268,0m-.024-26.773A12.626,12.626,0,0,0,72.2,69.921,13.018,13.018,0,0,0,72.268,88.9a12.682,12.682,0,0,0,9.074,3.767c6.91-.165,13.213-6.467,13.223-13.22.01-6.879-6.168-13.057-13.223-13.219-.094,0-.189,0-.284,0" transform="translate(-23.37 -22.715)" fill="url(#linear-gradient-4)"/>
          <path id="Path_3087" data-name="Path 3087" d="M79.582,92.591h-.119C71.65,92.511,64.54,85.4,64.547,77.672c.007-7.847,6.977-14.818,14.916-14.919a14.535,14.535,0,0,1,10.246,4.41,15.033,15.033,0,0,1,4.676,10.509A15.073,15.073,0,0,1,89.67,88.142a14.646,14.646,0,0,1-10.087,4.448m.034-29.511h-.149C71.7,63.18,64.881,70,64.875,77.672c-.007,7.558,6.948,14.513,14.592,14.59a14.255,14.255,0,0,0,9.972-4.353,14.747,14.747,0,0,0,4.618-10.239A14.7,14.7,0,0,0,89.478,67.4a14.285,14.285,0,0,0-9.862-4.317" transform="translate(-22.249 -21.63)" fill="url(#linear-gradient-4)"/>
          <path id="Path_3088" data-name="Path 3088" d="M77.656,92.133h-.128C69,92.05,61.235,84.286,61.24,75.842c.005-8.577,7.617-16.189,16.288-16.29A15.975,15.975,0,0,1,88.751,64.36,16.409,16.409,0,0,1,93.82,75.843a16.442,16.442,0,0,1-5.1,11.457,16.02,16.02,0,0,1-11.068,4.833m.027-32.254h-.151c-8.5.1-15.959,7.558-15.965,15.963-.005,8.274,7.6,15.882,15.964,15.963h.125a15.693,15.693,0,0,0,10.837-4.738,16.113,16.113,0,0,0,5-11.225,16.079,16.079,0,0,0-4.972-11.25,15.666,15.666,0,0,0-10.837-4.714" transform="translate(-21.109 -20.527)" fill="url(#linear-gradient-4)"/>
          <path id="Path_3089" data-name="Path 3089" d="M75.7,91.636h-.146a17.979,17.979,0,0,1-12.3-5.378,17.59,17.59,0,0,1-5.359-12.283c0-9.3,8.255-17.556,17.66-17.663a17.276,17.276,0,0,1,12.194,5.2,17.8,17.8,0,0,1,5.47,12.465,17.835,17.835,0,0,1-5.477,12.463,17.384,17.384,0,0,1-12.04,5.2m.019-35h-.162c-9.233.1-17.334,8.2-17.336,17.335,0,8.982,8.261,17.244,17.336,17.334H75.7a17.051,17.051,0,0,0,11.809-5.1,17.5,17.5,0,0,0,5.38-12.231,17.464,17.464,0,0,0-5.373-12.231,17.033,17.033,0,0,0-11.8-5.1" transform="translate(-19.955 -19.409)" fill="url(#linear-gradient-4)"/>
          <path id="Path_3090" data-name="Path 3090" d="M73.532,91.109a18.9,18.9,0,0,1-13.358-32.4,18.851,18.851,0,0,1,13.364-5.668h0A19.435,19.435,0,0,1,92.575,72.075c-.005,10.133-8.9,19.028-19.033,19.033Zm.006-37.739a18.52,18.52,0,0,0-13.132,5.572A18.727,18.727,0,0,0,73.532,90.781h.009c9.959-.006,18.7-8.747,18.706-18.706h0A19.109,19.109,0,0,0,73.541,53.37Z" transform="translate(-18.788 -18.283)" fill="url(#linear-gradient-4)"/>
          <path id="Path_3091" data-name="Path 3091" d="M71.5,90.562a20.484,20.484,0,0,1-14.314-6.05A20.21,20.21,0,0,1,51.1,70.157a20.761,20.761,0,0,1,20.4-20.4h0a20.212,20.212,0,0,1,14.36,6.087,20.279,20.279,0,0,1-14.36,34.723Zm0-40.482A20.433,20.433,0,0,0,51.431,70.157,19.886,19.886,0,0,0,57.42,84.28,20.158,20.158,0,0,0,71.5,90.234h.006A20.357,20.357,0,0,0,91.585,70.157h0a20.163,20.163,0,0,0-5.95-14.087A19.888,19.888,0,0,0,71.508,50.08Z" transform="translate(-17.615 -17.149)" fill="url(#linear-gradient-4)"/>
          <path id="Path_3092" data-name="Path 3092" d="M69.458,90A22.005,22.005,0,0,1,47.687,68.227,22.183,22.183,0,0,1,69.458,46.451h0A21.99,21.99,0,0,1,91.239,68.227h0A21.807,21.807,0,0,1,69.463,90Zm0-43.225A21.854,21.854,0,0,0,48.015,68.227,21.677,21.677,0,0,0,69.458,89.676h0A21.479,21.479,0,0,0,90.912,68.227,21.662,21.662,0,0,0,69.463,46.779Z" transform="translate(-16.437 -16.011)" fill="url(#linear-gradient-4)"/>
          <path id="Path_3093" data-name="Path 3093" d="M67.412,89.444A23.463,23.463,0,0,1,44.269,66.3,23.775,23.775,0,0,1,67.414,43.148h0A23.433,23.433,0,0,1,90.565,66.3h0A23.181,23.181,0,0,1,67.417,89.444Zm0-45.969A23.446,23.446,0,0,0,44.6,66.3a23.135,23.135,0,0,0,22.816,22.82h0A22.853,22.853,0,0,0,90.238,66.3a23.107,23.107,0,0,0-22.82-22.82Z" transform="translate(-15.259 -14.873)" fill="url(#linear-gradient-4)"/>
          <path id="Path_3094" data-name="Path 3094" d="M65.11,88.894a23.756,23.756,0,0,1-16.7-7.124,24.77,24.77,0,0,1-7.546-17.4,24.749,24.749,0,0,1,7.666-17.3,24,24,0,0,1,16.855-7.221,25.1,25.1,0,0,1,17.152,7.4A24.092,24.092,0,0,1,89.9,64.373h0a24.768,24.768,0,0,1-24.518,24.52H65.11m.028-48.714a23.715,23.715,0,0,0-16.381,7.128,24.421,24.421,0,0,0-7.569,17.066,24.442,24.442,0,0,0,7.448,17.164A23.432,23.432,0,0,0,65.11,88.566h.267A24.439,24.439,0,0,0,89.572,64.373c.006-12.729-11.3-24.034-24.194-24.192h-.24" transform="translate(-14.084 -13.737)" fill="url(#linear-gradient-4)"/>
          <path id="Path_3095" data-name="Path 3095" d="M63.093,88.361a25.084,25.084,0,0,1-17.629-7.554,26.145,26.145,0,0,1-7.993-18.339c0-6.434,2.977-13.064,8.161-18.187,5.026-4.967,11.473-7.779,17.733-7.7,13.8.157,25.9,12.256,25.889,25.891A26.148,26.148,0,0,1,63.365,88.36h-.272m.04-51.457c-6.086,0-12.368,2.765-17.27,7.611C40.74,49.577,37.8,56.121,37.8,62.468a25.813,25.813,0,0,0,7.9,18.106,24.728,24.728,0,0,0,17.666,7.458A25.82,25.82,0,0,0,88.926,62.468C88.935,49.006,76.989,37.06,63.361,36.9h-.228" transform="translate(-12.916 -12.607)" fill="url(#linear-gradient-4)"/>
          <path id="Path_3096" data-name="Path 3096" d="M61.07,87.856A26.341,26.341,0,0,1,42.581,79.9a27.545,27.545,0,0,1-8.469-19.311c0-6.687,3.174-13.649,8.695-19.1,5.332-5.265,12.1-8.245,18.57-8.163,14.536.175,27.275,12.914,27.261,27.263h0a27.559,27.559,0,0,1-27.26,27.263l-.307,0m.059-54.2c-6.309,0-12.889,2.931-18.092,8.069-5.379,5.311-8.593,12.364-8.6,18.868a27.219,27.219,0,0,0,8.372,19.078A26.019,26.019,0,0,0,61.07,87.528l.3,0A27.23,27.23,0,0,0,88.31,60.591c.014-14.176-12.573-26.762-26.936-26.935h-.244" transform="translate(-11.758 -11.487)" fill="url(#linear-gradient-4)"/>
          <path id="Path_3097" data-name="Path 3097" d="M59.588,87.387h-.16a28.941,28.941,0,0,1-19.976-8.681,28.591,28.591,0,0,1-8.657-19.953c0-14.347,14.186-28.53,28.632-28.634a28.448,28.448,0,0,1,19.925,8.5,28.149,28.149,0,0,1,.225,40.506,28.182,28.182,0,0,1-19.989,8.261M59.6,30.445H59.43c-14.282.1-28.3,14.124-28.307,28.307,0,15,13.223,28.224,28.307,28.307h.158a27.855,27.855,0,0,0,19.758-8.166A28.552,28.552,0,0,0,59.6,30.445" transform="translate(-10.615 -10.381)" fill="url(#linear-gradient-4)"/>
          <path id="Path_3098" data-name="Path 3098" d="M57.685,86.965h-.151a30.285,30.285,0,0,1-20.925-9.138A29.959,29.959,0,0,1,27.528,56.96c0-7.154,3.438-14.668,9.422-20.615C42.9,30.427,50.406,27,57.533,26.954A29.73,29.73,0,0,1,78.4,35.9,30.079,30.079,0,0,1,87.54,56.96h0a29.944,29.944,0,0,1-8.874,21.354,29.563,29.563,0,0,1-20.981,8.651m.029-59.685h-.179c-14.971.107-29.672,14.807-29.68,29.678-.008,15.456,14.138,29.6,29.68,29.678h.149a29.234,29.234,0,0,0,20.75-8.556,29.973,29.973,0,0,0-20.721-50.8" transform="translate(-9.489 -9.291)" fill="url(#linear-gradient-4)"/>
          <path id="Path_3099" data-name="Path 3099" d="M55.843,86.6H55.7c-16.433-.073-31.388-15.028-31.377-31.377C24.334,39.791,40.168,23.955,55.7,23.846h.187a31.157,31.157,0,0,1,21.625,9.382,30.809,30.809,0,0,1,.308,44.337A30.949,30.949,0,0,1,55.843,86.6m.043-62.428H55.7c-15.37.109-31.041,15.778-31.051,31.05C24.64,71.4,39.44,86.2,55.7,86.273h.142a30.62,30.62,0,0,0,21.744-8.941,31,31,0,0,0,9.163-22.109h0A31.1,31.1,0,0,0,77.28,33.459a30.827,30.827,0,0,0-21.394-9.286" transform="translate(-8.384 -8.219)" fill="url(#linear-gradient-4)"/>
          <path id="Path_3100" data-name="Path 3100" d="M54.075,86.3h-.136c-17.153-.067-32.763-15.678-32.748-32.749.007-7.673,3.79-15.835,10.381-22.391,6.563-6.529,14.716-10.3,22.366-10.358h.191A32.526,32.526,0,0,1,76.7,30.616a32.167,32.167,0,0,1,.347,46.267A32.335,32.335,0,0,1,54.075,86.3m.055-65.171h-.189c-16.047.111-32.409,16.474-32.423,32.421-.014,16.9,15.439,32.355,32.422,32.421h.134A32.009,32.009,0,0,0,76.817,76.65a32.391,32.391,0,0,0,9.545-23.1h0a32.452,32.452,0,0,0-9.893-22.7A32.2,32.2,0,0,0,54.13,21.131" transform="translate(-7.304 -7.171)" fill="url(#linear-gradient-4)"/>
          <path id="Path_3101" data-name="Path 3101" d="M52.217,86.079c-8.467,0-17.08-3.758-23.64-10.315C21.934,69.121,18.13,60.445,18.142,51.959c.022-16.559,17.561-34.1,34.12-34.121H52.3c8.528,0,17.2,3.782,23.8,10.382A34.019,34.019,0,0,1,86.383,51.959h0a33.832,33.832,0,0,1-34.121,34.12ZM52.3,18.166h-.039c-16.4.022-33.771,17.393-33.793,33.794-.012,8.4,3.757,16.991,10.34,23.573,6.5,6.5,15.028,10.22,23.408,10.22h.045a33.318,33.318,0,0,0,23.6-57.3C69.33,21.913,60.743,18.166,52.3,18.166" transform="translate(-6.253 -6.149)" fill="url(#linear-gradient-4)"/>
          <path id="Path_3102" data-name="Path 3102" d="M50.633,85.942c-8.811,0-17.773-3.91-24.6-10.73C19.13,68.3,15.174,59.279,15.186,50.449c.023-17.225,18.267-35.469,35.491-35.492h.04c8.876,0,17.9,3.933,24.758,10.795a34.947,34.947,0,0,1,.43,49.908A35.422,35.422,0,0,1,50.678,85.942Zm.085-70.657h-.039c-17.066.023-35.142,18.1-35.164,35.165-.012,8.743,3.909,17.684,10.756,24.53,6.761,6.759,15.64,10.634,24.364,10.634h.045a34.676,34.676,0,0,0,24.566-59.63c-6.8-6.8-15.737-10.7-24.526-10.7" transform="translate(-5.234 -5.156)" fill="url(#linear-gradient-4)"/>
          <path id="Path_3103" data-name="Path 3103" d="M49.153,85.9c-9.17,0-18.485-4.056-25.565-11.134C16.425,67.6,12.323,58.224,12.333,49.034,12.355,31.141,31.3,12.192,49.2,12.171h.038c9.239,0,18.614,4.079,25.729,11.195a36.777,36.777,0,0,1,11.1,25.669h0A36.379,36.379,0,0,1,49.2,85.9Zm.082-73.4H49.2c-17.735.021-36.515,18.8-36.537,36.536-.01,9.1,4.056,18.4,11.159,25.5,7.018,7.016,16.25,11.038,25.333,11.038H49.2A36.047,36.047,0,0,0,74.731,23.6c-7.052-7.054-16.345-11.1-25.5-11.1" transform="translate(-4.251 -4.195)" fill="url(#linear-gradient-4)"/>
          <path id="Path_3104" data-name="Path 3104" d="M47.793,85.96c-9.552,0-19.229-4.2-26.56-11.529C13.828,67.027,9.587,57.293,9.6,47.725c.009-8.9,4.419-18.413,12.1-26.105S38.911,9.5,47.831,9.49h.031c9.622,0,19.356,4.218,26.714,11.578a38.181,38.181,0,0,1,11.49,26.658h0A37.649,37.649,0,0,1,47.831,85.96Zm.069-76.143h-.031c-8.834.009-18.275,4.394-25.9,12.033s-12,17.062-12,25.875c-.009,9.482,4.2,19.131,11.541,26.474,7.269,7.267,16.864,11.433,26.328,11.433h.037c21.586-.026,37.883-16.322,37.908-37.908A37.852,37.852,0,0,0,74.345,21.3C67.048,14,57.4,9.818,47.862,9.818" transform="translate(-3.308 -3.271)" fill="url(#linear-gradient-4)"/>
          <path id="Path_3105" data-name="Path 3105" d="M46.559,86.136A39.561,39.561,0,0,1,18.984,74.229c-7.632-7.631-12.007-17.727-12-27.7.012-19.607,20-39.6,39.607-39.607h.021A39.735,39.735,0,0,1,74.33,18.864,39.6,39.6,0,0,1,86.2,46.529h0A38.927,38.927,0,0,1,46.59,86.136ZM46.611,7.25H46.59C27.146,7.261,7.322,27.085,7.311,46.529,7.3,56.416,11.644,66.428,19.216,74A39.236,39.236,0,0,0,46.559,85.808h.031c22.374-.02,39.259-16.906,39.279-39.279A39.269,39.269,0,0,0,74.1,19.1,39.411,39.411,0,0,0,46.611,7.25" transform="translate(-2.407 -2.386)" fill="url(#linear-gradient-4)"/>
          <path id="Path_3106" data-name="Path 3106" d="M45.464,86.436A41,41,0,0,1,16.741,74.061a41.123,41.123,0,0,1-12.235-28.6c0-9.755,4.668-20.018,12.8-28.158S35.715,4.482,45.484,4.479h.009a41.135,41.135,0,0,1,28.657,12.2A41.034,41.034,0,0,1,86.463,45.457C86.45,68.806,68.834,86.423,45.484,86.436Zm.029-81.629h-.009c-20.13.005-40.645,20.52-40.651,40.651A40.791,40.791,0,0,0,16.974,73.83a40.672,40.672,0,0,0,28.49,12.279h.02c23.163-.013,40.638-17.489,40.651-40.651h0A40.7,40.7,0,0,0,73.919,16.915,40.805,40.805,0,0,0,45.494,4.807" transform="translate(-1.553 -1.544)" fill="url(#linear-gradient-4)"/>
          <path id="Path_3107" data-name="Path 3107" d="M44.515,86.868a43.157,43.157,0,0,1-42.34-42.35c0-10.265,4.771-20.925,13.09-29.248s18.986-13.1,29.258-13.1h0A41.972,41.972,0,0,1,74.27,14.741a41.922,41.922,0,0,1,12.6,29.777c-.006,24.137-18.212,42.344-42.35,42.35ZM44.525,2.5C34.339,2.5,23.759,7.235,15.5,15.5S2.5,34.34,2.5,44.518A42.83,42.83,0,0,0,44.515,86.54h.01c23.951-.006,42.016-18.072,42.022-42.022h0A41.6,41.6,0,0,0,74.039,14.973,41.646,41.646,0,0,0,44.525,2.5" transform="translate(-0.75 -0.747)" fill="url(#linear-gradient-4)"/>
          <path id="Path_3108" data-name="Path 3108" d="M43.716,87.444C20.022,87.444,0,67.423,0,43.721,0,32.9,4.863,21.829,13.347,13.345S32.9,0,43.716,0h.006A44.091,44.091,0,0,1,87.444,43.721c0,24.922-18.8,43.718-43.722,43.722Zm0-87.116C32.984.328,22,5.157,13.579,13.577S.326,32.987.328,43.721c0,23.523,19.874,43.394,43.388,43.394h.006c24.735,0,43.391-18.659,43.394-43.394h0C87.119,20.2,67.247.332,43.721.328Z" transform="translate(0)" fill="url(#linear-gradient-4)"/>
        </g>
      </g>
    </g>
  </g>
</svg>
