<svg id="Group_3063" data-name="Group 3063" xmlns="http://www.w3.org/2000/svg" xmlns:xlink="http://www.w3.org/1999/xlink" width="249.332" height="43.464" viewBox="0 0 249.332 43.464">
  <defs>
    <clipPath id="clip-path">
      <rect id="Rectangle_1331" data-name="Rectangle 1331" width="249.332" height="43.464" transform="translate(0 0)" fill="#fff"/>
    </clipPath>
  </defs>
  <g id="Group_2614" data-name="Group 2614" transform="translate(0 0)" clip-path="url(#clip-path)">
    <path id="Path_1571" data-name="Path 1571" d="M146.389,29.369l-5.7,16.127a.369.369,0,0,1-.379.251h-.433a.4.4,0,0,1-.386-.251l-4.276-11.311L130.945,45.5a.384.384,0,0,1-.379.251h-.44a.379.379,0,0,1-.378-.251l-5.7-16.121c-.088-.25.007-.406.251-.406h1.765a.367.367,0,0,1,.386.251l4.066,12.21,4.133-11.183a.391.391,0,0,1,.386-.25h.372a.383.383,0,0,1,.379.25l4.255,11.183,3.971-12.21a.367.367,0,0,1,.386-.251h1.739c.251,0,.345.156.257.4" transform="translate(-65.489 -15.299)" fill="#fff"/>
    <path id="Path_1572" data-name="Path 1572" d="M205.2,36.951a8.416,8.416,0,1,1-16.83,0,8.416,8.416,0,1,1,16.83,0m-2.334,0c0-3.91-2.55-6.6-6.082-6.6s-6.082,2.693-6.082,6.6,2.55,6.6,6.082,6.6,6.082-2.693,6.082-6.6" transform="translate(-99.473 -15.026)" fill="#fff"/>
    <path id="Path_1573" data-name="Path 1573" d="M257.029,44.807a.406.406,0,0,1-.359.67h-1.59a.314.314,0,0,1-.257-.149l-3.991-6.021h-4.289v5.831a.344.344,0,0,1-.338.338h-1.549a.344.344,0,0,1-.338-.338V29.308a.344.344,0,0,1,.338-.338h6.109c4.275,0,6.386,2.246,6.386,5.168a4.865,4.865,0,0,1-4.012,4.9Zm-6.7-7.394c3.362,0,4.492-1.394,4.492-3.274s-1.13-3.274-4.492-3.274h-3.781v6.548Z" transform="translate(-129.02 -15.299)" fill="#fff"/>
    <path id="Path_1574" data-name="Path 1574" d="M308.354,28.4h.507a.32.32,0,0,1,.338.338v16.1a.32.32,0,0,1-.338.338h-1.549a.32.32,0,0,1-.338-.338V33.41l-6.258,9.058a.257.257,0,0,1-.467,0l-6.257-9.058V44.835a.32.32,0,0,1-.338.338h-1.549a.32.32,0,0,1-.338-.338v-16.1a.32.32,0,0,1,.338-.338h.5a.509.509,0,0,1,.42.23l7.455,10.411,7.461-10.411a.488.488,0,0,1,.412-.23" transform="translate(-154.077 -14.996)" fill="#fff"/>
    <path id="Path_1575" data-name="Path 1575" d="M365.423,29.308v15.83a.344.344,0,0,1-.338.338h-1.549a.344.344,0,0,1-.338-.338V37.927H352.922v7.211a.344.344,0,0,1-.338.338h-1.549a.344.344,0,0,1-.338-.338V29.308a.344.344,0,0,1,.338-.338h1.549a.344.344,0,0,1,.338.338v6.724H363.2V29.308a.344.344,0,0,1,.338-.338h1.549a.344.344,0,0,1,.338.338" transform="translate(-185.196 -15.299)" fill="#fff"/>
    <path id="Path_1576" data-name="Path 1576" d="M419.021,36.951a8.416,8.416,0,1,1-16.831,0,8.416,8.416,0,1,1,16.831,0m-2.334,0c0-3.91-2.55-6.6-6.082-6.6s-6.082,2.693-6.082,6.6,2.55,6.6,6.082,6.6,6.082-2.693,6.082-6.6" transform="translate(-212.389 -15.026)" fill="#fff"/>
    <path id="Path_1577" data-name="Path 1577" d="M469.825,43.92v1.218a.32.32,0,0,1-.338.338H458.48a.344.344,0,0,1-.338-.338V29.308a.344.344,0,0,1,.338-.338h1.549a.344.344,0,0,1,.338.338V43.582h9.119a.32.32,0,0,1,.338.338" transform="translate(-241.937 -15.299)" fill="#fff"/>
    <path id="Path_1578" data-name="Path 1578" d="M514.28,43.92v1.218a.32.32,0,0,1-.338.338H502.056a.344.344,0,0,1-.338-.338V29.308a.344.344,0,0,1,.338-.338h11.615a.32.32,0,0,1,.338.338v1.218a.32.32,0,0,1-.338.338h-9.728v5.168h8.646a.318.318,0,0,1,.338.331v1.225a.319.319,0,0,1-.338.338h-8.646v5.655h10a.32.32,0,0,1,.338.338" transform="translate(-264.948 -15.299)" fill="#fff"/>
    <path id="Path_1579" data-name="Path 1579" d="M21.732,43.464A21.732,21.732,0,1,1,43.464,21.732,21.757,21.757,0,0,1,21.732,43.464m0-42.5A20.768,20.768,0,1,0,42.5,21.732,20.791,20.791,0,0,0,21.732.964" transform="translate(0 0)" fill="#fff"/>
    <path id="Path_1580" data-name="Path 1580" d="M27.97,43.9A19.526,19.526,0,1,1,47.5,24.37,19.548,19.548,0,0,1,27.97,43.9m0-38.217A18.691,18.691,0,1,0,46.661,24.37,18.711,18.711,0,0,0,27.97,5.68" transform="translate(-4.459 -2.558)" fill="#fff"/>
    <path id="Path_1581" data-name="Path 1581" d="M34.208,44.328a17.32,17.32,0,1,1,17.32-17.32,17.339,17.339,0,0,1-17.32,17.32m0-33.934A16.614,16.614,0,1,0,50.821,27.008,16.632,16.632,0,0,0,34.208,10.394" transform="translate(-8.918 -5.116)" fill="#fff"/>
    <path id="Path_1582" data-name="Path 1582" d="M40.446,44.761A15.115,15.115,0,1,1,55.56,29.646,15.132,15.132,0,0,1,40.446,44.761m0-29.652A14.536,14.536,0,1,0,54.982,29.646,14.553,14.553,0,0,0,40.446,15.11" transform="translate(-13.377 -7.674)" fill="#fff"/>
    <path id="Path_1583" data-name="Path 1583" d="M46.683,45.194A12.909,12.909,0,1,1,59.593,32.284,12.924,12.924,0,0,1,46.683,45.194m0-25.368A12.459,12.459,0,1,0,59.142,32.284,12.473,12.473,0,0,0,46.683,19.825" transform="translate(-17.835 -10.232)" fill="#fff"/>
    <path id="Path_1584" data-name="Path 1584" d="M52.922,45.625a10.7,10.7,0,1,1,10.7-10.7,10.716,10.716,0,0,1-10.7,10.7m0-21.085A10.382,10.382,0,1,0,63.3,34.922,10.393,10.393,0,0,0,52.922,24.54" transform="translate(-22.295 -12.789)" fill="#fff"/>
  </g>
</svg>
