<svg xmlns="http://www.w3.org/2000/svg" width="66.26" height="66.26" viewBox="0 0 66.26 66.26">
  <g id="Group_3067" data-name="Group 3067" transform="translate(12576.755 7336.418)">
    <path id="Path_1579" data-name="Path 1579" d="M33.13,66.26A33.13,33.13,0,1,1,66.26,33.13,33.168,33.168,0,0,1,33.13,66.26m0-64.79A31.66,31.66,0,1,0,64.79,33.13,31.7,31.7,0,0,0,33.13,1.47" transform="translate(-12576.755 -7336.418)" fill="#fff"/>
    <path id="Path_1580" data-name="Path 1580" d="M38.211,64.379A29.768,29.768,0,1,1,67.978,34.611,29.8,29.8,0,0,1,38.211,64.379m0-58.261A28.493,28.493,0,1,0,66.705,34.611,28.525,28.525,0,0,0,38.211,6.118" transform="translate(-12579.124 -7337.777)" fill="#fff"/>
    <path id="Path_1581" data-name="Path 1581" d="M43.293,62.5a26.4,26.4,0,1,1,26.4-26.4,26.433,26.433,0,0,1-26.4,26.4m0-51.731A25.327,25.327,0,1,0,68.619,36.092,25.355,25.355,0,0,0,43.293,10.765" transform="translate(-12581.493 -7339.136)" fill="#fff"/>
    <path id="Path_1582" data-name="Path 1582" d="M48.374,60.616A23.043,23.043,0,1,1,71.415,37.574,23.069,23.069,0,0,1,48.374,60.616m0-45.2a22.161,22.161,0,1,0,22.16,22.161,22.186,22.186,0,0,0-22.16-22.161" transform="translate(-12583.862 -7340.495)" fill="#fff"/>
    <path id="Path_1583" data-name="Path 1583" d="M53.454,58.735a19.68,19.68,0,1,1,19.68-19.68,19.7,19.7,0,0,1-19.68,19.68m0-38.674A18.994,18.994,0,1,0,72.448,39.055,19.015,19.015,0,0,0,53.454,20.061" transform="translate(-12586.231 -7341.854)" fill="#fff"/>
    <path id="Path_1584" data-name="Path 1584" d="M58.535,56.853A16.317,16.317,0,1,1,74.853,40.535,16.336,16.336,0,0,1,58.535,56.853m0-32.144A15.827,15.827,0,1,0,74.363,40.535,15.845,15.845,0,0,0,58.535,24.709" transform="translate(-12588.601 -7343.213)" fill="#fff"/>
  </g>
</svg>
