<?xml version="1.0" encoding="utf-8"?>
<!-- Generator: Adobe Illustrator 26.0.3, SVG Export Plug-In . SVG Version: 6.00 Build 0)  -->
<svg version="1.1" id="Layer_1" xmlns="http://www.w3.org/2000/svg" xmlns:xlink="http://www.w3.org/1999/xlink" x="0px" y="0px"
	 viewBox="0 0 469.2 241.6" style="enable-background:new 0 0 469.2 241.6;" xml:space="preserve">
<style type="text/css">
	.st0{filter:url(#Rectangle_1586);}
	.st1{fill:#FFFFFF;}
	.st2{fill:url(#Rectangle_1588_00000072984838052793609770000016580739207881068976_);}
	.st3{fill:#17153F;}
	.st4{clip-path:url(#SVGID_00000111894869100567970070000008178852524558605244_);}
	.st5{opacity:0.679;fill:url(#Path_1972_00000078045868472253129160000018245583812902236570_);enable-background:new    ;}
	.st6{fill:url(#Path_1973_00000063591956186286342630000005807507703255243909_);}
</style>
<filter  filterUnits="userSpaceOnUse" height="190.251" id="Rectangle_1586" width="303.541" x="0" y="0">
	<feOffset  input="SourceAlpha"></feOffset>
	<feGaussianBlur  result="blur" stdDeviation="12.5"></feGaussianBlur>
	<feFlood  flood-opacity="0.161"></feFlood>
	<feComposite  in2="blur" operator="in"></feComposite>
	<feComposite  in="SourceGraphic" operator="over"></feComposite>
</filter>
<g id="Group_3240" transform="translate(-721.5 -880.803)">
	<g id="Group_3238">
		<g id="Group_3237">
			<g transform="matrix(1, 0, 0, 1, 721.5, 880.8)" class="st0">
				<path id="Rectangle_1586-2_00000101083937350879403790000003057290472737524649_" class="st1" d="M13.1,1.4h206.5
					c6.1,0,11,4.9,11,11v93.3c0,6.1-4.9,11-11,11H13.1c-6.1,0-11-4.9-11-11V12.4C2.1,6.3,7.1,1.4,13.1,1.4z"/>
			</g>
			<path id="Rectangle_1587" d="M975.2,882.2h202.5c7.2,0,13,5.8,13,13v89.3c0,7.2-5.8,13-13,13H975.2c-7.2,0-13-5.8-13-13v-89.3
				C962.2,888,968,882.2,975.2,882.2z"/>
			
				<linearGradient id="Rectangle_1588_00000137823246902477658210000013075911900380249477_" gradientUnits="userSpaceOnUse" x1="258.4623" y1="1365.9044" x2="258.8013" y2="1366.8724" gradientTransform="matrix(228.541 0 0 -115.251 -58007.6953 158508.0938)">
				<stop  offset="0" style="stop-color:#26276F"/>
				<stop  offset="1" style="stop-color:#5189C8"/>
			</linearGradient>
			<path id="Rectangle_1588" style="fill:url(#Rectangle_1588_00000137823246902477658210000013075911900380249477_);" d="
				M975.2,1007.2h202.5c7.2,0,13,5.8,13,13v89.3c0,7.2-5.8,13-13,13H975.2c-7.2,0-13-5.8-13-13v-89.3
				C962.2,1013,968,1007.2,975.2,1007.2z"/>
			<path id="Rectangle_1674" class="st3" d="M736.6,1007.2h202.5c7.2,0,13,5.8,13,13v89.3c0,7.2-5.8,13-13,13H736.6
				c-7.2,0-13-5.8-13-13v-89.3C723.6,1013,729.5,1007.2,736.6,1007.2z"/>
		</g>
		<g>
			<defs>
				<path id="SVGID_1_" d="M734.6,1007.2h206.5c6.1,0,11,4.9,11,11v93.3c0,6.1-4.9,11-11,11H734.6c-6.1,0-11-4.9-11-11v-93.3
					C723.6,1012.1,728.6,1007.2,734.6,1007.2z"/>
			</defs>
			<clipPath id="SVGID_00000116213729444295010020000007503588847360528798_">
				<use xlink:href="#SVGID_1_"  style="overflow:visible;"/>
			</clipPath>
			
				<g id="Mask_Group_14" transform="translate(759.003 1043.281)" style="clip-path:url(#SVGID_00000116213729444295010020000007503588847360528798_);">
				
					<radialGradient id="Path_1972_00000146462170496474873880000014798572949226437285_" cx="-499.7274" cy="325.4244" r="0.5" gradientTransform="matrix(128.1554 128.1554 186.8015 -186.8015 3299.9165 124836.1875)" gradientUnits="userSpaceOnUse">
					<stop  offset="0" style="stop-color:#5189C8"/>
					<stop  offset="1" style="stop-color:#5189C8;stop-opacity:0"/>
				</radialGradient>
				
					<path id="Path_1972" style="opacity:0.679;fill:url(#Path_1972_00000146462170496474873880000014798572949226437285_);enable-background:new    ;" d="
					M132.4-97.4c32.2,38,20,114.1-27.2,169.9S-6.4,142.7-38.6,104.6S-58.6-9.5-11.4-65.3S100.2-135.4,132.4-97.4z"/>
				
					<radialGradient id="Path_1973_00000165935009589748603650000011754558051740521130_" cx="-500.2261" cy="324.892" r="0.5" gradientTransform="matrix(202.9145 112.4726 69.4791 -125.3489 79066.0078 97066)" gradientUnits="userSpaceOnUse">
					<stop  offset="0" style="stop-color:#E72850"/>
					<stop  offset="1" style="stop-color:#E72850;stop-opacity:0"/>
				</radialGradient>
				<path id="Path_1973" style="fill:url(#Path_1973_00000165935009589748603650000011754558051740521130_);" d="M166.4,14.9
					c53.7,35.2,83.7,92.6,66.9,128.2s-73.8,36-127.5,0.9S22.1,51.4,38.9,15.7S112.7-20.3,166.4,14.9z"/>
			</g>
		</g>
	</g>
	<g id="Group_3239">
		<g id="Component_11_1" transform="translate(816.956 1091.09)">
			<path id="Path_1692" class="st1" d="M1.2-29.7l-2.6,7.3c0,0.1-0.1,0.1-0.2,0.1h-0.2c-0.1,0-0.1,0-0.2-0.1l-1.9-5.1l-1.9,5.1
				c0,0.1-0.1,0.1-0.2,0.1h-0.2c-0.1,0-0.1,0-0.2-0.1l-2.6-7.3c0-0.1,0-0.2,0.1-0.2H-8c0.1,0,0.1,0,0.2,0.1l1.8,5.5l1.9-5.1
				c0-0.1,0.1-0.1,0.2-0.1h0.2c0.1,0,0.1,0,0.2,0.1l1.9,5.1l1.8-5.5c0-0.1,0.1-0.1,0.2-0.1h0.8C1.2-29.9,1.2-29.8,1.2-29.7"/>
			<path id="Path_1693" class="st1" d="M12.4-26.2c0,2.1-1.7,3.8-3.8,3.8c-2.1,0-3.8-1.7-3.8-3.8c0-2.1,1.7-3.8,3.8-3.8
				c2.1,0,3.8,1.6,3.8,3.7C12.4-26.3,12.4-26.2,12.4-26.2 M11.4-26.2c0.1-1.5-1-2.8-2.5-3c-1.5-0.1-2.8,1-3,2.5c0,0.2,0,0.3,0,0.5
				c-0.1,1.5,1,2.8,2.5,3c1.5,0.1,2.8-1,3-2.5C11.4-25.9,11.4-26,11.4-26.2"/>
			<path id="Path_1694" class="st1" d="M22.5-22.8c0.1,0.1,0.1,0.2,0,0.3c0,0-0.1,0-0.1,0h-0.7c0,0-0.1,0-0.1-0.1l-1.8-2.7h-1.9v2.6
				c0,0.1-0.1,0.2-0.2,0.2h-0.7c-0.1,0-0.2-0.1-0.2-0.2v-7.1c0-0.1,0.1-0.2,0.2-0.2h2.8c1.9,0,2.9,1,2.9,2.3c0,1.1-0.7,2-1.8,2.2
				L22.5-22.8z M19.4-26.1c1.5,0,2-0.6,2-1.5s-0.5-1.5-2-1.5h-1.7v3H19.4z"/>
			<path id="Path_1695" class="st1" d="M34.3-30h0.2c0.1,0,0.1,0.1,0.2,0.1c0,0,0,0,0,0v7.3c0,0.1-0.1,0.1-0.1,0.2c0,0,0,0,0,0h-0.7
				c-0.1,0-0.1-0.1-0.2-0.1c0,0,0,0,0,0v-5.2l-2.8,4.1c0,0.1-0.1,0.1-0.2,0.1c0,0,0,0-0.1-0.1l-2.8-4.1v5.2c0,0.1-0.1,0.1-0.1,0.2
				c0,0,0,0,0,0H27c-0.1,0-0.1-0.1-0.2-0.1c0,0,0,0,0,0v-7.3c0-0.1,0.1-0.1,0.1-0.2c0,0,0,0,0,0h0.2c0.1,0,0.1,0,0.2,0.1l3.4,4.7
				l3.4-4.7C34.2-30,34.3-30,34.3-30"/>
			<path id="Path_1696" class="st1" d="M46.1-29.8v7.2c0,0.1-0.1,0.2-0.2,0.2h-0.7c-0.1,0-0.2-0.1-0.2-0.2v-3.3h-4.6v3.3
				c0,0.1-0.1,0.2-0.2,0.2h-0.7c-0.1,0-0.2-0.1-0.2-0.2v-7.2c0-0.1,0.1-0.2,0.2-0.2h0.7c0.1,0,0.2,0.1,0.2,0.2v3h4.6v-3
				c0-0.1,0.1-0.2,0.2-0.2h0.7C46-29.9,46.1-29.9,46.1-29.8"/>
			<path id="Path_1697" class="st1" d="M58-26.2c0,2.1-1.7,3.8-3.8,3.8c-2.1,0-3.8-1.7-3.8-3.8c0-2.1,1.7-3.8,3.8-3.8
				c2.1,0,3.8,1.6,3.8,3.7C58-26.3,58-26.2,58-26.2 M56.9-26.2c0.1-1.5-1-2.8-2.5-3s-2.8,1-3,2.5c0,0.2,0,0.3,0,0.5
				c-0.1,1.5,1,2.8,2.5,3c1.5,0.1,2.8-1,3-2.5C56.9-25.9,56.9-26,56.9-26.2"/>
			<path id="Path_1698" class="st1" d="M67.6-23.2v0.5c0,0.1-0.1,0.1-0.1,0.2c0,0,0,0,0,0h-5c-0.1,0-0.2-0.1-0.2-0.2v-7.2
				c0-0.1,0.1-0.2,0.2-0.2h0.7c0.1,0,0.2,0.1,0.2,0.2v6.4h4.1C67.5-23.3,67.6-23.3,67.6-23.2C67.6-23.2,67.6-23.2,67.6-23.2"/>
			<path id="Path_1699" class="st1" d="M77.3-23.2v0.5c0,0.1-0.1,0.1-0.1,0.2c0,0,0,0,0,0h-5.4c-0.1,0-0.2-0.1-0.2-0.2v-7.2
				c0-0.1,0.1-0.2,0.2-0.2H77c0.1,0,0.1,0.1,0.2,0.1c0,0,0,0,0,0v0.5c0,0.1-0.1,0.1-0.1,0.2c0,0,0,0,0,0h-4.4v2.3h3.9
				c0.1,0,0.1,0.1,0.2,0.1c0,0,0,0,0,0v0.6c0,0.1-0.1,0.1-0.1,0.2c0,0,0,0,0,0h-3.9v2.6h4.5C77.2-23.3,77.3-23.3,77.3-23.2
				C77.3-23.2,77.3-23.2,77.3-23.2"/>
			<path id="Path_1700" class="st1" d="M-25.5-16.5c-5.4,0-9.8-4.4-9.8-9.8s4.4-9.8,9.8-9.8s9.8,4.4,9.8,9.8l0,0
				C-15.7-20.9-20.1-16.5-25.5-16.5 M-25.5-35.7c-5.2,0-9.4,4.2-9.4,9.4s4.2,9.4,9.4,9.4c5.2,0,9.4-4.2,9.4-9.4
				C-16.2-31.5-20.4-35.7-25.5-35.7"/>
			<path id="Path_1701" class="st1" d="M-24.7-17.4c-4.9,0-8.8-3.9-8.8-8.8s3.9-8.8,8.8-8.8s8.8,3.9,8.8,8.8l0,0
				C-15.9-21.4-19.9-17.4-24.7-17.4 M-24.7-34.7c-4.7,0-8.4,3.8-8.4,8.4s3.8,8.4,8.4,8.4s8.4-3.8,8.4-8.4
				C-16.3-30.9-20.1-34.7-24.7-34.7"/>
			<path id="Path_1702" class="st1" d="M-23.9-18.4c-4.3,0-7.8-3.5-7.8-7.8s3.5-7.8,7.8-7.8s7.8,3.5,7.8,7.8l0,0
				C-16.1-21.9-19.6-18.4-23.9-18.4 M-23.9-33.7c-4.1,0-7.5,3.4-7.5,7.5s3.4,7.5,7.5,7.5c4.1,0,7.5-3.4,7.5-7.5
				C-16.4-30.3-19.8-33.7-23.9-33.7"/>
			<path id="Path_1703" class="st1" d="M-23.1-19.3c-3.8,0-6.8-3.1-6.8-6.8s3.1-6.8,6.8-6.8c3.8,0,6.8,3.1,6.8,6.8v0
				C-16.3-22.4-19.4-19.3-23.1-19.3 M-23.1-32.7c-3.6,0-6.6,2.9-6.6,6.6c0,3.6,2.9,6.6,6.6,6.6c3.6,0,6.6-2.9,6.6-6.6c0,0,0,0,0,0
				C-16.6-29.8-19.5-32.7-23.1-32.7"/>
			<path id="Path_1704" class="st1" d="M-22.3-20.3c-3.2,0-5.8-2.6-5.8-5.8c0-3.2,2.6-5.8,5.8-5.8c3.2,0,5.8,2.6,5.8,5.8l0,0
				C-16.5-22.9-19.1-20.3-22.3-20.3 M-22.3-31.8c-3.1,0-5.6,2.5-5.6,5.6s2.5,5.6,5.6,5.6c3.1,0,5.6-2.5,5.6-5.6l0,0
				C-16.7-29.2-19.2-31.8-22.3-31.8"/>
			<path id="Path_1705" class="st1" d="M-21.5-21.3c-2.7,0-4.8-2.2-4.8-4.8c0-2.7,2.2-4.8,4.8-4.8c2.7,0,4.8,2.2,4.8,4.8v0
				C-16.7-23.4-18.9-21.3-21.5-21.3 M-21.5-30.8c-2.6,0-4.7,2.1-4.7,4.7s2.1,4.7,4.7,4.7c2.6,0,4.7-2.1,4.7-4.7c0,0,0,0,0,0
				C-16.8-28.7-18.9-30.8-21.5-30.8"/>
		</g>
		<g id="Group_3076" transform="translate(1055.437 1091.09)">
			<path id="Path_1692-2" class="st1" d="M1.2-29.7l-2.6,7.3c0,0.1-0.1,0.1-0.2,0.1h-0.2c-0.1,0-0.1,0-0.2-0.1l-1.9-5.1l-1.9,5.1
				c0,0.1-0.1,0.1-0.2,0.1h-0.2c-0.1,0-0.1,0-0.2-0.1l-2.6-7.3c0-0.1,0-0.2,0.1-0.2H-8c0.1,0,0.1,0,0.2,0.1l1.8,5.5l1.9-5.1
				c0-0.1,0.1-0.1,0.2-0.1h0.2c0.1,0,0.1,0,0.2,0.1l1.9,5.1l1.8-5.5c0-0.1,0.1-0.1,0.2-0.1h0.8C1.2-29.9,1.2-29.8,1.2-29.7"/>
			<path id="Path_1693-2" class="st1" d="M12.4-26.2c0,2.1-1.7,3.8-3.8,3.8c-2.1,0-3.8-1.7-3.8-3.8c0-2.1,1.7-3.8,3.8-3.8
				c2.1,0,3.8,1.6,3.8,3.7C12.4-26.3,12.4-26.2,12.4-26.2 M11.4-26.2c0.1-1.5-1-2.8-2.5-3c-1.5-0.1-2.8,1-3,2.5c0,0.2,0,0.3,0,0.5
				c-0.1,1.5,1,2.8,2.5,3c1.5,0.1,2.8-1,3-2.5C11.4-25.9,11.4-26,11.4-26.2"/>
			<path id="Path_1694-2" class="st1" d="M22.5-22.8c0.1,0.1,0.1,0.2,0,0.3c0,0-0.1,0-0.1,0h-0.7c0,0-0.1,0-0.1-0.1l-1.8-2.7h-1.9
				v2.6c0,0.1-0.1,0.2-0.2,0.2h-0.7c-0.1,0-0.2-0.1-0.2-0.2v-7.1c0-0.1,0.1-0.2,0.2-0.2h2.8c1.9,0,2.9,1,2.9,2.3
				c0,1.1-0.7,2-1.8,2.2L22.5-22.8z M19.4-26.1c1.5,0,2-0.6,2-1.5s-0.5-1.5-2-1.5h-1.7v3H19.4z"/>
			<path id="Path_1695-2" class="st1" d="M34.3-30h0.2c0.1,0,0.1,0.1,0.2,0.1c0,0,0,0,0,0v7.3c0,0.1-0.1,0.1-0.1,0.2c0,0,0,0,0,0
				h-0.7c-0.1,0-0.1-0.1-0.2-0.1c0,0,0,0,0,0v-5.2l-2.8,4.1c0,0.1-0.1,0.1-0.2,0.1c0,0,0,0-0.1-0.1l-2.8-4.1v5.2
				c0,0.1-0.1,0.1-0.1,0.2c0,0,0,0,0,0H27c-0.1,0-0.1-0.1-0.2-0.1c0,0,0,0,0,0v-7.3c0-0.1,0.1-0.1,0.1-0.2c0,0,0,0,0,0h0.2
				c0.1,0,0.1,0,0.2,0.1l3.4,4.7l3.4-4.7C34.2-30,34.3-30,34.3-30"/>
			<path id="Path_1696-2" class="st1" d="M46.1-29.8v7.2c0,0.1-0.1,0.2-0.2,0.2h-0.7c-0.1,0-0.2-0.1-0.2-0.2v-3.3h-4.6v3.3
				c0,0.1-0.1,0.2-0.2,0.2h-0.7c-0.1,0-0.2-0.1-0.2-0.2v-7.2c0-0.1,0.1-0.2,0.2-0.2h0.7c0.1,0,0.2,0.1,0.2,0.2v3h4.6v-3
				c0-0.1,0.1-0.2,0.2-0.2h0.7C46-29.9,46.1-29.9,46.1-29.8"/>
			<path id="Path_1697-2" class="st1" d="M58-26.2c0,2.1-1.7,3.8-3.8,3.8c-2.1,0-3.8-1.7-3.8-3.8c0-2.1,1.7-3.8,3.8-3.8
				c2.1,0,3.8,1.6,3.8,3.7C58-26.3,58-26.2,58-26.2 M56.9-26.2c0.1-1.5-1-2.8-2.5-3s-2.8,1-3,2.5c0,0.2,0,0.3,0,0.5
				c-0.1,1.5,1,2.8,2.5,3c1.5,0.1,2.8-1,3-2.5C56.9-25.9,56.9-26,56.9-26.2"/>
			<path id="Path_1698-2" class="st1" d="M67.6-23.2v0.5c0,0.1-0.1,0.1-0.1,0.2c0,0,0,0,0,0h-5c-0.1,0-0.2-0.1-0.2-0.2v-7.2
				c0-0.1,0.1-0.2,0.2-0.2h0.7c0.1,0,0.2,0.1,0.2,0.2v6.4h4.1C67.5-23.3,67.6-23.3,67.6-23.2C67.6-23.2,67.6-23.2,67.6-23.2"/>
			<path id="Path_1699-2" class="st1" d="M77.3-23.2v0.5c0,0.1-0.1,0.1-0.1,0.2c0,0,0,0,0,0h-5.4c-0.1,0-0.2-0.1-0.2-0.2v-7.2
				c0-0.1,0.1-0.2,0.2-0.2H77c0.1,0,0.1,0.1,0.2,0.1c0,0,0,0,0,0v0.5c0,0.1-0.1,0.1-0.1,0.2c0,0,0,0,0,0h-4.4v2.3h3.9
				c0.1,0,0.1,0.1,0.2,0.1c0,0,0,0,0,0v0.6c0,0.1-0.1,0.1-0.1,0.2c0,0,0,0,0,0h-3.9v2.6h4.5C77.2-23.3,77.3-23.3,77.3-23.2
				C77.3-23.2,77.3-23.2,77.3-23.2"/>
			<path id="Path_1700-2" class="st1" d="M-25.5-16.5c-5.4,0-9.8-4.4-9.8-9.8s4.4-9.8,9.8-9.8s9.8,4.4,9.8,9.8l0,0
				C-15.7-20.9-20.1-16.5-25.5-16.5 M-25.5-35.7c-5.2,0-9.4,4.2-9.4,9.4s4.2,9.4,9.4,9.4c5.2,0,9.4-4.2,9.4-9.4
				C-16.2-31.5-20.4-35.7-25.5-35.7"/>
			<path id="Path_1701-2" class="st1" d="M-24.7-17.4c-4.9,0-8.8-3.9-8.8-8.8s3.9-8.8,8.8-8.8s8.8,3.9,8.8,8.8l0,0
				C-15.9-21.4-19.9-17.4-24.7-17.4 M-24.7-34.7c-4.7,0-8.4,3.8-8.4,8.4s3.8,8.4,8.4,8.4s8.4-3.8,8.4-8.4
				C-16.3-30.9-20.1-34.7-24.7-34.7"/>
			<path id="Path_1702-2" class="st1" d="M-23.9-18.4c-4.3,0-7.8-3.5-7.8-7.8s3.5-7.8,7.8-7.8s7.8,3.5,7.8,7.8l0,0
				C-16.1-21.9-19.6-18.4-23.9-18.4 M-23.9-33.7c-4.1,0-7.5,3.4-7.5,7.5s3.4,7.5,7.5,7.5c4.1,0,7.5-3.4,7.5-7.5
				C-16.4-30.3-19.8-33.7-23.9-33.7"/>
			<path id="Path_1703-2" class="st1" d="M-23.1-19.3c-3.8,0-6.8-3.1-6.8-6.8s3.1-6.8,6.8-6.8c3.8,0,6.8,3.1,6.8,6.8v0
				C-16.3-22.4-19.4-19.3-23.1-19.3 M-23.1-32.7c-3.6,0-6.6,2.9-6.6,6.6c0,3.6,2.9,6.6,6.6,6.6c3.6,0,6.6-2.9,6.6-6.6c0,0,0,0,0,0
				C-16.6-29.8-19.5-32.7-23.1-32.7"/>
			<path id="Path_1704-2" class="st1" d="M-22.3-20.3c-3.2,0-5.8-2.6-5.8-5.8c0-3.2,2.6-5.8,5.8-5.8c3.2,0,5.8,2.6,5.8,5.8l0,0
				C-16.5-22.9-19.1-20.3-22.3-20.3 M-22.3-31.8c-3.1,0-5.6,2.5-5.6,5.6s2.5,5.6,5.6,5.6c3.1,0,5.6-2.5,5.6-5.6l0,0
				C-16.7-29.2-19.2-31.8-22.3-31.8"/>
			<path id="Path_1705-2" class="st1" d="M-21.5-21.3c-2.7,0-4.8-2.2-4.8-4.8c0-2.7,2.2-4.8,4.8-4.8c2.7,0,4.8,2.2,4.8,4.8v0
				C-16.7-23.4-18.9-21.3-21.5-21.3 M-21.5-30.8c-2.6,0-4.7,2.1-4.7,4.7s2.1,4.7,4.7,4.7c2.6,0,4.7-2.1,4.7-4.7c0,0,0,0,0,0
				C-16.8-28.7-18.9-30.8-21.5-30.8"/>
		</g>
		<g id="Group_3077" transform="translate(1055.437 967.111)">
			<path id="Path_1692-3" class="st1" d="M1.2-29.7l-2.6,7.3c0,0.1-0.1,0.1-0.2,0.1h-0.2c-0.1,0-0.1,0-0.2-0.1l-1.9-5.1l-1.9,5.1
				c0,0.1-0.1,0.1-0.2,0.1h-0.2c-0.1,0-0.1,0-0.2-0.1l-2.6-7.3c0-0.1,0-0.2,0.1-0.2H-8c0.1,0,0.1,0,0.2,0.1l1.8,5.5l1.9-5.1
				c0-0.1,0.1-0.1,0.2-0.1h0.2c0.1,0,0.1,0,0.2,0.1l1.9,5.1l1.8-5.5c0-0.1,0.1-0.1,0.2-0.1h0.8C1.2-29.9,1.2-29.8,1.2-29.7"/>
			<path id="Path_1693-3" class="st1" d="M12.4-26.2c0,2.1-1.7,3.8-3.8,3.8c-2.1,0-3.8-1.7-3.8-3.8c0-2.1,1.7-3.8,3.8-3.8
				c2.1,0,3.8,1.6,3.8,3.7C12.4-26.3,12.4-26.2,12.4-26.2 M11.4-26.2c0.1-1.5-1-2.8-2.5-3c-1.5-0.1-2.8,1-3,2.5c0,0.2,0,0.3,0,0.5
				c-0.1,1.5,1,2.8,2.5,3c1.5,0.1,2.8-1,3-2.5C11.4-25.9,11.4-26,11.4-26.2"/>
			<path id="Path_1694-3" class="st1" d="M22.5-22.8c0.1,0.1,0.1,0.2,0,0.3c0,0-0.1,0-0.1,0h-0.7c0,0-0.1,0-0.1-0.1l-1.8-2.7h-1.9
				v2.6c0,0.1-0.1,0.2-0.2,0.2h-0.7c-0.1,0-0.2-0.1-0.2-0.2v-7.1c0-0.1,0.1-0.2,0.2-0.2h2.8c1.9,0,2.9,1,2.9,2.3
				c0,1.1-0.7,2-1.8,2.2L22.5-22.8z M19.4-26.1c1.5,0,2-0.6,2-1.5s-0.5-1.5-2-1.5h-1.7v3H19.4z"/>
			<path id="Path_1695-3" class="st1" d="M34.3-30h0.2c0.1,0,0.1,0.1,0.2,0.1c0,0,0,0,0,0v7.3c0,0.1-0.1,0.1-0.1,0.2c0,0,0,0,0,0
				h-0.7c-0.1,0-0.1-0.1-0.2-0.1c0,0,0,0,0,0v-5.2l-2.8,4.1c0,0.1-0.1,0.1-0.2,0.1c0,0,0,0-0.1-0.1l-2.8-4.1v5.2
				c0,0.1-0.1,0.1-0.1,0.2c0,0,0,0,0,0H27c-0.1,0-0.1-0.1-0.2-0.1c0,0,0,0,0,0v-7.3c0-0.1,0.1-0.1,0.1-0.2c0,0,0,0,0,0h0.2
				c0.1,0,0.1,0,0.2,0.1l3.4,4.7l3.4-4.7C34.2-30,34.3-30,34.3-30"/>
			<path id="Path_1696-3" class="st1" d="M46.1-29.8v7.2c0,0.1-0.1,0.2-0.2,0.2h-0.7c-0.1,0-0.2-0.1-0.2-0.2v-3.3h-4.6v3.3
				c0,0.1-0.1,0.2-0.2,0.2h-0.7c-0.1,0-0.2-0.1-0.2-0.2v-7.2c0-0.1,0.1-0.2,0.2-0.2h0.7c0.1,0,0.2,0.1,0.2,0.2v3h4.6v-3
				c0-0.1,0.1-0.2,0.2-0.2h0.7C46-29.9,46.1-29.9,46.1-29.8"/>
			<path id="Path_1697-3" class="st1" d="M58-26.2c0,2.1-1.7,3.8-3.8,3.8c-2.1,0-3.8-1.7-3.8-3.8c0-2.1,1.7-3.8,3.8-3.8
				c2.1,0,3.8,1.6,3.8,3.7C58-26.3,58-26.2,58-26.2 M56.9-26.2c0.1-1.5-1-2.8-2.5-3s-2.8,1-3,2.5c0,0.2,0,0.3,0,0.5
				c-0.1,1.5,1,2.8,2.5,3c1.5,0.1,2.8-1,3-2.5C56.9-25.9,56.9-26,56.9-26.2"/>
			<path id="Path_1698-3" class="st1" d="M67.6-23.2v0.5c0,0.1-0.1,0.1-0.1,0.2c0,0,0,0,0,0h-5c-0.1,0-0.2-0.1-0.2-0.2v-7.2
				c0-0.1,0.1-0.2,0.2-0.2h0.7c0.1,0,0.2,0.1,0.2,0.2v6.4h4.1C67.5-23.3,67.6-23.3,67.6-23.2C67.6-23.2,67.6-23.2,67.6-23.2"/>
			<path id="Path_1699-3" class="st1" d="M77.3-23.2v0.5c0,0.1-0.1,0.1-0.1,0.2c0,0,0,0,0,0h-5.4c-0.1,0-0.2-0.1-0.2-0.2v-7.2
				c0-0.1,0.1-0.2,0.2-0.2H77c0.1,0,0.1,0.1,0.2,0.1c0,0,0,0,0,0v0.5c0,0.1-0.1,0.1-0.1,0.2c0,0,0,0,0,0h-4.4v2.3h3.9
				c0.1,0,0.1,0.1,0.2,0.1c0,0,0,0,0,0v0.6c0,0.1-0.1,0.1-0.1,0.2c0,0,0,0,0,0h-3.9v2.6h4.5C77.2-23.3,77.3-23.3,77.3-23.2
				C77.3-23.2,77.3-23.2,77.3-23.2"/>
			<path id="Path_1700-3" class="st1" d="M-25.5-16.5c-5.4,0-9.8-4.4-9.8-9.8s4.4-9.8,9.8-9.8s9.8,4.4,9.8,9.8l0,0
				C-15.7-20.9-20.1-16.5-25.5-16.5 M-25.5-35.7c-5.2,0-9.4,4.2-9.4,9.4s4.2,9.4,9.4,9.4c5.2,0,9.4-4.2,9.4-9.4
				C-16.2-31.5-20.4-35.7-25.5-35.7"/>
			<path id="Path_1701-3" class="st1" d="M-24.7-17.4c-4.9,0-8.8-3.9-8.8-8.8s3.9-8.8,8.8-8.8s8.8,3.9,8.8,8.8l0,0
				C-15.9-21.4-19.9-17.4-24.7-17.4 M-24.7-34.7c-4.7,0-8.4,3.8-8.4,8.4s3.8,8.4,8.4,8.4s8.4-3.8,8.4-8.4
				C-16.3-30.9-20.1-34.7-24.7-34.7"/>
			<path id="Path_1702-3" class="st1" d="M-23.9-18.4c-4.3,0-7.8-3.5-7.8-7.8s3.5-7.8,7.8-7.8s7.8,3.5,7.8,7.8l0,0
				C-16.1-21.9-19.6-18.4-23.9-18.4 M-23.9-33.7c-4.1,0-7.5,3.4-7.5,7.5s3.4,7.5,7.5,7.5c4.1,0,7.5-3.4,7.5-7.5
				C-16.4-30.3-19.8-33.7-23.9-33.7"/>
			<path id="Path_1703-3" class="st1" d="M-23.1-19.3c-3.8,0-6.8-3.1-6.8-6.8s3.1-6.8,6.8-6.8c3.8,0,6.8,3.1,6.8,6.8v0
				C-16.3-22.4-19.4-19.3-23.1-19.3 M-23.1-32.7c-3.6,0-6.6,2.9-6.6,6.6c0,3.6,2.9,6.6,6.6,6.6c3.6,0,6.6-2.9,6.6-6.6c0,0,0,0,0,0
				C-16.6-29.8-19.5-32.7-23.1-32.7"/>
			<path id="Path_1704-3" class="st1" d="M-22.3-20.3c-3.2,0-5.8-2.6-5.8-5.8c0-3.2,2.6-5.8,5.8-5.8c3.2,0,5.8,2.6,5.8,5.8l0,0
				C-16.5-22.9-19.1-20.3-22.3-20.3 M-22.3-31.8c-3.1,0-5.6,2.5-5.6,5.6s2.5,5.6,5.6,5.6c3.1,0,5.6-2.5,5.6-5.6l0,0
				C-16.7-29.2-19.2-31.8-22.3-31.8"/>
			<path id="Path_1705-3" class="st1" d="M-21.5-21.3c-2.7,0-4.8-2.2-4.8-4.8c0-2.7,2.2-4.8,4.8-4.8c2.7,0,4.8,2.2,4.8,4.8v0
				C-16.7-23.4-18.9-21.3-21.5-21.3 M-21.5-30.8c-2.6,0-4.7,2.1-4.7,4.7s2.1,4.7,4.7,4.7c2.6,0,4.7-2.1,4.7-4.7c0,0,0,0,0,0
				C-16.8-28.7-18.9-30.8-21.5-30.8"/>
		</g>
		<g id="Component_10_1" transform="translate(816.956 967.111)">
			<path id="Path_1692-4" d="M1.2-29.7l-2.6,7.3c0,0.1-0.1,0.1-0.2,0.1h-0.2c-0.1,0-0.1,0-0.2-0.1l-1.9-5.1l-1.9,5.1
				c0,0.1-0.1,0.1-0.2,0.1h-0.2c-0.1,0-0.1,0-0.2-0.1l-2.6-7.3c0-0.1,0-0.2,0.1-0.2H-8c0.1,0,0.1,0,0.2,0.1l1.8,5.5l1.9-5.1
				c0-0.1,0.1-0.1,0.2-0.1h0.2c0.1,0,0.1,0,0.2,0.1l1.9,5.1l1.8-5.5c0-0.1,0.1-0.1,0.2-0.1h0.8C1.2-29.9,1.2-29.8,1.2-29.7"/>
			<path id="Path_1693-4" d="M12.4-26.2c0,2.1-1.7,3.8-3.8,3.8c-2.1,0-3.8-1.7-3.8-3.8c0-2.1,1.7-3.8,3.8-3.8c2.1,0,3.8,1.6,3.8,3.7
				C12.4-26.3,12.4-26.2,12.4-26.2 M11.4-26.2c0.1-1.5-1-2.8-2.5-3c-1.5-0.1-2.8,1-3,2.5c0,0.2,0,0.3,0,0.5c-0.1,1.5,1,2.8,2.5,3
				c1.5,0.1,2.8-1,3-2.5C11.4-25.9,11.4-26,11.4-26.2"/>
			<path id="Path_1694-4" d="M22.5-22.8c0.1,0.1,0.1,0.2,0,0.3c0,0-0.1,0-0.1,0h-0.7c0,0-0.1,0-0.1-0.1l-1.8-2.7h-1.9v2.6
				c0,0.1-0.1,0.2-0.2,0.2h-0.7c-0.1,0-0.2-0.1-0.2-0.2v-7.1c0-0.1,0.1-0.2,0.2-0.2h2.8c1.9,0,2.9,1,2.9,2.3c0,1.1-0.7,2-1.8,2.2
				L22.5-22.8z M19.4-26.1c1.5,0,2-0.6,2-1.5s-0.5-1.5-2-1.5h-1.7v3H19.4z"/>
			<path id="Path_1695-4" d="M34.3-30h0.2c0.1,0,0.1,0.1,0.2,0.1c0,0,0,0,0,0v7.3c0,0.1-0.1,0.1-0.1,0.2c0,0,0,0,0,0h-0.7
				c-0.1,0-0.1-0.1-0.2-0.1c0,0,0,0,0,0v-5.2l-2.8,4.1c0,0.1-0.1,0.1-0.2,0.1c0,0,0,0-0.1-0.1l-2.8-4.1v5.2c0,0.1-0.1,0.1-0.1,0.2
				c0,0,0,0,0,0H27c-0.1,0-0.1-0.1-0.2-0.1c0,0,0,0,0,0v-7.3c0-0.1,0.1-0.1,0.1-0.2c0,0,0,0,0,0h0.2c0.1,0,0.1,0,0.2,0.1l3.4,4.7
				l3.4-4.7C34.2-30,34.3-30,34.3-30"/>
			<path id="Path_1696-4" d="M46.1-29.8v7.2c0,0.1-0.1,0.2-0.2,0.2h-0.7c-0.1,0-0.2-0.1-0.2-0.2v-3.3h-4.6v3.3
				c0,0.1-0.1,0.2-0.2,0.2h-0.7c-0.1,0-0.2-0.1-0.2-0.2v-7.2c0-0.1,0.1-0.2,0.2-0.2h0.7c0.1,0,0.2,0.1,0.2,0.2v3h4.6v-3
				c0-0.1,0.1-0.2,0.2-0.2h0.7C46-29.9,46.1-29.9,46.1-29.8"/>
			<path id="Path_1697-4" d="M58-26.2c0,2.1-1.7,3.8-3.8,3.8c-2.1,0-3.8-1.7-3.8-3.8c0-2.1,1.7-3.8,3.8-3.8c2.1,0,3.8,1.6,3.8,3.7
				C58-26.3,58-26.2,58-26.2 M56.9-26.2c0.1-1.5-1-2.8-2.5-3s-2.8,1-3,2.5c0,0.2,0,0.3,0,0.5c-0.1,1.5,1,2.8,2.5,3
				c1.5,0.1,2.8-1,3-2.5C56.9-25.9,56.9-26,56.9-26.2"/>
			<path id="Path_1698-4" d="M67.6-23.2v0.5c0,0.1-0.1,0.1-0.1,0.2c0,0,0,0,0,0h-5c-0.1,0-0.2-0.1-0.2-0.2v-7.2
				c0-0.1,0.1-0.2,0.2-0.2h0.7c0.1,0,0.2,0.1,0.2,0.2v6.4h4.1C67.5-23.3,67.6-23.3,67.6-23.2C67.6-23.2,67.6-23.2,67.6-23.2"/>
			<path id="Path_1699-4" d="M77.3-23.2v0.5c0,0.1-0.1,0.1-0.1,0.2c0,0,0,0,0,0h-5.4c-0.1,0-0.2-0.1-0.2-0.2v-7.2
				c0-0.1,0.1-0.2,0.2-0.2H77c0.1,0,0.1,0.1,0.2,0.1c0,0,0,0,0,0v0.5c0,0.1-0.1,0.1-0.1,0.2c0,0,0,0,0,0h-4.4v2.3h3.9
				c0.1,0,0.1,0.1,0.2,0.1c0,0,0,0,0,0v0.6c0,0.1-0.1,0.1-0.1,0.2c0,0,0,0,0,0h-3.9v2.6h4.5C77.2-23.3,77.3-23.3,77.3-23.2
				C77.3-23.2,77.3-23.2,77.3-23.2"/>
			<path id="Path_1700-4" d="M-25.5-16.5c-5.4,0-9.8-4.4-9.8-9.8s4.4-9.8,9.8-9.8s9.8,4.4,9.8,9.8l0,0
				C-15.7-20.9-20.1-16.5-25.5-16.5 M-25.5-35.7c-5.2,0-9.4,4.2-9.4,9.4s4.2,9.4,9.4,9.4c5.2,0,9.4-4.2,9.4-9.4
				C-16.2-31.5-20.4-35.7-25.5-35.7"/>
			<path id="Path_1701-4" d="M-24.7-17.4c-4.9,0-8.8-3.9-8.8-8.8s3.9-8.8,8.8-8.8s8.8,3.9,8.8,8.8l0,0
				C-15.9-21.4-19.9-17.4-24.7-17.4 M-24.7-34.7c-4.7,0-8.4,3.8-8.4,8.4s3.8,8.4,8.4,8.4s8.4-3.8,8.4-8.4
				C-16.3-30.9-20.1-34.7-24.7-34.7"/>
			<path id="Path_1702-4" d="M-23.9-18.4c-4.3,0-7.8-3.5-7.8-7.8s3.5-7.8,7.8-7.8s7.8,3.5,7.8,7.8l0,0
				C-16.1-21.9-19.6-18.4-23.9-18.4 M-23.9-33.7c-4.1,0-7.5,3.4-7.5,7.5s3.4,7.5,7.5,7.5c4.1,0,7.5-3.4,7.5-7.5
				C-16.4-30.3-19.8-33.7-23.9-33.7"/>
			<path id="Path_1703-4" d="M-23.1-19.3c-3.8,0-6.8-3.1-6.8-6.8s3.1-6.8,6.8-6.8c3.8,0,6.8,3.1,6.8,6.8v0
				C-16.3-22.4-19.4-19.3-23.1-19.3 M-23.1-32.7c-3.6,0-6.6,2.9-6.6,6.6c0,3.6,2.9,6.6,6.6,6.6c3.6,0,6.6-2.9,6.6-6.6c0,0,0,0,0,0
				C-16.6-29.8-19.5-32.7-23.1-32.7"/>
			<path id="Path_1704-4" d="M-22.3-20.3c-3.2,0-5.8-2.6-5.8-5.8c0-3.2,2.6-5.8,5.8-5.8c3.2,0,5.8,2.6,5.8,5.8l0,0
				C-16.5-22.9-19.1-20.3-22.3-20.3 M-22.3-31.8c-3.1,0-5.6,2.5-5.6,5.6s2.5,5.6,5.6,5.6c3.1,0,5.6-2.5,5.6-5.6l0,0
				C-16.7-29.2-19.2-31.8-22.3-31.8"/>
			<path id="Path_1705-4" d="M-21.5-21.3c-2.7,0-4.8-2.2-4.8-4.8c0-2.7,2.2-4.8,4.8-4.8c2.7,0,4.8,2.2,4.8,4.8v0
				C-16.7-23.4-18.9-21.3-21.5-21.3 M-21.5-30.8c-2.6,0-4.7,2.1-4.7,4.7s2.1,4.7,4.7,4.7c2.6,0,4.7-2.1,4.7-4.7c0,0,0,0,0,0
				C-16.8-28.7-18.9-30.8-21.5-30.8"/>
		</g>
	</g>
</g>
</svg>
