<svg id="Layer_1" data-name="Layer 1" xmlns="http://www.w3.org/2000/svg" viewBox="0 0 351.65 87.18" style="background-color: #202225;">
    <defs>
        <style>.cls-1{fill:#fff;}.cls-2{fill:red;}.cls-3{fill:#0073ff;}.cls-4{fill:#00f3d7;}</style>
    </defs>
    <polygon class="cls-1" points="113.06 53.74 112.03 53.74 106.41 30.71 99.6 30.71 94.78 53.74 93.75 53.74 87.15 29.77 82.33 29.77 90.23 57.72 91.39 57.72 93.95 57.72 94.84 57.72 97.19 57.72 98.08 57.72 103.01 34.48 108.71 57.72 109.75 57.72 112.11 57.72 113 57.72 115.56 57.72 116.51 57.72 123.36 29.77 118.81 29.77 113.06 53.74"/>
    <path class="cls-1" d="M153.56,33.36a14.28,14.28,0,0,0-4.71-3.3,16.93,16.93,0,0,0-12.67,0,14.25,14.25,0,0,0-7.64,8,14.64,14.64,0,0,0-1,5.26v.95a14.59,14.59,0,0,0,1,5.23,13.94,13.94,0,0,0,2.88,4.63,14.14,14.14,0,0,0,4.68,3.32,17.06,17.06,0,0,0,12.87,0,14.15,14.15,0,0,0,7.57-7.95,14.8,14.8,0,0,0,1-5.23v-.95a14.64,14.64,0,0,0-1-5.26A14.23,14.23,0,0,0,153.56,33.36ZM151.28,49a9.09,9.09,0,0,1-3.4,3.74,11,11,0,0,1-10.73,0,9.16,9.16,0,0,1-3.4-3.74,11.72,11.72,0,0,1-1.18-5.29,11.46,11.46,0,0,1,1.21-5.33,9.1,9.1,0,0,1,3.45-3.72,11,11,0,0,1,10.6,0,9.26,9.26,0,0,1,3.43,3.72,12.44,12.44,0,0,1,0,10.62Z"/>
    <path class="cls-1" d="M171.48,32.31A10.42,10.42,0,0,0,169,38.18V29.77h-4v28h5V42.59a8.61,8.61,0,0,1,2.25-6.41A8.79,8.79,0,0,1,178.73,34h1.78v-4.5h-.94Q174.19,29.46,171.48,32.31Z"/>
    <path class="cls-1" d="M223.58,30.45a9.43,9.43,0,0,0-5.49-1.52h-.21a9.34,9.34,0,0,0-5.47,1.52,9.14,9.14,0,0,0-3.27,4.37c-.13.35-.24.72-.35,1.09-.1-.37-.2-.74-.33-1.09a8.88,8.88,0,0,0-3.22-4.37,9.34,9.34,0,0,0-5.47-1.52h-.21a8.5,8.5,0,0,0-8.66,5.89,14.1,14.1,0,0,0-.45,1.43V29.77h-4v28h5V41a7.56,7.56,0,0,1,1.89-5.47,6.55,6.55,0,0,1,5-2A6,6,0,0,1,203,35.4a7.62,7.62,0,0,1,1.67,5.26V57.72h5V41a7.56,7.56,0,0,1,1.89-5.47,6.55,6.55,0,0,1,5-2,6,6,0,0,1,4.66,1.86,7.62,7.62,0,0,1,1.67,5.26V57.72h5v-16a19.68,19.68,0,0,0-1.08-6.94A8.9,8.9,0,0,0,223.58,30.45Z"/>
    <path class="cls-1" d="M251.27,28.93h-.21a9.62,9.62,0,0,0-5.76,1.63,9.26,9.26,0,0,0-3.14,4.2V19.51h-5V57.72h5V41.6a8.35,8.35,0,0,1,2-5.84,6.88,6.88,0,0,1,5.36-2.22,6.79,6.79,0,0,1,5,1.88,7.12,7.12,0,0,1,1.91,5.29v17h5v-16q0-6.18-2.56-9.5T251.27,28.93Z"/>
    <path class="cls-1" d="M294.55,33.36a14.28,14.28,0,0,0-4.71-3.3,16.93,16.93,0,0,0-12.67,0,14.25,14.25,0,0,0-7.64,8,14.64,14.64,0,0,0-1,5.26v.95a14.59,14.59,0,0,0,1,5.23,13.94,13.94,0,0,0,2.88,4.63,14.14,14.14,0,0,0,4.68,3.32,17.06,17.06,0,0,0,12.87,0,14.15,14.15,0,0,0,7.57-7.95,14.8,14.8,0,0,0,1-5.23v-.95a14.64,14.64,0,0,0-1-5.26A14.23,14.23,0,0,0,294.55,33.36ZM292.27,49a9.09,9.09,0,0,1-3.4,3.74,11,11,0,0,1-10.73,0,9.16,9.16,0,0,1-3.4-3.74,11.59,11.59,0,0,1-1.18-5.29,11.46,11.46,0,0,1,1.21-5.33,9.1,9.1,0,0,1,3.45-3.72,11,11,0,0,1,10.6,0,9.26,9.26,0,0,1,3.43,3.72,12.44,12.44,0,0,1,0,10.62Z"/>
    <polygon class="cls-1" points="302.45 19.51 302.45 23.49 306.32 23.49 306.32 57.72 311.35 57.72 311.35 23.49 311.35 19.51 306.32 19.51 302.45 19.51"/>
    <path class="cls-1" d="M345.89,42.44a15.43,15.43,0,0,0-1.44-6.6,12.09,12.09,0,0,0-4.4-5.05,13.28,13.28,0,0,0-7.5-2,14.07,14.07,0,0,0-6.1,1.23,12,12,0,0,0-4.27,3.3A14.09,14.09,0,0,0,319.7,38a17.13,17.13,0,0,0-.81,5.28v.95a17,17,0,0,0,.81,5.23,14.09,14.09,0,0,0,2.48,4.63,12.07,12.07,0,0,0,4.35,3.32,14.71,14.71,0,0,0,6.33,1.26,15.15,15.15,0,0,0,5.91-1.1,10.89,10.89,0,0,0,6.65-8.16h-4.71a5.7,5.7,0,0,1-2.49,3.4,10.49,10.49,0,0,1-10.54.08,8.14,8.14,0,0,1-3-3.77,13.74,13.74,0,0,1-.93-4.42h22.15ZM327.6,34.59a8.47,8.47,0,0,1,4.95-1.36,8.73,8.73,0,0,1,4.76,1.2,7.37,7.37,0,0,1,2.82,3.37,11.69,11.69,0,0,1,.81,3.12h-17a12.45,12.45,0,0,1,.74-2.62A8.09,8.09,0,0,1,327.6,34.59Z"/>
    <path class="cls-2" d="M33.39,43.59A47.78,47.78,0,0,0,19.81,10.17a1.68,1.68,0,0,0-1.2-.5H7.44a1.68,1.68,0,0,0-1.68,1.67V22.83A1.68,1.68,0,0,0,7.33,24.5a19.15,19.15,0,0,1,0,38.18,1.68,1.68,0,0,0-1.57,1.67V75.84a1.68,1.68,0,0,0,1.68,1.67H18.61a1.68,1.68,0,0,0,1.2-.5A47.78,47.78,0,0,0,33.39,43.59Z"/>
    <path class="cls-3" d="M73.6,64.35A1.68,1.68,0,0,0,72,62.68,19.15,19.15,0,0,1,72,24.5a1.68,1.68,0,0,0,1.57-1.67V11.34a1.67,1.67,0,0,0-1.67-1.67H60.75a1.7,1.7,0,0,0-1.2.5,47.94,47.94,0,0,0,0,66.84,1.7,1.7,0,0,0,1.2.5H71.93a1.67,1.67,0,0,0,1.67-1.67Z"/>
    <path class="cls-4" d="M31.15,3.69a1.88,1.88,0,0,0-1.74,2.58,102.82,102.82,0,0,1,7,37.32,102.82,102.82,0,0,1-7,37.32,1.88,1.88,0,0,0,1.74,2.58h17a1.88,1.88,0,0,0,1.74-2.58,102.3,102.3,0,0,1,0-74.64,1.88,1.88,0,0,0-1.74-2.58Z"/>
</svg>
