<?xml version="1.0" standalone="no"?>
<!DOCTYPE svg PUBLIC "-//W3C//DTD SVG 20010904//EN"
 "http://www.w3.org/TR/2001/REC-SVG-20010904/DTD/svg10.dtd">
<svg version="1.0" xmlns="http://www.w3.org/2000/svg"
 width="688.000000pt" height="688.000000pt" viewBox="0 0 688.000000 688.000000"
 preserveAspectRatio="xMidYMid meet">
<metadata>
Created by potrace 1.14, written by Peter Selinger 2001-2017
</metadata>
<g transform="translate(0.000000,688.000000) scale(0.100000,-0.100000)"
fill="#000000" stroke="none">
<path d="M2710 6617 c-53 -25 -71 -43 -86 -89 -18 -54 -15 -67 46 -228 37 -99
177 -518 184 -552 3 -13 14 -54 26 -93 12 -38 24 -81 27 -95 10 -50 11 -55 13
-55 1 0 3 -7 5 -15 1 -8 15 -62 29 -119 24 -92 101 -459 113 -536 2 -16 6 -41
9 -55 4 -26 31 -205 40 -272 7 -53 11 -84 19 -158 3 -36 8 -76 11 -90 2 -14 6
-62 9 -105 3 -44 8 -100 10 -125 24 -271 24 -945 0 -1192 -2 -20 -7 -72 -10
-115 -3 -43 -8 -94 -10 -113 -2 -19 -7 -62 -10 -95 -4 -33 -8 -71 -10 -85 -2
-14 -7 -52 -11 -85 -3 -33 -8 -62 -9 -65 -2 -3 -6 -30 -10 -60 -3 -30 -8 -62
-10 -70 -2 -8 -7 -33 -10 -55 -3 -23 -7 -50 -9 -60 -5 -25 -34 -181 -40 -215
-3 -20 -56 -256 -71 -320 -15 -67 -60 -234 -85 -320 -17 -58 -33 -112 -35
-120 -2 -8 -11 -37 -20 -65 -10 -27 -19 -57 -20 -65 -2 -8 -4 -15 -5 -15 -1 0
-3 -7 -5 -15 -2 -8 -29 -87 -60 -175 -32 -88 -70 -196 -86 -240 -25 -71 -27
-85 -17 -123 13 -53 60 -99 111 -109 47 -10 1393 -9 1431 1 59 15 112 90 107
151 -2 25 -37 129 -71 210 -68 167 -246 754 -274 905 -2 14 -5 25 -6 25 -1 0
-3 7 -5 16 -1 10 -11 50 -20 90 -19 85 -20 88 -40 189 -8 41 -16 85 -19 96 -2
12 -7 37 -10 55 -3 19 -8 44 -10 56 -3 11 -7 41 -11 65 -3 23 -8 57 -10 73 -3
17 -6 39 -9 50 -6 30 -21 158 -19 173 0 6 -2 12 -6 12 -3 0 -6 12 -7 28 0 15
-4 61 -8 102 -59 544 -63 1194 -11 1670 3 25 7 70 10 100 11 106 13 125 19
160 4 19 8 51 10 70 7 53 26 180 31 204 2 12 7 39 10 61 3 22 7 47 10 55 2 8
6 31 9 50 5 33 19 105 31 160 3 14 8 39 11 55 3 17 9 48 15 70 10 40 14 60 24
103 11 49 14 59 30 122 9 36 18 70 19 75 1 6 5 19 9 30 3 11 8 31 11 45 11 54
95 330 130 428 8 23 16 46 17 50 1 4 3 12 5 17 2 6 24 66 48 135 24 69 54 150
65 180 27 70 26 112 -1 161 -42 76 -6 72 -803 75 -527 2 -716 -1 -735 -9z"/>
<path d="M804 6134 c-17 -8 -39 -32 -50 -54 -19 -37 -20 -59 -18 -527 0 -268
2 -493 3 -500 0 -6 13 -25 27 -42 27 -33 71 -49 156 -56 29 -3 64 -7 78 -11
14 -3 39 -8 55 -10 107 -19 301 -90 408 -151 33 -18 63 -33 68 -33 5 0 9 -4 9
-10 0 -5 5 -10 11 -10 19 0 191 -135 263 -207 109 -108 207 -241 283 -383 55
-103 119 -281 139 -385 4 -22 9 -47 10 -55 18 -90 24 -357 10 -459 -9 -72 -34
-188 -48 -231 -7 -19 -13 -39 -14 -45 -5 -23 -54 -145 -81 -200 -47 -95 -109
-198 -148 -242 -5 -7 -19 -25 -30 -40 -57 -78 -238 -244 -338 -311 -118 -78
-347 -194 -347 -175 0 3 -6 1 -13 -5 -13 -10 -203 -60 -259 -68 -18 -2 -57 -7
-86 -10 -80 -8 -116 -26 -143 -74 -11 -20 -14 -118 -15 -515 -1 -480 -1 -491
20 -528 39 -72 24 -70 563 -71 531 0 493 -4 564 67 19 19 60 63 90 97 30 35
59 68 64 74 6 6 41 49 78 96 37 47 71 90 75 95 4 6 37 53 72 105 36 52 67 97
70 100 3 3 11 16 19 30 29 49 75 125 91 150 27 40 171 330 164 330 -4 0 -2 6
4 13 28 34 150 366 191 521 11 39 22 78 25 86 3 8 7 26 10 40 2 14 10 48 16
75 6 28 13 59 16 70 2 11 6 31 9 45 9 47 17 95 19 115 1 11 5 38 9 60 38 238
49 681 22 903 -3 26 -8 70 -11 97 -4 43 -16 123 -29 200 -2 11 -6 36 -9 55 -7
45 -14 78 -20 98 -3 9 -7 28 -10 42 -11 63 -86 329 -113 400 -3 8 -7 20 -9 25
-4 17 -75 197 -96 245 -56 125 -205 418 -219 430 -3 3 -12 16 -19 30 -24 45
-123 195 -132 198 -4 2 -8 8 -8 13 0 27 -239 320 -361 441 l-77 77 -489 1
c-418 0 -492 -2 -519 -16z"/>
<path d="M5065 6131 c-45 -27 -203 -201 -300 -329 -5 -7 -18 -21 -27 -30 -10
-9 -18 -20 -18 -25 0 -5 -7 -15 -15 -23 -17 -17 -186 -272 -238 -360 -64 -108
-230 -444 -233 -473 0 -3 -8 -23 -17 -45 -9 -21 -17 -40 -17 -42 0 -1 -5 -15
-12 -31 -6 -15 -12 -30 -13 -33 0 -3 -18 -56 -39 -119 -31 -94 -58 -188 -80
-281 -2 -8 -15 -69 -29 -135 -24 -113 -29 -145 -43 -247 -3 -24 -7 -58 -9 -75
-15 -109 -20 -217 -20 -443 0 -221 10 -433 20 -450 2 -3 6 -32 10 -65 3 -33 7
-67 9 -75 1 -8 6 -35 10 -60 4 -25 8 -52 10 -60 1 -8 5 -24 9 -35 3 -11 8 -37
12 -59 3 -21 7 -42 10 -46 2 -3 7 -22 10 -41 5 -32 33 -135 56 -206 5 -18 12
-40 14 -50 8 -37 88 -258 119 -328 8 -16 26 -59 42 -95 95 -219 280 -533 416
-707 26 -35 48 -65 48 -68 0 -4 6 -12 13 -19 27 -29 67 -76 67 -80 0 -3 10
-16 23 -28 28 -31 170 -189 177 -198 3 -4 20 -15 38 -24 29 -15 81 -16 520
-14 469 3 488 4 514 23 55 41 55 38 54 575 -1 463 -3 497 -20 523 -21 32 -72
58 -118 62 -117 10 -283 46 -378 82 -8 3 -21 7 -28 9 -25 5 -237 112 -287 145
-129 85 -283 224 -365 329 -19 25 -38 47 -42 48 -4 2 -8 9 -8 16 0 7 -9 21
-20 31 -11 10 -20 24 -20 31 0 7 -3 14 -7 16 -33 14 -182 355 -199 452 -2 11
-8 44 -14 71 -23 110 -33 352 -18 475 41 342 195 658 443 903 90 89 136 128
205 173 25 16 50 34 56 40 11 9 196 103 249 126 22 9 168 59 173 58 1 0 3 0 5
1 2 1 7 2 87 17 58 12 124 22 177 28 44 4 87 28 109 61 18 26 19 56 20 523 1
551 2 541 -66 579 -37 21 -48 21 -516 21 -449 0 -481 -1 -509 -19z"/>
</g>
</svg>
