<?xml version="1.0" standalone="no"?>
<!DOCTYPE svg PUBLIC "-//W3C//DTD SVG 20010904//EN"
 "http://www.w3.org/TR/2001/REC-SVG-20010904/DTD/svg10.dtd">
<svg version="1.0" xmlns="http://www.w3.org/2000/svg"
 width="700.000000pt" height="700.000000pt" viewBox="0 0 700.000000 700.000000"
 preserveAspectRatio="xMidYMid meet">
<metadata>
Created by potrace 1.14, written by Peter Selinger 2001-2017
</metadata>
<g transform="translate(0.000000,700.000000) scale(0.100000,-0.100000)"
fill="#000000" stroke="none">
<path d="M3299 6996 c-2 -2 -47 -6 -100 -10 -53 -4 -104 -8 -115 -10 -10 -2
-41 -7 -69 -10 -27 -4 -72 -11 -100 -16 -27 -5 -63 -12 -80 -15 -16 -3 -41 -7
-55 -10 -14 -3 -36 -8 -50 -11 -68 -13 -258 -68 -365 -104 -222 -77 -420 -167
-620 -283 -106 -62 -291 -181 -305 -197 -3 -4 -43 -35 -90 -70 -389 -294 -741
-723 -976 -1190 -128 -254 -246 -582 -288 -800 -3 -14 -7 -36 -10 -50 -9 -41
-28 -143 -31 -167 -2 -13 -6 -42 -10 -65 -8 -47 -10 -62 -22 -188 -15 -159 -8
-605 11 -707 2 -10 7 -43 10 -73 7 -62 12 -94 26 -165 6 -27 12 -59 14 -71 18
-91 65 -262 111 -399 81 -245 171 -440 307 -670 80 -136 73 -126 162 -250 278
-389 623 -708 1046 -967 366 -223 902 -413 1310 -463 30 -4 66 -9 80 -11 187
-27 649 -26 840 2 441 64 774 166 1135 346 961 480 1654 1385 1864 2435 31
156 36 187 56 373 11 109 13 582 2 640 -3 14 -8 54 -12 90 -7 64 -9 77 -19
135 -3 17 -8 48 -11 70 -26 177 -106 454 -196 682 -382 966 -1186 1715 -2184
2036 -237 76 -382 106 -735 152 -49 7 -525 16 -531 11z m436 -160 c56 -3 110
-8 122 -10 12 -3 50 -7 85 -11 35 -3 70 -8 78 -10 8 -2 31 -7 50 -10 318 -52
711 -186 999 -342 214 -115 467 -288 606 -414 16 -15 41 -37 55 -49 41 -35
132 -125 180 -176 l45 -49 -50 46 c-280 256 -590 449 -958 598 -194 79 -499
162 -684 187 -26 3 -56 8 -66 10 -142 27 -648 26 -827 -1 -312 -48 -564 -117
-820 -227 -924 -395 -1601 -1205 -1829 -2190 -24 -100 -25 -108 -46 -246 -37
-250 -41 -607 -9 -847 58 -438 205 -863 425 -1227 56 -92 175 -267 225 -327
319 -394 683 -684 1125 -895 271 -129 658 -245 904 -272 33 -3 63 -8 66 -10
27 -16 456 -24 624 -11 282 22 662 107 860 191 17 8 62 26 100 41 213 85 501
252 705 407 l65 50 -50 -47 c-64 -59 -228 -186 -330 -256 -218 -150 -401 -245
-710 -370 -118 -47 -374 -120 -518 -148 -118 -22 -177 -32 -297 -46 -52 -7
-288 -18 -365 -18 -86 0 -319 11 -351 17 -10 2 -46 7 -79 11 -128 17 -168 24
-269 46 -204 45 -350 91 -551 171 -808 325 -1461 961 -1810 1763 -81 185 -161
431 -200 615 -2 8 -8 35 -14 60 -5 25 -13 68 -17 95 -3 28 -7 52 -9 55 -2 3
-6 34 -10 70 -4 36 -9 74 -11 85 -7 35 -17 246 -17 350 -1 939 382 1815 1074
2460 109 101 139 127 271 226 237 177 543 345 819 448 130 48 349 115 414 127
17 3 46 9 65 14 33 9 235 42 330 55 25 3 92 8 150 11 58 3 106 7 107 8 4 4
254 -2 348 -8z m330 -350 c39 -4 77 -9 85 -11 8 -2 40 -7 70 -10 131 -14 384
-76 555 -136 307 -107 607 -271 870 -477 83 -65 120 -97 229 -201 89 -84 201
-208 295 -326 9 -11 -41 37 -111 106 -315 314 -668 539 -1062 675 -107 37
-331 97 -406 109 -25 4 -54 9 -65 11 -116 23 -285 36 -455 36 -196 -1 -330
-13 -510 -48 -342 -64 -639 -178 -934 -356 -344 -208 -661 -513 -879 -845
-225 -343 -382 -753 -433 -1128 -3 -27 -8 -58 -9 -67 -18 -94 -25 -411 -12
-573 82 -1044 778 -1984 1752 -2362 177 -69 366 -125 495 -147 19 -3 46 -8 60
-11 101 -20 297 -37 455 -39 200 -3 383 17 642 68 95 19 329 95 453 148 86 36
276 131 324 161 11 7 45 27 75 46 128 78 318 223 424 324 20 20 37 32 37 28 0
-8 -206 -210 -250 -246 -14 -11 -50 -41 -80 -66 -324 -274 -798 -503 -1237
-598 -144 -31 -157 -33 -288 -50 -169 -22 -443 -29 -580 -16 -197 18 -204 19
-350 46 -33 6 -105 22 -160 35 -1345 334 -2288 1538 -2287 2920 1 616 183
1202 530 1708 30 44 58 84 63 90 5 6 39 49 76 96 88 112 334 357 453 452 408
324 864 531 1360 617 158 28 177 30 283 37 50 4 93 7 95 9 5 5 362 -3 427 -9z
m280 -349 c11 -2 47 -8 80 -12 32 -4 67 -8 76 -10 9 -2 34 -6 55 -9 22 -4 77
-16 124 -26 577 -136 1096 -462 1472 -925 72 -90 183 -247 208 -295 17 -33 14
-29 -66 75 -161 213 -370 407 -599 557 -343 225 -692 347 -1125 393 -50 6
-359 6 -405 1 -16 -2 -61 -6 -98 -10 -37 -4 -78 -9 -90 -12 -212 -40 -345 -77
-507 -140 -590 -230 -1074 -693 -1333 -1275 -74 -167 -148 -407 -172 -559 -4
-25 -9 -54 -11 -65 -2 -11 -6 -47 -9 -80 -3 -33 -8 -71 -11 -85 -6 -29 -6
-384 0 -420 3 -14 7 -47 11 -75 3 -27 10 -75 15 -105 5 -30 11 -66 14 -80 10
-64 68 -266 101 -356 58 -157 165 -368 263 -514 50 -74 101 -147 114 -162 13
-14 38 -45 57 -67 52 -64 188 -200 270 -270 362 -309 827 -513 1291 -566 30
-4 69 -8 85 -10 47 -6 332 -6 410 0 382 31 827 186 1130 393 72 50 185 133
220 162 47 39 267 259 315 315 66 77 9 -4 -84 -119 -204 -254 -463 -473 -761
-643 -149 -85 -388 -188 -531 -228 -93 -27 -291 -73 -337 -79 -23 -3 -53 -8
-66 -11 -72 -14 -189 -20 -381 -20 -257 0 -322 6 -540 52 -593 122 -1139 450
-1515 908 -31 39 -64 79 -73 90 -66 80 -198 298 -268 440 -136 279 -231 599
-259 875 -3 36 -8 83 -10 105 -7 59 -6 331 0 400 9 103 18 173 31 245 2 14 7
41 10 60 10 64 63 264 92 350 87 255 207 488 367 710 117 163 286 346 435 471
36 30 67 56 70 59 14 15 156 114 234 165 110 71 303 170 416 214 47 18 94 37
105 41 149 60 449 128 640 146 39 3 71 8 73 9 6 5 445 -3 467 -8z m165 -342
c833 -51 1571 -545 1950 -1303 22 -45 40 -84 40 -89 0 -4 -29 41 -64 100 -211
354 -509 631 -871 808 -231 113 -408 165 -700 205 -77 10 -332 12 -410 3 -129
-16 -158 -20 -229 -35 -455 -94 -861 -336 -1166 -694 -108 -126 -165 -210
-262 -390 -98 -181 -191 -480 -214 -685 -2 -22 -6 -53 -9 -70 -6 -38 -6 -349
0 -395 3 -19 7 -54 10 -78 3 -24 10 -66 16 -95 6 -29 13 -65 16 -81 9 -56 65
-230 104 -330 104 -263 282 -524 496 -726 79 -75 267 -221 333 -259 117 -68
158 -89 245 -128 403 -182 867 -229 1305 -132 278 61 558 191 795 367 174 129
382 354 499 539 22 35 42 61 44 59 2 -3 -5 -17 -16 -33 -10 -15 -43 -68 -72
-118 -172 -291 -434 -556 -750 -758 -223 -143 -615 -293 -845 -323 -27 -3 -52
-7 -55 -9 -30 -18 -430 -26 -570 -13 -576 58 -1116 329 -1500 754 -182 202
-312 402 -417 644 -72 164 -139 393 -167 570 -32 195 -29 571 4 745 5 28 12
61 14 75 9 51 26 118 56 217 193 651 676 1195 1301 1468 176 77 432 151 589
170 30 4 57 8 60 10 3 2 59 7 125 10 66 4 121 8 122 9 2 2 86 -2 193 -9z m315
-349 c39 -3 79 -8 90 -10 11 -2 42 -7 68 -10 70 -11 77 -12 179 -40 634 -173
1135 -629 1364 -1240 36 -97 68 -206 61 -212 -2 -2 -16 32 -30 75 -140 426
-505 820 -929 1003 -241 104 -461 148 -723 143 -283 -4 -501 -58 -750 -184
-215 -109 -381 -240 -536 -421 -208 -243 -356 -578 -397 -898 -9 -74 -9 -350
0 -427 36 -288 153 -581 326 -815 283 -382 723 -636 1192 -688 83 -9 305 -8
390 1 499 57 960 341 1242 766 53 80 133 233 163 314 25 65 29 54 6 -14 -191
-536 -578 -952 -1106 -1186 -79 -35 -282 -99 -371 -117 -151 -31 -296 -44
-454 -41 -141 3 -184 7 -260 20 -14 3 -43 7 -65 11 -22 3 -92 19 -155 35 -730
192 -1296 792 -1449 1534 -29 144 -31 162 -36 355 -5 187 7 321 44 486 39 176
113 375 188 507 18 33 33 61 33 63 0 3 26 44 59 92 201 297 448 521 751 679
138 72 357 153 483 179 105 21 207 36 287 41 52 3 96 7 98 8 4 3 150 -3 237
-9z m340 -355 c643 -98 1152 -527 1359 -1145 193 -579 32 -1247 -408 -1689
-232 -234 -516 -387 -861 -463 -115 -26 -380 -36 -510 -20 -660 82 -1196 519
-1401 1144 -19 56 -36 117 -39 135 -3 18 -8 39 -10 47 -2 8 -7 35 -10 60 -4
24 -9 48 -12 53 -13 21 -11 347 2 439 57 393 222 717 502 989 122 120 315 252
449 309 27 12 62 28 79 35 101 46 312 99 441 111 38 4 70 8 72 9 8 7 283 -4
347 -14z m1353 -726 c-3 -3 -9 2 -12 12 -6 14 -5 15 5 6 7 -7 10 -15 7 -18z
m91 -495 c0 -9 -4 -8 -9 5 -5 11 -9 27 -9 35 0 9 4 8 9 -5 5 -11 9 -27 9 -35z"/>
</g>
</svg>
