<svg width="1200" height="800" viewBox="0 0 1200 800" fill="none" xmlns="http://www.w3.org/2000/svg">
<defs>
    <linearGradient id="gradient">
      <stop offset="0" stop-opacity="1" />
      <stop offset="1" stop-color="white" stop-opacity="1" />
    </linearGradient>

    <mask id="gradient-mask">
       <rect x="0" y="0" width="1200" height="800" fill="url(#gradient)"  />
    </mask>

</defs>
<path mask="url(#gradient-mask)" fill="white" opacity="0.3" d="M0.03 284.43C4.12 285.15 8.22 285.78 12.29 286.62C29.5033 290.16 46.7133 293.74 63.92 297.36C64.46 297.47 65.01 297.56 65.7 297.68C65.9114 297.277 66.0855 296.855 66.22 296.42C82.91 215.63 115.37 141.42 160.43 72.6C176.179 48.5895 193.318 25.5202 211.76 3.51C213.13 1.87 213.13 1.87 212.69 0.42H215.49C216.075 1.13733 216.717 1.80618 217.41 2.42C236.077 16.42 254.78 30.3933 273.52 44.34C273.84 44.58 274.17 44.79 274.7 45.16C275.28 44.53 275.88 43.93 276.43 43.28C288.643 28.9933 301.38 15.1867 314.64 1.86C315.52 0.98 316.31 -0.14 318.12 0.7C303.47 15.34 289.46 30.42 276.12 46.25L336.78 92.9C337.3 92.33 337.78 91.82 338.25 91.28C365.988 58.4473 396.906 28.438 430.55 1.69C431.55 0.91 432.45 -0.1 434.27 0.69C416.65 14.69 399.86 29.26 383.84 44.75C367.721 60.3102 352.43 76.7061 338.03 93.87L398.63 141.76C398.933 141.218 399.267 140.694 399.63 140.19C446.89 83.63 502.96 37.74 567.03 1.45C569.03 0.31 569.03 0.32 571.56 0.51C564.87 4.44 558.49 8.08 552.21 11.89C545.93 15.7 539.42 19.78 533.13 23.89C526.84 28 520.75 32.14 514.68 36.43C508.61 40.72 502.49 45.23 496.51 49.78C490.53 54.33 484.74 58.91 479.03 63.64C473.32 68.37 467.64 73.2 462.03 78.13C456.42 83.06 450.88 88.22 445.45 93.41C440.02 98.6 434.8 103.8 429.64 109.15C424.48 114.5 419.29 120.06 414.27 125.65C409.25 131.24 404.53 136.84 399.6 142.52L459.15 190.76C509.15 132.19 569.04 86.58 638.15 52.65L607.44 0.73C608.33 0.15 608.92 0.25 609.38 0.99C609.84 1.73 610.28 2.5 610.72 3.26L638.23 49.68C638.64 50.36 639.07 51.02 639.63 51.91C640.52 51.52 641.38 51.16 642.21 50.77C668.774 38.1155 696.317 27.628 724.57 19.41C747.125 12.7979 770.119 7.78546 793.38 4.41C804.69 2.79 816.08 1.75 827.44 0.54C830.071 0.324756 832.712 0.25465 835.35 0.33C844.07 0.33 852.78 0.55 861.5 0.55C870.5 0.55 879.5 0.49 888.57 0.29C897.931 0.209874 907.287 0.777899 916.57 1.99C932.854 3.85673 949.015 6.67488 964.97 10.43C999.99 18.5408 1033.62 31.7804 1064.77 49.72C1065.25 50 1065.77 50.28 1066.23 50.54C1066.47 50.619 1066.73 50.6758 1066.98 50.71C1067.49 47.84 1067.98 44.98 1068.5 42.12C1070.97 29.0133 1073.44 15.9033 1075.93 2.79C1076 2.15647 1076.15 1.53462 1076.38 0.94C1076.53 0.63 1077.07 0.5 1077.97 0C1076.21 9 1074.5 17.51 1072.97 26C1071.44 34.49 1069.91 43.13 1068.38 51.78C1095.21 67.7368 1119.55 87.5559 1140.61 110.6C1161.7 133.759 1179.01 160.103 1191.88 188.66L1200.09 173.59V177C1197.76 181.31 1195.41 185.6 1193.16 189.95C1192.97 190.615 1193.03 191.327 1193.33 191.95C1194.43 194.76 1195.64 197.53 1196.78 200.33C1197.92 203.13 1198.99 205.89 1200.09 208.67V213.47C1199.98 213.36 1199.81 213.28 1199.76 213.15C1197.36 206.89 1194.99 200.62 1192.58 194.36C1192.34 193.852 1192.06 193.364 1191.74 192.9C1191.51 193.2 1191.3 193.518 1191.11 193.85C1185.77 205.11 1180.46 216.39 1175.11 227.63C1174.89 228.135 1174.8 228.687 1174.84 229.236C1174.89 229.786 1175.06 230.316 1175.36 230.78C1189.16 261.995 1197.18 295.453 1199.04 329.53C1200.34 352.292 1199.15 375.128 1195.48 397.63C1195.37 398.35 1195.38 399.09 1195.34 399.54L1200.12 395.28V397.68C1198.86 398.98 1197.64 400.34 1196.31 401.56C1195 402.848 1194.17 404.545 1193.95 406.37C1189.25 431.577 1181.9 456.217 1172.03 479.88C1163.65 500.22 1153.14 519.51 1143.03 539.02L1141.87 541.23L1142.32 541.47C1144.09 538.84 1145.88 536.23 1147.62 533.58C1169.4 500.728 1186.6 465.068 1198.77 427.58C1199.15 426.39 1199.6 425.23 1200.02 424.06V428.86C1199.61 430.04 1199.17 431.22 1198.78 432.41C1189.55 460 1177.53 486.577 1162.91 511.73C1149.71 534.487 1134.66 556.117 1117.91 576.4C1117.19 577.28 1116.48 578.18 1115.72 579.11C1121.18 578.63 1126.33 578.11 1131.5 577.79C1132.16 577.78 1132.81 577.62 1133.41 577.32C1134 577.02 1134.51 576.589 1134.91 576.06C1156.89 549.726 1176.26 521.327 1192.77 491.26C1195.22 486.79 1197.57 482.26 1199.97 477.79V481.15C1199.36 482.25 1198.73 483.33 1198.15 484.44C1181.1 516.77 1160.75 547.246 1137.42 575.38C1136.89 576.03 1136.42 576.69 1135.61 577.64C1139.11 577.82 1142.15 577.88 1145.16 578.18C1145.82 578.287 1146.49 578.206 1147.1 577.946C1147.72 577.685 1148.24 577.257 1148.62 576.71C1162.71 559.803 1175.87 542.14 1188.03 523.8C1192.11 517.61 1196.03 511.33 1200.03 505.09V508C1199.43 508.92 1198.81 509.83 1198.23 510.77C1183.98 533.603 1168.22 555.449 1151.03 576.16C1150.49 576.81 1150.03 577.5 1149.34 578.32C1149.9 578.45 1150.19 578.54 1150.49 578.59C1154.2 579.12 1157.94 579.51 1161.63 580.2C1167.36 581.2 1173.05 582.5 1178.75 583.68C1179.75 583.9 1180.68 584.04 1181.51 582.99C1187.65 575.23 1193.82 567.493 1200.02 559.78V562.66L1182.62 584.47L1185.07 585.19L1200.07 589.52V591C1193.75 589.41 1187.59 587.22 1181.29 586C1111.77 667.57 1028.51 730.94 932.47 778C933.53 785.35 934.93 792.54 936.55 799.7H934.63C934.632 799.145 934.599 798.591 934.53 798.04C933.43 792.08 932.31 786.12 931.17 780.16C931.055 779.733 930.918 779.313 930.76 778.9C930 779.21 929.33 779.43 928.71 779.73C914.71 786.397 900.547 792.65 886.22 798.49C885.519 798.833 884.85 799.238 884.22 799.7H879.9C880.576 799.197 881.295 798.755 882.05 798.38C897.71 792.107 913.143 785.33 928.35 778.05C929.13 777.68 929.88 777.26 930.42 776.98C929.58 767.91 928.78 759.13 927.96 750.16C926.96 750.58 926.13 750.93 925.28 751.34C882.675 771.822 838.005 787.699 792.03 798.7C791.203 798.957 790.394 799.272 789.61 799.64H782.89C783.673 799.27 784.481 798.96 785.31 798.71C833.947 787.553 881.17 770.942 926.08 749.19C926.79 748.85 927.48 748.45 928.32 748C928.32 746.07 928.32 744.15 928.32 742.24C928.32 740.33 928.51 738.48 928.62 736.36C927.62 736.8 926.77 737.12 925.98 737.49C897.65 750.675 868.343 761.648 838.32 770.31C814.818 777.076 790.91 782.343 766.74 786.08C752.6 788.26 738.39 789.883 724.11 790.95C710.23 791.95 696.33 792.54 682.41 792.45C681.625 792.412 680.847 792.614 680.18 793.03C677.68 794.88 675.26 796.86 672.84 798.82C672.63 798.98 672.59 799.36 672.48 799.64H669.63C671.88 797.73 674.14 795.83 676.38 793.91C676.81 793.55 677.18 793.11 677.79 792.49C676.67 792.49 675.96 792.39 675.24 792.38C651.892 791.957 628.601 789.932 605.53 786.32C580.493 782.387 555.837 776.325 531.83 768.2C506.37 759.603 481.848 748.446 458.64 734.9C458.139 734.521 457.556 734.263 456.939 734.147C456.321 734.031 455.685 734.059 455.08 734.23C438.24 739.27 421.573 744.85 405.08 750.97C404.619 751.192 404.175 751.446 403.75 751.73C403.912 751.902 404.086 752.063 404.27 752.21C404.95 752.63 405.64 753.04 406.34 753.43C442.22 773.78 480.34 788.54 520.34 798.61C521.33 798.894 522.304 799.228 523.26 799.61H516.54C515.876 799.212 515.177 798.877 514.45 798.61C475.493 788.531 438.055 773.297 403.13 753.31C402.606 752.965 402.003 752.758 401.377 752.707C400.751 752.656 400.123 752.764 399.55 753.02C380.063 760.46 360.89 768.637 342.03 777.55C341.5 777.81 341.03 778.14 340.24 778.55C341.46 779.28 342.41 779.85 343.36 780.4C354.36 786.8 365.583 792.747 377.03 798.24C377.783 798.659 378.508 799.127 379.2 799.64H375.36C374.744 799.151 374.092 798.71 373.41 798.32C361.97 792.78 350.78 786.78 339.84 780.32C339.365 779.978 338.8 779.783 338.216 779.758C337.631 779.733 337.052 779.88 336.55 780.18C324.837 786.233 313.117 792.26 301.39 798.26C300.724 798.671 300.098 799.143 299.52 799.67H296.16C296.956 799.027 297.795 798.439 298.67 797.91C310.437 791.81 322.223 785.727 334.03 779.66L336.42 778.41C260.09 731.9 202.34 669.19 165.53 587.67C142.33 590.02 119.32 592.94 96.16 596.57C96.57 597.57 96.82 598.32 97.16 599.02C100.34 605.65 103.4 612.34 106.75 618.88C128.479 661.218 156.768 699.852 190.57 733.35C215.167 757.764 242.324 779.456 271.57 798.05C272.3 798.52 272.94 799.13 273.62 799.67H270.74C270.032 799.041 269.291 798.45 268.52 797.9C238.089 778.334 209.958 755.402 184.66 729.54C147.479 691.577 117.286 647.353 95.47 598.9C95.15 598.19 94.76 597.52 94.38 596.8C71.5 600.41 48.9 604.52 26.16 609.4C26.59 610.4 26.89 611.24 27.25 612.02C44.1037 649.365 65.5855 684.444 91.19 716.43C115.199 746.426 142.515 773.618 172.62 797.49C173.372 798.164 174.083 798.882 174.75 799.64H172.35C171.668 798.883 170.947 798.162 170.19 797.48C153.939 784.498 138.491 770.542 123.93 755.69C83.0121 714.099 49.7734 665.599 25.75 612.43C25.36 611.57 24.95 610.72 24.51 609.8L23.21 610.04C16.27 611.58 9.32667 613.117 2.38 614.65C1.61 614.82 0.81 614.85 0.03 614.95V613.51L23.79 608.23C23.4 607.23 23.12 606.53 22.79 605.8C20.31 599.74 17.74 593.71 15.36 587.62C10.03 573.92 5.37 560 1.3 545.86C1.06 545.02 1.23 543.86 0.03 543.47V537.71C1.28 538.3 1.1 539.6 1.38 540.61C7.52801 562.784 15.2133 584.504 24.38 605.61C24.69 606.33 25.04 607.03 25.31 607.61L93.55 595C93.5698 594.851 93.5698 594.699 93.55 594.55C93.32 593.95 93.06 593.37 92.81 592.78C68.32 536.06 56.17 476.7 54.95 415C54.5993 396.066 55.2937 377.127 57.03 358.27C58.6767 340.11 61.2233 322.08 64.67 304.18C64.96 302.64 65.18 301.09 65.45 299.48C64.68 299.26 64.15 299.08 63.61 298.97C49.7 296.03 35.79 293.07 21.86 290.18C14.59 288.68 7.29 287.3 0 285.87L0.03 284.43ZM215.03 2.54C214.809 2.61832 214.597 2.72236 214.4 2.85C214.01 3.25 213.64 3.66 213.28 4.09C175.89 48.82 143.93 97.09 118.33 149.49C95.5056 195.859 78.5901 244.909 67.98 295.49C67.81 296.33 67.71 297.18 67.59 297.96L139.59 315.47C139.77 314.82 139.99 314.15 140.15 313.47C143.15 301.29 145.77 289.02 149.15 276.95C161.98 230.84 180.76 187.2 204.43 145.63C223.958 111.468 246.476 79.105 271.72 48.92C272.36 48.15 272.98 47.35 273.72 46.41L215.03 2.54ZM275.4 47.54C275.145 47.6557 274.903 47.7999 274.68 47.97C274.3 48.3833 273.93 48.8033 273.57 49.23C239.87 89.6 211.02 133.14 187.87 180.39C167.376 221.924 152.078 265.825 142.32 311.1C141.98 312.71 141.7 314.34 141.4 315.89L217.4 337.32C217.58 336.57 217.79 335.81 217.95 335.04C218.5 332.38 219 329.71 219.58 327.04C229.19 282.7 244.659 239.837 265.58 199.58C284.659 162.808 307.606 128.175 334.03 96.27C334.57 95.62 335.1 94.95 335.8 94.08C315.57 78.49 295.48 63.05 275.38 47.58L275.4 47.54ZM139.29 317.31C115.29 311 91.38 305.19 67.29 299.8C67.09 300.47 66.89 300.97 66.79 301.5C61.9588 325.802 58.7914 350.406 57.31 375.14C56.1856 393.741 56.0921 412.389 57.03 431C58.0926 451.914 60.5076 472.738 64.26 493.34C70.2539 526.21 79.838 558.322 92.84 589.1C93.65 591.01 94.5 592.89 95.31 594.73L164.76 585.81C164.46 585.07 164.14 584.28 163.83 583.48C160.75 575.68 157.47 567.95 154.63 560.06C139.914 519.274 131.645 476.443 130.12 433.11C129.75 422.74 129.77 412.35 129.83 401.97C129.91 390.23 130.83 378.53 131.97 366.84C133.223 354.12 134.967 341.473 137.2 328.9C137.88 325.14 138.56 321.38 139.29 317.31ZM337.37 95.31C337.109 95.4013 336.86 95.5256 336.63 95.68C336.2 96.15 335.78 96.63 335.38 97.13C306.867 131.48 282.434 169.021 262.57 209C243.129 248.124 228.83 289.598 220.03 332.39C219.65 334.24 219.34 336.1 219.03 337.98C231.46 341.88 243.67 345.65 255.84 349.54C268.01 353.43 280.22 357.46 292.53 361.47C292.71 360.7 292.82 360.25 292.92 359.79C293.92 354.86 294.92 349.92 296.04 345.01C305.389 304.309 320.186 265.055 340.03 228.31C355.927 198.797 374.598 170.864 395.79 144.89C396.31 144.24 396.79 143.57 397.43 142.75L337.37 95.31ZM141.12 317.78C140.942 318.23 140.795 318.691 140.68 319.16C139.06 328.76 137.18 338.33 135.92 347.98C134.47 359.05 133.4 370.18 132.49 381.31C131.81 389.74 131.49 398.21 131.29 406.66C131.14 413.61 131.29 420.56 131.54 427.51C131.79 434.46 132.08 441.51 132.59 448.56C133.52 461.46 135.13 474.29 137.27 487.05C142.308 517.335 150.692 546.966 162.27 575.4C163.69 578.87 165.17 582.3 166.57 585.61L243.57 580.11C243.24 579.33 242.96 578.6 242.64 577.88C220.55 528.31 209.94 476.29 209.59 422.12C209.449 394.913 211.866 367.754 216.81 341C216.89 340.366 216.937 339.729 216.95 339.09C191.71 331.56 166.53 324.39 141.12 317.78ZM398.76 143.78C398.1 144.55 397.61 145.08 397.16 145.63C372.332 175.982 351.008 209.038 333.59 244.17C315.833 279.932 302.833 317.864 294.92 357C294.59 358.63 294.34 360.27 294.06 361.9L361.5 385.81C376.82 312.81 410.61 249.04 458.16 191.9L398.76 143.78ZM245.28 580.26C247.04 580.26 248.48 580.26 249.91 580.26C256.78 580.03 263.65 579.67 270.53 579.58C284.84 579.39 299.16 579.34 313.48 579.23C314.31 579.23 315.15 579.15 316.19 579.1C315.8 578.1 315.56 577.46 315.27 576.81C298.265 538.418 288.417 497.242 286.21 455.31C284.674 427.35 286.206 399.306 290.78 371.68C291.24 368.86 291.68 366.05 292.12 363.31C284.81 360.08 221.5 340.08 218.46 340.08C203.56 422.76 210.52 503 245.28 580.26ZM338.2 777.48C348.64 772.82 358.66 768.2 368.79 763.87C378.92 759.54 389.04 755.53 399.44 751.27C330.73 710.14 278.37 654.42 244.3 581.8C231.43 582.59 218.66 583.35 205.9 584.17C183.26 585.62 169.31 586.99 167.52 587.95C204.44 669.16 262.24 731.53 338.2 777.48ZM379.03 581.15C379.1 580.83 379.19 580.65 379.15 580.53C378.9 579.86 378.63 579.19 378.35 578.53C363.743 543.91 355.609 506.904 354.35 469.35C353.912 457.287 354.139 445.208 355.03 433.17C356.071 418.588 357.988 404.082 360.77 389.73C360.9 389.04 360.91 388.34 360.99 387.56C338.62 379.27 316.31 371.31 293.7 363.72C293.49 364.72 293.34 365.29 293.23 365.91C290.565 380.945 288.756 396.12 287.81 411.36C286.42 433.794 287.09 456.308 289.81 478.62C292.803 503.869 298.661 528.696 307.27 552.62C310.32 561.03 313.93 569.23 317.27 577.54C317.409 578.122 317.764 578.629 318.264 578.958C318.764 579.287 319.371 579.413 319.96 579.31C321.236 579.24 322.514 579.24 323.79 579.31L369.12 580.7C372.43 580.87 375.76 581 379.03 581.15ZM639.03 54.15C604.952 70.6772 572.648 90.6372 542.62 113.72C512.502 136.772 484.944 162.988 460.42 191.92L504.64 228.49C527.028 202.012 552.188 178.008 579.69 156.89C607.2 135.722 636.8 117.42 668.03 102.27L639.03 54.15ZM640.38 53.45L669.38 101.63C734.1 70.9 801.8 54.14 873.51 53.94C870.08 36.09 866.69 18.49 863.26 0.67C785.03 1.27 711.15 19.7 640.41 53.4L640.38 53.45ZM416.03 406.89C416.27 405.89 416.46 405.21 416.6 404.52C421.673 380.342 429.167 356.736 438.97 334.06C454.97 296.87 476.24 262.93 501.97 231.72C502.51 231.06 503.04 230.39 503.68 229.59L459.41 193C411.92 250.08 378.25 313.63 363.03 386.52L416.03 406.89ZM454.79 732.7C393.66 695.42 347.22 645.44 317.03 580.79C293.41 580.69 269.96 580.79 246.24 581.94C246.77 583.13 247.14 584 247.54 584.85C265.777 623.228 290.47 658.189 320.54 688.21C344.156 711.813 370.639 732.36 399.37 749.37C400.045 749.825 400.822 750.106 401.632 750.186C402.442 750.266 403.259 750.144 404.01 749.83C415.763 745.67 427.543 741.59 439.35 737.59C444.25 735.89 449.31 734.42 454.79 732.7ZM552.41 268.61C572.624 244.686 595.288 222.944 620.03 203.74C644.813 184.472 671.454 167.723 699.56 153.74L668.88 103.57C605.81 134.42 551.3 175.93 505.88 229.41L552.41 268.61ZM553.56 269.61L602.85 311.85C639.61 268.68 683.56 234.94 734.22 209.64L700.3 155C643.62 183.48 594.64 221.19 553.56 269.58V269.61ZM471.78 429.81C471.99 429.05 472.17 428.53 472.28 427.99C479.079 396.391 490.314 365.912 505.65 337.46C517.922 314.546 532.418 292.895 548.93 272.82L551.42 269.77L504.93 230.65C504.24 231.42 503.71 232 503.21 232.6C490.56 247.867 478.96 263.973 468.49 280.81C445.3 318.2 428.36 358.17 418.82 401.18C418.36 403.27 417.95 405.36 417.51 407.48L471.78 429.81ZM765.65 259.57C719.95 282.08 680.52 312.09 647.54 350.67L708.46 404.78C722.284 388.582 737.765 373.876 754.65 360.9C771.602 347.876 789.82 336.59 809.03 327.21L765.65 259.57ZM885.26 108.39C820.7 110.06 759.8 126 701.73 154.33C713.06 172.73 724.28 190.82 735.64 208.92C787.64 183.76 842.01 169.66 899.7 168.3C894.86 148.19 890.09 128.42 885.26 108.39ZM700.89 153C759.08 124.61 820.19 108.58 884.96 106.84C881.22 89.55 877.54 72.56 873.84 55.47H871.52C854.473 55.4695 837.441 56.5081 820.52 58.58C801.554 60.8914 782.748 64.3714 764.21 69C732.63 76.8898 701.91 87.8902 672.5 101.84C671.81 102.17 671.16 102.58 670.32 103.04L700.89 153ZM530.33 455.48C536.093 429.265 545.198 403.897 557.42 380C569.626 356.165 584.472 333.778 601.68 313.26C599.68 310.82 554.43 272.15 552.3 271.06C513.54 318.06 485.87 370.46 473.3 430.41L530.33 455.48ZM914.48 224.05C913.61 224.05 912.82 224.05 912.03 224.05C905.96 224.3 899.89 224.5 893.83 224.85C880.124 225.706 866.492 227.496 853.03 230.21C823.978 235.925 795.758 245.261 769.03 258C768.48 258.26 767.97 258.6 767.21 259L810.45 326.45C850.22 307.56 891.81 297.11 935.86 296.66L914.48 224.05ZM582.8 479.82L653.08 514.82C661.84 473.82 680.8 438.09 707.41 406L646.53 351.93C631.143 370.153 617.89 390.076 607.03 411.31C595.899 432.949 587.748 455.995 582.8 479.82V479.82ZM875.19 53.94C940.81 54.61 1002.51 68.73 1059.41 101.94C1059.6 101.08 1059.77 100.49 1059.85 99.88C1061.27 89.76 1062.64 79.62 1064.08 69.5C1064.79 64.52 1065.58 59.55 1066.43 54.59C1066.67 53.19 1066.43 52.26 1065.07 51.73C1064.78 51.5933 1064.5 51.4328 1064.24 51.25C1026.74 29.47 986.43 15.41 943.85 7.63C927.812 4.67256 911.609 2.69887 895.33 1.72C886.15 1.18 876.96 1.02 867.77 0.72C866.93 0.72 866.08 0.81 864.95 0.87C868.39 18.69 871.78 36.23 875.19 53.94ZM432.13 584.74C408.13 527.59 404.13 468.84 415.65 408.74C411.46 406.37 365 388.74 362.72 388.61C362.61 389.05 362.46 389.51 362.39 389.97C360.91 399.68 359.21 409.36 358 419.1C353.974 452.731 355.307 486.787 361.95 520C366.081 540.453 372.311 560.425 380.54 579.6C380.731 580.236 381.131 580.789 381.676 581.168C382.22 581.548 382.877 581.732 383.54 581.69C387.14 581.82 390.73 582.08 394.32 582.31L422.8 584.17L432.13 584.74ZM809.84 328.51C790.721 337.828 772.59 349.048 755.72 362C739.72 374.24 712.57 400.35 709.9 406.06L770.03 460.65C793.285 433.59 821.826 411.569 853.9 395.94L809.84 328.51ZM959.93 370.33C952.02 346.15 944.21 322.27 936.35 298.27C914.014 298.336 891.77 301.127 870.11 306.58C849.828 311.606 830.122 318.724 811.31 327.82L855.31 395.24C888.52 379.48 923.14 370.84 959.93 370.33ZM1051.68 340.64L1052.08 340.3C1051.98 338.79 1051.87 337.3 1051.79 335.77C1050.45 310.95 1049.64 286.11 1049.79 261.25C1049.89 260.402 1049.71 259.545 1049.28 258.806C1048.85 258.066 1048.2 257.483 1047.42 257.14C1014.24 238.14 978.42 228.19 940.42 225.05C935.49 224.64 930.55 224.35 925.6 224.13C922.69 224 919.76 224.13 916.82 224.13C917.13 228.29 936.54 294.02 938.2 296.73C981.51 297.06 1019.1 312.35 1051.68 340.64ZM769.03 461.88L708.56 407C681.88 439.2 663.03 474.81 654.48 515.55L723.63 552.61C731.03 518.51 746.71 488.78 769.03 461.88ZM901.37 168.21C902.19 168.21 902.74 168.3 903.29 168.3C919.126 168.161 934.954 169.11 950.66 171.14C967.787 173.342 984.697 176.989 1001.21 182.04C1017.57 187.051 1033.44 193.562 1048.6 201.49C1049.32 201.87 1049.98 202.63 1050.93 202.25C1051.93 186.01 1053.02 169.83 1054.08 153.5C1037.62 143.054 1020.13 134.341 1001.88 127.5C983.614 120.641 964.711 115.617 945.45 112.5C926.121 109.347 906.539 108.008 886.96 108.5C891.82 128.63 896.6 148.42 901.37 168.21ZM646.28 349.67C679.45 310.88 719.09 280.67 764.84 258.17C754.84 242.31 744.97 226.67 735.04 210.91C684.41 236.2 640.63 269.79 604.04 312.84L646.28 349.67ZM483.93 590C483.6 589 483.39 588.37 483.13 587.71C472.97 561.684 467.113 534.178 465.79 506.27C464.61 482.623 466.271 458.921 470.74 435.67C471.01 434.28 471.21 432.88 471.47 431.32L417.32 409.04C417.07 410.04 416.86 410.68 416.72 411.38C413.457 428.409 411.555 445.67 411.03 463C410.302 487.063 412.539 511.124 417.69 534.64C421.337 551.124 426.472 567.243 433.03 582.8C433.6 584.15 434.2 585 435.88 585.16C450.36 586.54 464.82 588.03 479.29 589.49C480.74 589.64 482.22 589.82 483.93 590ZM502.93 720.1C448 686.38 406.62 641.24 380.23 582.78C359.83 581.69 339.55 580.94 318.97 580.78C319.33 581.7 319.54 582.37 319.84 583C321.6 586.58 323.31 590.2 325.15 593.74C355.37 651.86 399.22 697.09 455.03 731C455.613 731.385 456.276 731.633 456.968 731.727C457.661 731.82 458.366 731.756 459.03 731.54C471.45 728.18 483.89 724.93 496.34 721.65C498.33 721.15 500.33 720.72 502.88 720.11L502.93 720.1ZM766.23 257.51C813.1 235.2 862.13 222.93 914.11 222.41L900.11 169.8C842.46 171.1 788.24 185.14 736.43 210.24C746.41 226.08 756.25 241.69 766.23 257.51ZM886.63 106.89C887.63 106.89 888.28 106.89 888.91 106.89C906.184 106.608 923.453 107.712 940.55 110.19C962.081 113.304 983.206 118.763 1003.55 126.47C1020.43 132.894 1036.67 140.91 1052.03 150.41C1052.72 150.84 1053.34 151.58 1054.26 151.35C1055.91 135.44 1057.55 119.64 1059.26 103.69C1025.71 83.69 989.56 70.53 951.26 62.95C926.306 58.0313 900.934 55.5463 875.5 55.53C879.26 72.83 882.93 89.75 886.63 106.89ZM603.03 314C568.17 356.07 543.43 402.81 531.73 456.15L581.24 479.24C591.49 430.88 613.82 388.7 645.24 350.84L603.03 314ZM540.03 599.09C522.25 552.52 520.15 505.27 529.96 457.3C524.96 454.35 475.38 432.79 472.96 432.52C472.82 433.13 472.65 433.75 472.53 434.37C469.661 449.122 467.89 464.066 467.23 479.08C466.32 498.896 467.561 518.752 470.93 538.3C473.914 555.398 478.621 572.15 484.98 588.3C485.179 588.967 485.58 589.555 486.128 589.984C486.677 590.412 487.345 590.659 488.04 590.69C500.76 592.62 513.46 594.69 526.16 596.69C530.61 597.4 535.03 598.23 540.03 599.09ZM665.26 625.63C649.4 590.5 646.26 554.21 652.76 516.7C629.5 504.7 606.18 493.02 582.49 481.7C582.26 482.7 582.07 483.39 581.94 484.09C576.94 511.15 576.37 538.24 581.35 565.36C584.012 579.828 588.258 593.96 594.01 607.5C594.188 608.06 594.518 608.56 594.963 608.945C595.407 609.33 595.95 609.584 596.53 609.68C618.91 614.307 641.15 619.51 663.25 625.29C663.73 625.43 664.27 625.47 665.22 625.63H665.26ZM899.26 464.05C884.4 441.71 869.63 419.53 854.79 397.24C822.811 412.779 794.361 434.714 771.2 461.69L830.73 516.93C849.735 494.842 873.034 476.851 899.21 464.05H899.26ZM932.13 776.16C979.358 753.251 1024.13 725.585 1065.74 693.59C1107.37 661.689 1145.47 625.441 1179.41 585.46C1178.67 585.24 1178.29 585.11 1177.9 585.02C1168.65 582.819 1159.28 581.15 1149.84 580.02C1148.22 579.81 1147.37 580.52 1146.44 581.62C1132.92 597.627 1118.59 612.933 1103.51 627.48C1052.84 676.367 994.885 717.08 931.71 748.16C931.08 748.48 930.47 748.83 929.76 749.22C929.893 758.246 930.686 767.25 932.13 776.16ZM986.13 442.99L960.46 371.85C923.84 372.24 889.35 380.79 856.21 396.54C871.11 418.92 885.85 441.05 900.68 463.34C927.76 450.52 956.03 443.39 986.12 443L986.13 442.99ZM1050.81 204.44C1035.69 196.212 1019.8 189.467 1003.38 184.3C987.067 179.121 970.339 175.357 953.38 173.05C935.16 170.55 906.38 168.92 902.02 170.24C906.48 187.69 911.02 205.11 915.91 222.24C921.91 222.47 927.59 222.55 933.25 222.95C940.25 223.44 947.25 224.05 954.25 224.85C969.249 226.631 984.056 229.768 998.49 234.22C1015.49 239.355 1031.87 246.375 1047.31 255.15C1048.01 255.55 1048.65 256.29 1049.58 256.03C1049.97 238.88 1050.38 221.79 1050.8 204.44H1050.81ZM725.03 553.39L792.55 592.25C795.524 578.642 800.229 565.472 806.55 553.06C812.885 540.684 820.579 529.052 829.49 518.38C826.89 515.21 772 464.45 769.86 463.27C747.85 489.84 732.16 519.5 725.03 553.39ZM1051.31 259.67C1051.31 266.91 1051.21 273.78 1051.31 280.67C1051.65 300.57 1052.31 320.46 1053.54 340.33C1053.55 341.035 1053.71 341.728 1054.01 342.366C1054.31 343.004 1054.75 343.571 1055.28 344.03C1063.57 351.68 1071.21 360.013 1078.11 368.94C1094.32 389.925 1106.97 413.427 1115.57 438.51C1115.89 439.43 1116.24 440.34 1116.57 441.25C1117.02 440.075 1117.3 438.843 1117.41 437.59C1119.25 423.81 1120.92 410.01 1123 396.26C1125.26 381.33 1128.34 366.54 1131.82 351.84C1132.13 350.77 1132.02 349.621 1131.51 348.63C1130.3 346.28 1129.27 343.85 1128.08 341.5C1110.77 307.4 1085.42 280.74 1053.08 260.59C1052.6 260.29 1052.1 260.07 1051.31 259.67V259.67ZM1173.51 226.79C1173.93 226.12 1174.15 225.79 1174.31 225.48C1179.64 214.313 1184.98 203.14 1190.31 191.96C1190.54 191.508 1190.66 191.004 1190.65 190.495C1190.63 189.986 1190.49 189.488 1190.23 189.05C1187.8 184.11 1185.54 179.05 1182.98 174.19C1156.53 123.72 1118.32 84.33 1069.86 54.64C1069.28 54.31 1068.67 54.0096 1068.06 53.74C1065.36 70.25 1062.96 86.58 1061.06 102.98C1085.37 117.547 1107.46 135.546 1126.63 156.42C1145.76 177.342 1161.57 201.074 1173.51 226.79V226.79ZM531.62 457.79C531.34 458.68 531.11 459.26 530.99 459.86C525.659 485.74 524.31 512.283 526.99 538.57C529.095 558.538 533.736 578.156 540.8 596.95C541.026 597.772 541.498 598.505 542.152 599.052C542.806 599.599 543.611 599.933 544.46 600.01C559.87 602.82 575.26 605.72 590.66 608.58C591.384 608.668 592.111 608.718 592.84 608.73C575.26 567.2 572.58 524.6 580.98 480.82L531.62 457.79ZM1056.62 398.16C1056.62 397.29 1056.62 396.76 1056.62 396.24C1055.74 386.45 1054.8 376.67 1053.97 366.87C1053.36 359.62 1052.86 352.37 1052.37 345.11C1052.35 344.52 1052.21 343.941 1051.96 343.41C1051.7 342.879 1051.33 342.409 1050.88 342.03C1036.87 329.577 1020.98 319.403 1003.81 311.88C985.8 304.062 966.537 299.527 946.93 298.49C944.16 298.34 941.38 298.49 938.36 298.49C945.87 322.65 953.69 346.49 961.91 370.35C996.16 370.61 1027.81 379.24 1056.65 398.14L1056.62 398.16ZM723.25 554.51C700.36 541.79 677.51 529.51 654.51 517.63C654.27 517.93 654.13 518.04 654.09 518.18C653.971 518.559 653.88 518.947 653.82 519.34C650.766 537.245 650.244 555.49 652.27 573.54C654.304 591.104 659.026 608.251 666.27 624.38C666.535 625.03 666.957 625.605 667.498 626.053C668.039 626.502 668.682 626.81 669.37 626.95C689.11 632.577 708.837 638.243 728.55 643.95L731.18 644.67C719.35 615.24 717.35 585.3 723.25 554.51ZM900.11 465.31C873.977 478.028 850.723 495.959 831.78 518L890.78 574C898.333 565.229 906.759 557.251 915.93 550.19C925.104 543.17 934.937 537.055 945.29 531.93L900.11 465.31ZM382.24 583C382.7 584.18 382.91 584.86 383.24 585.49C385.24 589.58 387.15 593.71 389.24 597.76C408.77 635.51 435.38 667.46 468.47 694.08C479.587 702.987 491.279 711.151 503.47 718.52C503.931 718.887 504.47 719.144 505.045 719.27C505.621 719.397 506.218 719.39 506.79 719.25C517.677 716.328 528.713 713.991 539.85 712.25C540.341 712.096 540.817 711.895 541.27 711.65C492.74 680.35 456.27 639.02 432.85 586.22L382.24 583ZM1157.15 266.91C1157.36 266.675 1157.55 266.42 1157.71 266.15C1162.56 254.15 1167.42 242.15 1172.29 230.15C1172.48 229.759 1172.57 229.33 1172.56 228.898C1172.55 228.465 1172.43 228.041 1172.23 227.66C1170.74 224.66 1169.36 221.59 1167.83 218.6C1143.58 171.21 1108.27 134.08 1063.15 106.07C1062.49 105.66 1061.79 105.31 1060.84 104.77C1060.66 106.06 1060.49 107.06 1060.37 108.07C1059.95 111.64 1059.5 115.21 1059.14 118.79C1058.08 129.37 1057.14 139.95 1055.98 150.52C1055.85 151.246 1055.96 151.995 1056.3 152.652C1056.64 153.309 1057.18 153.838 1057.84 154.16C1096.59 179.472 1128.47 213.977 1150.65 254.6C1152.85 258.59 1154.91 262.65 1157.15 266.89V266.91ZM901.5 464.65L946.69 531.25C957.262 526.214 968.319 522.267 979.69 519.47C991 516.732 1002.58 515.234 1014.21 515L986.83 444.5C956.96 444.73 928.77 451.77 901.5 464.65ZM830.79 519.18C812.58 541.18 799.79 565.49 793.92 593.23L860.35 633.55C865.3 611.65 875.46 592.55 889.79 575.16L830.79 519.18ZM962.49 371.9C970.68 395.83 979.21 419.37 988.12 442.9C997.029 442.954 1005.92 443.656 1014.73 445C1023.56 446.386 1032.26 448.517 1040.73 451.37C1049.16 454.288 1057.32 457.939 1065.12 462.28C1065.04 461.42 1065.03 461.02 1064.97 460.64C1061.94 441.307 1059.39 421.897 1057.32 402.41C1057.29 401.741 1057.09 401.091 1056.74 400.52C1056.39 399.949 1055.9 399.474 1055.32 399.14C1047.02 393.701 1038.25 389.015 1029.11 385.14C1009.05 376.786 987.602 372.291 965.88 371.89C964.92 371.88 963.9 371.9 962.49 371.9ZM434.77 586.56C435.19 587.62 435.46 588.35 435.77 589.06C440.092 598.678 444.988 608.028 450.43 617.06C473.03 654.56 503.05 684.86 539.61 708.83C540.909 709.772 542.383 710.447 543.945 710.814C545.507 711.182 547.127 711.235 548.71 710.97C559.15 709.44 569.65 708.38 580.13 707.13C580.72 707.021 581.304 706.88 581.88 706.71C579.88 705.39 578.23 704.29 576.58 703.17C540.58 678.86 512.36 647.66 492.66 608.89C490.06 603.77 487.76 598.48 485.41 593.23C485.241 592.706 484.911 592.249 484.468 591.922C484.025 591.596 483.49 591.417 482.94 591.41C480.47 591.19 478.03 590.76 475.56 590.51C463.32 589.243 451.07 587.997 438.81 586.77C437.58 586.68 436.33 586.65 434.77 586.56ZM458.77 733.15C459.95 733.88 460.77 734.38 461.54 734.85C480.743 745.9 500.84 755.316 521.62 763C548.925 773.07 577.164 780.4 605.92 784.88C618.17 786.82 630.45 788.46 642.82 789.24C654.63 789.98 666.45 790.4 678.27 790.98C679.543 791.031 680.793 790.631 681.8 789.85C689.02 784.85 696.29 779.91 703.55 774.94C703.96 774.66 704.33 774.32 705.03 773.76C703.24 773.67 701.89 773.56 700.55 773.55C688.95 773.46 677.37 772.83 665.83 771.76C649.115 770.23 632.506 767.709 616.09 764.21C577.43 755.94 540.83 742.3 506.67 722.31C506.107 721.949 505.473 721.711 504.811 721.613C504.149 721.515 503.474 721.558 502.83 721.74C492.83 724.28 482.83 726.74 472.83 729.25C468.3 730.38 463.8 731.74 458.79 733.15H458.77ZM792.14 594.15C769.75 580.82 747.45 567.93 724.98 555.49C724.71 555.8 724.63 555.85 724.61 555.91C724.493 556.291 724.397 556.679 724.32 557.07C721.497 572.085 720.823 587.425 722.32 602.63C723.729 616.635 727.119 630.369 732.39 643.42C732.565 644.022 732.889 644.571 733.331 645.017C733.773 645.462 734.319 645.79 734.92 645.97C754.967 652.237 774.847 659.003 794.56 666.27C795.11 666.46 795.69 666.55 796.62 666.78C792.768 655.138 790.51 643.028 789.91 630.78C789.393 618.528 790.147 606.256 792.16 594.16L792.14 594.15ZM1052.49 205.5C1052.4 206.86 1052.3 207.8 1052.27 208.75C1052.02 217.29 1051.73 225.84 1051.53 234.39C1051.37 241.39 1051.35 248.45 1051.19 255.49C1051.09 256.113 1051.2 256.752 1051.5 257.305C1051.81 257.858 1052.29 258.293 1052.87 258.54C1053.93 259.103 1054.95 259.731 1055.93 260.42C1089.03 281.5 1114.59 309.33 1131.58 344.82C1131.89 345.45 1132.24 346.06 1132.76 347.03C1133.06 346.11 1133.29 345.55 1133.43 344.96C1137.12 329.993 1141.28 315.153 1145.92 300.44C1146.13 299.926 1146.21 299.369 1146.15 298.817C1146.09 298.266 1145.89 297.738 1145.58 297.28C1145.22 296.76 1144.95 296.17 1144.64 295.61C1122.98 257.45 1092.57 228.13 1054.54 206.49C1054.03 206.19 1053.42 206 1052.49 205.5ZM486.63 592C486.89 592.77 486.96 593.07 487.09 593.35C489.09 597.78 491.02 602.28 493.2 606.63C513.6 647.43 543.37 679.82 581.49 704.71C583.653 706.188 586.28 706.828 588.88 706.51C596.88 705.75 604.97 705.24 613.02 704.64C616.02 704.41 619.02 704.21 622.02 704C621.515 703.176 620.832 702.475 620.02 701.95C609.641 694.443 599.895 686.099 590.88 677C569.639 655.722 552.843 630.431 541.47 602.6C541.289 602.006 540.933 601.48 540.451 601.09C539.968 600.7 539.379 600.463 538.76 600.41C524.88 598.14 511.02 595.75 497.15 593.41C493.78 592.9 490.38 592.5 486.63 592ZM595.63 611.12C596.23 612.46 596.63 613.34 597 614.19C607.19 635.709 621.208 655.196 638.37 671.7C649.593 682.546 662.005 692.09 675.37 700.15C676.374 700.777 677.519 701.141 678.7 701.21C694.96 701.42 711.12 702.84 727.27 704.56C730.27 704.88 733.27 705.18 736.27 705.49C735.792 704.847 735.198 704.297 734.52 703.87C730.14 700.79 725.65 697.87 721.39 694.6C698.73 677.32 680.52 656.26 667.75 630.69C667.348 629.72 666.712 628.864 665.899 628.199C665.086 627.534 664.121 627.081 663.09 626.88C645.36 622.71 627.66 618.4 609.94 614.18C605.36 613.07 600.75 612.19 595.63 611.1V611.12ZM991.52 598.72L946.17 533.23C925.42 543.341 906.953 557.582 891.9 575.08L949.53 631.13C961.225 617.629 975.502 606.603 991.52 598.7V598.72ZM542.63 601.17C543.04 602.31 543.22 603 543.51 603.63C545.85 608.71 548.04 613.86 550.58 618.84C567.92 652.84 592.49 680.53 623.52 702.62C624.6 703.437 625.94 703.831 627.29 703.73C640.94 702.99 654.59 702.31 668.29 701.6C670.01 701.51 671.72 701.37 673.93 701.21C673.1 700.61 672.69 700.28 672.25 699.99C670.25 698.68 668.25 697.41 666.25 696.07C634.75 674.74 610.57 647.15 594.67 612.49C594.396 611.842 593.947 611.284 593.372 610.877C592.798 610.471 592.122 610.233 591.42 610.19C578.78 607.85 566.14 605.46 553.5 603.1C550.03 602.46 546.54 601.87 542.63 601.17ZM1052.54 203.6C1092.69 225.92 1124.46 256.39 1147.01 296.6C1147.43 295.46 1147.7 294.72 1148.01 293.97C1150.59 286.5 1153.12 278.97 1155.79 271.57C1156.09 270.846 1156.22 270.064 1156.18 269.282C1156.14 268.499 1155.92 267.737 1155.54 267.05C1149.77 255.372 1143.23 244.09 1135.96 233.28C1115.4 202.659 1088.96 176.423 1058.19 156.09C1057.48 155.62 1056.74 155.21 1055.73 154.61C1054.27 171.17 1053.25 187.31 1052.54 203.6ZM1044.45 585.53C1034.45 562.46 1024.64 539.62 1014.67 516.53C991.34 516.81 969.1 522.38 947.56 532.53L992.91 598C1009.02 590.265 1026.58 586.016 1044.45 585.53V585.53ZM988.69 444.72C989.43 446.72 990.05 448.4 990.69 450.09C998.863 471.083 1007.02 492.083 1015.17 513.09C1015.33 513.73 1015.72 514.292 1016.25 514.672C1016.79 515.052 1017.45 515.225 1018.11 515.16C1023.22 515.34 1028.34 515.57 1033.41 516.16C1048.06 517.737 1062.28 522.095 1075.3 529C1075.99 529.37 1076.69 529.7 1077.62 530.16C1077.53 529.33 1077.52 528.78 1077.41 528.25C1073.08 507.78 1069.22 487.25 1065.99 466.55C1065.9 465.813 1065.63 465.109 1065.2 464.507C1064.76 463.905 1064.18 463.424 1063.51 463.11C1056.18 459.03 1048.5 455.6 1040.57 452.86C1026.93 448.243 1012.73 445.508 998.35 444.73C995.25 444.56 992.14 444.72 988.69 444.72ZM948.54 632.28L890.91 576.22C876.57 593.59 866.49 612.63 861.77 634.22L926.03 676.75C929.84 660.17 937.62 645.55 948.54 632.28ZM793.63 595C793.38 596.54 793.13 597.7 793.01 598.86C792.44 604.86 791.7 610.78 791.4 616.76C790.507 633.16 792.628 649.585 797.66 665.22C797.874 666.051 798.298 666.814 798.891 667.434C799.485 668.054 800.229 668.511 801.05 668.76C821.95 676.52 842.643 684.8 863.13 693.6C863.705 693.788 864.289 693.945 864.88 694.07C857.15 674.81 856.07 655.28 859.98 635.32C838.03 621.55 816.03 608.32 793.63 595ZM1046.48 585.56C1063.17 585.49 1078.91 588.99 1093.71 596.99C1093.74 596.657 1093.74 596.323 1093.71 595.99C1088.14 575.39 1083.11 554.663 1078.63 533.81C1078.53 533.303 1078.31 532.828 1077.98 532.43C1077.65 532.031 1077.23 531.722 1076.75 531.53C1071.99 529.27 1067.32 526.77 1062.44 524.81C1050.12 520.014 1037.1 517.271 1023.89 516.69C1021.61 516.56 1019.31 516.69 1016.71 516.69C1026.13 540 1036.03 562.85 1046.48 585.55V585.56ZM1147.48 300.89C1147.11 301.81 1146.89 302.24 1146.75 302.69C1142.08 317.643 1137.91 332.73 1134.23 347.95C1133.93 349.179 1134.06 350.476 1134.6 351.62C1145.31 376.663 1150.86 403.612 1150.9 430.85C1150.9 435.31 1150.9 439.85 1150.58 444.25C1150.11 451.01 1149.38 457.75 1148.74 464.49C1148.63 465.6 1148.42 466.7 1148.27 467.81C1148.12 468.92 1148.01 470.01 1147.87 471.11C1148.31 470.842 1148.66 470.444 1148.87 469.97C1155.58 455.719 1163.49 442.06 1172.5 429.14C1173.17 428.154 1173.55 426.994 1173.58 425.8C1174.57 409.514 1173.97 393.17 1171.79 377C1168.55 352.88 1161.5 329.429 1150.88 307.53C1149.88 305.45 1148.8 303.41 1147.51 300.88L1147.48 300.89ZM787.42 712.47L787.6 712.05C786.92 711.55 786.27 711.05 785.6 710.56C777.034 704.802 769.077 698.188 761.85 690.82C749.764 678.538 739.979 664.187 732.96 648.45C732.76 647.896 732.429 647.399 731.995 647C731.562 646.601 731.039 646.313 730.47 646.16C710.51 640.42 690.557 634.66 670.61 628.88C669.98 628.7 669.32 628.62 668.53 628.47C668.596 628.81 668.689 629.145 668.81 629.47C670.14 632.02 671.43 634.6 672.81 637.1C689.03 665.72 711.69 688 739.55 705.2C740.433 705.725 741.412 706.065 742.43 706.2C755.957 708.12 769.49 710.013 783.03 711.88L787.42 712.47ZM1133.28 352.86C1133 353.68 1132.89 353.86 1132.84 354.13C1125.93 384.02 1121.06 414.342 1118.24 444.89C1118.18 445.842 1118.3 446.797 1118.61 447.7C1125.08 468.887 1128.78 490.823 1129.61 512.96C1130.11 526.379 1129.44 539.817 1127.61 553.12C1127.51 553.88 1127.49 554.64 1127.43 555.4C1127.99 554.822 1128.38 554.103 1128.56 553.32C1130.93 543.95 1133.56 534.64 1135.56 525.2C1138.56 511.15 1141.04 496.99 1143.88 482.9C1146.44 470.802 1148.11 458.533 1148.88 446.19C1149.71 431.917 1149.16 417.597 1147.23 403.43C1144.93 387.046 1140.64 371.005 1134.45 355.66C1134.24 354.88 1133.86 354.12 1133.28 352.86ZM992.56 600.16C981.2 604.08 954.56 624.79 951.18 631.88L999.58 680.66C1003.87 678.5 1029.42 660.06 1032.58 656.81L992.56 600.16ZM628.03 705.2C628.29 705.65 628.34 705.83 628.45 705.91C628.96 706.29 629.45 706.65 630.02 707C641.09 714.325 652.719 720.769 664.8 726.27C695.16 740.154 727.741 748.547 761.03 751.06C762.458 751.149 763.891 751.021 765.28 750.68C785.561 746.047 806.136 742.812 826.86 741L837.8 740C835.697 739.547 833.559 739.276 831.41 739.19C824.63 738.79 817.83 738.53 811.06 738C800.7 737.2 790.33 736.37 780 735.27C771.18 734.33 762.32 733.41 753.63 731.73C727.187 726.71 701.787 717.242 678.51 703.73C677.287 702.989 675.867 702.64 674.44 702.73C663.9 703.29 653.36 703.73 642.82 704.32C637.96 704.59 633.11 704.9 628.03 705.2ZM683.18 790.88C684.18 790.88 684.54 790.98 684.92 790.97C700.92 790.86 716.92 790.15 732.82 788.7C750.673 787.08 768.393 784.6 785.98 781.26C820.687 774.634 854.726 764.888 887.68 752.14C900.96 747.02 914.02 741.42 926.93 735.44C927.624 735.181 928.227 734.725 928.666 734.128C929.104 733.531 929.359 732.82 929.4 732.08C929.81 729.24 930.57 726.45 931.18 723.64C931.32 722.98 931.47 722.31 931.68 721.37C930.59 721.85 929.8 722.19 929.01 722.56C915.51 728.993 901.763 734.833 887.77 740.08C864.282 748.909 840.203 756.076 815.71 761.53C795.737 765.976 775.518 769.235 755.16 771.29C740.28 772.76 725.35 773.42 710.4 773.68C709.295 773.694 708.215 774.012 707.28 774.6C699.8 779.5 692.37 784.5 684.94 789.48C684.43 789.78 684.03 790.16 683.13 790.88H683.18ZM928.03 721.09C925.756 714.361 924.41 707.353 924.03 700.26C923.658 693.139 924.161 685.999 925.53 679C919.62 673.79 864.53 637.55 861.09 636.68C860.58 641.15 859.94 645.57 859.58 650.01C858.377 664.73 860.634 679.528 866.17 693.22C866.401 693.888 866.769 694.5 867.252 695.017C867.734 695.534 868.319 695.944 868.97 696.22C887.363 704.633 905.717 713.107 924.03 721.64C924.661 722.013 925.4 722.161 926.126 722.062C926.852 721.962 927.523 721.619 928.03 721.09V721.09ZM507.64 720.45L507.69 720.96C508.36 721.38 509 721.84 509.69 722.21C517.1 726.13 524.42 730.21 531.96 733.92C558.834 746.88 587.186 756.521 616.39 762.63C630.762 765.768 645.308 768.052 659.95 769.47C668.14 770.24 676.35 770.9 684.57 771.36C691.91 771.77 699.27 771.88 706.62 772.03C707.72 772.022 708.803 771.755 709.78 771.25C713.48 769.37 717.12 767.37 720.78 765.4C721.3 765.12 721.78 764.8 722.7 764.23C719.84 764.23 717.53 764.31 715.23 764.23C704.23 763.8 693.38 762.76 682.51 761.37C663.798 758.992 645.294 755.191 627.16 750C598.362 741.846 570.816 729.787 545.29 714.16C544.803 713.82 544.254 713.581 543.673 713.456C543.093 713.33 542.494 713.322 541.91 713.43C535.08 714.72 528.22 715.89 521.41 717.26C516.8 718.17 512.24 719.37 507.65 720.45H507.64ZM1186.43 409.92L1186.89 410.01C1188.71 407.89 1190.56 405.8 1192.31 403.62C1192.79 402.988 1193.1 402.25 1193.23 401.47C1196.2 384.383 1197.78 367.083 1197.94 349.74C1198.14 330.394 1196.42 311.077 1192.81 292.07C1188.96 271.727 1182.84 251.879 1174.56 232.9C1174.26 232.306 1173.92 231.728 1173.56 231.17C1173.09 232.17 1172.72 232.9 1172.42 233.63C1168.04 244.52 1163.7 255.43 1159.24 266.28C1158.83 267.206 1158.64 268.215 1158.68 269.228C1158.72 270.241 1158.99 271.231 1159.48 272.12C1173.79 302.986 1182.59 336.119 1185.48 370.02C1186.58 382.682 1186.88 395.4 1186.4 408.1C1186.41 408.71 1186.43 409.31 1186.43 409.92ZM546.21 712.85C547.44 713.65 548.21 714.18 549.02 714.66C585.41 736.4 624.72 750.13 666.38 757.41C678.84 759.58 691.38 761.07 703.97 762.09C711.145 762.728 718.352 762.912 725.55 762.64C726.574 762.571 727.583 762.362 728.55 762.02C735.28 759.73 741.99 757.39 748.71 755.07C749.18 754.9 749.63 754.66 750.56 754.25C749.7 754.16 749.4 754.12 749.09 754.1C740.39 753.64 731.67 753.35 722.99 752.68C704.427 751.196 686.026 748.118 667.99 743.48C639.631 736.436 612.489 725.178 587.47 710.08C585.544 708.812 583.225 708.283 580.94 708.59C571.34 709.75 561.72 710.81 552.11 711.93C550.3 712.14 548.52 712.49 546.21 712.85ZM1045.46 587.24C1033.14 586.03 1002.72 593.24 994.01 599.56L1033.92 656C1044.98 647.36 1055.44 638.5 1065.53 629.27C1058.76 615.13 1052.1 601.15 1045.46 587.24V587.24ZM1132.03 579.5C1131.6 579.415 1131.17 579.358 1130.74 579.33C1125.62 579.424 1120.52 579.986 1115.51 581.01C1114.27 581.278 1113.17 581.989 1112.41 583.01C1102.26 594.963 1091.6 606.42 1080.41 617.38C1048.77 648.342 1013.52 675.377 975.41 697.9C962.49 705.56 949.31 712.66 935.87 719.2C935.166 719.466 934.54 719.904 934.047 720.473C933.555 721.042 933.212 721.725 933.05 722.46C932.37 725.58 931.57 728.67 930.85 731.79C930.798 732.369 930.798 732.951 930.85 733.53C959.315 719.951 986.699 704.211 1012.76 686.45C1051.83 659.917 1087.62 628.854 1119.39 593.91C1123.59 589.27 1127.75 584.56 1132.03 579.5ZM838.71 721.37L838.86 721.08C838.22 720.64 837.57 720.22 836.96 719.76C833.26 716.97 829.4 714.37 825.96 711.33C813.28 700.33 804.28 686.69 798.26 671.07C798.069 670.433 797.729 669.85 797.268 669.37C796.808 668.89 796.239 668.527 795.61 668.31C776.023 661.183 756.303 654.44 736.45 648.08C735.87 647.9 735.27 647.77 734.22 647.49C734.8 648.8 735.22 649.72 735.61 650.62C748.11 676.69 766.86 697.14 791.34 712.41C792.428 713.064 793.629 713.508 794.88 713.72C803.93 715.31 812.99 716.79 822.04 718.36C827.58 719.32 833.14 720.36 838.71 721.37ZM1113.44 512.88C1113.53 512.454 1113.59 512.023 1113.63 511.59C1113.96 498.65 1114.31 485.71 1114.63 472.77C1114.66 471.584 1114.44 470.406 1113.98 469.31C1102.71 442.9 1084.48 420.049 1061.23 403.2C1060.61 402.74 1059.94 402.36 1059.02 401.77C1058.98 402.48 1058.98 403.19 1059.02 403.9C1059.51 408.26 1059.95 412.64 1060.54 416.99C1062.54 431.56 1064.6 446.11 1066.54 460.69C1066.61 461.545 1066.89 462.37 1067.35 463.09C1067.81 463.811 1068.45 464.406 1069.2 464.82C1087.43 475.984 1102.29 491.882 1112.2 510.82C1112.5 511.39 1112.85 511.9 1113.44 512.88V512.88ZM1118.09 573.78C1119.53 572 1120.8 570.27 1122.24 568.7C1122.88 567.997 1123.38 567.171 1123.69 566.272C1124.01 565.374 1124.14 564.421 1124.08 563.47C1123.95 554.998 1122.84 546.569 1120.78 538.35C1113.28 507.61 1095.91 483.94 1069.47 466.77C1068.92 466.41 1068.31 466.13 1067.47 465.67C1067.58 466.76 1067.62 467.47 1067.73 468.17C1071.06 488.51 1074.84 508.76 1079.07 528.92C1079.19 529.729 1079.5 530.5 1079.96 531.177C1080.42 531.853 1081.02 532.418 1081.73 532.83C1093.76 540.239 1103.94 550.286 1111.51 562.21C1113.8 565.84 1115.77 569.68 1118.09 573.78ZM962.54 703.33C967.74 701.18 995.54 684.05 997.93 681.5L949.63 633.39C938.63 646.74 930.95 661.3 927.29 677.97L962.54 703.33ZM929.64 747.52C1013.3 706.02 1085.49 650.82 1146.02 579.85C1145.09 579.69 1144.64 579.56 1144.19 579.54C1141.64 579.43 1139.08 579.4 1136.53 579.21C1135.78 579.145 1135.03 579.279 1134.35 579.599C1133.68 579.919 1133.1 580.413 1132.67 581.03C1120.44 595.509 1107.48 609.351 1093.83 622.5C1047.4 667.26 994.209 704.423 936.21 732.62L930.21 735.55C930.03 739.35 929.86 743.14 929.64 747.52ZM1114.59 466.61L1114.92 466.46C1115.43 460.18 1115.98 453.89 1116.42 447.6C1116.46 446.489 1116.3 445.38 1115.93 444.33C1108.91 422.309 1098.81 401.391 1085.93 382.2C1077.38 369.444 1067.46 357.658 1056.36 347.05C1055.73 346.45 1055.23 345.55 1054.13 345.51C1054.13 346.42 1054.07 347.22 1054.13 348.01C1055.55 364.677 1056.97 381.31 1058.38 397.91C1058.43 398.458 1058.61 398.985 1058.91 399.444C1059.21 399.903 1059.63 400.28 1060.11 400.54C1083.39 416.88 1101.9 439.13 1113.72 465C1113.97 465.56 1114.3 466.08 1114.59 466.61V466.61ZM894.9 733C894.15 732.3 893.84 732 893.48 731.67C881.987 722.647 872.776 711.048 866.59 697.81C866.388 697.339 866.092 696.913 865.721 696.559C865.35 696.205 864.91 695.93 864.43 695.75C861.1 694.38 857.83 692.89 854.49 691.55C837.057 684.59 819.62 677.647 802.18 670.72C801.42 670.42 800.61 670.23 799.28 669.83C800.54 672.75 801.49 675.11 802.57 677.41C811.36 696.09 824.41 710.91 842.4 721.22C843.785 721.995 845.284 722.548 846.84 722.86C859.58 725.56 872.34 728.18 885.08 730.86C888.18 731.53 891.27 732.24 894.9 733ZM1175.21 424.8C1175.52 424.561 1175.81 424.3 1176.08 424.02C1178.71 420.6 1181.36 417.19 1183.9 413.7C1184.41 412.911 1184.69 411.998 1184.72 411.06C1187.13 364.342 1178.38 317.722 1159.19 275.06C1158.71 273.98 1158.19 272.91 1157.56 271.57C1157.28 272.05 1157.03 272.544 1156.8 273.05C1154.03 281.13 1151.29 289.23 1148.48 297.3C1148.31 297.744 1148.25 298.219 1148.3 298.69C1148.34 299.161 1148.49 299.616 1148.74 300.02C1149.91 302.2 1151.04 304.403 1152.12 306.63C1169.81 343.15 1177.12 381.75 1175.21 422.19C1175.18 422.94 1175.21 423.71 1175.21 424.8ZM756.97 752.34C752.13 751.76 747.29 751.34 742.47 750.6C721.334 747.573 700.6 742.207 680.65 734.6C661.647 727.411 643.545 718.035 626.71 706.66C625.806 705.874 624.648 705.444 623.45 705.45C612.13 706.31 600.81 707.1 589.45 707.92C588.885 707.99 588.324 708.09 587.77 708.22C639.89 739.83 696.8 752.49 756.97 752.34ZM1128.61 559.19C1129.3 558.25 1129.77 557.65 1130.19 557.02C1139 543.971 1146.62 530.155 1152.95 515.74C1158.7 502.646 1163.08 488.994 1166.03 475C1168.53 463 1171.03 450.94 1172.42 438.7C1172.67 436.4 1172.86 434.09 1173.08 431.79C1172.85 431.841 1172.63 431.939 1172.43 432.076C1172.23 432.213 1172.07 432.388 1171.94 432.59C1162.14 446.991 1153.72 462.285 1146.79 478.27C1146.33 479.374 1146 480.524 1145.79 481.7C1143.79 491.81 1141.99 501.95 1139.96 512.04C1136.85 527.54 1133.69 543.04 1128.72 558.04C1128.65 558.419 1128.61 558.804 1128.61 559.19ZM680.8 702.63L680.62 703.16C681.28 703.56 681.91 703.99 682.62 704.36C711.554 720.477 743.532 730.381 776.51 733.44C786.22 734.34 795.93 735.27 805.64 736.14C809.01 736.44 812.38 736.6 815.76 736.83C815.015 736.322 814.169 735.981 813.28 735.83C788.334 730.723 764.398 721.547 742.43 708.67C741.143 707.871 739.695 707.365 738.19 707.19C734.86 706.84 731.53 706.39 728.19 706.09C718 705.17 707.81 704.22 697.61 703.43C692.03 703 686.39 702.9 680.8 702.63ZM1080.31 534C1080.45 534.88 1080.53 535.65 1080.7 536.41C1081.7 541.08 1082.7 545.77 1083.88 550.41C1087.68 565.743 1091.52 581.077 1095.4 596.41C1095.58 597.12 1095.91 597.79 1096.4 598.99L1116.79 575.65C1112.36 561.82 1092.76 539.45 1080.31 534ZM1094.96 600.24C1089.78 593.75 1058.96 585.46 1047.31 587.35C1053.59 601.01 1060.04 614.5 1066.78 628.16C1076.66 619.1 1085.96 609.91 1094.96 600.24ZM744.96 708.05C745.147 708.31 745.357 708.551 745.59 708.77C746.13 709.11 746.68 709.43 747.24 709.77C764.894 719.633 783.779 727.109 803.4 732C815.03 734.92 826.76 737.32 838.79 738C841.705 738.026 844.613 738.304 847.48 738.83C851.92 739.83 856.54 738.83 861.08 738.49C859.999 738.198 858.9 737.978 857.79 737.83C835.17 734.675 813.381 727.145 793.64 715.66C792.749 715.154 791.773 714.815 790.76 714.66C781.52 713.22 772.28 711.8 763.03 710.46C757.11 709.61 751.17 708.88 744.93 708.05H744.96ZM926.96 679.61C924.33 693.75 924.84 707.17 929.48 720.36C934.02 718.9 958.48 706.2 960.89 704.02L926.96 679.61ZM868.25 697.48C868.55 698.31 868.61 698.55 868.71 698.75C875.443 712.432 885.449 724.242 897.84 733.13C898.238 733.445 898.722 733.633 899.228 733.67C899.734 733.708 900.24 733.593 900.68 733.34C907.86 730.227 915.037 727.117 922.21 724.01C922.721 723.713 923.209 723.379 923.67 723.01C905.38 714.11 887.17 705.67 868.25 697.48V697.48ZM839.78 753.59C839.16 753.67 838.54 753.73 837.92 753.83C832.4 754.71 826.92 755.73 821.36 756.45C811.45 757.72 801.54 758.99 791.61 759.94C779.91 761.05 768.2 761.94 756.48 762.69C747.23 763.3 737.96 763.6 728.7 764.08C727.826 764.118 726.968 764.321 726.17 764.68C722.17 766.54 718.25 768.47 714.31 770.4C713.712 770.728 713.134 771.092 712.58 771.49L712.74 771.98C755.716 771.52 798.438 765.335 839.78 753.59ZM868.18 745.45L868.1 744.93C867.47 745 866.85 745.06 866.23 745.15C859.11 746.15 852.02 747.44 844.88 748.22C831.13 749.71 817.36 750.99 803.59 752.22C790.764 753.351 777.873 753.539 765.02 752.78C763.985 752.728 762.948 752.822 761.94 753.06C752.696 755.283 743.584 758.027 734.65 761.28C734.24 761.43 733.85 761.64 733.45 761.82C734.187 762.15 734.996 762.284 735.8 762.21C745.86 761.68 755.93 761.21 765.98 760.58C781.77 759.51 797.53 758.04 813.23 756.01C828.064 754.201 842.789 751.59 857.34 748.19C860.97 747.36 864.57 746.38 868.18 745.45V745.45ZM893.1 735.88C890.31 735.73 887.52 735.6 884.74 735.41C871.31 734.536 858.185 731.015 846.12 725.05C844.777 724.354 843.343 723.849 841.86 723.55C828.19 721.06 814.51 718.65 800.86 716.23C799.86 716.05 798.86 715.97 797.86 715.84C798.472 716.524 799.213 717.082 800.04 717.48C826.499 731.533 856.084 738.664 886.04 738.21C888.566 738.114 891.013 737.307 893.1 735.88V735.88ZM1125.66 555.69C1125.96 552.94 1126.32 550.2 1126.55 547.44C1127.56 535.409 1127.25 523.302 1125.61 511.34C1124.03 499.612 1121.15 488.095 1117.03 477C1116.77 476.485 1116.48 475.99 1116.15 475.52C1116.07 475.88 1116.02 476.244 1115.98 476.61C1115.69 489.223 1115.4 501.837 1115.11 514.45C1115.12 516.126 1115.47 517.781 1116.16 519.31C1117.41 522.42 1118.64 525.54 1119.66 528.74C1122.45 537.529 1124.46 546.548 1125.66 555.69V555.69ZM879.03 740.75C870.03 740.75 860.88 740.48 851.79 740.82C842.7 741.16 833.43 741.91 824.28 742.82C815.13 743.73 806.17 744.9 797.15 746.19C788.126 747.39 779.181 749.12 770.36 751.37C794.38 753.47 868.79 745 879.03 740.75ZM1161.13 499.36L1161.43 499.48C1161.76 498.89 1162.11 498.32 1162.43 497.71C1168.52 484.948 1173.89 471.854 1178.51 458.49C1178.86 457.51 1179.13 456.508 1179.34 455.49C1181.8 443.029 1183.47 430.423 1184.34 417.75C1184.34 417.256 1184.32 416.762 1184.27 416.27C1181.12 419.939 1178.16 423.764 1175.39 427.73C1174.98 428.5 1174.75 429.356 1174.73 430.23C1173.87 437.37 1173.33 444.55 1172.15 451.63C1169.55 467.23 1166.48 482.74 1161.56 497.81C1161.38 498.33 1161.27 498.85 1161.13 499.36ZM1118.13 451.52H1117.64C1117.64 451.79 1117.53 452.06 1117.51 452.33C1117.14 457.67 1116.81 463.01 1116.39 468.33C1116.27 469.997 1116.54 471.669 1117.19 473.21C1122.08 485.535 1125.42 498.421 1127.13 511.57C1127.37 513.42 1127.64 515.26 1127.89 517.11C1127.74 494.897 1124.46 472.816 1118.14 451.52H1118.13ZM1183.18 442.52C1187.1 430.82 1190.07 418.825 1192.06 406.65C1190.4 408.29 1188.98 410.09 1187.45 411.79C1186.56 412.801 1186.04 414.092 1186 415.44C1185.52 421.44 1184.92 427.52 1184.3 433.55C1184.03 436.52 1183.56 439.5 1183.19 442.49L1183.18 442.52ZM852.38 725.9C864.514 731.334 877.675 734.097 890.97 734C878.21 730.807 865.347 728.107 852.38 725.9Z" />
</svg>
