<svg id="Component_15_7" data-name="Component 15 – 7" xmlns="http://www.w3.org/2000/svg" xmlns:xlink="http://www.w3.org/1999/xlink" width="29.147" height="35.297" viewBox="0 0 29.147 35.297">
  <defs>
    <linearGradient id="linear-gradient" x1="0.5" x2="1" y2="0.59" gradientUnits="objectBoundingBox">
      <stop offset="0" stop-color="#374b92"/>
      <stop offset="1" stop-color="#e72850"/>
    </linearGradient>
    <clipPath id="clip-path">
      <rect id="Rectangle_1497" data-name="Rectangle 1497" width="29.147" height="35.297" fill="url(#linear-gradient)"/>
    </clipPath>
  </defs>
  <g id="Group_2819" data-name="Group 2819" clip-path="url(#clip-path)">
    <path id="Path_1873" data-name="Path 1873" d="M318.532,92.137l-.555,17.346-.555-17.346a.58.58,0,0,1,.536-.615.573.573,0,0,1,.574.575c0,.013,0,.028,0,.041" transform="translate(-289.385 -82.859)" fill="url(#linear-gradient)"/>
    <path id="Path_1874" data-name="Path 1874" d="M305.306,84.516l-.555,18.791L304.2,84.516a.579.579,0,0,1,.538-.614.573.573,0,0,1,.573.576c0,.012,0,.026,0,.038" transform="translate(-277.328 -75.96)" fill="url(#linear-gradient)"/>
    <path id="Path_1875" data-name="Path 1875" d="M292.081,76.893l-.555,20.237-.555-20.237a.557.557,0,1,1,1.11-.035c0,.011,0,.024,0,.035" transform="translate(-265.27 -69.06)" fill="url(#linear-gradient)"/>
    <path id="Path_1876" data-name="Path 1876" d="M278.855,69.269,278.3,90.952l-.555-21.682a.557.557,0,1,1,1.11-.033c0,.01,0,.023,0,.033" transform="translate(-253.213 -62.159)" fill="url(#linear-gradient)"/>
    <path id="Path_1877" data-name="Path 1877" d="M265.629,61.642l-.555,23.128-.555-23.128a.557.557,0,1,1,1.11-.031c0,.01,0,.021,0,.031" transform="translate(-241.155 -55.255)" fill="url(#linear-gradient)"/>
    <path id="Path_1878" data-name="Path 1878" d="M252.4,54.016l-.555,24.573-.555-24.573a.557.557,0,1,1,1.11-.029c0,.009,0,.02,0,.029" transform="translate(-229.098 -48.351)" fill="url(#linear-gradient)"/>
    <path id="Path_1879" data-name="Path 1879" d="M239.178,46.387l-.555,26.019-.555-26.019a.557.557,0,1,1,1.11-.027c0,.009,0,.019,0,.027" transform="translate(-217.04 -41.445)" fill="url(#linear-gradient)"/>
    <path id="Path_1880" data-name="Path 1880" d="M225.952,38.759,225.4,66.224l-.555-27.464a.557.557,0,1,1,1.11-.026c0,.008,0,.018,0,.026" transform="translate(-204.982 -34.54)" fill="url(#linear-gradient)"/>
    <path id="Path_1881" data-name="Path 1881" d="M212.727,31.13l-.555,28.91-.555-28.91a.557.557,0,1,1,1.11-.025c0,.007,0,.017,0,.025" transform="translate(-192.926 -27.634)" fill="url(#linear-gradient)"/>
    <path id="Path_1882" data-name="Path 1882" d="M199.5,23.5l-.555,30.355L198.391,23.5a.557.557,0,1,1,1.11-.023c0,.007,0,.016,0,.023" transform="translate(-180.868 -20.726)" fill="url(#linear-gradient)"/>
    <path id="Path_1883" data-name="Path 1883" d="M186.275,15.869l-.555,31.8-.555-31.8a.557.557,0,1,1,1.11-.022c0,.007,0,.016,0,.022" transform="translate(-168.81 -13.818)" fill="url(#linear-gradient)"/>
    <path id="Path_1884" data-name="Path 1884" d="M173.049,8.238l-.555,33.246-.555-33.246a.557.557,0,1,1,1.11-.021c0,.006,0,.015,0,.021" transform="translate(-156.752 -6.91)" fill="url(#linear-gradient)"/>
    <path id="Path_1885" data-name="Path 1885" d="M159.824.605,159.268,35.3,158.713.605a.557.557,0,1,1,1.11-.02c0,.006,0,.014,0,.02" transform="translate(-144.695 0)" fill="url(#linear-gradient)"/>
    <path id="Path_1886" data-name="Path 1886" d="M146.6,8.238l-.555,33.246-.555-33.246a.557.557,0,1,1,1.11-.021c0,.006,0,.015,0,.021" transform="translate(-132.637 -6.91)" fill="url(#linear-gradient)"/>
    <path id="Path_1887" data-name="Path 1887" d="M133.371,15.869l-.555,31.8-.555-31.8a.557.557,0,1,1,1.11-.022c0,.007,0,.016,0,.022" transform="translate(-120.579 -13.818)" fill="url(#linear-gradient)"/>
    <path id="Path_1888" data-name="Path 1888" d="M120.145,23.5l-.555,30.355L119.035,23.5a.557.557,0,1,1,1.11-.023c0,.007,0,.016,0,.023" transform="translate(-108.521 -20.726)" fill="url(#linear-gradient)"/>
    <path id="Path_1889" data-name="Path 1889" d="M106.92,31.13l-.555,28.91-.555-28.91a.557.557,0,1,1,1.11-.025c0,.007,0,.017,0,.025" transform="translate(-96.464 -27.634)" fill="url(#linear-gradient)"/>
    <path id="Path_1890" data-name="Path 1890" d="M93.694,38.759l-.555,27.464-.555-27.464a.557.557,0,1,1,1.11-.026c0,.008,0,.018,0,.026" transform="translate(-84.406 -34.54)" fill="url(#linear-gradient)"/>
    <path id="Path_1891" data-name="Path 1891" d="M80.468,46.387l-.555,26.019-.555-26.019a.557.557,0,1,1,1.11-.027c0,.008,0,.019,0,.027" transform="translate(-72.348 -41.445)" fill="url(#linear-gradient)"/>
    <path id="Path_1892" data-name="Path 1892" d="M67.242,54.016l-.555,24.573-.555-24.573a.557.557,0,1,1,1.11-.029c0,.009,0,.02,0,.029" transform="translate(-60.29 -48.351)" fill="url(#linear-gradient)"/>
    <path id="Path_1893" data-name="Path 1893" d="M54.015,61.642,53.46,84.77l-.555-23.128a.557.557,0,1,1,1.11-.031c0,.01,0,.021,0,.031" transform="translate(-48.232 -55.255)" fill="url(#linear-gradient)"/>
    <path id="Path_1894" data-name="Path 1894" d="M40.789,69.269l-.555,21.682-.555-21.682a.557.557,0,1,1,1.11-.033c0,.01,0,.023,0,.033" transform="translate(-36.174 -62.159)" fill="url(#linear-gradient)"/>
    <path id="Path_1895" data-name="Path 1895" d="M27.563,76.893,27.008,97.13l-.555-20.237a.557.557,0,1,1,1.11-.035c0,.011,0,.024,0,.035" transform="translate(-24.116 -69.06)" fill="url(#linear-gradient)"/>
    <path id="Path_1896" data-name="Path 1896" d="M14.336,84.516l-.555,18.791-.555-18.791a.579.579,0,0,1,.538-.614.573.573,0,0,1,.573.576c0,.012,0,.026,0,.038" transform="translate(-12.058 -75.96)" fill="url(#linear-gradient)"/>
    <path id="Path_1897" data-name="Path 1897" d="M1.11,92.137.555,109.483,0,92.137a.58.58,0,0,1,.536-.615.573.573,0,0,1,.574.575c0,.013,0,.028,0,.041" transform="translate(0.001 -82.859)" fill="url(#linear-gradient)"/>
  </g>
</svg>
