<svg xmlns="http://www.w3.org/2000/svg" xmlns:xlink="http://www.w3.org/1999/xlink" width="988.8" height="600.96" viewBox="0 0 741.6 450.72"><defs><style>*{stroke-linejoin:round;stroke-linecap:butt}</style></defs><g id="figure_1"><path id="patch_1" d="M0 450.72h741.6V0H0z" style="fill:#fff"/><g id="axes_1"><path id="patch_2" d="M60.272 340.919H732.33V26.542H60.272z" style="fill:#fff"/><path id="patch_3" d="M90.82 340.919h62.663V41.513H90.82z" clip-path="url(#p9f35b3d5fd)" style="fill:#4169e1"/><path id="patch_4" d="M169.149 340.919h62.662V100.083H169.15z" clip-path="url(#p9f35b3d5fd)" style="fill:#4169e1"/><path id="patch_5" d="M247.477 340.919h62.663V143.775h-62.663z" clip-path="url(#p9f35b3d5fd)" style="fill:#4169e1"/><path id="patch_6" d="M325.806 340.919h62.662v-154.65h-62.662z" clip-path="url(#p9f35b3d5fd)" style="fill:#4169e1"/><path id="patch_7" d="M404.134 340.919h62.663V227.413h-62.663z" clip-path="url(#p9f35b3d5fd)" style="fill:#4169e1"/><path id="patch_8" d="M482.462 340.919h62.663V223.356h-62.663z" clip-path="url(#p9f35b3d5fd)" style="fill:#4169e1"/><path id="patch_9" d="M560.79 340.919h62.663V227.913h-62.662z" clip-path="url(#p9f35b3d5fd)" style="fill:#4169e1"/><path id="patch_10" d="M639.12 340.919h62.662V236.263h-62.663z" clip-path="url(#p9f35b3d5fd)" style="fill:#4169e1"/><g id="matplotlib.axis_1"><g id="xtick_1"><g id="line2d_1"><defs><path id="m2dd5845bd8" d="M0 0v3.5" style="stroke:#000;stroke-width:.8"/></defs><use xlink:href="#m2dd5845bd8" x="122.152" y="340.919" style="stroke:#000;stroke-width:.8"/></g><g id="text_1" transform="rotate(-45 519.916 110.917)scale(.1 -.1)"><defs><path id="DejaVuSans-6d" d="M3328 2828q216 388 516 572t706 184q547 0 844-383 297-382 297-1088V0h-578v2094q0 503-179 746-178 244-543 244-447 0-707-297-259-296-259-809V0h-578v2094q0 506-178 748t-550 242q-441 0-701-298-259-298-259-808V0H581v3500h578v-544q197 322 472 475t653 153q382 0 649-194 267-193 395-562" transform="scale(.01563)"/><path id="DejaVuSans-61" d="M2194 1759q-697 0-966-159t-269-544q0-306 202-486 202-179 548-179 479 0 768 339t289 901v128zm1147 238V0h-575v531q-197-318-491-470T1556-91q-537 0-855 302-317 302-317 808 0 590 395 890 396 300 1180 300h807v57q0 397-261 614t-733 217q-300 0-585-72-284-72-546-216v532q315 122 612 182 297 61 578 61 760 0 1135-394 375-393 375-1193" transform="scale(.01563)"/><path id="DejaVuSans-69" d="M603 3500h575V0H603zm0 1363h575v-729H603z" transform="scale(.01563)"/><path id="DejaVuSans-6e" d="M3513 2113V0h-575v2094q0 497-194 743-194 247-581 247-466 0-735-297-269-296-269-809V0H581v3500h578v-544q207 316 486 472 280 156 646 156 603 0 912-373 310-373 310-1098" transform="scale(.01563)"/><path id="DejaVuSans-65" d="M3597 1894v-281H953q38-594 358-905t892-311q331 0 642 81t618 244V178Q3153 47 2828-22t-659-69q-838 0-1327 487-489 488-489 1320 0 859 464 1363 464 505 1252 505 706 0 1117-455 411-454 411-1235m-575 169q-6 471-264 752-258 282-683 282-481 0-770-272t-333-766z" transform="scale(.01563)"/><path id="DejaVuSans-74" d="M1172 4494v-994h1184v-447H1172V1153q0-428 117-550t477-122h590V0h-590q-666 0-919 248-253 249-253 905v1900H172v447h422v994z" transform="scale(.01563)"/><path id="DejaVuSans-63" d="M3122 3366v-538q-244 135-489 202t-495 67q-560 0-870-355-309-354-309-995t309-996q310-354 870-354 250 0 495 67t489 202V134Q2881 22 2623-34q-257-57-548-57-791 0-1257 497-465 497-465 1341 0 856 470 1346 471 491 1290 491 265 0 518-55 253-54 491-163" transform="scale(.01563)"/><path id="DejaVuSans-6f" d="M1959 3097q-462 0-731-361t-269-989 267-989q268-361 733-361 460 0 728 362 269 363 269 988 0 622-269 986-268 364-728 364m0 487q750 0 1178-488 429-487 429-1349 0-859-429-1349Q2709-91 1959-91q-753 0-1180 489-426 490-426 1349 0 862 426 1349 427 488 1180 488" transform="scale(.01563)"/><path id="DejaVuSans-72" d="M2631 2963q-97 56-211 82-114 27-251 27-488 0-749-317t-261-911V0H581v3500h578v-544q182 319 472 473 291 155 707 155 59 0 131-8 72-7 159-23z" transform="scale(.01563)"/></defs><use xlink:href="#DejaVuSans-6d"/><use xlink:href="#DejaVuSans-61" transform="translate(97.412)"/><use xlink:href="#DejaVuSans-69" transform="translate(158.691)"/><use xlink:href="#DejaVuSans-6e" transform="translate(186.475)"/><use xlink:href="#DejaVuSans-6e" transform="translate(249.854)"/><use xlink:href="#DejaVuSans-65" transform="translate(313.232)"/><use xlink:href="#DejaVuSans-74" transform="translate(374.756)"/><use xlink:href="#DejaVuSans-63" transform="translate(445.752)"/><use xlink:href="#DejaVuSans-6f" transform="translate(500.732)"/><use xlink:href="#DejaVuSans-72" transform="translate(561.914)"/><use xlink:href="#DejaVuSans-65" transform="translate(600.777)"/></g></g><g id="xtick_2"><use xlink:href="#m2dd5845bd8" id="line2d_2" x="200.48" y="340.919" style="stroke:#000;stroke-width:.8"/><g id="text_2" transform="rotate(135 -8.884 232.45)scale(-.1 .1)"><defs><path id="DejaVuSans-43" d="M4122 4306v-665q-319 297-680 443-361 147-767 147-800 0-1225-489t-425-1414q0-922 425-1411t1225-489q406 0 767 147t680 444V359q-331-225-702-338-370-112-782-112-1060 0-1670 648-609 649-609 1771 0 1125 609 1773 610 649 1670 649 418 0 788-111 371-111 696-333" transform="scale(.01563)"/><path id="DejaVuSans-42" d="M1259 2228V519h1013q509 0 754 211 246 211 246 645 0 438-246 645-245 208-754 208zm0 1919V2741h935q462 0 688 173 227 174 227 530 0 353-227 528-226 175-688 175zm-631 519h1613q722 0 1112-300 391-300 391-853 0-429-200-682t-588-315q466-100 724-418 258-317 258-792 0-625-425-966Q3088 0 2303 0H628z" transform="scale(.01563)"/><path id="DejaVuSans-64" d="M2906 2969v1894h575V0h-575v525q-181-312-458-464-276-152-664-152-634 0-1033 506-398 507-398 1332t398 1331q399 506 1033 506 388 0 664-152 277-151 458-463M947 1747q0-634 261-995t717-361 718 361q263 361 263 995t-263 995q-262 361-718 361t-717-361-261-995" transform="scale(.01563)"/><path id="DejaVuSans-67" d="M2906 1791q0 625-258 968-257 344-723 344-462 0-720-344-258-343-258-968 0-622 258-966t720-344q466 0 723 344 258 344 258 966m575-1357q0-893-397-1329-396-436-1215-436-303 0-572 45t-522 139v559q253-137 500-202 247-66 503-66 566 0 847 295t281 892v285q-178-310-456-463T1784 0Q1141 0 747 490 353 981 353 1791q0 812 394 1302 394 491 1037 491 388 0 666-153t456-462v531h575z" transform="scale(.01563)"/><path id="DejaVuSans-4c" d="M628 4666h631V531h2272V0H628z" transform="scale(.01563)"/><path id="DejaVuSans-62" d="M3116 1747q0 634-261 995t-717 361q-457 0-718-361t-261-995 261-995 718-361q456 0 717 361t261 995M1159 2969q182 312 458 463 277 152 661 152 638 0 1036-506 399-506 399-1331T3314 415Q2916-91 2278-91q-384 0-661 152-276 152-458 464V0H581v4863h578z" transform="scale(.01563)"/></defs><use xlink:href="#DejaVuSans-43"/><use xlink:href="#DejaVuSans-6f" transform="translate(69.824)"/><use xlink:href="#DejaVuSans-72" transform="translate(131.006)"/><use xlink:href="#DejaVuSans-65" transform="translate(169.87)"/><use xlink:href="#DejaVuSans-42" transform="translate(231.393)"/><use xlink:href="#DejaVuSans-72" transform="translate(299.996)"/><use xlink:href="#DejaVuSans-69" transform="translate(341.11)"/><use xlink:href="#DejaVuSans-64" transform="translate(368.893)"/><use xlink:href="#DejaVuSans-67" transform="translate(432.37)"/><use xlink:href="#DejaVuSans-65" transform="translate(495.846)"/><use xlink:href="#DejaVuSans-4c" transform="translate(557.37)"/><use xlink:href="#DejaVuSans-69" transform="translate(613.082)"/><use xlink:href="#DejaVuSans-62" transform="translate(640.865)"/></g></g><g id="xtick_3"><use xlink:href="#m2dd5845bd8" id="line2d_3" x="278.808" y="340.919" style="stroke:#000;stroke-width:.8"/><g id="text_3" transform="rotate(135 16.634 254.325)scale(-.1 .1)"><defs><path id="DejaVuSans-28" d="M1984 4856q-418-718-622-1422-203-703-203-1425 0-721 205-1429t620-1424h-500Q1016-109 783 600T550 2009q0 697 231 1403 232 707 703 1444z" transform="scale(.01563)"/><path id="DejaVuSans-6c" d="M603 4863h575V0H603z" transform="scale(.01563)"/><path id="DejaVuSans-29" d="M513 4856h500q468-737 701-1444 233-706 233-1403 0-700-233-1409T1013-844H513q415 716 620 1424t205 1429q0 722-205 1425-205 704-620 1422" transform="scale(.01563)"/></defs><use xlink:href="#DejaVuSans-6d"/><use xlink:href="#DejaVuSans-6f" transform="translate(97.412)"/><use xlink:href="#DejaVuSans-64" transform="translate(158.594)"/><use xlink:href="#DejaVuSans-63" transform="translate(253.857)"/><use xlink:href="#DejaVuSans-6f" transform="translate(308.838)"/><use xlink:href="#DejaVuSans-72" transform="translate(370.02)"/><use xlink:href="#DejaVuSans-65" transform="translate(408.883)"/><use xlink:href="#DejaVuSans-28" transform="translate(502.193)"/><use xlink:href="#DejaVuSans-63" transform="translate(541.207)"/><use xlink:href="#DejaVuSans-61" transform="translate(596.188)"/><use xlink:href="#DejaVuSans-6c" transform="translate(657.467)"/><use xlink:href="#DejaVuSans-6c" transform="translate(685.25)"/><use xlink:href="#DejaVuSans-64" transform="translate(713.033)"/><use xlink:href="#DejaVuSans-61" transform="translate(776.51)"/><use xlink:href="#DejaVuSans-74" transform="translate(837.79)"/><use xlink:href="#DejaVuSans-61" transform="translate(876.998)"/><use xlink:href="#DejaVuSans-29" transform="translate(938.277)"/></g></g><g id="xtick_4"><use xlink:href="#m2dd5845bd8" id="line2d_4" x="357.137" y="340.919" style="stroke:#000;stroke-width:.8"/><g id="text_4" transform="rotate(135 50.935 272.562)scale(-.1 .1)"><defs><path id="DejaVuSans-70" d="M1159 525v-1856H581v4831h578v-531q182 312 458 463 277 152 661 152 638 0 1036-506 399-506 399-1331T3314 415Q2916-91 2278-91q-384 0-661 152-276 152-458 464m1957 1222q0 634-261 995t-717 361q-457 0-718-361t-261-995 261-995 718-361q456 0 717 361t261 995" transform="scale(.01563)"/><path id="DejaVuSans-7a" d="M353 3500h2731v-525L922 459h2162V0H275v525l2163 2516H353z" transform="scale(.01563)"/></defs><use xlink:href="#DejaVuSans-6d"/><use xlink:href="#DejaVuSans-6f" transform="translate(97.412)"/><use xlink:href="#DejaVuSans-64" transform="translate(158.594)"/><use xlink:href="#DejaVuSans-63" transform="translate(253.857)"/><use xlink:href="#DejaVuSans-6f" transform="translate(308.838)"/><use xlink:href="#DejaVuSans-72" transform="translate(370.02)"/><use xlink:href="#DejaVuSans-65" transform="translate(408.883)"/><use xlink:href="#DejaVuSans-28" transform="translate(502.193)"/><use xlink:href="#DejaVuSans-6f" transform="translate(541.207)"/><use xlink:href="#DejaVuSans-70" transform="translate(602.389)"/><use xlink:href="#DejaVuSans-74" transform="translate(665.865)"/><use xlink:href="#DejaVuSans-69" transform="translate(705.074)"/><use xlink:href="#DejaVuSans-6d" transform="translate(732.857)"/><use xlink:href="#DejaVuSans-69" transform="translate(830.27)"/><use xlink:href="#DejaVuSans-7a" transform="translate(858.053)"/><use xlink:href="#DejaVuSans-65" transform="translate(910.543)"/><use xlink:href="#DejaVuSans-64" transform="translate(972.066)"/><use xlink:href="#DejaVuSans-29" transform="translate(1035.543)"/></g></g><g id="xtick_5"><use xlink:href="#m2dd5845bd8" id="line2d_5" x="435.465" y="340.919" style="stroke:#000;stroke-width:.8"/><g id="text_5" transform="rotate(135 111.35 279.982)scale(-.1 .1)"><defs><path id="DejaVuSans-56" d="M1831 0 50 4666h659L2188 738l1481 3928h656L2547 0z" transform="scale(.01563)"/><path id="DejaVuSans-66" d="M2375 4863v-479h-550q-309 0-430-125-120-125-120-450v-309h947v-447h-947V0H697v3053H147v447h550v244q0 584 272 851 272 268 862 268z" transform="scale(.01563)"/><path id="DejaVuSans-32" d="M1228 531h2203V0H469v531q359 372 979 998 621 627 780 809 303 340 423 576 121 236 121 464 0 372-261 606-261 235-680 235-297 0-627-103-329-103-704-313v638q381 153 712 231 332 78 607 78 725 0 1156-363 431-362 431-968 0-288-108-546-107-257-392-607-78-91-497-524-418-433-1181-1211" transform="scale(.01563)"/><path id="DejaVuSans-31" d="M794 531h1031v3560L703 3866v575l1116 225h631V531h1031V0H794z" transform="scale(.01563)"/><path id="DejaVuSans-30" d="M2034 4250q-487 0-733-480-245-479-245-1442 0-959 245-1439 246-480 733-480 491 0 736 480 246 480 246 1439 0 963-246 1442-245 480-736 480m0 500q785 0 1199-621 414-620 414-1801 0-1178-414-1799Q2819-91 2034-91q-784 0-1198 620-414 621-414 1799 0 1181 414 1801 414 621 1198 621" transform="scale(.01563)"/></defs><use xlink:href="#DejaVuSans-56"/><use xlink:href="#DejaVuSans-65" transform="translate(60.658)"/><use xlink:href="#DejaVuSans-72" transform="translate(122.182)"/><use xlink:href="#DejaVuSans-69" transform="translate(163.295)"/><use xlink:href="#DejaVuSans-66" transform="translate(191.078)"/><use xlink:href="#DejaVuSans-56" transform="translate(226.283)"/><use xlink:href="#DejaVuSans-32" transform="translate(294.691)"/><use xlink:href="#DejaVuSans-31" transform="translate(390.102)"/><use xlink:href="#DejaVuSans-30" transform="translate(453.725)"/><use xlink:href="#DejaVuSans-30" transform="translate(517.348)"/><use xlink:href="#DejaVuSans-42" transform="translate(580.97)"/></g></g><g id="xtick_6"><use xlink:href="#m2dd5845bd8" id="line2d_6" x="513.794" y="340.919" style="stroke:#000;stroke-width:.8"/><g id="text_6" transform="rotate(-45 718.282 -355.69)scale(.1 -.1)"><defs><path id="DejaVuSans-35" d="M691 4666h2478v-532H1269V2991q137 47 274 70 138 23 276 23 781 0 1237-428 457-428 457-1159 0-753-469-1171Q2575-91 1722-91q-294 0-599 50Q819 9 494 109v635q281-153 581-228t634-75q541 0 856 284 316 284 316 772 0 487-316 771-315 285-856 285-253 0-505-56-251-56-513-175z" transform="scale(.01563)"/></defs><use xlink:href="#DejaVuSans-56"/><use xlink:href="#DejaVuSans-65" transform="translate(60.658)"/><use xlink:href="#DejaVuSans-72" transform="translate(122.182)"/><use xlink:href="#DejaVuSans-69" transform="translate(163.295)"/><use xlink:href="#DejaVuSans-66" transform="translate(191.078)"/><use xlink:href="#DejaVuSans-56" transform="translate(226.283)"/><use xlink:href="#DejaVuSans-32" transform="translate(294.691)"/><use xlink:href="#DejaVuSans-35" transform="translate(390.102)"/><use xlink:href="#DejaVuSans-30" transform="translate(453.725)"/><use xlink:href="#DejaVuSans-30" transform="translate(517.348)"/><use xlink:href="#DejaVuSans-30" transform="translate(580.97)"/><use xlink:href="#DejaVuSans-42" transform="translate(644.594)"/></g></g><g id="xtick_7"><use xlink:href="#m2dd5845bd8" id="line2d_7" x="592.122" y="340.919" style="stroke:#000;stroke-width:.8"/><g id="text_7" transform="rotate(135 165.468 322.455)scale(-.1 .1)"><defs><path id="DejaVuSans-68" d="M3513 2113V0h-575v2094q0 497-194 743-194 247-581 247-466 0-735-297-269-296-269-809V0H581v4863h578V2956q207 316 486 472 280 156 646 156 603 0 912-373 310-373 310-1098" transform="scale(.01563)"/><path id="DejaVuSans-2b" d="M2944 4013V2272h1740v-531H2944V0h-525v1741H678v531h1741v1741z" transform="scale(.01563)"/><path id="DejaVuSans-73" d="M2834 3397v-544q-243 125-506 187-262 63-544 63-428 0-642-131t-214-394q0-200 153-314t616-217l197-44q612-131 870-370t258-667q0-488-386-773Q2250-91 1575-91q-281 0-586 55T347 128v594q319-166 628-249 309-82 613-82 406 0 624 139 219 139 219 392 0 234-158 359-157 125-692 241l-200 47q-534 112-772 345-237 233-237 639 0 494 350 762 350 269 994 269 318 0 599-47 282-46 519-140" transform="scale(.01563)"/></defs><use xlink:href="#DejaVuSans-56"/><use xlink:href="#DejaVuSans-65" transform="translate(60.658)"/><use xlink:href="#DejaVuSans-72" transform="translate(122.182)"/><use xlink:href="#DejaVuSans-69" transform="translate(163.295)"/><use xlink:href="#DejaVuSans-66" transform="translate(191.078)"/><use xlink:href="#DejaVuSans-56" transform="translate(226.283)"/><use xlink:href="#DejaVuSans-32" transform="translate(294.691)"/><use xlink:href="#DejaVuSans-68" transform="translate(390.102)"/><use xlink:href="#DejaVuSans-65" transform="translate(453.48)"/><use xlink:href="#DejaVuSans-61" transform="translate(515.004)"/><use xlink:href="#DejaVuSans-64" transform="translate(576.283)"/><use xlink:href="#DejaVuSans-65" transform="translate(639.76)"/><use xlink:href="#DejaVuSans-72" transform="translate(701.283)"/><use xlink:href="#DejaVuSans-2b" transform="translate(742.396)"/><use xlink:href="#DejaVuSans-64" transform="translate(826.186)"/><use xlink:href="#DejaVuSans-69" transform="translate(889.662)"/><use xlink:href="#DejaVuSans-67" transform="translate(917.445)"/><use xlink:href="#DejaVuSans-65" transform="translate(980.922)"/><use xlink:href="#DejaVuSans-73" transform="translate(1042.445)"/><use xlink:href="#DejaVuSans-74" transform="translate(1094.545)"/></g></g><g id="xtick_8"><use xlink:href="#m2dd5845bd8" id="line2d_8" x="670.451" y="340.919" style="stroke:#000;stroke-width:.8"/><g id="text_8" transform="rotate(135 219.97 332.324)scale(-.1 .1)"><defs><path id="DejaVuSans-78" d="M3513 3500 2247 1797 3578 0h-678L1881 1375 863 0H184l1360 1831L300 3500h678l928-1247 928 1247z" transform="scale(.01563)"/><path id="DejaVuSans-34" d="M2419 4116 825 1625h1594zm-166 550h794V1625h666v-525h-666V0h-628v1100H313v609z" transform="scale(.01563)"/></defs><use xlink:href="#DejaVuSans-56"/><use xlink:href="#DejaVuSans-65" transform="translate(60.658)"/><use xlink:href="#DejaVuSans-72" transform="translate(122.182)"/><use xlink:href="#DejaVuSans-69" transform="translate(163.295)"/><use xlink:href="#DejaVuSans-66" transform="translate(191.078)"/><use xlink:href="#DejaVuSans-56" transform="translate(226.283)"/><use xlink:href="#DejaVuSans-32" transform="translate(294.691)"/><use xlink:href="#DejaVuSans-62" transform="translate(390.102)"/><use xlink:href="#DejaVuSans-61" transform="translate(453.578)"/><use xlink:href="#DejaVuSans-74" transform="translate(514.857)"/><use xlink:href="#DejaVuSans-63" transform="translate(554.066)"/><use xlink:href="#DejaVuSans-68" transform="translate(609.047)"/><use xlink:href="#DejaVuSans-78" transform="translate(704.213)"/><use xlink:href="#DejaVuSans-34" transform="translate(763.393)"/></g></g></g><g id="matplotlib.axis_2"><g id="ytick_1"><g id="line2d_9"><defs><path id="m08a15aa206" d="M0 0h-3.5" style="stroke:#000;stroke-width:.8"/></defs><use xlink:href="#m08a15aa206" x="60.272" y="340.919" style="stroke:#000;stroke-width:.8"/></g><use xlink:href="#DejaVuSans-30" id="text_9" transform="matrix(.1 0 0 -.1 46.91 344.718)"/></g><g id="ytick_2"><use xlink:href="#m08a15aa206" id="line2d_10" x="60.272" y="296.46" style="stroke:#000;stroke-width:.8"/><g id="text_10" transform="matrix(.1 0 0 -.1 21.46 300.26)"><use xlink:href="#DejaVuSans-32"/><use xlink:href="#DejaVuSans-30" transform="translate(63.623)"/><use xlink:href="#DejaVuSans-30" transform="translate(127.246)"/><use xlink:href="#DejaVuSans-30" transform="translate(190.87)"/><use xlink:href="#DejaVuSans-30" transform="translate(254.492)"/></g></g><g id="ytick_3"><use xlink:href="#m08a15aa206" id="line2d_11" x="60.272" y="252.001" style="stroke:#000;stroke-width:.8"/><g id="text_11" transform="matrix(.1 0 0 -.1 21.46 255.8)"><use xlink:href="#DejaVuSans-34"/><use xlink:href="#DejaVuSans-30" transform="translate(63.623)"/><use xlink:href="#DejaVuSans-30" transform="translate(127.246)"/><use xlink:href="#DejaVuSans-30" transform="translate(190.87)"/><use xlink:href="#DejaVuSans-30" transform="translate(254.492)"/></g></g><g id="ytick_4"><use xlink:href="#m08a15aa206" id="line2d_12" x="60.272" y="207.542" style="stroke:#000;stroke-width:.8"/><g id="text_12" transform="matrix(.1 0 0 -.1 21.46 211.341)"><defs><path id="DejaVuSans-36" d="M2113 2584q-425 0-674-291-248-290-248-796 0-503 248-796 249-292 674-292t673 292q248 293 248 796 0 506-248 796-248 291-673 291m1253 1979v-575q-238 112-480 171-242 60-480 60-625 0-955-422-329-422-376-1275 184 272 462 417 279 145 613 145 703 0 1111-427 408-426 408-1160 0-719-425-1154Q2819-91 2113-91q-810 0-1238 620-428 621-428 1799 0 1106 525 1764t1409 658q238 0 480-47t505-140" transform="scale(.01563)"/></defs><use xlink:href="#DejaVuSans-36"/><use xlink:href="#DejaVuSans-30" transform="translate(63.623)"/><use xlink:href="#DejaVuSans-30" transform="translate(127.246)"/><use xlink:href="#DejaVuSans-30" transform="translate(190.87)"/><use xlink:href="#DejaVuSans-30" transform="translate(254.492)"/></g></g><g id="ytick_5"><use xlink:href="#m08a15aa206" id="line2d_13" x="60.272" y="163.083" style="stroke:#000;stroke-width:.8"/><g id="text_13" transform="matrix(.1 0 0 -.1 21.46 166.882)"><defs><path id="DejaVuSans-38" d="M2034 2216q-450 0-708-241-257-241-257-662 0-422 257-663 258-241 708-241t709 242q260 243 260 662 0 421-258 662-257 241-711 241m-631 268q-406 100-633 378-226 279-226 679 0 559 398 884 399 325 1092 325 697 0 1094-325t397-884q0-400-227-679-226-278-629-378 456-106 710-416 255-309 255-755 0-679-414-1042Q2806-91 2034-91q-771 0-1186 362-414 363-414 1042 0 446 256 755 257 310 713 416m-231 997q0-362 226-565 227-203 636-203 407 0 636 203 230 203 230 565 0 363-230 566-229 203-636 203-409 0-636-203-226-203-226-566" transform="scale(.01563)"/></defs><use xlink:href="#DejaVuSans-38"/><use xlink:href="#DejaVuSans-30" transform="translate(63.623)"/><use xlink:href="#DejaVuSans-30" transform="translate(127.246)"/><use xlink:href="#DejaVuSans-30" transform="translate(190.87)"/><use xlink:href="#DejaVuSans-30" transform="translate(254.492)"/></g></g><g id="ytick_6"><use xlink:href="#m08a15aa206" id="line2d_14" x="60.272" y="118.624" style="stroke:#000;stroke-width:.8"/><g id="text_14" transform="matrix(.1 0 0 -.1 15.097 122.424)"><use xlink:href="#DejaVuSans-31"/><use xlink:href="#DejaVuSans-30" transform="translate(63.623)"/><use xlink:href="#DejaVuSans-30" transform="translate(127.246)"/><use xlink:href="#DejaVuSans-30" transform="translate(190.87)"/><use xlink:href="#DejaVuSans-30" transform="translate(254.492)"/><use xlink:href="#DejaVuSans-30" transform="translate(318.115)"/></g></g><g id="ytick_7"><use xlink:href="#m08a15aa206" id="line2d_15" x="60.272" y="74.166" style="stroke:#000;stroke-width:.8"/><g id="text_15" transform="matrix(.1 0 0 -.1 15.097 77.965)"><use xlink:href="#DejaVuSans-31"/><use xlink:href="#DejaVuSans-32" transform="translate(63.623)"/><use xlink:href="#DejaVuSans-30" transform="translate(127.246)"/><use xlink:href="#DejaVuSans-30" transform="translate(190.87)"/><use xlink:href="#DejaVuSans-30" transform="translate(254.492)"/><use xlink:href="#DejaVuSans-30" transform="translate(318.115)"/></g></g><g id="ytick_8"><use xlink:href="#m08a15aa206" id="line2d_16" x="60.272" y="29.707" style="stroke:#000;stroke-width:.8"/><g id="text_16" transform="matrix(.1 0 0 -.1 15.097 33.506)"><use xlink:href="#DejaVuSans-31"/><use xlink:href="#DejaVuSans-34" transform="translate(63.623)"/><use xlink:href="#DejaVuSans-30" transform="translate(127.246)"/><use xlink:href="#DejaVuSans-30" transform="translate(190.87)"/><use xlink:href="#DejaVuSans-30" transform="translate(254.492)"/><use xlink:href="#DejaVuSans-30" transform="translate(318.115)"/></g></g><g id="text_17" transform="matrix(0 -.1 -.1 0 9.017 220.178)"><defs><path id="DejaVuSans-47" d="M3809 666v1253H2778v519h1656V434q-365-259-806-392-440-133-940-133-1094 0-1712 639-617 640-617 1780 0 1144 617 1783 618 639 1712 639 456 0 867-113 411-112 758-331v-672q-350 297-744 447t-828 150q-857 0-1287-478-429-478-429-1425 0-944 429-1422 430-478 1287-478 334 0 596 58 263 58 472 180" transform="scale(.01563)"/><path id="DejaVuSans-2f" d="M1625 4666h531L531-594H0z" transform="scale(.01563)"/><path id="DejaVuSans-41" d="m2188 4044-857-2322h1716zm-357 622h716L4325 0h-656l-425 1197H1141L716 0H50z" transform="scale(.01563)"/></defs><use xlink:href="#DejaVuSans-47"/><use xlink:href="#DejaVuSans-61" transform="translate(77.49)"/><use xlink:href="#DejaVuSans-73" transform="translate(138.77)"/><use xlink:href="#DejaVuSans-63" transform="translate(222.656)"/><use xlink:href="#DejaVuSans-6f" transform="translate(277.637)"/><use xlink:href="#DejaVuSans-73" transform="translate(338.818)"/><use xlink:href="#DejaVuSans-74" transform="translate(390.918)"/><use xlink:href="#DejaVuSans-2f" transform="translate(461.914)"/><use xlink:href="#DejaVuSans-56" transform="translate(527.393)"/><use xlink:href="#DejaVuSans-41" transform="translate(589.426)"/><use xlink:href="#DejaVuSans-41" transform="translate(660.584)"/></g></g><path id="patch_11" d="M60.272 340.919V26.542" style="fill:none;stroke:#000;stroke-width:.8;stroke-linejoin:miter;stroke-linecap:square"/><path id="patch_12" d="M732.33 340.919V26.542" style="fill:none;stroke:#000;stroke-width:.8;stroke-linejoin:miter;stroke-linecap:square"/><path id="patch_13" d="M60.272 340.919H732.33" style="fill:none;stroke:#000;stroke-width:.8;stroke-linejoin:miter;stroke-linecap:square"/><path id="patch_14" d="M60.272 26.542H732.33" style="fill:none;stroke:#000;stroke-width:.8;stroke-linejoin:miter;stroke-linecap:square"/><g id="text_18" style="fill:#006400" transform="matrix(.09 0 0 -.09 182.414 97.089)"><defs><path id="DejaVuSans-2193" d="M2822-22h-281L1309 1209l375 375 732-731v3813h531V853l725 731 375-375z" transform="scale(.01563)"/><path id="DejaVuSans-39" d="M703 97v575q238-113 481-172 244-59 479-59 625 0 954 420 330 420 377 1277-181-269-460-413-278-144-615-144-700 0-1108 423-408 424-408 1159 0 718 425 1152 425 435 1131 435 810 0 1236-621 427-620 427-1801 0-1103-524-1761Q2575-91 1691-91q-238 0-482 47Q966 3 703 97m1256 1978q425 0 673 290 249 291 249 798 0 503-249 795-248 292-673 292t-673-292-248-795q0-507 248-798 248-290 673-290" transform="scale(.01563)"/><path id="DejaVuSans-2e" d="M684 794h660V0H684z" transform="scale(.01563)"/><path id="DejaVuSans-25" d="M4653 2053q-272 0-427-231-154-231-154-644 0-406 154-639 155-233 427-233 266 0 420 233 155 233 155 639 0 410-155 642-154 233-420 233m0 397q494 0 784-344 291-343 291-928 0-584-292-927-292-342-783-342-500 0-791 342-290 343-290 927 0 588 292 930t789 342M1428 4353q-269 0-424-233-154-232-154-639 0-412 153-644 153-231 425-231t426 231q155 232 155 644 0 403-156 637-156 235-425 235m2822 397h500L1831-91h-500zm-2822 0q494 0 787-342 294-342 294-927 0-590-292-931t-789-341-786 342q-289 343-289 930 0 582 290 925 291 344 785 344" transform="scale(.01563)"/></defs><use xlink:href="#DejaVuSans-2193"/><use xlink:href="#DejaVuSans-31" transform="translate(83.79)"/><use xlink:href="#DejaVuSans-39" transform="translate(147.412)"/><use xlink:href="#DejaVuSans-2e" transform="translate(211.035)"/><use xlink:href="#DejaVuSans-36" transform="translate(242.822)"/><use xlink:href="#DejaVuSans-25" transform="translate(306.445)"/></g><g id="text_19" style="fill:#006400" transform="matrix(.09 0 0 -.09 260.742 140.78)"><defs><path id="DejaVuSans-33" d="M2597 2516q453-97 707-404 255-306 255-756 0-690-475-1069Q2609-91 1734-91q-293 0-604 58T488 141v609q262-153 574-231 313-78 654-78 593 0 904 234t311 681q0 413-289 645-289 233-804 233h-544v519h569q465 0 712 186t247 536q0 359-255 551-254 193-729 193-260 0-557-57-297-56-653-174v562q360 100 674 150t592 50q719 0 1137-327 419-326 419-882 0-388-222-655t-631-370" transform="scale(.01563)"/></defs><use xlink:href="#DejaVuSans-2193"/><use xlink:href="#DejaVuSans-33" transform="translate(83.79)"/><use xlink:href="#DejaVuSans-34" transform="translate(147.412)"/><use xlink:href="#DejaVuSans-2e" transform="translate(211.035)"/><use xlink:href="#DejaVuSans-32" transform="translate(242.822)"/><use xlink:href="#DejaVuSans-25" transform="translate(306.445)"/></g><g id="text_20" style="fill:#006400" transform="matrix(.09 0 0 -.09 339.07 183.274)"><use xlink:href="#DejaVuSans-2193"/><use xlink:href="#DejaVuSans-34" transform="translate(83.79)"/><use xlink:href="#DejaVuSans-38" transform="translate(147.412)"/><use xlink:href="#DejaVuSans-2e" transform="translate(211.035)"/><use xlink:href="#DejaVuSans-33" transform="translate(242.822)"/><use xlink:href="#DejaVuSans-25" transform="translate(306.445)"/></g><g id="text_21" style="fill:#006400" transform="matrix(.09 0 0 -.09 417.4 224.419)"><use xlink:href="#DejaVuSans-2193"/><use xlink:href="#DejaVuSans-36" transform="translate(83.79)"/><use xlink:href="#DejaVuSans-32" transform="translate(147.412)"/><use xlink:href="#DejaVuSans-2e" transform="translate(211.035)"/><use xlink:href="#DejaVuSans-31" transform="translate(242.822)"/><use xlink:href="#DejaVuSans-25" transform="translate(306.445)"/></g><g id="text_22" style="fill:#006400" transform="matrix(.09 0 0 -.09 495.728 220.362)"><defs><path id="DejaVuSans-37" d="M525 4666h3000v-269L1831 0h-659l1594 4134H525z" transform="scale(.01563)"/></defs><use xlink:href="#DejaVuSans-2193"/><use xlink:href="#DejaVuSans-36" transform="translate(83.79)"/><use xlink:href="#DejaVuSans-30" transform="translate(147.412)"/><use xlink:href="#DejaVuSans-2e" transform="translate(211.035)"/><use xlink:href="#DejaVuSans-37" transform="translate(242.822)"/><use xlink:href="#DejaVuSans-25" transform="translate(306.445)"/></g><g id="text_23" style="fill:#006400" transform="matrix(.09 0 0 -.09 574.056 224.92)"><use xlink:href="#DejaVuSans-2193"/><use xlink:href="#DejaVuSans-36" transform="translate(83.79)"/><use xlink:href="#DejaVuSans-32" transform="translate(147.412)"/><use xlink:href="#DejaVuSans-2e" transform="translate(211.035)"/><use xlink:href="#DejaVuSans-33" transform="translate(242.822)"/><use xlink:href="#DejaVuSans-25" transform="translate(306.445)"/></g><g id="text_24" style="fill:#006400" transform="matrix(.09 0 0 -.09 652.384 233.268)"><use xlink:href="#DejaVuSans-2193"/><use xlink:href="#DejaVuSans-36" transform="translate(83.79)"/><use xlink:href="#DejaVuSans-35" transform="translate(147.412)"/><use xlink:href="#DejaVuSans-2e" transform="translate(211.035)"/><use xlink:href="#DejaVuSans-30" transform="translate(242.822)"/><use xlink:href="#DejaVuSans-25" transform="translate(306.445)"/></g><g id="text_25" transform="matrix(.12 0 0 -.12 163.822 20.542)"><defs><path id="DejaVuSans-76" d="M191 3500h609L1894 563l1094 2937h609L2284 0h-781z" transform="scale(.01563)"/><path id="DejaVuSans-4d" d="M628 4666h941l1190-3175 1197 3175h941V0h-616v4097L3078 897h-634L1241 4097V0H628z" transform="scale(.01563)"/><path id="DejaVuSans-75" d="M544 1381v2119h575V1403q0-497 193-746 194-248 582-248 465 0 735 297 271 297 271 810v1984h575V0h-575v538q-209-319-486-474-276-155-642-155-603 0-916 375-312 375-312 1097m1447 2203" transform="scale(.01563)"/><path id="DejaVuSans-2014" d="M313 1978h5775v-450H313z" transform="scale(.01563)"/><path id="DejaVuSans-52" d="M2841 2188q203-69 395-294t386-619L4263 0h-679l-596 1197q-232 469-449 622t-592 153h-688V0H628v4666h1425q800 0 1194-335 394-334 394-1009 0-441-205-732-205-290-595-402M1259 4147V2491h794q456 0 689 211t233 620-233 617-689 208z" transform="scale(.01563)"/></defs><use xlink:href="#DejaVuSans-47"/><use xlink:href="#DejaVuSans-61" transform="translate(77.49)"/><use xlink:href="#DejaVuSans-73" transform="translate(138.77)"/><use xlink:href="#DejaVuSans-43" transform="translate(222.656)"/><use xlink:href="#DejaVuSans-6f" transform="translate(292.48)"/><use xlink:href="#DejaVuSans-73" transform="translate(353.662)"/><use xlink:href="#DejaVuSans-74" transform="translate(405.762)"/><use xlink:href="#DejaVuSans-70" transform="translate(476.758)"/><use xlink:href="#DejaVuSans-65" transform="translate(540.234)"/><use xlink:href="#DejaVuSans-72" transform="translate(601.758)"/><use xlink:href="#DejaVuSans-56" transform="translate(674.658)"/><use xlink:href="#DejaVuSans-41" transform="translate(736.691)"/><use xlink:href="#DejaVuSans-41" transform="translate(807.85)"/><use xlink:href="#DejaVuSans-28" transform="translate(908.045)"/><use xlink:href="#DejaVuSans-76" transform="translate(947.059)"/><use xlink:href="#DejaVuSans-31" transform="translate(1006.238)"/><use xlink:href="#DejaVuSans-56" transform="translate(1101.648)"/><use xlink:href="#DejaVuSans-41" transform="translate(1163.682)"/><use xlink:href="#DejaVuSans-41" transform="translate(1234.84)"/><use xlink:href="#DejaVuSans-4d" transform="translate(1335.035)"/><use xlink:href="#DejaVuSans-75" transform="translate(1421.314)"/><use xlink:href="#DejaVuSans-6c" transform="translate(1484.693)"/><use xlink:href="#DejaVuSans-74" transform="translate(1512.477)"/><use xlink:href="#DejaVuSans-69" transform="translate(1551.686)"/><use xlink:href="#DejaVuSans-73" transform="translate(1579.469)"/><use xlink:href="#DejaVuSans-69" transform="translate(1631.568)"/><use xlink:href="#DejaVuSans-67" transform="translate(1659.352)"/><use xlink:href="#DejaVuSans-29" transform="translate(1722.828)"/><use xlink:href="#DejaVuSans-2014" transform="translate(1793.629)"/><use xlink:href="#DejaVuSans-52" transform="translate(1925.416)"/><use xlink:href="#DejaVuSans-65" transform="translate(1990.398)"/><use xlink:href="#DejaVuSans-6c" transform="translate(2051.922)"/><use xlink:href="#DejaVuSans-61" transform="translate(2079.705)"/><use xlink:href="#DejaVuSans-74" transform="translate(2140.984)"/><use xlink:href="#DejaVuSans-69" transform="translate(2180.193)"/><use xlink:href="#DejaVuSans-76" transform="translate(2207.977)"/><use xlink:href="#DejaVuSans-65" transform="translate(2267.156)"/><use xlink:href="#DejaVuSans-52" transform="translate(2360.467)"/><use xlink:href="#DejaVuSans-65" transform="translate(2425.45)"/><use xlink:href="#DejaVuSans-64" transform="translate(2486.973)"/><use xlink:href="#DejaVuSans-75" transform="translate(2550.45)"/><use xlink:href="#DejaVuSans-63" transform="translate(2613.828)"/><use xlink:href="#DejaVuSans-74" transform="translate(2668.809)"/><use xlink:href="#DejaVuSans-69" transform="translate(2708.018)"/><use xlink:href="#DejaVuSans-6f" transform="translate(2735.8)"/><use xlink:href="#DejaVuSans-6e" transform="translate(2796.982)"/><use xlink:href="#DejaVuSans-73" transform="translate(2860.361)"/><use xlink:href="#DejaVuSans-66" transform="translate(2944.248)"/><use xlink:href="#DejaVuSans-72" transform="translate(2979.453)"/><use xlink:href="#DejaVuSans-6f" transform="translate(3018.316)"/><use xlink:href="#DejaVuSans-6d" transform="translate(3079.498)"/><use xlink:href="#DejaVuSans-4d" transform="translate(3208.697)"/><use xlink:href="#DejaVuSans-61" transform="translate(3294.977)"/><use xlink:href="#DejaVuSans-69" transform="translate(3356.256)"/><use xlink:href="#DejaVuSans-6e" transform="translate(3384.04)"/><use xlink:href="#DejaVuSans-6e" transform="translate(3447.418)"/><use xlink:href="#DejaVuSans-65" transform="translate(3510.797)"/><use xlink:href="#DejaVuSans-74" transform="translate(3572.32)"/><use xlink:href="#DejaVuSans-43" transform="translate(3643.316)"/><use xlink:href="#DejaVuSans-6f" transform="translate(3713.14)"/><use xlink:href="#DejaVuSans-72" transform="translate(3774.322)"/><use xlink:href="#DejaVuSans-65" transform="translate(3813.186)"/></g></g></g><defs><clipPath id="p9f35b3d5fd"><path d="M60.272 26.542H732.33v314.376H60.272z"/></clipPath></defs></svg>