<?xml version="1.0" encoding="utf-8" standalone="no"?>
<!DOCTYPE svg PUBLIC "-//W3C//DTD SVG 1.1//EN"
  "http://www.w3.org/Graphics/SVG/1.1/DTD/svg11.dtd">
<svg xmlns:xlink="http://www.w3.org/1999/xlink" width="1843.2pt" height="722.88pt" viewBox="0 0 1843.2 722.88" xmlns="http://www.w3.org/2000/svg" version="1.1">
 <metadata>
  <rdf:RDF xmlns:dc="http://purl.org/dc/elements/1.1/" xmlns:cc="http://creativecommons.org/ns#" xmlns:rdf="http://www.w3.org/1999/02/22-rdf-syntax-ns#">
   <cc:Work>
    <dc:type rdf:resource="http://purl.org/dc/dcmitype/StillImage"/>
    <dc:date>2025-07-30T18:31:11.520399</dc:date>
    <dc:format>image/svg+xml</dc:format>
    <dc:creator>
     <cc:Agent>
      <dc:title>Matplotlib v3.10.3, https://matplotlib.org/</dc:title>
     </cc:Agent>
    </dc:creator>
   </cc:Work>
  </rdf:RDF>
 </metadata>
 <defs>
  <style type="text/css">*{stroke-linejoin: round; stroke-linecap: butt}</style>
 </defs>
 <g id="figure_1">
  <g id="patch_1">
   <path d="M 0 722.88 
L 1843.2 722.88 
L 1843.2 0 
L 0 0 
z
" style="fill: #ffffff"/>
  </g>
  <g id="axes_1">
   <g id="patch_2">
    <path d="M 181.376 652.666933 
L 1602.818743 652.666933 
L 1602.818743 42.5696 
L 181.376 42.5696 
z
" style="fill: #ffffff"/>
   </g>
   <g id="matplotlib.axis_1">
    <g id="xtick_1">
     <g id="line2d_1">
      <path d="M 181.376 652.666933 
L 181.376 42.5696 
" clip-path="url(#pd68771e7ba)" style="fill: none; stroke: #b0b0b0; stroke-width: 0.8; stroke-linecap: square"/>
     </g>
     <g id="line2d_2">
      <defs>
       <path id="m35e8d6b2aa" d="M 0 0 
L 0 3.5 
" style="stroke: #000000; stroke-width: 0.8"/>
      </defs>
      <g>
       <use xlink:href="#m35e8d6b2aa" x="181.376" y="652.666933" style="stroke: #000000; stroke-width: 0.8"/>
      </g>
     </g>
     <g id="text_1">
      <!-- 0 µLamport -->
      <g transform="translate(152.454906 667.265371) scale(0.1 -0.1)">
       <defs>
        <path id="DejaVuSans-30" d="M 2034 4250 
Q 1547 4250 1301 3770 
Q 1056 3291 1056 2328 
Q 1056 1369 1301 889 
Q 1547 409 2034 409 
Q 2525 409 2770 889 
Q 3016 1369 3016 2328 
Q 3016 3291 2770 3770 
Q 2525 4250 2034 4250 
z
M 2034 4750 
Q 2819 4750 3233 4129 
Q 3647 3509 3647 2328 
Q 3647 1150 3233 529 
Q 2819 -91 2034 -91 
Q 1250 -91 836 529 
Q 422 1150 422 2328 
Q 422 3509 836 4129 
Q 1250 4750 2034 4750 
z
" transform="scale(0.015625)"/>
        <path id="DejaVuSans-20" transform="scale(0.015625)"/>
        <path id="DejaVuSans-b5" d="M 544 -1331 
L 544 3500 
L 1119 3500 
L 1119 1325 
Q 1119 872 1334 640 
Q 1550 409 1972 409 
Q 2434 409 2667 671 
Q 2900 934 2900 1459 
L 2900 3500 
L 3475 3500 
L 3475 806 
Q 3475 619 3529 530 
Q 3584 441 3700 441 
Q 3728 441 3778 458 
Q 3828 475 3916 513 
L 3916 50 
Q 3788 -22 3673 -56 
Q 3559 -91 3450 -91 
Q 3234 -91 3106 31 
Q 2978 153 2931 403 
Q 2775 156 2548 32 
Q 2322 -91 2016 -91 
Q 1697 -91 1473 31 
Q 1250 153 1119 397 
L 1119 -1331 
L 544 -1331 
z
" transform="scale(0.015625)"/>
        <path id="DejaVuSans-4c" d="M 628 4666 
L 1259 4666 
L 1259 531 
L 3531 531 
L 3531 0 
L 628 0 
L 628 4666 
z
" transform="scale(0.015625)"/>
        <path id="DejaVuSans-61" d="M 2194 1759 
Q 1497 1759 1228 1600 
Q 959 1441 959 1056 
Q 959 750 1161 570 
Q 1363 391 1709 391 
Q 2188 391 2477 730 
Q 2766 1069 2766 1631 
L 2766 1759 
L 2194 1759 
z
M 3341 1997 
L 3341 0 
L 2766 0 
L 2766 531 
Q 2569 213 2275 61 
Q 1981 -91 1556 -91 
Q 1019 -91 701 211 
Q 384 513 384 1019 
Q 384 1609 779 1909 
Q 1175 2209 1959 2209 
L 2766 2209 
L 2766 2266 
Q 2766 2663 2505 2880 
Q 2244 3097 1772 3097 
Q 1472 3097 1187 3025 
Q 903 2953 641 2809 
L 641 3341 
Q 956 3463 1253 3523 
Q 1550 3584 1831 3584 
Q 2591 3584 2966 3190 
Q 3341 2797 3341 1997 
z
" transform="scale(0.015625)"/>
        <path id="DejaVuSans-6d" d="M 3328 2828 
Q 3544 3216 3844 3400 
Q 4144 3584 4550 3584 
Q 5097 3584 5394 3201 
Q 5691 2819 5691 2113 
L 5691 0 
L 5113 0 
L 5113 2094 
Q 5113 2597 4934 2840 
Q 4756 3084 4391 3084 
Q 3944 3084 3684 2787 
Q 3425 2491 3425 1978 
L 3425 0 
L 2847 0 
L 2847 2094 
Q 2847 2600 2669 2842 
Q 2491 3084 2119 3084 
Q 1678 3084 1418 2786 
Q 1159 2488 1159 1978 
L 1159 0 
L 581 0 
L 581 3500 
L 1159 3500 
L 1159 2956 
Q 1356 3278 1631 3431 
Q 1906 3584 2284 3584 
Q 2666 3584 2933 3390 
Q 3200 3197 3328 2828 
z
" transform="scale(0.015625)"/>
        <path id="DejaVuSans-70" d="M 1159 525 
L 1159 -1331 
L 581 -1331 
L 581 3500 
L 1159 3500 
L 1159 2969 
Q 1341 3281 1617 3432 
Q 1894 3584 2278 3584 
Q 2916 3584 3314 3078 
Q 3713 2572 3713 1747 
Q 3713 922 3314 415 
Q 2916 -91 2278 -91 
Q 1894 -91 1617 61 
Q 1341 213 1159 525 
z
M 3116 1747 
Q 3116 2381 2855 2742 
Q 2594 3103 2138 3103 
Q 1681 3103 1420 2742 
Q 1159 2381 1159 1747 
Q 1159 1113 1420 752 
Q 1681 391 2138 391 
Q 2594 391 2855 752 
Q 3116 1113 3116 1747 
z
" transform="scale(0.015625)"/>
        <path id="DejaVuSans-6f" d="M 1959 3097 
Q 1497 3097 1228 2736 
Q 959 2375 959 1747 
Q 959 1119 1226 758 
Q 1494 397 1959 397 
Q 2419 397 2687 759 
Q 2956 1122 2956 1747 
Q 2956 2369 2687 2733 
Q 2419 3097 1959 3097 
z
M 1959 3584 
Q 2709 3584 3137 3096 
Q 3566 2609 3566 1747 
Q 3566 888 3137 398 
Q 2709 -91 1959 -91 
Q 1206 -91 779 398 
Q 353 888 353 1747 
Q 353 2609 779 3096 
Q 1206 3584 1959 3584 
z
" transform="scale(0.015625)"/>
        <path id="DejaVuSans-72" d="M 2631 2963 
Q 2534 3019 2420 3045 
Q 2306 3072 2169 3072 
Q 1681 3072 1420 2755 
Q 1159 2438 1159 1844 
L 1159 0 
L 581 0 
L 581 3500 
L 1159 3500 
L 1159 2956 
Q 1341 3275 1631 3429 
Q 1922 3584 2338 3584 
Q 2397 3584 2469 3576 
Q 2541 3569 2628 3553 
L 2631 2963 
z
" transform="scale(0.015625)"/>
        <path id="DejaVuSans-74" d="M 1172 4494 
L 1172 3500 
L 2356 3500 
L 2356 3053 
L 1172 3053 
L 1172 1153 
Q 1172 725 1289 603 
Q 1406 481 1766 481 
L 2356 481 
L 2356 0 
L 1766 0 
Q 1100 0 847 248 
Q 594 497 594 1153 
L 594 3053 
L 172 3053 
L 172 3500 
L 594 3500 
L 594 4494 
L 1172 4494 
z
" transform="scale(0.015625)"/>
       </defs>
       <use xlink:href="#DejaVuSans-30"/>
       <use xlink:href="#DejaVuSans-20" transform="translate(63.623047 0)"/>
       <use xlink:href="#DejaVuSans-b5" transform="translate(95.410156 0)"/>
       <use xlink:href="#DejaVuSans-4c" transform="translate(159.033203 0)"/>
       <use xlink:href="#DejaVuSans-61" transform="translate(214.746094 0)"/>
       <use xlink:href="#DejaVuSans-6d" transform="translate(276.025391 0)"/>
       <use xlink:href="#DejaVuSans-70" transform="translate(373.4375 0)"/>
       <use xlink:href="#DejaVuSans-6f" transform="translate(436.914062 0)"/>
       <use xlink:href="#DejaVuSans-72" transform="translate(498.095703 0)"/>
       <use xlink:href="#DejaVuSans-74" transform="translate(539.208984 0)"/>
      </g>
     </g>
    </g>
    <g id="xtick_2">
     <g id="line2d_3">
      <path d="M 392.900218 652.666933 
L 392.900218 42.5696 
" clip-path="url(#pd68771e7ba)" style="fill: none; stroke: #b0b0b0; stroke-width: 0.8; stroke-linecap: square"/>
     </g>
     <g id="line2d_4">
      <g>
       <use xlink:href="#m35e8d6b2aa" x="392.900218" y="652.666933" style="stroke: #000000; stroke-width: 0.8"/>
      </g>
     </g>
     <g id="text_2">
      <!-- 2 Lamport -->
      <g transform="translate(367.160374 667.265371) scale(0.1 -0.1)">
       <defs>
        <path id="DejaVuSans-32" d="M 1228 531 
L 3431 531 
L 3431 0 
L 469 0 
L 469 531 
Q 828 903 1448 1529 
Q 2069 2156 2228 2338 
Q 2531 2678 2651 2914 
Q 2772 3150 2772 3378 
Q 2772 3750 2511 3984 
Q 2250 4219 1831 4219 
Q 1534 4219 1204 4116 
Q 875 4013 500 3803 
L 500 4441 
Q 881 4594 1212 4672 
Q 1544 4750 1819 4750 
Q 2544 4750 2975 4387 
Q 3406 4025 3406 3419 
Q 3406 3131 3298 2873 
Q 3191 2616 2906 2266 
Q 2828 2175 2409 1742 
Q 1991 1309 1228 531 
z
" transform="scale(0.015625)"/>
       </defs>
       <use xlink:href="#DejaVuSans-32"/>
       <use xlink:href="#DejaVuSans-20" transform="translate(63.623047 0)"/>
       <use xlink:href="#DejaVuSans-4c" transform="translate(95.410156 0)"/>
       <use xlink:href="#DejaVuSans-61" transform="translate(151.123047 0)"/>
       <use xlink:href="#DejaVuSans-6d" transform="translate(212.402344 0)"/>
       <use xlink:href="#DejaVuSans-70" transform="translate(309.814453 0)"/>
       <use xlink:href="#DejaVuSans-6f" transform="translate(373.291016 0)"/>
       <use xlink:href="#DejaVuSans-72" transform="translate(434.472656 0)"/>
       <use xlink:href="#DejaVuSans-74" transform="translate(475.585938 0)"/>
      </g>
     </g>
    </g>
    <g id="xtick_3">
     <g id="line2d_5">
      <path d="M 604.424435 652.666933 
L 604.424435 42.5696 
" clip-path="url(#pd68771e7ba)" style="fill: none; stroke: #b0b0b0; stroke-width: 0.8; stroke-linecap: square"/>
     </g>
     <g id="line2d_6">
      <g>
       <use xlink:href="#m35e8d6b2aa" x="604.424435" y="652.666933" style="stroke: #000000; stroke-width: 0.8"/>
      </g>
     </g>
     <g id="text_3">
      <!-- 4 Lamport -->
      <g transform="translate(578.684592 667.265371) scale(0.1 -0.1)">
       <defs>
        <path id="DejaVuSans-34" d="M 2419 4116 
L 825 1625 
L 2419 1625 
L 2419 4116 
z
M 2253 4666 
L 3047 4666 
L 3047 1625 
L 3713 1625 
L 3713 1100 
L 3047 1100 
L 3047 0 
L 2419 0 
L 2419 1100 
L 313 1100 
L 313 1709 
L 2253 4666 
z
" transform="scale(0.015625)"/>
       </defs>
       <use xlink:href="#DejaVuSans-34"/>
       <use xlink:href="#DejaVuSans-20" transform="translate(63.623047 0)"/>
       <use xlink:href="#DejaVuSans-4c" transform="translate(95.410156 0)"/>
       <use xlink:href="#DejaVuSans-61" transform="translate(151.123047 0)"/>
       <use xlink:href="#DejaVuSans-6d" transform="translate(212.402344 0)"/>
       <use xlink:href="#DejaVuSans-70" transform="translate(309.814453 0)"/>
       <use xlink:href="#DejaVuSans-6f" transform="translate(373.291016 0)"/>
       <use xlink:href="#DejaVuSans-72" transform="translate(434.472656 0)"/>
       <use xlink:href="#DejaVuSans-74" transform="translate(475.585938 0)"/>
      </g>
     </g>
    </g>
    <g id="xtick_4">
     <g id="line2d_7">
      <path d="M 815.948653 652.666933 
L 815.948653 42.5696 
" clip-path="url(#pd68771e7ba)" style="fill: none; stroke: #b0b0b0; stroke-width: 0.8; stroke-linecap: square"/>
     </g>
     <g id="line2d_8">
      <g>
       <use xlink:href="#m35e8d6b2aa" x="815.948653" y="652.666933" style="stroke: #000000; stroke-width: 0.8"/>
      </g>
     </g>
     <g id="text_4">
      <!-- 6 Lamport -->
      <g transform="translate(790.208809 667.265371) scale(0.1 -0.1)">
       <defs>
        <path id="DejaVuSans-36" d="M 2113 2584 
Q 1688 2584 1439 2293 
Q 1191 2003 1191 1497 
Q 1191 994 1439 701 
Q 1688 409 2113 409 
Q 2538 409 2786 701 
Q 3034 994 3034 1497 
Q 3034 2003 2786 2293 
Q 2538 2584 2113 2584 
z
M 3366 4563 
L 3366 3988 
Q 3128 4100 2886 4159 
Q 2644 4219 2406 4219 
Q 1781 4219 1451 3797 
Q 1122 3375 1075 2522 
Q 1259 2794 1537 2939 
Q 1816 3084 2150 3084 
Q 2853 3084 3261 2657 
Q 3669 2231 3669 1497 
Q 3669 778 3244 343 
Q 2819 -91 2113 -91 
Q 1303 -91 875 529 
Q 447 1150 447 2328 
Q 447 3434 972 4092 
Q 1497 4750 2381 4750 
Q 2619 4750 2861 4703 
Q 3103 4656 3366 4563 
z
" transform="scale(0.015625)"/>
       </defs>
       <use xlink:href="#DejaVuSans-36"/>
       <use xlink:href="#DejaVuSans-20" transform="translate(63.623047 0)"/>
       <use xlink:href="#DejaVuSans-4c" transform="translate(95.410156 0)"/>
       <use xlink:href="#DejaVuSans-61" transform="translate(151.123047 0)"/>
       <use xlink:href="#DejaVuSans-6d" transform="translate(212.402344 0)"/>
       <use xlink:href="#DejaVuSans-70" transform="translate(309.814453 0)"/>
       <use xlink:href="#DejaVuSans-6f" transform="translate(373.291016 0)"/>
       <use xlink:href="#DejaVuSans-72" transform="translate(434.472656 0)"/>
       <use xlink:href="#DejaVuSans-74" transform="translate(475.585938 0)"/>
      </g>
     </g>
    </g>
    <g id="xtick_5">
     <g id="line2d_9">
      <path d="M 1027.472871 652.666933 
L 1027.472871 42.5696 
" clip-path="url(#pd68771e7ba)" style="fill: none; stroke: #b0b0b0; stroke-width: 0.8; stroke-linecap: square"/>
     </g>
     <g id="line2d_10">
      <g>
       <use xlink:href="#m35e8d6b2aa" x="1027.472871" y="652.666933" style="stroke: #000000; stroke-width: 0.8"/>
      </g>
     </g>
     <g id="text_5">
      <!-- 8 Lamport -->
      <g transform="translate(1001.733027 667.265371) scale(0.1 -0.1)">
       <defs>
        <path id="DejaVuSans-38" d="M 2034 2216 
Q 1584 2216 1326 1975 
Q 1069 1734 1069 1313 
Q 1069 891 1326 650 
Q 1584 409 2034 409 
Q 2484 409 2743 651 
Q 3003 894 3003 1313 
Q 3003 1734 2745 1975 
Q 2488 2216 2034 2216 
z
M 1403 2484 
Q 997 2584 770 2862 
Q 544 3141 544 3541 
Q 544 4100 942 4425 
Q 1341 4750 2034 4750 
Q 2731 4750 3128 4425 
Q 3525 4100 3525 3541 
Q 3525 3141 3298 2862 
Q 3072 2584 2669 2484 
Q 3125 2378 3379 2068 
Q 3634 1759 3634 1313 
Q 3634 634 3220 271 
Q 2806 -91 2034 -91 
Q 1263 -91 848 271 
Q 434 634 434 1313 
Q 434 1759 690 2068 
Q 947 2378 1403 2484 
z
M 1172 3481 
Q 1172 3119 1398 2916 
Q 1625 2713 2034 2713 
Q 2441 2713 2670 2916 
Q 2900 3119 2900 3481 
Q 2900 3844 2670 4047 
Q 2441 4250 2034 4250 
Q 1625 4250 1398 4047 
Q 1172 3844 1172 3481 
z
" transform="scale(0.015625)"/>
       </defs>
       <use xlink:href="#DejaVuSans-38"/>
       <use xlink:href="#DejaVuSans-20" transform="translate(63.623047 0)"/>
       <use xlink:href="#DejaVuSans-4c" transform="translate(95.410156 0)"/>
       <use xlink:href="#DejaVuSans-61" transform="translate(151.123047 0)"/>
       <use xlink:href="#DejaVuSans-6d" transform="translate(212.402344 0)"/>
       <use xlink:href="#DejaVuSans-70" transform="translate(309.814453 0)"/>
       <use xlink:href="#DejaVuSans-6f" transform="translate(373.291016 0)"/>
       <use xlink:href="#DejaVuSans-72" transform="translate(434.472656 0)"/>
       <use xlink:href="#DejaVuSans-74" transform="translate(475.585938 0)"/>
      </g>
     </g>
    </g>
    <g id="xtick_6">
     <g id="line2d_11">
      <path d="M 1238.997088 652.666933 
L 1238.997088 42.5696 
" clip-path="url(#pd68771e7ba)" style="fill: none; stroke: #b0b0b0; stroke-width: 0.8; stroke-linecap: square"/>
     </g>
     <g id="line2d_12">
      <g>
       <use xlink:href="#m35e8d6b2aa" x="1238.997088" y="652.666933" style="stroke: #000000; stroke-width: 0.8"/>
      </g>
     </g>
     <g id="text_6">
      <!-- 10 Lamport -->
      <g transform="translate(1210.075995 667.265371) scale(0.1 -0.1)">
       <defs>
        <path id="DejaVuSans-31" d="M 794 531 
L 1825 531 
L 1825 4091 
L 703 3866 
L 703 4441 
L 1819 4666 
L 2450 4666 
L 2450 531 
L 3481 531 
L 3481 0 
L 794 0 
L 794 531 
z
" transform="scale(0.015625)"/>
       </defs>
       <use xlink:href="#DejaVuSans-31"/>
       <use xlink:href="#DejaVuSans-30" transform="translate(63.623047 0)"/>
       <use xlink:href="#DejaVuSans-20" transform="translate(127.246094 0)"/>
       <use xlink:href="#DejaVuSans-4c" transform="translate(159.033203 0)"/>
       <use xlink:href="#DejaVuSans-61" transform="translate(214.746094 0)"/>
       <use xlink:href="#DejaVuSans-6d" transform="translate(276.025391 0)"/>
       <use xlink:href="#DejaVuSans-70" transform="translate(373.4375 0)"/>
       <use xlink:href="#DejaVuSans-6f" transform="translate(436.914062 0)"/>
       <use xlink:href="#DejaVuSans-72" transform="translate(498.095703 0)"/>
       <use xlink:href="#DejaVuSans-74" transform="translate(539.208984 0)"/>
      </g>
     </g>
    </g>
    <g id="xtick_7">
     <g id="line2d_13">
      <path d="M 1450.521306 652.666933 
L 1450.521306 42.5696 
" clip-path="url(#pd68771e7ba)" style="fill: none; stroke: #b0b0b0; stroke-width: 0.8; stroke-linecap: square"/>
     </g>
     <g id="line2d_14">
      <g>
       <use xlink:href="#m35e8d6b2aa" x="1450.521306" y="652.666933" style="stroke: #000000; stroke-width: 0.8"/>
      </g>
     </g>
     <g id="text_7">
      <!-- 12 Lamport -->
      <g transform="translate(1421.600212 667.265371) scale(0.1 -0.1)">
       <use xlink:href="#DejaVuSans-31"/>
       <use xlink:href="#DejaVuSans-32" transform="translate(63.623047 0)"/>
       <use xlink:href="#DejaVuSans-20" transform="translate(127.246094 0)"/>
       <use xlink:href="#DejaVuSans-4c" transform="translate(159.033203 0)"/>
       <use xlink:href="#DejaVuSans-61" transform="translate(214.746094 0)"/>
       <use xlink:href="#DejaVuSans-6d" transform="translate(276.025391 0)"/>
       <use xlink:href="#DejaVuSans-70" transform="translate(373.4375 0)"/>
       <use xlink:href="#DejaVuSans-6f" transform="translate(436.914062 0)"/>
       <use xlink:href="#DejaVuSans-72" transform="translate(498.095703 0)"/>
       <use xlink:href="#DejaVuSans-74" transform="translate(539.208984 0)"/>
      </g>
     </g>
    </g>
    <g id="text_8">
     <!-- Priority Price -->
     <g transform="translate(860.51534 680.943496) scale(0.1 -0.1)">
      <defs>
       <path id="DejaVuSans-50" d="M 1259 4147 
L 1259 2394 
L 2053 2394 
Q 2494 2394 2734 2622 
Q 2975 2850 2975 3272 
Q 2975 3691 2734 3919 
Q 2494 4147 2053 4147 
L 1259 4147 
z
M 628 4666 
L 2053 4666 
Q 2838 4666 3239 4311 
Q 3641 3956 3641 3272 
Q 3641 2581 3239 2228 
Q 2838 1875 2053 1875 
L 1259 1875 
L 1259 0 
L 628 0 
L 628 4666 
z
" transform="scale(0.015625)"/>
       <path id="DejaVuSans-69" d="M 603 3500 
L 1178 3500 
L 1178 0 
L 603 0 
L 603 3500 
z
M 603 4863 
L 1178 4863 
L 1178 4134 
L 603 4134 
L 603 4863 
z
" transform="scale(0.015625)"/>
       <path id="DejaVuSans-79" d="M 2059 -325 
Q 1816 -950 1584 -1140 
Q 1353 -1331 966 -1331 
L 506 -1331 
L 506 -850 
L 844 -850 
Q 1081 -850 1212 -737 
Q 1344 -625 1503 -206 
L 1606 56 
L 191 3500 
L 800 3500 
L 1894 763 
L 2988 3500 
L 3597 3500 
L 2059 -325 
z
" transform="scale(0.015625)"/>
       <path id="DejaVuSans-63" d="M 3122 3366 
L 3122 2828 
Q 2878 2963 2633 3030 
Q 2388 3097 2138 3097 
Q 1578 3097 1268 2742 
Q 959 2388 959 1747 
Q 959 1106 1268 751 
Q 1578 397 2138 397 
Q 2388 397 2633 464 
Q 2878 531 3122 666 
L 3122 134 
Q 2881 22 2623 -34 
Q 2366 -91 2075 -91 
Q 1284 -91 818 406 
Q 353 903 353 1747 
Q 353 2603 823 3093 
Q 1294 3584 2113 3584 
Q 2378 3584 2631 3529 
Q 2884 3475 3122 3366 
z
" transform="scale(0.015625)"/>
       <path id="DejaVuSans-65" d="M 3597 1894 
L 3597 1613 
L 953 1613 
Q 991 1019 1311 708 
Q 1631 397 2203 397 
Q 2534 397 2845 478 
Q 3156 559 3463 722 
L 3463 178 
Q 3153 47 2828 -22 
Q 2503 -91 2169 -91 
Q 1331 -91 842 396 
Q 353 884 353 1716 
Q 353 2575 817 3079 
Q 1281 3584 2069 3584 
Q 2775 3584 3186 3129 
Q 3597 2675 3597 1894 
z
M 3022 2063 
Q 3016 2534 2758 2815 
Q 2500 3097 2075 3097 
Q 1594 3097 1305 2825 
Q 1016 2553 972 2059 
L 3022 2063 
z
" transform="scale(0.015625)"/>
      </defs>
      <use xlink:href="#DejaVuSans-50"/>
      <use xlink:href="#DejaVuSans-72" transform="translate(58.552734 0)"/>
      <use xlink:href="#DejaVuSans-69" transform="translate(99.666016 0)"/>
      <use xlink:href="#DejaVuSans-6f" transform="translate(127.449219 0)"/>
      <use xlink:href="#DejaVuSans-72" transform="translate(188.630859 0)"/>
      <use xlink:href="#DejaVuSans-69" transform="translate(229.744141 0)"/>
      <use xlink:href="#DejaVuSans-74" transform="translate(257.527344 0)"/>
      <use xlink:href="#DejaVuSans-79" transform="translate(296.736328 0)"/>
      <use xlink:href="#DejaVuSans-20" transform="translate(355.916016 0)"/>
      <use xlink:href="#DejaVuSans-50" transform="translate(387.703125 0)"/>
      <use xlink:href="#DejaVuSans-72" transform="translate(446.255859 0)"/>
      <use xlink:href="#DejaVuSans-69" transform="translate(487.369141 0)"/>
      <use xlink:href="#DejaVuSans-63" transform="translate(515.152344 0)"/>
      <use xlink:href="#DejaVuSans-65" transform="translate(570.132812 0)"/>
     </g>
    </g>
   </g>
   <g id="matplotlib.axis_2">
    <g id="ytick_1">
     <g id="line2d_15">
      <path d="M 181.376 624.935236 
L 1602.818743 624.935236 
" clip-path="url(#pd68771e7ba)" style="fill: none; stroke: #b0b0b0; stroke-width: 0.8; stroke-linecap: square"/>
     </g>
     <g id="line2d_16">
      <defs>
       <path id="mdf9f39b2aa" d="M 0 0 
L -3.5 0 
" style="stroke: #000000; stroke-width: 0.8"/>
      </defs>
      <g>
       <use xlink:href="#mdf9f39b2aa" x="181.376" y="624.935236" style="stroke: #000000; stroke-width: 0.8"/>
      </g>
     </g>
     <g id="text_9">
      <!-- 0 µSOL -->
      <g transform="translate(138.680688 628.734455) scale(0.1 -0.1)">
       <defs>
        <path id="DejaVuSans-53" d="M 3425 4513 
L 3425 3897 
Q 3066 4069 2747 4153 
Q 2428 4238 2131 4238 
Q 1616 4238 1336 4038 
Q 1056 3838 1056 3469 
Q 1056 3159 1242 3001 
Q 1428 2844 1947 2747 
L 2328 2669 
Q 3034 2534 3370 2195 
Q 3706 1856 3706 1288 
Q 3706 609 3251 259 
Q 2797 -91 1919 -91 
Q 1588 -91 1214 -16 
Q 841 59 441 206 
L 441 856 
Q 825 641 1194 531 
Q 1563 422 1919 422 
Q 2459 422 2753 634 
Q 3047 847 3047 1241 
Q 3047 1584 2836 1778 
Q 2625 1972 2144 2069 
L 1759 2144 
Q 1053 2284 737 2584 
Q 422 2884 422 3419 
Q 422 4038 858 4394 
Q 1294 4750 2059 4750 
Q 2388 4750 2728 4690 
Q 3069 4631 3425 4513 
z
" transform="scale(0.015625)"/>
        <path id="DejaVuSans-4f" d="M 2522 4238 
Q 1834 4238 1429 3725 
Q 1025 3213 1025 2328 
Q 1025 1447 1429 934 
Q 1834 422 2522 422 
Q 3209 422 3611 934 
Q 4013 1447 4013 2328 
Q 4013 3213 3611 3725 
Q 3209 4238 2522 4238 
z
M 2522 4750 
Q 3503 4750 4090 4092 
Q 4678 3434 4678 2328 
Q 4678 1225 4090 567 
Q 3503 -91 2522 -91 
Q 1538 -91 948 565 
Q 359 1222 359 2328 
Q 359 3434 948 4092 
Q 1538 4750 2522 4750 
z
" transform="scale(0.015625)"/>
       </defs>
       <use xlink:href="#DejaVuSans-30"/>
       <use xlink:href="#DejaVuSans-20" transform="translate(63.623047 0)"/>
       <use xlink:href="#DejaVuSans-b5" transform="translate(95.410156 0)"/>
       <use xlink:href="#DejaVuSans-53" transform="translate(159.033203 0)"/>
       <use xlink:href="#DejaVuSans-4f" transform="translate(222.509766 0)"/>
       <use xlink:href="#DejaVuSans-4c" transform="translate(301.220703 0)"/>
      </g>
     </g>
    </g>
    <g id="ytick_2">
     <g id="line2d_17">
      <path d="M 181.376 526.504785 
L 1602.818743 526.504785 
" clip-path="url(#pd68771e7ba)" style="fill: none; stroke: #b0b0b0; stroke-width: 0.8; stroke-linecap: square"/>
     </g>
     <g id="line2d_18">
      <g>
       <use xlink:href="#mdf9f39b2aa" x="181.376" y="526.504785" style="stroke: #000000; stroke-width: 0.8"/>
      </g>
     </g>
     <g id="text_10">
      <!-- 1 mSOL -->
      <g transform="translate(135.302562 530.304004) scale(0.1 -0.1)">
       <use xlink:href="#DejaVuSans-31"/>
       <use xlink:href="#DejaVuSans-20" transform="translate(63.623047 0)"/>
       <use xlink:href="#DejaVuSans-6d" transform="translate(95.410156 0)"/>
       <use xlink:href="#DejaVuSans-53" transform="translate(192.822266 0)"/>
       <use xlink:href="#DejaVuSans-4f" transform="translate(256.298828 0)"/>
       <use xlink:href="#DejaVuSans-4c" transform="translate(335.009766 0)"/>
      </g>
     </g>
    </g>
    <g id="ytick_3">
     <g id="line2d_19">
      <path d="M 181.376 428.074333 
L 1602.818743 428.074333 
" clip-path="url(#pd68771e7ba)" style="fill: none; stroke: #b0b0b0; stroke-width: 0.8; stroke-linecap: square"/>
     </g>
     <g id="line2d_20">
      <g>
       <use xlink:href="#mdf9f39b2aa" x="181.376" y="428.074333" style="stroke: #000000; stroke-width: 0.8"/>
      </g>
     </g>
     <g id="text_11">
      <!-- 2 mSOL -->
      <g transform="translate(135.302562 431.873552) scale(0.1 -0.1)">
       <use xlink:href="#DejaVuSans-32"/>
       <use xlink:href="#DejaVuSans-20" transform="translate(63.623047 0)"/>
       <use xlink:href="#DejaVuSans-6d" transform="translate(95.410156 0)"/>
       <use xlink:href="#DejaVuSans-53" transform="translate(192.822266 0)"/>
       <use xlink:href="#DejaVuSans-4f" transform="translate(256.298828 0)"/>
       <use xlink:href="#DejaVuSans-4c" transform="translate(335.009766 0)"/>
      </g>
     </g>
    </g>
    <g id="ytick_4">
     <g id="line2d_21">
      <path d="M 181.376 329.643882 
L 1602.818743 329.643882 
" clip-path="url(#pd68771e7ba)" style="fill: none; stroke: #b0b0b0; stroke-width: 0.8; stroke-linecap: square"/>
     </g>
     <g id="line2d_22">
      <g>
       <use xlink:href="#mdf9f39b2aa" x="181.376" y="329.643882" style="stroke: #000000; stroke-width: 0.8"/>
      </g>
     </g>
     <g id="text_12">
      <!-- 3 mSOL -->
      <g transform="translate(135.302562 333.443101) scale(0.1 -0.1)">
       <defs>
        <path id="DejaVuSans-33" d="M 2597 2516 
Q 3050 2419 3304 2112 
Q 3559 1806 3559 1356 
Q 3559 666 3084 287 
Q 2609 -91 1734 -91 
Q 1441 -91 1130 -33 
Q 819 25 488 141 
L 488 750 
Q 750 597 1062 519 
Q 1375 441 1716 441 
Q 2309 441 2620 675 
Q 2931 909 2931 1356 
Q 2931 1769 2642 2001 
Q 2353 2234 1838 2234 
L 1294 2234 
L 1294 2753 
L 1863 2753 
Q 2328 2753 2575 2939 
Q 2822 3125 2822 3475 
Q 2822 3834 2567 4026 
Q 2313 4219 1838 4219 
Q 1578 4219 1281 4162 
Q 984 4106 628 3988 
L 628 4550 
Q 988 4650 1302 4700 
Q 1616 4750 1894 4750 
Q 2613 4750 3031 4423 
Q 3450 4097 3450 3541 
Q 3450 3153 3228 2886 
Q 3006 2619 2597 2516 
z
" transform="scale(0.015625)"/>
       </defs>
       <use xlink:href="#DejaVuSans-33"/>
       <use xlink:href="#DejaVuSans-20" transform="translate(63.623047 0)"/>
       <use xlink:href="#DejaVuSans-6d" transform="translate(95.410156 0)"/>
       <use xlink:href="#DejaVuSans-53" transform="translate(192.822266 0)"/>
       <use xlink:href="#DejaVuSans-4f" transform="translate(256.298828 0)"/>
       <use xlink:href="#DejaVuSans-4c" transform="translate(335.009766 0)"/>
      </g>
     </g>
    </g>
    <g id="ytick_5">
     <g id="line2d_23">
      <path d="M 181.376 231.21343 
L 1602.818743 231.21343 
" clip-path="url(#pd68771e7ba)" style="fill: none; stroke: #b0b0b0; stroke-width: 0.8; stroke-linecap: square"/>
     </g>
     <g id="line2d_24">
      <g>
       <use xlink:href="#mdf9f39b2aa" x="181.376" y="231.21343" style="stroke: #000000; stroke-width: 0.8"/>
      </g>
     </g>
     <g id="text_13">
      <!-- 4 mSOL -->
      <g transform="translate(135.302562 235.012649) scale(0.1 -0.1)">
       <use xlink:href="#DejaVuSans-34"/>
       <use xlink:href="#DejaVuSans-20" transform="translate(63.623047 0)"/>
       <use xlink:href="#DejaVuSans-6d" transform="translate(95.410156 0)"/>
       <use xlink:href="#DejaVuSans-53" transform="translate(192.822266 0)"/>
       <use xlink:href="#DejaVuSans-4f" transform="translate(256.298828 0)"/>
       <use xlink:href="#DejaVuSans-4c" transform="translate(335.009766 0)"/>
      </g>
     </g>
    </g>
    <g id="ytick_6">
     <g id="line2d_25">
      <path d="M 181.376 132.782979 
L 1602.818743 132.782979 
" clip-path="url(#pd68771e7ba)" style="fill: none; stroke: #b0b0b0; stroke-width: 0.8; stroke-linecap: square"/>
     </g>
     <g id="line2d_26">
      <g>
       <use xlink:href="#mdf9f39b2aa" x="181.376" y="132.782979" style="stroke: #000000; stroke-width: 0.8"/>
      </g>
     </g>
     <g id="text_14">
      <!-- 5 mSOL -->
      <g transform="translate(135.302562 136.582198) scale(0.1 -0.1)">
       <defs>
        <path id="DejaVuSans-35" d="M 691 4666 
L 3169 4666 
L 3169 4134 
L 1269 4134 
L 1269 2991 
Q 1406 3038 1543 3061 
Q 1681 3084 1819 3084 
Q 2600 3084 3056 2656 
Q 3513 2228 3513 1497 
Q 3513 744 3044 326 
Q 2575 -91 1722 -91 
Q 1428 -91 1123 -41 
Q 819 9 494 109 
L 494 744 
Q 775 591 1075 516 
Q 1375 441 1709 441 
Q 2250 441 2565 725 
Q 2881 1009 2881 1497 
Q 2881 1984 2565 2268 
Q 2250 2553 1709 2553 
Q 1456 2553 1204 2497 
Q 953 2441 691 2322 
L 691 4666 
z
" transform="scale(0.015625)"/>
       </defs>
       <use xlink:href="#DejaVuSans-35"/>
       <use xlink:href="#DejaVuSans-20" transform="translate(63.623047 0)"/>
       <use xlink:href="#DejaVuSans-6d" transform="translate(95.410156 0)"/>
       <use xlink:href="#DejaVuSans-53" transform="translate(192.822266 0)"/>
       <use xlink:href="#DejaVuSans-4f" transform="translate(256.298828 0)"/>
       <use xlink:href="#DejaVuSans-4c" transform="translate(335.009766 0)"/>
      </g>
     </g>
    </g>
    <g id="text_15">
     <!-- Total Cost -->
     <g transform="translate(129.222875 371.999517) rotate(-90) scale(0.1 -0.1)">
      <defs>
       <path id="DejaVuSans-54" d="M -19 4666 
L 3928 4666 
L 3928 4134 
L 2272 4134 
L 2272 0 
L 1638 0 
L 1638 4134 
L -19 4134 
L -19 4666 
z
" transform="scale(0.015625)"/>
       <path id="DejaVuSans-6c" d="M 603 4863 
L 1178 4863 
L 1178 0 
L 603 0 
L 603 4863 
z
" transform="scale(0.015625)"/>
       <path id="DejaVuSans-43" d="M 4122 4306 
L 4122 3641 
Q 3803 3938 3442 4084 
Q 3081 4231 2675 4231 
Q 1875 4231 1450 3742 
Q 1025 3253 1025 2328 
Q 1025 1406 1450 917 
Q 1875 428 2675 428 
Q 3081 428 3442 575 
Q 3803 722 4122 1019 
L 4122 359 
Q 3791 134 3420 21 
Q 3050 -91 2638 -91 
Q 1578 -91 968 557 
Q 359 1206 359 2328 
Q 359 3453 968 4101 
Q 1578 4750 2638 4750 
Q 3056 4750 3426 4639 
Q 3797 4528 4122 4306 
z
" transform="scale(0.015625)"/>
       <path id="DejaVuSans-73" d="M 2834 3397 
L 2834 2853 
Q 2591 2978 2328 3040 
Q 2066 3103 1784 3103 
Q 1356 3103 1142 2972 
Q 928 2841 928 2578 
Q 928 2378 1081 2264 
Q 1234 2150 1697 2047 
L 1894 2003 
Q 2506 1872 2764 1633 
Q 3022 1394 3022 966 
Q 3022 478 2636 193 
Q 2250 -91 1575 -91 
Q 1294 -91 989 -36 
Q 684 19 347 128 
L 347 722 
Q 666 556 975 473 
Q 1284 391 1588 391 
Q 1994 391 2212 530 
Q 2431 669 2431 922 
Q 2431 1156 2273 1281 
Q 2116 1406 1581 1522 
L 1381 1569 
Q 847 1681 609 1914 
Q 372 2147 372 2553 
Q 372 3047 722 3315 
Q 1072 3584 1716 3584 
Q 2034 3584 2315 3537 
Q 2597 3491 2834 3397 
z
" transform="scale(0.015625)"/>
      </defs>
      <use xlink:href="#DejaVuSans-54"/>
      <use xlink:href="#DejaVuSans-6f" transform="translate(44.083984 0)"/>
      <use xlink:href="#DejaVuSans-74" transform="translate(105.265625 0)"/>
      <use xlink:href="#DejaVuSans-61" transform="translate(144.474609 0)"/>
      <use xlink:href="#DejaVuSans-6c" transform="translate(205.753906 0)"/>
      <use xlink:href="#DejaVuSans-20" transform="translate(233.537109 0)"/>
      <use xlink:href="#DejaVuSans-43" transform="translate(265.324219 0)"/>
      <use xlink:href="#DejaVuSans-6f" transform="translate(335.148438 0)"/>
      <use xlink:href="#DejaVuSans-73" transform="translate(396.330078 0)"/>
      <use xlink:href="#DejaVuSans-74" transform="translate(448.429688 0)"/>
     </g>
    </g>
   </g>
   <g id="line2d_27">
    <path d="M 181.376 243.588894 
L 1450.521306 70.301297 
L 1450.521306 70.301297 
" clip-path="url(#pd68771e7ba)" style="fill: none; stroke: #008000; stroke-width: 4; stroke-linecap: square"/>
   </g>
   <g id="line2d_28">
    <path d="M 181.376 623.454842 
L 1450.521306 224.359128 
L 1450.521306 224.359128 
" clip-path="url(#pd68771e7ba)" style="fill: none; stroke: #0000ff; stroke-width: 4; stroke-linecap: square"/>
   </g>
   <g id="line2d_29">
    <path d="M 181.376 624.935236 
L 1450.521306 561.840923 
L 1450.521306 561.840923 
" clip-path="url(#pd68771e7ba)" style="fill: none; stroke: #ffd700; stroke-width: 4; stroke-linecap: square"/>
   </g>
   <g id="line2d_30">
    <path d="M 181.376 624.935236 
L 1450.521306 585.510297 
L 1450.521306 585.510297 
" clip-path="url(#pd68771e7ba)" style="fill: none; stroke: #ff0000; stroke-width: 4; stroke-linecap: square"/>
   </g>
   <g id="line2d_31">
    <path d="M 1238.997088 652.666933 
L 1238.997088 42.5696 
" clip-path="url(#pd68771e7ba)" style="fill: none; stroke-dasharray: 3.7,1.6; stroke-dashoffset: 0; stroke: #ff0000"/>
   </g>
   <g id="patch_3">
    <path d="M 181.376 652.666933 
L 181.376 42.5696 
" style="fill: none; stroke: #000000; stroke-width: 0.8; stroke-linejoin: miter; stroke-linecap: square"/>
   </g>
   <g id="patch_4">
    <path d="M 1602.818743 652.666933 
L 1602.818743 42.5696 
" style="fill: none; stroke: #000000; stroke-width: 0.8; stroke-linejoin: miter; stroke-linecap: square"/>
   </g>
   <g id="patch_5">
    <path d="M 181.376 652.666933 
L 1602.818743 652.666933 
" style="fill: none; stroke: #000000; stroke-width: 0.8; stroke-linejoin: miter; stroke-linecap: square"/>
   </g>
   <g id="patch_6">
    <path d="M 181.376 42.5696 
L 1602.818743 42.5696 
" style="fill: none; stroke: #000000; stroke-width: 0.8; stroke-linejoin: miter; stroke-linecap: square"/>
   </g>
   <g id="text_16">
    <!-- old core -->
    <g transform="translate(1454.328742 67.177813) scale(0.11 -0.11)">
     <defs>
      <path id="DejaVuSans-64" d="M 2906 2969 
L 2906 4863 
L 3481 4863 
L 3481 0 
L 2906 0 
L 2906 525 
Q 2725 213 2448 61 
Q 2172 -91 1784 -91 
Q 1150 -91 751 415 
Q 353 922 353 1747 
Q 353 2572 751 3078 
Q 1150 3584 1784 3584 
Q 2172 3584 2448 3432 
Q 2725 3281 2906 2969 
z
M 947 1747 
Q 947 1113 1208 752 
Q 1469 391 1925 391 
Q 2381 391 2643 752 
Q 2906 1113 2906 1747 
Q 2906 2381 2643 2742 
Q 2381 3103 1925 3103 
Q 1469 3103 1208 2742 
Q 947 2381 947 1747 
z
" transform="scale(0.015625)"/>
     </defs>
     <use xlink:href="#DejaVuSans-6f"/>
     <use xlink:href="#DejaVuSans-6c" transform="translate(61.181641 0)"/>
     <use xlink:href="#DejaVuSans-64" transform="translate(88.964844 0)"/>
     <use xlink:href="#DejaVuSans-20" transform="translate(152.441406 0)"/>
     <use xlink:href="#DejaVuSans-63" transform="translate(184.228516 0)"/>
     <use xlink:href="#DejaVuSans-6f" transform="translate(239.208984 0)"/>
     <use xlink:href="#DejaVuSans-72" transform="translate(300.390625 0)"/>
     <use xlink:href="#DejaVuSans-65" transform="translate(339.253906 0)"/>
    </g>
    <!-- 4 txs -->
    <g transform="translate(1454.328742 79.495406) scale(0.11 -0.11)">
     <defs>
      <path id="DejaVuSans-78" d="M 3513 3500 
L 2247 1797 
L 3578 0 
L 2900 0 
L 1881 1375 
L 863 0 
L 184 0 
L 1544 1831 
L 300 3500 
L 978 3500 
L 1906 2253 
L 2834 3500 
L 3513 3500 
z
" transform="scale(0.015625)"/>
     </defs>
     <use xlink:href="#DejaVuSans-34"/>
     <use xlink:href="#DejaVuSans-20" transform="translate(63.623047 0)"/>
     <use xlink:href="#DejaVuSans-74" transform="translate(95.410156 0)"/>
     <use xlink:href="#DejaVuSans-78" transform="translate(134.619141 0)"/>
     <use xlink:href="#DejaVuSans-73" transform="translate(193.798828 0)"/>
    </g>
   </g>
   <g id="patch_7">
    <path d="M 321.660272 568.522966 
Q 315.94549 575.175748 310.813523 581.150055 
" style="fill: none; stroke: #000000; stroke-width: 0.8; stroke-linecap: round"/>
    <path d="M 314.937062 579.419036 
L 310.813523 581.150055 
L 311.902831 576.812613 
" style="fill: none; stroke: #000000; stroke-width: 0.8; stroke-linecap: round"/>
   </g>
   <g id="text_17">
    <g id="patch_8">
     <path d="M 308.981173 566.754013 
L 349.128048 566.754013 
Q 351.128048 566.754013 351.128048 564.754013 
L 351.128048 555.075888 
Q 351.128048 553.075888 349.128048 553.075888 
L 308.981173 553.075888 
Q 306.981173 553.075888 306.981173 555.075888 
L 306.981173 564.754013 
Q 306.981173 566.754013 308.981173 566.754013 
z
" style="fill: #ffffff; stroke: #808080; stroke-width: 0.5; stroke-linejoin: miter"/>
    </g>
    <!-- ↓89.6% -->
    <g style="fill: #006400" transform="translate(308.981173 562.674325) scale(0.1 -0.1)">
     <defs>
      <path id="DejaVuSans-2193" d="M 2822 -22 
L 2541 -22 
L 1309 1209 
L 1684 1584 
L 2416 853 
L 2416 4666 
L 2947 4666 
L 2947 853 
L 3672 1584 
L 4047 1209 
L 2822 -22 
z
" transform="scale(0.015625)"/>
      <path id="DejaVuSans-39" d="M 703 97 
L 703 672 
Q 941 559 1184 500 
Q 1428 441 1663 441 
Q 2288 441 2617 861 
Q 2947 1281 2994 2138 
Q 2813 1869 2534 1725 
Q 2256 1581 1919 1581 
Q 1219 1581 811 2004 
Q 403 2428 403 3163 
Q 403 3881 828 4315 
Q 1253 4750 1959 4750 
Q 2769 4750 3195 4129 
Q 3622 3509 3622 2328 
Q 3622 1225 3098 567 
Q 2575 -91 1691 -91 
Q 1453 -91 1209 -44 
Q 966 3 703 97 
z
M 1959 2075 
Q 2384 2075 2632 2365 
Q 2881 2656 2881 3163 
Q 2881 3666 2632 3958 
Q 2384 4250 1959 4250 
Q 1534 4250 1286 3958 
Q 1038 3666 1038 3163 
Q 1038 2656 1286 2365 
Q 1534 2075 1959 2075 
z
" transform="scale(0.015625)"/>
      <path id="DejaVuSans-2e" d="M 684 794 
L 1344 794 
L 1344 0 
L 684 0 
L 684 794 
z
" transform="scale(0.015625)"/>
      <path id="DejaVuSans-25" d="M 4653 2053 
Q 4381 2053 4226 1822 
Q 4072 1591 4072 1178 
Q 4072 772 4226 539 
Q 4381 306 4653 306 
Q 4919 306 5073 539 
Q 5228 772 5228 1178 
Q 5228 1588 5073 1820 
Q 4919 2053 4653 2053 
z
M 4653 2450 
Q 5147 2450 5437 2106 
Q 5728 1763 5728 1178 
Q 5728 594 5436 251 
Q 5144 -91 4653 -91 
Q 4153 -91 3862 251 
Q 3572 594 3572 1178 
Q 3572 1766 3864 2108 
Q 4156 2450 4653 2450 
z
M 1428 4353 
Q 1159 4353 1004 4120 
Q 850 3888 850 3481 
Q 850 3069 1003 2837 
Q 1156 2606 1428 2606 
Q 1700 2606 1854 2837 
Q 2009 3069 2009 3481 
Q 2009 3884 1853 4118 
Q 1697 4353 1428 4353 
z
M 4250 4750 
L 4750 4750 
L 1831 -91 
L 1331 -91 
L 4250 4750 
z
M 1428 4750 
Q 1922 4750 2215 4408 
Q 2509 4066 2509 3481 
Q 2509 2891 2217 2550 
Q 1925 2209 1428 2209 
Q 931 2209 642 2551 
Q 353 2894 353 3481 
Q 353 4063 643 4406 
Q 934 4750 1428 4750 
z
" transform="scale(0.015625)"/>
     </defs>
     <use xlink:href="#DejaVuSans-2193"/>
     <use xlink:href="#DejaVuSans-38" transform="translate(83.789062 0)"/>
     <use xlink:href="#DejaVuSans-39" transform="translate(147.412109 0)"/>
     <use xlink:href="#DejaVuSans-2e" transform="translate(211.035156 0)"/>
     <use xlink:href="#DejaVuSans-36" transform="translate(242.822266 0)"/>
     <use xlink:href="#DejaVuSans-25" transform="translate(306.445312 0)"/>
    </g>
   </g>
   <g id="patch_9">
    <path d="M 576.764856 488.302721 
Q 571.050075 494.955504 565.918107 500.929811 
" style="fill: none; stroke: #000000; stroke-width: 0.8; stroke-linecap: round"/>
    <path d="M 570.041646 499.198792 
L 565.918107 500.929811 
L 567.007415 496.592369 
" style="fill: none; stroke: #000000; stroke-width: 0.8; stroke-linecap: round"/>
   </g>
   <g id="text_18">
    <g id="patch_10">
     <path d="M 564.085757 486.533769 
L 604.232632 486.533769 
Q 606.232632 486.533769 606.232632 484.533769 
L 606.232632 474.855644 
Q 606.232632 472.855644 604.232632 472.855644 
L 564.085757 472.855644 
Q 562.085757 472.855644 562.085757 474.855644 
L 562.085757 484.533769 
Q 562.085757 486.533769 564.085757 486.533769 
z
" style="fill: #ffffff; stroke: #808080; stroke-width: 0.5; stroke-linejoin: miter"/>
    </g>
    <!-- ↓71.9% -->
    <g style="fill: #006400" transform="translate(564.085757 482.454081) scale(0.1 -0.1)">
     <defs>
      <path id="DejaVuSans-37" d="M 525 4666 
L 3525 4666 
L 3525 4397 
L 1831 0 
L 1172 0 
L 2766 4134 
L 525 4134 
L 525 4666 
z
" transform="scale(0.015625)"/>
     </defs>
     <use xlink:href="#DejaVuSans-2193"/>
     <use xlink:href="#DejaVuSans-37" transform="translate(83.789062 0)"/>
     <use xlink:href="#DejaVuSans-31" transform="translate(147.412109 0)"/>
     <use xlink:href="#DejaVuSans-2e" transform="translate(211.035156 0)"/>
     <use xlink:href="#DejaVuSans-39" transform="translate(242.822266 0)"/>
     <use xlink:href="#DejaVuSans-25" transform="translate(306.445312 0)"/>
    </g>
   </g>
   <g id="patch_11">
    <path d="M 831.86944 408.082477 
Q 826.154659 414.735259 821.022691 420.709567 
" style="fill: none; stroke: #000000; stroke-width: 0.8; stroke-linecap: round"/>
    <path d="M 825.14623 418.978548 
L 821.022691 420.709567 
L 822.111999 416.372124 
" style="fill: none; stroke: #000000; stroke-width: 0.8; stroke-linecap: round"/>
   </g>
   <g id="text_19">
    <g id="patch_12">
     <path d="M 819.190341 406.313525 
L 859.337216 406.313525 
Q 861.337216 406.313525 861.337216 404.313525 
L 861.337216 394.6354 
Q 861.337216 392.6354 859.337216 392.6354 
L 819.190341 392.6354 
Q 817.190341 392.6354 817.190341 394.6354 
L 817.190341 404.313525 
Q 817.190341 406.313525 819.190341 406.313525 
z
" style="fill: #ffffff; stroke: #808080; stroke-width: 0.5; stroke-linejoin: miter"/>
    </g>
    <!-- ↓56.9% -->
    <g style="fill: #006400" transform="translate(819.190341 402.233837) scale(0.1 -0.1)">
     <use xlink:href="#DejaVuSans-2193"/>
     <use xlink:href="#DejaVuSans-35" transform="translate(83.789062 0)"/>
     <use xlink:href="#DejaVuSans-36" transform="translate(147.412109 0)"/>
     <use xlink:href="#DejaVuSans-2e" transform="translate(211.035156 0)"/>
     <use xlink:href="#DejaVuSans-39" transform="translate(242.822266 0)"/>
     <use xlink:href="#DejaVuSans-25" transform="translate(306.445312 0)"/>
    </g>
   </g>
   <g id="patch_13">
    <path d="M 1086.974024 327.862233 
Q 1081.259243 334.515015 1076.127275 340.489323 
" style="fill: none; stroke: #000000; stroke-width: 0.8; stroke-linecap: round"/>
    <path d="M 1080.250814 338.758304 
L 1076.127275 340.489323 
L 1077.216583 336.15188 
" style="fill: none; stroke: #000000; stroke-width: 0.8; stroke-linecap: round"/>
   </g>
   <g id="text_20">
    <g id="patch_14">
     <path d="M 1074.294926 326.09328 
L 1114.441801 326.09328 
Q 1116.441801 326.09328 1116.441801 324.09328 
L 1116.441801 314.415155 
Q 1116.441801 312.415155 1114.441801 312.415155 
L 1074.294926 312.415155 
Q 1072.294926 312.415155 1072.294926 314.415155 
L 1072.294926 324.09328 
Q 1072.294926 326.09328 1074.294926 326.09328 
z
" style="fill: #ffffff; stroke: #808080; stroke-width: 0.5; stroke-linejoin: miter"/>
    </g>
    <!-- ↓43.9% -->
    <g style="fill: #006400" transform="translate(1074.294926 322.013593) scale(0.1 -0.1)">
     <use xlink:href="#DejaVuSans-2193"/>
     <use xlink:href="#DejaVuSans-34" transform="translate(83.789062 0)"/>
     <use xlink:href="#DejaVuSans-33" transform="translate(147.412109 0)"/>
     <use xlink:href="#DejaVuSans-2e" transform="translate(211.035156 0)"/>
     <use xlink:href="#DejaVuSans-39" transform="translate(242.822266 0)"/>
     <use xlink:href="#DejaVuSans-25" transform="translate(306.445312 0)"/>
    </g>
   </g>
   <g id="patch_15">
    <path d="M 1342.078608 247.641989 
Q 1336.363827 254.294771 1331.23186 260.269079 
" style="fill: none; stroke: #000000; stroke-width: 0.8; stroke-linecap: round"/>
    <path d="M 1335.355398 258.538059 
L 1331.23186 260.269079 
L 1332.321167 255.931636 
" style="fill: none; stroke: #000000; stroke-width: 0.8; stroke-linecap: round"/>
   </g>
   <g id="text_21">
    <g id="patch_16">
     <path d="M 1329.39951 245.873036 
L 1369.546385 245.873036 
Q 1371.546385 245.873036 1371.546385 243.873036 
L 1371.546385 234.194911 
Q 1371.546385 232.194911 1369.546385 232.194911 
L 1329.39951 232.194911 
Q 1327.39951 232.194911 1327.39951 234.194911 
L 1327.39951 243.873036 
Q 1327.39951 245.873036 1329.39951 245.873036 
z
" style="fill: #ffffff; stroke: #808080; stroke-width: 0.5; stroke-linejoin: miter"/>
    </g>
    <!-- ↓32.6% -->
    <g style="fill: #006400" transform="translate(1329.39951 241.793349) scale(0.1 -0.1)">
     <use xlink:href="#DejaVuSans-2193"/>
     <use xlink:href="#DejaVuSans-33" transform="translate(83.789062 0)"/>
     <use xlink:href="#DejaVuSans-32" transform="translate(147.412109 0)"/>
     <use xlink:href="#DejaVuSans-2e" transform="translate(211.035156 0)"/>
     <use xlink:href="#DejaVuSans-36" transform="translate(242.822266 0)"/>
     <use xlink:href="#DejaVuSans-25" transform="translate(306.445312 0)"/>
    </g>
   </g>
   <g id="text_22">
    <!-- shim verify -->
    <g transform="translate(1454.328742 221.235643) scale(0.11 -0.11)">
     <defs>
      <path id="DejaVuSans-68" d="M 3513 2113 
L 3513 0 
L 2938 0 
L 2938 2094 
Q 2938 2591 2744 2837 
Q 2550 3084 2163 3084 
Q 1697 3084 1428 2787 
Q 1159 2491 1159 1978 
L 1159 0 
L 581 0 
L 581 4863 
L 1159 4863 
L 1159 2956 
Q 1366 3272 1645 3428 
Q 1925 3584 2291 3584 
Q 2894 3584 3203 3211 
Q 3513 2838 3513 2113 
z
" transform="scale(0.015625)"/>
      <path id="DejaVuSans-76" d="M 191 3500 
L 800 3500 
L 1894 563 
L 2988 3500 
L 3597 3500 
L 2284 0 
L 1503 0 
L 191 3500 
z
" transform="scale(0.015625)"/>
      <path id="DejaVuSans-66" d="M 2375 4863 
L 2375 4384 
L 1825 4384 
Q 1516 4384 1395 4259 
Q 1275 4134 1275 3809 
L 1275 3500 
L 2222 3500 
L 2222 3053 
L 1275 3053 
L 1275 0 
L 697 0 
L 697 3053 
L 147 3053 
L 147 3500 
L 697 3500 
L 697 3744 
Q 697 4328 969 4595 
Q 1241 4863 1831 4863 
L 2375 4863 
z
" transform="scale(0.015625)"/>
     </defs>
     <use xlink:href="#DejaVuSans-73"/>
     <use xlink:href="#DejaVuSans-68" transform="translate(52.099609 0)"/>
     <use xlink:href="#DejaVuSans-69" transform="translate(115.478516 0)"/>
     <use xlink:href="#DejaVuSans-6d" transform="translate(143.261719 0)"/>
     <use xlink:href="#DejaVuSans-20" transform="translate(240.673828 0)"/>
     <use xlink:href="#DejaVuSans-76" transform="translate(272.460938 0)"/>
     <use xlink:href="#DejaVuSans-65" transform="translate(331.640625 0)"/>
     <use xlink:href="#DejaVuSans-72" transform="translate(393.164062 0)"/>
     <use xlink:href="#DejaVuSans-69" transform="translate(434.277344 0)"/>
     <use xlink:href="#DejaVuSans-66" transform="translate(462.060547 0)"/>
     <use xlink:href="#DejaVuSans-79" transform="translate(495.515625 0)"/>
    </g>
    <!-- 2 txs -->
    <g transform="translate(1454.328742 233.553237) scale(0.11 -0.11)">
     <use xlink:href="#DejaVuSans-32"/>
     <use xlink:href="#DejaVuSans-20" transform="translate(63.623047 0)"/>
     <use xlink:href="#DejaVuSans-74" transform="translate(95.410156 0)"/>
     <use xlink:href="#DejaVuSans-78" transform="translate(134.619141 0)"/>
     <use xlink:href="#DejaVuSans-73" transform="translate(193.798828 0)"/>
    </g>
   </g>
   <g id="patch_17">
    <path d="M 321.660272 603.772345 
Q 315.94549 610.425127 310.813523 616.399434 
" style="fill: none; stroke: #000000; stroke-width: 0.8; stroke-linecap: round"/>
    <path d="M 314.937062 614.668415 
L 310.813523 616.399434 
L 311.902831 612.061992 
" style="fill: none; stroke: #000000; stroke-width: 0.8; stroke-linecap: round"/>
   </g>
   <g id="text_23">
    <g id="patch_18">
     <path d="M 308.981173 602.003392 
L 349.128048 602.003392 
Q 351.128048 602.003392 351.128048 600.003392 
L 351.128048 590.325267 
Q 351.128048 588.325267 349.128048 588.325267 
L 308.981173 588.325267 
Q 306.981173 588.325267 306.981173 590.325267 
L 306.981173 600.003392 
Q 306.981173 602.003392 308.981173 602.003392 
z
" style="fill: #ffffff; stroke: #808080; stroke-width: 0.5; stroke-linejoin: miter"/>
    </g>
    <!-- ↓98.4% -->
    <g style="fill: #006400" transform="translate(308.981173 597.923705) scale(0.1 -0.1)">
     <use xlink:href="#DejaVuSans-2193"/>
     <use xlink:href="#DejaVuSans-39" transform="translate(83.789062 0)"/>
     <use xlink:href="#DejaVuSans-38" transform="translate(147.412109 0)"/>
     <use xlink:href="#DejaVuSans-2e" transform="translate(211.035156 0)"/>
     <use xlink:href="#DejaVuSans-34" transform="translate(242.822266 0)"/>
     <use xlink:href="#DejaVuSans-25" transform="translate(306.445312 0)"/>
    </g>
   </g>
   <g id="patch_19">
    <path d="M 576.764856 591.090071 
Q 571.050075 597.742853 565.918107 603.71716 
" style="fill: none; stroke: #000000; stroke-width: 0.8; stroke-linecap: round"/>
    <path d="M 570.041646 601.986141 
L 565.918107 603.71716 
L 567.007415 599.379718 
" style="fill: none; stroke: #000000; stroke-width: 0.8; stroke-linecap: round"/>
   </g>
   <g id="text_24">
    <g id="patch_20">
     <path d="M 564.085757 589.321118 
L 604.232632 589.321118 
Q 606.232632 589.321118 606.232632 587.321118 
L 606.232632 577.642993 
Q 606.232632 575.642993 604.232632 575.642993 
L 564.085757 575.642993 
Q 562.085757 575.642993 562.085757 577.642993 
L 562.085757 587.321118 
Q 562.085757 589.321118 564.085757 589.321118 
z
" style="fill: #ffffff; stroke: #808080; stroke-width: 0.5; stroke-linejoin: miter"/>
    </g>
    <!-- ↓95.6% -->
    <g style="fill: #006400" transform="translate(564.085757 585.241431) scale(0.1 -0.1)">
     <use xlink:href="#DejaVuSans-2193"/>
     <use xlink:href="#DejaVuSans-39" transform="translate(83.789062 0)"/>
     <use xlink:href="#DejaVuSans-35" transform="translate(147.412109 0)"/>
     <use xlink:href="#DejaVuSans-2e" transform="translate(211.035156 0)"/>
     <use xlink:href="#DejaVuSans-36" transform="translate(242.822266 0)"/>
     <use xlink:href="#DejaVuSans-25" transform="translate(306.445312 0)"/>
    </g>
   </g>
   <g id="patch_21">
    <path d="M 831.86944 578.407797 
Q 826.154659 585.060579 821.022691 591.034886 
" style="fill: none; stroke: #000000; stroke-width: 0.8; stroke-linecap: round"/>
    <path d="M 825.14623 589.303867 
L 821.022691 591.034886 
L 822.111999 586.697444 
" style="fill: none; stroke: #000000; stroke-width: 0.8; stroke-linecap: round"/>
   </g>
   <g id="text_25">
    <g id="patch_22">
     <path d="M 819.190341 576.638844 
L 859.337216 576.638844 
Q 861.337216 576.638844 861.337216 574.638844 
L 861.337216 564.960719 
Q 861.337216 562.960719 859.337216 562.960719 
L 819.190341 562.960719 
Q 817.190341 562.960719 817.190341 564.960719 
L 817.190341 574.638844 
Q 817.190341 576.638844 819.190341 576.638844 
z
" style="fill: #ffffff; stroke: #808080; stroke-width: 0.5; stroke-linejoin: miter"/>
    </g>
    <!-- ↓93.2% -->
    <g style="fill: #006400" transform="translate(819.190341 572.559157) scale(0.1 -0.1)">
     <use xlink:href="#DejaVuSans-2193"/>
     <use xlink:href="#DejaVuSans-39" transform="translate(83.789062 0)"/>
     <use xlink:href="#DejaVuSans-33" transform="translate(147.412109 0)"/>
     <use xlink:href="#DejaVuSans-2e" transform="translate(211.035156 0)"/>
     <use xlink:href="#DejaVuSans-32" transform="translate(242.822266 0)"/>
     <use xlink:href="#DejaVuSans-25" transform="translate(306.445312 0)"/>
    </g>
   </g>
   <g id="patch_23">
    <path d="M 1086.974024 565.725523 
Q 1081.259243 572.378305 1076.127275 578.352612 
" style="fill: none; stroke: #000000; stroke-width: 0.8; stroke-linecap: round"/>
    <path d="M 1080.250814 576.621593 
L 1076.127275 578.352612 
L 1077.216583 574.01517 
" style="fill: none; stroke: #000000; stroke-width: 0.8; stroke-linecap: round"/>
   </g>
   <g id="text_26">
    <g id="patch_24">
     <path d="M 1074.294926 563.95657 
L 1114.441801 563.95657 
Q 1116.441801 563.95657 1116.441801 561.95657 
L 1116.441801 552.278445 
Q 1116.441801 550.278445 1114.441801 550.278445 
L 1074.294926 550.278445 
Q 1072.294926 550.278445 1072.294926 552.278445 
L 1072.294926 561.95657 
Q 1072.294926 563.95657 1074.294926 563.95657 
z
" style="fill: #ffffff; stroke: #808080; stroke-width: 0.5; stroke-linejoin: miter"/>
    </g>
    <!-- ↓91.2% -->
    <g style="fill: #006400" transform="translate(1074.294926 559.876883) scale(0.1 -0.1)">
     <use xlink:href="#DejaVuSans-2193"/>
     <use xlink:href="#DejaVuSans-39" transform="translate(83.789062 0)"/>
     <use xlink:href="#DejaVuSans-31" transform="translate(147.412109 0)"/>
     <use xlink:href="#DejaVuSans-2e" transform="translate(211.035156 0)"/>
     <use xlink:href="#DejaVuSans-32" transform="translate(242.822266 0)"/>
     <use xlink:href="#DejaVuSans-25" transform="translate(306.445312 0)"/>
    </g>
   </g>
   <g id="patch_25">
    <path d="M 1342.078608 553.043249 
Q 1336.363827 559.696031 1331.23186 565.670338 
" style="fill: none; stroke: #000000; stroke-width: 0.8; stroke-linecap: round"/>
    <path d="M 1335.355398 563.939319 
L 1331.23186 565.670338 
L 1332.321167 561.332896 
" style="fill: none; stroke: #000000; stroke-width: 0.8; stroke-linecap: round"/>
   </g>
   <g id="text_27">
    <g id="patch_26">
     <path d="M 1329.39951 551.274296 
L 1369.546385 551.274296 
Q 1371.546385 551.274296 1371.546385 549.274296 
L 1371.546385 539.596171 
Q 1371.546385 537.596171 1369.546385 537.596171 
L 1329.39951 537.596171 
Q 1327.39951 537.596171 1327.39951 539.596171 
L 1327.39951 549.274296 
Q 1327.39951 551.274296 1329.39951 551.274296 
z
" style="fill: #ffffff; stroke: #808080; stroke-width: 0.5; stroke-linejoin: miter"/>
    </g>
    <!-- ↓89.4% -->
    <g style="fill: #006400" transform="translate(1329.39951 547.194609) scale(0.1 -0.1)">
     <use xlink:href="#DejaVuSans-2193"/>
     <use xlink:href="#DejaVuSans-38" transform="translate(83.789062 0)"/>
     <use xlink:href="#DejaVuSans-39" transform="translate(147.412109 0)"/>
     <use xlink:href="#DejaVuSans-2e" transform="translate(211.035156 0)"/>
     <use xlink:href="#DejaVuSans-34" transform="translate(242.822266 0)"/>
     <use xlink:href="#DejaVuSans-25" transform="translate(306.445312 0)"/>
    </g>
   </g>
   <g id="text_28">
    <!-- early VerificationV2 -->
    <g transform="translate(1454.328742 558.717439) scale(0.11 -0.11)">
     <defs>
      <path id="DejaVuSans-56" d="M 1831 0 
L 50 4666 
L 709 4666 
L 2188 738 
L 3669 4666 
L 4325 4666 
L 2547 0 
L 1831 0 
z
" transform="scale(0.015625)"/>
      <path id="DejaVuSans-6e" d="M 3513 2113 
L 3513 0 
L 2938 0 
L 2938 2094 
Q 2938 2591 2744 2837 
Q 2550 3084 2163 3084 
Q 1697 3084 1428 2787 
Q 1159 2491 1159 1978 
L 1159 0 
L 581 0 
L 581 3500 
L 1159 3500 
L 1159 2956 
Q 1366 3272 1645 3428 
Q 1925 3584 2291 3584 
Q 2894 3584 3203 3211 
Q 3513 2838 3513 2113 
z
" transform="scale(0.015625)"/>
     </defs>
     <use xlink:href="#DejaVuSans-65"/>
     <use xlink:href="#DejaVuSans-61" transform="translate(61.523438 0)"/>
     <use xlink:href="#DejaVuSans-72" transform="translate(122.802734 0)"/>
     <use xlink:href="#DejaVuSans-6c" transform="translate(163.916016 0)"/>
     <use xlink:href="#DejaVuSans-79" transform="translate(191.699219 0)"/>
     <use xlink:href="#DejaVuSans-20" transform="translate(250.878906 0)"/>
     <use xlink:href="#DejaVuSans-56" transform="translate(282.666016 0)"/>
     <use xlink:href="#DejaVuSans-65" transform="translate(343.324219 0)"/>
     <use xlink:href="#DejaVuSans-72" transform="translate(404.847656 0)"/>
     <use xlink:href="#DejaVuSans-69" transform="translate(445.960938 0)"/>
     <use xlink:href="#DejaVuSans-66" transform="translate(473.744141 0)"/>
     <use xlink:href="#DejaVuSans-69" transform="translate(508.949219 0)"/>
     <use xlink:href="#DejaVuSans-63" transform="translate(536.732422 0)"/>
     <use xlink:href="#DejaVuSans-61" transform="translate(591.712891 0)"/>
     <use xlink:href="#DejaVuSans-74" transform="translate(652.992188 0)"/>
     <use xlink:href="#DejaVuSans-69" transform="translate(692.201172 0)"/>
     <use xlink:href="#DejaVuSans-6f" transform="translate(719.984375 0)"/>
     <use xlink:href="#DejaVuSans-6e" transform="translate(781.166016 0)"/>
     <use xlink:href="#DejaVuSans-56" transform="translate(844.544922 0)"/>
     <use xlink:href="#DejaVuSans-32" transform="translate(912.953125 0)"/>
    </g>
    <!-- 1 tx -->
    <g transform="translate(1454.328742 571.035033) scale(0.11 -0.11)">
     <use xlink:href="#DejaVuSans-31"/>
     <use xlink:href="#DejaVuSans-20" transform="translate(63.623047 0)"/>
     <use xlink:href="#DejaVuSans-74" transform="translate(95.410156 0)"/>
     <use xlink:href="#DejaVuSans-78" transform="translate(134.619141 0)"/>
    </g>
   </g>
   <g id="patch_27">
    <path d="M 319.593986 630.464655 
Q 315.007165 626.382704 311.088501 622.895366 
" style="fill: none; stroke: #000000; stroke-width: 0.8; stroke-linecap: round"/>
    <path d="M 312.746996 627.048605 
L 311.088501 622.895366 
L 315.406189 624.060514 
" style="fill: none; stroke: #000000; stroke-width: 0.8; stroke-linecap: round"/>
   </g>
   <g id="text_29">
    <g id="patch_28">
     <path d="M 308.981173 645.723013 
L 349.128048 645.723013 
Q 351.128048 645.723013 351.128048 643.723013 
L 351.128048 634.044888 
Q 351.128048 632.044888 349.128048 632.044888 
L 308.981173 632.044888 
Q 306.981173 632.044888 306.981173 634.044888 
L 306.981173 643.723013 
Q 306.981173 645.723013 308.981173 645.723013 
z
" style="fill: #ffffff; stroke: #808080; stroke-width: 0.5; stroke-linejoin: miter"/>
    </g>
    <!-- ↓99.0% -->
    <g style="fill: #006400" transform="translate(308.981173 641.643326) scale(0.1 -0.1)">
     <use xlink:href="#DejaVuSans-2193"/>
     <use xlink:href="#DejaVuSans-39" transform="translate(83.789062 0)"/>
     <use xlink:href="#DejaVuSans-39" transform="translate(147.412109 0)"/>
     <use xlink:href="#DejaVuSans-2e" transform="translate(211.035156 0)"/>
     <use xlink:href="#DejaVuSans-30" transform="translate(242.822266 0)"/>
     <use xlink:href="#DejaVuSans-25" transform="translate(306.445312 0)"/>
    </g>
   </g>
   <g id="patch_29">
    <path d="M 574.69857 622.540044 
Q 570.111749 618.458093 566.193085 614.970755 
" style="fill: none; stroke: #000000; stroke-width: 0.8; stroke-linecap: round"/>
    <path d="M 567.85158 619.123994 
L 566.193085 614.970755 
L 570.510773 616.135903 
" style="fill: none; stroke: #000000; stroke-width: 0.8; stroke-linecap: round"/>
   </g>
   <g id="text_30">
    <g id="patch_30">
     <path d="M 564.085757 637.798402 
L 604.232632 637.798402 
Q 606.232632 637.798402 606.232632 635.798402 
L 606.232632 626.120277 
Q 606.232632 624.120277 604.232632 624.120277 
L 564.085757 624.120277 
Q 562.085757 624.120277 562.085757 626.120277 
L 562.085757 635.798402 
Q 562.085757 637.798402 564.085757 637.798402 
z
" style="fill: #ffffff; stroke: #808080; stroke-width: 0.5; stroke-linejoin: miter"/>
    </g>
    <!-- ↓97.3% -->
    <g style="fill: #006400" transform="translate(564.085757 633.718715) scale(0.1 -0.1)">
     <use xlink:href="#DejaVuSans-2193"/>
     <use xlink:href="#DejaVuSans-39" transform="translate(83.789062 0)"/>
     <use xlink:href="#DejaVuSans-37" transform="translate(147.412109 0)"/>
     <use xlink:href="#DejaVuSans-2e" transform="translate(211.035156 0)"/>
     <use xlink:href="#DejaVuSans-33" transform="translate(242.822266 0)"/>
     <use xlink:href="#DejaVuSans-25" transform="translate(306.445312 0)"/>
    </g>
   </g>
   <g id="patch_31">
    <path d="M 829.803154 614.615433 
Q 825.216333 610.533482 821.297669 607.046144 
" style="fill: none; stroke: #000000; stroke-width: 0.8; stroke-linecap: round"/>
    <path d="M 822.956164 611.199383 
L 821.297669 607.046144 
L 825.615358 608.211292 
" style="fill: none; stroke: #000000; stroke-width: 0.8; stroke-linecap: round"/>
   </g>
   <g id="text_31">
    <g id="patch_32">
     <path d="M 819.190341 629.873791 
L 859.337216 629.873791 
Q 861.337216 629.873791 861.337216 627.873791 
L 861.337216 618.195666 
Q 861.337216 616.195666 859.337216 616.195666 
L 819.190341 616.195666 
Q 817.190341 616.195666 817.190341 618.195666 
L 817.190341 627.873791 
Q 817.190341 629.873791 819.190341 629.873791 
z
" style="fill: #ffffff; stroke: #808080; stroke-width: 0.5; stroke-linejoin: miter"/>
    </g>
    <!-- ↓95.8% -->
    <g style="fill: #006400" transform="translate(819.190341 625.794104) scale(0.1 -0.1)">
     <use xlink:href="#DejaVuSans-2193"/>
     <use xlink:href="#DejaVuSans-39" transform="translate(83.789062 0)"/>
     <use xlink:href="#DejaVuSans-35" transform="translate(147.412109 0)"/>
     <use xlink:href="#DejaVuSans-2e" transform="translate(211.035156 0)"/>
     <use xlink:href="#DejaVuSans-38" transform="translate(242.822266 0)"/>
     <use xlink:href="#DejaVuSans-25" transform="translate(306.445312 0)"/>
    </g>
   </g>
   <g id="patch_33">
    <path d="M 1084.907739 606.690822 
Q 1080.320917 602.608871 1076.402254 599.121534 
" style="fill: none; stroke: #000000; stroke-width: 0.8; stroke-linecap: round"/>
    <path d="M 1078.060749 603.274773 
L 1076.402254 599.121534 
L 1080.719942 600.286681 
" style="fill: none; stroke: #000000; stroke-width: 0.8; stroke-linecap: round"/>
   </g>
   <g id="text_32">
    <g id="patch_34">
     <path d="M 1074.294926 621.94918 
L 1114.441801 621.94918 
Q 1116.441801 621.94918 1116.441801 619.94918 
L 1116.441801 610.271055 
Q 1116.441801 608.271055 1114.441801 608.271055 
L 1074.294926 608.271055 
Q 1072.294926 608.271055 1072.294926 610.271055 
L 1072.294926 619.94918 
Q 1072.294926 621.94918 1074.294926 621.94918 
z
" style="fill: #ffffff; stroke: #808080; stroke-width: 0.5; stroke-linejoin: miter"/>
    </g>
    <!-- ↓94.5% -->
    <g style="fill: #006400" transform="translate(1074.294926 617.869493) scale(0.1 -0.1)">
     <use xlink:href="#DejaVuSans-2193"/>
     <use xlink:href="#DejaVuSans-39" transform="translate(83.789062 0)"/>
     <use xlink:href="#DejaVuSans-34" transform="translate(147.412109 0)"/>
     <use xlink:href="#DejaVuSans-2e" transform="translate(211.035156 0)"/>
     <use xlink:href="#DejaVuSans-35" transform="translate(242.822266 0)"/>
     <use xlink:href="#DejaVuSans-25" transform="translate(306.445312 0)"/>
    </g>
   </g>
   <g id="patch_35">
    <path d="M 1340.012323 598.766211 
Q 1335.425501 594.68426 1331.506838 591.196923 
" style="fill: none; stroke: #000000; stroke-width: 0.8; stroke-linecap: round"/>
    <path d="M 1333.165333 595.350162 
L 1331.506838 591.196923 
L 1335.824526 592.36207 
" style="fill: none; stroke: #000000; stroke-width: 0.8; stroke-linecap: round"/>
   </g>
   <g id="text_33">
    <g id="patch_36">
     <path d="M 1329.39951 614.02457 
L 1369.546385 614.02457 
Q 1371.546385 614.02457 1371.546385 612.02457 
L 1371.546385 602.346445 
Q 1371.546385 600.346445 1369.546385 600.346445 
L 1329.39951 600.346445 
Q 1327.39951 600.346445 1327.39951 602.346445 
L 1327.39951 612.02457 
Q 1327.39951 614.02457 1329.39951 614.02457 
z
" style="fill: #ffffff; stroke: #808080; stroke-width: 0.5; stroke-linejoin: miter"/>
    </g>
    <!-- ↓93.4% -->
    <g style="fill: #006400" transform="translate(1329.39951 609.944882) scale(0.1 -0.1)">
     <use xlink:href="#DejaVuSans-2193"/>
     <use xlink:href="#DejaVuSans-39" transform="translate(83.789062 0)"/>
     <use xlink:href="#DejaVuSans-33" transform="translate(147.412109 0)"/>
     <use xlink:href="#DejaVuSans-2e" transform="translate(211.035156 0)"/>
     <use xlink:href="#DejaVuSans-34" transform="translate(242.822266 0)"/>
     <use xlink:href="#DejaVuSans-25" transform="translate(306.445312 0)"/>
    </g>
   </g>
   <g id="text_34">
    <!-- VerificationV2 only digest -->
    <g transform="translate(1454.328742 582.386813) scale(0.11 -0.11)">
     <defs>
      <path id="DejaVuSans-67" d="M 2906 1791 
Q 2906 2416 2648 2759 
Q 2391 3103 1925 3103 
Q 1463 3103 1205 2759 
Q 947 2416 947 1791 
Q 947 1169 1205 825 
Q 1463 481 1925 481 
Q 2391 481 2648 825 
Q 2906 1169 2906 1791 
z
M 3481 434 
Q 3481 -459 3084 -895 
Q 2688 -1331 1869 -1331 
Q 1566 -1331 1297 -1286 
Q 1028 -1241 775 -1147 
L 775 -588 
Q 1028 -725 1275 -790 
Q 1522 -856 1778 -856 
Q 2344 -856 2625 -561 
Q 2906 -266 2906 331 
L 2906 616 
Q 2728 306 2450 153 
Q 2172 0 1784 0 
Q 1141 0 747 490 
Q 353 981 353 1791 
Q 353 2603 747 3093 
Q 1141 3584 1784 3584 
Q 2172 3584 2450 3431 
Q 2728 3278 2906 2969 
L 2906 3500 
L 3481 3500 
L 3481 434 
z
" transform="scale(0.015625)"/>
     </defs>
     <use xlink:href="#DejaVuSans-56"/>
     <use xlink:href="#DejaVuSans-65" transform="translate(60.658203 0)"/>
     <use xlink:href="#DejaVuSans-72" transform="translate(122.181641 0)"/>
     <use xlink:href="#DejaVuSans-69" transform="translate(163.294922 0)"/>
     <use xlink:href="#DejaVuSans-66" transform="translate(191.078125 0)"/>
     <use xlink:href="#DejaVuSans-69" transform="translate(226.283203 0)"/>
     <use xlink:href="#DejaVuSans-63" transform="translate(254.066406 0)"/>
     <use xlink:href="#DejaVuSans-61" transform="translate(309.046875 0)"/>
     <use xlink:href="#DejaVuSans-74" transform="translate(370.326172 0)"/>
     <use xlink:href="#DejaVuSans-69" transform="translate(409.535156 0)"/>
     <use xlink:href="#DejaVuSans-6f" transform="translate(437.318359 0)"/>
     <use xlink:href="#DejaVuSans-6e" transform="translate(498.5 0)"/>
     <use xlink:href="#DejaVuSans-56" transform="translate(561.878906 0)"/>
     <use xlink:href="#DejaVuSans-32" transform="translate(630.287109 0)"/>
     <use xlink:href="#DejaVuSans-20" transform="translate(693.910156 0)"/>
     <use xlink:href="#DejaVuSans-6f" transform="translate(725.697266 0)"/>
     <use xlink:href="#DejaVuSans-6e" transform="translate(786.878906 0)"/>
     <use xlink:href="#DejaVuSans-6c" transform="translate(850.257812 0)"/>
     <use xlink:href="#DejaVuSans-79" transform="translate(878.041016 0)"/>
     <use xlink:href="#DejaVuSans-20" transform="translate(937.220703 0)"/>
     <use xlink:href="#DejaVuSans-64" transform="translate(969.007812 0)"/>
     <use xlink:href="#DejaVuSans-69" transform="translate(1032.484375 0)"/>
     <use xlink:href="#DejaVuSans-67" transform="translate(1060.267578 0)"/>
     <use xlink:href="#DejaVuSans-65" transform="translate(1123.744141 0)"/>
     <use xlink:href="#DejaVuSans-73" transform="translate(1185.267578 0)"/>
     <use xlink:href="#DejaVuSans-74" transform="translate(1237.367188 0)"/>
    </g>
    <!-- 1 tx -->
    <g transform="translate(1454.328742 594.704406) scale(0.11 -0.11)">
     <use xlink:href="#DejaVuSans-31"/>
     <use xlink:href="#DejaVuSans-20" transform="translate(63.623047 0)"/>
     <use xlink:href="#DejaVuSans-74" transform="translate(95.410156 0)"/>
     <use xlink:href="#DejaVuSans-78" transform="translate(134.619141 0)"/>
    </g>
   </g>
   <g id="patch_37">
    <path d="M 1300.174932 341.04373 
Q 1269.796514 482.012653 1239.653623 621.888632 
" style="fill: none; stroke: #000000; stroke-linecap: round"/>
    <path d="M 1242.451387 618.399718 
L 1239.653623 621.888632 
L 1238.54115 617.557073 
" style="fill: none; stroke: #000000; stroke-linecap: round"/>
   </g>
   <g id="text_35">
    <g id="patch_38">
     <path d="M 1239.208613 338.832106 
L 1370.299238 338.832106 
Q 1373.299238 338.832106 1373.299238 335.832106 
L 1373.299238 303.758356 
Q 1373.299238 300.758356 1370.299238 300.758356 
L 1239.208613 300.758356 
Q 1236.208613 300.758356 1236.208613 303.758356 
L 1236.208613 335.832106 
Q 1236.208613 338.832106 1239.208613 338.832106 
z
" style="fill: #ffffff; stroke: #808080; stroke-width: 0.5; stroke-linejoin: miter"/>
    </g>
    <!-- Beyond this point, -->
    <g transform="translate(1239.208613 311.356793) scale(0.1 -0.1)">
     <defs>
      <path id="DejaVuSans-42" d="M 1259 2228 
L 1259 519 
L 2272 519 
Q 2781 519 3026 730 
Q 3272 941 3272 1375 
Q 3272 1813 3026 2020 
Q 2781 2228 2272 2228 
L 1259 2228 
z
M 1259 4147 
L 1259 2741 
L 2194 2741 
Q 2656 2741 2882 2914 
Q 3109 3088 3109 3444 
Q 3109 3797 2882 3972 
Q 2656 4147 2194 4147 
L 1259 4147 
z
M 628 4666 
L 2241 4666 
Q 2963 4666 3353 4366 
Q 3744 4066 3744 3513 
Q 3744 3084 3544 2831 
Q 3344 2578 2956 2516 
Q 3422 2416 3680 2098 
Q 3938 1781 3938 1306 
Q 3938 681 3513 340 
Q 3088 0 2303 0 
L 628 0 
L 628 4666 
z
" transform="scale(0.015625)"/>
      <path id="DejaVuSans-2c" d="M 750 794 
L 1409 794 
L 1409 256 
L 897 -744 
L 494 -744 
L 750 256 
L 750 794 
z
" transform="scale(0.015625)"/>
     </defs>
     <use xlink:href="#DejaVuSans-42"/>
     <use xlink:href="#DejaVuSans-65" transform="translate(68.603516 0)"/>
     <use xlink:href="#DejaVuSans-79" transform="translate(130.126953 0)"/>
     <use xlink:href="#DejaVuSans-6f" transform="translate(189.306641 0)"/>
     <use xlink:href="#DejaVuSans-6e" transform="translate(250.488281 0)"/>
     <use xlink:href="#DejaVuSans-64" transform="translate(313.867188 0)"/>
     <use xlink:href="#DejaVuSans-20" transform="translate(377.34375 0)"/>
     <use xlink:href="#DejaVuSans-74" transform="translate(409.130859 0)"/>
     <use xlink:href="#DejaVuSans-68" transform="translate(448.339844 0)"/>
     <use xlink:href="#DejaVuSans-69" transform="translate(511.71875 0)"/>
     <use xlink:href="#DejaVuSans-73" transform="translate(539.501953 0)"/>
     <use xlink:href="#DejaVuSans-20" transform="translate(591.601562 0)"/>
     <use xlink:href="#DejaVuSans-70" transform="translate(623.388672 0)"/>
     <use xlink:href="#DejaVuSans-6f" transform="translate(686.865234 0)"/>
     <use xlink:href="#DejaVuSans-69" transform="translate(748.046875 0)"/>
     <use xlink:href="#DejaVuSans-6e" transform="translate(775.830078 0)"/>
     <use xlink:href="#DejaVuSans-74" transform="translate(839.208984 0)"/>
     <use xlink:href="#DejaVuSans-2c" transform="translate(878.417969 0)"/>
    </g>
    <!-- it's only meaningful under -->
    <g transform="translate(1239.208613 322.554606) scale(0.1 -0.1)">
     <defs>
      <path id="DejaVuSans-27" d="M 1147 4666 
L 1147 2931 
L 616 2931 
L 616 4666 
L 1147 4666 
z
" transform="scale(0.015625)"/>
      <path id="DejaVuSans-75" d="M 544 1381 
L 544 3500 
L 1119 3500 
L 1119 1403 
Q 1119 906 1312 657 
Q 1506 409 1894 409 
Q 2359 409 2629 706 
Q 2900 1003 2900 1516 
L 2900 3500 
L 3475 3500 
L 3475 0 
L 2900 0 
L 2900 538 
Q 2691 219 2414 64 
Q 2138 -91 1772 -91 
Q 1169 -91 856 284 
Q 544 659 544 1381 
z
M 1991 3584 
L 1991 3584 
z
" transform="scale(0.015625)"/>
     </defs>
     <use xlink:href="#DejaVuSans-69"/>
     <use xlink:href="#DejaVuSans-74" transform="translate(27.783203 0)"/>
     <use xlink:href="#DejaVuSans-27" transform="translate(66.992188 0)"/>
     <use xlink:href="#DejaVuSans-73" transform="translate(94.482422 0)"/>
     <use xlink:href="#DejaVuSans-20" transform="translate(146.582031 0)"/>
     <use xlink:href="#DejaVuSans-6f" transform="translate(178.369141 0)"/>
     <use xlink:href="#DejaVuSans-6e" transform="translate(239.550781 0)"/>
     <use xlink:href="#DejaVuSans-6c" transform="translate(302.929688 0)"/>
     <use xlink:href="#DejaVuSans-79" transform="translate(330.712891 0)"/>
     <use xlink:href="#DejaVuSans-20" transform="translate(389.892578 0)"/>
     <use xlink:href="#DejaVuSans-6d" transform="translate(421.679688 0)"/>
     <use xlink:href="#DejaVuSans-65" transform="translate(519.091797 0)"/>
     <use xlink:href="#DejaVuSans-61" transform="translate(580.615234 0)"/>
     <use xlink:href="#DejaVuSans-6e" transform="translate(641.894531 0)"/>
     <use xlink:href="#DejaVuSans-69" transform="translate(705.273438 0)"/>
     <use xlink:href="#DejaVuSans-6e" transform="translate(733.056641 0)"/>
     <use xlink:href="#DejaVuSans-67" transform="translate(796.435547 0)"/>
     <use xlink:href="#DejaVuSans-66" transform="translate(859.912109 0)"/>
     <use xlink:href="#DejaVuSans-75" transform="translate(895.117188 0)"/>
     <use xlink:href="#DejaVuSans-6c" transform="translate(958.496094 0)"/>
     <use xlink:href="#DejaVuSans-20" transform="translate(986.279297 0)"/>
     <use xlink:href="#DejaVuSans-75" transform="translate(1018.066406 0)"/>
     <use xlink:href="#DejaVuSans-6e" transform="translate(1081.445312 0)"/>
     <use xlink:href="#DejaVuSans-64" transform="translate(1144.824219 0)"/>
     <use xlink:href="#DejaVuSans-65" transform="translate(1208.300781 0)"/>
     <use xlink:href="#DejaVuSans-72" transform="translate(1269.824219 0)"/>
    </g>
    <!-- very high network traffic -->
    <g transform="translate(1239.208613 333.752418) scale(0.1 -0.1)">
     <defs>
      <path id="DejaVuSans-77" d="M 269 3500 
L 844 3500 
L 1563 769 
L 2278 3500 
L 2956 3500 
L 3675 769 
L 4391 3500 
L 4966 3500 
L 4050 0 
L 3372 0 
L 2619 2869 
L 1863 0 
L 1184 0 
L 269 3500 
z
" transform="scale(0.015625)"/>
      <path id="DejaVuSans-6b" d="M 581 4863 
L 1159 4863 
L 1159 1991 
L 2875 3500 
L 3609 3500 
L 1753 1863 
L 3688 0 
L 2938 0 
L 1159 1709 
L 1159 0 
L 581 0 
L 581 4863 
z
" transform="scale(0.015625)"/>
     </defs>
     <use xlink:href="#DejaVuSans-76"/>
     <use xlink:href="#DejaVuSans-65" transform="translate(59.179688 0)"/>
     <use xlink:href="#DejaVuSans-72" transform="translate(120.703125 0)"/>
     <use xlink:href="#DejaVuSans-79" transform="translate(161.816406 0)"/>
     <use xlink:href="#DejaVuSans-20" transform="translate(220.996094 0)"/>
     <use xlink:href="#DejaVuSans-68" transform="translate(252.783203 0)"/>
     <use xlink:href="#DejaVuSans-69" transform="translate(316.162109 0)"/>
     <use xlink:href="#DejaVuSans-67" transform="translate(343.945312 0)"/>
     <use xlink:href="#DejaVuSans-68" transform="translate(407.421875 0)"/>
     <use xlink:href="#DejaVuSans-20" transform="translate(470.800781 0)"/>
     <use xlink:href="#DejaVuSans-6e" transform="translate(502.587891 0)"/>
     <use xlink:href="#DejaVuSans-65" transform="translate(565.966797 0)"/>
     <use xlink:href="#DejaVuSans-74" transform="translate(627.490234 0)"/>
     <use xlink:href="#DejaVuSans-77" transform="translate(666.699219 0)"/>
     <use xlink:href="#DejaVuSans-6f" transform="translate(748.486328 0)"/>
     <use xlink:href="#DejaVuSans-72" transform="translate(809.667969 0)"/>
     <use xlink:href="#DejaVuSans-6b" transform="translate(850.78125 0)"/>
     <use xlink:href="#DejaVuSans-20" transform="translate(908.691406 0)"/>
     <use xlink:href="#DejaVuSans-74" transform="translate(940.478516 0)"/>
     <use xlink:href="#DejaVuSans-72" transform="translate(979.6875 0)"/>
     <use xlink:href="#DejaVuSans-61" transform="translate(1020.800781 0)"/>
     <use xlink:href="#DejaVuSans-66" transform="translate(1082.080078 0)"/>
     <use xlink:href="#DejaVuSans-66" transform="translate(1117.285156 0)"/>
     <use xlink:href="#DejaVuSans-69" transform="translate(1152.490234 0)"/>
     <use xlink:href="#DejaVuSans-63" transform="translate(1180.273438 0)"/>
    </g>
   </g>
   <g id="text_36">
    <!-- Current vs VerificationV2 - Relative reductions from Old Core -->
    <g transform="translate(710.042371 36.5696) scale(0.12 -0.12)">
     <defs>
      <path id="DejaVuSans-2d" d="M 313 2009 
L 1997 2009 
L 1997 1497 
L 313 1497 
L 313 2009 
z
" transform="scale(0.015625)"/>
      <path id="DejaVuSans-52" d="M 2841 2188 
Q 3044 2119 3236 1894 
Q 3428 1669 3622 1275 
L 4263 0 
L 3584 0 
L 2988 1197 
Q 2756 1666 2539 1819 
Q 2322 1972 1947 1972 
L 1259 1972 
L 1259 0 
L 628 0 
L 628 4666 
L 2053 4666 
Q 2853 4666 3247 4331 
Q 3641 3997 3641 3322 
Q 3641 2881 3436 2590 
Q 3231 2300 2841 2188 
z
M 1259 4147 
L 1259 2491 
L 2053 2491 
Q 2509 2491 2742 2702 
Q 2975 2913 2975 3322 
Q 2975 3731 2742 3939 
Q 2509 4147 2053 4147 
L 1259 4147 
z
" transform="scale(0.015625)"/>
     </defs>
     <use xlink:href="#DejaVuSans-43"/>
     <use xlink:href="#DejaVuSans-75" transform="translate(69.824219 0)"/>
     <use xlink:href="#DejaVuSans-72" transform="translate(133.203125 0)"/>
     <use xlink:href="#DejaVuSans-72" transform="translate(172.566406 0)"/>
     <use xlink:href="#DejaVuSans-65" transform="translate(211.429688 0)"/>
     <use xlink:href="#DejaVuSans-6e" transform="translate(272.953125 0)"/>
     <use xlink:href="#DejaVuSans-74" transform="translate(336.332031 0)"/>
     <use xlink:href="#DejaVuSans-20" transform="translate(375.541016 0)"/>
     <use xlink:href="#DejaVuSans-76" transform="translate(407.328125 0)"/>
     <use xlink:href="#DejaVuSans-73" transform="translate(466.507812 0)"/>
     <use xlink:href="#DejaVuSans-20" transform="translate(518.607422 0)"/>
     <use xlink:href="#DejaVuSans-56" transform="translate(550.394531 0)"/>
     <use xlink:href="#DejaVuSans-65" transform="translate(611.052734 0)"/>
     <use xlink:href="#DejaVuSans-72" transform="translate(672.576172 0)"/>
     <use xlink:href="#DejaVuSans-69" transform="translate(713.689453 0)"/>
     <use xlink:href="#DejaVuSans-66" transform="translate(741.472656 0)"/>
     <use xlink:href="#DejaVuSans-69" transform="translate(776.677734 0)"/>
     <use xlink:href="#DejaVuSans-63" transform="translate(804.460938 0)"/>
     <use xlink:href="#DejaVuSans-61" transform="translate(859.441406 0)"/>
     <use xlink:href="#DejaVuSans-74" transform="translate(920.720703 0)"/>
     <use xlink:href="#DejaVuSans-69" transform="translate(959.929688 0)"/>
     <use xlink:href="#DejaVuSans-6f" transform="translate(987.712891 0)"/>
     <use xlink:href="#DejaVuSans-6e" transform="translate(1048.894531 0)"/>
     <use xlink:href="#DejaVuSans-56" transform="translate(1112.273438 0)"/>
     <use xlink:href="#DejaVuSans-32" transform="translate(1180.681641 0)"/>
     <use xlink:href="#DejaVuSans-20" transform="translate(1244.304688 0)"/>
     <use xlink:href="#DejaVuSans-2d" transform="translate(1276.091797 0)"/>
     <use xlink:href="#DejaVuSans-20" transform="translate(1312.175781 0)"/>
     <use xlink:href="#DejaVuSans-52" transform="translate(1343.962891 0)"/>
     <use xlink:href="#DejaVuSans-65" transform="translate(1408.945312 0)"/>
     <use xlink:href="#DejaVuSans-6c" transform="translate(1470.46875 0)"/>
     <use xlink:href="#DejaVuSans-61" transform="translate(1498.251953 0)"/>
     <use xlink:href="#DejaVuSans-74" transform="translate(1559.53125 0)"/>
     <use xlink:href="#DejaVuSans-69" transform="translate(1598.740234 0)"/>
     <use xlink:href="#DejaVuSans-76" transform="translate(1626.523438 0)"/>
     <use xlink:href="#DejaVuSans-65" transform="translate(1685.703125 0)"/>
     <use xlink:href="#DejaVuSans-20" transform="translate(1747.226562 0)"/>
     <use xlink:href="#DejaVuSans-72" transform="translate(1779.013672 0)"/>
     <use xlink:href="#DejaVuSans-65" transform="translate(1817.876953 0)"/>
     <use xlink:href="#DejaVuSans-64" transform="translate(1879.400391 0)"/>
     <use xlink:href="#DejaVuSans-75" transform="translate(1942.876953 0)"/>
     <use xlink:href="#DejaVuSans-63" transform="translate(2006.255859 0)"/>
     <use xlink:href="#DejaVuSans-74" transform="translate(2061.236328 0)"/>
     <use xlink:href="#DejaVuSans-69" transform="translate(2100.445312 0)"/>
     <use xlink:href="#DejaVuSans-6f" transform="translate(2128.228516 0)"/>
     <use xlink:href="#DejaVuSans-6e" transform="translate(2189.410156 0)"/>
     <use xlink:href="#DejaVuSans-73" transform="translate(2252.789062 0)"/>
     <use xlink:href="#DejaVuSans-20" transform="translate(2304.888672 0)"/>
     <use xlink:href="#DejaVuSans-66" transform="translate(2336.675781 0)"/>
     <use xlink:href="#DejaVuSans-72" transform="translate(2371.880859 0)"/>
     <use xlink:href="#DejaVuSans-6f" transform="translate(2410.744141 0)"/>
     <use xlink:href="#DejaVuSans-6d" transform="translate(2471.925781 0)"/>
     <use xlink:href="#DejaVuSans-20" transform="translate(2569.337891 0)"/>
     <use xlink:href="#DejaVuSans-4f" transform="translate(2601.125 0)"/>
     <use xlink:href="#DejaVuSans-6c" transform="translate(2679.835938 0)"/>
     <use xlink:href="#DejaVuSans-64" transform="translate(2707.619141 0)"/>
     <use xlink:href="#DejaVuSans-20" transform="translate(2771.095703 0)"/>
     <use xlink:href="#DejaVuSans-43" transform="translate(2802.882812 0)"/>
     <use xlink:href="#DejaVuSans-6f" transform="translate(2872.707031 0)"/>
     <use xlink:href="#DejaVuSans-72" transform="translate(2933.888672 0)"/>
     <use xlink:href="#DejaVuSans-65" transform="translate(2972.751953 0)"/>
    </g>
   </g>
   <g id="legend_1">
    <g id="patch_39">
     <path d="M 188.376 154.07335 
L 348.033813 154.07335 
Q 350.033813 154.07335 350.033813 152.07335 
L 350.033813 49.5696 
Q 350.033813 47.5696 348.033813 47.5696 
L 188.376 47.5696 
Q 186.376 47.5696 186.376 49.5696 
L 186.376 152.07335 
Q 186.376 154.07335 188.376 154.07335 
z
" style="fill: #ffffff; opacity: 0.8; stroke: #cccccc; stroke-linejoin: miter"/>
    </g>
    <g id="line2d_32">
     <path d="M 190.376 62.306788 
L 200.376 62.306788 
L 210.376 62.306788 
" style="fill: none; stroke: #008000; stroke-width: 4; stroke-linecap: square"/>
    </g>
    <g id="text_37">
     <!-- old core -->
     <g transform="translate(218.376 59.168037) scale(0.1 -0.1)">
      <use xlink:href="#DejaVuSans-6f"/>
      <use xlink:href="#DejaVuSans-6c" transform="translate(61.181641 0)"/>
      <use xlink:href="#DejaVuSans-64" transform="translate(88.964844 0)"/>
      <use xlink:href="#DejaVuSans-20" transform="translate(152.441406 0)"/>
      <use xlink:href="#DejaVuSans-63" transform="translate(184.228516 0)"/>
      <use xlink:href="#DejaVuSans-6f" transform="translate(239.208984 0)"/>
      <use xlink:href="#DejaVuSans-72" transform="translate(300.390625 0)"/>
      <use xlink:href="#DejaVuSans-65" transform="translate(339.253906 0)"/>
     </g>
     <!-- 4 txs -->
     <g transform="translate(218.376 70.36585) scale(0.1 -0.1)">
      <use xlink:href="#DejaVuSans-34"/>
      <use xlink:href="#DejaVuSans-20" transform="translate(63.623047 0)"/>
      <use xlink:href="#DejaVuSans-74" transform="translate(95.410156 0)"/>
      <use xlink:href="#DejaVuSans-78" transform="translate(134.619141 0)"/>
      <use xlink:href="#DejaVuSans-73" transform="translate(193.798828 0)"/>
     </g>
    </g>
    <g id="line2d_33">
     <path d="M 190.376 88.182725 
L 200.376 88.182725 
L 210.376 88.182725 
" style="fill: none; stroke: #0000ff; stroke-width: 4; stroke-linecap: square"/>
    </g>
    <g id="text_38">
     <!-- shim verify -->
     <g transform="translate(218.376 85.043975) scale(0.1 -0.1)">
      <use xlink:href="#DejaVuSans-73"/>
      <use xlink:href="#DejaVuSans-68" transform="translate(52.099609 0)"/>
      <use xlink:href="#DejaVuSans-69" transform="translate(115.478516 0)"/>
      <use xlink:href="#DejaVuSans-6d" transform="translate(143.261719 0)"/>
      <use xlink:href="#DejaVuSans-20" transform="translate(240.673828 0)"/>
      <use xlink:href="#DejaVuSans-76" transform="translate(272.460938 0)"/>
      <use xlink:href="#DejaVuSans-65" transform="translate(331.640625 0)"/>
      <use xlink:href="#DejaVuSans-72" transform="translate(393.164062 0)"/>
      <use xlink:href="#DejaVuSans-69" transform="translate(434.277344 0)"/>
      <use xlink:href="#DejaVuSans-66" transform="translate(462.060547 0)"/>
      <use xlink:href="#DejaVuSans-79" transform="translate(495.515625 0)"/>
     </g>
     <!-- 2 txs -->
     <g transform="translate(218.376 96.241787) scale(0.1 -0.1)">
      <use xlink:href="#DejaVuSans-32"/>
      <use xlink:href="#DejaVuSans-20" transform="translate(63.623047 0)"/>
      <use xlink:href="#DejaVuSans-74" transform="translate(95.410156 0)"/>
      <use xlink:href="#DejaVuSans-78" transform="translate(134.619141 0)"/>
      <use xlink:href="#DejaVuSans-73" transform="translate(193.798828 0)"/>
     </g>
    </g>
    <g id="line2d_34">
     <path d="M 190.376 114.058663 
L 200.376 114.058663 
L 210.376 114.058663 
" style="fill: none; stroke: #ffd700; stroke-width: 4; stroke-linecap: square"/>
    </g>
    <g id="text_39">
     <!-- early VerificationV2 -->
     <g transform="translate(218.376 110.919913) scale(0.1 -0.1)">
      <use xlink:href="#DejaVuSans-65"/>
      <use xlink:href="#DejaVuSans-61" transform="translate(61.523438 0)"/>
      <use xlink:href="#DejaVuSans-72" transform="translate(122.802734 0)"/>
      <use xlink:href="#DejaVuSans-6c" transform="translate(163.916016 0)"/>
      <use xlink:href="#DejaVuSans-79" transform="translate(191.699219 0)"/>
      <use xlink:href="#DejaVuSans-20" transform="translate(250.878906 0)"/>
      <use xlink:href="#DejaVuSans-56" transform="translate(282.666016 0)"/>
      <use xlink:href="#DejaVuSans-65" transform="translate(343.324219 0)"/>
      <use xlink:href="#DejaVuSans-72" transform="translate(404.847656 0)"/>
      <use xlink:href="#DejaVuSans-69" transform="translate(445.960938 0)"/>
      <use xlink:href="#DejaVuSans-66" transform="translate(473.744141 0)"/>
      <use xlink:href="#DejaVuSans-69" transform="translate(508.949219 0)"/>
      <use xlink:href="#DejaVuSans-63" transform="translate(536.732422 0)"/>
      <use xlink:href="#DejaVuSans-61" transform="translate(591.712891 0)"/>
      <use xlink:href="#DejaVuSans-74" transform="translate(652.992188 0)"/>
      <use xlink:href="#DejaVuSans-69" transform="translate(692.201172 0)"/>
      <use xlink:href="#DejaVuSans-6f" transform="translate(719.984375 0)"/>
      <use xlink:href="#DejaVuSans-6e" transform="translate(781.166016 0)"/>
      <use xlink:href="#DejaVuSans-56" transform="translate(844.544922 0)"/>
      <use xlink:href="#DejaVuSans-32" transform="translate(912.953125 0)"/>
     </g>
     <!-- 1 tx -->
     <g transform="translate(218.376 122.117725) scale(0.1 -0.1)">
      <use xlink:href="#DejaVuSans-31"/>
      <use xlink:href="#DejaVuSans-20" transform="translate(63.623047 0)"/>
      <use xlink:href="#DejaVuSans-74" transform="translate(95.410156 0)"/>
      <use xlink:href="#DejaVuSans-78" transform="translate(134.619141 0)"/>
     </g>
    </g>
    <g id="line2d_35">
     <path d="M 190.376 139.9346 
L 200.376 139.9346 
L 210.376 139.9346 
" style="fill: none; stroke: #ff0000; stroke-width: 4; stroke-linecap: square"/>
    </g>
    <g id="text_40">
     <!-- VerificationV2 only digest -->
     <g transform="translate(218.376 136.79585) scale(0.1 -0.1)">
      <use xlink:href="#DejaVuSans-56"/>
      <use xlink:href="#DejaVuSans-65" transform="translate(60.658203 0)"/>
      <use xlink:href="#DejaVuSans-72" transform="translate(122.181641 0)"/>
      <use xlink:href="#DejaVuSans-69" transform="translate(163.294922 0)"/>
      <use xlink:href="#DejaVuSans-66" transform="translate(191.078125 0)"/>
      <use xlink:href="#DejaVuSans-69" transform="translate(226.283203 0)"/>
      <use xlink:href="#DejaVuSans-63" transform="translate(254.066406 0)"/>
      <use xlink:href="#DejaVuSans-61" transform="translate(309.046875 0)"/>
      <use xlink:href="#DejaVuSans-74" transform="translate(370.326172 0)"/>
      <use xlink:href="#DejaVuSans-69" transform="translate(409.535156 0)"/>
      <use xlink:href="#DejaVuSans-6f" transform="translate(437.318359 0)"/>
      <use xlink:href="#DejaVuSans-6e" transform="translate(498.5 0)"/>
      <use xlink:href="#DejaVuSans-56" transform="translate(561.878906 0)"/>
      <use xlink:href="#DejaVuSans-32" transform="translate(630.287109 0)"/>
      <use xlink:href="#DejaVuSans-20" transform="translate(693.910156 0)"/>
      <use xlink:href="#DejaVuSans-6f" transform="translate(725.697266 0)"/>
      <use xlink:href="#DejaVuSans-6e" transform="translate(786.878906 0)"/>
      <use xlink:href="#DejaVuSans-6c" transform="translate(850.257812 0)"/>
      <use xlink:href="#DejaVuSans-79" transform="translate(878.041016 0)"/>
      <use xlink:href="#DejaVuSans-20" transform="translate(937.220703 0)"/>
      <use xlink:href="#DejaVuSans-64" transform="translate(969.007812 0)"/>
      <use xlink:href="#DejaVuSans-69" transform="translate(1032.484375 0)"/>
      <use xlink:href="#DejaVuSans-67" transform="translate(1060.267578 0)"/>
      <use xlink:href="#DejaVuSans-65" transform="translate(1123.744141 0)"/>
      <use xlink:href="#DejaVuSans-73" transform="translate(1185.267578 0)"/>
      <use xlink:href="#DejaVuSans-74" transform="translate(1237.367188 0)"/>
     </g>
     <!-- 1 tx -->
     <g transform="translate(218.376 147.993663) scale(0.1 -0.1)">
      <use xlink:href="#DejaVuSans-31"/>
      <use xlink:href="#DejaVuSans-20" transform="translate(63.623047 0)"/>
      <use xlink:href="#DejaVuSans-74" transform="translate(95.410156 0)"/>
      <use xlink:href="#DejaVuSans-78" transform="translate(134.619141 0)"/>
     </g>
    </g>
   </g>
  </g>
 </g>
 <defs>
  <clipPath id="pd68771e7ba">
   <rect x="181.376" y="42.5696" width="1421.442743" height="610.097333"/>
  </clipPath>
 </defs>
</svg>
