<svg xmlns="http://www.w3.org/2000/svg" xmlns:xlink="http://www.w3.org/1999/xlink" width="960" height="576" viewBox="0 0 720 432"><defs><style>*{stroke-linejoin:round;stroke-linecap:butt}</style></defs><g id="figure_1"><path id="patch_1" d="M0 432h720V0H0z" style="fill:#fff"/><g id="axes_1"><path id="patch_2" d="M73.82 390.04h625.488V25.44H73.82z" style="fill:#fff"/><g id="matplotlib.axis_1"><g id="xtick_1"><path id="line2d_1" d="M73.82 390.04V25.44" clip-path="url(#pb511ee31a7)" style="fill:none;stroke:#b0b0b0;stroke-width:.8;stroke-linecap:square"/><g id="line2d_2"><defs><path id="m799c9314b8" d="M0 0v3.5" style="stroke:#000;stroke-width:.8"/></defs><use xlink:href="#m799c9314b8" x="73.82" y="390.04" style="stroke:#000;stroke-width:.8"/></g><g id="text_1" transform="matrix(.1 0 0 -.1 44.899 404.638)"><defs><path id="DejaVuSans-30" d="M2034 4250q-487 0-733-480-245-479-245-1442 0-959 245-1439 246-480 733-480 491 0 736 480 246 480 246 1439 0 963-246 1442-245 480-736 480m0 500q785 0 1199-621 414-620 414-1801 0-1178-414-1799Q2819-91 2034-91q-784 0-1198 620-414 621-414 1799 0 1181 414 1801 414 621 1198 621" transform="scale(.01563)"/><path id="DejaVuSans-b5" d="M544-1331v4831h575V1325q0-453 215-685 216-231 638-231 462 0 695 262 233 263 233 788v2041h575V806q0-187 54-276 55-89 171-89 28 0 78 17t138 55V50q-128-72-243-106-114-35-223-35-216 0-344 122t-175 372q-156-247-383-371-226-123-532-123-319 0-543 122-223 122-354 366v-1728z" transform="scale(.01563)"/><path id="DejaVuSans-4c" d="M628 4666h631V531h2272V0H628z" transform="scale(.01563)"/><path id="DejaVuSans-61" d="M2194 1759q-697 0-966-159t-269-544q0-306 202-486 202-179 548-179 479 0 768 339t289 901v128zm1147 238V0h-575v531q-197-318-491-470T1556-91q-537 0-855 302-317 302-317 808 0 590 395 890 396 300 1180 300h807v57q0 397-261 614t-733 217q-300 0-585-72-284-72-546-216v532q315 122 612 182 297 61 578 61 760 0 1135-394 375-393 375-1193" transform="scale(.01563)"/><path id="DejaVuSans-6d" d="M3328 2828q216 388 516 572t706 184q547 0 844-383 297-382 297-1088V0h-578v2094q0 503-179 746-178 244-543 244-447 0-707-297-259-296-259-809V0h-578v2094q0 506-178 748t-550 242q-441 0-701-298-259-298-259-808V0H581v3500h578v-544q197 322 472 475t653 153q382 0 649-194 267-193 395-562" transform="scale(.01563)"/><path id="DejaVuSans-70" d="M1159 525v-1856H581v4831h578v-531q182 312 458 463 277 152 661 152 638 0 1036-506 399-506 399-1331T3314 415Q2916-91 2278-91q-384 0-661 152-276 152-458 464m1957 1222q0 634-261 995t-717 361q-457 0-718-361t-261-995 261-995 718-361q456 0 717 361t261 995" transform="scale(.01563)"/><path id="DejaVuSans-6f" d="M1959 3097q-462 0-731-361t-269-989 267-989q268-361 733-361 460 0 728 362 269 363 269 988 0 622-269 986-268 364-728 364m0 487q750 0 1178-488 429-487 429-1349 0-859-429-1349Q2709-91 1959-91q-753 0-1180 489-426 490-426 1349 0 862 426 1349 427 488 1180 488" transform="scale(.01563)"/><path id="DejaVuSans-72" d="M2631 2963q-97 56-211 82-114 27-251 27-488 0-749-317t-261-911V0H581v3500h578v-544q182 319 472 473 291 155 707 155 59 0 131-8 72-7 159-23z" transform="scale(.01563)"/><path id="DejaVuSans-74" d="M1172 4494v-994h1184v-447H1172V1153q0-428 117-550t477-122h590V0h-590q-666 0-919 248-253 249-253 905v1900H172v447h422v994z" transform="scale(.01563)"/></defs><use xlink:href="#DejaVuSans-30"/><use xlink:href="#DejaVuSans-b5" transform="translate(95.41)"/><use xlink:href="#DejaVuSans-4c" transform="translate(159.033)"/><use xlink:href="#DejaVuSans-61" transform="translate(214.746)"/><use xlink:href="#DejaVuSans-6d" transform="translate(276.025)"/><use xlink:href="#DejaVuSans-70" transform="translate(373.438)"/><use xlink:href="#DejaVuSans-6f" transform="translate(436.914)"/><use xlink:href="#DejaVuSans-72" transform="translate(498.096)"/><use xlink:href="#DejaVuSans-74" transform="translate(539.209)"/></g></g><g id="xtick_2"><path id="line2d_3" d="M165.266 390.04V25.44" clip-path="url(#pb511ee31a7)" style="fill:none;stroke:#b0b0b0;stroke-width:.8;stroke-linecap:square"/><use xlink:href="#m799c9314b8" id="line2d_4" x="165.266" y="390.04" style="stroke:#000;stroke-width:.8"/><g id="text_2" transform="matrix(.1 0 0 -.1 134.655 404.638)"><defs><path id="DejaVuSans-35" d="M691 4666h2478v-532H1269V2991q137 47 274 70 138 23 276 23 781 0 1237-428 457-428 457-1159 0-753-469-1171Q2575-91 1722-91q-294 0-599 50Q819 9 494 109v635q281-153 581-228t634-75q541 0 856 284 316 284 316 772 0 487-316 771-315 285-856 285-253 0-505-56-251-56-513-175z" transform="scale(.01563)"/></defs><use xlink:href="#DejaVuSans-35"/><use xlink:href="#DejaVuSans-6d" transform="translate(95.41)"/><use xlink:href="#DejaVuSans-4c" transform="translate(192.822)"/><use xlink:href="#DejaVuSans-61" transform="translate(248.535)"/><use xlink:href="#DejaVuSans-6d" transform="translate(309.814)"/><use xlink:href="#DejaVuSans-70" transform="translate(407.227)"/><use xlink:href="#DejaVuSans-6f" transform="translate(470.703)"/><use xlink:href="#DejaVuSans-72" transform="translate(531.885)"/><use xlink:href="#DejaVuSans-74" transform="translate(572.998)"/></g></g><g id="xtick_3"><path id="line2d_5" d="M256.711 390.04V25.44" clip-path="url(#pb511ee31a7)" style="fill:none;stroke:#b0b0b0;stroke-width:.8;stroke-linecap:square"/><use xlink:href="#m799c9314b8" id="line2d_6" x="256.711" y="390.04" style="stroke:#000;stroke-width:.8"/><g id="text_3" transform="matrix(.1 0 0 -.1 222.92 404.638)"><defs><path id="DejaVuSans-31" d="M794 531h1031v3560L703 3866v575l1116 225h631V531h1031V0H794z" transform="scale(.01563)"/></defs><use xlink:href="#DejaVuSans-31"/><use xlink:href="#DejaVuSans-30" transform="translate(63.623)"/><use xlink:href="#DejaVuSans-6d" transform="translate(159.033)"/><use xlink:href="#DejaVuSans-4c" transform="translate(256.445)"/><use xlink:href="#DejaVuSans-61" transform="translate(312.158)"/><use xlink:href="#DejaVuSans-6d" transform="translate(373.438)"/><use xlink:href="#DejaVuSans-70" transform="translate(470.85)"/><use xlink:href="#DejaVuSans-6f" transform="translate(534.326)"/><use xlink:href="#DejaVuSans-72" transform="translate(595.508)"/><use xlink:href="#DejaVuSans-74" transform="translate(636.621)"/></g></g><g id="xtick_4"><path id="line2d_7" d="M348.157 390.04V25.44" clip-path="url(#pb511ee31a7)" style="fill:none;stroke:#b0b0b0;stroke-width:.8;stroke-linecap:square"/><use xlink:href="#m799c9314b8" id="line2d_8" x="348.157" y="390.04" style="stroke:#000;stroke-width:.8"/><g id="text_4" transform="matrix(.1 0 0 -.1 314.365 404.638)"><use xlink:href="#DejaVuSans-31"/><use xlink:href="#DejaVuSans-35" transform="translate(63.623)"/><use xlink:href="#DejaVuSans-6d" transform="translate(159.033)"/><use xlink:href="#DejaVuSans-4c" transform="translate(256.445)"/><use xlink:href="#DejaVuSans-61" transform="translate(312.158)"/><use xlink:href="#DejaVuSans-6d" transform="translate(373.438)"/><use xlink:href="#DejaVuSans-70" transform="translate(470.85)"/><use xlink:href="#DejaVuSans-6f" transform="translate(534.326)"/><use xlink:href="#DejaVuSans-72" transform="translate(595.508)"/><use xlink:href="#DejaVuSans-74" transform="translate(636.621)"/></g></g><g id="xtick_5"><path id="line2d_9" d="M439.602 390.04V25.44" clip-path="url(#pb511ee31a7)" style="fill:none;stroke:#b0b0b0;stroke-width:.8;stroke-linecap:square"/><use xlink:href="#m799c9314b8" id="line2d_10" x="439.602" y="390.04" style="stroke:#000;stroke-width:.8"/><g id="text_5" transform="matrix(.1 0 0 -.1 405.811 404.638)"><defs><path id="DejaVuSans-32" d="M1228 531h2203V0H469v531q359 372 979 998 621 627 780 809 303 340 423 576 121 236 121 464 0 372-261 606-261 235-680 235-297 0-627-103-329-103-704-313v638q381 153 712 231 332 78 607 78 725 0 1156-363 431-362 431-968 0-288-108-546-107-257-392-607-78-91-497-524-418-433-1181-1211" transform="scale(.01563)"/></defs><use xlink:href="#DejaVuSans-32"/><use xlink:href="#DejaVuSans-30" transform="translate(63.623)"/><use xlink:href="#DejaVuSans-6d" transform="translate(159.033)"/><use xlink:href="#DejaVuSans-4c" transform="translate(256.445)"/><use xlink:href="#DejaVuSans-61" transform="translate(312.158)"/><use xlink:href="#DejaVuSans-6d" transform="translate(373.438)"/><use xlink:href="#DejaVuSans-70" transform="translate(470.85)"/><use xlink:href="#DejaVuSans-6f" transform="translate(534.326)"/><use xlink:href="#DejaVuSans-72" transform="translate(595.508)"/><use xlink:href="#DejaVuSans-74" transform="translate(636.621)"/></g></g><g id="xtick_6"><path id="line2d_11" d="M531.048 390.04V25.44" clip-path="url(#pb511ee31a7)" style="fill:none;stroke:#b0b0b0;stroke-width:.8;stroke-linecap:square"/><use xlink:href="#m799c9314b8" id="line2d_12" x="531.048" y="390.04" style="stroke:#000;stroke-width:.8"/><g id="text_6" transform="matrix(.1 0 0 -.1 497.257 404.638)"><use xlink:href="#DejaVuSans-32"/><use xlink:href="#DejaVuSans-35" transform="translate(63.623)"/><use xlink:href="#DejaVuSans-6d" transform="translate(159.033)"/><use xlink:href="#DejaVuSans-4c" transform="translate(256.445)"/><use xlink:href="#DejaVuSans-61" transform="translate(312.158)"/><use xlink:href="#DejaVuSans-6d" transform="translate(373.438)"/><use xlink:href="#DejaVuSans-70" transform="translate(470.85)"/><use xlink:href="#DejaVuSans-6f" transform="translate(534.326)"/><use xlink:href="#DejaVuSans-72" transform="translate(595.508)"/><use xlink:href="#DejaVuSans-74" transform="translate(636.621)"/></g></g><g id="xtick_7"><path id="line2d_13" d="M622.494 390.04V25.44" clip-path="url(#pb511ee31a7)" style="fill:none;stroke:#b0b0b0;stroke-width:.8;stroke-linecap:square"/><use xlink:href="#m799c9314b8" id="line2d_14" x="622.494" y="390.04" style="stroke:#000;stroke-width:.8"/><g id="text_7" transform="matrix(.1 0 0 -.1 588.702 404.638)"><defs><path id="DejaVuSans-33" d="M2597 2516q453-97 707-404 255-306 255-756 0-690-475-1069Q2609-91 1734-91q-293 0-604 58T488 141v609q262-153 574-231 313-78 654-78 593 0 904 234t311 681q0 413-289 645-289 233-804 233h-544v519h569q465 0 712 186t247 536q0 359-255 551-254 193-729 193-260 0-557-57-297-56-653-174v562q360 100 674 150t592 50q719 0 1137-327 419-326 419-882 0-388-222-655t-631-370" transform="scale(.01563)"/></defs><use xlink:href="#DejaVuSans-33"/><use xlink:href="#DejaVuSans-30" transform="translate(63.623)"/><use xlink:href="#DejaVuSans-6d" transform="translate(159.033)"/><use xlink:href="#DejaVuSans-4c" transform="translate(256.445)"/><use xlink:href="#DejaVuSans-61" transform="translate(312.158)"/><use xlink:href="#DejaVuSans-6d" transform="translate(373.438)"/><use xlink:href="#DejaVuSans-70" transform="translate(470.85)"/><use xlink:href="#DejaVuSans-6f" transform="translate(534.326)"/><use xlink:href="#DejaVuSans-72" transform="translate(595.508)"/><use xlink:href="#DejaVuSans-74" transform="translate(636.621)"/></g></g><g id="text_8" transform="matrix(.1 0 0 -.1 354.982 418.317)"><defs><path id="DejaVuSans-50" d="M1259 4147V2394h794q441 0 681 228 241 228 241 650 0 419-241 647-240 228-681 228zm-631 519h1425q785 0 1186-355 402-355 402-1039 0-691-402-1044-401-353-1186-353h-794V0H628z" transform="scale(.01563)"/><path id="DejaVuSans-69" d="M603 3500h575V0H603zm0 1363h575v-729H603z" transform="scale(.01563)"/><path id="DejaVuSans-79" d="M2059-325q-243-625-475-815-231-191-618-191H506v481h338q237 0 368 113 132 112 291 531l103 262L191 3500h609L1894 763l1094 2737h609z" transform="scale(.01563)"/><path id="DejaVuSans-63" d="M3122 3366v-538q-244 135-489 202t-495 67q-560 0-870-355-309-354-309-995t309-996q310-354 870-354 250 0 495 67t489 202V134Q2881 22 2623-34q-257-57-548-57-791 0-1257 497-465 497-465 1341 0 856 470 1346 471 491 1290 491 265 0 518-55 253-54 491-163" transform="scale(.01563)"/><path id="DejaVuSans-65" d="M3597 1894v-281H953q38-594 358-905t892-311q331 0 642 81t618 244V178Q3153 47 2828-22t-659-69q-838 0-1327 487-489 488-489 1320 0 859 464 1363 464 505 1252 505 706 0 1117-455 411-454 411-1235m-575 169q-6 471-264 752-258 282-683 282-481 0-770-272t-333-766z" transform="scale(.01563)"/></defs><use xlink:href="#DejaVuSans-50"/><use xlink:href="#DejaVuSans-72" transform="translate(58.553)"/><use xlink:href="#DejaVuSans-69" transform="translate(99.666)"/><use xlink:href="#DejaVuSans-6f" transform="translate(127.45)"/><use xlink:href="#DejaVuSans-72" transform="translate(188.63)"/><use xlink:href="#DejaVuSans-69" transform="translate(229.744)"/><use xlink:href="#DejaVuSans-74" transform="translate(257.527)"/><use xlink:href="#DejaVuSans-79" transform="translate(296.736)"/><use xlink:href="#DejaVuSans-50" transform="translate(387.703)"/><use xlink:href="#DejaVuSans-72" transform="translate(446.256)"/><use xlink:href="#DejaVuSans-69" transform="translate(487.37)"/><use xlink:href="#DejaVuSans-63" transform="translate(515.152)"/><use xlink:href="#DejaVuSans-65" transform="translate(570.133)"/></g></g><g id="matplotlib.axis_2"><g id="ytick_1"><path id="line2d_15" d="M73.82 373.467h625.488" clip-path="url(#pb511ee31a7)" style="fill:none;stroke:#b0b0b0;stroke-width:.8;stroke-linecap:square"/><g id="line2d_16"><defs><path id="mfa1d83fdf1" d="M0 0h-3.5" style="stroke:#000;stroke-width:.8"/></defs><use xlink:href="#mfa1d83fdf1" x="73.82" y="373.467" style="stroke:#000;stroke-width:.8"/></g><g id="text_9" transform="matrix(.1 0 0 -.1 31.125 377.266)"><defs><path id="DejaVuSans-53" d="M3425 4513v-616q-359 172-678 256-319 85-616 85-515 0-795-200t-280-569q0-310 186-468 186-157 705-254l381-78q706-135 1042-474t336-907q0-679-455-1029Q2797-91 1919-91q-331 0-705 75-373 75-773 222v650q384-215 753-325 369-109 725-109 540 0 834 212 294 213 294 607 0 343-211 537t-692 291l-385 75q-706 140-1022 440-315 300-315 835 0 619 436 975t1201 356q329 0 669-60 341-59 697-177" transform="scale(.01563)"/><path id="DejaVuSans-4f" d="M2522 4238q-688 0-1093-513-404-512-404-1397 0-881 404-1394 405-512 1093-512 687 0 1089 512 402 513 402 1394 0 885-402 1397-402 513-1089 513m0 512q981 0 1568-658 588-658 588-1764 0-1103-588-1761Q3503-91 2522-91q-984 0-1574 656-589 657-589 1763t589 1764q590 658 1574 658" transform="scale(.01563)"/></defs><use xlink:href="#DejaVuSans-30"/><use xlink:href="#DejaVuSans-b5" transform="translate(95.41)"/><use xlink:href="#DejaVuSans-53" transform="translate(159.033)"/><use xlink:href="#DejaVuSans-4f" transform="translate(222.51)"/><use xlink:href="#DejaVuSans-4c" transform="translate(301.22)"/></g></g><g id="ytick_2"><path id="line2d_17" d="M73.82 307.641h625.488" clip-path="url(#pb511ee31a7)" style="fill:none;stroke:#b0b0b0;stroke-width:.8;stroke-linecap:square"/><use xlink:href="#mfa1d83fdf1" id="line2d_18" x="73.82" y="307.641" style="stroke:#000;stroke-width:.8"/><g id="text_10" transform="matrix(.1 0 0 -.1 31.125 311.44)"><use xlink:href="#DejaVuSans-35"/><use xlink:href="#DejaVuSans-b5" transform="translate(95.41)"/><use xlink:href="#DejaVuSans-53" transform="translate(159.033)"/><use xlink:href="#DejaVuSans-4f" transform="translate(222.51)"/><use xlink:href="#DejaVuSans-4c" transform="translate(301.22)"/></g></g><g id="ytick_3"><path id="line2d_19" d="M73.82 241.815h625.488" clip-path="url(#pb511ee31a7)" style="fill:none;stroke:#b0b0b0;stroke-width:.8;stroke-linecap:square"/><use xlink:href="#mfa1d83fdf1" id="line2d_20" x="73.82" y="241.815" style="stroke:#000;stroke-width:.8"/><g id="text_11" transform="matrix(.1 0 0 -.1 24.762 245.614)"><use xlink:href="#DejaVuSans-31"/><use xlink:href="#DejaVuSans-30" transform="translate(63.623)"/><use xlink:href="#DejaVuSans-b5" transform="translate(159.033)"/><use xlink:href="#DejaVuSans-53" transform="translate(222.656)"/><use xlink:href="#DejaVuSans-4f" transform="translate(286.133)"/><use xlink:href="#DejaVuSans-4c" transform="translate(364.844)"/></g></g><g id="ytick_4"><path id="line2d_21" d="M73.82 175.989h625.488" clip-path="url(#pb511ee31a7)" style="fill:none;stroke:#b0b0b0;stroke-width:.8;stroke-linecap:square"/><use xlink:href="#mfa1d83fdf1" id="line2d_22" x="73.82" y="175.989" style="stroke:#000;stroke-width:.8"/><g id="text_12" transform="matrix(.1 0 0 -.1 24.762 179.788)"><use xlink:href="#DejaVuSans-31"/><use xlink:href="#DejaVuSans-35" transform="translate(63.623)"/><use xlink:href="#DejaVuSans-b5" transform="translate(159.033)"/><use xlink:href="#DejaVuSans-53" transform="translate(222.656)"/><use xlink:href="#DejaVuSans-4f" transform="translate(286.133)"/><use xlink:href="#DejaVuSans-4c" transform="translate(364.844)"/></g></g><g id="ytick_5"><path id="line2d_23" d="M73.82 110.162h625.488" clip-path="url(#pb511ee31a7)" style="fill:none;stroke:#b0b0b0;stroke-width:.8;stroke-linecap:square"/><use xlink:href="#mfa1d83fdf1" id="line2d_24" x="73.82" y="110.162" style="stroke:#000;stroke-width:.8"/><g id="text_13" transform="matrix(.1 0 0 -.1 24.762 113.962)"><use xlink:href="#DejaVuSans-32"/><use xlink:href="#DejaVuSans-30" transform="translate(63.623)"/><use xlink:href="#DejaVuSans-b5" transform="translate(159.033)"/><use xlink:href="#DejaVuSans-53" transform="translate(222.656)"/><use xlink:href="#DejaVuSans-4f" transform="translate(286.133)"/><use xlink:href="#DejaVuSans-4c" transform="translate(364.844)"/></g></g><g id="ytick_6"><path id="line2d_25" d="M73.82 44.336h625.488" clip-path="url(#pb511ee31a7)" style="fill:none;stroke:#b0b0b0;stroke-width:.8;stroke-linecap:square"/><use xlink:href="#mfa1d83fdf1" id="line2d_26" x="73.82" y="44.336" style="stroke:#000;stroke-width:.8"/><g id="text_14" transform="matrix(.1 0 0 -.1 24.762 48.135)"><use xlink:href="#DejaVuSans-32"/><use xlink:href="#DejaVuSans-35" transform="translate(63.623)"/><use xlink:href="#DejaVuSans-b5" transform="translate(159.033)"/><use xlink:href="#DejaVuSans-53" transform="translate(222.656)"/><use xlink:href="#DejaVuSans-4f" transform="translate(286.133)"/><use xlink:href="#DejaVuSans-4c" transform="translate(364.844)"/></g></g><g id="text_15" transform="matrix(0 -.1 -.1 0 18.683 232.121)"><defs><path id="DejaVuSans-54" d="M-19 4666h3947v-532H2272V0h-634v4134H-19z" transform="scale(.01563)"/><path id="DejaVuSans-6c" d="M603 4863h575V0H603z" transform="scale(.01563)"/><path id="DejaVuSans-43" d="M4122 4306v-665q-319 297-680 443-361 147-767 147-800 0-1225-489t-425-1414q0-922 425-1411t1225-489q406 0 767 147t680 444V359q-331-225-702-338-370-112-782-112-1060 0-1670 648-609 649-609 1771 0 1125 609 1773 610 649 1670 649 418 0 788-111 371-111 696-333" transform="scale(.01563)"/><path id="DejaVuSans-73" d="M2834 3397v-544q-243 125-506 187-262 63-544 63-428 0-642-131t-214-394q0-200 153-314t616-217l197-44q612-131 870-370t258-667q0-488-386-773Q2250-91 1575-91q-281 0-586 55T347 128v594q319-166 628-249 309-82 613-82 406 0 624 139 219 139 219 392 0 234-158 359-157 125-692 241l-200 47q-534 112-772 345-237 233-237 639 0 494 350 762 350 269 994 269 318 0 599-47 282-46 519-140" transform="scale(.01563)"/></defs><use xlink:href="#DejaVuSans-54"/><use xlink:href="#DejaVuSans-6f" transform="translate(44.084)"/><use xlink:href="#DejaVuSans-74" transform="translate(105.266)"/><use xlink:href="#DejaVuSans-61" transform="translate(144.475)"/><use xlink:href="#DejaVuSans-6c" transform="translate(205.754)"/><use xlink:href="#DejaVuSans-43" transform="translate(265.324)"/><use xlink:href="#DejaVuSans-6f" transform="translate(335.148)"/><use xlink:href="#DejaVuSans-73" transform="translate(396.33)"/><use xlink:href="#DejaVuSans-74" transform="translate(448.43)"/></g></g><path id="line2d_27" d="m73.82 175.462 548.674-133.45h0" clip-path="url(#pb511ee31a7)" style="fill:none;stroke:#00f;stroke-width:4;stroke-linecap:square"/><path id="line2d_28" d="m73.82 373.467 548.674-13.183h0" clip-path="url(#pb511ee31a7)" style="fill:none;stroke:red;stroke-width:4;stroke-linecap:square"/><path id="line2d_29" d="M256.711 390.04V25.44" clip-path="url(#pb511ee31a7)" style="fill:none;stroke-dasharray:3.7,1.6;stroke-dashoffset:0;stroke:red"/><path id="patch_3" d="M73.82 390.04V25.44" style="fill:none;stroke:#000;stroke-width:.8;stroke-linejoin:miter;stroke-linecap:square"/><path id="patch_4" d="M699.308 390.04V25.44" style="fill:none;stroke:#000;stroke-width:.8;stroke-linejoin:miter;stroke-linecap:square"/><path id="patch_5" d="M73.82 390.04h625.488" style="fill:none;stroke:#000;stroke-width:.8;stroke-linejoin:miter;stroke-linecap:square"/><path id="patch_6" d="M73.82 25.44h625.488" style="fill:none;stroke:#000;stroke-width:.8;stroke-linejoin:miter;stroke-linecap:square"/><g id="text_16"><g transform="matrix(.11 0 0 -.11 624.14 38.89)"><defs><path id="DejaVuSans-68" d="M3513 2113V0h-575v2094q0 497-194 743-194 247-581 247-466 0-735-297-269-296-269-809V0H581v4863h578V2956q207 316 486 472 280 156 646 156 603 0 912-373 310-373 310-1098" transform="scale(.01563)"/></defs><use xlink:href="#DejaVuSans-73"/><use xlink:href="#DejaVuSans-68" transform="translate(52.1)"/><use xlink:href="#DejaVuSans-69" transform="translate(115.479)"/><use xlink:href="#DejaVuSans-6d" transform="translate(143.262)"/></g><g transform="matrix(.11 0 0 -.11 624.14 51.207)"><defs><path id="DejaVuSans-76" d="M191 3500h609L1894 563l1094 2937h609L2284 0h-781z" transform="scale(.01563)"/><path id="DejaVuSans-66" d="M2375 4863v-479h-550q-309 0-430-125-120-125-120-450v-309h947v-447h-947V0H697v3053H147v447h550v244q0 584 272 851 272 268 862 268z" transform="scale(.01563)"/></defs><use xlink:href="#DejaVuSans-76"/><use xlink:href="#DejaVuSans-65" transform="translate(59.18)"/><use xlink:href="#DejaVuSans-72" transform="translate(120.703)"/><use xlink:href="#DejaVuSans-69" transform="translate(161.816)"/><use xlink:href="#DejaVuSans-66" transform="translate(189.6)"/><use xlink:href="#DejaVuSans-79" transform="translate(223.055)"/></g></g><path id="patch_7" d="m138.572 365.733-7.201 4.804m4.437-.556-4.437.556 2.218-3.884" style="fill:none;stroke:#000;stroke-width:.8;stroke-linecap:round"/><g id="text_17"><path id="patch_8" d="M130.792 364.373h40.147q2 0 2-2v-9.678q0-2-2-2h-40.147q-2 0-2 2v9.678q0 2 2 2z" style="fill:#fff;stroke:gray;stroke-width:.5;stroke-linejoin:miter"/><g style="fill:#006400" transform="matrix(.1 0 0 -.1 130.792 360.294)"><defs><path id="DejaVuSans-2193" d="M2822-22h-281L1309 1209l375 375 732-731v3813h531V853l725 731 375-375z" transform="scale(.01563)"/><path id="DejaVuSans-39" d="M703 97v575q238-113 481-172 244-59 479-59 625 0 954 420 330 420 377 1277-181-269-460-413-278-144-615-144-700 0-1108 423-408 424-408 1159 0 718 425 1152 425 435 1131 435 810 0 1236-621 427-620 427-1801 0-1103-524-1761Q2575-91 1691-91q-238 0-482 47Q966 3 703 97m1256 1978q425 0 673 290 249 291 249 798 0 503-249 795-248 292-673 292t-673-292-248-795q0-507 248-798 248-290 673-290" transform="scale(.01563)"/><path id="DejaVuSans-2e" d="M684 794h660V0H684z" transform="scale(.01563)"/><path id="DejaVuSans-34" d="M2419 4116 825 1625h1594zm-166 550h794V1625h666v-525h-666V0h-628v1100H313v609z" transform="scale(.01563)"/><path id="DejaVuSans-25" d="M4653 2053q-272 0-427-231-154-231-154-644 0-406 154-639 155-233 427-233 266 0 420 233 155 233 155 639 0 410-155 642-154 233-420 233m0 397q494 0 784-344 291-343 291-928 0-584-292-927-292-342-783-342-500 0-791 342-290 343-290 927 0 588 292 930t789 342M1428 4353q-269 0-424-233-154-232-154-639 0-412 153-644 153-231 425-231t426 231q155 232 155 644 0 403-156 637-156 235-425 235m2822 397h500L1831-91h-500zm-2822 0q494 0 787-342 294-342 294-927 0-590-292-931t-789-341-786 342q-289 343-289 930 0 582 290 925 291 344 785 344" transform="scale(.01563)"/></defs><use xlink:href="#DejaVuSans-2193"/><use xlink:href="#DejaVuSans-39" transform="translate(83.79)"/><use xlink:href="#DejaVuSans-39" transform="translate(147.412)"/><use xlink:href="#DejaVuSans-2e" transform="translate(211.035)"/><use xlink:href="#DejaVuSans-34" transform="translate(242.822)"/><use xlink:href="#DejaVuSans-25" transform="translate(306.445)"/></g></g><path id="patch_9" d="m248.859 363.083-7.202 4.804m4.437-.556-4.437.556 2.218-3.884" style="fill:none;stroke:#000;stroke-width:.8;stroke-linecap:round"/><g id="text_18"><path id="patch_10" d="M241.078 361.724h40.147q2 0 2-2v-9.679q0-2-2-2h-40.147q-2 0-2 2v9.679q0 2 2 2z" style="fill:#fff;stroke:gray;stroke-width:.5;stroke-linejoin:miter"/><g style="fill:#006400" transform="matrix(.1 0 0 -.1 241.078 357.644)"><defs><path id="DejaVuSans-38" d="M2034 2216q-450 0-708-241-257-241-257-662 0-422 257-663 258-241 708-241t709 242q260 243 260 662 0 421-258 662-257 241-711 241m-631 268q-406 100-633 378-226 279-226 679 0 559 398 884 399 325 1092 325 697 0 1094-325t397-884q0-400-227-679-226-278-629-378 456-106 710-416 255-309 255-755 0-679-414-1042Q2806-91 2034-91q-771 0-1186 362-414 363-414 1042 0 446 256 755 257 310 713 416m-231 997q0-362 226-565 227-203 636-203 407 0 636 203 230 203 230 565 0 363-230 566-229 203-636 203-409 0-636-203-226-203-226-566" transform="scale(.01563)"/></defs><use xlink:href="#DejaVuSans-2193"/><use xlink:href="#DejaVuSans-39" transform="translate(83.79)"/><use xlink:href="#DejaVuSans-38" transform="translate(147.412)"/><use xlink:href="#DejaVuSans-2e" transform="translate(211.035)"/><use xlink:href="#DejaVuSans-33" transform="translate(242.822)"/><use xlink:href="#DejaVuSans-25" transform="translate(306.445)"/></g></g><path id="patch_11" d="m359.145 360.434-7.202 4.803m4.437-.556-4.437.556 2.218-3.883" style="fill:none;stroke:#000;stroke-width:.8;stroke-linecap:round"/><g id="text_19"><path id="patch_12" d="M351.364 359.074h40.147q2 0 2-2v-9.678q0-2-2-2h-40.147q-2 0-2 2v9.678q0 2 2 2z" style="fill:#fff;stroke:gray;stroke-width:.5;stroke-linejoin:miter"/><g style="fill:#006400" transform="matrix(.1 0 0 -.1 351.364 354.994)"><defs><path id="DejaVuSans-37" d="M525 4666h3000v-269L1831 0h-659l1594 4134H525z" transform="scale(.01563)"/></defs><use xlink:href="#DejaVuSans-2193"/><use xlink:href="#DejaVuSans-39" transform="translate(83.79)"/><use xlink:href="#DejaVuSans-37" transform="translate(147.412)"/><use xlink:href="#DejaVuSans-2e" transform="translate(211.035)"/><use xlink:href="#DejaVuSans-35" transform="translate(242.822)"/><use xlink:href="#DejaVuSans-25" transform="translate(306.445)"/></g></g><path id="patch_13" d="m469.43 357.784-7.201 4.803m4.437-.555-4.437.555 2.218-3.883" style="fill:none;stroke:#000;stroke-width:.8;stroke-linecap:round"/><g id="text_20"><path id="patch_14" d="M461.65 356.424h40.147q2 0 2-2v-9.678q0-2-2-2H461.65q-2 0-2 2v9.678q0 2 2 2z" style="fill:#fff;stroke:gray;stroke-width:.5;stroke-linejoin:miter"/><g style="fill:#006400" transform="matrix(.1 0 0 -.1 461.65 352.344)"><defs><path id="DejaVuSans-36" d="M2113 2584q-425 0-674-291-248-290-248-796 0-503 248-796 249-292 674-292t673 292q248 293 248 796 0 506-248 796-248 291-673 291m1253 1979v-575q-238 112-480 171-242 60-480 60-625 0-955-422-329-422-376-1275 184 272 462 417 279 145 613 145 703 0 1111-427 408-426 408-1160 0-719-425-1154Q2819-91 2113-91q-810 0-1238 620-428 621-428 1799 0 1106 525 1764t1409 658q238 0 480-47t505-140" transform="scale(.01563)"/></defs><use xlink:href="#DejaVuSans-2193"/><use xlink:href="#DejaVuSans-39" transform="translate(83.79)"/><use xlink:href="#DejaVuSans-36" transform="translate(147.412)"/><use xlink:href="#DejaVuSans-2e" transform="translate(211.035)"/><use xlink:href="#DejaVuSans-38" transform="translate(242.822)"/><use xlink:href="#DejaVuSans-25" transform="translate(306.445)"/></g></g><path id="patch_15" d="m579.717 355.134-7.202 4.803m4.438-.555-4.438.555 2.218-3.883" style="fill:none;stroke:#000;stroke-width:.8;stroke-linecap:round"/><g id="text_21"><path id="patch_16" d="M571.937 353.774h40.146q2 0 2-2v-9.678q0-2-2-2h-40.146q-2 0-2 2v9.678q0 2 2 2z" style="fill:#fff;stroke:gray;stroke-width:.5;stroke-linejoin:miter"/><g style="fill:#006400" transform="matrix(.1 0 0 -.1 571.937 349.694)"><use xlink:href="#DejaVuSans-2193"/><use xlink:href="#DejaVuSans-39" transform="translate(83.79)"/><use xlink:href="#DejaVuSans-36" transform="translate(147.412)"/><use xlink:href="#DejaVuSans-2e" transform="translate(211.035)"/><use xlink:href="#DejaVuSans-33" transform="translate(242.822)"/><use xlink:href="#DejaVuSans-25" transform="translate(306.445)"/></g></g><g id="text_22"><g transform="matrix(.11 0 0 -.11 624.14 357.16)"><defs><path id="DejaVuSans-56" d="M1831 0 50 4666h659L2188 738l1481 3928h656L2547 0z" transform="scale(.01563)"/><path id="DejaVuSans-6e" d="M3513 2113V0h-575v2094q0 497-194 743-194 247-581 247-466 0-735-297-269-296-269-809V0H581v3500h578v-544q207 316 486 472 280 156 646 156 603 0 912-373 310-373 310-1098" transform="scale(.01563)"/></defs><use xlink:href="#DejaVuSans-56"/><use xlink:href="#DejaVuSans-65" transform="translate(60.658)"/><use xlink:href="#DejaVuSans-72" transform="translate(122.182)"/><use xlink:href="#DejaVuSans-69" transform="translate(163.295)"/><use xlink:href="#DejaVuSans-66" transform="translate(191.078)"/><use xlink:href="#DejaVuSans-69" transform="translate(226.283)"/><use xlink:href="#DejaVuSans-63" transform="translate(254.066)"/><use xlink:href="#DejaVuSans-61" transform="translate(309.047)"/><use xlink:href="#DejaVuSans-74" transform="translate(370.326)"/><use xlink:href="#DejaVuSans-69" transform="translate(409.535)"/><use xlink:href="#DejaVuSans-6f" transform="translate(437.318)"/><use xlink:href="#DejaVuSans-6e" transform="translate(498.5)"/><use xlink:href="#DejaVuSans-56" transform="translate(561.879)"/><use xlink:href="#DejaVuSans-32" transform="translate(630.287)"/></g><g transform="matrix(.11 0 0 -.11 624.14 369.478)"><defs><path id="DejaVuSans-64" d="M2906 2969v1894h575V0h-575v525q-181-312-458-464-276-152-664-152-634 0-1033 506-398 507-398 1332t398 1331q399 506 1033 506 388 0 664-152 277-151 458-463M947 1747q0-634 261-995t717-361 718 361q263 361 263 995t-263 995q-262 361-718 361t-717-361-261-995" transform="scale(.01563)"/><path id="DejaVuSans-67" d="M2906 1791q0 625-258 968-257 344-723 344-462 0-720-344-258-343-258-968 0-622 258-966t720-344q466 0 723 344 258 344 258 966m575-1357q0-893-397-1329-396-436-1215-436-303 0-572 45t-522 139v559q253-137 500-202 247-66 503-66 566 0 847 295t281 892v285q-178-310-456-463T1784 0Q1141 0 747 490 353 981 353 1791q0 812 394 1302 394 491 1037 491 388 0 666-153t456-462v531h575z" transform="scale(.01563)"/></defs><use xlink:href="#DejaVuSans-6f"/><use xlink:href="#DejaVuSans-6e" transform="translate(61.182)"/><use xlink:href="#DejaVuSans-6c" transform="translate(124.56)"/><use xlink:href="#DejaVuSans-79" transform="translate(152.344)"/><use xlink:href="#DejaVuSans-64" transform="translate(243.31)"/><use xlink:href="#DejaVuSans-69" transform="translate(306.787)"/><use xlink:href="#DejaVuSans-67" transform="translate(334.57)"/><use xlink:href="#DejaVuSans-65" transform="translate(398.047)"/><use xlink:href="#DejaVuSans-73" transform="translate(459.57)"/><use xlink:href="#DejaVuSans-74" transform="translate(511.67)"/></g></g><path id="patch_17" d="m328.78 206.479-70.412 112.145m3.821-2.324-3.821 2.324.433-4.45" style="fill:none;stroke:#000;stroke-linecap:round"/><g id="text_23"><path id="patch_18" d="M293.29 204.533h97.33q3 0 3-3V169.46q0-3-3-3h-97.33q-3 0-3 3v32.073q0 3 3 3z" style="fill:#fff;stroke:gray;stroke-width:.5;stroke-linejoin:miter"/><g transform="matrix(.1 0 0 -.1 293.29 177.058)"><defs><path id="DejaVuSans-57" d="M213 4666h637l981-3944 978 3944h710l981-3944 978 3944h641L4947 0h-794l-984 4050L2175 0h-794z" transform="scale(.01563)"/><path id="DejaVuSans-78" d="M3513 3500 2247 1797 3578 0h-678L1881 1375 863 0H184l1360 1831L300 3500h678l928-1247 928 1247z" transform="scale(.01563)"/></defs><use xlink:href="#DejaVuSans-57"/><use xlink:href="#DejaVuSans-65" transform="translate(93.002)"/><use xlink:href="#DejaVuSans-65" transform="translate(186.313)"/><use xlink:href="#DejaVuSans-78" transform="translate(246.086)"/><use xlink:href="#DejaVuSans-70" transform="translate(305.266)"/><use xlink:href="#DejaVuSans-65" transform="translate(368.742)"/><use xlink:href="#DejaVuSans-63" transform="translate(430.266)"/><use xlink:href="#DejaVuSans-74" transform="translate(485.246)"/><use xlink:href="#DejaVuSans-70" transform="translate(556.242)"/><use xlink:href="#DejaVuSans-72" transform="translate(619.719)"/><use xlink:href="#DejaVuSans-69" transform="translate(660.832)"/><use xlink:href="#DejaVuSans-6f" transform="translate(688.615)"/><use xlink:href="#DejaVuSans-72" transform="translate(749.797)"/><use xlink:href="#DejaVuSans-69" transform="translate(790.91)"/><use xlink:href="#DejaVuSans-74" transform="translate(818.693)"/><use xlink:href="#DejaVuSans-79" transform="translate(857.902)"/></g><g transform="matrix(.1 0 0 -.1 293.29 188.256)"><defs><path id="DejaVuSans-62" d="M3116 1747q0 634-261 995t-717 361q-457 0-718-361t-261-995 261-995 718-361q456 0 717 361t261 995M1159 2969q182 312 458 463 277 152 661 152 638 0 1036-506 399-506 399-1331T3314 415Q2916-91 2278-91q-384 0-661 152-276 152-458 464V0H581v4863h578z" transform="scale(.01563)"/><path id="DejaVuSans-75" d="M544 1381v2119h575V1403q0-497 193-746 194-248 582-248 465 0 735 297 271 297 271 810v1984h575V0h-575v538q-209-319-486-474-276-155-642-155-603 0-916 375-312 375-312 1097m1447 2203" transform="scale(.01563)"/></defs><use xlink:href="#DejaVuSans-70"/><use xlink:href="#DejaVuSans-72" transform="translate(63.477)"/><use xlink:href="#DejaVuSans-69" transform="translate(104.59)"/><use xlink:href="#DejaVuSans-63" transform="translate(132.373)"/><use xlink:href="#DejaVuSans-65" transform="translate(187.354)"/><use xlink:href="#DejaVuSans-73" transform="translate(248.877)"/><use xlink:href="#DejaVuSans-74" transform="translate(332.764)"/><use xlink:href="#DejaVuSans-6f" transform="translate(371.973)"/><use xlink:href="#DejaVuSans-62" transform="translate(464.941)"/><use xlink:href="#DejaVuSans-65" transform="translate(528.418)"/><use xlink:href="#DejaVuSans-61" transform="translate(621.729)"/><use xlink:href="#DejaVuSans-72" transform="translate(683.008)"/><use xlink:href="#DejaVuSans-6f" transform="translate(721.871)"/><use xlink:href="#DejaVuSans-75" transform="translate(783.053)"/><use xlink:href="#DejaVuSans-6e" transform="translate(846.432)"/><use xlink:href="#DejaVuSans-64" transform="translate(909.81)"/></g><g transform="matrix(.1 0 0 -.1 293.29 199.454)"><use xlink:href="#DejaVuSans-68"/><use xlink:href="#DejaVuSans-65" transform="translate(63.379)"/><use xlink:href="#DejaVuSans-72" transform="translate(124.902)"/><use xlink:href="#DejaVuSans-65" transform="translate(163.766)"/><use xlink:href="#DejaVuSans-74" transform="translate(257.076)"/><use xlink:href="#DejaVuSans-79" transform="translate(296.285)"/><use xlink:href="#DejaVuSans-70" transform="translate(355.465)"/><use xlink:href="#DejaVuSans-69" transform="translate(418.941)"/><use xlink:href="#DejaVuSans-63" transform="translate(446.725)"/><use xlink:href="#DejaVuSans-61" transform="translate(501.705)"/><use xlink:href="#DejaVuSans-6c" transform="translate(562.984)"/><use xlink:href="#DejaVuSans-6c" transform="translate(590.768)"/><use xlink:href="#DejaVuSans-79" transform="translate(618.55)"/></g></g><g id="text_24" transform="matrix(.12 0 0 -.12 192.984 19.44)"><defs><path id="DejaVuSans-2d" d="M313 2009h1684v-512H313z" transform="scale(.01563)"/><path id="DejaVuSans-52" d="M2841 2188q203-69 395-294t386-619L4263 0h-679l-596 1197q-232 469-449 622t-592 153h-688V0H628v4666h1425q800 0 1194-335 394-334 394-1009 0-441-205-732-205-290-595-402M1259 4147V2491h794q456 0 689 211t233 620-233 617-689 208z" transform="scale(.01563)"/></defs><use xlink:href="#DejaVuSans-53"/><use xlink:href="#DejaVuSans-68" transform="translate(63.477)"/><use xlink:href="#DejaVuSans-69" transform="translate(126.855)"/><use xlink:href="#DejaVuSans-6d" transform="translate(154.639)"/><use xlink:href="#DejaVuSans-63" transform="translate(283.838)"/><use xlink:href="#DejaVuSans-6f" transform="translate(338.818)"/><use xlink:href="#DejaVuSans-72" transform="translate(400)"/><use xlink:href="#DejaVuSans-65" transform="translate(438.863)"/><use xlink:href="#DejaVuSans-76" transform="translate(532.174)"/><use xlink:href="#DejaVuSans-73" transform="translate(591.354)"/><use xlink:href="#DejaVuSans-56" transform="translate(675.24)"/><use xlink:href="#DejaVuSans-65" transform="translate(735.898)"/><use xlink:href="#DejaVuSans-72" transform="translate(797.422)"/><use xlink:href="#DejaVuSans-69" transform="translate(838.535)"/><use xlink:href="#DejaVuSans-66" transform="translate(866.318)"/><use xlink:href="#DejaVuSans-69" transform="translate(901.523)"/><use xlink:href="#DejaVuSans-63" transform="translate(929.307)"/><use xlink:href="#DejaVuSans-61" transform="translate(984.287)"/><use xlink:href="#DejaVuSans-74" transform="translate(1045.566)"/><use xlink:href="#DejaVuSans-69" transform="translate(1084.775)"/><use xlink:href="#DejaVuSans-6f" transform="translate(1112.559)"/><use xlink:href="#DejaVuSans-6e" transform="translate(1173.74)"/><use xlink:href="#DejaVuSans-56" transform="translate(1237.12)"/><use xlink:href="#DejaVuSans-32" transform="translate(1305.527)"/><use xlink:href="#DejaVuSans-2d" transform="translate(1400.938)"/><use xlink:href="#DejaVuSans-52" transform="translate(1468.809)"/><use xlink:href="#DejaVuSans-65" transform="translate(1533.791)"/><use xlink:href="#DejaVuSans-6c" transform="translate(1595.314)"/><use xlink:href="#DejaVuSans-61" transform="translate(1623.098)"/><use xlink:href="#DejaVuSans-74" transform="translate(1684.377)"/><use xlink:href="#DejaVuSans-69" transform="translate(1723.586)"/><use xlink:href="#DejaVuSans-76" transform="translate(1751.37)"/><use xlink:href="#DejaVuSans-65" transform="translate(1810.549)"/><use xlink:href="#DejaVuSans-72" transform="translate(1903.86)"/><use xlink:href="#DejaVuSans-65" transform="translate(1942.723)"/><use xlink:href="#DejaVuSans-64" transform="translate(2004.246)"/><use xlink:href="#DejaVuSans-75" transform="translate(2067.723)"/><use xlink:href="#DejaVuSans-63" transform="translate(2131.102)"/><use xlink:href="#DejaVuSans-74" transform="translate(2186.082)"/><use xlink:href="#DejaVuSans-69" transform="translate(2225.291)"/><use xlink:href="#DejaVuSans-6f" transform="translate(2253.074)"/><use xlink:href="#DejaVuSans-6e" transform="translate(2314.256)"/><use xlink:href="#DejaVuSans-73" transform="translate(2377.635)"/><use xlink:href="#DejaVuSans-66" transform="translate(2461.521)"/><use xlink:href="#DejaVuSans-72" transform="translate(2496.727)"/><use xlink:href="#DejaVuSans-6f" transform="translate(2535.59)"/><use xlink:href="#DejaVuSans-6d" transform="translate(2596.771)"/><use xlink:href="#DejaVuSans-53" transform="translate(2725.97)"/><use xlink:href="#DejaVuSans-68" transform="translate(2789.447)"/><use xlink:href="#DejaVuSans-69" transform="translate(2852.826)"/><use xlink:href="#DejaVuSans-6d" transform="translate(2880.61)"/><use xlink:href="#DejaVuSans-63" transform="translate(3009.809)"/><use xlink:href="#DejaVuSans-6f" transform="translate(3064.79)"/><use xlink:href="#DejaVuSans-72" transform="translate(3125.97)"/><use xlink:href="#DejaVuSans-65" transform="translate(3164.834)"/></g><g id="legend_1"><path id="patch_19" d="M80.82 85.192h159.658q2 0 2-2V32.44q0-2-2-2H80.82q-2 0-2 2v50.752q0 2 2 2z" style="fill:#fff;opacity:.8;stroke:#ccc;stroke-linejoin:miter"/><path id="line2d_30" d="M82.82 45.177h20" style="fill:none;stroke:#00f;stroke-width:4;stroke-linecap:square"/><g id="text_25"><g transform="matrix(.1 0 0 -.1 110.82 42.038)"><use xlink:href="#DejaVuSans-73"/><use xlink:href="#DejaVuSans-68" transform="translate(52.1)"/><use xlink:href="#DejaVuSans-69" transform="translate(115.479)"/><use xlink:href="#DejaVuSans-6d" transform="translate(143.262)"/><use xlink:href="#DejaVuSans-76" transform="translate(272.46)"/><use xlink:href="#DejaVuSans-65" transform="translate(331.64)"/><use xlink:href="#DejaVuSans-72" transform="translate(393.164)"/><use xlink:href="#DejaVuSans-69" transform="translate(434.277)"/><use xlink:href="#DejaVuSans-66" transform="translate(462.06)"/><use xlink:href="#DejaVuSans-79" transform="translate(495.516)"/></g><g transform="matrix(.1 0 0 -.1 110.82 53.236)"><use xlink:href="#DejaVuSans-32"/><use xlink:href="#DejaVuSans-74" transform="translate(95.41)"/><use xlink:href="#DejaVuSans-78" transform="translate(134.62)"/><use xlink:href="#DejaVuSans-73" transform="translate(193.799)"/></g></g><path id="line2d_31" d="M82.82 71.053h20" style="fill:none;stroke:red;stroke-width:4;stroke-linecap:square"/><g id="text_26"><g transform="matrix(.1 0 0 -.1 110.82 67.914)"><use xlink:href="#DejaVuSans-56"/><use xlink:href="#DejaVuSans-65" transform="translate(60.658)"/><use xlink:href="#DejaVuSans-72" transform="translate(122.182)"/><use xlink:href="#DejaVuSans-69" transform="translate(163.295)"/><use xlink:href="#DejaVuSans-66" transform="translate(191.078)"/><use xlink:href="#DejaVuSans-69" transform="translate(226.283)"/><use xlink:href="#DejaVuSans-63" transform="translate(254.066)"/><use xlink:href="#DejaVuSans-61" transform="translate(309.047)"/><use xlink:href="#DejaVuSans-74" transform="translate(370.326)"/><use xlink:href="#DejaVuSans-69" transform="translate(409.535)"/><use xlink:href="#DejaVuSans-6f" transform="translate(437.318)"/><use xlink:href="#DejaVuSans-6e" transform="translate(498.5)"/><use xlink:href="#DejaVuSans-56" transform="translate(561.879)"/><use xlink:href="#DejaVuSans-32" transform="translate(630.287)"/><use xlink:href="#DejaVuSans-6f" transform="translate(725.697)"/><use xlink:href="#DejaVuSans-6e" transform="translate(786.879)"/><use xlink:href="#DejaVuSans-6c" transform="translate(850.258)"/><use xlink:href="#DejaVuSans-79" transform="translate(878.041)"/><use xlink:href="#DejaVuSans-64" transform="translate(969.008)"/><use xlink:href="#DejaVuSans-69" transform="translate(1032.484)"/><use xlink:href="#DejaVuSans-67" transform="translate(1060.268)"/><use xlink:href="#DejaVuSans-65" transform="translate(1123.744)"/><use xlink:href="#DejaVuSans-73" transform="translate(1185.268)"/><use xlink:href="#DejaVuSans-74" transform="translate(1237.367)"/></g><g transform="matrix(.1 0 0 -.1 110.82 79.112)"><use xlink:href="#DejaVuSans-31"/><use xlink:href="#DejaVuSans-74" transform="translate(95.41)"/><use xlink:href="#DejaVuSans-78" transform="translate(134.62)"/></g></g></g></g></g><defs><clipPath id="pb511ee31a7"><path d="M73.82 25.44h625.488v364.6H73.82z"/></clipPath></defs></svg>