<?xml version="1.0" encoding="utf-8" standalone="no"?>
<!DOCTYPE svg PUBLIC "-//W3C//DTD SVG 1.1//EN"
  "http://www.w3.org/Graphics/SVG/1.1/DTD/svg11.dtd">
<svg xmlns:xlink="http://www.w3.org/1999/xlink" width="1843.2pt" height="722.88pt" viewBox="0 0 1843.2 722.88" xmlns="http://www.w3.org/2000/svg" version="1.1">
 <metadata>
  <rdf:RDF xmlns:dc="http://purl.org/dc/elements/1.1/" xmlns:cc="http://creativecommons.org/ns#" xmlns:rdf="http://www.w3.org/1999/02/22-rdf-syntax-ns#">
   <cc:Work>
    <dc:type rdf:resource="http://purl.org/dc/dcmitype/StillImage"/>
    <dc:date>2025-07-30T18:42:49.962941</dc:date>
    <dc:format>image/svg+xml</dc:format>
    <dc:creator>
     <cc:Agent>
      <dc:title>Matplotlib v3.10.3, https://matplotlib.org/</dc:title>
     </cc:Agent>
    </dc:creator>
   </cc:Work>
  </rdf:RDF>
 </metadata>
 <defs>
  <style type="text/css">*{stroke-linejoin: round; stroke-linecap: butt}</style>
 </defs>
 <g id="figure_1">
  <g id="patch_1">
   <path d="M 0 722.88 
L 1843.2 722.88 
L 1843.2 0 
L 0 0 
z
" style="fill: #ffffff"/>
  </g>
  <g id="axes_1">
   <g id="patch_2">
    <path d="M 188.9792 652.666933 
L 1602.818743 652.666933 
L 1602.818743 42.5696 
L 188.9792 42.5696 
z
" style="fill: #ffffff"/>
   </g>
   <g id="matplotlib.axis_1">
    <g id="xtick_1">
     <g id="line2d_1">
      <path d="M 188.9792 652.666933 
L 188.9792 42.5696 
" clip-path="url(#p14558e3f82)" style="fill: none; stroke: #b0b0b0; stroke-width: 0.8; stroke-linecap: square"/>
     </g>
     <g id="line2d_2">
      <defs>
       <path id="m2c8ba47e8a" d="M 0 0 
L 0 3.5 
" style="stroke: #000000; stroke-width: 0.8"/>
      </defs>
      <g>
       <use xlink:href="#m2c8ba47e8a" x="188.9792" y="652.666933" style="stroke: #000000; stroke-width: 0.8"/>
      </g>
     </g>
     <g id="text_1">
      <!-- 0 µLamport -->
      <g transform="translate(160.058106 667.265371) scale(0.1 -0.1)">
       <defs>
        <path id="DejaVuSans-30" d="M 2034 4250 
Q 1547 4250 1301 3770 
Q 1056 3291 1056 2328 
Q 1056 1369 1301 889 
Q 1547 409 2034 409 
Q 2525 409 2770 889 
Q 3016 1369 3016 2328 
Q 3016 3291 2770 3770 
Q 2525 4250 2034 4250 
z
M 2034 4750 
Q 2819 4750 3233 4129 
Q 3647 3509 3647 2328 
Q 3647 1150 3233 529 
Q 2819 -91 2034 -91 
Q 1250 -91 836 529 
Q 422 1150 422 2328 
Q 422 3509 836 4129 
Q 1250 4750 2034 4750 
z
" transform="scale(0.015625)"/>
        <path id="DejaVuSans-20" transform="scale(0.015625)"/>
        <path id="DejaVuSans-b5" d="M 544 -1331 
L 544 3500 
L 1119 3500 
L 1119 1325 
Q 1119 872 1334 640 
Q 1550 409 1972 409 
Q 2434 409 2667 671 
Q 2900 934 2900 1459 
L 2900 3500 
L 3475 3500 
L 3475 806 
Q 3475 619 3529 530 
Q 3584 441 3700 441 
Q 3728 441 3778 458 
Q 3828 475 3916 513 
L 3916 50 
Q 3788 -22 3673 -56 
Q 3559 -91 3450 -91 
Q 3234 -91 3106 31 
Q 2978 153 2931 403 
Q 2775 156 2548 32 
Q 2322 -91 2016 -91 
Q 1697 -91 1473 31 
Q 1250 153 1119 397 
L 1119 -1331 
L 544 -1331 
z
" transform="scale(0.015625)"/>
        <path id="DejaVuSans-4c" d="M 628 4666 
L 1259 4666 
L 1259 531 
L 3531 531 
L 3531 0 
L 628 0 
L 628 4666 
z
" transform="scale(0.015625)"/>
        <path id="DejaVuSans-61" d="M 2194 1759 
Q 1497 1759 1228 1600 
Q 959 1441 959 1056 
Q 959 750 1161 570 
Q 1363 391 1709 391 
Q 2188 391 2477 730 
Q 2766 1069 2766 1631 
L 2766 1759 
L 2194 1759 
z
M 3341 1997 
L 3341 0 
L 2766 0 
L 2766 531 
Q 2569 213 2275 61 
Q 1981 -91 1556 -91 
Q 1019 -91 701 211 
Q 384 513 384 1019 
Q 384 1609 779 1909 
Q 1175 2209 1959 2209 
L 2766 2209 
L 2766 2266 
Q 2766 2663 2505 2880 
Q 2244 3097 1772 3097 
Q 1472 3097 1187 3025 
Q 903 2953 641 2809 
L 641 3341 
Q 956 3463 1253 3523 
Q 1550 3584 1831 3584 
Q 2591 3584 2966 3190 
Q 3341 2797 3341 1997 
z
" transform="scale(0.015625)"/>
        <path id="DejaVuSans-6d" d="M 3328 2828 
Q 3544 3216 3844 3400 
Q 4144 3584 4550 3584 
Q 5097 3584 5394 3201 
Q 5691 2819 5691 2113 
L 5691 0 
L 5113 0 
L 5113 2094 
Q 5113 2597 4934 2840 
Q 4756 3084 4391 3084 
Q 3944 3084 3684 2787 
Q 3425 2491 3425 1978 
L 3425 0 
L 2847 0 
L 2847 2094 
Q 2847 2600 2669 2842 
Q 2491 3084 2119 3084 
Q 1678 3084 1418 2786 
Q 1159 2488 1159 1978 
L 1159 0 
L 581 0 
L 581 3500 
L 1159 3500 
L 1159 2956 
Q 1356 3278 1631 3431 
Q 1906 3584 2284 3584 
Q 2666 3584 2933 3390 
Q 3200 3197 3328 2828 
z
" transform="scale(0.015625)"/>
        <path id="DejaVuSans-70" d="M 1159 525 
L 1159 -1331 
L 581 -1331 
L 581 3500 
L 1159 3500 
L 1159 2969 
Q 1341 3281 1617 3432 
Q 1894 3584 2278 3584 
Q 2916 3584 3314 3078 
Q 3713 2572 3713 1747 
Q 3713 922 3314 415 
Q 2916 -91 2278 -91 
Q 1894 -91 1617 61 
Q 1341 213 1159 525 
z
M 3116 1747 
Q 3116 2381 2855 2742 
Q 2594 3103 2138 3103 
Q 1681 3103 1420 2742 
Q 1159 2381 1159 1747 
Q 1159 1113 1420 752 
Q 1681 391 2138 391 
Q 2594 391 2855 752 
Q 3116 1113 3116 1747 
z
" transform="scale(0.015625)"/>
        <path id="DejaVuSans-6f" d="M 1959 3097 
Q 1497 3097 1228 2736 
Q 959 2375 959 1747 
Q 959 1119 1226 758 
Q 1494 397 1959 397 
Q 2419 397 2687 759 
Q 2956 1122 2956 1747 
Q 2956 2369 2687 2733 
Q 2419 3097 1959 3097 
z
M 1959 3584 
Q 2709 3584 3137 3096 
Q 3566 2609 3566 1747 
Q 3566 888 3137 398 
Q 2709 -91 1959 -91 
Q 1206 -91 779 398 
Q 353 888 353 1747 
Q 353 2609 779 3096 
Q 1206 3584 1959 3584 
z
" transform="scale(0.015625)"/>
        <path id="DejaVuSans-72" d="M 2631 2963 
Q 2534 3019 2420 3045 
Q 2306 3072 2169 3072 
Q 1681 3072 1420 2755 
Q 1159 2438 1159 1844 
L 1159 0 
L 581 0 
L 581 3500 
L 1159 3500 
L 1159 2956 
Q 1341 3275 1631 3429 
Q 1922 3584 2338 3584 
Q 2397 3584 2469 3576 
Q 2541 3569 2628 3553 
L 2631 2963 
z
" transform="scale(0.015625)"/>
        <path id="DejaVuSans-74" d="M 1172 4494 
L 1172 3500 
L 2356 3500 
L 2356 3053 
L 1172 3053 
L 1172 1153 
Q 1172 725 1289 603 
Q 1406 481 1766 481 
L 2356 481 
L 2356 0 
L 1766 0 
Q 1100 0 847 248 
Q 594 497 594 1153 
L 594 3053 
L 172 3053 
L 172 3500 
L 594 3500 
L 594 4494 
L 1172 4494 
z
" transform="scale(0.015625)"/>
       </defs>
       <use xlink:href="#DejaVuSans-30"/>
       <use xlink:href="#DejaVuSans-20" transform="translate(63.623047 0)"/>
       <use xlink:href="#DejaVuSans-b5" transform="translate(95.410156 0)"/>
       <use xlink:href="#DejaVuSans-4c" transform="translate(159.033203 0)"/>
       <use xlink:href="#DejaVuSans-61" transform="translate(214.746094 0)"/>
       <use xlink:href="#DejaVuSans-6d" transform="translate(276.025391 0)"/>
       <use xlink:href="#DejaVuSans-70" transform="translate(373.4375 0)"/>
       <use xlink:href="#DejaVuSans-6f" transform="translate(436.914062 0)"/>
       <use xlink:href="#DejaVuSans-72" transform="translate(498.095703 0)"/>
       <use xlink:href="#DejaVuSans-74" transform="translate(539.208984 0)"/>
      </g>
     </g>
    </g>
    <g id="xtick_2">
     <g id="line2d_3">
      <path d="M 399.371989 652.666933 
L 399.371989 42.5696 
" clip-path="url(#p14558e3f82)" style="fill: none; stroke: #b0b0b0; stroke-width: 0.8; stroke-linecap: square"/>
     </g>
     <g id="line2d_4">
      <g>
       <use xlink:href="#m2c8ba47e8a" x="399.371989" y="652.666933" style="stroke: #000000; stroke-width: 0.8"/>
      </g>
     </g>
     <g id="text_2">
      <!-- 5 mLamport -->
      <g transform="translate(368.761833 667.265371) scale(0.1 -0.1)">
       <defs>
        <path id="DejaVuSans-35" d="M 691 4666 
L 3169 4666 
L 3169 4134 
L 1269 4134 
L 1269 2991 
Q 1406 3038 1543 3061 
Q 1681 3084 1819 3084 
Q 2600 3084 3056 2656 
Q 3513 2228 3513 1497 
Q 3513 744 3044 326 
Q 2575 -91 1722 -91 
Q 1428 -91 1123 -41 
Q 819 9 494 109 
L 494 744 
Q 775 591 1075 516 
Q 1375 441 1709 441 
Q 2250 441 2565 725 
Q 2881 1009 2881 1497 
Q 2881 1984 2565 2268 
Q 2250 2553 1709 2553 
Q 1456 2553 1204 2497 
Q 953 2441 691 2322 
L 691 4666 
z
" transform="scale(0.015625)"/>
       </defs>
       <use xlink:href="#DejaVuSans-35"/>
       <use xlink:href="#DejaVuSans-20" transform="translate(63.623047 0)"/>
       <use xlink:href="#DejaVuSans-6d" transform="translate(95.410156 0)"/>
       <use xlink:href="#DejaVuSans-4c" transform="translate(192.822266 0)"/>
       <use xlink:href="#DejaVuSans-61" transform="translate(248.535156 0)"/>
       <use xlink:href="#DejaVuSans-6d" transform="translate(309.814453 0)"/>
       <use xlink:href="#DejaVuSans-70" transform="translate(407.226562 0)"/>
       <use xlink:href="#DejaVuSans-6f" transform="translate(470.703125 0)"/>
       <use xlink:href="#DejaVuSans-72" transform="translate(531.884766 0)"/>
       <use xlink:href="#DejaVuSans-74" transform="translate(572.998047 0)"/>
      </g>
     </g>
    </g>
    <g id="xtick_3">
     <g id="line2d_5">
      <path d="M 609.764778 652.666933 
L 609.764778 42.5696 
" clip-path="url(#p14558e3f82)" style="fill: none; stroke: #b0b0b0; stroke-width: 0.8; stroke-linecap: square"/>
     </g>
     <g id="line2d_6">
      <g>
       <use xlink:href="#m2c8ba47e8a" x="609.764778" y="652.666933" style="stroke: #000000; stroke-width: 0.8"/>
      </g>
     </g>
     <g id="text_3">
      <!-- 10 mLamport -->
      <g transform="translate(575.973372 667.265371) scale(0.1 -0.1)">
       <defs>
        <path id="DejaVuSans-31" d="M 794 531 
L 1825 531 
L 1825 4091 
L 703 3866 
L 703 4441 
L 1819 4666 
L 2450 4666 
L 2450 531 
L 3481 531 
L 3481 0 
L 794 0 
L 794 531 
z
" transform="scale(0.015625)"/>
       </defs>
       <use xlink:href="#DejaVuSans-31"/>
       <use xlink:href="#DejaVuSans-30" transform="translate(63.623047 0)"/>
       <use xlink:href="#DejaVuSans-20" transform="translate(127.246094 0)"/>
       <use xlink:href="#DejaVuSans-6d" transform="translate(159.033203 0)"/>
       <use xlink:href="#DejaVuSans-4c" transform="translate(256.445312 0)"/>
       <use xlink:href="#DejaVuSans-61" transform="translate(312.158203 0)"/>
       <use xlink:href="#DejaVuSans-6d" transform="translate(373.4375 0)"/>
       <use xlink:href="#DejaVuSans-70" transform="translate(470.849609 0)"/>
       <use xlink:href="#DejaVuSans-6f" transform="translate(534.326172 0)"/>
       <use xlink:href="#DejaVuSans-72" transform="translate(595.507812 0)"/>
       <use xlink:href="#DejaVuSans-74" transform="translate(636.621094 0)"/>
      </g>
     </g>
    </g>
    <g id="xtick_4">
     <g id="line2d_7">
      <path d="M 820.157567 652.666933 
L 820.157567 42.5696 
" clip-path="url(#p14558e3f82)" style="fill: none; stroke: #b0b0b0; stroke-width: 0.8; stroke-linecap: square"/>
     </g>
     <g id="line2d_8">
      <g>
       <use xlink:href="#m2c8ba47e8a" x="820.157567" y="652.666933" style="stroke: #000000; stroke-width: 0.8"/>
      </g>
     </g>
     <g id="text_4">
      <!-- 15 mLamport -->
      <g transform="translate(786.366161 667.265371) scale(0.1 -0.1)">
       <use xlink:href="#DejaVuSans-31"/>
       <use xlink:href="#DejaVuSans-35" transform="translate(63.623047 0)"/>
       <use xlink:href="#DejaVuSans-20" transform="translate(127.246094 0)"/>
       <use xlink:href="#DejaVuSans-6d" transform="translate(159.033203 0)"/>
       <use xlink:href="#DejaVuSans-4c" transform="translate(256.445312 0)"/>
       <use xlink:href="#DejaVuSans-61" transform="translate(312.158203 0)"/>
       <use xlink:href="#DejaVuSans-6d" transform="translate(373.4375 0)"/>
       <use xlink:href="#DejaVuSans-70" transform="translate(470.849609 0)"/>
       <use xlink:href="#DejaVuSans-6f" transform="translate(534.326172 0)"/>
       <use xlink:href="#DejaVuSans-72" transform="translate(595.507812 0)"/>
       <use xlink:href="#DejaVuSans-74" transform="translate(636.621094 0)"/>
      </g>
     </g>
    </g>
    <g id="xtick_5">
     <g id="line2d_9">
      <path d="M 1030.550356 652.666933 
L 1030.550356 42.5696 
" clip-path="url(#p14558e3f82)" style="fill: none; stroke: #b0b0b0; stroke-width: 0.8; stroke-linecap: square"/>
     </g>
     <g id="line2d_10">
      <g>
       <use xlink:href="#m2c8ba47e8a" x="1030.550356" y="652.666933" style="stroke: #000000; stroke-width: 0.8"/>
      </g>
     </g>
     <g id="text_5">
      <!-- 20 mLamport -->
      <g transform="translate(996.75895 667.265371) scale(0.1 -0.1)">
       <defs>
        <path id="DejaVuSans-32" d="M 1228 531 
L 3431 531 
L 3431 0 
L 469 0 
L 469 531 
Q 828 903 1448 1529 
Q 2069 2156 2228 2338 
Q 2531 2678 2651 2914 
Q 2772 3150 2772 3378 
Q 2772 3750 2511 3984 
Q 2250 4219 1831 4219 
Q 1534 4219 1204 4116 
Q 875 4013 500 3803 
L 500 4441 
Q 881 4594 1212 4672 
Q 1544 4750 1819 4750 
Q 2544 4750 2975 4387 
Q 3406 4025 3406 3419 
Q 3406 3131 3298 2873 
Q 3191 2616 2906 2266 
Q 2828 2175 2409 1742 
Q 1991 1309 1228 531 
z
" transform="scale(0.015625)"/>
       </defs>
       <use xlink:href="#DejaVuSans-32"/>
       <use xlink:href="#DejaVuSans-30" transform="translate(63.623047 0)"/>
       <use xlink:href="#DejaVuSans-20" transform="translate(127.246094 0)"/>
       <use xlink:href="#DejaVuSans-6d" transform="translate(159.033203 0)"/>
       <use xlink:href="#DejaVuSans-4c" transform="translate(256.445312 0)"/>
       <use xlink:href="#DejaVuSans-61" transform="translate(312.158203 0)"/>
       <use xlink:href="#DejaVuSans-6d" transform="translate(373.4375 0)"/>
       <use xlink:href="#DejaVuSans-70" transform="translate(470.849609 0)"/>
       <use xlink:href="#DejaVuSans-6f" transform="translate(534.326172 0)"/>
       <use xlink:href="#DejaVuSans-72" transform="translate(595.507812 0)"/>
       <use xlink:href="#DejaVuSans-74" transform="translate(636.621094 0)"/>
      </g>
     </g>
    </g>
    <g id="xtick_6">
     <g id="line2d_11">
      <path d="M 1240.943146 652.666933 
L 1240.943146 42.5696 
" clip-path="url(#p14558e3f82)" style="fill: none; stroke: #b0b0b0; stroke-width: 0.8; stroke-linecap: square"/>
     </g>
     <g id="line2d_12">
      <g>
       <use xlink:href="#m2c8ba47e8a" x="1240.943146" y="652.666933" style="stroke: #000000; stroke-width: 0.8"/>
      </g>
     </g>
     <g id="text_6">
      <!-- 25 mLamport -->
      <g transform="translate(1207.151739 667.265371) scale(0.1 -0.1)">
       <use xlink:href="#DejaVuSans-32"/>
       <use xlink:href="#DejaVuSans-35" transform="translate(63.623047 0)"/>
       <use xlink:href="#DejaVuSans-20" transform="translate(127.246094 0)"/>
       <use xlink:href="#DejaVuSans-6d" transform="translate(159.033203 0)"/>
       <use xlink:href="#DejaVuSans-4c" transform="translate(256.445312 0)"/>
       <use xlink:href="#DejaVuSans-61" transform="translate(312.158203 0)"/>
       <use xlink:href="#DejaVuSans-6d" transform="translate(373.4375 0)"/>
       <use xlink:href="#DejaVuSans-70" transform="translate(470.849609 0)"/>
       <use xlink:href="#DejaVuSans-6f" transform="translate(534.326172 0)"/>
       <use xlink:href="#DejaVuSans-72" transform="translate(595.507812 0)"/>
       <use xlink:href="#DejaVuSans-74" transform="translate(636.621094 0)"/>
      </g>
     </g>
    </g>
    <g id="xtick_7">
     <g id="line2d_13">
      <path d="M 1451.335935 652.666933 
L 1451.335935 42.5696 
" clip-path="url(#p14558e3f82)" style="fill: none; stroke: #b0b0b0; stroke-width: 0.8; stroke-linecap: square"/>
     </g>
     <g id="line2d_14">
      <g>
       <use xlink:href="#m2c8ba47e8a" x="1451.335935" y="652.666933" style="stroke: #000000; stroke-width: 0.8"/>
      </g>
     </g>
     <g id="text_7">
      <!-- 30 mLamport -->
      <g transform="translate(1417.544528 667.265371) scale(0.1 -0.1)">
       <defs>
        <path id="DejaVuSans-33" d="M 2597 2516 
Q 3050 2419 3304 2112 
Q 3559 1806 3559 1356 
Q 3559 666 3084 287 
Q 2609 -91 1734 -91 
Q 1441 -91 1130 -33 
Q 819 25 488 141 
L 488 750 
Q 750 597 1062 519 
Q 1375 441 1716 441 
Q 2309 441 2620 675 
Q 2931 909 2931 1356 
Q 2931 1769 2642 2001 
Q 2353 2234 1838 2234 
L 1294 2234 
L 1294 2753 
L 1863 2753 
Q 2328 2753 2575 2939 
Q 2822 3125 2822 3475 
Q 2822 3834 2567 4026 
Q 2313 4219 1838 4219 
Q 1578 4219 1281 4162 
Q 984 4106 628 3988 
L 628 4550 
Q 988 4650 1302 4700 
Q 1616 4750 1894 4750 
Q 2613 4750 3031 4423 
Q 3450 4097 3450 3541 
Q 3450 3153 3228 2886 
Q 3006 2619 2597 2516 
z
" transform="scale(0.015625)"/>
       </defs>
       <use xlink:href="#DejaVuSans-33"/>
       <use xlink:href="#DejaVuSans-30" transform="translate(63.623047 0)"/>
       <use xlink:href="#DejaVuSans-20" transform="translate(127.246094 0)"/>
       <use xlink:href="#DejaVuSans-6d" transform="translate(159.033203 0)"/>
       <use xlink:href="#DejaVuSans-4c" transform="translate(256.445312 0)"/>
       <use xlink:href="#DejaVuSans-61" transform="translate(312.158203 0)"/>
       <use xlink:href="#DejaVuSans-6d" transform="translate(373.4375 0)"/>
       <use xlink:href="#DejaVuSans-70" transform="translate(470.849609 0)"/>
       <use xlink:href="#DejaVuSans-6f" transform="translate(534.326172 0)"/>
       <use xlink:href="#DejaVuSans-72" transform="translate(595.507812 0)"/>
       <use xlink:href="#DejaVuSans-74" transform="translate(636.621094 0)"/>
      </g>
     </g>
    </g>
    <g id="text_8">
     <!-- Priority Price -->
     <g transform="translate(864.31694 680.943496) scale(0.1 -0.1)">
      <defs>
       <path id="DejaVuSans-50" d="M 1259 4147 
L 1259 2394 
L 2053 2394 
Q 2494 2394 2734 2622 
Q 2975 2850 2975 3272 
Q 2975 3691 2734 3919 
Q 2494 4147 2053 4147 
L 1259 4147 
z
M 628 4666 
L 2053 4666 
Q 2838 4666 3239 4311 
Q 3641 3956 3641 3272 
Q 3641 2581 3239 2228 
Q 2838 1875 2053 1875 
L 1259 1875 
L 1259 0 
L 628 0 
L 628 4666 
z
" transform="scale(0.015625)"/>
       <path id="DejaVuSans-69" d="M 603 3500 
L 1178 3500 
L 1178 0 
L 603 0 
L 603 3500 
z
M 603 4863 
L 1178 4863 
L 1178 4134 
L 603 4134 
L 603 4863 
z
" transform="scale(0.015625)"/>
       <path id="DejaVuSans-79" d="M 2059 -325 
Q 1816 -950 1584 -1140 
Q 1353 -1331 966 -1331 
L 506 -1331 
L 506 -850 
L 844 -850 
Q 1081 -850 1212 -737 
Q 1344 -625 1503 -206 
L 1606 56 
L 191 3500 
L 800 3500 
L 1894 763 
L 2988 3500 
L 3597 3500 
L 2059 -325 
z
" transform="scale(0.015625)"/>
       <path id="DejaVuSans-63" d="M 3122 3366 
L 3122 2828 
Q 2878 2963 2633 3030 
Q 2388 3097 2138 3097 
Q 1578 3097 1268 2742 
Q 959 2388 959 1747 
Q 959 1106 1268 751 
Q 1578 397 2138 397 
Q 2388 397 2633 464 
Q 2878 531 3122 666 
L 3122 134 
Q 2881 22 2623 -34 
Q 2366 -91 2075 -91 
Q 1284 -91 818 406 
Q 353 903 353 1747 
Q 353 2603 823 3093 
Q 1294 3584 2113 3584 
Q 2378 3584 2631 3529 
Q 2884 3475 3122 3366 
z
" transform="scale(0.015625)"/>
       <path id="DejaVuSans-65" d="M 3597 1894 
L 3597 1613 
L 953 1613 
Q 991 1019 1311 708 
Q 1631 397 2203 397 
Q 2534 397 2845 478 
Q 3156 559 3463 722 
L 3463 178 
Q 3153 47 2828 -22 
Q 2503 -91 2169 -91 
Q 1331 -91 842 396 
Q 353 884 353 1716 
Q 353 2575 817 3079 
Q 1281 3584 2069 3584 
Q 2775 3584 3186 3129 
Q 3597 2675 3597 1894 
z
M 3022 2063 
Q 3016 2534 2758 2815 
Q 2500 3097 2075 3097 
Q 1594 3097 1305 2825 
Q 1016 2553 972 2059 
L 3022 2063 
z
" transform="scale(0.015625)"/>
      </defs>
      <use xlink:href="#DejaVuSans-50"/>
      <use xlink:href="#DejaVuSans-72" transform="translate(58.552734 0)"/>
      <use xlink:href="#DejaVuSans-69" transform="translate(99.666016 0)"/>
      <use xlink:href="#DejaVuSans-6f" transform="translate(127.449219 0)"/>
      <use xlink:href="#DejaVuSans-72" transform="translate(188.630859 0)"/>
      <use xlink:href="#DejaVuSans-69" transform="translate(229.744141 0)"/>
      <use xlink:href="#DejaVuSans-74" transform="translate(257.527344 0)"/>
      <use xlink:href="#DejaVuSans-79" transform="translate(296.736328 0)"/>
      <use xlink:href="#DejaVuSans-20" transform="translate(355.916016 0)"/>
      <use xlink:href="#DejaVuSans-50" transform="translate(387.703125 0)"/>
      <use xlink:href="#DejaVuSans-72" transform="translate(446.255859 0)"/>
      <use xlink:href="#DejaVuSans-69" transform="translate(487.369141 0)"/>
      <use xlink:href="#DejaVuSans-63" transform="translate(515.152344 0)"/>
      <use xlink:href="#DejaVuSans-65" transform="translate(570.132812 0)"/>
     </g>
    </g>
   </g>
   <g id="matplotlib.axis_2">
    <g id="ytick_1">
     <g id="line2d_15">
      <path d="M 188.9792 624.935236 
L 1602.818743 624.935236 
" clip-path="url(#p14558e3f82)" style="fill: none; stroke: #b0b0b0; stroke-width: 0.8; stroke-linecap: square"/>
     </g>
     <g id="line2d_16">
      <defs>
       <path id="m28ff9f04fe" d="M 0 0 
L -3.5 0 
" style="stroke: #000000; stroke-width: 0.8"/>
      </defs>
      <g>
       <use xlink:href="#m28ff9f04fe" x="188.9792" y="624.935236" style="stroke: #000000; stroke-width: 0.8"/>
      </g>
     </g>
     <g id="text_9">
      <!-- 0 µSOL -->
      <g transform="translate(146.283888 628.734455) scale(0.1 -0.1)">
       <defs>
        <path id="DejaVuSans-53" d="M 3425 4513 
L 3425 3897 
Q 3066 4069 2747 4153 
Q 2428 4238 2131 4238 
Q 1616 4238 1336 4038 
Q 1056 3838 1056 3469 
Q 1056 3159 1242 3001 
Q 1428 2844 1947 2747 
L 2328 2669 
Q 3034 2534 3370 2195 
Q 3706 1856 3706 1288 
Q 3706 609 3251 259 
Q 2797 -91 1919 -91 
Q 1588 -91 1214 -16 
Q 841 59 441 206 
L 441 856 
Q 825 641 1194 531 
Q 1563 422 1919 422 
Q 2459 422 2753 634 
Q 3047 847 3047 1241 
Q 3047 1584 2836 1778 
Q 2625 1972 2144 2069 
L 1759 2144 
Q 1053 2284 737 2584 
Q 422 2884 422 3419 
Q 422 4038 858 4394 
Q 1294 4750 2059 4750 
Q 2388 4750 2728 4690 
Q 3069 4631 3425 4513 
z
" transform="scale(0.015625)"/>
        <path id="DejaVuSans-4f" d="M 2522 4238 
Q 1834 4238 1429 3725 
Q 1025 3213 1025 2328 
Q 1025 1447 1429 934 
Q 1834 422 2522 422 
Q 3209 422 3611 934 
Q 4013 1447 4013 2328 
Q 4013 3213 3611 3725 
Q 3209 4238 2522 4238 
z
M 2522 4750 
Q 3503 4750 4090 4092 
Q 4678 3434 4678 2328 
Q 4678 1225 4090 567 
Q 3503 -91 2522 -91 
Q 1538 -91 948 565 
Q 359 1222 359 2328 
Q 359 3434 948 4092 
Q 1538 4750 2522 4750 
z
" transform="scale(0.015625)"/>
       </defs>
       <use xlink:href="#DejaVuSans-30"/>
       <use xlink:href="#DejaVuSans-20" transform="translate(63.623047 0)"/>
       <use xlink:href="#DejaVuSans-b5" transform="translate(95.410156 0)"/>
       <use xlink:href="#DejaVuSans-53" transform="translate(159.033203 0)"/>
       <use xlink:href="#DejaVuSans-4f" transform="translate(222.509766 0)"/>
       <use xlink:href="#DejaVuSans-4c" transform="translate(301.220703 0)"/>
      </g>
     </g>
    </g>
    <g id="ytick_2">
     <g id="line2d_17">
      <path d="M 188.9792 514.786058 
L 1602.818743 514.786058 
" clip-path="url(#p14558e3f82)" style="fill: none; stroke: #b0b0b0; stroke-width: 0.8; stroke-linecap: square"/>
     </g>
     <g id="line2d_18">
      <g>
       <use xlink:href="#m28ff9f04fe" x="188.9792" y="514.786058" style="stroke: #000000; stroke-width: 0.8"/>
      </g>
     </g>
     <g id="text_10">
      <!-- 5 µSOL -->
      <g transform="translate(146.283888 518.585276) scale(0.1 -0.1)">
       <use xlink:href="#DejaVuSans-35"/>
       <use xlink:href="#DejaVuSans-20" transform="translate(63.623047 0)"/>
       <use xlink:href="#DejaVuSans-b5" transform="translate(95.410156 0)"/>
       <use xlink:href="#DejaVuSans-53" transform="translate(159.033203 0)"/>
       <use xlink:href="#DejaVuSans-4f" transform="translate(222.509766 0)"/>
       <use xlink:href="#DejaVuSans-4c" transform="translate(301.220703 0)"/>
      </g>
     </g>
    </g>
    <g id="ytick_3">
     <g id="line2d_19">
      <path d="M 188.9792 404.636879 
L 1602.818743 404.636879 
" clip-path="url(#p14558e3f82)" style="fill: none; stroke: #b0b0b0; stroke-width: 0.8; stroke-linecap: square"/>
     </g>
     <g id="line2d_20">
      <g>
       <use xlink:href="#m28ff9f04fe" x="188.9792" y="404.636879" style="stroke: #000000; stroke-width: 0.8"/>
      </g>
     </g>
     <g id="text_11">
      <!-- 10 µSOL -->
      <g transform="translate(139.921388 408.436098) scale(0.1 -0.1)">
       <use xlink:href="#DejaVuSans-31"/>
       <use xlink:href="#DejaVuSans-30" transform="translate(63.623047 0)"/>
       <use xlink:href="#DejaVuSans-20" transform="translate(127.246094 0)"/>
       <use xlink:href="#DejaVuSans-b5" transform="translate(159.033203 0)"/>
       <use xlink:href="#DejaVuSans-53" transform="translate(222.65625 0)"/>
       <use xlink:href="#DejaVuSans-4f" transform="translate(286.132812 0)"/>
       <use xlink:href="#DejaVuSans-4c" transform="translate(364.84375 0)"/>
      </g>
     </g>
    </g>
    <g id="ytick_4">
     <g id="line2d_21">
      <path d="M 188.9792 294.4877 
L 1602.818743 294.4877 
" clip-path="url(#p14558e3f82)" style="fill: none; stroke: #b0b0b0; stroke-width: 0.8; stroke-linecap: square"/>
     </g>
     <g id="line2d_22">
      <g>
       <use xlink:href="#m28ff9f04fe" x="188.9792" y="294.4877" style="stroke: #000000; stroke-width: 0.8"/>
      </g>
     </g>
     <g id="text_12">
      <!-- 15 µSOL -->
      <g transform="translate(139.921388 298.286919) scale(0.1 -0.1)">
       <use xlink:href="#DejaVuSans-31"/>
       <use xlink:href="#DejaVuSans-35" transform="translate(63.623047 0)"/>
       <use xlink:href="#DejaVuSans-20" transform="translate(127.246094 0)"/>
       <use xlink:href="#DejaVuSans-b5" transform="translate(159.033203 0)"/>
       <use xlink:href="#DejaVuSans-53" transform="translate(222.65625 0)"/>
       <use xlink:href="#DejaVuSans-4f" transform="translate(286.132812 0)"/>
       <use xlink:href="#DejaVuSans-4c" transform="translate(364.84375 0)"/>
      </g>
     </g>
    </g>
    <g id="ytick_5">
     <g id="line2d_23">
      <path d="M 188.9792 184.338521 
L 1602.818743 184.338521 
" clip-path="url(#p14558e3f82)" style="fill: none; stroke: #b0b0b0; stroke-width: 0.8; stroke-linecap: square"/>
     </g>
     <g id="line2d_24">
      <g>
       <use xlink:href="#m28ff9f04fe" x="188.9792" y="184.338521" style="stroke: #000000; stroke-width: 0.8"/>
      </g>
     </g>
     <g id="text_13">
      <!-- 20 µSOL -->
      <g transform="translate(139.921388 188.13774) scale(0.1 -0.1)">
       <use xlink:href="#DejaVuSans-32"/>
       <use xlink:href="#DejaVuSans-30" transform="translate(63.623047 0)"/>
       <use xlink:href="#DejaVuSans-20" transform="translate(127.246094 0)"/>
       <use xlink:href="#DejaVuSans-b5" transform="translate(159.033203 0)"/>
       <use xlink:href="#DejaVuSans-53" transform="translate(222.65625 0)"/>
       <use xlink:href="#DejaVuSans-4f" transform="translate(286.132812 0)"/>
       <use xlink:href="#DejaVuSans-4c" transform="translate(364.84375 0)"/>
      </g>
     </g>
    </g>
    <g id="ytick_6">
     <g id="line2d_25">
      <path d="M 188.9792 74.189343 
L 1602.818743 74.189343 
" clip-path="url(#p14558e3f82)" style="fill: none; stroke: #b0b0b0; stroke-width: 0.8; stroke-linecap: square"/>
     </g>
     <g id="line2d_26">
      <g>
       <use xlink:href="#m28ff9f04fe" x="188.9792" y="74.189343" style="stroke: #000000; stroke-width: 0.8"/>
      </g>
     </g>
     <g id="text_14">
      <!-- 25 µSOL -->
      <g transform="translate(139.921388 77.988561) scale(0.1 -0.1)">
       <use xlink:href="#DejaVuSans-32"/>
       <use xlink:href="#DejaVuSans-35" transform="translate(63.623047 0)"/>
       <use xlink:href="#DejaVuSans-20" transform="translate(127.246094 0)"/>
       <use xlink:href="#DejaVuSans-b5" transform="translate(159.033203 0)"/>
       <use xlink:href="#DejaVuSans-53" transform="translate(222.65625 0)"/>
       <use xlink:href="#DejaVuSans-4f" transform="translate(286.132812 0)"/>
       <use xlink:href="#DejaVuSans-4c" transform="translate(364.84375 0)"/>
      </g>
     </g>
    </g>
    <g id="text_15">
     <!-- Total Cost -->
     <g transform="translate(133.8417 371.999517) rotate(-90) scale(0.1 -0.1)">
      <defs>
       <path id="DejaVuSans-54" d="M -19 4666 
L 3928 4666 
L 3928 4134 
L 2272 4134 
L 2272 0 
L 1638 0 
L 1638 4134 
L -19 4134 
L -19 4666 
z
" transform="scale(0.015625)"/>
       <path id="DejaVuSans-6c" d="M 603 4863 
L 1178 4863 
L 1178 0 
L 603 0 
L 603 4863 
z
" transform="scale(0.015625)"/>
       <path id="DejaVuSans-43" d="M 4122 4306 
L 4122 3641 
Q 3803 3938 3442 4084 
Q 3081 4231 2675 4231 
Q 1875 4231 1450 3742 
Q 1025 3253 1025 2328 
Q 1025 1406 1450 917 
Q 1875 428 2675 428 
Q 3081 428 3442 575 
Q 3803 722 4122 1019 
L 4122 359 
Q 3791 134 3420 21 
Q 3050 -91 2638 -91 
Q 1578 -91 968 557 
Q 359 1206 359 2328 
Q 359 3453 968 4101 
Q 1578 4750 2638 4750 
Q 3056 4750 3426 4639 
Q 3797 4528 4122 4306 
z
" transform="scale(0.015625)"/>
       <path id="DejaVuSans-73" d="M 2834 3397 
L 2834 2853 
Q 2591 2978 2328 3040 
Q 2066 3103 1784 3103 
Q 1356 3103 1142 2972 
Q 928 2841 928 2578 
Q 928 2378 1081 2264 
Q 1234 2150 1697 2047 
L 1894 2003 
Q 2506 1872 2764 1633 
Q 3022 1394 3022 966 
Q 3022 478 2636 193 
Q 2250 -91 1575 -91 
Q 1294 -91 989 -36 
Q 684 19 347 128 
L 347 722 
Q 666 556 975 473 
Q 1284 391 1588 391 
Q 1994 391 2212 530 
Q 2431 669 2431 922 
Q 2431 1156 2273 1281 
Q 2116 1406 1581 1522 
L 1381 1569 
Q 847 1681 609 1914 
Q 372 2147 372 2553 
Q 372 3047 722 3315 
Q 1072 3584 1716 3584 
Q 2034 3584 2315 3537 
Q 2597 3491 2834 3397 
z
" transform="scale(0.015625)"/>
      </defs>
      <use xlink:href="#DejaVuSans-54"/>
      <use xlink:href="#DejaVuSans-6f" transform="translate(44.083984 0)"/>
      <use xlink:href="#DejaVuSans-74" transform="translate(105.265625 0)"/>
      <use xlink:href="#DejaVuSans-61" transform="translate(144.474609 0)"/>
      <use xlink:href="#DejaVuSans-6c" transform="translate(205.753906 0)"/>
      <use xlink:href="#DejaVuSans-20" transform="translate(233.537109 0)"/>
      <use xlink:href="#DejaVuSans-43" transform="translate(265.324219 0)"/>
      <use xlink:href="#DejaVuSans-6f" transform="translate(335.148438 0)"/>
      <use xlink:href="#DejaVuSans-73" transform="translate(396.330078 0)"/>
      <use xlink:href="#DejaVuSans-74" transform="translate(448.429688 0)"/>
     </g>
    </g>
   </g>
   <g id="line2d_27">
    <path d="M 188.9792 293.606507 
L 1451.335935 70.301297 
L 1451.335935 70.301297 
" clip-path="url(#p14558e3f82)" style="fill: none; stroke: #0000ff; stroke-width: 4; stroke-linecap: square"/>
   </g>
   <g id="line2d_28">
    <path d="M 188.9792 624.935236 
L 1451.335935 589.632204 
L 1451.335935 589.632204 
" clip-path="url(#p14558e3f82)" style="fill: none; stroke: #ffd700; stroke-width: 4; stroke-linecap: square"/>
   </g>
   <g id="line2d_29">
    <path d="M 188.9792 624.935236 
L 1451.335935 602.875881 
L 1451.335935 602.875881 
" clip-path="url(#p14558e3f82)" style="fill: none; stroke: #ff0000; stroke-width: 4; stroke-linecap: square"/>
   </g>
   <g id="line2d_30">
    <path d="M 609.764778 652.666933 
L 609.764778 42.5696 
" clip-path="url(#p14558e3f82)" style="fill: none; stroke-dasharray: 3.7,1.6; stroke-dashoffset: 0; stroke: #ff0000"/>
   </g>
   <g id="patch_3">
    <path d="M 188.9792 652.666933 
L 188.9792 42.5696 
" style="fill: none; stroke: #000000; stroke-width: 0.8; stroke-linejoin: miter; stroke-linecap: square"/>
   </g>
   <g id="patch_4">
    <path d="M 1602.818743 652.666933 
L 1602.818743 42.5696 
" style="fill: none; stroke: #000000; stroke-width: 0.8; stroke-linejoin: miter; stroke-linecap: square"/>
   </g>
   <g id="patch_5">
    <path d="M 188.9792 652.666933 
L 1602.818743 652.666933 
" style="fill: none; stroke: #000000; stroke-width: 0.8; stroke-linejoin: miter; stroke-linecap: square"/>
   </g>
   <g id="patch_6">
    <path d="M 188.9792 42.5696 
L 1602.818743 42.5696 
" style="fill: none; stroke: #000000; stroke-width: 0.8; stroke-linejoin: miter; stroke-linecap: square"/>
   </g>
   <g id="text_16">
    <!-- shim verify -->
    <g transform="translate(1455.123005 67.177813) scale(0.11 -0.11)">
     <defs>
      <path id="DejaVuSans-68" d="M 3513 2113 
L 3513 0 
L 2938 0 
L 2938 2094 
Q 2938 2591 2744 2837 
Q 2550 3084 2163 3084 
Q 1697 3084 1428 2787 
Q 1159 2491 1159 1978 
L 1159 0 
L 581 0 
L 581 4863 
L 1159 4863 
L 1159 2956 
Q 1366 3272 1645 3428 
Q 1925 3584 2291 3584 
Q 2894 3584 3203 3211 
Q 3513 2838 3513 2113 
z
" transform="scale(0.015625)"/>
      <path id="DejaVuSans-76" d="M 191 3500 
L 800 3500 
L 1894 563 
L 2988 3500 
L 3597 3500 
L 2284 0 
L 1503 0 
L 191 3500 
z
" transform="scale(0.015625)"/>
      <path id="DejaVuSans-66" d="M 2375 4863 
L 2375 4384 
L 1825 4384 
Q 1516 4384 1395 4259 
Q 1275 4134 1275 3809 
L 1275 3500 
L 2222 3500 
L 2222 3053 
L 1275 3053 
L 1275 0 
L 697 0 
L 697 3053 
L 147 3053 
L 147 3500 
L 697 3500 
L 697 3744 
Q 697 4328 969 4595 
Q 1241 4863 1831 4863 
L 2375 4863 
z
" transform="scale(0.015625)"/>
     </defs>
     <use xlink:href="#DejaVuSans-73"/>
     <use xlink:href="#DejaVuSans-68" transform="translate(52.099609 0)"/>
     <use xlink:href="#DejaVuSans-69" transform="translate(115.478516 0)"/>
     <use xlink:href="#DejaVuSans-6d" transform="translate(143.261719 0)"/>
     <use xlink:href="#DejaVuSans-20" transform="translate(240.673828 0)"/>
     <use xlink:href="#DejaVuSans-76" transform="translate(272.460938 0)"/>
     <use xlink:href="#DejaVuSans-65" transform="translate(331.640625 0)"/>
     <use xlink:href="#DejaVuSans-72" transform="translate(393.164062 0)"/>
     <use xlink:href="#DejaVuSans-69" transform="translate(434.277344 0)"/>
     <use xlink:href="#DejaVuSans-66" transform="translate(462.060547 0)"/>
     <use xlink:href="#DejaVuSans-79" transform="translate(495.515625 0)"/>
    </g>
    <!-- 2 txs -->
    <g transform="translate(1455.123005 79.495406) scale(0.11 -0.11)">
     <defs>
      <path id="DejaVuSans-78" d="M 3513 3500 
L 2247 1797 
L 3578 0 
L 2900 0 
L 1881 1375 
L 863 0 
L 184 0 
L 1544 1831 
L 300 3500 
L 978 3500 
L 1906 2253 
L 2834 3500 
L 3513 3500 
z
" transform="scale(0.015625)"/>
     </defs>
     <use xlink:href="#DejaVuSans-32"/>
     <use xlink:href="#DejaVuSans-20" transform="translate(63.623047 0)"/>
     <use xlink:href="#DejaVuSans-74" transform="translate(95.410156 0)"/>
     <use xlink:href="#DejaVuSans-78" transform="translate(134.619141 0)"/>
     <use xlink:href="#DejaVuSans-73" transform="translate(193.798828 0)"/>
    </g>
   </g>
   <g id="patch_7">
    <path d="M 325.584687 607.527797 
Q 321.290958 613.640345 317.511349 619.020992 
" style="fill: none; stroke: #000000; stroke-width: 0.8; stroke-linecap: round"/>
    <path d="M 321.447148 616.897437 
L 317.511349 619.020992 
L 318.173985 614.59822 
" style="fill: none; stroke: #000000; stroke-width: 0.8; stroke-linecap: round"/>
   </g>
   <g id="text_17">
    <g id="patch_8">
     <path d="M 311.641368 605.640028 
L 351.788243 605.640028 
Q 353.788243 605.640028 353.788243 603.640028 
L 353.788243 593.961903 
Q 353.788243 591.961903 351.788243 591.961903 
L 311.641368 591.961903 
Q 309.641368 591.961903 309.641368 593.961903 
L 309.641368 603.640028 
Q 309.641368 605.640028 311.641368 605.640028 
z
" style="fill: #ffffff; stroke: #808080; stroke-width: 0.5; stroke-linejoin: miter"/>
    </g>
    <!-- ↓99.0% -->
    <g style="fill: #006400" transform="translate(311.641368 601.560341) scale(0.1 -0.1)">
     <defs>
      <path id="DejaVuSans-2193" d="M 2822 -22 
L 2541 -22 
L 1309 1209 
L 1684 1584 
L 2416 853 
L 2416 4666 
L 2947 4666 
L 2947 853 
L 3672 1584 
L 4047 1209 
L 2822 -22 
z
" transform="scale(0.015625)"/>
      <path id="DejaVuSans-39" d="M 703 97 
L 703 672 
Q 941 559 1184 500 
Q 1428 441 1663 441 
Q 2288 441 2617 861 
Q 2947 1281 2994 2138 
Q 2813 1869 2534 1725 
Q 2256 1581 1919 1581 
Q 1219 1581 811 2004 
Q 403 2428 403 3163 
Q 403 3881 828 4315 
Q 1253 4750 1959 4750 
Q 2769 4750 3195 4129 
Q 3622 3509 3622 2328 
Q 3622 1225 3098 567 
Q 2575 -91 1691 -91 
Q 1453 -91 1209 -44 
Q 966 3 703 97 
z
M 1959 2075 
Q 2384 2075 2632 2365 
Q 2881 2656 2881 3163 
Q 2881 3666 2632 3958 
Q 2384 4250 1959 4250 
Q 1534 4250 1286 3958 
Q 1038 3666 1038 3163 
Q 1038 2656 1286 2365 
Q 1534 2075 1959 2075 
z
" transform="scale(0.015625)"/>
      <path id="DejaVuSans-2e" d="M 684 794 
L 1344 794 
L 1344 0 
L 684 0 
L 684 794 
z
" transform="scale(0.015625)"/>
      <path id="DejaVuSans-25" d="M 4653 2053 
Q 4381 2053 4226 1822 
Q 4072 1591 4072 1178 
Q 4072 772 4226 539 
Q 4381 306 4653 306 
Q 4919 306 5073 539 
Q 5228 772 5228 1178 
Q 5228 1588 5073 1820 
Q 4919 2053 4653 2053 
z
M 4653 2450 
Q 5147 2450 5437 2106 
Q 5728 1763 5728 1178 
Q 5728 594 5436 251 
Q 5144 -91 4653 -91 
Q 4153 -91 3862 251 
Q 3572 594 3572 1178 
Q 3572 1766 3864 2108 
Q 4156 2450 4653 2450 
z
M 1428 4353 
Q 1159 4353 1004 4120 
Q 850 3888 850 3481 
Q 850 3069 1003 2837 
Q 1156 2606 1428 2606 
Q 1700 2606 1854 2837 
Q 2009 3069 2009 3481 
Q 2009 3884 1853 4118 
Q 1697 4353 1428 4353 
z
M 4250 4750 
L 4750 4750 
L 1831 -91 
L 1331 -91 
L 4250 4750 
z
M 1428 4750 
Q 1922 4750 2215 4408 
Q 2509 4066 2509 3481 
Q 2509 2891 2217 2550 
Q 1925 2209 1428 2209 
Q 931 2209 642 2551 
Q 353 2894 353 3481 
Q 353 4063 643 4406 
Q 934 4750 1428 4750 
z
" transform="scale(0.015625)"/>
     </defs>
     <use xlink:href="#DejaVuSans-2193"/>
     <use xlink:href="#DejaVuSans-39" transform="translate(83.789062 0)"/>
     <use xlink:href="#DejaVuSans-39" transform="translate(147.412109 0)"/>
     <use xlink:href="#DejaVuSans-2e" transform="translate(211.035156 0)"/>
     <use xlink:href="#DejaVuSans-30" transform="translate(242.822266 0)"/>
     <use xlink:href="#DejaVuSans-25" transform="translate(306.445312 0)"/>
    </g>
   </g>
   <g id="patch_9">
    <path d="M 579.324734 600.43171 
Q 575.031005 606.544259 571.251396 611.924906 
" style="fill: none; stroke: #000000; stroke-width: 0.8; stroke-linecap: round"/>
    <path d="M 575.187196 609.801351 
L 571.251396 611.924906 
L 571.914032 607.502133 
" style="fill: none; stroke: #000000; stroke-width: 0.8; stroke-linecap: round"/>
   </g>
   <g id="text_18">
    <g id="patch_10">
     <path d="M 565.381415 598.543941 
L 605.52829 598.543941 
Q 607.52829 598.543941 607.52829 596.543941 
L 607.52829 586.865816 
Q 607.52829 584.865816 605.52829 584.865816 
L 565.381415 584.865816 
Q 563.381415 584.865816 563.381415 586.865816 
L 563.381415 596.543941 
Q 563.381415 598.543941 565.381415 598.543941 
z
" style="fill: #ffffff; stroke: #808080; stroke-width: 0.5; stroke-linejoin: miter"/>
    </g>
    <!-- ↓97.3% -->
    <g style="fill: #006400" transform="translate(565.381415 594.464254) scale(0.1 -0.1)">
     <defs>
      <path id="DejaVuSans-37" d="M 525 4666 
L 3525 4666 
L 3525 4397 
L 1831 0 
L 1172 0 
L 2766 4134 
L 525 4134 
L 525 4666 
z
" transform="scale(0.015625)"/>
     </defs>
     <use xlink:href="#DejaVuSans-2193"/>
     <use xlink:href="#DejaVuSans-39" transform="translate(83.789062 0)"/>
     <use xlink:href="#DejaVuSans-37" transform="translate(147.412109 0)"/>
     <use xlink:href="#DejaVuSans-2e" transform="translate(211.035156 0)"/>
     <use xlink:href="#DejaVuSans-33" transform="translate(242.822266 0)"/>
     <use xlink:href="#DejaVuSans-25" transform="translate(306.445312 0)"/>
    </g>
   </g>
   <g id="patch_11">
    <path d="M 833.064781 593.335623 
Q 828.771052 599.448172 824.991444 604.828819 
" style="fill: none; stroke: #000000; stroke-width: 0.8; stroke-linecap: round"/>
    <path d="M 828.927243 602.705264 
L 824.991444 604.828819 
L 825.654079 600.406046 
" style="fill: none; stroke: #000000; stroke-width: 0.8; stroke-linecap: round"/>
   </g>
   <g id="text_19">
    <g id="patch_12">
     <path d="M 819.121462 591.447855 
L 859.268337 591.447855 
Q 861.268337 591.447855 861.268337 589.447855 
L 861.268337 579.76973 
Q 861.268337 577.76973 859.268337 577.76973 
L 819.121462 577.76973 
Q 817.121462 577.76973 817.121462 579.76973 
L 817.121462 589.447855 
Q 817.121462 591.447855 819.121462 591.447855 
z
" style="fill: #ffffff; stroke: #808080; stroke-width: 0.5; stroke-linejoin: miter"/>
    </g>
    <!-- ↓96.0% -->
    <g style="fill: #006400" transform="translate(819.121462 587.368167) scale(0.1 -0.1)">
     <defs>
      <path id="DejaVuSans-36" d="M 2113 2584 
Q 1688 2584 1439 2293 
Q 1191 2003 1191 1497 
Q 1191 994 1439 701 
Q 1688 409 2113 409 
Q 2538 409 2786 701 
Q 3034 994 3034 1497 
Q 3034 2003 2786 2293 
Q 2538 2584 2113 2584 
z
M 3366 4563 
L 3366 3988 
Q 3128 4100 2886 4159 
Q 2644 4219 2406 4219 
Q 1781 4219 1451 3797 
Q 1122 3375 1075 2522 
Q 1259 2794 1537 2939 
Q 1816 3084 2150 3084 
Q 2853 3084 3261 2657 
Q 3669 2231 3669 1497 
Q 3669 778 3244 343 
Q 2819 -91 2113 -91 
Q 1303 -91 875 529 
Q 447 1150 447 2328 
Q 447 3434 972 4092 
Q 1497 4750 2381 4750 
Q 2619 4750 2861 4703 
Q 3103 4656 3366 4563 
z
" transform="scale(0.015625)"/>
     </defs>
     <use xlink:href="#DejaVuSans-2193"/>
     <use xlink:href="#DejaVuSans-39" transform="translate(83.789062 0)"/>
     <use xlink:href="#DejaVuSans-36" transform="translate(147.412109 0)"/>
     <use xlink:href="#DejaVuSans-2e" transform="translate(211.035156 0)"/>
     <use xlink:href="#DejaVuSans-30" transform="translate(242.822266 0)"/>
     <use xlink:href="#DejaVuSans-25" transform="translate(306.445312 0)"/>
    </g>
   </g>
   <g id="patch_13">
    <path d="M 1086.804828 586.239536 
Q 1082.511099 592.352085 1078.731491 597.732732 
" style="fill: none; stroke: #000000; stroke-width: 0.8; stroke-linecap: round"/>
    <path d="M 1082.66729 595.609177 
L 1078.731491 597.732732 
L 1079.394126 593.30996 
" style="fill: none; stroke: #000000; stroke-width: 0.8; stroke-linecap: round"/>
   </g>
   <g id="text_20">
    <g id="patch_14">
     <path d="M 1072.861509 584.351768 
L 1113.008384 584.351768 
Q 1115.008384 584.351768 1115.008384 582.351768 
L 1115.008384 572.673643 
Q 1115.008384 570.673643 1113.008384 570.673643 
L 1072.861509 570.673643 
Q 1070.861509 570.673643 1070.861509 572.673643 
L 1070.861509 582.351768 
Q 1070.861509 584.351768 1072.861509 584.351768 
z
" style="fill: #ffffff; stroke: #808080; stroke-width: 0.5; stroke-linejoin: miter"/>
    </g>
    <!-- ↓94.9% -->
    <g style="fill: #006400" transform="translate(1072.861509 580.27208) scale(0.1 -0.1)">
     <defs>
      <path id="DejaVuSans-34" d="M 2419 4116 
L 825 1625 
L 2419 1625 
L 2419 4116 
z
M 2253 4666 
L 3047 4666 
L 3047 1625 
L 3713 1625 
L 3713 1100 
L 3047 1100 
L 3047 0 
L 2419 0 
L 2419 1100 
L 313 1100 
L 313 1709 
L 2253 4666 
z
" transform="scale(0.015625)"/>
     </defs>
     <use xlink:href="#DejaVuSans-2193"/>
     <use xlink:href="#DejaVuSans-39" transform="translate(83.789062 0)"/>
     <use xlink:href="#DejaVuSans-34" transform="translate(147.412109 0)"/>
     <use xlink:href="#DejaVuSans-2e" transform="translate(211.035156 0)"/>
     <use xlink:href="#DejaVuSans-39" transform="translate(242.822266 0)"/>
     <use xlink:href="#DejaVuSans-25" transform="translate(306.445312 0)"/>
    </g>
   </g>
   <g id="patch_15">
    <path d="M 1340.544875 579.14345 
Q 1336.251146 585.255998 1332.471538 590.636645 
" style="fill: none; stroke: #000000; stroke-width: 0.8; stroke-linecap: round"/>
    <path d="M 1336.407337 588.51309 
L 1332.471538 590.636645 
L 1333.134173 586.213873 
" style="fill: none; stroke: #000000; stroke-width: 0.8; stroke-linecap: round"/>
   </g>
   <g id="text_21">
    <g id="patch_16">
     <path d="M 1326.601557 577.255681 
L 1366.748432 577.255681 
Q 1368.748432 577.255681 1368.748432 575.255681 
L 1368.748432 565.577556 
Q 1368.748432 563.577556 1366.748432 563.577556 
L 1326.601557 563.577556 
Q 1324.601557 563.577556 1324.601557 565.577556 
L 1324.601557 575.255681 
Q 1324.601557 577.255681 1326.601557 577.255681 
z
" style="fill: #ffffff; stroke: #808080; stroke-width: 0.5; stroke-linejoin: miter"/>
    </g>
    <!-- ↓94.0% -->
    <g style="fill: #006400" transform="translate(1326.601557 573.175993) scale(0.1 -0.1)">
     <use xlink:href="#DejaVuSans-2193"/>
     <use xlink:href="#DejaVuSans-39" transform="translate(83.789062 0)"/>
     <use xlink:href="#DejaVuSans-34" transform="translate(147.412109 0)"/>
     <use xlink:href="#DejaVuSans-2e" transform="translate(211.035156 0)"/>
     <use xlink:href="#DejaVuSans-30" transform="translate(242.822266 0)"/>
     <use xlink:href="#DejaVuSans-25" transform="translate(306.445312 0)"/>
    </g>
   </g>
   <g id="text_22">
    <!-- early VerificationV2 -->
    <g transform="translate(1455.123005 576.595294) scale(0.11 -0.11)">
     <defs>
      <path id="DejaVuSans-56" d="M 1831 0 
L 50 4666 
L 709 4666 
L 2188 738 
L 3669 4666 
L 4325 4666 
L 2547 0 
L 1831 0 
z
" transform="scale(0.015625)"/>
      <path id="DejaVuSans-6e" d="M 3513 2113 
L 3513 0 
L 2938 0 
L 2938 2094 
Q 2938 2591 2744 2837 
Q 2550 3084 2163 3084 
Q 1697 3084 1428 2787 
Q 1159 2491 1159 1978 
L 1159 0 
L 581 0 
L 581 3500 
L 1159 3500 
L 1159 2956 
Q 1366 3272 1645 3428 
Q 1925 3584 2291 3584 
Q 2894 3584 3203 3211 
Q 3513 2838 3513 2113 
z
" transform="scale(0.015625)"/>
     </defs>
     <use xlink:href="#DejaVuSans-65"/>
     <use xlink:href="#DejaVuSans-61" transform="translate(61.523438 0)"/>
     <use xlink:href="#DejaVuSans-72" transform="translate(122.802734 0)"/>
     <use xlink:href="#DejaVuSans-6c" transform="translate(163.916016 0)"/>
     <use xlink:href="#DejaVuSans-79" transform="translate(191.699219 0)"/>
     <use xlink:href="#DejaVuSans-20" transform="translate(250.878906 0)"/>
     <use xlink:href="#DejaVuSans-56" transform="translate(282.666016 0)"/>
     <use xlink:href="#DejaVuSans-65" transform="translate(343.324219 0)"/>
     <use xlink:href="#DejaVuSans-72" transform="translate(404.847656 0)"/>
     <use xlink:href="#DejaVuSans-69" transform="translate(445.960938 0)"/>
     <use xlink:href="#DejaVuSans-66" transform="translate(473.744141 0)"/>
     <use xlink:href="#DejaVuSans-69" transform="translate(508.949219 0)"/>
     <use xlink:href="#DejaVuSans-63" transform="translate(536.732422 0)"/>
     <use xlink:href="#DejaVuSans-61" transform="translate(591.712891 0)"/>
     <use xlink:href="#DejaVuSans-74" transform="translate(652.992188 0)"/>
     <use xlink:href="#DejaVuSans-69" transform="translate(692.201172 0)"/>
     <use xlink:href="#DejaVuSans-6f" transform="translate(719.984375 0)"/>
     <use xlink:href="#DejaVuSans-6e" transform="translate(781.166016 0)"/>
     <use xlink:href="#DejaVuSans-56" transform="translate(844.544922 0)"/>
     <use xlink:href="#DejaVuSans-32" transform="translate(912.953125 0)"/>
    </g>
    <!-- 1 tx -->
    <g transform="translate(1455.123005 588.912888) scale(0.11 -0.11)">
     <use xlink:href="#DejaVuSans-31"/>
     <use xlink:href="#DejaVuSans-20" transform="translate(63.623047 0)"/>
     <use xlink:href="#DejaVuSans-74" transform="translate(95.410156 0)"/>
     <use xlink:href="#DejaVuSans-78" transform="translate(134.619141 0)"/>
    </g>
   </g>
   <g id="patch_17">
    <path d="M 323.763261 631.231781 
Q 320.487321 627.707672 317.82035 624.838664 
" style="fill: none; stroke: #000000; stroke-width: 0.8; stroke-linecap: round"/>
    <path d="M 319.07889 629.13006 
L 317.82035 624.838664 
L 322.00859 626.406669 
" style="fill: none; stroke: #000000; stroke-width: 0.8; stroke-linecap: round"/>
   </g>
   <g id="text_23">
    <g id="patch_18">
     <path d="M 311.641368 646.624755 
L 351.788243 646.624755 
Q 353.788243 646.624755 353.788243 644.624755 
L 353.788243 634.94663 
Q 353.788243 632.94663 351.788243 632.94663 
L 311.641368 632.94663 
Q 309.641368 632.94663 309.641368 634.94663 
L 309.641368 644.624755 
Q 309.641368 646.624755 311.641368 646.624755 
z
" style="fill: #ffffff; stroke: #808080; stroke-width: 0.5; stroke-linejoin: miter"/>
    </g>
    <!-- ↓99.4% -->
    <g style="fill: #006400" transform="translate(311.641368 642.545068) scale(0.1 -0.1)">
     <use xlink:href="#DejaVuSans-2193"/>
     <use xlink:href="#DejaVuSans-39" transform="translate(83.789062 0)"/>
     <use xlink:href="#DejaVuSans-39" transform="translate(147.412109 0)"/>
     <use xlink:href="#DejaVuSans-2e" transform="translate(211.035156 0)"/>
     <use xlink:href="#DejaVuSans-34" transform="translate(242.822266 0)"/>
     <use xlink:href="#DejaVuSans-25" transform="translate(306.445312 0)"/>
    </g>
   </g>
   <g id="patch_19">
    <path d="M 577.503309 626.797739 
Q 574.227368 623.273631 571.560397 620.404623 
" style="fill: none; stroke: #000000; stroke-width: 0.8; stroke-linecap: round"/>
    <path d="M 572.818937 624.696018 
L 571.560397 620.404623 
L 575.748637 621.972628 
" style="fill: none; stroke: #000000; stroke-width: 0.8; stroke-linecap: round"/>
   </g>
   <g id="text_24">
    <g id="patch_20">
     <path d="M 565.381415 642.190714 
L 605.52829 642.190714 
Q 607.52829 642.190714 607.52829 640.190714 
L 607.52829 630.512589 
Q 607.52829 628.512589 605.52829 628.512589 
L 565.381415 628.512589 
Q 563.381415 628.512589 563.381415 630.512589 
L 563.381415 640.190714 
Q 563.381415 642.190714 565.381415 642.190714 
z
" style="fill: #ffffff; stroke: #808080; stroke-width: 0.5; stroke-linejoin: miter"/>
    </g>
    <!-- ↓98.3% -->
    <g style="fill: #006400" transform="translate(565.381415 638.111027) scale(0.1 -0.1)">
     <defs>
      <path id="DejaVuSans-38" d="M 2034 2216 
Q 1584 2216 1326 1975 
Q 1069 1734 1069 1313 
Q 1069 891 1326 650 
Q 1584 409 2034 409 
Q 2484 409 2743 651 
Q 3003 894 3003 1313 
Q 3003 1734 2745 1975 
Q 2488 2216 2034 2216 
z
M 1403 2484 
Q 997 2584 770 2862 
Q 544 3141 544 3541 
Q 544 4100 942 4425 
Q 1341 4750 2034 4750 
Q 2731 4750 3128 4425 
Q 3525 4100 3525 3541 
Q 3525 3141 3298 2862 
Q 3072 2584 2669 2484 
Q 3125 2378 3379 2068 
Q 3634 1759 3634 1313 
Q 3634 634 3220 271 
Q 2806 -91 2034 -91 
Q 1263 -91 848 271 
Q 434 634 434 1313 
Q 434 1759 690 2068 
Q 947 2378 1403 2484 
z
M 1172 3481 
Q 1172 3119 1398 2916 
Q 1625 2713 2034 2713 
Q 2441 2713 2670 2916 
Q 2900 3119 2900 3481 
Q 2900 3844 2670 4047 
Q 2441 4250 2034 4250 
Q 1625 4250 1398 4047 
Q 1172 3844 1172 3481 
z
" transform="scale(0.015625)"/>
     </defs>
     <use xlink:href="#DejaVuSans-2193"/>
     <use xlink:href="#DejaVuSans-39" transform="translate(83.789062 0)"/>
     <use xlink:href="#DejaVuSans-38" transform="translate(147.412109 0)"/>
     <use xlink:href="#DejaVuSans-2e" transform="translate(211.035156 0)"/>
     <use xlink:href="#DejaVuSans-33" transform="translate(242.822266 0)"/>
     <use xlink:href="#DejaVuSans-25" transform="translate(306.445312 0)"/>
    </g>
   </g>
   <g id="patch_21">
    <path d="M 831.243356 622.363698 
Q 827.967416 618.839589 825.300444 615.970581 
" style="fill: none; stroke: #000000; stroke-width: 0.8; stroke-linecap: round"/>
    <path d="M 826.558984 620.261977 
L 825.300444 615.970581 
L 829.488685 617.538587 
" style="fill: none; stroke: #000000; stroke-width: 0.8; stroke-linecap: round"/>
   </g>
   <g id="text_25">
    <g id="patch_22">
     <path d="M 819.121462 637.756673 
L 859.268337 637.756673 
Q 861.268337 637.756673 861.268337 635.756673 
L 861.268337 626.078548 
Q 861.268337 624.078548 859.268337 624.078548 
L 819.121462 624.078548 
Q 817.121462 624.078548 817.121462 626.078548 
L 817.121462 635.756673 
Q 817.121462 637.756673 819.121462 637.756673 
z
" style="fill: #ffffff; stroke: #808080; stroke-width: 0.5; stroke-linejoin: miter"/>
    </g>
    <!-- ↓97.5% -->
    <g style="fill: #006400" transform="translate(819.121462 633.676985) scale(0.1 -0.1)">
     <use xlink:href="#DejaVuSans-2193"/>
     <use xlink:href="#DejaVuSans-39" transform="translate(83.789062 0)"/>
     <use xlink:href="#DejaVuSans-37" transform="translate(147.412109 0)"/>
     <use xlink:href="#DejaVuSans-2e" transform="translate(211.035156 0)"/>
     <use xlink:href="#DejaVuSans-35" transform="translate(242.822266 0)"/>
     <use xlink:href="#DejaVuSans-25" transform="translate(306.445312 0)"/>
    </g>
   </g>
   <g id="patch_23">
    <path d="M 1084.983403 617.929657 
Q 1081.707463 614.405548 1079.040491 611.53654 
" style="fill: none; stroke: #000000; stroke-width: 0.8; stroke-linecap: round"/>
    <path d="M 1080.299031 615.827936 
L 1079.040491 611.53654 
L 1083.228732 613.104545 
" style="fill: none; stroke: #000000; stroke-width: 0.8; stroke-linecap: round"/>
   </g>
   <g id="text_26">
    <g id="patch_24">
     <path d="M 1072.861509 633.322631 
L 1113.008384 633.322631 
Q 1115.008384 633.322631 1115.008384 631.322631 
L 1115.008384 621.644506 
Q 1115.008384 619.644506 1113.008384 619.644506 
L 1072.861509 619.644506 
Q 1070.861509 619.644506 1070.861509 621.644506 
L 1070.861509 631.322631 
Q 1070.861509 633.322631 1072.861509 633.322631 
z
" style="fill: #ffffff; stroke: #808080; stroke-width: 0.5; stroke-linejoin: miter"/>
    </g>
    <!-- ↓96.8% -->
    <g style="fill: #006400" transform="translate(1072.861509 629.242944) scale(0.1 -0.1)">
     <use xlink:href="#DejaVuSans-2193"/>
     <use xlink:href="#DejaVuSans-39" transform="translate(83.789062 0)"/>
     <use xlink:href="#DejaVuSans-36" transform="translate(147.412109 0)"/>
     <use xlink:href="#DejaVuSans-2e" transform="translate(211.035156 0)"/>
     <use xlink:href="#DejaVuSans-38" transform="translate(242.822266 0)"/>
     <use xlink:href="#DejaVuSans-25" transform="translate(306.445312 0)"/>
    </g>
   </g>
   <g id="patch_25">
    <path d="M 1338.72345 613.495615 
Q 1335.44751 609.971507 1332.780538 607.102499 
" style="fill: none; stroke: #000000; stroke-width: 0.8; stroke-linecap: round"/>
    <path d="M 1334.039078 611.393894 
L 1332.780538 607.102499 
L 1336.968779 608.670504 
" style="fill: none; stroke: #000000; stroke-width: 0.8; stroke-linecap: round"/>
   </g>
   <g id="text_27">
    <g id="patch_26">
     <path d="M 1326.601557 628.88859 
L 1366.748432 628.88859 
Q 1368.748432 628.88859 1368.748432 626.88859 
L 1368.748432 617.210465 
Q 1368.748432 615.210465 1366.748432 615.210465 
L 1326.601557 615.210465 
Q 1324.601557 615.210465 1324.601557 617.210465 
L 1324.601557 626.88859 
Q 1324.601557 628.88859 1326.601557 628.88859 
z
" style="fill: #ffffff; stroke: #808080; stroke-width: 0.5; stroke-linejoin: miter"/>
    </g>
    <!-- ↓96.3% -->
    <g style="fill: #006400" transform="translate(1326.601557 624.808902) scale(0.1 -0.1)">
     <use xlink:href="#DejaVuSans-2193"/>
     <use xlink:href="#DejaVuSans-39" transform="translate(83.789062 0)"/>
     <use xlink:href="#DejaVuSans-36" transform="translate(147.412109 0)"/>
     <use xlink:href="#DejaVuSans-2e" transform="translate(211.035156 0)"/>
     <use xlink:href="#DejaVuSans-33" transform="translate(242.822266 0)"/>
     <use xlink:href="#DejaVuSans-25" transform="translate(306.445312 0)"/>
    </g>
   </g>
   <g id="text_28">
    <!-- VerificationV2 only digest -->
    <g transform="translate(1455.123005 609.665822) scale(0.11 -0.11)">
     <defs>
      <path id="DejaVuSans-64" d="M 2906 2969 
L 2906 4863 
L 3481 4863 
L 3481 0 
L 2906 0 
L 2906 525 
Q 2725 213 2448 61 
Q 2172 -91 1784 -91 
Q 1150 -91 751 415 
Q 353 922 353 1747 
Q 353 2572 751 3078 
Q 1150 3584 1784 3584 
Q 2172 3584 2448 3432 
Q 2725 3281 2906 2969 
z
M 947 1747 
Q 947 1113 1208 752 
Q 1469 391 1925 391 
Q 2381 391 2643 752 
Q 2906 1113 2906 1747 
Q 2906 2381 2643 2742 
Q 2381 3103 1925 3103 
Q 1469 3103 1208 2742 
Q 947 2381 947 1747 
z
" transform="scale(0.015625)"/>
      <path id="DejaVuSans-67" d="M 2906 1791 
Q 2906 2416 2648 2759 
Q 2391 3103 1925 3103 
Q 1463 3103 1205 2759 
Q 947 2416 947 1791 
Q 947 1169 1205 825 
Q 1463 481 1925 481 
Q 2391 481 2648 825 
Q 2906 1169 2906 1791 
z
M 3481 434 
Q 3481 -459 3084 -895 
Q 2688 -1331 1869 -1331 
Q 1566 -1331 1297 -1286 
Q 1028 -1241 775 -1147 
L 775 -588 
Q 1028 -725 1275 -790 
Q 1522 -856 1778 -856 
Q 2344 -856 2625 -561 
Q 2906 -266 2906 331 
L 2906 616 
Q 2728 306 2450 153 
Q 2172 0 1784 0 
Q 1141 0 747 490 
Q 353 981 353 1791 
Q 353 2603 747 3093 
Q 1141 3584 1784 3584 
Q 2172 3584 2450 3431 
Q 2728 3278 2906 2969 
L 2906 3500 
L 3481 3500 
L 3481 434 
z
" transform="scale(0.015625)"/>
     </defs>
     <use xlink:href="#DejaVuSans-56"/>
     <use xlink:href="#DejaVuSans-65" transform="translate(60.658203 0)"/>
     <use xlink:href="#DejaVuSans-72" transform="translate(122.181641 0)"/>
     <use xlink:href="#DejaVuSans-69" transform="translate(163.294922 0)"/>
     <use xlink:href="#DejaVuSans-66" transform="translate(191.078125 0)"/>
     <use xlink:href="#DejaVuSans-69" transform="translate(226.283203 0)"/>
     <use xlink:href="#DejaVuSans-63" transform="translate(254.066406 0)"/>
     <use xlink:href="#DejaVuSans-61" transform="translate(309.046875 0)"/>
     <use xlink:href="#DejaVuSans-74" transform="translate(370.326172 0)"/>
     <use xlink:href="#DejaVuSans-69" transform="translate(409.535156 0)"/>
     <use xlink:href="#DejaVuSans-6f" transform="translate(437.318359 0)"/>
     <use xlink:href="#DejaVuSans-6e" transform="translate(498.5 0)"/>
     <use xlink:href="#DejaVuSans-56" transform="translate(561.878906 0)"/>
     <use xlink:href="#DejaVuSans-32" transform="translate(630.287109 0)"/>
     <use xlink:href="#DejaVuSans-20" transform="translate(693.910156 0)"/>
     <use xlink:href="#DejaVuSans-6f" transform="translate(725.697266 0)"/>
     <use xlink:href="#DejaVuSans-6e" transform="translate(786.878906 0)"/>
     <use xlink:href="#DejaVuSans-6c" transform="translate(850.257812 0)"/>
     <use xlink:href="#DejaVuSans-79" transform="translate(878.041016 0)"/>
     <use xlink:href="#DejaVuSans-20" transform="translate(937.220703 0)"/>
     <use xlink:href="#DejaVuSans-64" transform="translate(969.007812 0)"/>
     <use xlink:href="#DejaVuSans-69" transform="translate(1032.484375 0)"/>
     <use xlink:href="#DejaVuSans-67" transform="translate(1060.267578 0)"/>
     <use xlink:href="#DejaVuSans-65" transform="translate(1123.744141 0)"/>
     <use xlink:href="#DejaVuSans-73" transform="translate(1185.267578 0)"/>
     <use xlink:href="#DejaVuSans-74" transform="translate(1237.367188 0)"/>
    </g>
    <!-- 1 tx -->
    <g transform="translate(1455.123005 621.983416) scale(0.11 -0.11)">
     <use xlink:href="#DejaVuSans-31"/>
     <use xlink:href="#DejaVuSans-20" transform="translate(63.623047 0)"/>
     <use xlink:href="#DejaVuSans-74" transform="translate(95.410156 0)"/>
     <use xlink:href="#DejaVuSans-78" transform="translate(134.619141 0)"/>
    </g>
   </g>
   <g id="patch_27">
    <path d="M 733.391815 340.919289 
Q 671.97727 482.010677 611.008945 622.076936 
" style="fill: none; stroke: #000000; stroke-linecap: round"/>
    <path d="M 614.439195 619.207549 
L 611.008945 622.076936 
L 610.771585 617.611104 
" style="fill: none; stroke: #000000; stroke-linecap: round"/>
   </g>
   <g id="text_29">
    <g id="patch_28">
     <path d="M 693.921894 338.832106 
L 791.251581 338.832106 
Q 794.251581 338.832106 794.251581 335.832106 
L 794.251581 303.758356 
Q 794.251581 300.758356 791.251581 300.758356 
L 693.921894 300.758356 
Q 690.921894 300.758356 690.921894 303.758356 
L 690.921894 335.832106 
Q 690.921894 338.832106 693.921894 338.832106 
z
" style="fill: #ffffff; stroke: #808080; stroke-width: 0.5; stroke-linejoin: miter"/>
    </g>
    <!-- We expect priority -->
    <g transform="translate(693.921894 311.356793) scale(0.1 -0.1)">
     <defs>
      <path id="DejaVuSans-57" d="M 213 4666 
L 850 4666 
L 1831 722 
L 2809 4666 
L 3519 4666 
L 4500 722 
L 5478 4666 
L 6119 4666 
L 4947 0 
L 4153 0 
L 3169 4050 
L 2175 0 
L 1381 0 
L 213 4666 
z
" transform="scale(0.015625)"/>
     </defs>
     <use xlink:href="#DejaVuSans-57"/>
     <use xlink:href="#DejaVuSans-65" transform="translate(93.001953 0)"/>
     <use xlink:href="#DejaVuSans-20" transform="translate(154.525391 0)"/>
     <use xlink:href="#DejaVuSans-65" transform="translate(186.3125 0)"/>
     <use xlink:href="#DejaVuSans-78" transform="translate(246.085938 0)"/>
     <use xlink:href="#DejaVuSans-70" transform="translate(305.265625 0)"/>
     <use xlink:href="#DejaVuSans-65" transform="translate(368.742188 0)"/>
     <use xlink:href="#DejaVuSans-63" transform="translate(430.265625 0)"/>
     <use xlink:href="#DejaVuSans-74" transform="translate(485.246094 0)"/>
     <use xlink:href="#DejaVuSans-20" transform="translate(524.455078 0)"/>
     <use xlink:href="#DejaVuSans-70" transform="translate(556.242188 0)"/>
     <use xlink:href="#DejaVuSans-72" transform="translate(619.71875 0)"/>
     <use xlink:href="#DejaVuSans-69" transform="translate(660.832031 0)"/>
     <use xlink:href="#DejaVuSans-6f" transform="translate(688.615234 0)"/>
     <use xlink:href="#DejaVuSans-72" transform="translate(749.796875 0)"/>
     <use xlink:href="#DejaVuSans-69" transform="translate(790.910156 0)"/>
     <use xlink:href="#DejaVuSans-74" transform="translate(818.693359 0)"/>
     <use xlink:href="#DejaVuSans-79" transform="translate(857.902344 0)"/>
    </g>
    <!-- prices to be around -->
    <g transform="translate(693.921894 322.554606) scale(0.1 -0.1)">
     <defs>
      <path id="DejaVuSans-62" d="M 3116 1747 
Q 3116 2381 2855 2742 
Q 2594 3103 2138 3103 
Q 1681 3103 1420 2742 
Q 1159 2381 1159 1747 
Q 1159 1113 1420 752 
Q 1681 391 2138 391 
Q 2594 391 2855 752 
Q 3116 1113 3116 1747 
z
M 1159 2969 
Q 1341 3281 1617 3432 
Q 1894 3584 2278 3584 
Q 2916 3584 3314 3078 
Q 3713 2572 3713 1747 
Q 3713 922 3314 415 
Q 2916 -91 2278 -91 
Q 1894 -91 1617 61 
Q 1341 213 1159 525 
L 1159 0 
L 581 0 
L 581 4863 
L 1159 4863 
L 1159 2969 
z
" transform="scale(0.015625)"/>
      <path id="DejaVuSans-75" d="M 544 1381 
L 544 3500 
L 1119 3500 
L 1119 1403 
Q 1119 906 1312 657 
Q 1506 409 1894 409 
Q 2359 409 2629 706 
Q 2900 1003 2900 1516 
L 2900 3500 
L 3475 3500 
L 3475 0 
L 2900 0 
L 2900 538 
Q 2691 219 2414 64 
Q 2138 -91 1772 -91 
Q 1169 -91 856 284 
Q 544 659 544 1381 
z
M 1991 3584 
L 1991 3584 
z
" transform="scale(0.015625)"/>
     </defs>
     <use xlink:href="#DejaVuSans-70"/>
     <use xlink:href="#DejaVuSans-72" transform="translate(63.476562 0)"/>
     <use xlink:href="#DejaVuSans-69" transform="translate(104.589844 0)"/>
     <use xlink:href="#DejaVuSans-63" transform="translate(132.373047 0)"/>
     <use xlink:href="#DejaVuSans-65" transform="translate(187.353516 0)"/>
     <use xlink:href="#DejaVuSans-73" transform="translate(248.876953 0)"/>
     <use xlink:href="#DejaVuSans-20" transform="translate(300.976562 0)"/>
     <use xlink:href="#DejaVuSans-74" transform="translate(332.763672 0)"/>
     <use xlink:href="#DejaVuSans-6f" transform="translate(371.972656 0)"/>
     <use xlink:href="#DejaVuSans-20" transform="translate(433.154297 0)"/>
     <use xlink:href="#DejaVuSans-62" transform="translate(464.941406 0)"/>
     <use xlink:href="#DejaVuSans-65" transform="translate(528.417969 0)"/>
     <use xlink:href="#DejaVuSans-20" transform="translate(589.941406 0)"/>
     <use xlink:href="#DejaVuSans-61" transform="translate(621.728516 0)"/>
     <use xlink:href="#DejaVuSans-72" transform="translate(683.007812 0)"/>
     <use xlink:href="#DejaVuSans-6f" transform="translate(721.871094 0)"/>
     <use xlink:href="#DejaVuSans-75" transform="translate(783.052734 0)"/>
     <use xlink:href="#DejaVuSans-6e" transform="translate(846.431641 0)"/>
     <use xlink:href="#DejaVuSans-64" transform="translate(909.810547 0)"/>
    </g>
    <!-- here typically -->
    <g transform="translate(693.921894 333.752418) scale(0.1 -0.1)">
     <use xlink:href="#DejaVuSans-68"/>
     <use xlink:href="#DejaVuSans-65" transform="translate(63.378906 0)"/>
     <use xlink:href="#DejaVuSans-72" transform="translate(124.902344 0)"/>
     <use xlink:href="#DejaVuSans-65" transform="translate(163.765625 0)"/>
     <use xlink:href="#DejaVuSans-20" transform="translate(225.289062 0)"/>
     <use xlink:href="#DejaVuSans-74" transform="translate(257.076172 0)"/>
     <use xlink:href="#DejaVuSans-79" transform="translate(296.285156 0)"/>
     <use xlink:href="#DejaVuSans-70" transform="translate(355.464844 0)"/>
     <use xlink:href="#DejaVuSans-69" transform="translate(418.941406 0)"/>
     <use xlink:href="#DejaVuSans-63" transform="translate(446.724609 0)"/>
     <use xlink:href="#DejaVuSans-61" transform="translate(501.705078 0)"/>
     <use xlink:href="#DejaVuSans-6c" transform="translate(562.984375 0)"/>
     <use xlink:href="#DejaVuSans-6c" transform="translate(590.767578 0)"/>
     <use xlink:href="#DejaVuSans-79" transform="translate(618.550781 0)"/>
    </g>
   </g>
   <g id="text_30">
    <!-- Shim core vs VerificationV2 - Relative reductions from Shim core -->
    <g transform="translate(702.319284 36.5696) scale(0.12 -0.12)">
     <defs>
      <path id="DejaVuSans-2d" d="M 313 2009 
L 1997 2009 
L 1997 1497 
L 313 1497 
L 313 2009 
z
" transform="scale(0.015625)"/>
      <path id="DejaVuSans-52" d="M 2841 2188 
Q 3044 2119 3236 1894 
Q 3428 1669 3622 1275 
L 4263 0 
L 3584 0 
L 2988 1197 
Q 2756 1666 2539 1819 
Q 2322 1972 1947 1972 
L 1259 1972 
L 1259 0 
L 628 0 
L 628 4666 
L 2053 4666 
Q 2853 4666 3247 4331 
Q 3641 3997 3641 3322 
Q 3641 2881 3436 2590 
Q 3231 2300 2841 2188 
z
M 1259 4147 
L 1259 2491 
L 2053 2491 
Q 2509 2491 2742 2702 
Q 2975 2913 2975 3322 
Q 2975 3731 2742 3939 
Q 2509 4147 2053 4147 
L 1259 4147 
z
" transform="scale(0.015625)"/>
     </defs>
     <use xlink:href="#DejaVuSans-53"/>
     <use xlink:href="#DejaVuSans-68" transform="translate(63.476562 0)"/>
     <use xlink:href="#DejaVuSans-69" transform="translate(126.855469 0)"/>
     <use xlink:href="#DejaVuSans-6d" transform="translate(154.638672 0)"/>
     <use xlink:href="#DejaVuSans-20" transform="translate(252.050781 0)"/>
     <use xlink:href="#DejaVuSans-63" transform="translate(283.837891 0)"/>
     <use xlink:href="#DejaVuSans-6f" transform="translate(338.818359 0)"/>
     <use xlink:href="#DejaVuSans-72" transform="translate(400 0)"/>
     <use xlink:href="#DejaVuSans-65" transform="translate(438.863281 0)"/>
     <use xlink:href="#DejaVuSans-20" transform="translate(500.386719 0)"/>
     <use xlink:href="#DejaVuSans-76" transform="translate(532.173828 0)"/>
     <use xlink:href="#DejaVuSans-73" transform="translate(591.353516 0)"/>
     <use xlink:href="#DejaVuSans-20" transform="translate(643.453125 0)"/>
     <use xlink:href="#DejaVuSans-56" transform="translate(675.240234 0)"/>
     <use xlink:href="#DejaVuSans-65" transform="translate(735.898438 0)"/>
     <use xlink:href="#DejaVuSans-72" transform="translate(797.421875 0)"/>
     <use xlink:href="#DejaVuSans-69" transform="translate(838.535156 0)"/>
     <use xlink:href="#DejaVuSans-66" transform="translate(866.318359 0)"/>
     <use xlink:href="#DejaVuSans-69" transform="translate(901.523438 0)"/>
     <use xlink:href="#DejaVuSans-63" transform="translate(929.306641 0)"/>
     <use xlink:href="#DejaVuSans-61" transform="translate(984.287109 0)"/>
     <use xlink:href="#DejaVuSans-74" transform="translate(1045.566406 0)"/>
     <use xlink:href="#DejaVuSans-69" transform="translate(1084.775391 0)"/>
     <use xlink:href="#DejaVuSans-6f" transform="translate(1112.558594 0)"/>
     <use xlink:href="#DejaVuSans-6e" transform="translate(1173.740234 0)"/>
     <use xlink:href="#DejaVuSans-56" transform="translate(1237.119141 0)"/>
     <use xlink:href="#DejaVuSans-32" transform="translate(1305.527344 0)"/>
     <use xlink:href="#DejaVuSans-20" transform="translate(1369.150391 0)"/>
     <use xlink:href="#DejaVuSans-2d" transform="translate(1400.9375 0)"/>
     <use xlink:href="#DejaVuSans-20" transform="translate(1437.021484 0)"/>
     <use xlink:href="#DejaVuSans-52" transform="translate(1468.808594 0)"/>
     <use xlink:href="#DejaVuSans-65" transform="translate(1533.791016 0)"/>
     <use xlink:href="#DejaVuSans-6c" transform="translate(1595.314453 0)"/>
     <use xlink:href="#DejaVuSans-61" transform="translate(1623.097656 0)"/>
     <use xlink:href="#DejaVuSans-74" transform="translate(1684.376953 0)"/>
     <use xlink:href="#DejaVuSans-69" transform="translate(1723.585938 0)"/>
     <use xlink:href="#DejaVuSans-76" transform="translate(1751.369141 0)"/>
     <use xlink:href="#DejaVuSans-65" transform="translate(1810.548828 0)"/>
     <use xlink:href="#DejaVuSans-20" transform="translate(1872.072266 0)"/>
     <use xlink:href="#DejaVuSans-72" transform="translate(1903.859375 0)"/>
     <use xlink:href="#DejaVuSans-65" transform="translate(1942.722656 0)"/>
     <use xlink:href="#DejaVuSans-64" transform="translate(2004.246094 0)"/>
     <use xlink:href="#DejaVuSans-75" transform="translate(2067.722656 0)"/>
     <use xlink:href="#DejaVuSans-63" transform="translate(2131.101562 0)"/>
     <use xlink:href="#DejaVuSans-74" transform="translate(2186.082031 0)"/>
     <use xlink:href="#DejaVuSans-69" transform="translate(2225.291016 0)"/>
     <use xlink:href="#DejaVuSans-6f" transform="translate(2253.074219 0)"/>
     <use xlink:href="#DejaVuSans-6e" transform="translate(2314.255859 0)"/>
     <use xlink:href="#DejaVuSans-73" transform="translate(2377.634766 0)"/>
     <use xlink:href="#DejaVuSans-20" transform="translate(2429.734375 0)"/>
     <use xlink:href="#DejaVuSans-66" transform="translate(2461.521484 0)"/>
     <use xlink:href="#DejaVuSans-72" transform="translate(2496.726562 0)"/>
     <use xlink:href="#DejaVuSans-6f" transform="translate(2535.589844 0)"/>
     <use xlink:href="#DejaVuSans-6d" transform="translate(2596.771484 0)"/>
     <use xlink:href="#DejaVuSans-20" transform="translate(2694.183594 0)"/>
     <use xlink:href="#DejaVuSans-53" transform="translate(2725.970703 0)"/>
     <use xlink:href="#DejaVuSans-68" transform="translate(2789.447266 0)"/>
     <use xlink:href="#DejaVuSans-69" transform="translate(2852.826172 0)"/>
     <use xlink:href="#DejaVuSans-6d" transform="translate(2880.609375 0)"/>
     <use xlink:href="#DejaVuSans-20" transform="translate(2978.021484 0)"/>
     <use xlink:href="#DejaVuSans-63" transform="translate(3009.808594 0)"/>
     <use xlink:href="#DejaVuSans-6f" transform="translate(3064.789062 0)"/>
     <use xlink:href="#DejaVuSans-72" transform="translate(3125.970703 0)"/>
     <use xlink:href="#DejaVuSans-65" transform="translate(3164.833984 0)"/>
    </g>
   </g>
   <g id="legend_1">
    <g id="patch_29">
     <path d="M 195.9792 128.197413 
L 355.637013 128.197413 
Q 357.637013 128.197413 357.637013 126.197413 
L 357.637013 49.5696 
Q 357.637013 47.5696 355.637013 47.5696 
L 195.9792 47.5696 
Q 193.9792 47.5696 193.9792 49.5696 
L 193.9792 126.197413 
Q 193.9792 128.197413 195.9792 128.197413 
z
" style="fill: #ffffff; opacity: 0.8; stroke: #cccccc; stroke-linejoin: miter"/>
    </g>
    <g id="line2d_31">
     <path d="M 197.9792 62.306788 
L 207.9792 62.306788 
L 217.9792 62.306788 
" style="fill: none; stroke: #0000ff; stroke-width: 4; stroke-linecap: square"/>
    </g>
    <g id="text_31">
     <!-- shim verify -->
     <g transform="translate(225.9792 59.168037) scale(0.1 -0.1)">
      <use xlink:href="#DejaVuSans-73"/>
      <use xlink:href="#DejaVuSans-68" transform="translate(52.099609 0)"/>
      <use xlink:href="#DejaVuSans-69" transform="translate(115.478516 0)"/>
      <use xlink:href="#DejaVuSans-6d" transform="translate(143.261719 0)"/>
      <use xlink:href="#DejaVuSans-20" transform="translate(240.673828 0)"/>
      <use xlink:href="#DejaVuSans-76" transform="translate(272.460938 0)"/>
      <use xlink:href="#DejaVuSans-65" transform="translate(331.640625 0)"/>
      <use xlink:href="#DejaVuSans-72" transform="translate(393.164062 0)"/>
      <use xlink:href="#DejaVuSans-69" transform="translate(434.277344 0)"/>
      <use xlink:href="#DejaVuSans-66" transform="translate(462.060547 0)"/>
      <use xlink:href="#DejaVuSans-79" transform="translate(495.515625 0)"/>
     </g>
     <!-- 2 txs -->
     <g transform="translate(225.9792 70.36585) scale(0.1 -0.1)">
      <use xlink:href="#DejaVuSans-32"/>
      <use xlink:href="#DejaVuSans-20" transform="translate(63.623047 0)"/>
      <use xlink:href="#DejaVuSans-74" transform="translate(95.410156 0)"/>
      <use xlink:href="#DejaVuSans-78" transform="translate(134.619141 0)"/>
      <use xlink:href="#DejaVuSans-73" transform="translate(193.798828 0)"/>
     </g>
    </g>
    <g id="line2d_32">
     <path d="M 197.9792 88.182725 
L 207.9792 88.182725 
L 217.9792 88.182725 
" style="fill: none; stroke: #ffd700; stroke-width: 4; stroke-linecap: square"/>
    </g>
    <g id="text_32">
     <!-- early VerificationV2 -->
     <g transform="translate(225.9792 85.043975) scale(0.1 -0.1)">
      <use xlink:href="#DejaVuSans-65"/>
      <use xlink:href="#DejaVuSans-61" transform="translate(61.523438 0)"/>
      <use xlink:href="#DejaVuSans-72" transform="translate(122.802734 0)"/>
      <use xlink:href="#DejaVuSans-6c" transform="translate(163.916016 0)"/>
      <use xlink:href="#DejaVuSans-79" transform="translate(191.699219 0)"/>
      <use xlink:href="#DejaVuSans-20" transform="translate(250.878906 0)"/>
      <use xlink:href="#DejaVuSans-56" transform="translate(282.666016 0)"/>
      <use xlink:href="#DejaVuSans-65" transform="translate(343.324219 0)"/>
      <use xlink:href="#DejaVuSans-72" transform="translate(404.847656 0)"/>
      <use xlink:href="#DejaVuSans-69" transform="translate(445.960938 0)"/>
      <use xlink:href="#DejaVuSans-66" transform="translate(473.744141 0)"/>
      <use xlink:href="#DejaVuSans-69" transform="translate(508.949219 0)"/>
      <use xlink:href="#DejaVuSans-63" transform="translate(536.732422 0)"/>
      <use xlink:href="#DejaVuSans-61" transform="translate(591.712891 0)"/>
      <use xlink:href="#DejaVuSans-74" transform="translate(652.992188 0)"/>
      <use xlink:href="#DejaVuSans-69" transform="translate(692.201172 0)"/>
      <use xlink:href="#DejaVuSans-6f" transform="translate(719.984375 0)"/>
      <use xlink:href="#DejaVuSans-6e" transform="translate(781.166016 0)"/>
      <use xlink:href="#DejaVuSans-56" transform="translate(844.544922 0)"/>
      <use xlink:href="#DejaVuSans-32" transform="translate(912.953125 0)"/>
     </g>
     <!-- 1 tx -->
     <g transform="translate(225.9792 96.241787) scale(0.1 -0.1)">
      <use xlink:href="#DejaVuSans-31"/>
      <use xlink:href="#DejaVuSans-20" transform="translate(63.623047 0)"/>
      <use xlink:href="#DejaVuSans-74" transform="translate(95.410156 0)"/>
      <use xlink:href="#DejaVuSans-78" transform="translate(134.619141 0)"/>
     </g>
    </g>
    <g id="line2d_33">
     <path d="M 197.9792 114.058663 
L 207.9792 114.058663 
L 217.9792 114.058663 
" style="fill: none; stroke: #ff0000; stroke-width: 4; stroke-linecap: square"/>
    </g>
    <g id="text_33">
     <!-- VerificationV2 only digest -->
     <g transform="translate(225.9792 110.919913) scale(0.1 -0.1)">
      <use xlink:href="#DejaVuSans-56"/>
      <use xlink:href="#DejaVuSans-65" transform="translate(60.658203 0)"/>
      <use xlink:href="#DejaVuSans-72" transform="translate(122.181641 0)"/>
      <use xlink:href="#DejaVuSans-69" transform="translate(163.294922 0)"/>
      <use xlink:href="#DejaVuSans-66" transform="translate(191.078125 0)"/>
      <use xlink:href="#DejaVuSans-69" transform="translate(226.283203 0)"/>
      <use xlink:href="#DejaVuSans-63" transform="translate(254.066406 0)"/>
      <use xlink:href="#DejaVuSans-61" transform="translate(309.046875 0)"/>
      <use xlink:href="#DejaVuSans-74" transform="translate(370.326172 0)"/>
      <use xlink:href="#DejaVuSans-69" transform="translate(409.535156 0)"/>
      <use xlink:href="#DejaVuSans-6f" transform="translate(437.318359 0)"/>
      <use xlink:href="#DejaVuSans-6e" transform="translate(498.5 0)"/>
      <use xlink:href="#DejaVuSans-56" transform="translate(561.878906 0)"/>
      <use xlink:href="#DejaVuSans-32" transform="translate(630.287109 0)"/>
      <use xlink:href="#DejaVuSans-20" transform="translate(693.910156 0)"/>
      <use xlink:href="#DejaVuSans-6f" transform="translate(725.697266 0)"/>
      <use xlink:href="#DejaVuSans-6e" transform="translate(786.878906 0)"/>
      <use xlink:href="#DejaVuSans-6c" transform="translate(850.257812 0)"/>
      <use xlink:href="#DejaVuSans-79" transform="translate(878.041016 0)"/>
      <use xlink:href="#DejaVuSans-20" transform="translate(937.220703 0)"/>
      <use xlink:href="#DejaVuSans-64" transform="translate(969.007812 0)"/>
      <use xlink:href="#DejaVuSans-69" transform="translate(1032.484375 0)"/>
      <use xlink:href="#DejaVuSans-67" transform="translate(1060.267578 0)"/>
      <use xlink:href="#DejaVuSans-65" transform="translate(1123.744141 0)"/>
      <use xlink:href="#DejaVuSans-73" transform="translate(1185.267578 0)"/>
      <use xlink:href="#DejaVuSans-74" transform="translate(1237.367188 0)"/>
     </g>
     <!-- 1 tx -->
     <g transform="translate(225.9792 122.117725) scale(0.1 -0.1)">
      <use xlink:href="#DejaVuSans-31"/>
      <use xlink:href="#DejaVuSans-20" transform="translate(63.623047 0)"/>
      <use xlink:href="#DejaVuSans-74" transform="translate(95.410156 0)"/>
      <use xlink:href="#DejaVuSans-78" transform="translate(134.619141 0)"/>
     </g>
    </g>
   </g>
  </g>
 </g>
 <defs>
  <clipPath id="p14558e3f82">
   <rect x="188.9792" y="42.5696" width="1413.839543" height="610.097333"/>
  </clipPath>
 </defs>
</svg>
