<?xml version="1.0" encoding="UTF-8" standalone="no"?>
<svg
   viewBox="0 0 490 490"
   fill="none"
   version="1.1"
   id="svg65"
   sodipodi:docname="acala.svg"
   width="490"
   height="490"
   inkscape:version="1.1.1 (c3084ef, 2021-09-22)"
   xmlns:inkscape="http://www.inkscape.org/namespaces/inkscape"
   xmlns:sodipodi="http://sodipodi.sourceforge.net/DTD/sodipodi-0.dtd"
   xmlns="http://www.w3.org/2000/svg"
   xmlns:svg="http://www.w3.org/2000/svg">
  <sodipodi:namedview
     id="namedview67"
     pagecolor="#ffffff"
     bordercolor="#666666"
     borderopacity="1.0"
     inkscape:pageshadow="2"
     inkscape:pageopacity="0.0"
     inkscape:pagecheckerboard="0"
     showgrid="false"
     inkscape:zoom="0.89506656"
     inkscape:cx="638.5"
     inkscape:cy="245.23316"
     inkscape:window-width="2560"
     inkscape:window-height="1387"
     inkscape:window-x="0"
     inkscape:window-y="25"
     inkscape:window-maximized="1"
     inkscape:current-layer="svg65" />
  <path
     fill-rule="evenodd"
     clip-rule="evenodd"
     d="M 245,490 C 380.31,490 490,380.31 490,245 490,109.69 380.31,0 245,0 109.69,0 0,109.69 0,245 0,380.31 109.69,490 245,490 Z m 1,-23 C 368.607,467 468,367.607 468,245 468,122.393 368.607,23 246,23 123.393,23 24,122.393 24,245 c 0,122.607 99.393,222 222,222 z m -1,-17 C 358.218,450 450,358.218 450,245 450,131.782 358.218,40 245,40 131.782,40 40,131.782 40,245 c 0,113.218 91.782,205 205,205 z m 0.5,-25 C 345.187,425 426,344.187 426,244.5 426,144.813 345.187,64 245.5,64 145.813,64 65,144.813 65,244.5 65,344.187 145.813,425 245.5,425 Z M 235.313,98.664 365.988,325.36 380,301.05 263.338,98.664 Z M 110,300.641 221.842,106.615 l 0.231,0.4 0.22,-0.382 132.54,229.932 h -28.025 l -33.484,-58.088 c -15.215,-4.81 -31.414,-7.404 -48.22,-7.404 -8.663,0 -17.117,0.605 -25.336,1.812 l 16.14,-27.956 c 3.047,-0.149 6.113,-0.224 9.196,-0.224 10.267,0 20.339,0.831 30.154,2.43 l -53.195,-92.284 -98.05,170.099 z m 76.035,-2.949 50.256,-87.186 -14.012,-24.309 -86.676,150.367 h 28.025 l 0.266,-0.462 c 24.037,-14.472 51.619,-21.787 81.737,-21.787 19.232,0 37.67,3.397 54.747,9.625 l -18.775,-32.52 a 187.142,187.142 0 0 0 -35.972,-3.472 c -20.842,0 -40.885,3.425 -59.596,9.744 z"
     fill="url(#Acala_new_logo_svg__paint0_linear)"
     id="path9"
     style="fill:url(#Acala_new_logo_svg__paint0_linear)" />
  <defs
     id="defs63">
    <linearGradient
       id="Acala_new_logo_svg__paint0_linear"
       x1="462.5"
       y1="490"
       x2="101"
       y2="43.5"
       gradientUnits="userSpaceOnUse">
      <stop
         stop-color="#5A81FF"
         id="stop21" />
      <stop
         offset="0.524"
         stop-color="#E40C5B"
         id="stop23" />
      <stop
         offset="1"
         stop-color="#FF4C3B"
         id="stop25" />
    </linearGradient>
    <linearGradient
       id="Acala_new_logo_svg__paint1_linear"
       x1="1285.41"
       y1="352.18399"
       x2="1228.36"
       y2="60.854"
       gradientUnits="userSpaceOnUse">
      <stop
         offset="0.024"
         stop-color="#645AFF"
         id="stop28" />
      <stop
         offset="0.484"
         stop-color="#E40C5B"
         id="stop30" />
      <stop
         offset="1"
         stop-color="#FF4C3B"
         id="stop32" />
    </linearGradient>
    <linearGradient
       id="Acala_new_logo_svg__paint2_linear"
       x1="1285.41"
       y1="352.18399"
       x2="1228.36"
       y2="60.854"
       gradientUnits="userSpaceOnUse">
      <stop
         offset="0.024"
         stop-color="#645AFF"
         id="stop35" />
      <stop
         offset="0.484"
         stop-color="#E40C5B"
         id="stop37" />
      <stop
         offset="1"
         stop-color="#FF4C3B"
         id="stop39" />
    </linearGradient>
    <linearGradient
       id="Acala_new_logo_svg__paint3_linear"
       x1="1285.41"
       y1="352.18399"
       x2="1228.36"
       y2="60.854"
       gradientUnits="userSpaceOnUse">
      <stop
         offset="0.024"
         stop-color="#645AFF"
         id="stop42" />
      <stop
         offset="0.484"
         stop-color="#E40C5B"
         id="stop44" />
      <stop
         offset="1"
         stop-color="#FF4C3B"
         id="stop46" />
    </linearGradient>
    <linearGradient
       id="Acala_new_logo_svg__paint4_linear"
       x1="1285.41"
       y1="352.18399"
       x2="1228.36"
       y2="60.854"
       gradientUnits="userSpaceOnUse">
      <stop
         offset="0.024"
         stop-color="#645AFF"
         id="stop49" />
      <stop
         offset="0.484"
         stop-color="#E40C5B"
         id="stop51" />
      <stop
         offset="1"
         stop-color="#FF4C3B"
         id="stop53" />
    </linearGradient>
    <linearGradient
       id="Acala_new_logo_svg__paint5_linear"
       x1="1285.41"
       y1="352.18399"
       x2="1228.36"
       y2="60.854"
       gradientUnits="userSpaceOnUse">
      <stop
         offset="0.024"
         stop-color="#645AFF"
         id="stop56" />
      <stop
         offset="0.484"
         stop-color="#E40C5B"
         id="stop58" />
      <stop
         offset="1"
         stop-color="#FF4C3B"
         id="stop60" />
    </linearGradient>
  </defs>
</svg>
