<svg width="26" height="19" fill="none" xmlns="http://www.w3.org/2000/svg"><path d="M22.397 2.107C20.147.317 16.588.013 16.435.002a.566.566 0 0 0-.558.328 3.674 3.674 0 0 0-.172.465c1.488.248 3.316.749 4.97 1.763a.563.563 0 0 1 .26.566.554.554 0 0 1-.229.363.568.568 0 0 1-.628.021C17.235 1.763 13.685 1.677 13 1.677c-.684 0-4.237.087-7.078 1.83a.57.57 0 0 1-.779-.18.554.554 0 0 1 .182-.77c1.654-1.011 3.482-1.514 4.97-1.76-.085-.277-.163-.452-.17-.467a.554.554 0 0 0-.56-.328c-.153.011-3.712.314-5.993 2.129C2.382 3.219 0 9.585 0 15.088c0 .099.027.193.075.277C1.718 18.221 6.202 18.967 7.224 19h.018a.571.571 0 0 0 .457-.23l1.033-1.405c-2.788-.711-4.213-1.92-4.294-1.993a.557.557 0 0 1 .34-.977.57.57 0 0 1 .408.139c.033.03 2.656 2.23 7.814 2.23 5.166 0 7.79-2.208 7.816-2.23a.57.57 0 0 1 .907.24.553.553 0 0 1-.161.598c-.082.072-1.506 1.282-4.294 1.993l1.033 1.406a.563.563 0 0 0 .457.229h.017c1.023-.033 5.507-.78 7.15-3.635a.56.56 0 0 0 .075-.277c0-5.503-2.382-11.868-3.603-12.981ZM9.327 12.853c-1.094 0-1.98-1-1.98-2.235 0-1.235.886-2.236 1.98-2.236 1.092 0 1.977 1 1.977 2.236 0 1.235-.885 2.235-1.978 2.235Zm7.347 0c-1.093 0-1.978-1-1.978-2.235 0-1.235.885-2.236 1.978-2.236s1.978 1 1.978 2.236c0 1.235-.885 2.235-1.978 2.235Z" fill="#FFF"/></svg>