<svg xmlns="http://www.w3.org/2000/svg" width="459.319" height="459.319" style="enable-background:new 0 0 459.319 459.319" xml:space="preserve"><path fill="#5A5A66" d="M94.924 366.674h312.874c.958 0 1.886-.136 2.778-.349.071 0 .13.012.201.012 6.679 0 12.105-5.42 12.105-12.104V12.105C422.883 5.423 417.456 0 410.777 0H94.941c-32.22 0-58.428 26.214-58.428 58.425 0 .432.085.842.127 1.259-.042 29.755-.411 303.166-.042 339.109-.023.703-.109 1.389-.109 2.099 0 30.973 24.252 56.329 54.757 58.245.612.094 1.212.183 1.847.183h317.683c6.679 0 12.105-5.42 12.105-12.105V401.65c0-6.68-5.427-12.105-12.105-12.105s-12.105 5.426-12.105 12.105v33.461H94.924c-18.395 0-33.411-14.605-34.149-32.817.018-.325.077-.632.071-.963-.012-.532-.03-1.359-.042-2.459 1.058-17.924 15.935-32.198 34.12-32.198zm8.254-308.249c0-6.682 5.423-12.105 12.105-12.105s12.105 5.423 12.105 12.105V304.31c0 6.679-5.423 12.105-12.105 12.105s-12.105-5.427-12.105-12.105V58.425z"/></svg>