<svg width="21" height="21" fill="none" xmlns="http://www.w3.org/2000/svg"><path d="M19.591 5.36a10.59 10.59 0 0 0-3.82-3.916C14.16.48 12.404 0 10.5 0 8.595 0 6.838.481 5.23 1.444A10.588 10.588 0 0 0 1.407 5.36C.47 7.01 0 8.81 0 10.763c0 2.345.668 4.454 2.003 6.327 1.335 1.874 3.06 3.17 5.175 3.89.246.046.428.013.546-.099a.554.554 0 0 0 .178-.42l-.007-.757c-.005-.476-.007-.892-.007-1.247l-.314.056c-.2.038-.454.054-.759.05a5.644 5.644 0 0 1-.95-.099c-.328-.06-.634-.2-.916-.42a1.778 1.778 0 0 1-.602-.862l-.136-.322a3.518 3.518 0 0 0-.43-.715c-.197-.262-.395-.44-.596-.532l-.095-.07a1.015 1.015 0 0 1-.178-.17.77.77 0 0 1-.123-.195c-.027-.066-.005-.12.068-.162.073-.042.205-.062.397-.062l.273.041c.182.038.408.15.677.337.269.187.49.43.663.728.21.384.462.675.759.876.296.201.594.302.895.302.3 0 .56-.024.78-.07.218-.047.423-.117.615-.21.082-.627.305-1.108.67-1.444a9.167 9.167 0 0 1-1.402-.252 5.509 5.509 0 0 1-1.285-.547 3.702 3.702 0 0 1-1.1-.94c-.292-.373-.531-.864-.718-1.47-.187-.608-.28-1.309-.28-2.103 0-1.13.36-2.093 1.08-2.887-.338-.85-.306-1.803.095-2.859.265-.084.657-.02 1.176.19.52.21.9.39 1.142.539.241.15.435.276.58.378A9.486 9.486 0 0 1 10.5 5.2c.902 0 1.777.122 2.625.364l.52-.336c.355-.224.774-.43 1.257-.617.483-.186.853-.238 1.108-.154.41 1.056.446 2.009.109 2.86.72.793 1.08 1.756 1.08 2.886 0 .794-.094 1.497-.28 2.11-.187.611-.428 1.102-.724 1.47-.297.37-.666.68-1.108.933-.442.252-.87.434-1.285.546a9.153 9.153 0 0 1-1.401.253c.473.42.71 1.084.71 1.99v2.957c0 .168.057.308.171.42.114.112.294.145.54.098 2.115-.72 3.84-2.016 5.175-3.889C20.332 15.217 21 13.108 21 10.762c0-1.952-.47-3.752-1.409-5.401Z" fill="#FFF"/></svg>