<?xml version="1.0" encoding="utf-8"?>
<!-- Generator: Adobe Illustrator 26.0.3, SVG Export Plug-In . SVG Version: 6.00 Build 0)  -->
<svg version="1.1"
	 id="svg60" inkscape:version="1.1.1 (c3084ef, 2021-09-22)" sodipodi:docname="karura.svg" xmlns:inkscape="http://www.inkscape.org/namespaces/inkscape" xmlns:sodipodi="http://sodipodi.sourceforge.net/DTD/sodipodi-0.dtd" xmlns:svg="http://www.w3.org/2000/svg"
	 xmlns="http://www.w3.org/2000/svg" xmlns:xlink="http://www.w3.org/1999/xlink" x="0px" y="0px" viewBox="0 0 32 32"
	 style="enable-background:new 0 0 32 32;" xml:space="preserve">
<style type="text/css">
	.st0{fill:url(#path9_00000183207226421243246130000000649871513633350020_);}
	.st1{fill:url(#path11_00000111907511177103573740000007277726760468908191_);}
</style>
<sodipodi:namedview  bordercolor="#666666" borderopacity="1.0" id="namedview62" inkscape:current-layer="svg60" inkscape:cx="95" inkscape:cy="15.958005" inkscape:pagecheckerboard="0" inkscape:pageopacity="0.0" inkscape:pageshadow="2" inkscape:window-height="966" inkscape:window-maximized="1" inkscape:window-width="1728" inkscape:window-x="0" inkscape:window-y="38" inkscape:zoom="6.0157895" pagecolor="#ffffff" showgrid="false">
	</sodipodi:namedview>
<linearGradient id="path9_00000135687841366068396460000015766857612384780460_" gradientUnits="userSpaceOnUse" x1="30.603" y1="3.1183" x2="9.0668" y2="26.527" gradientTransform="matrix(1 0 0 -1 0 34)">
	<stop  offset="0" style="stop-color:#E40C5B"/>
	<stop  offset="1" style="stop-color:#FF4C3B"/>
</linearGradient>
<path id="path9" style="fill:url(#path9_00000135687841366068396460000015766857612384780460_);" d="M22.1,2l-8.6,7.8
	c-0.9,0.8-2.1,1.3-3.3,1.3l-2.6,0l0-9.1H3v26h2.5c1.4,0,2.7-0.8,3.4-2c0,0,0,0,0,0c0.5-0.8,0.7-2.5,0.6-3.6
	c-0.1-2.5-0.5-3.2-0.5-3.2C9,21,7.2,21.1,7.2,21.1c1.3-1.2,0.6-2.2,0.6-2.2c-2.3,1.6-2.9-0.1-2.9-0.3c0.1,0.1,0.7,0.6,2-1.1
	c1.3-1.8,3.1-4.8,4.2-5.6c1.1-0.8,2.2-0.7,2.2-0.7s0.6-0.8,2.2-1.5c1.6-0.7,2.6,0.3,2.6,0.3c-1.6,1.3-3.9,3.5-4,6.6
	c-0.1,2.5,5.4,6.9,4.4,13.3c0.6-1.5,0.8-2.9,0.6-4.7c-0.2-1.5-1.1-4.5-1.1-4.5l5.2,7.2H29L17.7,12.4L29,2H22.1z"/>
<linearGradient id="path11_00000141442106739365556190000001809957881644179604_" gradientUnits="userSpaceOnUse" x1="12.4138" y1="20.1852" x2="10.8888" y2="21.8552" gradientTransform="matrix(1 0 0 -1 0 34)">
	<stop  offset="0" style="stop-color:#E40C5B"/>
	<stop  offset="1" style="stop-color:#FF4C3B"/>
</linearGradient>
<path id="path11" style="fill:url(#path11_00000141442106739365556190000001809957881644179604_);" d="M10.9,12.8
	c-0.4,0.7-0.4,0.9-0.4,0.9s1.5-0.2,1.9-2C12.3,11.7,11.4,12,10.9,12.8L10.9,12.8z"/>
</svg>
