<?xml version="1.0" encoding="UTF-8"?>
<svg enable-background="new 0 0 32 32" version="1.1" viewBox="0 0 32 32" xml:space="preserve" xmlns="http://www.w3.org/2000/svg">
<style type="text/css">
	.st0{fill:url(#path9_00000183207226421243246130000000649871513633350020_);}
	.st1{fill:url(#path11_00000111907511177103573740000007277726760468908191_);}
</style>
<linearGradient id="a" x1="30.603" x2="9.0668" y1="3.1183" y2="26.527" gradientTransform="matrix(1 0 0 -1 0 34)" gradientUnits="userSpaceOnUse">
	<stop stop-color="#E40C5B" offset="0"/>
	<stop stop-color="#FF4C3B" offset="1"/>
</linearGradient>
<path d="m22.1 2l-8.6 7.8c-0.9 0.8-2.1 1.3-3.3 1.3h-2.6v-9.1h-4.6v26h2.5c1.4 0 2.7-0.8 3.4-2 0.5-0.8 0.7-2.5 0.6-3.6-0.1-2.5-0.5-3.2-0.5-3.2 0 1.8-1.8 1.9-1.8 1.9 1.3-1.2 0.6-2.2 0.6-2.2-2.3 1.6-2.9-0.1-2.9-0.3 0.1 0.1 0.7 0.6 2-1.1 1.3-1.8 3.1-4.8 4.2-5.6s2.2-0.7 2.2-0.7 0.6-0.8 2.2-1.5 2.6 0.3 2.6 0.3c-1.6 1.3-3.9 3.5-4 6.6-0.1 2.5 5.4 6.9 4.4 13.3 0.6-1.5 0.8-2.9 0.6-4.7-0.2-1.5-1.1-4.5-1.1-4.5l5.2 7.2h5.8l-11.3-15.5 11.3-10.4h-6.9z" fill="url(#a)"/>
<linearGradient id="b" x1="12.414" x2="10.889" y1="20.185" y2="21.855" gradientTransform="matrix(1 0 0 -1 0 34)" gradientUnits="userSpaceOnUse">
	<stop stop-color="#E40C5B" offset="0"/>
	<stop stop-color="#FF4C3B" offset="1"/>
</linearGradient>
<path d="m10.9 12.8c-0.4 0.7-0.4 0.9-0.4 0.9s1.5-0.2 1.9-2c-0.1 0-1 0.3-1.5 1.1z" fill="url(#b)"/>
</svg>
