<svg width="155" height="43" viewBox="0 0 155 43" fill="none" xmlns="http://www.w3.org/2000/svg">
<path d="M60.7969 25.1855C60.7969 24.1615 60.4372 23.3532 59.7178 22.7607C58.9984 22.1598 57.6823 21.5928 55.7695 21.0596C53.8568 20.5179 52.4603 19.9297 51.5801 19.2949C50.3275 18.3978 49.7012 17.2214 49.7012 15.7656C49.7012 14.3522 50.2809 13.2054 51.4404 12.3252C52.6084 11.4365 54.098 10.9922 55.9092 10.9922C57.1364 10.9922 58.2324 11.2292 59.1973 11.7031C60.1706 12.1771 60.9238 12.8372 61.457 13.6836C61.9902 14.5299 62.2568 15.4736 62.2568 16.5146H60.6826C60.6826 15.2536 60.251 14.2422 59.3877 13.4805C58.5244 12.7103 57.3649 12.3252 55.9092 12.3252C54.4958 12.3252 53.3701 12.6426 52.5322 13.2773C51.6943 13.9036 51.2754 14.7246 51.2754 15.7402C51.2754 16.6797 51.652 17.4456 52.4053 18.0381C53.1585 18.6305 54.3646 19.1553 56.0234 19.6123C57.6823 20.0609 58.9391 20.5306 59.7939 21.0215C60.6488 21.5039 61.292 22.0837 61.7236 22.7607C62.1553 23.4378 62.3711 24.2376 62.3711 25.1602C62.3711 26.6159 61.7871 27.7839 60.6191 28.6641C59.4596 29.5443 57.9277 29.9844 56.0234 29.9844C54.7201 29.9844 53.5225 29.7516 52.4307 29.2861C51.3473 28.8206 50.5221 28.1689 49.9551 27.3311C49.3965 26.4932 49.1172 25.5326 49.1172 24.4492H50.6787C50.6787 25.7526 51.1654 26.7809 52.1387 27.5342C53.112 28.2874 54.4069 28.6641 56.0234 28.6641C57.4622 28.6641 58.6175 28.3467 59.4893 27.7119C60.361 27.0771 60.7969 26.235 60.7969 25.1855ZM67.7539 12.4775V15.9941H70.5977V17.2383H67.7539V26.3916C67.7539 27.1533 67.8893 27.7204 68.1602 28.0928C68.4395 28.4652 68.9007 28.6514 69.5439 28.6514C69.7979 28.6514 70.2083 28.609 70.7754 28.5244L70.8389 29.7686C70.4411 29.9124 69.8994 29.9844 69.2139 29.9844C68.1729 29.9844 67.4154 29.6839 66.9414 29.083C66.4674 28.4736 66.2305 27.5807 66.2305 26.4043V17.2383H63.7041V15.9941H66.2305V12.4775H67.7539ZM82.417 29.7305C82.2646 29.2988 82.1673 28.6598 82.125 27.8135C81.5918 28.5075 80.9105 29.0449 80.0811 29.4258C79.2601 29.7982 78.3883 29.9844 77.4658 29.9844C76.1455 29.9844 75.0749 29.6162 74.2539 28.8799C73.4414 28.1436 73.0352 27.2126 73.0352 26.0869C73.0352 24.7497 73.5895 23.6917 74.6982 22.9131C75.8154 22.1344 77.3685 21.7451 79.3574 21.7451H82.1123V20.1836C82.1123 19.2018 81.8076 18.4316 81.1982 17.873C80.5973 17.306 79.7171 17.0225 78.5576 17.0225C77.4997 17.0225 76.6237 17.2933 75.9297 17.835C75.2357 18.3766 74.8887 19.0283 74.8887 19.79L73.3652 19.7773C73.3652 18.6855 73.873 17.7419 74.8887 16.9463C75.9043 16.1423 77.1527 15.7402 78.6338 15.7402C80.1657 15.7402 81.3717 16.1253 82.252 16.8955C83.1406 17.6572 83.5977 18.7236 83.623 20.0947V26.5947C83.623 27.9235 83.7627 28.918 84.042 29.5781V29.7305H82.417ZM77.6436 28.6387C78.6592 28.6387 79.5648 28.3932 80.3604 27.9023C81.1644 27.4115 81.7484 26.7555 82.1123 25.9346V22.9131H79.3955C77.8805 22.93 76.6956 23.2093 75.8408 23.751C74.986 24.2842 74.5586 25.0205 74.5586 25.96C74.5586 26.7301 74.8421 27.3691 75.4092 27.877C75.9847 28.3848 76.7295 28.6387 77.6436 28.6387ZM92.7637 28.7021C93.8216 28.7021 94.7061 28.4059 95.417 27.8135C96.1364 27.2126 96.5257 26.4382 96.585 25.4902H98.0449C98.0026 26.3281 97.7402 27.0941 97.2578 27.7881C96.7754 28.4736 96.1322 29.0111 95.3281 29.4004C94.5326 29.7897 93.6777 29.9844 92.7637 29.9844C90.9609 29.9844 89.5306 29.3581 88.4727 28.1055C87.4232 26.8529 86.8984 25.1686 86.8984 23.0527V22.5957C86.8984 21.2415 87.1354 20.0439 87.6094 19.0029C88.0833 17.9619 88.7604 17.1579 89.6406 16.5908C90.5293 16.0238 91.5661 15.7402 92.751 15.7402C94.2575 15.7402 95.4974 16.1888 96.4707 17.0859C97.4525 17.9831 97.9772 19.1637 98.0449 20.6279H96.585C96.5173 19.5531 96.1279 18.6855 95.417 18.0254C94.7145 17.3652 93.8258 17.0352 92.751 17.0352C91.3799 17.0352 90.3135 17.5303 89.5518 18.5205C88.7985 19.5107 88.4219 20.8988 88.4219 22.6846V23.1289C88.4219 24.8809 88.7985 26.2477 89.5518 27.2295C90.3135 28.2113 91.3841 28.7021 92.7637 28.7021ZM104.354 22.8115L102.615 24.4873V29.7305H101.092V10.2305H102.615V22.71L104.05 21.1611L109.306 15.9941H111.223L105.396 21.7832L111.73 29.7305H109.915L104.354 22.8115ZM128.488 20.9707C128.488 22.7819 128.175 24.373 127.549 25.7441C126.923 27.1068 126.025 28.1562 124.857 28.8926C123.698 29.6204 122.361 29.9844 120.846 29.9844C119.348 29.9844 118.01 29.6204 116.834 28.8926C115.666 28.1562 114.76 27.111 114.117 25.7568C113.482 24.4027 113.161 22.8411 113.152 21.0723V20.0312C113.152 18.2285 113.47 16.6374 114.104 15.2578C114.748 13.8783 115.649 12.8245 116.809 12.0967C117.977 11.3604 119.314 10.9922 120.82 10.9922C122.327 10.9922 123.66 11.3561 124.819 12.084C125.987 12.8034 126.889 13.8444 127.523 15.207C128.158 16.5612 128.48 18.1396 128.488 19.9424V20.9707ZM125.276 20.0059C125.276 17.9577 124.887 16.3877 124.108 15.2959C123.338 14.2041 122.242 13.6582 120.82 13.6582C119.432 13.6582 118.345 14.2041 117.558 15.2959C116.779 16.3792 116.381 17.9154 116.364 19.9043V20.9707C116.364 23.002 116.758 24.5719 117.545 25.6807C118.34 26.7894 119.441 27.3438 120.846 27.3438C122.268 27.3438 123.359 26.8021 124.121 25.7188C124.891 24.6354 125.276 23.0527 125.276 20.9707V20.0059ZM141.349 24.9697C141.349 24.1572 141.061 23.5309 140.485 23.0908C139.918 22.6507 138.89 22.2064 137.4 21.7578C135.911 21.3092 134.726 20.8099 133.846 20.2598C132.161 19.2018 131.319 17.8223 131.319 16.1211C131.319 14.6315 131.924 13.4043 133.135 12.4395C134.354 11.4746 135.932 10.9922 137.87 10.9922C139.157 10.9922 140.303 11.2292 141.311 11.7031C142.318 12.1771 143.109 12.8542 143.685 13.7344C144.26 14.6061 144.548 15.5752 144.548 16.6416H141.349C141.349 15.6768 141.044 14.9235 140.435 14.3818C139.834 13.8317 138.97 13.5566 137.845 13.5566C136.795 13.5566 135.979 13.7809 135.395 14.2295C134.819 14.6781 134.531 15.3044 134.531 16.1084C134.531 16.7855 134.844 17.3525 135.471 17.8096C136.097 18.2581 137.13 18.6982 138.568 19.1299C140.007 19.5531 141.162 20.0397 142.034 20.5898C142.906 21.1315 143.545 21.7578 143.951 22.4688C144.357 23.1712 144.561 23.9964 144.561 24.9443C144.561 26.4847 143.968 27.7119 142.783 28.626C141.607 29.5316 140.007 29.9844 137.984 29.9844C136.647 29.9844 135.416 29.7389 134.29 29.248C133.173 28.7487 132.301 28.0632 131.675 27.1914C131.057 26.3197 130.748 25.304 130.748 24.1445H133.96C133.96 25.194 134.307 26.0065 135.001 26.582C135.695 27.1576 136.689 27.4453 137.984 27.4453C139.102 27.4453 139.939 27.221 140.498 26.7725C141.065 26.3154 141.349 25.7145 141.349 24.9697Z" fill="#F5F5F5"/>
<g clip-path="url(#clip0)">
<path d="M34.653 30.4049L19.9963 38.8713" stroke="#B8BBC7" stroke-width="1.69245" stroke-miterlimit="10"/>
<path d="M18.8074 2.96178L34.6529 12.1095" stroke="#B8BBC7" stroke-width="1.69245" stroke-miterlimit="10"/>
<path d="M2.96179 12.1095L17.2418 20.3559" stroke="white" stroke-width="1.69245" stroke-miterlimit="10"/>
<path d="M2.96179 12.1095L18.8073 2.96178" stroke="#B8BBC7" stroke-width="1.69245" stroke-miterlimit="10"/>
<path d="M18.8073 37.8812V34.1367C18.8073 31.8265 17.5761 29.694 15.5748 28.5389L6.19437 23.1231C4.19305 21.968 2.96179 19.8355 2.96179 17.5253V12.1095" stroke="white" stroke-width="1.69245" stroke-miterlimit="10"/>
<path d="M34.6529 28.7336V24.989C34.6529 22.6788 33.4217 20.5463 31.4203 19.3912L26.728 16.6833" stroke="#B8BBC7" stroke-width="1.69245" stroke-miterlimit="10"/>
<path d="M17.6184 38.8713L3.99414 31.0014" stroke="white" stroke-width="1.69245" stroke-miterlimit="10"/>
<path d="M18.8074 21.2572L34.6529 12.1095" stroke="#B8BBC7" stroke-width="1.69245" stroke-miterlimit="10"/>
<path d="M18.8074 24.219C20.4431 24.219 21.7692 22.8929 21.7692 21.2572C21.7692 19.6214 20.4431 18.2954 18.8074 18.2954C17.1716 18.2954 15.8456 19.6214 15.8456 21.2572C15.8456 22.8929 17.1716 24.219 18.8074 24.219Z" fill="white"/>
<path d="M34.6529 15.0713C36.2887 15.0713 37.6147 13.7452 37.6147 12.1095C37.6147 10.4737 36.2887 9.14769 34.6529 9.14769C33.0172 9.14769 31.6912 10.4737 31.6912 12.1095C31.6912 13.7452 33.0172 15.0713 34.6529 15.0713Z" fill="#B8BBC7"/>
<path d="M18.8074 5.92357C20.4431 5.92357 21.7692 4.59753 21.7692 2.96178C21.7692 1.32603 20.4431 -2.38419e-06 18.8074 -2.38419e-06C17.1716 -2.38419e-06 15.8456 1.32603 15.8456 2.96178C15.8456 4.59753 17.1716 5.92357 18.8074 5.92357Z" fill="#B8BBC7"/>
<path d="M2.96179 15.0713C4.59754 15.0713 5.92357 13.7452 5.92357 12.1095C5.92357 10.4737 4.59754 9.14769 2.96179 9.14769C1.32604 9.14769 0 10.4737 0 12.1095C0 13.7452 1.32604 15.0713 2.96179 15.0713Z" fill="white"/>
<path d="M2.96179 33.3666C4.59754 33.3666 5.92357 32.0406 5.92357 30.4048C5.92357 28.7691 4.59754 27.4431 2.96179 27.4431C1.32604 27.4431 0 28.7691 0 30.4048C0 32.0406 1.32604 33.3666 2.96179 33.3666Z" fill="white"/>
<path d="M34.6529 33.3666C36.2887 33.3666 37.6147 32.0406 37.6147 30.4048C37.6147 28.7691 36.2887 27.4431 34.6529 27.4431C33.0172 27.4431 31.6912 28.7691 31.6912 30.4048C31.6912 32.0406 33.0172 33.3666 34.6529 33.3666Z" fill="#B8BBC7"/>
<path d="M18.8074 42.5186C20.4431 42.5186 21.7692 41.1925 21.7692 39.5568C21.7692 37.921 20.4431 36.595 18.8074 36.595C17.1716 36.595 15.8456 37.921 15.8456 39.5568C15.8456 41.1925 17.1716 42.5186 18.8074 42.5186Z" fill="white"/>
</g>
<defs>
<clipPath id="clip0">
<rect width="37.6147" height="42.5186" fill="white"/>
</clipPath>
</defs>
</svg>
