<svg width="1000" height="427" viewBox="0 0 1000 427" fill="none" xmlns="http://www.w3.org/2000/svg">
<path d="M474.293 201.265C474.293 214.024 465.067 224.433 446.394 224.433H426.777V248.723C426.77 249.113 426.612 249.485 426.336 249.761C426.06 250.036 425.688 250.194 425.298 250.2H418.531C418.142 250.194 417.77 250.036 417.494 249.761C417.218 249.485 417.061 249.113 417.055 248.723V179.578C417.06 179.187 417.218 178.815 417.493 178.539C417.769 178.262 418.141 178.104 418.531 178.098H446.398C465.071 178.098 474.296 188.5 474.296 201.265H474.293ZM464.1 201.265C464.1 193.079 459.166 186.375 444.479 186.375H426.787V216.155H444.479C459.164 216.155 464.101 209.478 464.101 201.265" fill="#0F0C48"/>
<path d="M592.256 214.147C592.37 218.907 591.545 223.643 589.828 228.084C588.111 232.525 585.536 236.585 582.251 240.031C578.965 243.477 575.033 246.242 570.678 248.169C566.324 250.095 561.633 251.145 556.873 251.259C556.413 251.269 555.952 251.27 555.493 251.259C548.137 251.33 540.925 249.214 534.774 245.179C528.622 241.144 523.809 235.372 520.944 228.596C518.079 221.82 517.292 214.346 518.683 207.122C520.075 199.898 523.581 193.25 528.758 188.023C533.934 182.796 540.547 179.225 547.757 177.763C554.967 176.301 562.449 177.015 569.253 179.813C576.056 182.612 581.875 187.369 585.97 193.481C590.064 199.592 592.251 206.783 592.251 214.14L592.256 214.147ZM582.055 214.14C582.055 197.062 570.916 185.301 555.491 185.301C540.067 185.301 528.926 197.067 528.926 214.14C528.926 231.212 540.067 242.983 555.493 242.983C570.919 242.983 582.056 231.221 582.056 214.14" fill="#0F0C48"/>
<path d="M695.406 247.271C695.639 247.543 695.784 247.879 695.822 248.235C695.861 248.591 695.791 248.95 695.622 249.266C695.453 249.581 695.193 249.839 694.876 250.004C694.558 250.17 694.198 250.235 693.843 250.193H686.897C686.671 250.187 686.449 250.125 686.253 250.013C686.057 249.9 685.892 249.74 685.773 249.547L668.34 223.247H649.602V248.72C649.596 249.11 649.438 249.482 649.163 249.757C648.887 250.033 648.515 250.19 648.125 250.195H641.348C640.958 250.189 640.586 250.032 640.31 249.757C640.035 249.481 639.877 249.11 639.871 248.72V179.571C639.878 179.181 640.035 178.809 640.311 178.534C640.586 178.258 640.958 178.101 641.348 178.094H668.03C686.707 178.094 695.929 187.904 695.929 200.671C695.929 210.805 690.145 219.081 678.407 222.063L695.406 247.271ZM666.111 214.966C680.797 214.966 685.73 208.879 685.73 200.665C685.73 192.479 680.797 186.36 666.111 186.36H649.61V214.966H666.111Z" fill="#0F0C48"/>
<path d="M802.017 179.576V184.894C802.012 185.28 801.859 185.649 801.589 185.924C801.319 186.199 800.953 186.359 800.567 186.37H775.56V248.724C775.554 249.114 775.396 249.486 775.12 249.761C774.844 250.037 774.472 250.194 774.082 250.2H767.318C766.928 250.195 766.556 250.037 766.279 249.762C766.003 249.486 765.845 249.114 765.839 248.724V186.37H740.847C740.457 186.366 740.084 186.209 739.807 185.933C739.531 185.657 739.373 185.284 739.367 184.894V179.576C739.374 179.186 739.532 178.814 739.808 178.538C740.084 178.263 740.457 178.105 740.847 178.1H800.571C800.956 178.111 801.322 178.272 801.592 178.547C801.862 178.822 802.015 179.191 802.02 179.576" fill="#0F0C48"/>
<path d="M903.612 250.79H895.486C895.123 250.819 894.761 250.727 894.457 250.529C894.152 250.331 893.922 250.037 893.801 249.694L885.942 231.524H852.078L843.66 249.694C843.529 250.029 843.296 250.314 842.994 250.511C842.693 250.707 842.338 250.805 841.978 250.79H834.767C833.704 250.79 833.085 250.143 833.588 249.046L866.918 178.599C867.048 178.262 867.28 177.976 867.582 177.779C867.885 177.583 868.241 177.487 868.601 177.505H870.964C871.323 177.494 871.677 177.593 871.979 177.788C872.281 177.984 872.516 178.266 872.653 178.599L904.711 249.046C905.187 250.14 904.683 250.79 903.619 250.79H903.612ZM882.55 223.723L869.576 193.728L855.686 223.723H882.55Z" fill="#0F0C48"/>
<path d="M999.996 243.404V248.722C1000.01 248.905 999.981 249.088 999.922 249.262C999.862 249.435 999.768 249.595 999.647 249.732C999.525 249.869 999.377 249.981 999.213 250.061C999.048 250.141 998.869 250.188 998.686 250.199C998.629 250.202 998.572 250.202 998.516 250.199H950.44C950.05 250.193 949.678 250.035 949.403 249.759C949.128 249.484 948.971 249.112 948.965 248.722V179.576C948.971 179.187 949.128 178.815 949.403 178.539C949.678 178.263 950.05 178.106 950.44 178.1H957.207C957.597 178.106 957.969 178.263 958.244 178.539C958.52 178.814 958.677 179.186 958.683 179.576V241.924H998.521C998.891 241.903 999.254 242.029 999.531 242.275C999.807 242.522 999.975 242.868 999.997 243.238C1000 243.294 1000 243.351 999.997 243.408" fill="#0F0C48"/>
<path d="M213.401 0C95.584 0 0 95.584 0 213.401C0 331.218 95.584 426.802 213.401 426.802C331.218 426.802 426.802 331.218 426.802 213.401C426.802 95.584 331.218 0 213.401 0ZM213.401 305.308C162.633 305.308 121.493 264.169 121.493 213.401C121.493 162.633 162.633 121.493 213.401 121.493C264.169 121.493 305.308 162.633 305.308 213.401C305.308 264.169 264.169 305.308 213.401 305.308Z" fill="url(#paint0_radial_371_2)"/>
<defs>
<radialGradient id="paint0_radial_371_2" cx="0" cy="0" r="1" gradientUnits="userSpaceOnUse" gradientTransform="translate(213.381 213.373) scale(178.862)">
<stop offset="0.2254" stop-color="#0F0C48"/>
<stop offset="0.5444" stop-color="#0F0C48" stop-opacity="0.44"/>
<stop offset="0.6859" stop-color="#0F0C48" stop-opacity="0.23"/>
<stop offset="0.8568" stop-color="#0F0C48" stop-opacity="0.07"/>
<stop offset="1" stop-color="#0F0C48" stop-opacity="0"/>
</radialGradient>
</defs>
</svg>
