<svg width="1000" height="427" viewBox="0 0 1000 427" fill="none" xmlns="http://www.w3.org/2000/svg">
<path d="M474.231 201.239C474.231 213.996 465.006 224.404 446.336 224.404H426.721V248.691C426.714 249.081 426.556 249.453 426.28 249.729C426.005 250.004 425.632 250.162 425.243 250.168H418.476C418.087 250.162 417.715 250.004 417.439 249.729C417.164 249.453 417.006 249.081 417 248.691V179.555C417.006 179.164 417.163 178.792 417.439 178.516C417.714 178.239 418.086 178.081 418.476 178.075H446.339C465.01 178.075 474.234 188.476 474.234 201.239H474.231ZM464.039 201.239C464.039 193.055 459.106 186.351 444.42 186.351H426.731V216.128H444.42C459.104 216.128 464.04 209.451 464.04 201.239" fill="white"/>
<path d="M592.179 214.119C592.293 218.878 591.468 223.614 589.751 228.054C588.034 232.495 585.46 236.554 582.175 240C578.89 243.445 574.958 246.21 570.604 248.137C566.25 250.063 561.56 251.113 556.8 251.226C556.341 251.236 555.88 251.238 555.421 251.226C548.065 251.298 540.855 249.182 534.704 245.147C528.553 241.113 523.74 235.342 520.876 228.567C518.012 221.792 517.225 214.318 518.616 207.095C520.007 199.872 523.513 193.225 528.689 187.999C533.865 182.772 540.477 179.202 547.686 177.74C554.895 176.278 562.376 176.992 569.179 179.79C575.981 182.588 581.799 187.345 585.893 193.456C589.988 199.567 592.174 206.756 592.174 214.112L592.179 214.119ZM581.979 214.112C581.979 197.037 570.841 185.277 555.419 185.277C539.997 185.277 528.858 197.042 528.858 214.112C528.858 231.182 539.997 242.951 555.421 242.951C570.845 242.951 581.981 231.191 581.981 214.112" fill="white"/>
<path d="M695.315 247.239C695.548 247.511 695.692 247.847 695.731 248.203C695.77 248.559 695.7 248.918 695.531 249.234C695.362 249.549 695.102 249.807 694.785 249.972C694.467 250.137 694.107 250.203 693.752 250.161H686.807C686.581 250.155 686.359 250.093 686.163 249.98C685.967 249.868 685.802 249.708 685.683 249.515L668.252 223.219H649.516V248.688C649.511 249.078 649.353 249.45 649.077 249.725C648.802 250.001 648.43 250.158 648.04 250.163H641.264C640.874 250.157 640.502 250 640.226 249.725C639.951 249.449 639.793 249.078 639.787 248.688V179.548C639.794 179.158 639.951 178.787 640.227 178.511C640.502 178.236 640.874 178.078 641.264 178.071H667.942C686.617 178.071 695.837 187.881 695.837 200.646C695.837 210.778 690.054 219.053 678.318 222.035L695.315 247.239ZM666.024 214.939C680.708 214.939 685.64 208.853 685.64 200.639C685.64 192.454 680.708 186.336 666.024 186.336H649.525V214.939H666.024Z" fill="white"/>
<path d="M801.912 179.553V184.87C801.907 185.255 801.754 185.624 801.484 185.9C801.214 186.175 800.848 186.335 800.462 186.346H775.459V248.691C775.453 249.081 775.295 249.453 775.019 249.729C774.743 250.004 774.371 250.162 773.981 250.168H767.218C766.828 250.162 766.455 250.005 766.179 249.729C765.903 249.454 765.745 249.081 765.738 248.691V186.346H740.75C740.36 186.341 739.987 186.184 739.71 185.909C739.434 185.633 739.276 185.26 739.271 184.87V179.553C739.277 179.163 739.435 178.79 739.711 178.515C739.988 178.239 740.36 178.082 740.75 178.076H800.466C800.851 178.088 801.217 178.248 801.487 178.523C801.757 178.799 801.91 179.167 801.915 179.553" fill="white"/>
<path d="M903.495 250.757H895.37C895.008 250.787 894.646 250.695 894.341 250.497C894.037 250.299 893.806 250.005 893.686 249.662L885.828 231.495H851.968L843.552 249.662C843.42 249.997 843.187 250.282 842.886 250.479C842.584 250.675 842.229 250.773 841.869 250.757H834.659C833.596 250.757 832.977 250.111 833.481 249.014L866.807 178.576C866.936 178.24 867.169 177.953 867.471 177.757C867.773 177.56 868.129 177.464 868.489 177.482H870.851C871.211 177.471 871.565 177.57 871.867 177.765C872.168 177.961 872.403 178.244 872.54 178.576L904.594 249.014C905.07 250.108 904.567 250.757 903.502 250.757H903.495ZM882.436 223.694L869.463 193.704L855.576 223.694H882.436Z" fill="white"/>
<path d="M999.866 243.373V248.69C999.877 248.873 999.852 249.056 999.792 249.229C999.732 249.403 999.639 249.562 999.517 249.699C999.395 249.836 999.248 249.948 999.083 250.028C998.918 250.108 998.739 250.155 998.556 250.166C998.499 250.17 998.443 250.17 998.386 250.166H950.316C949.927 250.16 949.555 250.002 949.28 249.727C949.005 249.451 948.847 249.079 948.842 248.69V179.553C948.847 179.163 949.005 178.791 949.28 178.516C949.555 178.24 949.927 178.083 950.316 178.076H957.083C957.472 178.082 957.844 178.24 958.12 178.516C958.395 178.791 958.553 179.163 958.559 179.553V241.893H998.391C998.761 241.871 999.124 241.998 999.401 242.244C999.678 242.49 999.846 242.836 999.867 243.206C999.871 243.263 999.871 243.319 999.867 243.376" fill="white"/>
<path d="M213.373 0C95.5715 0 0 95.5715 0 213.373C0 331.175 95.5715 426.746 213.373 426.746C331.175 426.746 426.746 331.175 426.746 213.373C426.746 95.5715 331.175 0 213.373 0ZM213.373 305.269C162.612 305.269 121.477 264.135 121.477 213.373C121.477 162.612 162.612 121.477 213.373 121.477C264.135 121.477 305.269 162.612 305.269 213.373C305.269 264.135 264.135 305.269 213.373 305.269Z" fill="url(#paint0_radial_371_24)"/>
<defs>
<radialGradient id="paint0_radial_371_24" cx="0" cy="0" r="1" gradientUnits="userSpaceOnUse" gradientTransform="translate(213.353 213.345) scale(178.839)">
<stop offset="0.2254" stop-color="white"/>
<stop offset="0.5444" stop-color="white" stop-opacity="0.44"/>
<stop offset="0.6859" stop-color="white" stop-opacity="0.23"/>
<stop offset="0.8568" stop-color="white" stop-opacity="0.07"/>
<stop offset="1" stop-color="white" stop-opacity="0"/>
</radialGradient>
</defs>
</svg>
