<svg width="22" height="18" fill="none" xmlns="http://www.w3.org/2000/svg"><path fill-rule="evenodd" clip-rule="evenodd" d="M21.836 2.091a8.483 8.483 0 0 1-2.495.702A4.449 4.449 0 0 0 21.25.327c-.84.51-1.768.881-2.76 1.08A4.284 4.284 0 0 0 15.319 0c-2.398 0-4.344 1.997-4.344 4.459 0 .35.037.689.112 1.015-3.612-.186-6.813-1.96-8.958-4.66a4.543 4.543 0 0 0-.588 2.244A4.49 4.49 0 0 0 3.474 6.77a4.264 4.264 0 0 1-1.969-.556v.055c0 2.161 1.498 3.964 3.487 4.372a4.141 4.141 0 0 1-1.145.157c-.28 0-.553-.027-.818-.08.554 1.772 2.157 3.062 4.06 3.096a8.577 8.577 0 0 1-6.434 1.849 12.093 12.093 0 0 0 6.661 2.001c7.994 0 12.364-6.793 12.364-12.686 0-.194-.003-.388-.01-.578a8.923 8.923 0 0 0 2.166-2.308" fill="#FFF"/></svg>