<svg viewBox="0 0 32 32" xmlns="http://www.w3.org/2000/svg" xml:space="preserve" style="fill-rule:evenodd;clip-rule:evenodd;stroke-linejoin:round;stroke-miterlimit:2"><g transform="translate(1.682 1.682) scale(1.7897)"><clipPath id="a"><path d="M0 0h16v16H0z"/></clipPath><g clip-path="url(#a)"><path d="M12.725 4.927c-2.594-2.588-6.856-2.588-9.45 0l-.344.345a.334.334 0 0 0 0 .471l1.074 1.073a.167.167 0 0 0 .236 0l.463-.462c1.809-1.806 4.783-1.806 6.592 0l.432.431a.167.167 0 0 0 .236 0l1.075-1.072a.33.33 0 0 0 0-.472l-.314-.314ZM15.902 8.1l-.956-.955a.336.336 0 0 0-.472 0l-3.06 3.055a.085.085 0 0 1-.118 0l-3.06-3.055a.336.336 0 0 0-.472 0L4.704 10.2a.085.085 0 0 1-.118 0l-3.06-3.055a.336.336 0 0 0-.472 0L.098 8.1a.33.33 0 0 0 0 .472l4.31 4.304c.131.13.343.13.473 0l3.06-3.055a.085.085 0 0 1 .118 0l3.06 3.055c.13.13.342.13.472 0l4.311-4.304a.33.33 0 0 0 0-.472Z" style="fill:#3b99fc;fill-rule:nonzero"/></g></g></svg>