<svg version="1.1" id="Layer_1" xmlns="http://www.w3.org/2000/svg" x="0" y="0" viewBox="0 0 1200 1200" style="enable-background:new 0 0 1200 1200" xml:space="preserve"><style>.st1{fill:#fff}</style><linearGradient id="SVGID_1_" gradientUnits="userSpaceOnUse" x1="898.635" y1="313.87" x2="115.958" y2="1069.016" gradientTransform="matrix(1 0 0 -1 0 1202)"><stop offset=".044" style="stop-color:#17153f"/><stop offset=".895" style="stop-color:#e72850"/></linearGradient><path d="M600 0c331.4 0 600 268.6 600 600s-268.6 600-600 600S0 931.4 0 600 268.6 0 600 0z" style="fill:url(#SVGID_1_)"/><g id="Group_2688_00000054987805972546127230000001790373977789335727_" transform="translate(889 -859.95)"><path id="Path_1700_00000088816419864858296970000017358602858408324795_" class="st1" d="M-289 1849.2c-215 0-389.3-174.3-389.3-389.3S-504 1070.6-289 1070.6s389.3 174.3 389.3 389.3C100 1674.8-74.1 1849-289 1849.2m0-761.2c-205.4 0-372 166.5-372 372s166.5 372 372 372 372-166.5 372-372c-.2-205.4-166.6-371.8-372-372"/><path id="Path_1701_00000043446539099758984290000018341695511642478224_" class="st1" d="M-257.1 1811.2c-193.2 0-349.8-156.6-349.8-349.8 0-193.2 156.6-349.8 349.8-349.8s349.8 156.6 349.8 349.8c-.3 193.1-156.8 349.5-349.8 349.8m0-684.6c-184.9 0-334.8 149.9-334.8 334.8s149.9 334.8 334.8 334.8 334.8-149.9 334.8-334.8c-.2-184.8-150-334.6-334.8-334.8"/><path id="Path_1702_00000113335188362704744920000010469125356209529766_" class="st1" d="M-225.3 1773.1c-171.3 0-310.3-138.9-310.3-310.2s138.9-310.3 310.2-310.3S85 1291.5 85 1462.8c-.2 171.3-139 310.1-310.3 310.3m0-607.9c-164.3 0-297.6 133.2-297.6 297.6s133.2 297.6 297.6 297.6 297.6-133.2 297.6-297.6c-.2-164.2-133.3-297.4-297.6-297.6"/><path id="Path_1703_00000016781340587998914980000004383849681671759015_" class="st1" d="M-193.4 1735c-149.5 0-270.8-121.2-270.8-270.7s121.2-270.8 270.7-270.8 270.8 121.2 270.8 270.7c-.1 149.5-121.2 270.6-270.7 270.8m0-531.1c-143.8 0-260.4 116.6-260.4 260.4 0 143.8 116.6 260.4 260.4 260.4 143.8 0 260.4-116.6 260.4-260.4-.2-143.8-116.7-260.3-260.4-260.4"/><path id="Path_1704_00000018930625917587001090000003434842714786806953_" class="st1" d="M-161.5 1696.9c-127.7 0-231.2-103.5-231.2-231.2 0-127.7 103.5-231.2 231.2-231.2S69.7 1338 69.7 1465.7c-.2 127.6-103.6 231.1-231.2 231.2m0-454.4c-123.3 0-223.2 99.9-223.2 223.2 0 123.3 99.9 223.2 223.2 223.2S61.7 1589 61.7 1465.7c-.2-123.2-100-223-223.2-223.2"/><path id="Path_1705_00000027567382612946487660000013739044656758152873_" class="st1" d="M-129.7 1658.8c-105.9 0-191.7-85.8-191.7-191.7 0-105.9 85.8-191.7 191.7-191.7S62 1361.2 62 1467.1c-.1 105.9-85.8 191.6-191.7 191.7m0-377.6c-102.7 0-186 83.3-186 186s83.3 186 186 186 186-83.3 186-186c-.1-102.7-83.3-185.9-186-186"/></g></svg>