<svg id="Group_2616" data-name="Group 2616" xmlns="http://www.w3.org/2000/svg" xmlns:xlink="http://www.w3.org/1999/xlink" width="176.577" height="30.781" viewBox="0 0 176.577 30.781">
  <defs>
    <clipPath id="clip-path">
      <rect id="Rectangle_1331" data-name="Rectangle 1331" width="176.577" height="30.781" transform="translate(0 0)" fill="#fff"/>
    </clipPath>
  </defs>
  <g id="Group_2614" data-name="Group 2614" transform="translate(0 0)" clip-path="url(#clip-path)">
    <path id="Path_1571" data-name="Path 1571" d="M139.86,29.253l-4.039,11.421a.261.261,0,0,1-.268.177h-.306a.282.282,0,0,1-.273-.177l-3.028-8.01-3.023,8.01a.272.272,0,0,1-.268.177h-.311a.269.269,0,0,1-.268-.177l-4.039-11.417c-.062-.177.005-.287.177-.287h1.25a.26.26,0,0,1,.273.177l2.879,8.647,2.927-7.919a.277.277,0,0,1,.273-.177h.263a.271.271,0,0,1,.268.177l3.014,7.919,2.812-8.647a.26.26,0,0,1,.273-.177h1.231c.177,0,.244.11.182.283" transform="translate(-82.566 -19.288)" fill="#fff"/>
    <path id="Path_1572" data-name="Path 1572" d="M200.285,34.471a5.96,5.96,0,1,1-5.96-6.017,5.879,5.879,0,0,1,5.96,6.017m-1.653,0c0-2.769-1.806-4.676-4.307-4.676s-4.307,1.907-4.307,4.676,1.806,4.676,4.307,4.676,4.307-1.907,4.307-4.676" transform="translate(-125.412 -18.944)" fill="#fff"/>
    <path id="Path_1573" data-name="Path 1573" d="M253.32,40.186a.288.288,0,0,1-.254.474H251.94a.222.222,0,0,1-.182-.105l-2.826-4.264h-3.037v4.13a.243.243,0,0,1-.24.24h-1.1a.243.243,0,0,1-.239-.24V29.21a.244.244,0,0,1,.239-.24h4.326c3.028,0,4.523,1.591,4.523,3.66a3.445,3.445,0,0,1-2.841,3.469Zm-4.748-5.236c2.381,0,3.181-.987,3.181-2.319s-.8-2.319-3.181-2.319h-2.678v4.638Z" transform="translate(-162.664 -19.288)" fill="#fff"/>
    <path id="Path_1574" data-name="Path 1574" d="M303.514,28.4h.359a.226.226,0,0,1,.24.24v11.4a.226.226,0,0,1-.24.24h-1.1a.226.226,0,0,1-.24-.24V31.947l-4.432,6.415a.182.182,0,0,1-.331,0l-4.431-6.415v8.092a.226.226,0,0,1-.24.24h-1.1a.226.226,0,0,1-.24-.24v-11.4a.226.226,0,0,1,.24-.24h.355a.36.36,0,0,1,.3.163l5.28,7.373,5.284-7.373a.346.346,0,0,1,.292-.163" transform="translate(-194.255 -18.906)" fill="#fff"/>
    <path id="Path_1575" data-name="Path 1575" d="M361.126,29.21V40.42a.244.244,0,0,1-.24.24h-1.1a.244.244,0,0,1-.24-.24V35.313h-7.277V40.42a.244.244,0,0,1-.24.24h-1.1a.244.244,0,0,1-.24-.24V29.21a.244.244,0,0,1,.24-.24h1.1a.244.244,0,0,1,.24.24v4.762h7.277V29.21a.244.244,0,0,1,.24-.24h1.1a.244.244,0,0,1,.24.24" transform="translate(-233.489 -19.288)" fill="#fff"/>
    <path id="Path_1576" data-name="Path 1576" d="M414.109,34.471a5.96,5.96,0,1,1-5.96-6.017,5.879,5.879,0,0,1,5.96,6.017m-1.653,0c0-2.769-1.806-4.676-4.307-4.676s-4.307,1.907-4.307,4.676,1.806,4.676,4.307,4.676,4.307-1.907,4.307-4.676" transform="translate(-267.773 -18.944)" fill="#fff"/>
    <path id="Path_1577" data-name="Path 1577" d="M466.416,39.558v.862a.226.226,0,0,1-.24.24h-7.794a.244.244,0,0,1-.24-.24V29.21a.244.244,0,0,1,.24-.24h1.1a.244.244,0,0,1,.239.24V39.318h6.458a.226.226,0,0,1,.24.24" transform="translate(-305.025 -19.288)" fill="#fff"/>
    <path id="Path_1578" data-name="Path 1578" d="M510.615,39.558v.862a.226.226,0,0,1-.24.24h-8.417a.244.244,0,0,1-.24-.24V29.21a.244.244,0,0,1,.24-.24h8.226a.226.226,0,0,1,.24.24v.862a.226.226,0,0,1-.24.24h-6.889v3.66h6.123a.225.225,0,0,1,.239.235v.867a.226.226,0,0,1-.239.239h-6.123v4.005h7.081a.226.226,0,0,1,.24.24" transform="translate(-334.038 -19.288)" fill="#fff"/>
    <path id="Path_1579" data-name="Path 1579" d="M15.39,30.781a15.39,15.39,0,1,1,15.39-15.39,15.408,15.408,0,0,1-15.39,15.39m0-30.1A14.708,14.708,0,1,0,30.1,15.39,14.724,14.724,0,0,0,15.39.683" transform="translate(0 0)" fill="#fff"/>
    <path id="Path_1580" data-name="Path 1580" d="M22.272,32.5A13.829,13.829,0,1,1,36.1,18.672,13.844,13.844,0,0,1,22.272,32.5m0-27.065A13.237,13.237,0,1,0,35.509,18.672,13.251,13.251,0,0,0,22.272,5.436" transform="translate(-5.622 -3.225)" fill="#fff"/>
    <path id="Path_1581" data-name="Path 1581" d="M29.154,34.22A12.266,12.266,0,1,1,41.42,21.954,12.28,12.28,0,0,1,29.154,34.22m0-24.032A11.766,11.766,0,1,0,40.92,21.954,11.779,11.779,0,0,0,29.154,10.188" transform="translate(-11.244 -6.449)" fill="#fff"/>
    <path id="Path_1582" data-name="Path 1582" d="M36.035,35.94a10.7,10.7,0,1,1,10.7-10.7,10.717,10.717,0,0,1-10.7,10.7m0-21A10.295,10.295,0,1,0,46.33,25.235,10.307,10.307,0,0,0,36.035,14.941" transform="translate(-16.865 -9.675)" fill="#fff"/>
    <path id="Path_1583" data-name="Path 1583" d="M42.916,37.66a9.142,9.142,0,1,1,9.142-9.142,9.153,9.153,0,0,1-9.142,9.142m0-17.966a8.824,8.824,0,1,0,8.824,8.824,8.833,8.833,0,0,0-8.824-8.824" transform="translate(-22.486 -12.9)" fill="#fff"/>
    <path id="Path_1584" data-name="Path 1584" d="M49.8,39.379a7.58,7.58,0,1,1,7.58-7.58,7.589,7.589,0,0,1-7.58,7.58m0-14.933A7.353,7.353,0,1,0,57.151,31.8,7.361,7.361,0,0,0,49.8,24.446" transform="translate(-28.108 -16.124)" fill="#fff"/>
  </g>
</svg>
