<svg data-name="Group 2616" xmlns="http://www.w3.org/2000/svg" width="176.577" height="30.781"><defs><clipPath id="a"><path data-name="Rectangle 1331" fill="#fff" d="M0 0h176.577v30.781H0z"/></clipPath></defs><g data-name="Group 2614" clip-path="url(#a)" fill="#fff"><path data-name="Path 1571" d="m57.294 9.965-4.039 11.421a.261.261 0 0 1-.268.177h-.306a.282.282 0 0 1-.273-.177l-3.028-8.01-3.023 8.01a.272.272 0 0 1-.268.177h-.311a.269.269 0 0 1-.268-.177L41.471 9.969c-.062-.177.005-.287.177-.287h1.25a.26.26 0 0 1 .273.177l2.879 8.647 2.927-7.919a.277.277 0 0 1 .273-.177h.263a.271.271 0 0 1 .268.177l3.014 7.919 2.812-8.647a.26.26 0 0 1 .273-.177h1.231c.177 0 .244.11.182.283"/><path data-name="Path 1572" d="M74.873 15.527a5.96 5.96 0 1 1-5.96-6.017 5.879 5.879 0 0 1 5.96 6.017m-1.653 0c0-2.769-1.806-4.676-4.307-4.676s-4.307 1.907-4.307 4.676 1.806 4.676 4.307 4.676 4.307-1.907 4.307-4.676"/><path data-name="Path 1573" d="M90.656 20.898a.288.288 0 0 1-.254.474h-1.126a.222.222 0 0 1-.182-.105l-2.826-4.264h-3.037v4.13a.243.243 0 0 1-.24.24h-1.1a.243.243 0 0 1-.239-.24V9.922a.244.244 0 0 1 .239-.24h4.326c3.028 0 4.523 1.591 4.523 3.66a3.445 3.445 0 0 1-2.841 3.469Zm-4.748-5.236c2.381 0 3.181-.987 3.181-2.319s-.8-2.319-3.181-2.319H83.23v4.638Z"/><path data-name="Path 1574" d="M109.259 9.494h.359a.226.226 0 0 1 .24.24v11.4a.226.226 0 0 1-.24.24h-1.1a.226.226 0 0 1-.24-.24v-8.093l-4.432 6.415a.182.182 0 0 1-.331 0l-4.431-6.415v8.092a.226.226 0 0 1-.24.24h-1.1a.226.226 0 0 1-.24-.24v-11.4a.226.226 0 0 1 .24-.24h.355a.36.36 0 0 1 .3.163l5.28 7.373 5.284-7.373a.346.346 0 0 1 .292-.163"/><path data-name="Path 1575" d="M127.637 9.922v11.21a.244.244 0 0 1-.24.24h-1.1a.244.244 0 0 1-.24-.24v-5.107h-7.277v5.107a.244.244 0 0 1-.24.24h-1.1a.244.244 0 0 1-.24-.24V9.922a.244.244 0 0 1 .24-.24h1.1a.244.244 0 0 1 .24.24v4.762h7.277V9.922a.244.244 0 0 1 .24-.24h1.1a.244.244 0 0 1 .24.24"/><path data-name="Path 1576" d="M146.336 15.527a5.96 5.96 0 1 1-5.96-6.017 5.879 5.879 0 0 1 5.96 6.017m-1.653 0c0-2.769-1.806-4.676-4.307-4.676s-4.307 1.907-4.307 4.676 1.806 4.676 4.307 4.676 4.307-1.907 4.307-4.676"/><path data-name="Path 1577" d="M161.391 20.27v.862a.226.226 0 0 1-.24.24h-7.794a.244.244 0 0 1-.24-.24V9.922a.244.244 0 0 1 .24-.24h1.1a.244.244 0 0 1 .239.24V20.03h6.458a.226.226 0 0 1 .24.24"/><path data-name="Path 1578" d="M176.577 20.27v.862a.226.226 0 0 1-.24.24h-8.417a.244.244 0 0 1-.24-.24V9.922a.244.244 0 0 1 .24-.24h8.226a.226.226 0 0 1 .24.24v.862a.226.226 0 0 1-.24.24h-6.889v3.66h6.123a.225.225 0 0 1 .239.235v.867a.226.226 0 0 1-.239.239h-6.123v4.005h7.081a.226.226 0 0 1 .24.24"/><path data-name="Path 1579" d="M15.39 30.781a15.39 15.39 0 1 1 15.39-15.39 15.408 15.408 0 0 1-15.39 15.39m0-30.1A14.708 14.708 0 1 0 30.1 15.39 14.724 14.724 0 0 0 15.39.683"/><path data-name="Path 1580" d="M16.65 29.275a13.829 13.829 0 1 1 13.828-13.828A13.844 13.844 0 0 1 16.65 29.275m0-27.065a13.237 13.237 0 1 0 13.237 13.237A13.251 13.251 0 0 0 16.65 2.211"/><path data-name="Path 1581" d="M17.91 27.771a12.266 12.266 0 1 1 12.266-12.266A12.28 12.28 0 0 1 17.91 27.771m0-24.032a11.766 11.766 0 1 0 11.766 11.766A11.779 11.779 0 0 0 17.91 3.739"/><path data-name="Path 1582" d="M19.17 26.265a10.7 10.7 0 1 1 10.7-10.7 10.717 10.717 0 0 1-10.7 10.7m0-21A10.295 10.295 0 1 0 29.465 15.56 10.307 10.307 0 0 0 19.17 5.266"/><path data-name="Path 1583" d="M20.43 24.76a9.142 9.142 0 1 1 9.142-9.142 9.153 9.153 0 0 1-9.142 9.142m0-17.966a8.824 8.824 0 1 0 8.824 8.824 8.833 8.833 0 0 0-8.824-8.824"/><path data-name="Path 1584" d="M21.692 23.255a7.58 7.58 0 1 1 7.58-7.58 7.589 7.589 0 0 1-7.58 7.58m0-14.933a7.353 7.353 0 1 0 7.351 7.354 7.361 7.361 0 0 0-7.351-7.354"/></g></svg>