<svg version="1.1" id="Layer_1" xmlns="http://www.w3.org/2000/svg" x="0" y="0" viewBox="0 0 351.6 87.2" style="enable-background:new 0 0 351.6 87.2" xml:space="preserve"><style>.st4{fill:#fff}</style><path d="M39.7 39.9c-12.6 0-24.5 4.8-33.4 13.6-.5.2-.5.7-.5 1.2v11.1c0 .5 0 1 .5 1.2.2.2.7.5 1.2.5h11.6c.5 0 .7-.2 1.2-.5 0-.2.2-.7.2-1 .5-4.8 2.7-9.2 6.1-12.6 3.6-3.1 8.2-5.1 13.1-5.1s9.4 1.7 13.1 5.1c3.6 3.1 5.8 7.8 6.1 12.6 0 .5.2.7.5 1.2.2 0 .7.2 1.2.2h11.6c.2 0 .5 0 .7-.2.2 0 .5-.2.5-.2 0-.2.2-.2.2-.5V54.7c0-.5-.2-1-.5-1.2-9-8.7-20.9-13.6-33.4-13.6z" style="fill:#00efd8"/><path d="M8 19.1c-.1 0-.4 0-.6.1-.1.1-.3.1-.4.4-.2.4-.2.4-.2.7v.6C9.6 28 11 35.8 11 43.3c0 7.7-1.5 15.3-4.2 22.5 0 .1-.1.3 0 .6 0 .1.1.3.1.6s.3.3.4.4.3.1.6.1h10.2c.1 0 .4 0 .6-.1.1-.1.3-.1.4-.4.1-.1.1-.3.1-.6 0-.1 0-.4-.1-.6-2.7-7.1-4.1-14.9-4.1-22.5 0-7.7 1.5-15.3 4.2-22.5 0-.1.1-.3.1-.6 0-.1-.1-.3-.1-.6l-.4-.4c-.1-.1-.3-.1-.6-.1H8z" style="fill:#fd3503"/><path d="M61.1 19.1c-.1 0-.4 0-.6.1-.1.1-.3.1-.4.4-.1.3-.1.3-.1.6v.6c2.8 7.2 4.2 14.9 4.2 22.5 0 7.7-1.5 15.3-4.2 22.5 0 .1-.1.3 0 .6 0 .1.1.3.1.6s.3.3.4.4c.1.1.3.1.6.1h10.2c.1 0 .4 0 .6-.1.1-.1.3-.1.4-.4.1-.1.1-.3.1-.6 0-.1 0-.4-.1-.6-2.8-7.2-4.2-14.9-4.2-22.5 0-7.7 1.5-15.3 4.2-22.5 0-.1.1-.3.1-.6 0-.1-.1-.3-.1-.6l-.4-.4c-.1-.1-.3-.1-.6-.1H61.1z" style="fill:#0074ff"/><g style="enable-background:new"><path class="st4" d="M112.6 38.6c-.4 1-1 1.8-1.7 2.5-.8.7-1.5 1.3-2.6 1.7-1 .4-2 .7-3.2.7-1.1 0-2-.2-2.9-.6-1-.4-1.7-.9-2.4-1.4-.7.6-1.5 1.2-2.4 1.4-1 .4-1.9.6-2.9.6-1.1 0-2.1-.2-3.2-.7-1-.4-1.8-1-2.6-1.7s-1.3-1.5-1.7-2.5c-.4-1-.7-2-.7-3.1V17.1c0-.3.1-.6.3-.8.2-.2.5-.3.8-.3h3.2c.3 0 .6.1.8.3.2.2.3.5.3.8v18.5c0 .9.3 1.6.8 2.2.6.6 1.2.9 1.9.9.8 0 1.3-.3 1.9-.9s.8-1.3.8-2.2V33c0-.3.1-.6.3-.8.2-.2.5-.3.8-.3h3.4c.3 0 .6.1.8.3.2.2.3.5.3.8v2.6c0 .9.3 1.6.8 2.2.6.6 1.2.9 1.9.9.8 0 1.4-.3 1.9-.9.6-.6.8-1.3.8-2.2V17.1c0-.3.1-.6.3-.8.2-.2.5-.3.8-.3h3.2c.3 0 .6.1.8.3.2.2.3.5.3.8v18.5c-.3 1.1-.5 2.1-.9 3zM150.9 35.1c0 1.2-.2 2.1-.7 3.1-.4 1-1 1.8-1.7 2.5-.8.7-1.5 1.3-2.6 1.6-1 .4-2 .7-3.2.7h-10.8c-1.2 0-2.1-.2-3.2-.7-1-.4-1.8-1-2.6-1.6-.8-.7-1.3-1.5-1.7-2.5-.4-1-.7-2-.7-3.1V23.9c0-1.1.2-2.1.7-3.1.4-1 1.1-1.8 1.7-2.5.8-.7 1.5-1.3 2.6-1.6 1-.4 2-.7 3.1-.7h10.8c1.2 0 2.1.2 3.1.7 1 .4 1.8 1 2.6 1.6s1.3 1.5 1.7 2.5.7 2 .7 3.1v11.2h.2zM145.5 24c0-.9-.3-1.6-.8-2.2s-1.2-.9-1.9-.9H132c-.8 0-1.3.3-1.9.9-.5.6-.8 1.3-.8 2.2v11.1c0 .9.3 1.6.8 2.2.5.6 1.2.9 1.9.9h10.8c.8 0 1.3-.3 1.9-.9.5-.6.8-1.3.8-2.2V24zM189.4 29.1c-.2.2-.5.3-.8.3h-3.2c-.3 0-.6-.1-.8-.3-.2-.2-.3-.5-.3-.8v-4.4c0-.9-.3-1.6-.8-2.2s-1.2-.9-1.9-.9h-10.8c-.8 0-1.3.3-1.9.9-.5.6-.8 1.3-.8 2.2v17.9c0 .3-.1.6-.3.8s-.5.3-.8.3h-3c-.3 0-.6-.1-.8-.3s-.3-.5-.3-.8V24c0-1.1.2-2.1.7-3.1.4-1 1-1.8 1.7-2.5.8-.7 1.5-1.3 2.6-1.7 1-.4 2-.7 3.2-.7h10.8c1.2 0 2.1.2 3.2.6 1 .4 1.8 1 2.6 1.7.8.8 1.3 1.5 1.7 2.5s.7 2 .7 3.1v4.4c-.3.4-.4.6-.7.8zM225.9 42.6c-.2.2-.5.3-.8.3H222c-.3 0-.6-.1-.8-.3s-.3-.5-.3-.8V23.5c0-.9-.3-1.6-.8-2.2-.6-.6-1.2-.9-1.9-.9s-1.4.3-1.9.9c-.6.6-.8 1.3-.8 2.2v7.6c0 .3-.1.6-.3.8s-.5.3-.8.3h-3.2c-.3 0-.6-.1-.8-.3s-.3-.5-.3-.8v-7.6c0-.9-.3-1.6-.8-2.2-.6-.6-1.2-.9-1.9-.9s-1.3.3-1.9.9c-.6.6-.8 1.3-.8 2.2v18.4c0 .3-.1.6-.3.8s-.5.3-.8.3h-3.3c-.3 0-.6-.1-.8-.3s-.3-.5-.3-.8V23.5c0-1.1.2-2.1.7-3.1.4-1 1-1.8 1.7-2.5.8-.7 1.5-1.3 2.5-1.7 1-.4 2-.7 3.1-.7s2 .2 2.9.6c1 .4 1.7.9 2.4 1.4.7-.6 1.5-1.2 2.4-1.4 1-.4 1.9-.6 2.9-.6 1.1 0 2.1.2 3.1.7 1 .4 1.8 1 2.5 1.7s1.3 1.5 1.7 2.5.7 2 .7 3.1v18.4c.4.2.3.5.1.7zM254.3 42.6c-.2.2-.5.3-.8.3h-6.1c-.3 0-.6-.1-.8-.3s-.3-.5-.3-.8v-2.7c0-.3.1-.6.3-.8s.5-.3.8-.3h6.1c.3 0 .6.1.8.3s.3.5.3.8v2.7c0 .3-.1.6-.3.8zM301.4 38c-.4 1-1 1.8-1.7 2.5-.8.7-1.5 1.3-2.6 1.7-1 .4-2 .7-3.2.7h-7.6c-1.1 0-2.1-.2-3.1-.7-1-.4-1.8-1-2.5-1.7-.8-.7-1.3-1.5-1.7-2.5-.4-1-.7-2-.7-3.1v-10h-2.8c-.3 0-.6-.1-.8-.3s-.3-.5-.3-.8v-2.7c0-.3.1-.6.3-.8.2-.2.5-.3.8-.3h2.8v-2.9c0-.3.1-.6.3-.8.2-.2.5-.3.8-.3h3.2c.3 0 .6.1.8.3.2.2.3.5.3.8V20H301c.3 0 .6.1.8.3.2.2.3.5.3.8v2.7c0 .3-.1.6-.3.8-.2.2-.5.3-.8.3h-17.3v10.2c0 .9.3 1.6.8 2.2s1.2.9 1.9.9h7.6c.8 0 1.4-.3 1.9-.9.5-.6.8-1.3.8-2.2v-1.6c0-.3.1-.6.3-.8s.5-.3.8-.3h3.2c.3 0 .6.1.8.3.2.2.3.5.3.8v1.6c-.2 1-.3 2-.7 2.9zM339.3 35.1c0 1.2-.2 2.1-.7 3.1-.4 1-1 1.8-1.7 2.5-.8.7-1.5 1.3-2.6 1.6-1 .4-2 .7-3.2.7h-10.8c-1.2 0-2.1-.2-3.2-.7-1-.4-1.8-1-2.6-1.6-.8-.7-1.3-1.5-1.7-2.5-.4-1-.7-2-.7-3.1V23.9c0-1.1.2-2.1.7-3.1.4-1 1.1-1.8 1.7-2.5.8-.7 1.5-1.3 2.6-1.6 1-.4 2-.7 3.1-.7H331c1.2 0 2.1.2 3.1.7 1 .4 1.8 1 2.6 1.6.8.7 1.3 1.5 1.7 2.5.4 1 .7 2 .7 3.1v11.2h.2zM333.9 24c0-.9-.3-1.6-.8-2.2s-1.2-.9-1.9-.9h-10.8c-.8 0-1.3.3-1.9.9-.5.6-.8 1.3-.8 2.2v11.1c0 .9.3 1.6.8 2.2.5.6 1.2.9 1.9.9h10.8c.8 0 1.3-.3 1.9-.9.5-.6.8-1.3.8-2.2V24z"/></g><path class="st4" d="M227.9 70.1h-.4l-2-8h-2.4l-1.8 8h-.3l-2.2-8.3h-1.6l2.7 9.6H222.7l1.6-8 2 8h2.8l2.4-9.6H230zM241.9 63.1c-.6-.6-1-.9-1.6-1.2-1.3-.6-3-.6-4.3 0-1.2.6-2.2 1.6-2.7 2.8-.1.6-.3 1.2-.3 1.9v.4c0 .7.1 1.2.3 1.8.1.6.6 1.2 1 1.6.6.6 1 .9 1.6 1.2 1.3.6 3.1.6 4.5 0 1.2-.6 2.1-1.6 2.7-2.8.1-.6.3-1.2.3-1.8v-.3c0-.7-.1-1.2-.3-1.9-.3-.8-.6-1.4-1.2-1.7zm-.6 5.4c-.3.6-.7 1-1.2 1.2-1.2.7-2.7.7-3.9 0-.6-.3-.9-.7-1.2-1.2-.3-.6-.3-1.2-.3-1.9s.1-1.2.3-1.9c.3-.6.7-1 1.2-1.2 1.2-.7 2.7-.7 3.7 0 .6.3.9.7 1.2 1.2.7 1.2.7 2.6.2 3.8zM248.3 62.7c-.6.6-.9 1.2-.9 2.1v-3h-1.3v9.7h1.8v-5.2c0-.9.1-1.6.9-2.2.7-.6 1.3-.9 2.2-.7h.7v-1.5h-.3c-1.6-.1-2.5.2-3.1.8zM266.5 62.1c-.6-.3-1.2-.6-1.9-.6s-1.3.1-1.9.6c-.6.3-.9.9-1.2 1.6 0 .1 0 .1-.1.3 0-.1 0-.1-.1-.3-.1-.7-.6-1.2-1-1.6-.6-.3-1.2-.6-1.9-.6-1.3-.1-2.7.7-3 2.1 0 .1-.1.3-.1.6V62H254v9.7h1.8v-6c0-.7.1-1.3.7-1.9.6-.6 1-.7 1.8-.7.7 0 1.2.1 1.6.7.3.6.7 1.2.6 1.9v6h1.8v-6c0-.7.1-1.3.7-1.9s1-.7 1.8-.7c.7 0 1.2.1 1.6.7.3.6.7 1.2.6 1.9v6h1.8v-5.5c0-.9-.1-1.6-.3-2.4-1.1-.8-1.4-1.4-2-1.7zM276.2 61.6c-.9 0-1.6.1-2.1.6-.6.3-.9.9-1 1.3v-5.4h-1.8v13.4h1.8V66c0-.7.1-1.3.7-2.1.6-.6 1.2-.9 1.9-.7.7 0 1.2.1 1.8.7.6.6.7 1.2.7 1.9v6h1.8v-5.5c0-1.3-.3-2.7-.9-3.3-.9-1.1-1.8-1.4-2.9-1.4zM291.2 63.1c-.6-.6-1-.9-1.6-1.2-1.3-.6-3-.6-4.3 0-1.2.6-2.2 1.6-2.7 2.8-.1.6-.3 1.2-.3 1.9v.4c0 .7.1 1.2.3 1.8.1.6.6 1.2 1 1.6.6.6 1 .9 1.6 1.2 1.3.6 3.1.6 4.5 0 1.2-.6 2.1-1.6 2.7-2.8.1-.6.3-1.2.3-1.8v-.3c0-.7-.1-1.2-.3-1.9-.3-.8-.6-1.4-1.2-1.7zm-.7 5.4c-.3.6-.7 1-1.2 1.2-1.2.7-2.7.7-3.9 0-.6-.3-.9-.7-1.2-1.2-.3-.4-.3-1.2-.3-1.9s.1-1.2.3-1.9c.3-.6.7-1 1.2-1.2 1.2-.7 2.7-.7 3.7 0 .6.3.9.7 1.2 1.2.7 1.2.7 2.6.2 3.8zM294 58.2v1.5h1.4v11.7h1.8V58.2h-1.8zM309.2 66.2c0-.9-.1-1.6-.6-2.2-.3-.7-.9-1.3-1.6-1.8-.9-.6-1.8-.7-2.7-.7-.7 0-1.3.1-2.1.3-.6.3-1 .7-1.6 1.2-.3.6-.7 1-.9 1.6-.1.6-.3 1.2-.3 1.9v.3c0 .7.1 1.2.3 1.8.1.6.6 1.2.9 1.6.3.6.9.9 1.6 1.2.7.3 1.3.6 2.2.6.7 0 1.3-.1 2.1-.3 1.2-.6 2.1-1.6 2.2-2.8h-1.6c-.1.6-.6.9-.9 1.2-1.2.7-2.7.7-3.7 0-.6-.3-.9-.7-1-1.3-.1-.6-.3-1-.3-1.6h7.6l.4-1zm-6.4-2.8c.6-.3 1-.6 1.8-.6.6 0 1.2.1 1.8.3.6.3.9.7 1 1.2.1.3.1.7.3 1h-6c0-.3.1-.7.1-.9l1-1z"/><path d="M200 66.5c0-4.3-1.8-8.5-4.8-11.6-.1-.1-.3-.1-.3-.1H191c-.3 0-.6.1-.6.6v4c0 .3.1.6.6.6 3.7.3 6.4 3.4 6.1 7.1-.1 3.3-2.8 6-6.1 6.1-.3 0-.6.3-.6.6v4c0 .3.3.6.6.6h3.9c.1 0 .3 0 .3-.1 3.2-3.1 4.8-7.3 4.8-11.8z" style="fill:red"/><path d="M214 74c0-.3-.1-.6-.6-.6-3.7-.3-6.4-3.4-6.1-7.1.1-3.3 2.8-6 6.1-6.1.3 0 .6-.3.6-.6v-4c0-.3-.1-.6-.6-.6h-3.8c-.1 0-.3 0-.3.1-6.3 6.4-6.3 16.8 0 23.4.1.1.3.1.3.1h3.9c.3 0 .6-.1.6-.6v-4h-.1z" style="fill:#0073ff"/><path d="M199.3 52.7c-.3 0-.7.3-.7.7v.1c1.6 4.2 2.4 8.5 2.4 13.1s-.9 8.9-2.4 13.1c-.1.3 0 .7.3.9h6.1c.3 0 .7-.3.7-.7v-.3c-3.3-8.3-3.3-17.7 0-26.1.1-.3 0-.7-.3-.9h-6.1v.1z" style="fill:#00f3d7"/><path class="st4" d="M121.6 72c-.8 0-1.6-.2-2.2-.6s-1.2-.9-1.5-1.6c-.4-.7-.6-1.5-.6-2.5h.5v4.4h-1.4V57.8h1.8v6.7l-.6 1.4c.1-1.1.3-2 .7-2.7s.9-1.2 1.5-1.5 1.3-.5 2.1-.5c.7 0 1.4.1 2 .4s1.1.6 1.5 1.1.8 1 1 1.7c.2.6.3 1.3.3 2v.3c0 .7-.1 1.4-.4 2-.2.6-.6 1.2-1 1.7s-1 .9-1.6 1.1-1.3.5-2.1.5zm-.2-1.6c.7 0 1.3-.2 1.8-.5s.9-.8 1.2-1.4.4-1.2.4-2-.1-1.4-.4-2-.7-1-1.2-1.3-1.1-.5-1.8-.5c-.6 0-1.2.1-1.7.4-.5.3-.9.7-1.2 1.2s-.5 1.1-.5 1.9v.9c0 .7.2 1.3.5 1.8s.7.9 1.3 1.1c.5.3 1 .4 1.6.4zM132.9 72c-1.2 0-2.1-.4-2.8-1.2s-1-1.9-1-3.4v-5.9h1.8v6.3c0 .8.2 1.4.6 1.9.4.5 1 .7 1.7.7.8 0 1.4-.2 1.9-.7s.7-1.2.7-2v-6.1h1.8v10.2h-1.4v-4.4h.2c0 1-.1 1.8-.4 2.5-.3.7-.7 1.2-1.2 1.6-.4.3-1 .5-1.9.5zM140.2 63v-1.4h3.4V63h-3.4zm2.1-3.1c-.4 0-.7-.1-.9-.3s-.3-.5-.3-.8.1-.6.3-.8.5-.3.9-.3.7.1.9.3.3.5.3.8-.1.6-.3.8c-.2.2-.5.3-.9.3zm-.5 11.8V61.6h1.8v10.1h-1.8zM145.9 59.3v-1.4h3.2v1.4h-3.2zm1.4 12.4V57.8h1.8v13.9h-1.8zM151.1 62.9v-1.4h7v1.4h-7zm5.4 8.9c-.8 0-1.4-.1-2-.3-.6-.2-1-.6-1.3-1.1s-.4-1.2-.4-2.1v-9.8h1.7v10c0 .5.1 1 .4 1.3.3.3.7.4 1.3.4h1.8v1.6h-1.5zM169.7 72c-.9 0-1.7-.2-2.3-.5-.7-.3-1.2-.7-1.7-1.2s-.8-1.1-1-1.7-.4-1.3-.4-1.9v-.3c0-.6.1-1.3.4-1.9.2-.6.6-1.2 1.1-1.7s1-.9 1.7-1.2 1.4-.4 2.3-.4 1.6.1 2.3.4c.7.3 1.2.7 1.7 1.2s.8 1.1 1.1 1.7c.2.6.4 1.3.4 1.9v.3c0 .6-.1 1.3-.4 1.9-.2.6-.6 1.2-1 1.7s-1 .9-1.7 1.2c-.9.4-1.6.5-2.5.5zm0-1.6c.8 0 1.4-.2 1.9-.5s.9-.8 1.2-1.4.4-1.2.4-1.9-.1-1.4-.4-1.9c-.3-.6-.7-1-1.2-1.3s-1.2-.5-1.9-.5-1.4.2-1.9.5-1 .8-1.3 1.3c-.3.6-.4 1.2-.4 1.9s.1 1.3.4 1.9c.3.6.7 1 1.2 1.4.6.3 1.2.5 2 .5zM177.9 71.7V61.6h1.4V66h-.2c0-1 .1-1.8.4-2.5.3-.7.7-1.2 1.2-1.6s1.3-.5 2.1-.5h.1c1.3 0 2.2.4 2.8 1.2s.9 2 .9 3.5v5.8h-1.8v-6.2c0-.8-.2-1.4-.7-1.9-.4-.5-1.1-.7-1.8-.7-.8 0-1.4.2-1.9.7s-.7 1.2-.7 2v6.1h-1.8v-.2z"/></svg>