<svg xmlns="http://www.w3.org/2000/svg" viewBox="0 0 34 34" style="enable-background:new 0 0 34 34" xml:space="preserve"><path d="M17 15.6c-5.2 0-10.1 2-13.8 5.6-.2.1-.2.3-.2.5v4.6c0 .2 0 .4.2.5.1.1.3.2.5.2h4.8c.2 0 .3-.1.5-.2 0-.1.1-.3.1-.4.2-2 1.1-3.8 2.5-5.2 1.5-1.3 3.4-2.1 5.4-2.1s3.9.7 5.4 2.1c1.5 1.3 2.4 3.2 2.5 5.2 0 .2.1.3.2.5.1 0 .3.1.5.1h4.8c.1 0 .2 0 .3-.1.1 0 .2-.1.2-.1 0-.1.1-.1.1-.2V21.7c0-.2-.1-.4-.2-.5-3.7-3.6-8.6-5.6-13.8-5.6z" style="fill:#00efd8"/><path d="M3.9 7s-.2 0-.2.1c-.1 0-.1 0-.2.1s-.1.2-.1.3v.2c1.1 3 1.7 6.1 1.7 9.3 0 3.2-.6 6.3-1.7 9.3 0 .1-.1.1 0 .2 0 .1.1.1.1.2s.1.1.2.2c0 .1.1.1.2.1h4.2c.1 0 .2 0 .2-.1l.2-.2c.1-.1.1-.1.1-.2s0-.2-.1-.2c-1.1-3-1.7-6.1-1.7-9.3 0-3.2.6-6.3 1.7-9.3 0-.1.1-.1.1-.2s-.1-.1-.1-.2-.1-.2-.1-.2C8.3 7 8.3 7 8.1 7H3.9z" style="fill:#fd3503"/><path d="M25.9 7c-.1 0-.2 0-.2.1l-.2.2c-.1.1-.1.1-.1.2v.2c1.1 3 1.7 6.1 1.7 9.3 0 3.2-.6 6.3-1.7 9.3 0 .1-.1.1 0 .2 0 .1.1.1.1.2s.1.1.2.2.1.1.2.1h4.2c.1 0 .2 0 .2-.1l.2-.2c.1-.1.1-.1.1-.2s0-.2-.1-.2c-1.1-3-1.7-6.1-1.7-9.3 0-3.2.6-6.3 1.7-9.3 0-.1.1-.1.1-.2s-.1-.1-.1-.2l-.2-.2c0-.1-.1-.1-.2-.1h-4.2z" style="fill:#0074ff"/></svg>