<?xml version="1.0" encoding="utf-8"?>
<!-- Generator: Adobe Illustrator 25.4.1, SVG Export Plug-In . SVG Version: 6.00 Build 0)  -->
<svg version="1.1" id="Layer_1" xmlns="http://www.w3.org/2000/svg" xmlns:xlink="http://www.w3.org/1999/xlink" x="0px" y="0px"
	 viewBox="0 0 351.6 87.2" style="enable-background:new 0 0 351.6 87.2;" xml:space="preserve">
<style type="text/css">
	.st0{fill:#00EFD8;}
	.st1{fill:#FD3503;}
	.st2{fill:#0074FF;}
	.st3{fill:#FFFFFF;}
	.st4{fill:#FF0000;}
	.st5{fill:#0073FF;}
	.st6{fill:#00F3D7;}
	.st7{enable-background:new    ;}
</style>
<g>
	<path class="st0" d="M39.7,39.9c-12.6,0-24.5,4.8-33.4,13.6c-0.5,0.2-0.5,0.7-0.5,1.2v11.1c0,0.5,0,1,0.5,1.2
		c0.2,0.2,0.7,0.5,1.2,0.5h11.6c0.5,0,0.7-0.2,1.2-0.5c0-0.2,0.2-0.7,0.2-1c0.5-4.8,2.7-9.2,6.1-12.6c3.6-3.1,8.2-5.1,13.1-5.1
		s9.4,1.7,13.1,5.1c3.6,3.1,5.8,7.8,6.1,12.6c0,0.5,0.2,0.7,0.5,1.2c0.2,0,0.7,0.2,1.2,0.2h11.6c0.2,0,0.5,0,0.7-0.2
		c0.2,0,0.5-0.2,0.5-0.2c0-0.2,0.2-0.2,0.2-0.5s0-0.5,0-0.7V54.7c0-0.5-0.2-1-0.5-1.2C64.1,44.8,52.2,39.9,39.7,39.9z"/>
	<path class="st1" d="M8,19.1c-0.1,0-0.4,0-0.6,0.1c-0.1,0.1-0.3,0.1-0.4,0.4C6.8,20,6.8,20,6.8,20.3c0,0.1,0,0.4,0,0.6
		C9.6,28,11,35.8,11,43.3c0,7.7-1.5,15.3-4.2,22.5c0,0.1-0.1,0.3,0,0.6c0,0.1,0.1,0.3,0.1,0.6c0,0.3,0.3,0.3,0.4,0.4
		s0.3,0.1,0.6,0.1h10.2c0.1,0,0.4,0,0.6-0.1c0.1-0.1,0.3-0.1,0.4-0.4c0.1-0.1,0.1-0.3,0.1-0.6c0-0.1,0-0.4-0.1-0.6
		C16.4,58.7,15,50.9,15,43.3c0-7.7,1.5-15.3,4.2-22.5c0-0.1,0.1-0.3,0.1-0.6c0-0.1-0.1-0.3-0.1-0.6c-0.1-0.1-0.3-0.3-0.4-0.4
		s-0.3-0.1-0.6-0.1C18.2,19.1,8,19.1,8,19.1z"/>
	<path class="st2" d="M61.1,19.1c-0.1,0-0.4,0-0.6,0.1c-0.1,0.1-0.3,0.1-0.4,0.4C60,19.9,60,19.9,60,20.2c0,0.1,0,0.4,0,0.6
		c2.8,7.2,4.2,14.9,4.2,22.5c0,7.7-1.5,15.3-4.2,22.5c0,0.1-0.1,0.3,0,0.6c0,0.1,0.1,0.3,0.1,0.6c0,0.3,0.3,0.3,0.4,0.4
		c0.1,0.1,0.3,0.1,0.6,0.1h10.2c0.1,0,0.4,0,0.6-0.1c0.1-0.1,0.3-0.1,0.4-0.4c0.1-0.1,0.1-0.3,0.1-0.6c0-0.1,0-0.4-0.1-0.6
		c-2.8-7.2-4.2-14.9-4.2-22.5c0-7.7,1.5-15.3,4.2-22.5c0-0.1,0.1-0.3,0.1-0.6c0-0.1-0.1-0.3-0.1-0.6c-0.1-0.1-0.3-0.3-0.4-0.4
		s-0.3-0.1-0.6-0.1C71.3,19.1,61.1,19.1,61.1,19.1z"/>
</g>
<g>
	<g>
		<g>
			<polygon class="st3" points="244.3,70.1 243.9,70.1 241.9,62.1 239.5,62.1 237.7,70.1 237.4,70.1 235.2,61.8 233.6,61.8 
				236.3,71.4 236.7,71.4 237.6,71.4 238,71.4 238.6,71.4 239.1,71.4 240.7,63.4 242.7,71.4 243.3,71.4 243.9,71.4 244.3,71.4 
				245.2,71.4 245.5,71.4 247.9,61.8 246.4,61.8 			"/>
			<path class="st3" d="M258.3,63.1c-0.6-0.6-1-0.9-1.6-1.2c-1.3-0.6-3-0.6-4.3,0c-1.2,0.6-2.2,1.6-2.7,2.8
				c-0.1,0.6-0.3,1.2-0.3,1.9V67c0,0.7,0.1,1.2,0.3,1.8c0.1,0.6,0.6,1.2,1,1.6c0.6,0.6,1,0.9,1.6,1.2c1.3,0.6,3.1,0.6,4.5,0
				c1.2-0.6,2.1-1.6,2.7-2.8c0.1-0.6,0.3-1.2,0.3-1.8v-0.3c0-0.7-0.1-1.2-0.3-1.9C259.2,64,258.9,63.4,258.3,63.1z M257.7,68.5
				c-0.3,0.6-0.7,1-1.2,1.2c-1.2,0.7-2.7,0.7-3.9,0c-0.6-0.3-0.9-0.7-1.2-1.2c-0.3-0.6-0.3-1.2-0.3-1.9s0.1-1.2,0.3-1.9
				c0.3-0.6,0.7-1,1.2-1.2c1.2-0.7,2.7-0.7,3.7,0c0.6,0.3,0.9,0.7,1.2,1.2C258.2,65.9,258.2,67.3,257.7,68.5L257.7,68.5z"/>
			<path class="st3" d="M264.7,62.7c-0.6,0.6-0.9,1.2-0.9,2.1v-3h-1.3v9.7h1.8v-5.2c0-0.9,0.1-1.6,0.9-2.2c0.7-0.6,1.3-0.9,2.2-0.7
				h0.7v-1.5h-0.3C266.2,61.8,265.3,62.1,264.7,62.7z"/>
			<path class="st3" d="M282.9,62.1c-0.6-0.3-1.2-0.6-1.9-0.6l0,0c-0.7,0-1.3,0.1-1.9,0.6c-0.6,0.3-0.9,0.9-1.2,1.6
				c0,0.1,0,0.1-0.1,0.3c0-0.1,0-0.1-0.1-0.3c-0.1-0.7-0.6-1.2-1-1.6c-0.6-0.3-1.2-0.6-1.9-0.6l0,0c-1.3-0.1-2.7,0.7-3,2.1
				c0,0.1-0.1,0.3-0.1,0.6v-2.2h-1.3v9.7h1.8v-6c0-0.7,0.1-1.3,0.7-1.9c0.6-0.6,1-0.7,1.8-0.7c0.7,0,1.2,0.1,1.6,0.7
				c0.3,0.6,0.7,1.2,0.6,1.9v6h1.8v-6c0-0.7,0.1-1.3,0.7-1.9c0.6-0.6,1-0.7,1.8-0.7c0.7,0,1.2,0.1,1.6,0.7c0.3,0.6,0.7,1.2,0.6,1.9
				v6h1.8v-5.5c0-0.9-0.1-1.6-0.3-2.4C283.8,63,283.5,62.4,282.9,62.1z"/>
			<path class="st3" d="M292.6,61.6L292.6,61.6c-0.9,0-1.6,0.1-2.1,0.6c-0.6,0.3-0.9,0.9-1,1.3v-5.4h-1.8v13.4h1.8v-5.5
				c0-0.7,0.1-1.3,0.7-2.1c0.6-0.6,1.2-0.9,1.9-0.7c0.7,0,1.2,0.1,1.8,0.7c0.6,0.6,0.7,1.2,0.7,1.9v6h1.8v-5.5
				c0-1.3-0.3-2.7-0.9-3.3C294.6,61.9,293.7,61.6,292.6,61.6z"/>
			<path class="st3" d="M307.6,63.1c-0.6-0.6-1-0.9-1.6-1.2c-1.3-0.6-3-0.6-4.3,0c-1.2,0.6-2.2,1.6-2.7,2.8
				c-0.1,0.6-0.3,1.2-0.3,1.9V67c0,0.7,0.1,1.2,0.3,1.8c0.1,0.6,0.6,1.2,1,1.6c0.6,0.6,1,0.9,1.6,1.2c1.3,0.6,3.1,0.6,4.5,0
				c1.2-0.6,2.1-1.6,2.7-2.8c0.1-0.6,0.3-1.2,0.3-1.8v-0.3c0-0.7-0.1-1.2-0.3-1.9C308.5,64,308.2,63.4,307.6,63.1z M306.9,68.5
				c-0.3,0.6-0.7,1-1.2,1.2c-1.2,0.7-2.7,0.7-3.9,0c-0.6-0.3-0.9-0.7-1.2-1.2c-0.3-0.4-0.3-1.2-0.3-1.9s0.1-1.2,0.3-1.9
				c0.3-0.6,0.7-1,1.2-1.2c1.2-0.7,2.7-0.7,3.7,0c0.6,0.3,0.9,0.7,1.2,1.2C307.4,65.9,307.4,67.3,306.9,68.5L306.9,68.5z"/>
			<polygon class="st3" points="310.4,58.2 310.4,59.7 311.8,59.7 311.8,71.4 313.6,71.4 313.6,59.7 313.6,58.2 311.8,58.2 			"/>
			<path class="st3" d="M325.6,66.2c0-0.9-0.1-1.6-0.6-2.2c-0.3-0.7-0.9-1.3-1.6-1.8c-0.9-0.6-1.8-0.7-2.7-0.7
				c-0.7,0-1.3,0.1-2.1,0.3c-0.6,0.3-1,0.7-1.6,1.2c-0.3,0.6-0.7,1-0.9,1.6c-0.1,0.6-0.3,1.2-0.3,1.9v0.3c0,0.7,0.1,1.2,0.3,1.8
				c0.1,0.6,0.6,1.2,0.9,1.6c0.3,0.6,0.9,0.9,1.6,1.2c0.7,0.3,1.3,0.6,2.2,0.6c0.7,0,1.3-0.1,2.1-0.3c1.2-0.6,2.1-1.6,2.2-2.8h-1.6
				c-0.1,0.6-0.6,0.9-0.9,1.2c-1.2,0.7-2.7,0.7-3.7,0c-0.6-0.3-0.9-0.7-1-1.3c-0.1-0.6-0.3-1-0.3-1.6h7.6L325.6,66.2z M319.2,63.4
				c0.6-0.3,1-0.6,1.8-0.6c0.6,0,1.2,0.1,1.8,0.3c0.6,0.3,0.9,0.7,1,1.2c0.1,0.3,0.1,0.7,0.3,1h-6c0-0.3,0.1-0.7,0.1-0.9
				C318.5,64.1,318.8,63.8,319.2,63.4z"/>
		</g>
		<g>
			<path class="st4" d="M216.4,66.5c0-4.3-1.8-8.5-4.8-11.6c-0.1-0.1-0.3-0.1-0.3-0.1h-3.9c-0.3,0-0.6,0.1-0.6,0.6v4
				c0,0.3,0.1,0.6,0.6,0.6c3.7,0.3,6.4,3.4,6.1,7.1c-0.1,3.3-2.8,6-6.1,6.1c-0.3,0-0.6,0.3-0.6,0.6v4c0,0.3,0.3,0.6,0.6,0.6h3.9
				c0.1,0,0.3,0,0.3-0.1C214.8,75.2,216.4,71,216.4,66.5z"/>
			<path class="st5" d="M230.4,74c0-0.3-0.1-0.6-0.6-0.6c-3.7-0.3-6.4-3.4-6.1-7.1c0.1-3.3,2.8-6,6.1-6.1c0.3,0,0.6-0.3,0.6-0.6v-4
				c0-0.3-0.1-0.6-0.6-0.6H226c-0.1,0-0.3,0-0.3,0.1c-6.3,6.4-6.3,16.8,0,23.4c0.1,0.1,0.3,0.1,0.3,0.1h3.9c0.3,0,0.6-0.1,0.6-0.6
				V74z"/>
			<path class="st6" d="M215.7,52.7c-0.3,0-0.7,0.3-0.7,0.7v0.1c1.6,4.2,2.4,8.5,2.4,13.1s-0.9,8.9-2.4,13.1c-0.1,0.3,0,0.7,0.3,0.9
				h0.1h6c0.3,0,0.7-0.3,0.7-0.7v-0.3c-3.3-8.3-3.3-17.7,0-26.1c0.1-0.3,0-0.7-0.3-0.9h-0.1H215.7z"/>
		</g>
		<g>
			<path class="st3" d="M100,75V61.9h1.3v4.2H101c0-1,0.3-1.9,0.7-2.4c0.3-0.7,0.9-1,1.3-1.3c0.6-0.3,1.2-0.6,1.9-0.6
				s1.3,0.1,1.9,0.3c0.6,0.3,1,0.7,1.3,1c0.3,0.6,0.7,1,0.9,1.6c0.1,0.6,0.3,1.2,0.3,1.9V67c0,0.7-0.1,1.2-0.3,1.9
				c-0.1,0.6-0.6,1-0.9,1.6c-0.3,0.6-0.9,0.9-1.3,1c-0.6,0.1-1.2,0.3-1.9,0.3s-1.3-0.1-1.9-0.6c-0.6-0.3-1-0.7-1.6-1.3
				c-0.3-0.7-0.7-1.6-0.7-2.7l0.7,1.3v6.3L100,75L100,75z M104.7,70.2c0.7,0,1.2-0.1,1.8-0.6c0.6-0.3,0.9-0.7,1-1.2
				c0.1-0.6,0.3-1.2,0.3-1.9c0-0.7-0.1-1.3-0.3-1.9c-0.3-0.6-0.7-0.9-1-1.2c-0.6-0.3-1-0.6-1.8-0.6c-0.6,0-1,0.1-1.6,0.3
				c-0.6,0.1-0.9,0.7-1.2,1c-0.3,0.6-0.6,1-0.6,1.8v0.9c0,0.7,0.1,1.2,0.6,1.8c0.3,0.6,0.7,0.9,1.2,1
				C103.7,70.2,104.2,70.2,104.7,70.2z"/>
			<path class="st3" d="M116.5,71.9c-0.9,0-1.6-0.1-2.2-0.3c-0.7-0.3-1.2-0.7-1.6-1c-0.3-0.6-0.7-1-1-1.6c-0.1-0.6-0.3-1.2-0.3-1.8
				v-0.3c0-0.6,0.1-1.2,0.3-1.8c0.1-0.6,0.6-1,1-1.6c0.4-0.6,1-0.9,1.6-1c0.7-0.3,1.3-0.3,2.1-0.3c0.7,0,1.6,0.1,2.1,0.3
				c0.7,0.3,1.2,0.7,1.6,1c0.6,0.6,0.7,1,1,1.6c0.1,0.6,0.3,1.2,0.3,1.8v0.3c0,0.6-0.1,1.2-0.3,1.8c-0.1,0.6-0.6,1-1,1.6
				c-0.6,0.6-1,0.9-1.6,1C118.2,71.6,117.4,71.9,116.5,71.9z M116.5,70.2c0.7,0,1.3-0.1,1.8-0.6c0.6-0.3,0.9-0.7,1.2-1.2
				c0.3-0.6,0.3-1.2,0.3-1.8c0-0.7-0.1-1.2-0.3-1.8c-0.3-0.6-0.7-0.9-1.2-1.2s-1-0.6-1.8-0.6s-1.2,0.1-1.8,0.6
				c-0.6,0.4-0.9,0.7-1.2,1.2c-0.3,0.6-0.3,1.2-0.3,1.8c0,0.7,0.1,1.2,0.3,1.8c0.3,0.6,0.7,1,1.2,1.2
				C115.3,70.1,115.9,70.2,116.5,70.2z"/>
			<path class="st3" d="M125.6,71.4l-2.7-9.5h1.6l2.7,9.5H125.6z M125.9,71.4v-1.3h1.9v1.3H125.9z M126.8,71.4l1.9-9.2h2.2l2.2,9.2
				h-1.3l-2.2-9.2h0.6l-1.9,9.2H126.8z M132.3,71.4v-1.3h1.9v1.3H132.3z M133,71.4l2.2-9.5h1.6l-2.2,9.5H133z"/>
			<path class="st3" d="M143,71.9c-0.9,0-1.6-0.1-2.1-0.3c-0.6-0.3-1-0.7-1.3-1c-0.3-0.6-0.7-1-0.9-1.6c-0.1-0.6-0.3-1.2-0.3-1.8
				v-0.3c0-0.7,0.1-1.2,0.3-1.8c0.1-0.6,0.6-1,0.9-1.6c0.3-0.6,0.9-0.9,1.3-1c0.6-0.3,1.2-0.3,2.1-0.3c1,0,1.9,0.1,2.7,0.7
				c0.7,0.6,1.2,1,1.6,1.8c0.3,0.7,0.6,1.3,0.6,2.2v0.7h-8.5v-1.3h7.1l-0.3,0.7c0-0.7-0.1-1.2-0.3-1.8c-0.1-0.6-0.6-0.9-1-1.2
				c-0.3-0.3-1-0.3-1.6-0.3c-0.7,0-1.2,0.1-1.8,0.6c-0.6,0.3-0.7,0.7-1,1.2c-0.1,0.6-0.3,1.2-0.3,1.9s0.1,1.2,0.3,1.8
				c0.1,0.6,0.6,1,1,1.2c0.6,0.3,1,0.6,1.8,0.6c0.7,0,1.3-0.1,1.8-0.6c0.6-0.3,0.7-0.7,0.9-1.2h1.6c-0.1,0.7-0.3,1.2-0.9,1.8
				c-0.3,0.6-0.9,0.9-1.3,1C144.4,71.6,143.8,71.9,143,71.9z"/>
			<path class="st3" d="M150,71.4v-9.5h1.3v4l0,0c0-1.3,0.3-2.4,0.9-3.1c0.7-0.7,1.6-1,2.8-1h0.3v1.5h-0.4c-0.9,0-1.8,0.1-2.2,0.7
				c-0.6,0.6-0.7,1.2-0.7,2.2v5.2H150z"/>
			<path class="st3" d="M161.2,71.9c-0.9,0-1.6-0.1-2.1-0.3c-0.6-0.3-1-0.7-1.3-1c-0.3-0.6-0.7-1-0.9-1.6c-0.1-0.6-0.3-1.2-0.3-1.8
				v-0.3c0-0.7,0.1-1.2,0.3-1.8c0.1-0.6,0.6-1,0.9-1.6c0.3-0.6,0.9-0.9,1.3-1c0.6-0.3,1.2-0.3,2.1-0.3c1,0,1.9,0.1,2.7,0.7
				c0.7,0.6,1.2,1,1.6,1.8c0.3,0.7,0.6,1.3,0.6,2.2v0.7h-8.5v-1.3h7.1l-0.3,0.7c0-0.7-0.1-1.2-0.3-1.8c-0.1-0.6-0.6-0.9-1-1.2
				c-0.3-0.3-1-0.3-1.6-0.3c-0.7,0-1.2,0.1-1.8,0.6c-0.6,0.3-0.7,0.7-1,1.2c-0.1,0.6-0.3,1.2-0.3,1.9s0.1,1.2,0.3,1.8
				c0.1,0.6,0.6,1,1,1.2c0.6,0.3,1,0.6,1.8,0.6c0.7,0,1.3-0.1,1.8-0.6c0.6-0.3,0.7-0.7,0.9-1.2h1.6c-0.1,0.7-0.3,1.2-0.7,1.8
				c-0.3,0.6-0.9,0.9-1.3,1C162.5,71.6,161.8,71.9,161.2,71.9z"/>
			<path class="st3" d="M171.9,71.9c-0.7,0-1.2-0.1-1.9-0.3c-0.6-0.1-1-0.6-1.6-1c-0.3-0.6-0.7-1-1-1.6c-0.1-0.6-0.3-1.2-0.3-1.9
				v-0.3c0-0.7,0.1-1.3,0.3-1.9c0.1-0.6,0.6-1,0.9-1.6c0.3-0.6,0.9-0.9,1.3-1c0.6-0.1,1.2-0.3,1.9-0.3c0.7,0,1.3,0.1,1.9,0.6
				c0.6,0.3,1,0.7,1.3,1.3c0.3,0.7,0.6,1.3,0.7,2.4l-0.7-1.2v-6.4h1.8v13.1h-1.3v-4.2h0.6c0,1-0.3,1.9-0.7,2.7
				c-0.3,0.7-0.9,1.2-1.6,1.3C173.4,71.6,172.7,71.9,171.9,71.9z M172.4,70.2c0.6,0,1-0.1,1.6-0.3c0.6-0.1,0.9-0.7,1.2-1.2
				c0.3-0.6,0.3-1,0.3-1.8v-0.9c0-0.7-0.1-1.2-0.6-1.8c-0.3-0.6-0.7-0.9-1.2-1c-0.6-0.1-1-0.3-1.6-0.3c-0.7,0-1.2,0.1-1.8,0.6
				c-0.6,0.3-0.9,0.7-1,1.2c-0.3,0.6-0.3,1.2-0.3,1.9c0,0.7,0.1,1.3,0.3,1.9c0.3,0.6,0.7,0.9,1.2,1.2
				C170.9,70.1,171.6,70.2,172.4,70.2z"/>
			<path class="st3" d="M189.3,71.9c-0.9,0-1.6-0.1-2.1-0.6c-0.7-0.3-1-0.9-1.3-1.6s-0.6-1.3-0.6-2.4h0.6v4h-1.3V58.2h1.8v6.3
				l-0.6,1.2c0-1,0.1-1.9,0.7-2.7c0.3-0.7,0.9-1.2,1.3-1.3c0.6-0.3,1.2-0.6,1.9-0.6s1.2,0.1,1.9,0.3c0.7,0.1,1,0.6,1.3,1
				c0.3,0.6,0.7,1,0.9,1.6c0.1,0.6,0.3,1.2,0.3,1.9v0.3c0,0.7-0.1,1.3-0.3,1.9c-0.1,0.6-0.6,1-0.9,1.6c-0.3,0.6-0.9,0.9-1.6,1
				C190.8,71.6,190.1,71.9,189.3,71.9z M189.2,70.2c0.7,0,1.2-0.1,1.8-0.6c0.6-0.3,0.9-0.7,1-1.2c0.3-0.6,0.3-1.2,0.3-1.9
				c0-0.7-0.1-1.3-0.3-1.9c-0.3-0.6-0.7-0.9-1-1.2c-0.6-0.3-1-0.6-1.8-0.6c-0.6,0-1,0.1-1.6,0.3c-0.6,0.1-0.9,0.7-1.2,1
				c-0.3,0.6-0.6,1-0.6,1.8v0.9c0,0.7,0.1,1.2,0.6,1.8c0.3,0.6,0.7,0.9,1.2,1C188.2,70.2,188.7,70.2,189.2,70.2z"/>
			<path class="st3" d="M198.6,71.3l-3.4-9.2h1.8l3.3,9.2H198.6z M195.9,75.2v-1.6h1.3c0.3,0,0.7,0,1-0.1s0.6-0.3,0.7-0.6
				c0.1-0.1,0.3-0.6,0.6-0.9l3-10.1h1.8l-3.1,10.4c-0.1,0.7-0.6,1.2-0.9,1.6c-0.3,0.3-0.7,0.7-1.2,0.9c-0.6,0.1-1,0.3-1.8,0.3
				C197.2,75.2,195.9,75.2,195.9,75.2z M198.7,71.3V70h2.1v1.3H198.7z"/>
		</g>
	</g>
	<g class="st7">
		<path class="st3" d="M112.6,38.6c-0.4,1-1,1.8-1.7,2.5c-0.8,0.7-1.5,1.3-2.6,1.7c-1,0.4-2,0.7-3.2,0.7c-1.1,0-2-0.2-2.9-0.6
			c-1-0.4-1.7-0.9-2.4-1.4c-0.7,0.6-1.5,1.2-2.4,1.4c-1,0.4-1.9,0.6-2.9,0.6c-1.1,0-2.1-0.2-3.2-0.7c-1-0.4-1.8-1-2.6-1.7
			c-0.8-0.7-1.3-1.5-1.7-2.5c-0.4-1-0.7-2-0.7-3.1V17.1c0-0.3,0.1-0.6,0.3-0.8c0.2-0.2,0.5-0.3,0.8-0.3h3.2c0.3,0,0.6,0.1,0.8,0.3
			c0.2,0.2,0.3,0.5,0.3,0.8v18.5c0,0.9,0.3,1.6,0.8,2.2c0.6,0.6,1.2,0.9,1.9,0.9c0.8,0,1.3-0.3,1.9-0.9s0.8-1.3,0.8-2.2v-2.6
			c0-0.3,0.1-0.6,0.3-0.8c0.2-0.2,0.5-0.3,0.8-0.3h3.4c0.3,0,0.6,0.1,0.8,0.3c0.2,0.2,0.3,0.5,0.3,0.8v2.6c0,0.9,0.3,1.6,0.8,2.2
			c0.6,0.6,1.2,0.9,1.9,0.9c0.8,0,1.4-0.3,1.9-0.9c0.6-0.6,0.8-1.3,0.8-2.2V17.1c0-0.3,0.1-0.6,0.3-0.8c0.2-0.2,0.5-0.3,0.8-0.3h3.2
			c0.3,0,0.6,0.1,0.8,0.3c0.2,0.2,0.3,0.5,0.3,0.8v18.5C113.2,36.7,113,37.7,112.6,38.6z"/>
		<path class="st3" d="M150.9,35.1c0,1.2-0.2,2.1-0.7,3.1c-0.4,1-1,1.8-1.7,2.5c-0.8,0.7-1.5,1.3-2.6,1.6c-1,0.4-2,0.7-3.2,0.7
			h-10.8c-1.2,0-2.1-0.2-3.2-0.7c-1-0.4-1.8-1-2.6-1.6c-0.8-0.7-1.3-1.5-1.7-2.5c-0.4-1-0.7-2-0.7-3.1V23.9c0-1.1,0.2-2.1,0.7-3.1
			c0.4-1,1.1-1.8,1.7-2.5c0.8-0.7,1.5-1.3,2.6-1.6c1-0.4,2-0.7,3.1-0.7h10.8c1.2,0,2.1,0.2,3.1,0.7c1,0.4,1.8,1,2.6,1.6
			s1.3,1.5,1.7,2.5c0.4,1,0.7,2,0.7,3.1V24v11.1H150.9z M145.5,24c0-0.9-0.3-1.6-0.8-2.2c-0.5-0.6-1.2-0.9-1.9-0.9H132
			c-0.8,0-1.3,0.3-1.9,0.9c-0.5,0.6-0.8,1.3-0.8,2.2v11.1c0,0.9,0.3,1.6,0.8,2.2c0.5,0.6,1.2,0.9,1.9,0.9h10.8
			c0.8,0,1.3-0.3,1.9-0.9c0.5-0.6,0.8-1.3,0.8-2.2V24z"/>
		<path class="st3" d="M189.4,29.1c-0.2,0.2-0.5,0.3-0.8,0.3h-3.2c-0.3,0-0.6-0.1-0.8-0.3c-0.2-0.2-0.3-0.5-0.3-0.8v-4.4
			c0-0.9-0.3-1.6-0.8-2.2c-0.5-0.6-1.2-0.9-1.9-0.9h-10.8c-0.8,0-1.3,0.3-1.9,0.9c-0.5,0.6-0.8,1.3-0.8,2.2v17.9
			c0,0.3-0.1,0.6-0.3,0.8c-0.2,0.2-0.5,0.3-0.8,0.3H164c-0.3,0-0.6-0.1-0.8-0.3c-0.2-0.2-0.3-0.5-0.3-0.8V24c0-1.1,0.2-2.1,0.7-3.1
			c0.4-1,1-1.8,1.7-2.5c0.8-0.7,1.5-1.3,2.6-1.7c1-0.4,2-0.7,3.2-0.7h10.8c1.2,0,2.1,0.2,3.2,0.6c1,0.4,1.8,1,2.6,1.7
			c0.8,0.8,1.3,1.5,1.7,2.5c0.4,1,0.7,2,0.7,3.1v4.4C189.8,28.7,189.7,28.9,189.4,29.1z"/>
		<path class="st3" d="M225.9,42.6c-0.2,0.2-0.5,0.3-0.8,0.3H222c-0.3,0-0.6-0.1-0.8-0.3c-0.2-0.2-0.3-0.5-0.3-0.8V23.5
			c0-0.9-0.3-1.6-0.8-2.2c-0.6-0.6-1.2-0.9-1.9-0.9s-1.4,0.3-1.9,0.9c-0.6,0.6-0.8,1.3-0.8,2.2v7.6c0,0.3-0.1,0.6-0.3,0.8
			c-0.2,0.2-0.5,0.3-0.8,0.3h-3.2c-0.3,0-0.6-0.1-0.8-0.3c-0.2-0.2-0.3-0.5-0.3-0.8v-7.6c0-0.9-0.3-1.6-0.8-2.2
			c-0.6-0.6-1.2-0.9-1.9-0.9s-1.3,0.3-1.9,0.9c-0.6,0.6-0.8,1.3-0.8,2.2v18.4c0,0.3-0.1,0.6-0.3,0.8c-0.2,0.2-0.5,0.3-0.8,0.3h-3.3
			c-0.3,0-0.6-0.1-0.8-0.3c-0.2-0.2-0.3-0.5-0.3-0.8V23.5c0-1.1,0.2-2.1,0.7-3.1c0.4-1,1-1.8,1.7-2.5c0.8-0.7,1.5-1.3,2.5-1.7
			c1-0.4,2-0.7,3.1-0.7c1.1,0,2,0.2,2.9,0.6c1,0.4,1.7,0.9,2.4,1.4c0.7-0.6,1.5-1.2,2.4-1.4c1-0.4,1.9-0.6,2.9-0.6
			c1.1,0,2.1,0.2,3.1,0.7c1,0.4,1.8,1,2.5,1.7s1.3,1.5,1.7,2.5c0.4,1,0.7,2,0.7,3.1v18.4C226.2,42.1,226.1,42.4,225.9,42.6z"/>
		<path class="st3" d="M254.3,42.6c-0.2,0.2-0.5,0.3-0.8,0.3h-6.1c-0.3,0-0.6-0.1-0.8-0.3c-0.2-0.2-0.3-0.5-0.3-0.8v-2.7
			c0-0.3,0.1-0.6,0.3-0.8c0.2-0.2,0.5-0.3,0.8-0.3h6.1c0.3,0,0.6,0.1,0.8,0.3c0.2,0.2,0.3,0.5,0.3,0.8v2.7
			C254.6,42.1,254.5,42.4,254.3,42.6z"/>
		<path class="st3" d="M301.4,38c-0.4,1-1,1.8-1.7,2.5c-0.8,0.7-1.5,1.3-2.6,1.7c-1,0.4-2,0.7-3.2,0.7h-7.6c-1.1,0-2.1-0.2-3.1-0.7
			c-1-0.4-1.8-1-2.5-1.7c-0.8-0.7-1.3-1.5-1.7-2.5c-0.4-1-0.7-2-0.7-3.1V24.9h-2.8c-0.3,0-0.6-0.1-0.8-0.3s-0.3-0.5-0.3-0.8v-2.7
			c0-0.3,0.1-0.6,0.3-0.8c0.2-0.2,0.5-0.3,0.8-0.3h2.8v-2.9c0-0.3,0.1-0.6,0.3-0.8c0.2-0.2,0.5-0.3,0.8-0.3h3.2
			c0.3,0,0.6,0.1,0.8,0.3c0.2,0.2,0.3,0.5,0.3,0.8V20h17.3c0.3,0,0.6,0.1,0.8,0.3c0.2,0.2,0.3,0.5,0.3,0.8v2.7
			c0,0.3-0.1,0.6-0.3,0.8c-0.2,0.2-0.5,0.3-0.8,0.3h-17.3v10.2c0,0.9,0.3,1.6,0.8,2.2s1.2,0.9,1.9,0.9h7.6c0.8,0,1.4-0.3,1.9-0.9
			c0.5-0.6,0.8-1.3,0.8-2.2v-1.6c0-0.3,0.1-0.6,0.3-0.8s0.5-0.3,0.8-0.3h3.2c0.3,0,0.6,0.1,0.8,0.3c0.2,0.2,0.3,0.5,0.3,0.8v1.6
			C301.9,36.1,301.8,37.1,301.4,38z"/>
		<path class="st3" d="M339.3,35.1c0,1.2-0.2,2.1-0.7,3.1c-0.4,1-1,1.8-1.7,2.5c-0.8,0.7-1.5,1.3-2.6,1.6c-1,0.4-2,0.7-3.2,0.7
			h-10.8c-1.2,0-2.1-0.2-3.2-0.7c-1-0.4-1.8-1-2.6-1.6c-0.8-0.7-1.3-1.5-1.7-2.5c-0.4-1-0.7-2-0.7-3.1V23.9c0-1.1,0.2-2.1,0.7-3.1
			c0.4-1,1.1-1.8,1.7-2.5c0.8-0.7,1.5-1.3,2.6-1.6c1-0.4,2-0.7,3.1-0.7H331c1.2,0,2.1,0.2,3.1,0.7c1,0.4,1.8,1,2.6,1.6
			c0.8,0.7,1.3,1.5,1.7,2.5c0.4,1,0.7,2,0.7,3.1V24v11.1H339.3z M333.9,24c0-0.9-0.3-1.6-0.8-2.2c-0.5-0.6-1.2-0.9-1.9-0.9h-10.8
			c-0.8,0-1.3,0.3-1.9,0.9c-0.5,0.6-0.8,1.3-0.8,2.2v11.1c0,0.9,0.3,1.6,0.8,2.2c0.5,0.6,1.2,0.9,1.9,0.9h10.8
			c0.8,0,1.3-0.3,1.9-0.9c0.5-0.6,0.8-1.3,0.8-2.2V24z"/>
	</g>
</g>
</svg>
