<?xml version="1.0" encoding="utf-8"?>
<!-- Generator: Adobe Illustrator 25.2.1, SVG Export Plug-In . SVG Version: 6.00 Build 0)  -->
<svg version="1.1" id="Layer_1" xmlns="http://www.w3.org/2000/svg" xmlns:xlink="http://www.w3.org/1999/xlink" x="0px" y="0px"
	 viewBox="0 0 34 34" style="enable-background:new 0 0 34 34;" xml:space="preserve">
<style type="text/css">
	.st0{clip-path:url(#SVGID_2_);}
	.st1{fill:#FD3503;}
	.st2{fill:#0074FF;}
	.st3{fill:#00EFD8;}
</style>
<g>
	<defs>
		<rect id="SVGID_1_" x="3" y="0.5" width="178" height="33"/>
	</defs>
	<clipPath id="SVGID_2_">
		<use xlink:href="#SVGID_1_"  style="overflow:visible;"/>
	</clipPath>
	<g class="st0">
		<path class="st1" d="M14.4,17c0-5.2-2-10.1-5.6-13.8C8.7,3,8.5,3,8.3,3H3.7C3.5,3,3.3,3,3.2,3.2C3.1,3.3,3,3.5,3,3.7v4.8
			c0,0.2,0.1,0.3,0.2,0.5C3.3,9,3.5,9.1,3.6,9.1c2,0.2,3.8,1.1,5.2,2.5c1.3,1.5,2.1,3.4,2.1,5.4c0,2-0.7,3.9-2.1,5.4
			c-1.3,1.5-3.2,2.4-5.2,2.5c-0.2,0-0.3,0.1-0.5,0.2C3.1,25.2,3,25.4,3,25.6v4.8c0,0.1,0,0.2,0.1,0.3c0,0.1,0.1,0.2,0.1,0.2
			C3.3,30.9,3.3,31,3.4,31S3.6,31,3.7,31h4.6c0.2,0,0.4-0.1,0.5-0.2C12.4,27.1,14.4,22.2,14.4,17z"/>
		<path class="st2" d="M31,25.6c0-0.2-0.1-0.3-0.2-0.5c-0.1-0.1-0.3-0.2-0.5-0.2c-2-0.2-3.8-1.1-5.2-2.5c-1.3-1.5-2.1-3.4-2.1-5.4
			c0-2,0.7-3.9,2.1-5.4c1.3-1.5,3.2-2.4,5.2-2.5c0.2,0,0.3-0.1,0.5-0.2C30.9,8.8,31,8.6,31,8.4V3.7c0-0.2-0.1-0.4-0.2-0.5
			C30.7,3,30.5,3,30.3,3h-4.6c-0.2,0-0.4,0.1-0.5,0.2c-3.6,3.7-5.6,8.7-5.6,13.8c0,5.2,2,10.1,5.6,13.8c0.1,0.1,0.3,0.2,0.5,0.2h4.6
			c0.2,0,0.4-0.1,0.5-0.2c0.1-0.1,0.2-0.3,0.2-0.5V25.6z"/>
		<path class="st3" d="M13.5,0.5c-0.1,0-0.3,0-0.4,0.1c-0.1,0.1-0.2,0.1-0.3,0.3s-0.1,0.2-0.1,0.4c0,0.1,0,0.3,0,0.4
			c1.9,4.9,2.9,10.2,2.9,15.4c0,5.3-1,10.5-2.9,15.4c0,0.1-0.1,0.2,0,0.4c0,0.1,0.1,0.2,0.1,0.4s0.2,0.2,0.3,0.3
			c0.1,0.1,0.2,0.1,0.4,0.1h7c0.1,0,0.3,0,0.4-0.1c0.1-0.1,0.2-0.1,0.3-0.3c0.1-0.1,0.1-0.2,0.1-0.4c0-0.1,0-0.3-0.1-0.4
			c-1.9-4.9-2.9-10.2-2.9-15.4c0-5.3,1-10.5,2.9-15.4c0-0.1,0.1-0.2,0.1-0.4c0-0.1-0.1-0.2-0.1-0.4c-0.1-0.1-0.2-0.2-0.3-0.3
			s-0.2-0.1-0.4-0.1H13.5z"/>
	</g>
</g>
</svg>
