<?xml version="1.0" encoding="utf-8"?>
<!-- Generator: Adobe Illustrator 25.4.1, SVG Export Plug-In . SVG Version: 6.00 Build 0)  -->
<svg version="1.1" id="Layer_1" xmlns="http://www.w3.org/2000/svg" xmlns:xlink="http://www.w3.org/1999/xlink" x="0px" y="0px"
	 viewBox="0 0 351.6 87.2" style="enable-background:new 0 0 351.6 87.2;" xml:space="preserve">
<style type="text/css">
	.st0{fill:#00EFD8;}
	.st1{fill:#FD3503;}
	.st2{fill:#0074FF;}
	.st3{enable-background:new    ;}
	.st4{fill:#FFFFFF;}
	.st5{fill:#FF0000;}
	.st6{fill:#0073FF;}
	.st7{fill:#00F3D7;}
</style>
<g>
	<path class="st0" d="M39.7,39.9c-12.6,0-24.5,4.8-33.4,13.6c-0.5,0.2-0.5,0.7-0.5,1.2v11.1c0,0.5,0,1,0.5,1.2
		c0.2,0.2,0.7,0.5,1.2,0.5h11.6c0.5,0,0.7-0.2,1.2-0.5c0-0.2,0.2-0.7,0.2-1c0.5-4.8,2.7-9.2,6.1-12.6c3.6-3.1,8.2-5.1,13.1-5.1
		s9.4,1.7,13.1,5.1c3.6,3.1,5.8,7.8,6.1,12.6c0,0.5,0.2,0.7,0.5,1.2c0.2,0,0.7,0.2,1.2,0.2h11.6c0.2,0,0.5,0,0.7-0.2
		c0.2,0,0.5-0.2,0.5-0.2c0-0.2,0.2-0.2,0.2-0.5s0-0.5,0-0.7V54.7c0-0.5-0.2-1-0.5-1.2C64.1,44.8,52.2,39.9,39.7,39.9z"/>
	<path class="st1" d="M8,19.1c-0.1,0-0.4,0-0.6,0.1c-0.1,0.1-0.3,0.1-0.4,0.4C6.8,20,6.8,20,6.8,20.3c0,0.1,0,0.4,0,0.6
		C9.6,28,11,35.8,11,43.3c0,7.7-1.5,15.3-4.2,22.5c0,0.1-0.1,0.3,0,0.6c0,0.1,0.1,0.3,0.1,0.6c0,0.3,0.3,0.3,0.4,0.4
		s0.3,0.1,0.6,0.1h10.2c0.1,0,0.4,0,0.6-0.1c0.1-0.1,0.3-0.1,0.4-0.4c0.1-0.1,0.1-0.3,0.1-0.6c0-0.1,0-0.4-0.1-0.6
		C16.4,58.7,15,50.9,15,43.3c0-7.7,1.5-15.3,4.2-22.5c0-0.1,0.1-0.3,0.1-0.6c0-0.1-0.1-0.3-0.1-0.6c-0.1-0.1-0.3-0.3-0.4-0.4
		s-0.3-0.1-0.6-0.1C18.2,19.1,8,19.1,8,19.1z"/>
	<path class="st2" d="M61.1,19.1c-0.1,0-0.4,0-0.6,0.1c-0.1,0.1-0.3,0.1-0.4,0.4C60,19.9,60,19.9,60,20.2c0,0.1,0,0.4,0,0.6
		c2.8,7.2,4.2,14.9,4.2,22.5c0,7.7-1.5,15.3-4.2,22.5c0,0.1-0.1,0.3,0,0.6c0,0.1,0.1,0.3,0.1,0.6c0,0.3,0.3,0.3,0.4,0.4
		c0.1,0.1,0.3,0.1,0.6,0.1h10.2c0.1,0,0.4,0,0.6-0.1c0.1-0.1,0.3-0.1,0.4-0.4c0.1-0.1,0.1-0.3,0.1-0.6c0-0.1,0-0.4-0.1-0.6
		c-2.8-7.2-4.2-14.9-4.2-22.5c0-7.7,1.5-15.3,4.2-22.5c0-0.1,0.1-0.3,0.1-0.6c0-0.1-0.1-0.3-0.1-0.6c-0.1-0.1-0.3-0.3-0.4-0.4
		s-0.3-0.1-0.6-0.1C71.3,19.1,61.1,19.1,61.1,19.1z"/>
</g>
<g>
	<g class="st3">
		<path class="st4" d="M112.6,38.6c-0.4,1-1,1.8-1.7,2.5c-0.8,0.7-1.5,1.3-2.6,1.7c-1,0.4-2,0.7-3.2,0.7c-1.1,0-2-0.2-2.9-0.6
			c-1-0.4-1.7-0.9-2.4-1.4c-0.7,0.6-1.5,1.2-2.4,1.4c-1,0.4-1.9,0.6-2.9,0.6c-1.1,0-2.1-0.2-3.2-0.7c-1-0.4-1.8-1-2.6-1.7
			c-0.8-0.7-1.3-1.5-1.7-2.5c-0.4-1-0.7-2-0.7-3.1V17.1c0-0.3,0.1-0.6,0.3-0.8c0.2-0.2,0.5-0.3,0.8-0.3h3.2c0.3,0,0.6,0.1,0.8,0.3
			c0.2,0.2,0.3,0.5,0.3,0.8v18.5c0,0.9,0.3,1.6,0.8,2.2c0.6,0.6,1.2,0.9,1.9,0.9c0.8,0,1.3-0.3,1.9-0.9s0.8-1.3,0.8-2.2V33
			c0-0.3,0.1-0.6,0.3-0.8c0.2-0.2,0.5-0.3,0.8-0.3h3.4c0.3,0,0.6,0.1,0.8,0.3c0.2,0.2,0.3,0.5,0.3,0.8v2.6c0,0.9,0.3,1.6,0.8,2.2
			c0.6,0.6,1.2,0.9,1.9,0.9c0.8,0,1.4-0.3,1.9-0.9c0.6-0.6,0.8-1.3,0.8-2.2V17.1c0-0.3,0.1-0.6,0.3-0.8c0.2-0.2,0.5-0.3,0.8-0.3h3.2
			c0.3,0,0.6,0.1,0.8,0.3c0.2,0.2,0.3,0.5,0.3,0.8v18.5C113.2,36.7,113,37.7,112.6,38.6z"/>
		<path class="st4" d="M150.9,35.1c0,1.2-0.2,2.1-0.7,3.1c-0.4,1-1,1.8-1.7,2.5c-0.8,0.7-1.5,1.3-2.6,1.6c-1,0.4-2,0.7-3.2,0.7
			h-10.8c-1.2,0-2.1-0.2-3.2-0.7c-1-0.4-1.8-1-2.6-1.6c-0.8-0.7-1.3-1.5-1.7-2.5c-0.4-1-0.7-2-0.7-3.1V23.9c0-1.1,0.2-2.1,0.7-3.1
			c0.4-1,1.1-1.8,1.7-2.5c0.8-0.7,1.5-1.3,2.6-1.6c1-0.4,2-0.7,3.1-0.7h10.8c1.2,0,2.1,0.2,3.1,0.7c1,0.4,1.8,1,2.6,1.6
			s1.3,1.5,1.7,2.5s0.7,2,0.7,3.1V24v11.1H150.9z M145.5,24c0-0.9-0.3-1.6-0.8-2.2s-1.2-0.9-1.9-0.9H132c-0.8,0-1.3,0.3-1.9,0.9
			c-0.5,0.6-0.8,1.3-0.8,2.2v11.1c0,0.9,0.3,1.6,0.8,2.2c0.5,0.6,1.2,0.9,1.9,0.9h10.8c0.8,0,1.3-0.3,1.9-0.9
			c0.5-0.6,0.8-1.3,0.8-2.2V24z"/>
		<path class="st4" d="M189.4,29.1c-0.2,0.2-0.5,0.3-0.8,0.3h-3.2c-0.3,0-0.6-0.1-0.8-0.3c-0.2-0.2-0.3-0.5-0.3-0.8v-4.4
			c0-0.9-0.3-1.6-0.8-2.2s-1.2-0.9-1.9-0.9h-10.8c-0.8,0-1.3,0.3-1.9,0.9c-0.5,0.6-0.8,1.3-0.8,2.2v17.9c0,0.3-0.1,0.6-0.3,0.8
			s-0.5,0.3-0.8,0.3h-3c-0.3,0-0.6-0.1-0.8-0.3s-0.3-0.5-0.3-0.8V24c0-1.1,0.2-2.1,0.7-3.1c0.4-1,1-1.8,1.7-2.5
			c0.8-0.7,1.5-1.3,2.6-1.7c1-0.4,2-0.7,3.2-0.7h10.8c1.2,0,2.1,0.2,3.2,0.6c1,0.4,1.8,1,2.6,1.7c0.8,0.8,1.3,1.5,1.7,2.5
			s0.7,2,0.7,3.1v4.4C189.8,28.7,189.7,28.9,189.4,29.1z"/>
		<path class="st4" d="M225.9,42.6c-0.2,0.2-0.5,0.3-0.8,0.3H222c-0.3,0-0.6-0.1-0.8-0.3s-0.3-0.5-0.3-0.8V23.5
			c0-0.9-0.3-1.6-0.8-2.2c-0.6-0.6-1.2-0.9-1.9-0.9s-1.4,0.3-1.9,0.9c-0.6,0.6-0.8,1.3-0.8,2.2v7.6c0,0.3-0.1,0.6-0.3,0.8
			s-0.5,0.3-0.8,0.3h-3.2c-0.3,0-0.6-0.1-0.8-0.3s-0.3-0.5-0.3-0.8v-7.6c0-0.9-0.3-1.6-0.8-2.2c-0.6-0.6-1.2-0.9-1.9-0.9
			s-1.3,0.3-1.9,0.9c-0.6,0.6-0.8,1.3-0.8,2.2v18.4c0,0.3-0.1,0.6-0.3,0.8s-0.5,0.3-0.8,0.3h-3.3c-0.3,0-0.6-0.1-0.8-0.3
			s-0.3-0.5-0.3-0.8V23.5c0-1.1,0.2-2.1,0.7-3.1c0.4-1,1-1.8,1.7-2.5c0.8-0.7,1.5-1.3,2.5-1.7c1-0.4,2-0.7,3.1-0.7s2,0.2,2.9,0.6
			c1,0.4,1.7,0.9,2.4,1.4c0.7-0.6,1.5-1.2,2.4-1.4c1-0.4,1.9-0.6,2.9-0.6c1.1,0,2.1,0.2,3.1,0.7c1,0.4,1.8,1,2.5,1.7
			s1.3,1.5,1.7,2.5s0.7,2,0.7,3.1v18.4C226.2,42.1,226.1,42.4,225.9,42.6z"/>
		<path class="st4" d="M254.3,42.6c-0.2,0.2-0.5,0.3-0.8,0.3h-6.1c-0.3,0-0.6-0.1-0.8-0.3s-0.3-0.5-0.3-0.8v-2.7
			c0-0.3,0.1-0.6,0.3-0.8s0.5-0.3,0.8-0.3h6.1c0.3,0,0.6,0.1,0.8,0.3s0.3,0.5,0.3,0.8v2.7C254.6,42.1,254.5,42.4,254.3,42.6z"/>
		<path class="st4" d="M301.4,38c-0.4,1-1,1.8-1.7,2.5c-0.8,0.7-1.5,1.3-2.6,1.7c-1,0.4-2,0.7-3.2,0.7h-7.6c-1.1,0-2.1-0.2-3.1-0.7
			c-1-0.4-1.8-1-2.5-1.7c-0.8-0.7-1.3-1.5-1.7-2.5c-0.4-1-0.7-2-0.7-3.1v-10h-2.8c-0.3,0-0.6-0.1-0.8-0.3s-0.3-0.5-0.3-0.8v-2.7
			c0-0.3,0.1-0.6,0.3-0.8c0.2-0.2,0.5-0.3,0.8-0.3h2.8v-2.9c0-0.3,0.1-0.6,0.3-0.8c0.2-0.2,0.5-0.3,0.8-0.3h3.2
			c0.3,0,0.6,0.1,0.8,0.3c0.2,0.2,0.3,0.5,0.3,0.8V20H301c0.3,0,0.6,0.1,0.8,0.3c0.2,0.2,0.3,0.5,0.3,0.8v2.7c0,0.3-0.1,0.6-0.3,0.8
			c-0.2,0.2-0.5,0.3-0.8,0.3h-17.3v10.2c0,0.9,0.3,1.6,0.8,2.2s1.2,0.9,1.9,0.9h7.6c0.8,0,1.4-0.3,1.9-0.9c0.5-0.6,0.8-1.3,0.8-2.2
			v-1.6c0-0.3,0.1-0.6,0.3-0.8s0.5-0.3,0.8-0.3h3.2c0.3,0,0.6,0.1,0.8,0.3c0.2,0.2,0.3,0.5,0.3,0.8v1.6
			C301.9,36.1,301.8,37.1,301.4,38z"/>
		<path class="st4" d="M339.3,35.1c0,1.2-0.2,2.1-0.7,3.1c-0.4,1-1,1.8-1.7,2.5c-0.8,0.7-1.5,1.3-2.6,1.6c-1,0.4-2,0.7-3.2,0.7
			h-10.8c-1.2,0-2.1-0.2-3.2-0.7c-1-0.4-1.8-1-2.6-1.6c-0.8-0.7-1.3-1.5-1.7-2.5c-0.4-1-0.7-2-0.7-3.1V23.9c0-1.1,0.2-2.1,0.7-3.1
			c0.4-1,1.1-1.8,1.7-2.5c0.8-0.7,1.5-1.3,2.6-1.6c1-0.4,2-0.7,3.1-0.7H331c1.2,0,2.1,0.2,3.1,0.7c1,0.4,1.8,1,2.6,1.6
			c0.8,0.7,1.3,1.5,1.7,2.5c0.4,1,0.7,2,0.7,3.1V24v11.1H339.3z M333.9,24c0-0.9-0.3-1.6-0.8-2.2s-1.2-0.9-1.9-0.9h-10.8
			c-0.8,0-1.3,0.3-1.9,0.9c-0.5,0.6-0.8,1.3-0.8,2.2v11.1c0,0.9,0.3,1.6,0.8,2.2c0.5,0.6,1.2,0.9,1.9,0.9h10.8
			c0.8,0,1.3-0.3,1.9-0.9c0.5-0.6,0.8-1.3,0.8-2.2V24z"/>
	</g>
	<g>
		<g>
			<g>
				<polygon class="st4" points="227.9,70.1 227.5,70.1 225.5,62.1 223.1,62.1 221.3,70.1 221,70.1 218.8,61.8 217.2,61.8 
					219.9,71.4 220.3,71.4 221.2,71.4 221.6,71.4 222.2,71.4 222.7,71.4 224.3,63.4 226.3,71.4 226.9,71.4 227.5,71.4 227.9,71.4 
					228.8,71.4 229.1,71.4 231.5,61.8 230,61.8 				"/>
				<path class="st4" d="M241.9,63.1c-0.6-0.6-1-0.9-1.6-1.2c-1.3-0.6-3-0.6-4.3,0c-1.2,0.6-2.2,1.6-2.7,2.8
					c-0.1,0.6-0.3,1.2-0.3,1.9V67c0,0.7,0.1,1.2,0.3,1.8c0.1,0.6,0.6,1.2,1,1.6c0.6,0.6,1,0.9,1.6,1.2c1.3,0.6,3.1,0.6,4.5,0
					c1.2-0.6,2.1-1.6,2.7-2.8c0.1-0.6,0.3-1.2,0.3-1.8v-0.3c0-0.7-0.1-1.2-0.3-1.9C242.8,64,242.5,63.4,241.9,63.1z M241.3,68.5
					c-0.3,0.6-0.7,1-1.2,1.2c-1.2,0.7-2.7,0.7-3.9,0c-0.6-0.3-0.9-0.7-1.2-1.2c-0.3-0.6-0.3-1.2-0.3-1.9s0.1-1.2,0.3-1.9
					c0.3-0.6,0.7-1,1.2-1.2c1.2-0.7,2.7-0.7,3.7,0c0.6,0.3,0.9,0.7,1.2,1.2C241.8,65.9,241.8,67.3,241.3,68.5L241.3,68.5z"/>
				<path class="st4" d="M248.3,62.7c-0.6,0.6-0.9,1.2-0.9,2.1v-3h-1.3v9.7h1.8v-5.2c0-0.9,0.1-1.6,0.9-2.2c0.7-0.6,1.3-0.9,2.2-0.7
					h0.7v-1.5h-0.3C249.8,61.8,248.9,62.1,248.3,62.7z"/>
				<path class="st4" d="M266.5,62.1c-0.6-0.3-1.2-0.6-1.9-0.6l0,0c-0.7,0-1.3,0.1-1.9,0.6c-0.6,0.3-0.9,0.9-1.2,1.6
					c0,0.1,0,0.1-0.1,0.3c0-0.1,0-0.1-0.1-0.3c-0.1-0.7-0.6-1.2-1-1.6c-0.6-0.3-1.2-0.6-1.9-0.6l0,0c-1.3-0.1-2.7,0.7-3,2.1
					c0,0.1-0.1,0.3-0.1,0.6V62H254v9.7h1.8v-6c0-0.7,0.1-1.3,0.7-1.9c0.6-0.6,1-0.7,1.8-0.7c0.7,0,1.2,0.1,1.6,0.7
					c0.3,0.6,0.7,1.2,0.6,1.9v6h1.8v-6c0-0.7,0.1-1.3,0.7-1.9s1-0.7,1.8-0.7c0.7,0,1.2,0.1,1.6,0.7c0.3,0.6,0.7,1.2,0.6,1.9v6h1.8
					v-5.5c0-0.9-0.1-1.6-0.3-2.4C267.4,63,267.1,62.4,266.5,62.1z"/>
				<path class="st4" d="M276.2,61.6L276.2,61.6c-0.9,0-1.6,0.1-2.1,0.6c-0.6,0.3-0.9,0.9-1,1.3v-5.4h-1.8v13.4h1.8V66
					c0-0.7,0.1-1.3,0.7-2.1c0.6-0.6,1.2-0.9,1.9-0.7c0.7,0,1.2,0.1,1.8,0.7c0.6,0.6,0.7,1.2,0.7,1.9v6h1.8v-5.5
					c0-1.3-0.3-2.7-0.9-3.3C278.2,61.9,277.3,61.6,276.2,61.6z"/>
				<path class="st4" d="M291.2,63.1c-0.6-0.6-1-0.9-1.6-1.2c-1.3-0.6-3-0.6-4.3,0c-1.2,0.6-2.2,1.6-2.7,2.8
					c-0.1,0.6-0.3,1.2-0.3,1.9V67c0,0.7,0.1,1.2,0.3,1.8c0.1,0.6,0.6,1.2,1,1.6c0.6,0.6,1,0.9,1.6,1.2c1.3,0.6,3.1,0.6,4.5,0
					c1.2-0.6,2.1-1.6,2.7-2.8c0.1-0.6,0.3-1.2,0.3-1.8v-0.3c0-0.7-0.1-1.2-0.3-1.9C292.1,64,291.8,63.4,291.2,63.1z M290.5,68.5
					c-0.3,0.6-0.7,1-1.2,1.2c-1.2,0.7-2.7,0.7-3.9,0c-0.6-0.3-0.9-0.7-1.2-1.2c-0.3-0.4-0.3-1.2-0.3-1.9s0.1-1.2,0.3-1.9
					c0.3-0.6,0.7-1,1.2-1.2c1.2-0.7,2.7-0.7,3.7,0c0.6,0.3,0.9,0.7,1.2,1.2C291,65.9,291,67.3,290.5,68.5L290.5,68.5z"/>
				<polygon class="st4" points="294,58.2 294,59.7 295.4,59.7 295.4,71.4 297.2,71.4 297.2,59.7 297.2,58.2 295.4,58.2 				"/>
				<path class="st4" d="M309.2,66.2c0-0.9-0.1-1.6-0.6-2.2c-0.3-0.7-0.9-1.3-1.6-1.8c-0.9-0.6-1.8-0.7-2.7-0.7
					c-0.7,0-1.3,0.1-2.1,0.3c-0.6,0.3-1,0.7-1.6,1.2c-0.3,0.6-0.7,1-0.9,1.6c-0.1,0.6-0.3,1.2-0.3,1.9v0.3c0,0.7,0.1,1.2,0.3,1.8
					c0.1,0.6,0.6,1.2,0.9,1.6c0.3,0.6,0.9,0.9,1.6,1.2c0.7,0.3,1.3,0.6,2.2,0.6c0.7,0,1.3-0.1,2.1-0.3c1.2-0.6,2.1-1.6,2.2-2.8h-1.6
					c-0.1,0.6-0.6,0.9-0.9,1.2c-1.2,0.7-2.7,0.7-3.7,0c-0.6-0.3-0.9-0.7-1-1.3c-0.1-0.6-0.3-1-0.3-1.6h7.6L309.2,66.2z M302.8,63.4
					c0.6-0.3,1-0.6,1.8-0.6c0.6,0,1.2,0.1,1.8,0.3c0.6,0.3,0.9,0.7,1,1.2c0.1,0.3,0.1,0.7,0.3,1h-6c0-0.3,0.1-0.7,0.1-0.9
					C302.1,64.1,302.4,63.8,302.8,63.4z"/>
			</g>
			<g>
				<path class="st5" d="M200,66.5c0-4.3-1.8-8.5-4.8-11.6c-0.1-0.1-0.3-0.1-0.3-0.1H191c-0.3,0-0.6,0.1-0.6,0.6v4
					c0,0.3,0.1,0.6,0.6,0.6c3.7,0.3,6.4,3.4,6.1,7.1c-0.1,3.3-2.8,6-6.1,6.1c-0.3,0-0.6,0.3-0.6,0.6v4c0,0.3,0.3,0.6,0.6,0.6h3.9
					c0.1,0,0.3,0,0.3-0.1C198.4,75.2,200,71,200,66.5z"/>
				<path class="st6" d="M214,74c0-0.3-0.1-0.6-0.6-0.6c-3.7-0.3-6.4-3.4-6.1-7.1c0.1-3.3,2.8-6,6.1-6.1c0.3,0,0.6-0.3,0.6-0.6v-4
					c0-0.3-0.1-0.6-0.6-0.6h-3.8c-0.1,0-0.3,0-0.3,0.1c-6.3,6.4-6.3,16.8,0,23.4c0.1,0.1,0.3,0.1,0.3,0.1h3.9c0.3,0,0.6-0.1,0.6-0.6
					v-4C214.1,74,214,74,214,74z"/>
				<path class="st7" d="M199.3,52.7c-0.3,0-0.7,0.3-0.7,0.7v0.1c1.6,4.2,2.4,8.5,2.4,13.1s-0.9,8.9-2.4,13.1
					c-0.1,0.3,0,0.7,0.3,0.9h0.1h6c0.3,0,0.7-0.3,0.7-0.7v-0.3c-3.3-8.3-3.3-17.7,0-26.1c0.1-0.3,0-0.7-0.3-0.9h-0.1h-6V52.7z"/>
			</g>
		</g>
		<g>
			<g>
				<path class="st4" d="M121.6,72c-0.8,0-1.6-0.2-2.2-0.6s-1.2-0.9-1.5-1.6c-0.4-0.7-0.6-1.5-0.6-2.5h0.5v4.4h-1.4V57.8h1.8v6.7
					l-0.6,1.4c0.1-1.1,0.3-2,0.7-2.7s0.9-1.2,1.5-1.5s1.3-0.5,2.1-0.5c0.7,0,1.4,0.1,2,0.4s1.1,0.6,1.5,1.1s0.8,1,1,1.7
					c0.2,0.6,0.3,1.3,0.3,2v0.3c0,0.7-0.1,1.4-0.4,2c-0.2,0.6-0.6,1.2-1,1.7s-1,0.9-1.6,1.1S122.4,72,121.6,72z M121.4,70.4
					c0.7,0,1.3-0.2,1.8-0.5s0.9-0.8,1.2-1.4s0.4-1.2,0.4-2s-0.1-1.4-0.4-2s-0.7-1-1.2-1.3s-1.1-0.5-1.8-0.5c-0.6,0-1.2,0.1-1.7,0.4
					c-0.5,0.3-0.9,0.7-1.2,1.2s-0.5,1.1-0.5,1.9v0.9c0,0.7,0.2,1.3,0.5,1.8s0.7,0.9,1.3,1.1C120.3,70.3,120.8,70.4,121.4,70.4z"/>
				<path class="st4" d="M132.9,72c-1.2,0-2.1-0.4-2.8-1.2s-1-1.9-1-3.4v-5.9h1.8v6.3c0,0.8,0.2,1.4,0.6,1.9c0.4,0.5,1,0.7,1.7,0.7
					c0.8,0,1.4-0.2,1.9-0.7s0.7-1.2,0.7-2v-6.1h1.8v10.2h-1.4v-4.4h0.2c0,1-0.1,1.8-0.4,2.5c-0.3,0.7-0.7,1.2-1.2,1.6
					C134.4,71.8,133.8,72,132.9,72L132.9,72z"/>
				<path class="st4" d="M140.2,63v-1.4h3.4V63H140.2z M142.3,59.9c-0.4,0-0.7-0.1-0.9-0.3s-0.3-0.5-0.3-0.8s0.1-0.6,0.3-0.8
					s0.5-0.3,0.9-0.3s0.7,0.1,0.9,0.3s0.3,0.5,0.3,0.8s-0.1,0.6-0.3,0.8C143,59.8,142.7,59.9,142.3,59.9z M141.8,71.7V61.6h1.8v10.1
					H141.8z"/>
				<path class="st4" d="M145.9,59.3v-1.4h3.2v1.4H145.9z M147.3,71.7V57.8h1.8v13.9H147.3z"/>
				<path class="st4" d="M151.1,62.9v-1.4h7v1.4H151.1z M156.5,71.8c-0.8,0-1.4-0.1-2-0.3c-0.6-0.2-1-0.6-1.3-1.1s-0.4-1.2-0.4-2.1
					v-9.8h1.7v10c0,0.5,0.1,1,0.4,1.3c0.3,0.3,0.7,0.4,1.3,0.4h1.8v1.6H156.5z"/>
				<path class="st4" d="M169.7,72c-0.9,0-1.7-0.2-2.3-0.5c-0.7-0.3-1.2-0.7-1.7-1.2s-0.8-1.1-1-1.7s-0.4-1.3-0.4-1.9v-0.3
					c0-0.6,0.1-1.3,0.4-1.9c0.2-0.6,0.6-1.2,1.1-1.7s1-0.9,1.7-1.2s1.4-0.4,2.3-0.4s1.6,0.1,2.3,0.4c0.7,0.3,1.2,0.7,1.7,1.2
					s0.8,1.1,1.1,1.7c0.2,0.6,0.4,1.3,0.4,1.9v0.3c0,0.6-0.1,1.3-0.4,1.9c-0.2,0.6-0.6,1.2-1,1.7s-1,0.9-1.7,1.2
					C171.3,71.9,170.6,72,169.7,72z M169.7,70.4c0.8,0,1.4-0.2,1.9-0.5s0.9-0.8,1.2-1.4s0.4-1.2,0.4-1.9c0-0.7-0.1-1.4-0.4-1.9
					c-0.3-0.6-0.7-1-1.2-1.3s-1.2-0.5-1.9-0.5s-1.4,0.2-1.9,0.5s-1,0.8-1.3,1.3c-0.3,0.6-0.4,1.2-0.4,1.9c0,0.7,0.1,1.3,0.4,1.9
					c0.3,0.6,0.7,1,1.2,1.4C168.3,70.2,168.9,70.4,169.7,70.4z"/>
				<path class="st4" d="M177.9,71.7V61.6h1.4V66h-0.2c0-1,0.1-1.8,0.4-2.5c0.3-0.7,0.7-1.2,1.2-1.6s1.3-0.5,2.1-0.5h0.1
					c1.3,0,2.2,0.4,2.8,1.2s0.9,2,0.9,3.5v5.8h-1.8v-6.2c0-0.8-0.2-1.4-0.7-1.9c-0.4-0.5-1.1-0.7-1.8-0.7c-0.8,0-1.4,0.2-1.9,0.7
					s-0.7,1.2-0.7,2v6.1h-1.8V71.7z"/>
			</g>
		</g>
	</g>
</g>
</svg>
