<?xml version="1.0" encoding="utf-8"?>
<!-- Generator: Adobe Illustrator 25.4.1, SVG Export Plug-In . SVG Version: 6.00 Build 0)  -->
<svg version="1.1" id="Layer_1" xmlns="http://www.w3.org/2000/svg" xmlns:xlink="http://www.w3.org/1999/xlink" x="0px" y="0px"
	 viewBox="0 0 34 34" style="enable-background:new 0 0 34 34;" xml:space="preserve">
<style type="text/css">
	.st0{fill:#00EFD8;}
	.st1{fill:#FD3503;}
	.st2{fill:#0074FF;}
</style>
<g>
	<path class="st0" d="M17,15.6c-5.2,0-10.1,2-13.8,5.6C3,21.3,3,21.5,3,21.7v4.6c0,0.2,0,0.4,0.2,0.5C3.3,26.9,3.5,27,3.7,27h4.8
		c0.2,0,0.3-0.1,0.5-0.2c0-0.1,0.1-0.3,0.1-0.4c0.2-2,1.1-3.8,2.5-5.2c1.5-1.3,3.4-2.1,5.4-2.1s3.9,0.7,5.4,2.1
		c1.5,1.3,2.4,3.2,2.5,5.2c0,0.2,0.1,0.3,0.2,0.5c0.1,0,0.3,0.1,0.5,0.1h4.8c0.1,0,0.2,0,0.3-0.1c0.1,0,0.2-0.1,0.2-0.1
		c0-0.1,0.1-0.1,0.1-0.2s0-0.2,0-0.3v-4.6c0-0.2-0.1-0.4-0.2-0.5C27.1,17.6,22.2,15.6,17,15.6z"/>
	<path class="st1" d="M3.9,7C3.9,7,3.7,7,3.7,7.1C3.6,7.1,3.6,7.1,3.5,7.2S3.4,7.4,3.4,7.5c0,0.1,0,0.2,0,0.2c1.1,3,1.7,6.1,1.7,9.3
		c0,3.2-0.6,6.3-1.7,9.3c0,0.1-0.1,0.1,0,0.2c0,0.1,0.1,0.1,0.1,0.2c0,0.1,0.1,0.1,0.2,0.2C3.7,27,3.8,27,3.9,27h4.2
		c0.1,0,0.2,0,0.2-0.1c0.1-0.1,0.1-0.1,0.2-0.2c0.1-0.1,0.1-0.1,0.1-0.2c0-0.1,0-0.2-0.1-0.2c-1.1-3-1.7-6.1-1.7-9.3
		c0-3.2,0.6-6.3,1.7-9.3c0-0.1,0.1-0.1,0.1-0.2c0-0.1-0.1-0.1-0.1-0.2C8.5,7.2,8.4,7.1,8.4,7.1C8.3,7,8.3,7,8.1,7C8.1,7,3.9,7,3.9,7
		z"/>
	<path class="st2" d="M25.9,7c-0.1,0-0.2,0-0.2,0.1c-0.1,0.1-0.1,0.1-0.2,0.2s-0.1,0.1-0.1,0.2c0,0.1,0,0.2,0,0.2
		c1.1,3,1.7,6.1,1.7,9.3c0,3.2-0.6,6.3-1.7,9.3c0,0.1-0.1,0.1,0,0.2c0,0.1,0.1,0.1,0.1,0.2c0,0.1,0.1,0.1,0.2,0.2s0.1,0.1,0.2,0.1
		h4.2c0.1,0,0.2,0,0.2-0.1c0.1-0.1,0.1-0.1,0.2-0.2c0.1-0.1,0.1-0.1,0.1-0.2c0-0.1,0-0.2-0.1-0.2c-1.1-3-1.7-6.1-1.7-9.3
		c0-3.2,0.6-6.3,1.7-9.3c0-0.1,0.1-0.1,0.1-0.2c0-0.1-0.1-0.1-0.1-0.2c-0.1-0.1-0.1-0.1-0.2-0.2C30.3,7,30.2,7,30.1,7
		C30.1,7,25.9,7,25.9,7z"/>
</g>
</svg>
