<?xml version="1.0" encoding="utf-8"?>
<!-- Generator: Adobe Illustrator 23.0.3, SVG Export Plug-In . SVG Version: 6.00 Build 0)  -->
<svg version="1.1" id="Layer_1" xmlns="http://www.w3.org/2000/svg" xmlns:xlink="http://www.w3.org/1999/xlink" x="0px" y="0px"
	 viewBox="0 0 100 100" style="enable-background:new 0 0 100 100;" xml:space="preserve">
<style type="text/css">
	.st0{fill:#FFFFFF;}
</style>
<path class="st0" d="M89.8,29c-0.8-4.4-4.6-7.6-9-8.6C74.2,19,62,18,48.8,18c-13.2,0-25.6,1-32.2,2.4c-4.4,1-8.2,4-9,8.6
	C6.8,34,6,41,6,50s0.8,16,1.8,21c0.8,4.4,4.6,7.6,9,8.6c7,1.4,19,2.4,32.2,2.4s25.2-1,32.2-2.4c4.4-1,8.2-4,9-8.6
	c0.8-5,1.8-12.2,2-21C91.8,41,90.8,34,89.8,29z M38,64V36l24.4,14L38,64z"/>
</svg>
