<svg id="Group_2766" data-name="Group 2766" xmlns="http://www.w3.org/2000/svg" xmlns:xlink="http://www.w3.org/1999/xlink" width="197.307" height="206.84" viewBox="0 0 197.307 206.84">
  <defs>
    <linearGradient id="linear-gradient" x1="0.5" x2="0.5" y2="1" gradientUnits="objectBoundingBox">
      <stop offset="0" stop-color="#374b92"/>
      <stop offset="1" stop-color="#e72850"/>
    </linearGradient>
    <clipPath id="clip-path">
      <rect id="Rectangle_1469" data-name="Rectangle 1469" width="197.307" height="206.84" fill="url(#linear-gradient)"/>
    </clipPath>
  </defs>
  <g id="Group_2765" data-name="Group 2765" clip-path="url(#clip-path)">
    <path id="Path_1600" data-name="Path 1600" d="M197.306,92.381c0-.01,0-.018,0-.028s0-.013,0-.019l-1.455-9.289h0v0a.058.058,0,0,0,0-.007.3.3,0,0,0-.012-.042s0-.009,0-.014l-3.618-9.365a.287.287,0,0,0-.016-.026c0-.009-.005-.019-.011-.028l-7.052-11.045c0-.007-.011-.01-.015-.016s-.006-.013-.011-.019L175.79,51.717l-.005,0,0,0,0,0h0l0,0L166.129,41.3l0,0h0L157,31.816l-.006-.005v0l-7.789-7.6-2.292-2.146,0,0,0,0-6.651-5.98a.271.271,0,0,0-.032-.024l0,0-11.36-7.427h0l-.007,0-.006,0a.343.343,0,0,0-.038-.02l0,0-6.1-2.586h0l0,0-6.859-2.688-.017,0-.007,0-6.161-1.829c-.009,0-.018,0-.028,0s-.016-.007-.025-.008L96.584,0c-.01,0-.019,0-.029,0H96.54a.274.274,0,0,0-.028,0L82.851,1.651c-.006,0-.011,0-.017.005l-.012,0c-.008,0-.015,0-.022,0L69.674,5.624c-.007,0-.012.007-.019.01l-.007,0s-.01,0-.015,0h0l-.015.007L60.528,9.891h0l-2.876,1.422-.008.006-.009,0L51.091,15.1h0l-.021.013h0L42.51,21.151h0a.309.309,0,0,0-.029.023l-5.228,4.788h0l-.009.009,0,0-3.191,3.336,0,0-.008.008-4.595,5.343,0,0-.014.019s-.005,0-.007.007l-6.311,9.585s0,.007,0,.01-.009.015-.014.024l0,.006-4.5,9.745s0,.007,0,.01-.006.01-.008.015h0l-2.242,6.387v0l0,.009,0,0-2.9,9.911s0,.006,0,.01,0,.006,0,.01l-1.911,8.654L9.264,87.711v0L6.818,97.735l-1.795,6.289v0a.02.02,0,0,0,0,0l-2.6,10.32s0,.007,0,.01,0,.006,0,.009L.63,124.009s0,0,0,.005,0,.014,0,.021l-.455,4.678s0,.007,0,.011,0,.008,0,.012L0,136.514a.251.251,0,0,0,0,.03.214.214,0,0,0,0,.024l1.132,7.054a.256.256,0,0,0,.011.032c0,.009,0,.018,0,.027l2.62,6.944c0,.011.012.02.017.03s0,.013.007.019l4.417,7.366,0,.006.006.01,4.37,6.338v0h0l0,0,0,0,.007.009s0,.006,0,.009l6.493,7.927s.008.005.012.009a.163.163,0,0,0,.01.015h0l0,0,7.554,7.417h0l.01.01,5.586,4.9a.172.172,0,0,0,.016.009s.007.008.012.012l7.362,5.095c.006,0,.012.005.018.009s.01.009.016.012l6.25,3.212,0,0h0l0,0h0l.007,0,1.514.735,4.854,2.224.013.006h0l.008,0,.006,0,7.914,3.109.009,0,.008,0,9.578,3.119.012,0,.008,0,10.261,2.566.019,0,.01,0,10.73,1.586.027,0h0l9.327.406h.014l.033,0,8.027-.878a.172.172,0,0,0,.02-.006.255.255,0,0,0,.038-.006l7.2-2.27.01-.005a.35.35,0,0,0,.034-.012l7.683-3.827c.006,0,.009-.008.015-.011s.013-.005.019-.009l9.629-6.469,0,0,.005,0,3.116-2.245,0,0,.005,0h0l.007-.006,12.111-9.417v0l.008-.007,0,0L160.571,171l0-.005.006,0,5.749-5.47,5.245-5.532v0l0,0,5.43-5.9c.006-.007.012-.015.017-.022l0,0,8.2-11.036s0-.008.005-.012.01-.011.014-.018l3.637-6.339,0-.007,2.04-4.293v0l0,0,2.762-6.337a.243.243,0,0,0,.009-.033.2.2,0,0,0,.008-.019l2.547-10.981a.152.152,0,0,0,0-.02c0-.008.005-.015.006-.022l1.006-11.976s0-.008,0-.012,0-.008,0-.012Zm-2.155,24.207-.365,1.23.076-.574.529-3.994.263,1.642Zm-94.893,89.642-.53-.055h.7l-.058.02Zm-30.2-4.545-.767-.324-.338-.143,1.907.56ZM8.806,157.209l-.911-1.033.29-1.317.009-.039,2.716,4.775ZM4.6,150.829l-.25-.409-.013-.134ZM1.152,139.9l.508,1.467-.164.675ZM65.752,8.419l-2.33.832,3.441-1.63-1.06.761ZM95.387.8,96.55.608l2.81.459L94.751.908Zm95.777,72.369.488.683.158.578-1.027-1.794Zm4.458,12.349-.05-.2,0-.035,0-.03Zm-35.46,85.031-1.5,1.15,2.8-2.72-.232.28ZM32.088,183.71l-3.729-3.374,3.062,2,.547.357.081.693ZM1.582,139.291.63,136.541l.764-1.561.114,2.633Zm7.23-43.059,1.161-4.008.114,2.86.023.575L8.216,98.29Zm172.554-36.1,3.273,2.74,1.352,2.492Zm8.9,69.967.084,2.044-2.536,3.818,2.438-6.206Zm-5.593,10.791-4.078,6.664.473-2.805,3.179-3.4Zm-50.688,50.73-1.312,1.212-.46.181,1.132-.89Zm-20.734,11.391-2.642.983.281-.323.7-.8,2.526-.178ZM12.492,161.152,9.164,155.3l3.877,3.252-.333,1.578ZM4.8,147.669l.326-.546,1.945,5.1-2.831-3.614Zm5.2-58.757L9.9,90.261,9.239,91.51ZM40.356,24.958l.639-.347-5.35,5.048,2.027-3.243ZM106.472,2.53l8.032,2.3-.415.02-3.239.157-.772-.437Zm24.749,9.881,3.74,1.194,4.628,4.406Zm62.423,109.183-2.424,4.663,1.4-6.931.4.889Zm-49.582,62.183-.626.691-1.6.815,4.138-3.623ZM16.59,165.563l1.9,1.52-.168,2.329-4.161-5.8ZM8.848,152.875l.672-1.643,2.957,6.055-4.045-3.393Zm-6.6-12.264-.233-5.353,1.758,3.7-1.4,1.524ZM16.5,63.326l1.289-2.182-1.44,5.525L16.1,64.01ZM44.635,21.613l2.321-2.794,4.151-1.846Zm18.042-8.7,3.368-3.937,6.47-.693ZM88.2,3.633l3.566-2.2L97.26,2.945l-4.98.378Zm30.31,2.824,8.928,4.44-3.245-.473-1.141-.166L121.68,9.11Zm36.42,24.418,5.154,5.369-7.642-6.45,1.971.856Zm17.834,19.21,3.732,5.061L174,52.923l-6.063-5.409,3.44,1.833Zm14.52,20.246,0,.089-.455-.552-4.737-5.747,5.133,3.6Zm-57,123.405-.2-.03-.555-.081,3.742-3.081-2.326,2.486Zm-14.265,8.213-2.68.189,3.412-1.376-.518.839Zm-15.665-.252,3.308,1.881-5.695.193Zm-61.1-16.37-6.627-2.973.859-2.516.043-.125,3.508,3.441ZM96.5,4.683,94.216,6.456l-5.86-2.228,9.681-.735ZM180.43,144.5l-5.445,4.3,4.191-8.053.433,1.294Zm-13.173,10.771-.1-1.07.521-.3,5.36-3.054-5.467,7.788Zm-.806,5.687-1.434,3.7-4.188,2.672ZM89.335,203.185l2.852-1.847,1.3.826,2.435,1.542ZM60.479,194.5l1.025-.443.7.544,4.376,3.42-8.192-2.616ZM33.916,174.1l.716.28-1.356,4.179-6.171-7.129ZM8.822,149.442,5.592,146.4l1.541-1.977.944,2.807ZM5.573,125.2l-.924,4.729L3.1,125.421l2.934-2.586Zm7.281-35.84.444,2.47L11,94.583l1.572-6.809Zm5.735-28.873.217,1.1.578,2.921-2.573,2.8.844-3.238ZM95.1,6.537l3.937-3.052L104.554,7,95.4,6.552Zm92.121,64.879-.468,1.089L186.111,74l-4.452-5.731,5.528,3.129Zm-34.747,100.4-6.515,6.564,2.057-5.43ZM8.029,105.788l3.009-3.06L9.061,110.6l-.583-2.716Zm15.3-50.427,4.817-3.2-1.8,4.334-1.442,3.472-1.666-4.548ZM39.193,33.071l1.133-3.942,5.043-.65-2.192,1.8-4.16,3.407ZM166.613,154.89l.414,4.423L161.58,162.1Zm-13.444,16.122-4.582,1.165,4.818-6.051-.231,4.787ZM82.907,199.168l-1.659-1.443-3.313-2.881,8.258,1.917-.263.193Zm-32.3-9.594-6.284-5.92,9.171,3.291-1.19,1.083ZM50.083,21.338l5.675-.033-2.434,1.654-6.151,4.18,1.149-2.289ZM81.125,18.4l-7.56.565,7.97-8.232Zm57.193,7.713,5.776,1.017,5.706,6.54Zm48.054,64.4-.386-.483,3.4-1.255-.206,5.26Zm-38.951,81.921-2.184.289-2.631.348.887-1.351,2.811-4.281.721,3.222Zm-.414.666-5.622,6.178.868-5.548ZM28.425,160.286l.648-3.078,7.088,9.972-8.556-3Zm-13.031-11.5.434-2.763,4.319,7.909-5.338-1.418Zm-3.286-34.487-1.026,3.669-.285-.995-1.41-4.922,4.259-3.246ZM18.5,77.418l.5,1.411L16.024,81.7l1.523-6.942ZM73.118,19.605l7.571-.566-7.039,7.9-.486-6.688Zm28.7-8.319,3.862-3.517,5.4,5.05L101.9,11.3Zm40.983,15-5.715-1.006-5.618-6.185,1.791,1.137Zm4.218,7.751-3.549-.634-5.154-6.569,11.777,7.751Zm24.665,25.386.191,1.435.511,3.836-7.9-6.37,5.463.834Zm17.636,28.064-1.161-1.215-2.66-2.782,3.245-1.519.475,4.549ZM129.46,186.97l-2.1,4.959-1.539-1.71,3.724-3.453ZM20.226,74.57,19.312,77.9l-1.479-4.142,3.4-2.865ZM28.063,64.6l-.084.2L25.31,60.883l6.056-4.124Zm84.728-51.326,4.311-1.858,5.372,5.842Zm23.072,12.032-1.2.057-4.532.216-5.266-6.474,3.552,2ZM189.038,107.1l-3.116,3.234.129-4.187.042-1.361,2.258,1.774Zm-3.8,4.508-.726,7.482-3.725-5.418,1.133-.525Zm-8.87,21.841,2.374-9.293,3.635,5.6ZM16.724,140.54l.555-3.372.535.986,3.948,7.273-5.744-.6Zm-2.06-33.831,1.215-8.9,2.83,2.663-3.4,5.25Zm129.559,57.271-2.315-2.36,8.109-1.735-3.637,6.293Zm1.6,2.5-6.661,1.165,2.253-5.659,3.444,3.511Zm-24.477,25.736-.592-1-.851-1.432,1.762-1.8-.311,4.115Zm-55.62-1.771L58.7,183.43l10.309,3.946-.834.78Zm-9.288-8.524-10.376-3.943,1.468-2.748,1.135-2.123ZM22.994,71.293l-.8-1.184L27.4,66.277l-2.778,7.437ZM85.578,23.454,80.342,27.77l1.31-8.641,5.833,2.753ZM130.943,26.8l11.335,6.636-6.785.374Zm8.19,15.173L136,34.867l11.159,6.667ZM174.058,72.85l5.284-.343-.212,5.177Zm6.78,12.782,3.879-1.783.413,5.353Zm-2.656,37.641-6.392,2.772,1.979-9.942.568.922ZM21.634,86.833l.735-3.346,1.793,1.53,1.012.863-4.356,4.671ZM93.706,25.191l-.424.953-3.688-3.338-.992-.9,8.068-3.384Zm91.718,74.425-1.973-.518,1.948-2.323ZM171.472,127.3l3.989,6.671-6.994,3.291,1.078-3.573ZM161.342,140l-2,.756.817-2.217,2.982-8.1,4.4,7.224Zm-116.8,14.743-12.19-7.467,8.312-3.038,2.85,7.721ZM63.152,33.686l1.922-3.114.972,6.874-6.6,2.251Zm3.542,4.237,5.463-.574-5.179,7.555-.17-4.179Zm19.011-6.982,2.5-8.58L92.885,26.6,90.54,28.018Zm87.373,42.112.528,7.154-5.383-4.257-.491-.389,3.623-1.7ZM133.058,169.6l-2.091.7.5-5.934,6.469,3.595Zm-30.641,16.875.079-.277,3.692,3.313-4.682.132ZM95.485,185.1l-1.966,3.641-4.8-5.1,2.065.445ZM24.092,135.8l1.358-8.668,5.369,7.936-2.006.218ZM46.613,47.224l2.423-1.441L44.32,54.436l-.443-.533-2.807-3.381Zm-4.456,1.947-.775.461,4.64-8.8,3.35,4.045ZM59.1,40.455l6.574-2.242-5.185,8.3-.92-4.013Zm101.23,28.83,5.243-2.728,1.175,8.189-3.311-2.817Zm18.095,28.451,2.843-4.239,1.235,5.347Zm.076.648,4.052,1.1-1.121,4.949Zm-20.137,42.7-10.315,2.8,5.828-10.506ZM130.412,178.32l-4.347,4.132-1.524-6.767,3.539,1.588Zm-4.963,4.154-4.233-2.173-1.069-.549,3.794-3.974.8,3.547Zm-51.852.514-.394-.478-6.277-7.616,10.3,4.732-2.418,2.239ZM25.125,108.461l-.855-6.62,4.333.01h.314l-3.41,5.943Zm1.108-23.585L28.3,78.246l2.907,2.09ZM177.55,98.129l-2.134,6.517-4.1-8.158Zm-12.888,19.5-6.546,2.611,1.841-11.4,5.6,8.434ZM95.827,184.292l-4.538-5.171,1.333.353,4.457,1.181-.519,1.51ZM76.106,45.4l-3.462-.137,4.812-6.028L76.217,44.9Zm2.118-6.836,3.284,2.552L76.83,44.933l.361-1.65Zm18.542-5.461-.1.173-4.5,7.622-1.818-3.3-.7-1.273,4.522-2.044Zm19.111-.9-8.7-1.381,5.067-5.61Zm23.031,19.349-1.066,4.276-7.6-3.385,9.02-2.321ZM111.016,184.909l-2.284-1.251-.547-2.286,2.184,2.728Zm-34.172-6.125L66.429,174l2.532-1.99,1.9-1.495,5.4,7.471ZM65.92,173.629l-6.473-9.535,10.93,6.032-2.595,2.04Zm-7.3-10.833-4.953-10.062,10.823,6.746-5.8,3.275ZM29.7,100.664l-.114-2.471-.16-3.484,4.832-.41Zm6.052-28.2,4.714-2.939,1.549-.966-3.614,6.4L35.828,72.53Zm71.271-41.049,8.705,1.382L109.352,38.3l-1.26-3.732Zm37.657,28.826-.369.607-5.437-4.32,8.258-.317Zm-23.441,98.972.718-5.8,9.635,3.494-10.411,2.756Zm-9.231,17.859-.21,3.976-4.891-5.537,2.11.645Zm-3.626,7.324,1.516,3.232-2.647-2.024.014-.014Zm-11.013-4.56-1.584-2-2.409-3.04,5.056,2.113-.329.9ZM35.2,100.935l-5.147.279,4.605-6.431Zm-.752-12.727.131,5.456-4.792.406ZM82.041,41.752l2.3,3.613L78.863,48.86,81.305,43.4Zm25.026-3.186-6.082.122,5.485-7.025,2.319,6.869Zm12.381,11.278,0,7.394-7.784-1.591,7.506-5.594ZM128.9,53.4l-.711,5.992L120.574,57.5l8.384-4.589Zm31.249,40.136-5.787-.036-4.7-.029,3.958-8.7L158.04,90.7Zm-26.593,55.979-5.914,1.584-5.518,1.477,1.558-6.287.962.314ZM112.237,162.8,111,163.24l-.984-5.208-.266-1.407,10.154,3.454Zm6.041,6.5-2.882,2-3.984-7.13,9.72,3.147Zm-17.459,8.884,2.913,1.6-.972,1.47-2.784-3.528ZM67.576,53.067l4.234-.581-.9,1.547L68.706,57.84l-.543-2.293Zm81.487,41.3,2.387,7.573-5.993-.539-2.518-.226,5.531-6.15Zm-43.735,86.859,1.75,1.7-1.1-.477ZM93.766,174.3l-.9-.377,1.983-3.014.011-.016,3.207,5.2ZM83.2,172.769l-1.4,2.143-5-8.1,2.377,1.269,5.26,2.809Zm-2.225,1.965-9.5-4.714,4.393-3.554,3.161,5.119ZM41.439,112.688l-.964,8.909-5.563-5.548Zm-.307-19.509-5.6.412,5.117-6.85.212,2.811ZM39.769,79.269l.12.284-4.326,1.938,2.882-5.349Zm12.945-16.53-1.881.7,4.21-6.8,1.551,4.66Zm20.456-7.987.754,1.789-4.673,1.567,3.088-5.328ZM80.4,53.14l-1.822-3.377,5.385-3.438Zm19.81-13.409.632,2.83.822,3.684-6.737.861L96.792,44.5Zm53.558,34.331-.474,9.347L148,77.318l5.2-2.936Zm-44.636,82.523,1.254,6.634-8.883-2.5-1.707-.48,8.527-3.336Zm-4.738,16.4L99.7,168.525l1.017.1,4.826.465.11,5.1ZM41.073,121.7l.973-8.985,3.539,2.577,2.948,2.147-4.739,2.707Zm.433-19.258-4.646,5.081-.965-5.939ZM36.079,101l5.134-6.723.568,7.595Zm1.067-19.552,2.227-1L35.06,86.4l.111-4.064Zm37.9-25.405L78.173,50.3l1.811,3.356-4.512,2.184Zm33.525,100.112-9.4,3.679.392-7.672,2.167.96Zm-35.541.822,6.681,4.685-3.661,3.813-3.874-9.1ZM86.994,50.9l1.612,4.344-5.142,2.066,1.391-2.526ZM52.516,69.477l4.6-1.18,1.253-.321-4.283,7-.246-.858Zm67.448,63.19,3.861-1.721.261,7.076-8.374-3.459ZM103.023,64.859l.6,7.476-6.257-1.26,5.611-6.84Zm35.176,5.7-1.715,2.658-.583.9-.9-4.88,1.178.485Zm-22.56,60.817.486-3.994,7.23,3.108-8.046,3.587ZM49.007,94.194l5.959-8.231.647,10.819Zm5.544-18.81,4.4-7.2,2.514,6.755L58.92,75.1Zm78.076-5.1-4.028,4-.188-2.648-.29-4.089L134,68.922Zm-4.72,27.783-4.779,6.542-3.551-4.724Zm7.96,20.709-5.086-.271,3.041-2.333,1.832,2.333Zm-6.114.485,1.3,5.447-6.662-1.819,1.318-.893Zm-80.524-14.48-.376-10,6.589,2.581ZM62.065,88.442,56.2,96.385l-.646-10.81Zm43.891,43.2-1.729,4.718-6.067-5.314,8.423-1.118ZM89.961,154.395l-5.1,2.753-.964-7.905ZM66.141,116.08l2.766-4.213,2.543-3.874,2.535,11.872L70.736,118.3ZM80.719,64.9l4.042-2.588-.314,5.135ZM126.8,109.953l-2.475,5.581-4.356-3.209,6.873-2.464Zm4.627,3.644,2,2.118-3,2.3Zm-8.4,9.4-6.757,3.409,1.035-6.492Zm-25.452,8.336,6.1,5.342-9,1.371ZM65.807,84.868l2.416-2.9.255,2.838.738,8.218-6.247-4.761Zm40.261,1.724,1.1,4.6-6.527-1.148,4.554-7.107ZM116.251,91.6l5.533-7.8,1.145,3.181,1.412,3.925-3.249.278Zm8.592-1.086-2.552-7.093,7.84-.659ZM87.532,131.012l-8.267.035,3.853-8.153.853,1.569Zm-6.37-40.046-5.8-4.156,4.473-4.847Zm18.95,8.318,2.5.563-3.36,6.8L96.192,98.4Zm.106,23.64-5.848-.058-1.922-.019,3.324-6.975,3.758,5.958ZM80.767,92.278l-3.846,5.757-1.6-10.514L81.151,91.7Zm14.466,22.565-7.2-1.357,3.63-7.034.423.994Zm4.006-6.744,3.842,7.132-6.888-.27Zm-.453-.472-3.046,6.859-3.544-8.322,1.158.257Zm-7.026-2.687L89,95.84l6.283,2.309Zm-7.518-2.861-.006.011-2.228-9.883,6.109,3.258ZM86.2,85.932l1.9,8.839-6.083-3.245Zm5.019,19.31-6.666-2.494,3.9-6.651,2.347,7.748ZM85.915,85.3l-2.7,3.614-1.456,1.948-1.32-8.969Zm-4.49,7.083,2.24,9.933-3.96-2.178-2.53-1.391,1.507-2.257Zm1.868,10.42.4.221-.416.741L79.6,110.3,77.181,99.441Zm1.294.605,5.476,2.049,1.2.447-3.62,7.016-.258-.8Zm18.975,11.442-3.822-7.1,6.573.476ZM98.735,107l-4.638-1.03-1.961-.436,3.531-6.8,1.778,4.79ZM84.878,76.614l1.09,8.005L80.52,81.23Zm-4.953,34.35,4.106-7.305,3.074,9.583-3.147-1Zm8.172,3.151,7.193,1.355-3.318,6.964-.333-.715Zm4.464,9.339,7.748.077-2.916,6.692Zm8.136-.9-4.15-6.58-.252-.4,6.873.27-.141.382Zm8.22-1.138-4.729-5.625,6.724-.824-1.545,4.994Zm-4.841-6.221,2.743-6.6,3.987,5.779Zm2.195-7.572-5.655-.409-.934-.068,3.356-6.793,1.48,3.328Zm-2.724-8.247L107.1,93.03l.41-.731,2.758,7.625Zm2.463-5.638-2.878,5.138-1.611-5.182-.946-3.041L107.1,91.8Zm-3.4,5.49L96.18,97.778l3.877-6.759ZM95.27,97.5l-6.277-2.307L92.972,88.9l2.181,8.16ZM86.776,85.731l5.865,2.559-3.964,6.268ZM84.62,76.006,80.3,80.575,79.842,73ZM76.331,98.184l-6.319-4.559,4.7-6.028Zm-4.558,8.171-1.788-12,6.349,4.581-2.471,4.021Zm.254.743,4.579-7.45.8,3.594,1.638,7.345-3.379-1.679Zm12.511,5.965,2.6.824-2.4,4.574-1.57,2.989-3.214-9.842Zm-.963,8.907,3.982-7.579,3.086,6.627.825,1.772-7.274-.754ZM91.51,123.4l-3.486,7.246-4.383-8.062Zm-2.975,7.582,3.486-7.246,4.87,6.821-.112.006ZM103.7,116.149l4.76,5.661-7.231,1.049Zm5.8,5.416,1.99-6.432,3.107,2.627,1.854,1.567Zm7.411-2.642-4.951-4.186,6.906-2.053-1.4,4.467ZM104.482,102.1l-.944-2.122,6.7.549-3.463,6.728Zm-8.666-4.906-.144-.538L93.519,88.6l6.169,1.847Zm-8.99-12.1,3.638-4.877.679-.911,1.541,8.344ZM87.26,83.5l-.7.944-1.091-8.011h0L90.842,78.7Zm-2.5-8.118-4.749-2.988,4.428-3.766ZM79.7,80.619l-5.058-4.127,4.593-3.48.308,5.049Zm-.1.7L75.315,85.97l-.154.167-.655-8.975,4.16,3.4Zm-7.581,26.45,5.946,2.955,1.094.544-4.526,8.276-.313-1.467Zm4.525,9.358,2.861-5.23,3.239,9.921-7.776-1.627Zm24.321,6.632,5.526,5.58-8.445,1.121Zm15.823-3.875-1.04,6.525-5.944-4.277Zm.871-1,1.929-6.156,4.365,3.216Zm4.287-1.334,2.238-1.045-.662,6.025-5.683-3.062Zm-10.567-3.562-3.984-5.774,6.79-.594-1.422,3.225Zm-.5-14.431-1.189-3.287L108.01,91.9l7.1.343-1.116,1.886Zm4.966-8.289-2.213-7.888,7.757.072Zm-.526.37-5.062-.244-2.045-.1,4.907-7.5,1.633,5.818ZM93.566,87.981l4.388-6.56,1.611,7.59.174.817-.006,0ZM85.592,75.827l4.545-5.34.822,7.6Zm-.233-.662-.32-6.752,2.631.82,2.164.674Zm-3.718-4.952L79.87,71.719l.275-3.117.28-3.17,3.792,2.591Zm-2.385,1.568-3.969-3.727,4.529-2.612Zm-.222.622L74.5,75.836l.532-7.186ZM74.554,86.143,72.671,84.5l-3.745-3.274,4.967-4.13Zm-.059.753-.556.712L69.812,92.9l-.983-10.953,2.609,2.281ZM62.9,88.974l6.268,4.777-5.179,7.394-.64-7.159Zm1.286,12.944L67.14,97.7l2.251-3.214,1.8,12.108-3.606-2.4ZM88.143,131.9l5.442,6.308-8.25,1.105.531-1.4Zm.068,7.639,5.529-.741-2.3,6.934L85.524,139.9Zm5.882-1.669-1.362-1.579-4.057-4.7,8.313-.423-.27.627Zm12.79-8.893-5.475-5.528,7.225-1.048-1.557,5.853Zm18.16-13.568,2.463-5.555,3.211,3.033Zm-5.105-4.954-.678,1.27-4.107-4.28,7.389-1.86Zm-1.171,1.632-6.885,2.047,1.385-3.142,1.4-3.177,3.491,3.638Zm-4.684-5.069-1.415.124-5.394.471,2.51-4.877.938-1.823,2.306,4.188Zm-2.875-6.479,7.289-.5-3.915,6.629-3.287-5.97Zm.06-.612.328-.554,3.991-6.747,3.012,6.8-1.386.1Zm4.807-7.7,8.081-.693-5.05,7.533-1.728-3.9Zm14.762-10.505-2.078-6.452,6.413-.034Zm-.5.419-7.792.655L128.23,75.6ZM93.248,87.366l-.855-4.633L91.7,79l5.918,1.822ZM90.71,70.148l5.577,1.313-4.752,6.312-.4-3.685Zm-5.462-2.3,4.419-5.095.368,6.586Zm-.175-.722.31-5.07,3.91.2-.687.792ZM63.4,101.427,56.385,97.15,62.3,89.139Zm.746,1.2L69,105.858l2.174,1.448-5.288,8.054-.8-5.845ZM74.9,120.82l7.759,1.623-3.852,8.151-1.952-4.881Zm9.559,10.811,3.14-.013-2.17,5.728-.645,1.7-4.664-6.38-.742-1.015ZM83.3,147.85l-6.149-6.541,7.361-1.262Zm1.258-4.151.526-3.391L89,144.173l1.989,1.962-7.115,1.959Zm22.918-14.58.876-3.294.876-3.29,5.451,3.922.521.374-2.829.838Zm16.579-6.728.65-5.923,2.624,1.319,2.023,1.017-1.653,1.12Zm1.1-6.373,5.672-2.521-1.093,4.824-4.006-2.015Zm6.79-2.753,4.959-.1-2.993,2.18Zm-8.738-7.645,3.64,3.594-6.88,2.467Zm1.537-13.877.259.43,3.142,5.224-8.424,1.839Zm.687-.033-.2-.329,8.517-1.933-5.114,7.592Zm8.534-2.932-8.523,1.935,5.271-7.727,1.835,3.268Zm4.985-8.613-7.533,1.774,1.6-2.4,2.722-4.072,1.709,2.5Zm-3.574-5.537-6.295.034,5.324-5.291ZM122.04,82.454l-.291-1.443-1.242-6.167,7.237.395Zm-.539.394-6.15-.057-1.585-.015,6.2-7.57.3,1.506Zm-8.892.47-4.908,7.5-1.982-8.292h.011Zm-7.778-.936L101.748,87.2l-1.464,2.285L99.989,88.1l-1.5-7.047.307.065ZM91.818,78.4l4.79-6.363,1.128,8.185ZM90.9,69.569l4.957-6.26.619,7.573Zm-13.833-8.1L79.714,64.8l-4.421,2.549ZM73.9,75.8l-4.5-4.533,5.038-2.738Zm-4.726-3.9,4.531,4.565-4.913,4.085.285-6.473Zm-1.132,9.349L62.8,87.527l-.566-11.59.926.846ZM55.673,84.967l5.963-8.826.571,11.7-2.044-.9ZM56.287,97.8l7.016,4.276-6.184,7.636-.54-7.725Zm18.085,23.326,3.961,9.908-9.075-.287Zm9.966,18.335-7.159,1.228-.242.042,2-8.665Zm-6.839,11.6-.6-9.129,6.1,6.487-2.641,1.27Zm9.526.048-2.893-2.457,7.08-1.949-.945,7.159Zm7.9-12.483,3.934-.6,5.029-.767-2.494,6.388-1.622-1.259Zm19.237-4.189-9.326,2.031,2.362-6.446Zm2.43-7.511,6.813-3.437.378,6.528Zm17.717-11.113.1-.075,2.989-2.177-1.042,4.862-1.01-1.286Zm1.251-3.222-3.631.071,3.844-4.482,1.655,4.375Zm-4.324-.052-3.2-3.021,7.032-1.448Zm.5-9.242-4.354,5.587-3.645-3.6Zm-9.113,1.642L115.2,106.8l3.878-6.567.182.242Zm11.819-16.564L133.4,86.529l-2.2-3.916,7.634-1.8-1.828,3.14Zm-6.417-13.726-7.172-.391,6.688-6.427ZM103.153,81.41l-4.53-.953,5.135-6.972,1.2,8.305ZM90.5,61.732l4.785-6.368.482,6.823Zm5.007,1.04-4.885,6.169-.37-6.622,3.451.3ZM80.773,64.143l2.08-5.545,1.834,3.039Zm-.7.139-1.506-1.892L77.41,60.936l4.825-2.415Zm-5,1.708-.412,1.368-2.494-3.1-.549-.682,4.843-2.2Zm-5.592,4.543-.084.045,1.869-6.469L74.318,67.9ZM68.186,80.556,62.4,75.274l6.17-3.545Zm-6.888-5-5.883,8.707-1.084-8.261Zm-5.6,22.448.833,11.923-5.052-3.141-2.063-1.282Zm1.624,12.422,1.286-1.588,4.947-6.108,1.757,12.858-1.766-1.141Zm8.8,6.313,7.876,3.8-4.535,8.533-.571,1.075-.71-3.439ZM76.875,150.8l-7.271-6.61,6.661-2.646Zm.91.8,5.465-2.628.144,1.185.824,6.757-5.268-4.351Zm7.442,6.836,6.05,4.266L87.9,165.775Zm-.041-.771,5.076-2.738,1.091,7.086-1.6-1.126Zm6.819,4.6-.5-3.219L90.9,155.1l7.272,5.085Zm-.2-15.44L98.6,151.6l-7.745,2.42Zm.505-.386,8.779-1.9-1.982,6.678Zm-.285-.558,2.3-6.947.858.666,5.638,4.376-1.973.427Zm9.984-2.152,2.5-6.411,7.689,4.357-.474.1Zm12.691-9.665-.1-.061-6.84-4.336,7.752-2.3-.781,6.413Zm9.3-10.649,6.776,1.85-6.4,4.653Zm6.329-4.322,5.46.291.1.005-4.271,5.095-1.142-4.771Zm6-11.148,6.958.689-5.282,3.742ZM129.3,97.136l5.127-7.611,3.75,5.575-1.552.356ZM143.729,86.35l-8.676,2.165,4.435-7.617Zm-7.514-11.264,2.3-.793,3.358-1.159-2.5,6.574Zm-22.891,7.275-1.317-8.19,7.525.605Zm-.555.367-6.883-.791,5.574-7.351.592,3.679Zm-9.343-9.813-1.776,2.411L98.3,79.876l-.013-.092-1.12-8.131,4.543.914ZM95.855,54.845l6.312.147-5.823,6.771Zm-7.044,1.441.765,5.379-3.951-.207,1.531-2.486Zm-11.2,3.874,2.814-5.732,1.944,3.351ZM62.45,74.549,65.276,66.5l3.188,4.594ZM48.634,105.085l-6.047-2.962,5.673-6.975Zm16.589,11.171-6.8,6.948L57.234,111.1Zm.294.565.821,3.971,1.978,9.575-9.664-6.535Zm12.891,14.822-.5,2.176-1.519,6.6-6.994-9.056Zm-9.074,12-.249-11.694,6.969,9.025Zm14.813,13.993L82.3,159.3l-1.97,1.772-2.536-8.681Zm-1.325,2.007,1.658-1.491.486,1.331,2.225,6.106-6.513-4.018Zm8.82,3.541,2.068,5.1.548,1.352-5.971-3.389,1.689-1.542Zm.751-.41,6.145-2.065.013,6.815Zm6.172-3.048-1.444-1.01-5.948-4.159,1.11-.347,6.671-2.085-.047.925Zm3.148-15.154,8.263,4.243-10.257,2.475Zm.722-.31,10.182-2.052-1.959,6.275Zm5.723-5.575-2.96-1.677,9.328-2.032-1.662,6.376Zm19.99-29.811,4.346-5.575,2.867,4.09Zm3.842-6.269-8.122,2.019,4.757-6.512,2.064,2.756Zm-2.847-4.812,8.734-2-5.36,6.508-1.7-2.267Zm17.877-20.037-2.869,8.15-4.211-5.414,2.049-.792Zm-8.726-4.03-1.825.63.707-1.1,1.569-2.432.843.5,2.078,1.234Zm2.649-2.3-1.87-1.111,1.99-3.106.9,4.822Zm-2.413-1.387-3.084-1.27,5.043-1.786Zm-18.695-3.776,7.3,1.1-6.748,6.485Zm-8.742,7.8-2.975,3.923-2.6,3.43-.643-4.439-.566-3.909,2.43.356Zm.1-2.466.127,1.887-6.769-.992,6.23-7.033ZM97.049,70.5l-.623-7.633,2.932.388,3.278.434Zm5.5-15.021.122,2.671.227,4.963-6.208-.822Zm-8.29.244-4.131,5.5-.79-5.548,5.517-.741ZM85.1,61.151,83.309,58.18l-.076-.126,2.575-1.035,2.445-.982ZM76.5,60.7l-4.736,2.148,2.607-5.5Zm-7.254,8.216L68.787,70.5,65.653,65.98l5.017-2ZM53.3,76.19l-5.319,7.8-.864-6.4Zm.487.361,1.08,8.232-6.522-.247,2.279-3.344Zm-5.673,8.582,6.522.247-.611.844-5.26,7.265-.136-1.74Zm1.146,21,7.1,4.415L49.384,116.8l-.08-7.139Zm7.363,5,.492,5.029.695,7.1-8.24-5.811ZM95.018,169.9l-.94-2.319-1.618-3.992L98.3,168.1l-.848.466ZM132.1,124.854l4.37-5.213,3.168,5.46Zm4.821-6.185,1.139-5.312,4.859,3.412-1.626.515Zm6.4-2.355-4.94-3.469,5.4-3.822-.278,4.453Zm-6.769-8.96,3.376-3.237L142.145,102l1.577,6.067Zm4.865-5.5-5.5,5.278-1.658-2.366-1.222-1.743,4.223-.589Zm-6.5-12.679,8.668-2.164-4.92,7.735Zm5.053-9.342,2.536-6.674,4.444,3.976ZM139.762,66.6l-4.747,1.682L136.184,63l4.4,3.313Zm-4.215-3.528-1.176,5.313-5.762-1.345,3.171-1.814ZM119.805,74.19l-7.484-.6,6.933-6.992Zm-9.363-9.262-2.994,3.38-3.25,3.669-.047-.592-.6-7.563,5.172.83Zm-8.93-10.557-5.36-.125,5.061-6.253.584-.722.682,7.123Zm-2.779-4.277-3.022,3.734-1.085-6.073,6.692-.856ZM76.906,60.215l-2.138-3.365,4.973-2.407ZM64.711,66.281l-2.825,8.046L59.421,67.7l1.022-.275Zm-6.083,1-5.835,1.5,4.1-6.6Zm-6.6,2.692,1.316,4.6.265.925-6.157,1.4,3.071-4.644ZM41.108,85.057l-.5-5.144L46,77.966l-1.534,2.225Zm3.61-4.169,1.87-2.712.863,6.387-5.914.938Zm2.834,4.766.65,8.333-6.2-.766,4.2-5.736Zm.4,8.912-2.094,2.574-3.5,4.3L41.786,93.8ZM42.126,111.45l.182-5.808.092-2.936,5.355,2.623.67.328-3.565,3.278Zm6.535-5.187.075,6.668.044,3.937-6.5-4.735,2.351-2.162Zm10.87,29.649-.993-11.426,9.65,6.525L66.451,132Zm10,9.029,7.208,6.552-5.058,3.516L69.8,146.179Zm2.478,10.578,5.043-3.506,2.588,8.857-5.622-3.943Zm8.928,6.923,6.412,3.955-2.45,3.774-1.221-2.383Zm14.51,7.911,3.25-1.783,2.073,5.343Zm3.7-9.221,6,7.307-5.986-.577Zm.541-.3L110.2,163.8l-4.346,4.557Zm10.762-11.516-1.311,6.419-8.918-3.951Zm12.6-3.014-1.558,6.288-9.621-3.616Zm-.594-.481-9.929,2.374-1.24.3.1-.323,1.862-5.965,4.24,1.666Zm-8.112-7.756.8-3.085,8.345,3.447-10.008,2.935Zm10.083-7.191,2.268.58,6.193,1.585-8.2,4.913Zm.381-.528,6.486-4.716,1.938,6.871-5.338-1.366Zm8.691.872-1.628-5.772,7.658.251-5.724,6.605Zm3.467-11.934,6.107-1.935-2.95,7.377Zm-2.648-17.06-1.086.152,3.539-4.3,1.863-2.262,3.178,5.362ZM144.727,86.1l2.911-8.27,4.251,4.892L153,84ZM142.59,72.084l-.83-4.449-.147-.786,5.359,1.723Zm-13.873-11.9,6.552,2.349-.734.42-6.392,3.657.059-.662Zm-8.4,5.541,7.779-5.345-.575,6.433Zm-12.878-1.894-3.583-.575,4.055-4.019,2.735-2.711.086,7.832Zm-.916-4.071-3.033,3.005-.072-1.579-.281-6.135,7.154.973Zm-3.464-5.718-.691-7.211,7.478.565ZM94.106,48.29l.967,5.409.1.577-4.268.574-1.29.174,3.2-4.793Zm-7.822,2.642-3.5,6.358L80.818,53.9l4.312-2.344ZM71.118,62.79l-2.1-3.967,4.73-1.586Zm-.411.52-4.565,1.822-.352.141L68.6,59.327ZM64.79,65.633l-5.171,1.389,3.388-6.315,1.133,3.129ZM57.367,61.7l5.1-1.27L59.083,66.74Zm-5.621,7.391-3.488,1.33-2.306.879,4.1-6.591Zm-.38.793-.727,1.1-3.746,5.665-1.3-4.561L49.5,70.59Zm-4.953,7.291-5.4,1.952,4.1-6.491.209.731Zm-.3,9.426L41.7,92.618l-.351-4.644-.137-1.807,5.9-.936Zm-4.327,16.438-.267,8.523-4.41-3.408,3.65-3.991Zm7.011,14.951.162,10.454-7.71-6.143Zm.77,10.568L49.4,118.06l.336.237,7.884,5.559-7.87,4.589Zm16.288,4.476,2.618-1.482.254,11.9-8.137-6.393-.774-.609Zm2.633,11-7.1,3.709-1.694-10.618Zm7.962,21.9,3.652-3.8,4.061,7.922Zm15.976,7.556-3.8-6.358,5.811,3.3-.946,1.438Zm8.464,1.228L98.9,176.29l-3.043-4.937ZM151,113.457l-2.222,9.762-4.727-6.239Zm-7.074,2.907.267-4.27.2-3.163,6.427,3.939Zm.37-8.48-1.318-5.069-.274-1.053,8.382.753ZM139.288,94.9l2.533-3.983,2.442-3.838,4.405,6.458Zm5.46-8.184,8.27-2.094-3.88,8.529Zm2.48-10.154-.869-.778-3.506-3.138,4.44-3.557-.043,5.027Zm-5.544-10.328,2.666-4.3,2.7,6.021-3.381-1.087Zm-4.926-3.567,7.038-.984-2.656,4.28Zm-7.418-2.9,8.224-3.012L135.8,62.08Zm-10.472,6.362L111.9,73.149l-.542-8.08,6.262.883ZM102.681,46.249l6.326-6.763,1.166,7.329-5.923-.448Zm-8.795,1.066L88.717,49.23l-.975.361,4.344-7.365.043.122ZM93.5,48.1l-1.334,2-3.1,4.646-.568-1.53-1.065-2.87,2.15-.8ZM56.249,62.073,52.2,68.586l-1.7-4.379,5.311-1.972ZM40.337,79.057l-1.472-3.476,5.5-2.888Zm-.277,1.476.5,5.145-5.1,1.205.31-.427ZM36.828,108.7l4.411,3.41-6.349,3.268,1.1-3.776Zm21.093,15.683.99,11.386-.4-.3-8.686-6.367Zm3.811,23.862,7.1-3.707,2.2,10.286-7.387-5.229Zm4.976,10.593,4.634-2.876,3.965,9.311-9.646-5.786Zm18.612,11.8,2.444-3.766,3.9,6.531Zm14.46,5.723,1.53-1.208,2.082,3.744-4.028-2.208Zm1.833-1.96-1.985-5.115,5.548,5.275-2.048-.092Zm4.786-5.738,1.871-1.962,2.437-2.556,3.954,7.075-1.412-.437Zm4.668-19.343,9.634,3.621-10.948,2.811Zm12.148-3.851-9.221-3.623,8.884-2.6,1.171-.343-.777,6.124Zm1.046-3.427.4-3.175.233.067,9.445,2.721-10.512,3.786Zm15.832-16.063,3.4,7.762-9.214-1.049Zm.567-.951.325-.813,2.694-6.736,4.714,6.222-6.157,1.056Zm10.5-12.665-6.509-3.989,6.893-5.45-.311,7.652Zm-8.8-11.455-3.19-5.381,9.237-1.342-.512.569Zm5.474-24.2.05-5.765.016-1.877,5.652,4.414ZM119.828,65.323l.211-7.329,7.685,1.9Zm-.613.24-5.991-.844-1.461-.206,7.662-6.25-.138,4.815Zm-.154-7.785-7.73,6.305L111.275,59l-.031-2.819.944.193Zm-8.443-2.319-6.517-.887-.632-.086,6.792-6.652.327,6.989ZM102.2,45.877,100.731,39.3l7.766-.156Zm-7.835.97-1.817-5.136,7.04-2.154Zm-7.715,3.2-5.519,3,3.615-6.914.725,1.49ZM74.365,56.027l-.739-1.755-.847-2.01,4.715-1.988Zm-6.322,3.064-2.819,5.961-1.763-4.87,4.1-.977ZM45.235,71.3l-1.952-3.5,6-3.017Zm-4.53,2.628-1.459.767,3.616-6.407,1.942,3.486ZM40.144,86.4l-4.975,6.66L35.039,87.6Zm.662,7.411-1.681,2.2-3.363,4.4-.012-.14-.533-6.054L39,93.943Zm-5.444,8.276.414,2.551.536,3.3-.65.1-4.247.628,2.2-3.661Zm.876,6.471-1.414,4.873-.5,1.726-3.034-5.867Zm4.139,14.133-.586,9.4L33.02,125.2Zm.006,9.638.034-.541.557-8.93,2.3,1.832,5.4,4.3-.372.15Zm18.287,4.017-8.336,3.735-.718-10.372Zm.363.5,1.708,10.707L50.677,140.59l.5-.226Zm11.9,18.656-5.693,3.533L61.749,149Zm-5.046,4.828,9.536,5.72-4.41,3.568-.366-.664Zm19.86,11.159,6.261,2.728-1.665,3.748Zm18.388,8.776,1.01,1.916-1.89-.586Zm.9-.173.89.119,1.405.188.6,2.514Zm-.4-.664-.278-.037-1.486-2.672-.353-.635,4.106,3.61Zm-2.386-4.388,3.5.157.139.453,1.087,3.542-3.108-2.732Zm10.036,1.275L106.7,169.4l8.14,2.519ZM134.934,141.2l-9.774-2.816,8.292-4.969,1.09,5.724Zm5.676-15.544,7.794-1.336-4.412,9.065Zm8.743-2.209.378-1.66,1.869-8.213.977,1.215,4.654,5.788-4.788,1.744Zm2.416-11.091.111-2.729.275-6.767L159.228,108l-7.328,4.282Zm4.7-30.1-2.583,1.4.407-8.024.072-1.413,6.017,5.92ZM143.652,61.093l-7.221,1.01.49-1.482,1.278-3.862,4.33,3.441Zm-14.843-1.78.771-6.5,7.662,3.414Zm-17.6-4.087-.36-7.7,8.19,1.861L115.7,51.884ZM91.347,42.288l-.837,1.418-3.437,5.826-.736-1.512-1.184-2.432,5.36-2.857Zm-13.178,6.64L76.722,45.8,81.2,42.155ZM67.085,53.623l.356,1.5.782,3.3-.679.162-3.866.92.523-.9ZM62.7,59.744l-5.084,1.266,3.879-6.4.084.359Zm-1.762-5.387-3.882,6.407-.648-1.946-.9-2.694.02-.007Zm-6.594,2.264-3.861,6.234-.346.559-2.022-3.948,1.71-.781ZM49.7,63.9,47,65.256l-3.36,1.689,4.047-6.99ZM34.754,81.715l-.881-.5-1.627-.931,5.344-3.828Zm-.2,1.19-.114,4.17-3.719.171-.367.017Zm-4.662,4.986,4.192-.192-4.594,5.778Zm4.7,28.685,5.565,5.551-7.275,2.484,1.155-5.429Zm4.9,16.062L31.7,134.9l1-9.157Zm21.495,15.98,3.537,10.163-10.946-6.823Zm20.309,26.942L77.8,179.074,71.888,170.9Zm3.6-4.246,4.717,6.648-7.341-2.642Zm14.034,6.04,2.124,2.693.956,1.212-4.126-1.024Zm8.006,7.715-.648-1.827,1.679.725-.692.74Zm4.113-3.975-3.215-1.2-1.147-3.739Zm-4.765-6.414-.107-4.985,5.306,6.575-3.976-1.216Zm10.964-3.919,4.4-3.054,2.018,6.95-7.716-2.994Zm3.34-11.094-10.156-3.454,5.791-1.487,5.142-1.32-.021.165Zm3.824-13.782,10.581-3.811-.628,7.063Zm11.124-4.831-1.176-6.177-.3-1.6,9.215,1.049-.806.7Zm13.849-16.969L155.091,122l2.164-.788-3.459,10.794-.353-.631Zm8.17-4.088L151.9,112.98l7.48-4.371-.886,5.488Zm-5.193-17.745L160.4,94.6l-.884,12.86Zm-.33-.523-2.413-7.653,5.768.036,4.629.029-6.115,5.812Zm8.443-8.789L154.4,84.8l-.393-.528,6.57-3.557-.012,1.329ZM148.055,68.426,150.426,66l1.518-1.552,1.692,8.335Zm2.308-3.227L147.7,67.927,144.95,61.8l6.62,2.169Zm-5.41-4.04-.1-.033.839-1.379,1.985-3.263,3.809,6.815ZM125.171,54.3l-5.121,2.8,0-7.441,8.514,2.779Zm-13.94-7.3,7.336-5.573.835,7.429Zm3.879-3.708L110.751,46.6l-1.174-7.384,4.689.992,3.833.811Zm1.151-10.151,2.116,7.321-3.014-.638-5.495-1.162L113.5,35.52ZM100.43,38.416l-2.483-5.739,7.922-1.226Zm-.488.4L92.813,41,97.471,33.1Zm-8.2,2.577-1.591.848-4.721,2.516,3.811-7.91.541.982ZM76.309,46.353l1.268,2.739.19.41-4.625,1.95,1.451-2.336ZM74.572,48l-1.938,3.12-.258-4.861-.021-.4L75.816,46ZM71.78,46.475l.285,5.364-4.237.582,1.18-1.775Zm-5.166,6.751-3.432,5.927-.725-3.092-.47-2,.755-.136Zm-6.645.808-4.161,1.355,4.4-7.262,1.061,5.484Zm-4.787,1.218L53.3,50.54l6.315-2.61Zm-2.322-4.188,1.878,4.71-6.3,2.876ZM34.385,82.2l-4.157,4.314,1.642-5.753ZM28.833,94.088l-4.04-.551,4.444-5.059Zm6.142,7.466-4,6.655L29.8,101.834Zm-3.457,9.5,2.431,4.7-5.88,1.167,2.794-7.133Zm2.493,5.306-.164.774-1.522,7.15-4.249-6.745Zm6.39,17.087,9.038,6.993-8.324,3Zm.253-.57L49,129.514l.436,6.294.282,4.073L46.9,137.7Zm9.9,8.369,9.986,6.909-7.41,3.34-1.224-4.867Zm14.41,18.665,5.189,9.4-11.044-6.1,1.1-.623Zm16.805,16.026,2.4,3.045,2.776,3.52-8.63-3.081Zm.919.187,7.278,2.619-2.172,3.856Zm9.8-1.477,2.077,2.62,2.106,2.658-5.841-1.547ZM102.45,182l-.338,2.972-3.722-3.98Zm.516.818.046-.4,3.041,2.93-3.376.011Zm.944-.38,1.611.5.567,1.6-.558-.537Zm8.851-5.733,2.522-4.34,3.7,6.879-2.846-1.162Zm8.679-9.919L119.046,166l-7.333-2.374,8.866-3.148.008.055Zm-.243-6.25,7.044,2.585,2.069.759-8.254,2.933-.4-2.891Zm8.062-2.376,2.955-.782-1.24,6.1-9.139-3.354Zm3.143-1.6-9.688-3.513,11.475-3.072-1.011,3.726Zm2.968-12.038.224-2.52,10.83,2.446-11.459,4.631Zm.6-3.056,4.5-3.915,3.355-2.916,3.142,9.317-4.317-.975Zm8.523-7.734,2.012-4.135,2.443-5.019,4.437,7.947-1.51.205Zm11.513-6.65,1.8-5.629,4.8,8.129-8.276,2.711Zm4.1-19.481.879-12.79,6.4,10.475Zm.952-14.553.116-12.219,6.389,5.032Zm-2.9-15.941-3.606-3.547,2.751-2.079,2.233-1.688L160.5,79.4ZM84.718,44.836,83.2,42.445,82.407,41.2l6.051-4.127ZM67.444,51.9l-.408-5.79,4.412-.234Zm-.561.658-2.661.478-1.975.355,4.229-6.631.334,4.747ZM44.829,55.071l7.28-3.92-4.443,7.628-1.733-2.266Zm-4.52,8.164,4.109-7.7,2.832,3.7Zm-.288.865,1.088-.628,5.76-3.323-4.06,7.011-.957-1.05ZM42.4,67.606l-3.768,2.349-2.6,1.621,3.587-7.023.122.134Zm-9.538,9.378-1.3,2.861-2.916-2.1L34.5,73.362Zm.888-.493,1.616-3.568L37,74.466l1,.946L32.427,79.4Zm-6.138,39.942-2.255-6.761,5.018-.292Zm4.352,19.02,7.816-2.269.711,9.941L36.46,139.5Zm19.974,13.77.5,2.005L41.51,143.934l8.34-3Zm45.659,31.8,3.958,4.232-5.2-.624ZM111.867,185l-1.93-2.411-1.44-1.8,3.271,1.22.042,1.272Zm.713-7.223,3.719,5.609-3.921-1.779Zm4.539,5.749-4-6.029,1.357.554,4.731,1.931-1.038,1.76Zm2.6-4.2-3.768-7.008,7.632,2.961-2.118,2.219Zm2.553-11.6,6.095,2.434,1.62.647-5.7,3.867Zm.394-.495,8.2-2.912-.5,5.985Zm12.154-17.268,5.952,2.7,2.6,1.176-10.328,2.691Zm31.013-33.371-5.576-8.4,2.2-.7,5.025-1.6-.59,3.825Zm4.495-20.972-9-1.965,6.534-7.219Zm7.162,1.864-6.237-1.643,1.874-2.6,2.148-2.98,1.374,4.478ZM174.932,89.7l-1.489,2.065-2.568,3.562L168.483,86.4l2.593,1.327ZM154.3,73l-1.721-8.482,6.7,4.718Zm-2.088-9.644-3.835-6.862,7.936,3.244Zm-5.368-7.741-3.351.129-5.049.194,1.424-5.709,5.056,3.9Zm-17.82-3.665-8.465-2.763,8.379-4.1L129,50.495Zm-.566-7.3-6.661,3.26L120,48.779l-.69-6.144-.149-1.328,5.791,2.08ZM119,40.417l-2.12-7.336,9.589,3.429-2.147,1.123Zm-2.459-8.255L112.92,25.2l9.622,3.1ZM105.2,29.292l.888,1.511L98.1,32.04l4.372-7.4Zm-8.895,3.357-6.493,2.934,3.638-8.324,3.6,5.053ZM61.772,53.013,60.71,47.527l5.348-1.237Zm-8.153-3.258,5-8.678L60,47.116Zm-3.371-4.675,7.709-4.065-5.043,8.751Zm-.412.5L52.5,50.254l-.11.059-7.259,3.909,1.442-2.645ZM31.1,81.252l-1.693,5.933L26.16,85.764l.6-.551Zm-5.259,5.034,1.328.581,1.933.846-4.42,5.031.832-4.64Zm-1.358,7.821,4.084.557-4.306,5.9.205-5.958Zm3.283,2.681,1.081-1.481.176,3.828.1,2.114-4.6-.01Zm1.524,5.63,1.174,6.351-4.984.29ZM27.7,118.078l4.266,6.772L28,125.542l-2.316.4.015-.058Zm-1.92,8.465,6.338-1.1-.981,9.022-4.521-6.682Zm14.482,17.2-8.315,3.039-.277-10.77Zm12.516,8.572,3.485,7.081,1.505,3.059-11.985-6.959,5.688-2.586Zm5.63,11.335,6.529,9.618-11.6-5.9ZM61.917,177.3l-.565.523-7.493-9.509,11.469,5.83Zm16.841,2.921,8.56,3.056-2.919,3.4-3.165-3.62Zm26.926,5.728.827,0,.116,3.151-1.752-1.572-1.748-1.568Zm1.56,3.442-.115-3.118,2.923,2.235-.559.176Zm3.478-1.435-1.586-3.381,1.114.61,1.537.842-.812,1.47ZM112.4,182.9l2.791,4.376-2.7-1.547Zm.465-.4,3.91,1.774-.788,3.122Zm5.479.142,1.221-2.07,1.673,5.156.245.755L117.544,184ZM144.089,153.5l-8.7-3.942,11.553-4.669Zm3.414-9.885-3.122-9.259,8.931-1.212-1.824,3.288Zm6.817-10.681.038-.013,8.208-2.688-3.805,10.334Zm8.627-3.983-1.828-3.094-2.947-4.99,2.531-1.01,4.879-1.946-.655,2.745Zm3.436-11.956,1.644-10.651,5.136,8.757Zm1.382-12.27-6.381-10.436,8.978,1.961-1.246,4.066Zm8.13.4,2.1-6.4,3.064,6.325Zm-1.516-23.567,5.4,4.009L175.6,89.024Zm-.633-.117,1.242,7.6-6.428-3.289,4.467-3.718Zm-12.364-1.231,5.522-4.146.445,5.384.306,3.7Zm5.294-4.732-5.543,4.161-.844-8.47-.123-1.231,4.107,3.494ZM153.75,64.6l-1.135-.8,3.662-3.23.446-.394,2.521,8.291Zm-5.614-8.861,3.156-4.96,4.866,8.239Zm-.528-.3-6.987-5.4,10.143.434Zm-8.283-6.249-9.2-4.492,8.551-2.04Zm-.516.422-6.349,1.634-2.834.729-.042-3.361-.044-3.527,4.514,2.2Zm-19.248-8.807,2.233-1.168,5.225-2.732,1.673,6.774.11.445ZM117.1,32.519l6.017-3.868,3.506,7.274ZM106.63,30.525l-3.607-6.138,8.644.561Zm-9.141,1.357-3.6-5.06,7.94-2.274Zm-11.825-.208L92.73,27.4l-3.594,8.225Zm-.347.523,3.451,3.93-1.589,1.084-4.61,3.144.566-1.679Zm-3.474,8.416-3.341-2.6,6.04-5.421ZM71.925,43.3l-.17,1.956-4.446.236L72.377,38.1ZM35.167,71.929l-3.044-2.643,6.628-4.374Zm-3.424-2.17,3.036,2.635-.5.378-5.443,4.081.685-1.668Zm-8.107,31.4-4.008-.928,4.23-5.533Zm3.555,16.48L25.2,125.393l-3.165-7.314-.107-.247.867-.032Zm-2.372,8.4-5.48.283,2.2-7.875Zm21.236,30.3,11.879,6.9-5.085,3.734-4.12-6.446Zm15.813,21.819,3.955-3.66,6.728,8.163Zm13.3,4.193,2.576-2.386,5.024,5.747.663.758-9.282-3.175Zm13.135.566,2.158-3.832,4.651,5.3Zm22.123,6.1.084,1.2.164,2.355-3.1-2.658Zm1.733-2.417,1.572,3.879-2.636-1.952Zm8.005-6.164,4.133,2.121,1.1.563L122.16,186.6Zm10.461-2.691-5.394-2.421-.5-.224,5.616-3.812.257,6Zm9.211-16.267-8.242,1.988,1.232-6.066,7.619,3.93Zm-2.8-2.585-3.589-1.851,7.058-1.839,3.262-.85-2.623,6.659Zm33.871-31.841-3.025,10.027-4.371-7.182Zm.026-.66-7.442,2.863.222-.929,2.414-10.117,4.256,7.246Zm-4.465-8.8,1.548-.433,5.209-1.454-1.991,10-1.548-2.636Zm1.913-11.841,6.724-.016-1.634,8.694Zm-.118-.605,1.872-6.11.676-2.207,4.168,8.3Zm9.773-7.932L175.887,90.2l5.079,2.662Zm-9.773-12-.449-5.438-.3-3.612L172.7,80.26l.783.619Zm2.168-11.592L167.4,75.048l-1.176-8.2,6.571,5.668Zm-30-24.194-.479-.021-.652-6.533,10.888,6.971Zm-12.765-12.41,10.387,5.163-8.605,2.053Zm-4.305-9.172-4.609-6.785,10.422,4.786Zm-5.539-7.076,4.673,6.879-9.55-3.079,4.86-3.786Zm-14.783,3.008L107.2,18.1l4.494,6.238ZM77.484,38.234l-5.061,6.34.628-7.23,1.7.34ZM66.4,45.59,61.71,46.674,61,46.838l1.179-1.887,3.938-6.306.082,2.026ZM55.658,35.027l2.676,5.1-7.749,4.087,4.432-8.03ZM43.916,54.9,38.3,58.34l-1.767,1.083L40.677,51Zm-.335.916L39.47,63.521l-3.192-3.235,6.5-3.981ZM25.817,79.367,22.765,82.02l2.085-7.077,2.838,2.8Zm1.71-.684-.858,2.756-1.211,3.887-2.813-2.4.584-.507ZM20.769,91.491l4.362-4.678L23.97,93.288,21.846,92.1Zm2.971,2.363-4.188,5.478.973-7.283,1.35.758ZM19.682,108.01l-.264-7.2,4.032.934Zm5.224,2.237,2.264,6.787-5.093.187-.14,0,.265-.624Zm-.626,26.141,6.778-.738.272,10.58-.551-.769Zm17.17,8.233L52.3,151.865l-7,3.184-1.985-5.377Zm7.2,16.912,3.262,5.1-11.645-5.951,4.807-4.748Zm12.673,17.184,7.157,7.807-10.487-4.014Zm23.636,8.233,2.887-3.361,4.837,5.141-2.007-.463Zm11.831-1.659,5.161.62-.633,2.2-.366,1.273-3.066-3.018Zm9.759,4.819-1,3.409-3.673-3.277Zm.075,1.891.492-1.671,2.946,2.522.261.224-4.2.619Zm4.425-2.748,2.812,2.082-2.566,1.445Zm3.4,1.4L112.81,186.6l.665.381,2.233,1.281-.493.937Zm5.176-1.448-1.838-4.332,3.762,2.368Zm11.326-17.931,4.777,2.7-4.5,3.642Zm1.075-7.281,8.781-2.119-2.282,5.73-4.058-2.255Zm15.546-19.081,5.614,5.32.857.812-9.311,2.439Zm6.965,5.766-3.649-3.457-2.855-2.705,2.14-.58,8.128-2.2-3.579,8.5Zm4.355-8.788,4.408,6.062-8.113,2.744ZM176,105.733l5.18-.08-1.024,7.011-1.344-2.241Zm7.542-5.984,1.885.495.029,1.534.024,1.255Zm-1.66-6.264L185.257,96l-2.187,2.608Zm-.874-1.285-1.5-.787-3.582-1.877,2.392-1.973,1.737-1.434.589,3.745Zm-1.859-13.385.736,6.08-5.339-3.96,2.715-1.25Zm-2.24.365-2.684,1.235-.521-7.061,5.164,4.923ZM165.236,66.049l-5.262,2.738-.161-.529-2.386-7.847,4.883,3.526Zm-7.669-6.284,5.646-1.54,2.063,7.1Zm-5.367-8.64,10.478,6.618-5.658,1.543ZM128.052,36.534l7.112-2.05,3.161,7.156Zm-.67-.437-3.484-7.23,10.6,5.179Zm-3.347-7.837,4.071-1.4,1.762-.606,4.618,7.114Zm-21.58-4.7-3.413-3.992L97.9,18.228l8.689-.314Zm-.518.326L93.93,26.179l3.41-7.669,1.119,1.308ZM84.687,31.654l-.644.578L78.505,37.2l1.633-8.218.23.135ZM79.4,29.6l-1.605,8.077-1.2-.242-3.249-.652,4.733-5.612ZM49.78,44.421l-3.358-4.055,8.426-5.128ZM40.8,49.435l-.257.487-3.335-3.616,7.949-5.134Zm-3.609,2.839L32.786,55.1l4.035-8.317,3.323,3.6Zm2.668-.99-4.136,8.4L32.5,56ZM37.842,62.733l1.227,1.244-6.725,4.438,3.542-7.664Zm-6.912,7.41-2.905,7.08L25.167,74.4l1.843-1.363Zm-11,38.627,3.8-6.329.856,6.627-1.977-.126ZM18.911,125.6l-2.5-7.691,4.66-.058Zm-.379.8-4.621.6,2.119-8.3Zm.026.608-1.541,8.174-3.081-7.574Zm.855-.076,5.5-.284-.69,4.4-.645,4.119L22.3,132.632Zm4.508,10,7.072,9.873-8.346-1.268.527-3.56Zm20.718,18.588-4.822,4.762-7.268-12.169ZM52.765,167.9l7.553,9.584-11.23-5.023.848-1.051Zm4,8.66,4.049,1.811-3.342,3.806-7.721-8.755Zm12.815,10.271-4.958-5.408-2.147-2.343,10.547,4.446-1.266,1.216Zm3.975-2.977,6.069,6.342-9.483-3.065Zm1.088.26L78.7,185.5l5.141,1.758-3.162,3.16,0,0Zm15.2,9.171L86.9,196.2l-5.177-4.788Zm-.368-.707-8.2-1.9L84.4,187.56l3.076,3.042Zm4.591-3.589,1.948-3.609,3.844,3.783.42.413-.131-.012Zm7.109,1.445,2.959,2.64.768.685-5.618.009Zm9.418,3.211-.982,3.289-3.2-2.672Zm4.224-2.4.559-1.062.687-1.3.441,1.151,1.044,2.723-2.261-1.247Zm1.841-2.509,2.48,1.156-1.012,2.674Zm-.2-.76.74-2.931,1.732,4.084Zm6.146-.976,2.915-3.132-.389,5.688-2.674-2.4Zm3.78-4.026,4.193-3.986-.442,5.676-.032.418-2.257-1.279Zm9.724-9.482-4.748-2.685,6.781-2.277-1.873,4.571Zm8.279-19.07,5.57,4.853-8.17,1.748Zm.506-.362,9.185-2.406-3.565,7.3Zm22.537-15.713-3.724,9.136-4.412-6.067Zm6.571-23.476,1.109-5.9.507-2.7,4.245,7.079L175,114.618Zm7.934-9.955,1.1-4.839,1.659,2.81.649,1.1-2.437.665Zm-.314-12.7L180.7,86.3l4.29,3.568-2.558,1.789ZM179.8,79.132l4.639,4.178-3.915,1.8Zm-6.813-7.25-6.444-5.559,5.962-.586ZM139.895,42.536l8.06-.439,2.745,7.358ZM128.936,25.071l-10.272-4.716,4.862-1.934,2.128,2.617Zm-11.714-4.6-4.849,3.778-4.44-6.163,1.019.261ZM87.481,22.67l-2.466,8.474-4.565-2.679L85.6,24.219ZM73.142,36.079l.539-8.062,5.653.72Zm-.649.627-5.481.575,6.013-8.548Zm-8.044-6.275-5.685,9.214-2.687-5.123,4.941-2.415ZM41.975,37.244l3.487,3.011-7.887,5.094ZM31.536,68.718l-3.029-3.235,6.559-4.4Zm-.367.494L25.344,73.52l2.812-7.527.236.252ZM20.863,87.521l-.735,3.345L17.766,87.79l3.9-3.911ZM19.1,108.669l-1.5-.295-2.917-.573,4.155-6.41.05,1.355Zm.708.7,3.668.234,1.019.065-2.943,6.917-1-4.129Zm-3.362,7.937,2.9-7.27,1.743,7.212Zm-2.824,11.132,3.065,7.536-3.013.207-1.462.1L13.339,130Zm3.87,7.5,1.575-8.353,3.806,7.529.371.734-2.942.046Zm11.331,19.8-5.915-9.548,8.362,1.27-1.545,5.224Zm11.96,5.9L52.3,167.516l-2.113,2.62-1.572,1.949-5.167-6.9Zm31.487,26.827,7.809,2.524-3.252,2.88-6.107-5.9Zm18.158,4.21-5.054-5,7.672,1.769L91.8,190.969Zm1.771-1.222,1.42-1.751,4.27,3.975-6.853-.789Zm2.247-1.809,6.162.582-1.913,3.374-1.65-1.536Zm11.328,4.883,2.96,2.47.265.221-5.116.328Zm5.81-1.206,2.572-1.448.316,3.558Zm10.7-5.494,2.639,2.365-3,2.348Zm3.863-4.186.006-.093,2.454,1.391,1.255.712-4.114,3.815Zm4.588,1.2.482-6.194,2.715.883,1.836.6-.568.532Zm.834-6.717,4.4-3.557.071,5.011Zm5.161-4.527,2-4.882,2.741,4.495Zm18.405-22.235,5.308-1.8,2.73-.924-4.135,8.007Zm20.2-16.658-3.453,9.028-3.475-5.768Zm3.12-12.122-4.366-7.094,4.749-1.23,1.113-.288L179.43,117Zm3.264-16.43,3.413,4.848-4.42,2.05Zm.306-.617,3.461-.945-.127,4.118-.046,1.5Zm4.009-5.136,1.869.412-1.815,2.476Zm-.009-.623-.008-.894-.015-1.79,1.808,3.077Zm-6.309-21.746.19-4.641.015-.375,3.626,4.522-.883.114Zm-6.094-5.749-.065-.826-.413-5.253,5.814,5.733ZM97.806,17.625l3.4-5.652L106.5,17.31Zm-.634-.121L91.462,13.2l9.1-1.323Zm-6.308-4,5.791,4.366L89.722,20.78l-1.2.5L89.9,16.691ZM66.573,36.852l-.979-6.925,7.09-1.762ZM62.065,24.537l2.772,5.03-8.37,4.091,4.642-7.563ZM51.532,30.682l3.646,3.647-7.911,4.814-.5.3,1.523-2.8Zm-5.653,9.133-2.732-2.359-.764-.66,8.206-5.649ZM36.69,45.707l-2.759-3.349,7.115-4.674Zm-4.7,9.63-2.754-3.892L36,47.088ZM24.3,74.316l-4.4,3.731,2-7.292Zm-4.542,4.648,4.368-3.705-2.057,6.983-1.236-1.754Zm2.03,3.931-3.9,3.913L19.5,79.644l1.967,2.791Zm-1.943,9.684L18.879,99.8l-.946-.89-1.86-1.75,3.459-4.2ZM15.57,118.057l-2.083,8.152-2.027-6.929ZM12.3,136.882l4.464-.307-1.231,7.477-2.707-6Zm5.33-.34,5.082-.08.668-.011-1.242,8.394-1.368-2.521Zm4.833,10.077,5.806,9.372L21.1,154.177Zm6.827,9.67,2.463-8.331,4.458,7.463,2.828,4.735-9.44-3.744Zm10.548,5.091,7.331,9.786.535.714-10.35-4.264,1.288-3.233Zm3.938,9.537,4.405,1.815-2.6,4.868-7.6-9.069ZM61.15,186.731l3.422,3.415-10-3.46,2.925-3.6Zm11.128,3.576,3.419,3.306-9.388-2.885,3.257-3.044Zm8.393.957,5.187,4.8-8.4-1.951Zm9.792,2.267,4.333,3.8-7.238-.935Zm14.688.837-1.914,3.055L99.6,194.377Zm6.039-.591,1.792,1.309,1.164.851-3.926,1.089Zm3.576-1.867,2.823,1.557-2.506,2Zm4.819-1.475.864,1.454.615,1.035-2.482.163Zm15.965-9.284.083-.078-2.014,5.53-2.7-1.119Zm1.022-6.944,4.7-.384-4.632,5.362Zm2.6-5.951,2.7-.473,3.935-.688-3.808,5.8Zm12.013-9.271,3.385-6.936.132-.271,3.877,5.253-.133.035Zm16.85-20.49,3.481,5.778-7.158,3.241Zm9.839-13.368-2.093,8.192-3.963-6.626.028-.012,6.331-2.745Zm2.523-10.142.114-.653,3.791,5.514-5.268,2.986Zm4.976-19.655-3.449-2.575,3.282-2.295.118,3.432Zm-.812-12.73L180.1,78.582l3.776-.486.5,3.3ZM172.018,65.177l-5.985.588L163.98,58.7l4.832,3.9Zm-11.35-14.424,2.187,6.386-10.461-6.608,8.272.221Zm-9.155-.851-2.736-7.332,11.086,7.556Zm-3.168-8.4-.731-1.218-3.355-5.591,11.647,7.844Zm-1.066-.6-3.94-2.354-7-4.183,6.35-.35.444-.025,1.922,3.2ZM128.5,20.462,124.65,18.29l4.954-.344,5.838,6.428Zm-5.689-2.409-4.826,1.919-4.959-5.945,3.1,1.274ZM111.98,13.716l5.082,6.092-9.238-2.372,2.878-2.575ZM87.858,21.387,82.05,18.647l8.13-4.971Zm-8.189,6.781-5.661-.721,6.953-7.8Zm-8.645-.215L65.991,29.2l5.844-8.044.716-.986.528,7.268Zm-9.838-3.142L55.607,33.9l-1.892-1.893L51.95,30.244l6.7-3.943ZM32.135,56.5l3.206,3.671-6.625,4.447,3.072-7.293ZM17.541,88.491,19.9,91.56l-3.4,4.132-.33.4,1.045-5.771ZM14.562,108.4l4.438.871-2.9,7.268-.195-1.029Zm-2.57,14.855,1.144,3.911-3.773,1.294-.044.015,1.808-8.178Zm1.127,4.558-1.38,7.677L9.3,129.118Zm-1.63,9.17-.873,6.448-2.542-5.853ZM12,137.7l2.61,5.789.561,1.244-4.061-.454Zm44.975,45.074-2.93,3.6L46.8,178.9Zm38.732,14.551L95.338,197l-3.957-3.469,6.8.783-.352.429Zm13.2.5.253-.016-1.882,2.7-3.141-2.377Zm8.966-3.812.242,2.805-2.663-.869Zm5.032-1.478,1.607-1.26-2.034,4.045-.561-2.011ZM136.56,180.3l3.651.2-5.689,5.4Zm.426-.584,4.541-5.256-.853,5.453Zm10.057-13.469,3.571-6.18,2.676,4.92Zm6.156-2.7-2.126-3.909,7.319-1.933-4.612,6.909Zm10.591-14.784,2.628,5.117-6.684,2.736Zm18.446-18.213-3.063,8.7-2.87-5.05Zm6.83-24.2-1.609-1.264-1.228-.965,1.332-1.817.688-.939.144.878Zm-2.91-10.217,2.917-.845-.8,4.456Zm-.169-.582-.163-4.754,3.114,3.9Zm-.632-11.336.343.359,3.476,3.636-3.414,1.259Zm-5.9-12.656-5.042-4.971-.642-.633,6.374,1.533ZM163.648,57.583l-.164-.479-1.978-5.776,9.354,7.356Zm-21.57-24.969-11.052-6.47,2.421-.115,3.339-.159,5.257,6.7Zm-30.74-19.137-1.728,1.546-2.4,2.147-5.187-5.235L108.469,13ZM98.532,11.558l-7.259,1.056,3.094-5.379,5.969,4.061ZM81.747,18.123l.415-7.764,7.834,2.721ZM62.954,23.229l5.811-8.164L72.3,19.21ZM71.9,20.04l-6.608,9.1-2.786-5.054,9.109-3.918Zm-19.606,9.3,4.571-7.933,4.6,2.538Zm-1.463.907-8.123,5.591.176-.343,3.635-7.062,4.246,1.787Zm-7.878,3.792-1.181,2.294-1.678-1.1L38.97,34.5l6.471-5.3ZM34.335,43.8l1.957,2.375L29.6,50.494l3.942-7.655ZM31.618,55.855l-6.059,4.126,3.321-8Zm-6.636,5.623,2.645,3.882-5.252,3.866,1.159-3.444Zm-5.209,4.136L20.3,67l1.123,2.95-3.429,2.89Zm-.94,14.218-1.454,6.484-.082.366L15.864,82.7l.786-.759Zm-1.957,8.925-1.324,7.311-1.581-4.088Zm-1.652,9.365-1.192,8.731-2.078-5.071Zm-1.1,11.219,1.524,8.06-4.123,1.227.138-.493Zm-5.832,27.58-.287.05,1.03-6.854,2.4,6.257Zm7.918,8.531,5.737.6L20.605,153.5l-2.584-4.732Zm12.353,11.238-.554,2.631-.9,4.277-5.68-8.714Zm1.2.437,9.6,3.808-2.476,6.217L30.241,157.8ZM45.7,178.644l7.237,7.461-9.452-3.392Zm50.755,18.822h-.081l1.6-1.954.827-1.007,3.652,3.058Zm13.4.4,2.821,1.683-4.649.94Zm.676-.3.072-.02,3.736-1.037-.994,2.735-2.57-1.533Zm8.16-1.123-.237-2.741,2.468-.162-1.523,1.981Zm6.771-5.712L127,192.437l-3.771,2.739Zm2.771.674,1.667-3.938.63-1.489,2.69,1.117-4.555,3.936Zm44.308-47.715,3.4-8.884,2.174,3.824.707,1.244-3.138,1.907Zm10.1-14.636-.284-.438-3.313-5.1,5.261-2.981-1.11,5.686Zm2.49-9.084L189.083,116l-.943,7.8Zm-.02-.84.712-7.335,3.234,3.365-3.321,3.342Zm4.066-4.72-3.171-3.3,3.171-3.291v6.591Zm-.767-32.96-.15.07-3.046,1.425-.684-4.488,3.729,2.876Zm-4.318-4.21-3.525-4.4,5.149,1.9-1.436,2.208Zm-3.911-5.184L180,71.986l.678-4L185.3,73.94Zm-7.134-6.9-.549-4.118-.143-1.075,7.1,6.733ZM160.093,49.548l-2.688-1.832-8.01-5.459,7.563,1.035,2.4,4.78Zm-8.221-10.46-7.213-4.858,5.3.947,1.35.241,4.609,6.4ZM140.048,23.823l-8.979-5.7,5.178.716,6.106,6.444Zm-11.406-6.417-.524.036-4.372.3-2.758-3-2.405-2.616,1.009.529Zm-12.323-6.311-4.246,1.83-.869-.813-4.331-4.053,8.166,2.625ZM55.83,21.989,51.33,29.8l-2.787-1.172-1.532-.645,6.661-4.526Zm-14.7,6.426,7.879-6.283-2.825,5.631Zm-2.578,6.537,2.786,1.818-6.829,4.487,2-3.119ZM24.3,61.613,21.765,69.14l-1.689-4.433.465-.341ZM17.018,87.7l-2.879,3.192,1.454-7.149Zm-3.308,5.289,1.6,4.134-3.183,3.563,1.36-6.608Zm-1.752,10.4,1.854,4.525-3.76,2.866-.509.388,2.129-8.477Zm-1.327,16.34-1.79,8.1-1.973-5.679Zm-5.5,11.5,3.391-1.756L7.493,136.3ZM6.761,138.1l.547-.26-.2,3.141L7,142.86l-2.42-3.723Zm.879,4.151.226-3.63.14.322,2.251,5.184-2.7-.574Zm3.625,2.656,4.054.453-.293,1.867-.7,4.458-.982-2.173Zm15.644,19.671-1,5.368-5.524-7.718Zm10.179,3.83,7.581,9.052-9.288-3.442,1.045-3.435Zm16.978,18.837.6.549,5.624,5.171-9.1-3.095Zm1.278.352,9.708,3.36-3.475,2.371-4.621-4.248Zm10.35,3.655,4.074,3.675,1.589,1.433L62.243,193.6Zm1.245.307,9.169,2.817-.667.434-2.846,1.85-1.762-1.59Zm6.389,5.347,3.462-2.25,3.814,3.316,1.147,1-8.433-2.056Zm18.848,3.675-4.27-3.527,7.148.923-2.865,2.592Zm1.976-.971,1.607-1.454,3.625,2.832-6.447-.278Zm6.123,1.306-3.632-2.838,6.013.1-2,2.3Zm3.079-2.621,3.158,2.389-5.5.3Zm10.7.8.962-2.647,2.647.864-1.688.834Zm7.274-5.072.12-.156.582,2.085-2.774.769Zm12.608-6.688,2,.239-5.461,4.5,1.813-2.478Zm.536-.546,5.062-4.807-3.021,5.052-.731-.088Zm13.474-14.772-1.006-4.5-.133-.593,6.19-1.248-3.789,4.759Zm6.547-7.37,1.919-2.875,2.557-3.83.121.445,1.179,4.349-4.941,1.635Zm6.266-2.419-1.31-4.829,5.775-2.364.776-.318-.454.651Zm6.083-8.836-2.638-5.135,7.062-3.2-1.376,2.591Zm5.481-8.847,3.393-2.062,2.751-1.672-4.362,8.381Zm10.554-13.985,2.323,3.83L179.9,139Zm1.936-9.415.094-.482,3.038,3.881-4.662,4.437Zm4.8-15.154-.819-5,2.7.54-.62,1.472Zm1.822-5.085-2.661-.533.279-1.559.5-2.818,1.1,2.884Zm-1.47-13-.2-1.9-.36-3.451,3.266,4.223ZM188.3,80.591l-3.762-2.9.286-.439,1.305-2.007,1.013,2.495ZM171.381,58.323l-9.115-7.168,7.576,2.112,1.434,4.708ZM161.1,50.2l-1.086-2.166-1.987-3.966,10.649,8.244ZM145.786,27.605l4.714,1.354,6.174,6.684ZM128.222,16.5l-9.988-5.237,4.569-.4,1.442,1.5ZM110.789,8.681l-4.216-1.355,4.142-1.66,5.2,4.664ZM90.562,12.635l-1.923-.668L82.934,9.985,93.648,7.27Zm-21.3,2.078,11.508-4.059-7.96,8.222Zm-4.985,5.616-2.285,3.21L57.385,21l10.362-5.55ZM32.823,37.443l4.824-2.208-2.1,3.279L33.632,41.5l-.308-1.544ZM28.866,50.594l-1.495-4.323,5.36-3.181ZM20.905,63.348l-.6.438,2.577-7.574,1.642,4.482Zm-1.771,2.326-1.653,6.712-.937-3.895Zm-2.219,9.14-1.384,6.307-.73-3.769,1.4-1.684Zm-1.726,7.725-2.027,2.545,1.3-6.277ZM13.082,93.033l-1.474,7.161-.866-4.36ZM9.058,113.1l.13.454,1.545,5.39L6.983,121.35l.6-2.377ZM7.052,136.791l.189.406-2.767,1.316.471-6.24Zm3.358,7.986-.98,4.572L7.7,144.2Zm.463.731.843,1.867,2.146,4.751-4.02-1.81Zm9.535,9.116-1,6.1-4.315-7.51Zm.516.6,2.283,3.5,3.3,5.063-.236-.085L19.91,161.41l.453-2.764ZM26.755,168.7l.675-3.608,6.648,8.421-7.661-3Zm1.384-3.688,8.092,2.838.356.125-1.7,5.586-2.976-3.769Zm7.955,9.916,1.053.39L45.2,178.3l-2.212,4.064-3.174-3.424Zm47.567,24.442L86.892,197l4.254,3.513-2.25-.344Zm29.155.776-1.48,2.063-2.929-1.172Zm1.757-.636,1.466-.725,1.9-.941-.662,1.967-2.4-.267ZM118.7,197.5l.45-.125,1.934-.536-2.972,2.409Zm3.978-.017.026-1.166,2.742-1.992-.632.722ZM127.9,192.5l4.078-3.524-3.209,4.386-.337-.334Zm13.216-11.992,1.344-.2,1.773-.263-6.245,5.694Zm3.835-1.182-3.226.479,5.216-5.732-1.242,3.278Zm9.093-13.9,1.351-.447,4.3-1.421-5.886,6.829Zm17.439-19.491.422-.794.947,2.469.835,2.178-6.093,3.472Zm20.643-27.556-3.32,4.967.907-7.5Zm-2.334-4.368V107.6l2.706,1.6-1.461,2.6Zm1.56-15.037-1.476-3.858,2.859-.35-.928,5.4Zm1.267-4.8-2.847.348.2-5.093.528.946Zm-3.208-12.616,1.974-1.76,1.212,5.879ZM180.142,62.8l.041,3.748-1.534-1.456-5.327-5.054,3.321,1.345ZM170.7,54l8.321,7.691L172.2,58.93Zm-13.35-11.242-4.43-6.149,11.223,8.528Zm-5.686-7.877L146.3,28.74l9.6,7.088,1.369,1.011-.826-.288Zm-7.247-8.3-4.187-4.419L138.746,20.6l10.295,7.312Zm-14.54-9.232-5.186-5.4,10.263,6.1ZM117.285,10.74,112.36,6.326l9.341,4.023ZM100.5,3.7l9.193,1.72-3.985,1.6Zm4.433,3.923L101.123,11.1l-5.8-3.943,7.056.344ZM73.794,12.471,69.66,13.928l4.724-5.791,6.5,1.835ZM40.974,27.762l2.136-4.278,5.327-1.672Zm-2.308,4.951-.46,1.6-.555.254-3.96,1.812,5.748-6.353ZM28.448,51.24l-4.866,3.229,3.385-7.513ZM19.789,63.43l-.829-4.19,3.252-2.933ZM16.819,73.982,15,76.165l1.241-6.339.905,3.763ZM12.928,86.349l2.036-2.556L13.64,90.3l-.634-3.525ZM8.706,111.828,5.5,114.84l2.166-7.874Zm-.213,1.032L6.5,120.783,5.257,115.9ZM6.585,123.178l1.061,3.053.887,2.554-3.386,1.753,1.013-5.188Zm.284,20.6-1.485,1.906-.759-5.359Zm7.257,9.132-.878,4.577-3.113-6.375Zm.486.68.131.228,4.055,7.056-5.083-2.6Zm5.15,8.809,5.334,7.453-3.874-2-2.091-1.079Zm15.375,12.385,6.464,6.973.342.369-8.168-3.146,1.046-3.225Zm3.141,6.58,4.307,1.659-1.952,2.807-5.977-5.861ZM43.1,183.34l6.2,5.842-8.155-3.032.425-.611ZM57.568,195.1l-5.4-4.258,8.536,2.9-.681.294Zm10.578,3.381L66.508,197.2l-3.5-2.733,7.927,2.395.711.215-2.881,1.154Zm23.206,2.676-2.925,1.895-4.3-3Zm21.58-.136.722-1.007,2.61.291-3.966,1.6Zm13.011-6.35,1.528-1.744.864.857-4.124,2.864Zm34.091-30.582-1.109,4.443-4.364,1.908Zm6.03-3.6-6.287,7.13,1.12-4.485ZM184.7,135.623l-3.865,8.176-1.245-3.722Zm.79-1.935-2.3-3.789.7-.67,3.871-3.684-1.574,5.629Zm7.041-25.169-2.658-1.576,1.89-4.484.722,5.692Zm-.262-7.451.895-5.208,1.471,5.724-2.12-.463Zm.542-7.8-2.471-4.429-.2-.353,2.711-1.135-.021,2.867Zm-1.693-14.044-.1.088L189.118,81l-2.18-5.368,2.141,1.839Zm-4.782-9-.353-.2-5.186-2.936-.018-1.7-.021-1.937.3.36ZM176.322,58.373l-4.413-4.079,5.949,3.045.369.189,1.487,3.979ZM170.3,52.789l-3.131-5.153,9.34,8.332Zm-1.324-1.012-8.764-6.785-1.391-1.077.452.158,6.38,2.235,1.747,2.875Zm-15.782-15.72,5.693,1.985,5.1,6.216Zm1.008-3.986,8.194,6.916-3.147-1.452ZM137.992,19.319l4.2,1.181,5.86,5.968ZM93.263,6.742l-.3.076L82.738,9.41l4.333-5.022.838.319ZM72.1,9.975l-3.49,4.28-5.978-.649L73.2,8.634Zm-4.366,4.794-8.416,4.508-1.653.885,4.013-6.05,3.048.331Zm-7.229.015-3.921,5.91-5.623.033,6.856-4.27ZM49.7,20.779l-1.54.483-3.556,1.116,7.863-5.638ZM37.656,29.6l-2.019.9,6.226-5.875-2,4Zm-5.324,8.479.811,4.058-5.234,3.107.114-.184ZM12.1,83.457l.2,2.738L10.938,88.5l.329-1.426Zm-.827,18.167-2.549,2.593-.428.435L10.37,97.07Zm-6.9,30.185-.14,1.853-.316,4.189-1.9-3.994,1.836-1.6Zm11.612,28.3,3.255,1.667-.622,4.314-4.386-6.88Zm9.754,10.752-.6,3.678-5.245-6.692Zm24.844,19.494,5.3,4.179-7.563-2.712Zm23.345,7.323L82,199.651l-3.3,1.613-.667-.5Zm17.695,6.291,4.483.354-2.146,1.208-3.792-1.677Zm5.47-.247-3.786-2.4,6.236.269-1.969,1.711Zm4.266-2.153,5.278-.293-1.959,2.181-2.587-1.471Zm4.206,1.807,1.871-2.084.159.063,2.773,1.11-3.007.57Zm13.571-4.187,2.95-2.392-.028,1.291-1.652.622Zm3.512-.723.647-.449,1.095-.761-1.766,1.534Zm15.067-11.661,4.522-4.124.681-.62-3.285,4.321-.285.063Zm7.072-6.2.572-.752,2.948-1.04-6.448,5.645Zm4.7-2.849-1.855.655-1.307.461,4-4.028,1.8-1.816-1.734,3.109Zm4.193-6.272,4.106-1.8-6.812,6.644ZM173.744,150.9l-.061,3.708-5.077,3.61Zm.559,2.844.017-1.05.043-2.627,1.4-1.109,3.7-2.92-.865,1.292Zm14.116-28.292.031-.11,1.68,2.934-3.847,4.812Zm.29-.876,1.751-2.62,1.451-2.17-1.553,7.669Zm3.531-6.961-2.377-2.5,2.688-4.771-.2,4.693Zm.788-9.974-.051-.4-.7-5.55,2.39.522-1.464,4.862Zm.421-19.173,2.032,5.2-2.073.378Zm-.091-2.1-.806-3.909-.324-1.57,2.634,4.366Zm-2.728-8.36L187.7,75.486l-1.142-.98,1.074-2.5L190,76.741ZM167.048,46.352l-1-.533-4.481-5.462,9.175,7.964ZM152.8,29.291l-1.964-.854L146.4,23.92l6.807,5.548Zm-16.09-10.96-.162-.045-3.428-3.409L131.7,13.464l8.9,5.96Zm-2.269-1.286-8.352-4.966-1.7-1.013,1.96.286,2.779.405,1.46,1.452Zm-59-9.916L78.8,4.066l6.3.205ZM86.076,4.613,81.777,9.6,75.365,7.785l.169-.05ZM52.6,19l-1.635,1.018,2.914-4.254,6.011-1.3ZM34.392,31.715l4.514-2-2.8,3.1-2.974,3.288.289-1ZM31.549,38.2l-4.2,6.8.161-4.314Zm-5.309,8.9-2.252,5-.94,2.087-.5-4.294,1.7-1.288ZM14.51,75.518l-.388-2.494,1.4-2.651Zm-.349,1.7L13.42,78.6l-.512.959.874-4.777Zm-.411,2.058-1,4.8-.184-2.583,1.173-2.2Zm-2.994,7.322.026-.387.164-.435Zm-.249,3.829,1.031-1.749.33-.56-.256,1.11-.983,4.258-.119-2.974ZM4.936,117.09l1.228,4.823L3.252,124.48l.777-3.41Zm-1.013,22.6.764,5.39-2.331-3.689.5-.546Zm.906,6.75-.846,1.416L2.76,143.162ZM25.663,175.1l.113-.693.492-3.022,5.945,6.868-5-2.407Zm16.655,12.131,7.61,2.83-2.273,1.471-2.836-2.285Zm24.444,11.488-2.724.4-4.262-2.635Zm2.3.049,3.46-1.386,3.283,2.464,1.444,1.083-8.084-2.134Zm10.569,2.719,1.315-.642,1.921-.938,1.783,1.245,2.456,1.715-1.946-.359Zm29.856,2.881-3.053-.534,4.211-.8Zm7.663-3.1.548-.889,2.055-.774Zm12.427-7.028-3.448,2.311,2.774-2.41Zm6.851-6.186.4-.433,1.155-.254.593-.131-5.249,4.127ZM167.6,159.683l4.519-3.214-5.937,6.876Zm12.655-13.732-.5,2.948-4.018,3.8Zm5.235-10.579.536,2.425.136.615-4.271,4.572Zm.431-.854,3.563-4.457-2.91,7.406Zm9.119-24.032-1.782-1.494,1.553-5.159.137,3.975ZM193.524,87l.738-.546L195,85.9l.445,6.016Zm-1.608-7.8.753-1.673.629,2.155,1.023,3.506-.221-.367Zm.454-2.485-.81,1.8-1.888-3.774-.893-1.786.2.214Zm-4.464-5.55-.053-2.422,3.379,5.9ZM126.663,9.836,118.527,5.79l3.923.784ZM116.246,5.353l4.89,4.093L112.1,5.554l.843-.041Zm-7.2-.671-8.77-1.64,3.789-1.179,2.727,1.544ZM99.014,2.8l-3.555-.978L94.284,1.5l8.021.278ZM55.623,14.762l8.942-4.985-3.2,3.739ZM26.217,46.351l-3.061,2.314L26.863,41.8l-.156,4.181Zm-4.148,4.655.278,2.388.208,1.788L19.365,58.06l1.98-5.164ZM15.677,65.98l.224,2.364-1.318,2.5L15.669,65.9ZM7.914,103.754l-.17-3.772,1.937-2.692Zm-.925,3.375L5.1,113.994l-.27-4.017Zm-2.7,10.051-.135.591L2.827,123.62l-.5-3.725Zm-1.412,9.467L4.377,131l-2.328,2.025.622-4.766Zm3.057,20.911,3.2,3.011L8.077,153.16l-1.509-3.951Zm7.58,11.666,4.042,6.339-3.187-2.554-1.414-1.133.23-1.089Zm5.356,10.9.171-2.374,3.405,4.344,1.259,1.606L19.5,170.584Zm6.743,6.509.006-.612,4.593,4.8L25.6,177.814Zm1.083-.362,5.828,2.806.5.24-.9,2.631-.977-1.022Zm13.523,10.154-1.04,1.523-5.074-4.265Zm-.519,1.834,1.039-1.521,4.234,3.412.809.652-2.144-.9Zm10.528,4.9,3.865,1.386,2.257.809-1.275.23-.724.131-3.694-2.289Zm17.8,5.984,4.019,2.355-6.674-1.96Zm6.355,3.021-4.229-2.478,3.885,1.026,3.282.866-2.059.411Zm12.859,1.345-2.6.915-4.08-2.147Zm-1.295,1.1,2.026-.714.428-.151L92,205.332l-.483-.058Zm12.82-.257.662-.022,4.419-.149-1.651,1.349-.183-.063Zm23.236-5.466,0,.043-.027.375-2.116.953Zm25.683-18.218,2.191-2.422,2.244-1.3-4.947,4.283Zm3.94-4.13,3.158-3.08,2.281-2.225-1.9,2.7-.656.936-.573.331Zm5.185-3.888,2.578-3.676,3.522-2.247-5.549,5.388Zm36.025-54.312,1.9-4.79-.922,6.963Zm.05-1.77.292-6.843,1.512,1.268.3.256-.7,1.766Zm2.031-16.285-1.445-5.626,2.077-.379-.089.852ZM185.6,65.84l-.567-.4L180.693,62.4l-1.368-3.662,2.151,2.433ZM169.488,46.43l-8.616-7.479,3.246,1.5.751.837ZM146.524,22.539l3.948,3.914-5.08-4.14-.909-.741.9.428Zm-3.994-2.562-2.947-2.806,4.716,3.644ZM129.414,11.2l-3.389-2.623,6.351,3.569ZM117.5,4.967l-1.056-.211-2.01-.968,3.854,1.337Zm-4.493-1.194L106.648,1.95l2.835.125ZM90.11,1.742,86.9,3.724l-.176-.006L81.275,3.54,82,3.393ZM77.293,4.619,76.1,5.714,74.144,7.5l-1.321.141-4.669.5.4-.153ZM55.621,14.07l2.326-2.221L62.56,10.2Zm-.261-.589-1.836,1.754-3.11,1.383L54,14.344ZM42.7,22.995l-1.818.987-.746.405,4.39-3.591Zm-8.787,8.292-1.93,1.456,3.363-3.748Zm-1.374,1.8-4.063,5.29,1.442-3.313Zm.868-.135L32.22,37.071,28.459,39.39l2.687-3.5ZM19.019,57.268l.138-2.964,2.023-2.672Zm-.689,1.773-1.46,2.471,1.12-3.552.458-1.453Zm-4.3,11.519v-.026l.022-.069Zm-1.77,9.209-.123-.645.553-1.707ZM11.947,81.4l-.512,1.359.385-2.027Zm-7.6,30.416.263,3.9L2.7,118.357l.32-1.269ZM2.13,122.976l.3,2.278-.9,1.358-.513.77.961-5.562ZM.8,128.8l1.482-2.224-.42,3.217-.3,2.288L1.03,129.8Zm1.188,13.792.809,3.1-1.04-2.156Zm5.755,11.466-.283,1.284-2.083-4.3Zm5.3,9.035,1.457,2.03,1.21,1.686L13.138,164.1Zm11.985,12.332-.009.916-.008.838-4.374-5Zm21.928,16.521-.847.482-3.763-2.41Zm-.158.787.837-.477,3.614,2.24Zm8.683,3.393,1.985-.358,3.969,2.454-2.807-.988ZM75.809,202.5l1.816-.363,1-.2,1.463.77,2.406,1.266-3.624-.8Zm19.324,3.072,2.018-1.136,3.3,1.133-3.985,0Zm8.193-.178,1.5-1.225,2.94.515-.017,0Zm13.08-2.915.438-.2-.486.28Zm21.873-14,1.7-1.572.832-.424.1-.051-.525.408Zm34.214-31.523-1.378,2.627-1.872,1.564-1.322,1.1Zm1.736-2,2.722-2.572-3.9,4.827ZM190.8,128.375l1.587-3.053.278-.535-1.779,5.687Zm4.566-25.893,1.261.622-1.054,5.391Zm0-.674.089-.848.456-4.333.688,5.789-1.046-.516Zm.767-8.752-.307-4.163.845,3.423Zm-.9-9.924-.09.716-.6-2.057-.207-.711.515,1.176ZM178.691,57.1l-2.3-3.125,4.988,5.371ZM82.964,2.249l3.061-.293-4.52.92Zm-8.7,2.889L67.994,7.556l1.9-1.361,2.429-.587Zm-51.3,42.6.354-1.656.318-1.484,2.285-2.336ZM13.494,72.925l.007-.033v.037l-.015.046-.015.045Zm-5.068,21.4.388-.729L9.1,93.06l-.9,3.109.018-.149Zm-1.209,7.4.175,3.869-2.12,2.8,1.638-5.613Zm-1.837,4.134.228-1.661.61-1.213ZM3.1,114.26l-.135.534.037-.29ZM.723,131.153l.6,2.59-.691,1.41Zm18.819,40.7.466.533-.412-.4Zm13.224,12.439-.124-1.049,1.594,1.34,2.15,1.808-1.036-.6Zm27.72,14.277-.314-.146.5.175ZM80.3,204.245l-1.066-.373,1.451.32.41.091-.682-.032Zm10.718,1.578-.02,0h-.007l-.058-.012Zm16.112-.426,1.318-.211-.23.173Zm6.644-1.932,1.736-.646-.155.267-.021.036-.952.21Zm51.709-38.383.9-.754-1.627,1.629Zm17.354-20.025,2.455-4.012-.572,1.652-.452.566Zm3.7-5.747.233-.673.645-.972ZM129.661,9.923l-1.092-.613-.982-.552.95.387.489.339ZM22.22,48.337l-.274,1.281-1.04,1.374-.6.788L22.5,47.046ZM10.251,159.763l1.012,1.148,1.07,1.213.092.919-.686-1.035Zm28.693,28.808.072.042,0,0,.011.021-.153-.106Zm154.281-63.538-.1.778-.5,1.149Zm2.646-12.623-.2-1.248.421-2.153.114-.579Zm.342-18.423.485-.669-.014,4.633ZM139.441,16.3l.428.257.577.519ZM27.99,37.971l-1.032,2.37-.824.843-.793.81ZM7.358,98.052l-.024.193L7.142,99.8l-.034.068-.622,1.236ZM4.226,109.807l-.1.248.142-.564Zm35.845,79.54-.047-.093.539.346Z" transform="translate(0 0)" fill="url(#linear-gradient)"/>
  </g>
</svg>
