<svg id="Group_2768" data-name="Group 2768" xmlns="http://www.w3.org/2000/svg" xmlns:xlink="http://www.w3.org/1999/xlink" width="208.446" height="222.3" viewBox="0 0 208.446 222.3">
  <defs>
    <linearGradient id="linear-gradient" x1="1" y1="0.854" x2="0.151" y2="0.318" gradientUnits="objectBoundingBox">
      <stop offset="0" stop-color="#374b92"/>
      <stop offset="1" stop-color="#e72850"/>
    </linearGradient>
    <clipPath id="clip-path">
      <rect id="Rectangle_1470" data-name="Rectangle 1470" width="208.446" height="222.3" fill="url(#linear-gradient)"/>
    </clipPath>
  </defs>
  <g id="Group_2767" data-name="Group 2767" clip-path="url(#clip-path)">
    <path id="Path_1601" data-name="Path 1601" d="M208.446,42.512c0-.013,0-.025-.006-.037a.482.482,0,0,0-.015-.088c0-.017-.012-.032-.018-.048a.5.5,0,0,0-.037-.075.519.519,0,0,0-.03-.043.484.484,0,0,0-.056-.06.45.45,0,0,0-.04-.035c-.007,0-.012-.012-.019-.016a.474.474,0,0,0-.058-.029c-.011-.006-.02-.014-.031-.018l-13.5-5.468-13.339-5.4-13.185-5.342-13.034-5.281L142.2,15.345l-12.739-5.161-12.6-5.1L104.409.033l-.01,0a.523.523,0,0,0-.054-.015A.532.532,0,0,0,104.281,0c-.017,0-.035,0-.052,0a.454.454,0,0,0-.067,0,.52.52,0,0,0-.052.012.459.459,0,0,0-.063.017l-.009,0L91.582,5.08l-12.6,5.1L66.247,15.345,53.362,20.566,40.327,25.847,27.142,31.189,13.8,36.594.309,42.062c-.011,0-.019.013-.03.018a.447.447,0,0,0-.059.029c-.007,0-.012.012-.019.016s-.027.023-.04.035a.482.482,0,0,0-.056.06c-.011.014-.02.028-.03.043a.472.472,0,0,0-.037.075.426.426,0,0,0-.018.048.483.483,0,0,0-.015.088C0,42.487,0,42.5,0,42.512s0,.007,0,.011,0,.007,0,.011L.436,59.08.869,75.488,1.3,91.758l.425,16.137.422,16,.418,15.871.415,15.74.411,15.612c0,.006,0,.012,0,.017s0,.016,0,.024a.481.481,0,0,0,.015.061.4.4,0,0,0,.011.045.475.475,0,0,0,.041.085c.006.01.01.021.016.031a.492.492,0,0,0,.086.1l.014.01a.478.478,0,0,0,.086.058L15.7,177.634l12.179,6.154,12.32,6.225,12.463,6.3,12.609,6.371,12.757,6.446,12.907,6.522,13.061,6.6a.484.484,0,0,0,.06.022c.013,0,.026.011.039.014a.465.465,0,0,0,.248,0c.014,0,.026-.01.039-.014a.51.51,0,0,0,.06-.022l13.06-6.6,12.908-6.522,12.757-6.446,12.609-6.371,12.463-6.3,12.32-6.225,12.18-6.154,12.041-6.085a.49.49,0,0,0,.083-.056c.005,0,.012-.007.017-.012a.5.5,0,0,0,.086-.1c.007-.01.011-.021.017-.032a.482.482,0,0,0,.04-.084c0-.015.007-.03.011-.045a.479.479,0,0,0,.015-.061c0-.008,0-.016,0-.024s0-.012,0-.017l.412-15.612h0l.415-15.74L206.3,123.9l.422-16h0l.425-16.137.429-16.271.433-16.408.436-16.547s0-.007,0-.011,0-.007,0-.011M143.233,201.541l-1.981-5.809,11.039-5.538,2.611,5.451ZM15.119,37.128,27.256,32.21l3.615,2.682L19.387,39.571l-.581-.332ZM40.4,26.885,43.373,29.8l-11.43,4.657L30.5,33.388,28.33,31.775ZM66.2,16.431l.16.309,1.58,3.047-4.807,1.959-6.457,2.631L54.828,21.91l-.5-.668Zm38.516-15.2L116.13,5.851l-.242,1.618-.323,2.157-10.848-4.42Zm12.356,5.007,11.589,4.7,0,.01L127.517,14.5,116.508,10.01Zm63.041,25.542-2.174,1.613L176.5,34.455,165.072,29.8l2.974-2.913Zm13.212,5.354-3.647,2.086-.622.356-11.484-4.679,3.615-2.682Zm13.7,21.563-5.151,1.476L202.24,45.6l5.2-2.312Zm-1.7,64.5-.652-.226-4.319-1.5.351-14.127,5.013.943Zm-.444,16.86L204.5,154.59l-4.884-3.239.342-13.782.13.066Zm-17.408,31.381-1.121-1.124-3.329-3.337,1.182-.589,8.609-4.287,5.032,4.133-6.061,3.04Zm-166.509,0-4.311-2.163-6.061-3.04,5.031-4.133,8.609,4.287,1.182.589-3.454,3.463Zm-12.612-33.8.129-.066.342,13.782L3.943,154.59,3.56,140.056ZM2.723,108.29l5.013-.943.35,14.127-4.319,1.5-.652.226Zm-1.713-65L6.2,45.6l.361,14.565-5.15-1.476ZM162.335,179.655l-1.142-1.806,10.063-5.011,3.859,4.8-10.671,5.353ZM44,182.991l-10.671-5.353,3.86-4.8,10.063,5.011-1.142,1.806ZM149.727,28.754l2.375-3.172,11.2,4.564-3,2.941-1.09-.447ZM200.5,75.821l-5.147.661.314-13.5,5.188-1.488Zm-.378,15.235-1.024-.031-4.081-.122.312-13.421,5.145-.66ZM139.469,190.5l-.535-1.571,1.093-.544,9.2-4.584,2.632,5.5-10.934,5.485ZM9.83,151.873l4.936-3.273.295,12.687-2.011,1.651-2.887,2.371ZM8.7,106.159l-.35-14.114,5.1-.152.309,13.314-2.21.416Zm-.375-15.1L7.969,76.822l5.146.66L13.426,90.9l-4.071.122ZM7.588,61.49l5.188,1.488.314,13.5-5.147-.661ZM149.115,29.572,159.53,33.84l-1.275,1.249L156.5,36.81,148.23,33.4l-1.518-.626.483-.645Zm15.187.98,11.27,4.593-3.646,2.705L161.3,33.495l2.672-2.616Zm12.342,5.029,11.324,4.614-4.306,2.464L173,38.288l2.911-2.16Zm22.733,85.553-5.02-1.74.306-13.185,2.387.449,2.674.5Zm-.368,14.848-4.979-2.513.3-13.035,5.018,1.74Zm-97.138,67.962-8.607-4.286.685-6.639,9.779,4.833v7.016ZM60.419,181.29l1.876-3.918,2.948,1.457,6.6,3.263-2.011,5.9-10.193-5.076ZM9.093,122.172l5.018-1.739.3,13.035-4.979,2.513Zm62.443-97.6,10.24-4.2,1.175,3.661-6.645,2.738-2.99,1.232-1.533-2.957Zm22.219-9.1,9.973-4.087v4.093l-1.106.456-8.286,3.414-.271-1.808Zm21.877.386L125.751,20l-1.175,3.659-4.668-1.924-4.856-2,.273-1.821ZM84.172,24.6l9.372-3.863.4,2.669.189,1.262-4.705,1.95-4.067,1.686-.385-1.2Zm108.6,66.235-3.888-.116.27-12.444,5.188-.667-.309,13.264Zm-.038,55.948-4.993-3.311L188,131.53l.975.492,4.054,2.047ZM14.415,90.874,14.107,77.61l5.188.667L19.564,90.7v.022l-3.9.116ZM123.658,26.516l-.574,1.79L118.963,26.6l-4.651-1.928.168-1.119.421-2.812,9.372,3.863Zm1.532-1.537,9.481,3.907-1.317,2.54-.485.935-.268-.111L124,28.687l.241-.75Zm45.751,129.883-3.762-3.772.827-.4,6.855-3.337,5.2,4.276-8.293,4.069ZM67.311,166.9l1.215-2.536,4.868,2.37,3.164,1.541-2.042,5.987L65.827,170Zm-2.372,2.663-1.508-.74-7.1-3.482,2.863-4.527.48-.759,7.961,3.876-1.453,3.035ZM36.672,155.7l-8.294-4.069,5.205-4.276,7.542,3.672.14.068-3.446,3.454ZM15.393,132.974l-.3-12.882.64-.222,4.429-1.535.232,10.721.03,1.377-4.832,2.44Zm4.314-81.362,5.307,2.362.232,11.55-5.271-1.512ZM167.456,42.4l9.687,3.992L172.762,48.9,165.5,45.886l-1.764-.731L167.45,42.4ZM188.47,64.013,183.2,65.525l.232-11.55,5.308-2.362Zm-1.706,78.814-.687-.455-4.362-2.892.221-11.009,5.082,2.566-.017.776Zm-34.651,22.514-8.606,4.222-2.7-5.632,7.961-3.876.48.759Zm-57.257,18.9.084-.818.609-5.9,1.094.532,7.086,3.45v7.089Zm.371-158.952,8.5-3.524v4.211l-2.477,1.032-5.428,2.263-.311-2.077ZM188.18,77.4l-5.233.672.231-11.516,5.27-1.511Zm-.288,13.287-5.2-.156.23-11.459,5.232-.671Zm-.032,1.458-.254,11.725-5.158-.97.1-4.781.133-6.6,5.193.156Zm-.818,37.791-5.084-2.567.224-11.151L187.3,118ZM165.064,148.97,161.8,145.7l4.85-2.344,2.106-1.018,5.265,4.325-7.58,3.69Zm-44.592,23.763-6.737,3.28-.4-3.855-.3-2.9,7.346-3.55,1.219,5.633.165.761ZM52.091,154.306,55.553,150l6.8,3.284.336.162-.11.174-3.262,5.158-7.774-3.786ZM42,150.35l-7.58-3.69,5.265-4.325,2.082,1.006,4.875,2.355-3.266,3.273ZM20.575,91.68l5.193-.156.136,6.768L26,102.9l-5.158.97-.254-11.725ZM20.287,78.4l5.231.671.23,11.459-5.2.156ZM20,65.049l5.269,1.511L25.5,78.076,20.265,77.4Zm141.061,79.907-1.512-1.516-3.18-3.187,3.226-1.546,3-1.437.083.068,5.243,4.306-1.414.684Zm-12.821,14.258-7.856,3.825-2.72-5.679,4.038-1.951,3.165-1.529.955,1.51ZM47.386,144.956l-6.372-3.079-.483-.233,4.953-4.068.372-.306,3.088,1.481,3.133,1.5L48.9,143.44ZM21.144,118l5.119-1.774.224,11.151L21.4,129.94ZM95.974,30.28l7.754-3.233v4.271l-7.15,3-.36-2.4Zm62.158,19.033,7.2,3,.841.351-4.458,2.551-7.374-3.092,1.182-.877Zm-105.313,90.2-3.213-1.54L46.7,136.577l5.387-4.425,1.313.624,4.162,1.98-3.187,3.195ZM181.955,78.2l-5.277.678.195-10.513,5.31-1.523Zm-.492,24.516-5.207-.981.011-.584.181-9.816,5.24.157Zm-.484,24.16-5.138-2.594.188-10.2.753.261,4.417,1.531ZM129.15,160.247l-2.036-5.97,6.486-3.109,2.744,5.73-7.157,3.458ZM26.757,91.495,32,91.338l.164,8.882.028,1.518-5.207.981ZM38.9,69.439l-.035-2.065-.123-7.29L44.163,62.5l.129,8.49-2.371-.68ZM174.86,123.791l-1.777-.9-3.416-1.724.156-9.229,1.068.37,4.155,1.44-.155,8.41ZM32.778,80.008l5.319.684.159,9.47-5.288.158-.124-6.691ZM156.2,59.51l6.344,2.675-5.221,2.324-5.662-2.4,2.494-1.427Zm5.975,76.143-5.252-4.315.011-.787.085-6.259,3.569,2.367,1.707,1.132-.038,2.516Zm-30.419,15.3-4.968,2.381-.62-1.817-1.469-4.307,5.7-2.712,2.767,5.778ZM46.184,130.307l-.038-2.516,1.707-1.132,3.57-2.367.085,6.259.011.787-5.253,4.315ZM38.606,110.9l-5.224,1.81-.188-10.153,5.255-.989.09,5.351ZM97.494,40.426l6.234-2.629v4.4l-3.174,1.346-2.439,1.034-.388-2.589Zm77.571,72.282-5.225-1.81.066-3.918.091-5.413,4.754.895.5.094-.173,9.39ZM39.589,110.558l-.1-5.93-.055-3.246,5.3-1,.091,6.006.036,2.339-4.845,1.679ZM73.708,56,77.493,54.4l.048,7.3-5.658,2.421L71.823,56.8Zm95.147,54.557-.432-.15-4.845-1.679.036-2.339.091-6.006,5.3,1-.055,3.293Zm-64.633,45.3-5.509-2.62,5.509-2.605,5.509,2.605-4.179,1.988ZM51.712,72.744l-.092-6.727-.009-.643L57.4,62.917l.048,4.017.04,3.337-.46.2Zm48.056,73.736,4.455-2.094,5.463,2.568-5.463,2.583-5.463-2.583Zm57.94-72.616,5.436-1.559-.086,5.658-.041,2.673-5.411.7Zm4.748,43.665-5.3-2.678.1-7.267,5.329,1.846-.016,1.013ZM84.472,140.2l-5.339-2.525,5.453-2.517.449.211,4.89,2.3-.475.221Zm-6.35-9.173-5.255-2.47,1.341-.612,4.063-1.854,5.256,2.456-4.538,2.083ZM71.893,65.184l5.656-2.42.037,5.466.012,1.791-5.643,2.436-.034-4.03Zm8.458-3.619,3.8-1.626.036,7.238L78.8,69.5l-.213.092-.037-5.5-.012-1.756ZM98.23,53.913l5.5-2.353v7.182l-2.392,1.033L98.241,61.11l0-2.585Zm38.295,14.514-.034,4.03-5.643-2.436.013-1.881.036-5.377,5.656,2.42Zm26.35,21.515-5.384-.161.084-6.195.017-1.257,5.409-.7Zm-4.53,16.974-1.082-.375.1-7.352,5.356,1.008-.125,8.191Zm-48.139-47.6,0,1.794L107,59.725l-2.279-.984V51.56l5.5,2.353ZM91.094,137.122l-5.336-2.508,5.412-2.5,5.336,2.493-.208.1Zm-39-36.085-.029-2.121L57.8,96.4l.085,7.205-5.721,2.534Zm46.147-38.85,5.485-2.368v7.145l-5.473,2.383,0-2.3Zm17.642,69.486-5.118,2.391-5.21-2.42-.161-.075.729-.339,4.6-2.138,5.371,2.479Zm-23.54-.1,5.37-2.479,4.065,1.888,1.268.589-.161.075-5.21,2.42-3.909-1.827ZM51.971,91.815l-.017-1.231,5.749-2.5.085,7.242-5.735,2.519Zm58.223-24.771,0,2.3-5.473-2.383V59.819l5.485,2.368Zm46.2,30.8-5.735-2.519V95.29l.085-7.208,5.748,2.5-.017,1.231ZM78.646,78.963l5.589-2.433.036,7.165-5.576,2.448-.03-4.377Zm-.957,4.876.018,2.738-4.794,2.1-.821.361-.06-7.2,5.627-2.45ZM97.272,72.97l.008,5.013-5.5,2.414-.024-7.143,5.51-2.4Zm.985-2.545,5.471-2.381v7.108l-2.734,1.2-2.725,1.2,0-2Zm11.923,5.122,0,2L107.2,76.243l-2.485-1.091V68.043l5.471,2.381Zm5.757,44.043-5.246,2.423-3.1-1.425-2.177-1,5.246-2.408,1.526.7ZM95.983,118l1.808-.825,5.246,2.408-1.486.682-3.8,1.743-5.246-2.423ZM85.222,76.1l5.548-2.416.024,7.147-5.537,2.431Zm25.955-5.245,5.511,2.4-.024,7.143-5.5-2.414.008-5.013Zm18.6,10.912-.029,4.377-5.576-2.448.035-7.165,5.589,2.433Zm-20.315,34.87-1.287.591-3.956,1.816-3.956-1.816-1.287-.591,3.505-1.6,1.737-.793,1.737.793ZM78.7,87.221l5.574-2.448.036,7.13L78.75,94.365l-.027-4.06Zm31.464-3.15,0,1.646-5.446-2.411V76.232l5.457,2.4Zm13.056-7.718-.034,6.909-5.537-2.431.024-7.147,5.548,2.416ZM91.89,112.934l-.023-7,3.291-1.481,2.164-.974v.5l.011,6.484Zm19.273-33.872,5.5,2.413-.024,7.106-5.484-2.428.009-5.3Zm18.561,11.062-.028,4.24L124.133,91.9l.036-7.13,5.574,2.448ZM98.284,86.8l5.444-2.41v7.038L98.3,93.851l0-2.7ZM110.153,91.7l0,2.146-5.433-2.426V84.387l5.444,2.41Zm12.993-.238-5.523-2.446.024-7.111,5.535,2.43ZM98.322,109.759l-.011-6.726,3.261-1.467,2.157-.971v6.967l-5.406,2.453ZM111.15,87.235l5.483,2.428-.023,7.071-4.582-2.045-.889-.4.008-4.814Zm-3,6.8,2,.893-.01,6.224v.793l-.046-.02-5.373-2.418v-7Zm-4.42,5.471-4.581,2.062-.838.377v-.793l-.01-6.224,2.046-.913,3.385-1.512Zm.989,8.052V100.6l1.951.878,3.466,1.56-.011,6.726v.257Zm6.418-11.2,0-.99,5.469,2.441-.023,7.035-5.457-2.456ZM97.3,90l.007,4.292-.965.431-4.506,2.011-.023-7.071L97.3,87.235Zm.009,5.375,0,.99.01,6.03-5.457,2.456-.023-7.035ZM90.822,89.02,85.3,91.466l-.036-7.126,5.535-2.43ZM85.34,99.634l-.036-7.09.282-.125,5.239-2.32.023,7.074L85.4,99.609Zm13.684,11.15,5.2-2.359,5.2,2.359-5.2,2.373-1.43-.653Zm12.088-.32.011-6.484v-.5l2.164.974,3.291,1.481-.023,7Zm6.486-13.29.023-7.074,5.24,2.32.282.125v.228l-.034,6.861-.056-.025Zm-38.84-1.731,5.56-2.462.036,7.093L78.8,102.552l-.025-3.666Zm44.308,12.326-5.5-2.474.024-7.039,5.507,2.459,0,.87ZM124.1,99.6l.033-6.614.706.313,4.855,2.149-.026,3.85-.022,3.258-5.548-2.477Zm12.248-9.478-.06,7.163-5.6-2.48.019-2.813.029-4.335,1.972.866ZM103.728,76.232v7.073l-5.446,2.411v-.207l-.012-6.881.273-.12Zm-6.446,2.831v.492l.011,6.6-5.485,2.428-.023-7.106,5.3-2.327ZM77.716,87.653l.028,4.2.02,2.951-5.6,2.48-.06-7.163,3.641-1.6Zm7.664,20.116-.031-6.184,0-.87,5.507-2.459.023,7.039-4.7,2.116Zm5.5-1.39.023,7L85.42,115.87l-.035-7.018.939-.423Zm1.711,7.324,5.074-2.3.165-.075,5.2,2.374-4.395,2.006-.844.385-3.845-1.765Zm11.633,6.429,5.068,2.327.217.1L104.223,125l-5.286-2.441Zm6.43-4.04-.844-.385-4.394-2.006,5.2-2.374.264.12,4.975,2.257-1.359.624Zm6.913-9.713,4.662,2.1.833.375-.035,7.018-5.482-2.487Zm18.786-17.337-.822-.361-4.794-2.1.018-2.738.03-4.447,5.627,2.45ZM71.117,90.551l.06,7.167-5.641,2.5-.073-7.183,5.487-2.409Zm.129,15.375-5.626,2.512-.073-7.146,5.639-2.5Zm.926-7.567,5.6-2.479.025,3.8.022,3.31-5.587,2.494Zm6.641,5.273,4.984-2.225.562-.251.03,6.047,0,1.01-5.534,2.49-.022-3.229Zm50.774,7.071-5.534-2.49,0-1.01.03-6.047.171.076,5.375,2.4-.026,3.842Zm1.065-11.327.023-3.5,5.6,2.479-.06,7.127-5.587-2.494Zm6.549,6.55.06-7.131,5.639,2.5-.073,7.146Zm5.782-12.893-.073,7.183-5.641-2.5.06-7.167.166.073ZM129.806,77.887,126.852,76.6l-2.636-1.148.036-7.2,5.6,2.418Zm-6.577-2.864-5.55-2.417.023-7.183,5.563,2.4ZM71.107,89.475l-1.994.876-3.661,1.607-.073-7.219,5.668-2.467.029,3.458ZM58.785,95.966l5.694-2.5.073,7.186-5.681,2.515Zm12.47,11.04.059,7.095L65.7,116.626l-.072-7.109ZM91.4,114.244l5.207,2.39-5.279,2.409-5.206-2.4Zm9.835,13.226,2.991-1.382,5.329,2.461-5.329,2.475-5.329-2.475Zm10.611-10.836,5.207-2.39,5.278,2.4-5.206,2.4Zm25.349-9.628,5.624,2.511-.072,7.109-5.612-2.526Zm6.776-13.54,5.694,2.5-.085,7.2-5.681-2.515Zm5.706,1.424-5.7-2.5.073-7.222,5.708,2.485Zm-6.607-10.152-.073,7.219-3.661-1.607-1.994-.876.032-3.781.029-3.423,3.518,1.532ZM116.714,65l-.024,7.179-5.512-2.4.008-4.758,0-2.4,1.514.654ZM90.766,72.607l-5.55,2.417-.036-7.2,5.563-2.4Zm-26.3,19.784-5.7,2.5-.085-7.238,5.707-2.485L64.44,89.7ZM72.3,113.657l-.059-7.091,3.734-1.667,1.851-.827.023,3.451.024,3.624-2.64,1.188Zm6.614,5.166-.015-2.3-.032-4.735L84.4,109.3l.033,6.53,0,.492-.576.261Zm12.408,1.309,5.249,2.424L91.249,125,86,122.561l4.733-2.161Zm6.431,2.97,5.289,2.442L97.717,128l-5.29-2.457Zm6.469,9.014,5.374,2.5-5.374,2.51-5.374-2.51Zm6.546,3.04,5.414,2.515-5.376,2.527-5.415-2.53Zm-.077-12.054,5.326,2.445L110.728,128l-5.326-2.459Zm11.754-.541L117.2,125l-5.322-2.443,5.249-2.424.487.223Zm1.566-6.244.035-7.021,5.532,2.49-.032,4.735-.016,2.3-4.944-2.243Zm6.561-5.169.024-3.624.023-3.451,1.851.827,3.734,1.667-.06,7.091-2.933-1.32ZM150.645,96.4l5.733,2.518-.029,2.121-.069,5.1-5.721-2.534ZM136.482,73.531l-.033,3.953-.027,3.283-5.629-2.451.048-7.221,3.063,1.323ZM97.255,62.613l0,2.4.008,4.758-5.512,2.4L91.731,65l4.01-1.731ZM84.229,75.453,81.593,76.6l-2.954,1.286-.048-7.218,5.6-2.418ZM77.605,71.1l.047,7.221-5.629,2.451L72,77.484l-.033-3.953,2.5-1.081ZM58.883,104.243l5.679-2.514.073,7.149-5.667,2.53-.08-6.72Zm12.44,10.938.059,7.058-5.6,2.54-.072-7.073Zm1.045,6.611-.059-7.055,3.934-1.77,1.638-.738.017,2.647.029,4.393L76.32,120Zm12.56-4.613,5.21,2.405-5.318,2.428-5.21-2.42Zm12.749,17.976,5.378,2.512-5.416,2.53-5.377-2.527Zm14.263-.547,3.294-1.539,2.042-.954,5.411,2.5-5.336,2.508Zm17.053-9.06L123.741,128l-5.363-2.462,5.253-2.439,3.351,1.529Zm-10.685-5.964,5.21-2.405,5.318,2.413-5.209,2.42Zm12.21-.315.029-4.393.018-2.647,1.638.738,3.934,1.77-.059,7.055L132.125,120Zm6.6-4.089,5.61,2.525-.071,7.073-5.6-2.54Zm6.761-13.453,5.679,2.514-.005.444-.079,6.72-5.667-2.53Zm13.565-8.82.029-2.138,5.382.161-.126,8.262-5.357-1.008ZM156.6,82.217l-.011.789-.088,6.505-5.75-2.5.009-.761.077-6.518,3.349,1.445ZM143.15,76.409l-.034,3.349-.039,3.906-5.67-2.468.035-4.2.025-3.035,3.293,1.421ZM129.861,69.6l-5.6-2.419.037-7.238,5.616,2.4-.012,1.8Zm-6.555-10.08-.036,7.235-5.565-2.4.024-7.22,5.52,2.362Zm-6.565-2.809-.024,7.216-5.525-2.385.009-5.262,0-1.938,2.269.971ZM70.977,73.957,71,76.992l.035,4.2-5.67,2.468-.042-4.118L65.3,76.409l2.389-1.031ZM57.6,79.729l.071,6,.015,1.277-5.75,2.5-.088-6.505-.011-.789,2.415-1.043ZM50.967,90.771,51,92.909l.072,5.276-5.357,1.008-.126-8.262ZM84.815,123.1l5.252,2.439L84.7,128l-5.252-2.454,2.8-1.277Zm19.408,15.112,5.419,2.532-5.419,2.547L98.8,140.746Zm12.682.21.448-.211,2.662,1.236,2.794,1.3-5.38,2.544-5.457-2.55ZM149.857,79.3l-.016,1.383-.07,5.891-5.709-2.486.036-3.6.037-3.655,1.252.54Zm-6.66-7.645-.037,3.677-4.65-2.007-1.033-.446.026-3.153.035-4.124,5.7,2.438ZM97.241,54.336l0,2.665.008,4.535-5.526,2.385L91.7,56.706l3.945-1.688Zm-6.525,2.792.024,7.22-5.564,2.4-.037-7.235.058-.024ZM70.942,69.73l.027,3.153-1.033.446-4.65,2.007-.038-3.677-.037-3.616,5.7-2.438Zm-6.631,7.1.04,3.967.033,3.293-5.71,2.486L58.588,79.3l4.471-1.93Zm-12.09,33.407-.041-3.029,5.719-2.533.075,6.3.01.864L52.277,114.4Zm6.76,2.245,5.665-2.529.072,7.113-5.652,2.544-.08-6.719Zm.1,8.208,5.65-2.543.071,7.077-5.638,2.558-.055-4.636Zm13.984,1.871,5.359-2.432,1.647.765,3.566,1.657-.567.259L78.275,125l-1.334-.623Zm12.817,5.988,5.366-2.463,5.293,2.458-5.367,2.478-3.725-1.74Zm5.212,9.662.448.211,4.932,2.319-5.456,2.55-5.38-2.544,2.794-1.3Zm32.881,1.984L119,137.886l-.475-.221,4.89-2.3.449-.211,5.452,2.517Zm-6.7-9.173-5.367-2.478,5.293-2.458,5.367,2.463-1.567.732Zm18.306-2.47-5.256,2.47-.867-.4-4.538-2.083,5.256-2.456,3.233,1.475ZM130.17,125l-5.359-2.446,3.628-1.686,1.584-.736,5.359,2.432-3.879,1.812Zm13.547-6.849,5.65,2.543-.029,2.456-.055,4.636-5.638-2.558Zm5.663,1.464-5.652-2.544.072-7.113,5.665,2.529,0,.41Zm1.092-8.631.075-6.3,5.719,2.533-.041,3.029-.056,4.154-5.706-2.548Zm13.377-20.022,5.334.16-.156,9.257-5.306-1Zm-7.13-17.148-.1,7.332-5.765-2.489.03-2.5.057-4.817,1.274.545Zm-26.8-12.545-5.618-2.4,0-.937.032-6.339,5.63,2.388Zm-6.605-2.827-5.579-2.387.024-7.255,5.591,2.371Zm-6.567-2.81-5.539-2.37.01-6.044,0-1.193,5.551,2.355ZM57.5,71.341l.056,4.7.031,2.613-5.765,2.489-.1-7.332,4.673-2ZM45.444,81.635l5.409.7.017,1.257.084,6.195-5.384.161-.106-7ZM44.6,90.962l.128,8.418-5.306,1-.156-9.257Zm1.13,9.236,5.356-1.008.1,7.352-1.081.375-4.249,1.472-.039-2.525Zm.14,9.232,5.329-1.846.1,7.267-5.3,2.678-.108-7.086Zm20.61,16.122,5.4-2.45,4.983,2.328.233.109L71.692,128l-2.741-1.288Zm12.816,6.024,5.408-2.482,1.628.761L90,131.568l-5.408,2.5-4.635-2.178Zm26.093,12.264,5.41-2.543.012-.006,5.46,2.551-5.422,2.564Zm18.471-9.775-5.408-2.5,3.667-1.714,1.628-.761,5.408,2.482-.66.311Zm12.9-6.062-5.1-2.329-.3-.135.233-.109,4.983-2.328,5.4,2.45-1.137.534Zm14.5-57.606-.3-.126L151,66.5l.043-3.585,5.793,2.457-.009.643-.091,6.727Zm-1.293.523-.028,2.375-.059,4.938-5.724-2.472.039-3.845.035-3.451,3.86,1.652Zm-6.681-6.974-.031,3.026-.027-.012-5.671-2.427.061-7.314,5.711,2.423ZM110.23,45.605l-.011,6.293,0,.94-5.5-2.354V43.267l2.33.988Zm-13,1.612.01,6.044-5.54,2.37-.024-7.252,5.551-2.355Zm-6.517,8.837-5.579,2.387L85.1,51.17,90.688,48.8Zm-6.566,2.81-5.618,2.4-.048-7.292,5.63-2.388.032,6.339Zm-18.92,8.1-.027.012-.031-3.026-.044-4.3,5.711-2.423.061,7.314Zm-1,1.5.035,3.451.039,3.845-5.724,2.472-.058-4.9-.029-2.414L61.337,69.7ZM50.839,81.331l-5.41-.7-.042-2.771L45.3,72.3l5.436,1.559Zm-4.833,37.3,5.3-2.677.1,7.164-5.278,3.5Zm6.383,3.991-.043-3.193-.054-3.954,4.37-1.951,1.334-.6.07,5.919.015,1.213-1.468.661Zm12.9,3.47,4.421,2.078.8.375-5.441,2.483-5.219-2.467Zm12.823,6.027,3.69,1.734,1.609.756-5.449,2.516-5.3-2.505,4.986-2.289Zm19.521,9.175,5.423,2.549-5.46,2.566-5.422-2.564Zm13.248,11.4-5.506-2.6,5.467-2.585,5.506,2.588Zm13.206-6.282-5.5-2.569,5.384-2.546,5.5,2.554-3.877,1.844Zm1.049-5.665,5.343-2.526,5.494,2.537-5.343,2.542Zm-.111-6.134,1.609-.756,3.69-1.734.462.212,4.987,2.289-5.3,2.505Zm11.916-.542-1.262-.579-4.183-1.92,5.259-2.472,5.445,2.484-5.094,2.409Zm6.206-7.976,5.441,2.469-5.218,2.467-5.441-2.483Zm7.213-6.032.014-1.213.071-5.919,1.334.6,4.37,1.951-.053,3.954-.044,3.193-4.224-1.9Zm6.772-4.105,5.3,2.677-.122,7.988-5.278-3.5Zm6.384-3.377.043-2.8,5.275,1.828-.153,9.075-5.248-2.649Zm5.68-22.443-5.336-.16.022-1.447.107-7.017,5.363-.688ZM150.056,62.5l-.041,3.445-.046,3.906-3.819-1.634-1.92-.822.048-4.7.027-2.636,4.236,1.8Zm-13.434-5.7-.061,7.311L130.9,61.69l.048-7.3L134.737,56ZM130.3,53.044l-.334-.141L124.529,50.6l1.891-3.647,6.416,2.706-1.207,1.612ZM116.96,47.386l-2.086-.885-3.6-1.528.394-2.631.227-1.518,6.319,2.665Zm-6.36-4.609-.269,1.8-2.439-1.034-3.174-1.346V37.8l6.234,2.629Zm-6.871.491v7.217l-5.5,2.354,0-.94-.011-6.293,3.182-1.35ZM64.141,60.06l.027,2.636.047,4.7-1.9.812L58.476,69.85l-.049-4.167L58.389,62.5l1.515-.643ZM44.452,81.507l.125,8.229,0,.236-5.336.16-.157-9.313Zm-6.021,19.056-5.256.989-.189-10.244,5.287-.158Zm6.493,12.011.083,5.45-5.248,2.649-.033-1.936-.12-7.138,5.275-1.828ZM52.4,123.7l.727-.327,4.964-2.234.055,4.661.029,2.434L52.5,130.807l-.031-2.291Zm13.838,7.881,5.445-2.484,5.258,2.472-4.183,1.92-1.262.579-.165-.078Zm10.2,5.915.358.169L71.3,140.2,66,137.676l5.49-2.52Zm1.524.721L83.3,140.74l-5.494,2.552-5.343-2.542Zm1.008,5.63,5.5-2.554,5.384,2.546-5.5,2.569-1.506-.716Zm24.1,6.24-5.506,2.6-5.467-2.6L97.6,147.5ZM150.3,125.8l.055-4.661,4.964,2.234.726.327-.065,4.819-.031,2.291-5.677-2.576Zm24.974-24.245-5.256-.989.159-9.412,5.287.158ZM163.159,71.271l-5.438,1.559.02-1.439.082-6.02,5.463-2.432Zm-12.637-9.649-4.444-1.885-1.271-.539,3.863-2.866,6.389,2.694Zm-2.912-5.736-3.86,2.864L138,56.309l3.2-3.13,2.409,1.016Zm-22.1-9.322-1.89,3.645-5.742-2.435,1.252-3.9,5.679,2.395ZM97.175,44.972l-3.512,1.49-2.177.924-1.251-3.9,6.319-2.665.058.385ZM83.916,50.6,78.48,52.9l-.334.141L76.691,51.1l-1.083-1.445,6.416-2.706ZM67.253,53.179l3.2,3.13L64.7,58.75l-3.861-2.864,4.01-1.691ZM63.639,59.2l-1.272.539-4.444,1.885-4.535-2.6,6.388-2.694ZM50.723,72.83l-5.437-1.559-.127-8.331,5.463,2.432.082,6.02Zm-10.795,57.9-.078-4.629-.073-4.326,5.247-2.648.091,6.011.032,2.131-2.216,1.469Zm64.788,25.99,5.749-2.734.706,6.84-6.455,3.1Zm6.7-3.185,5.744-2.733,1.4,6.482-6.441,3.088-.2-1.91Zm6.094-3.995-4.327-2.034-1.175-.552,5.426-2.565,5.5,2.57-4.965,2.361Zm14.142-11.874.358-.169,4.944-2.337,5.49,2.52-5.3,2.522Zm6.908-2.858-.438-.2,5.261-2.488,5.487,2.5-5.261,2.5Zm24.738-7.539.033-2.131.091-6.011,5.246,2.648-.073,4.326-.078,4.629-3.275-2.172Zm12.181-36.947-5.288-.158.159-9.47,5.319-.684Zm-6.1-10.5-5.365.689.129-8.489,5.394-1.547,0,.267Zm-30.8-25.458-1.562,1.529-5.773-2.449,2.2-2.941.336-.448,6.428,2.711ZM118.514,42.542l-3-1.266-3.468-1.463.613-4.093,7.093,2.974Zm-7.15-4.873-.261,1.747-5.529-2.331-.856-.361V32.391l7,2.934Zm-22.045,6.2,1.252,3.9-5.742,2.435-1.89-3.645.7-.3Zm-14.65,6.178,2.539,3.39-5.773,2.449-1.562-1.529-1.633-1.6.276-.116ZM54.286,60.68l2.493,1.427-5.662,2.4L45.9,62.185l6.344-2.675ZM44.308,72.02l.129,8.489-5.366-.689-.139-8.292-.018-1.054Zm-1.541,58.012,2.4-1.591.122,8.016L40.1,140.721l-.148-8.82Zm15.9-.938,5.222,2.469-5.483,2.5-5.221-2.484Zm11.654,5.51-.827.38-4.66,2.139-5.261-2.5,5.487-2.5Zm4.948,15.673L78.04,144.5l5.7,2.712-1.469,4.307-.62,1.817-4.968-2.381Zm10.239-3.32,5.5-2.57,5.426,2.565-1.175.552-4.328,2.034-.46-.219Zm5.775,3.843,5.744,2.733-.593,5.741-.113,1.1-6.441-3.088Zm6.115,8.779.578-5.6,5.749,2.734v7.2l-6.455-3.1Zm22.077-2.737-1.4-6.479,2.2-1.049,3.524-1.676,2.09,6.128-4.9,2.35Zm14.586-6.993-2.766-5.775,5.662-2.693,1.125,1.779,2.31,3.654Zm15.709-20.755,5.482,2.487-5.221,2.484-5.483-2.5Zm13.505-.653,1.825,1.21L168.5,131.9l-.149,8.82-5.191-4.264Zm.874-57.455.129-8.49,5.424-2.413-.125,7.433-.033,1.923ZM152.628,53.4l.79-.586,7.217,3.026-4.5,2.573-6.546-2.76ZM148.533,55.2l-6.575-2.773,3.164-3.1,7.234,3.033ZM133.448,48.84l-6.57-2.771,1.868-3.6,7.211,3.024Zm-5.855-6.3-1.629,3.143-6.533-2.755,1.235-3.85,7.165,3Zm-23.864-5.817-1.038.438-5.348,2.255-.262-1.747-.351-2.344,7-2.934ZM96.4,39.813l-3.468,1.463-3,1.266L88.7,38.694l7.092-2.974ZM75,48.84l-2.509-3.351L79.7,42.466l1.869,3.6Zm-1.407-.228.468.624-3.586,1.512-3,1.264-3.162-3.1,7.234-3.033Zm-7.1,3.817L59.912,55.2l-3.824-2.837,7.235-3.033ZM31.979,90.349l-5.242.157-.031-1.527-.2-9.776,5.275.678ZM27,103.721l5.206-.98.19,10.309-1.149.4-4.023,1.394Zm6.4,10.028,4.907-1.7.316-.109.155,9.229-2.675,1.35-2.518,1.272-.03-1.632Zm.205,11.139,2.612-1.319,2.579-1.3.093,5.516.06,3.592L33.788,134.8l-.115-6.27ZM60.88,143.375l4.095-5.092,5.61,2.669-3.434,5.43-2.81-1.347Zm9.479-.217,1.125-1.779,5.662,2.693-2.766,5.775-6.331-3.035Zm12.191,10.607,2.09-6.128,3.524,1.676,2.2,1.049-1.4,6.479-1.514-.726Zm22.166,11.25.763-.366,5.8-2.781.7,6.8-7.265,3.51Zm7.511-3.6,6.548-3.14,1.393,6.438-7.239,3.5Zm29.065-15.033-3.434-5.43.017-.009,5.593-2.66,4.095,5.092-3.482,1.669Zm28.2-15.006.061-3.592.093-5.516,1.946.982,3.246,1.639-.079,4.257-.1,5.654Zm6.553-18.326.19-10.309,5.2.98-.223,11.121-4.023-1.394Zm.419-22.7.016-.841.177-9.627,5.275-.678-.2,9.776-.031,1.527Zm-.781-11.34-.118.015-5.2.669.16-9.5,5.352-1.535Zm-18.4-20.116,4.5-2.574,7.183,3.012-5.18,2.3Zm-16.315-6.88-2.936-1.238-3.646-1.538,2.51-3.353,7.235,3.033ZM89.016,42.928l-6.533,2.755L80.853,42.54l-.238-.459,7.165-3ZM58.853,55.648l-6.546,2.76-4.5-2.573,7.217-3.026.769.57Zm-14.2,5.986-5.18-2.3,7.183-3.012,4.5,2.574ZM38.08,79.692l-5.131-.659-.19-.024-.191-10.355,5.352,1.535Zm-10.834,36.19,4.417-1.531.754-.261.188,10.2-5.138,2.594ZM38.97,132.55l.046,2.757.1,6.215-5.13,4.215-.18-9.766Zm35.875,18.619,6.486,3.109-2.073,6.079L72.1,156.9Zm14.824,7.107,6.548,3.14-.7,6.8-7.239-3.5Zm7.5,3.594,5.8,2.781.763.366v7.164l-7.265-3.51Zm23.92,2.4-1.392-6.435,6.522-3.127,2.074,6.082-3.693,1.784Zm16.149-7.8-2.743-5.727,6.436-3.086,2.4,3.79,1.008,1.594-1.676.81Zm11.246-13.531-4.093-5.09,5.547-2.639,1.57,1.573,3.176,3.183-2.2,1.053Zm7.145-3.425-1.562-1.565-3.181-3.188,4.162-1.98,1.313-.624,5.387,4.425-2.593,1.243Zm13.8-4.2.047-2.757,5.16,3.422-.18,9.766-5.131-4.215ZM145.89,48.581l3.13-3.065,8.048,3.355-3.788,2.81Zm-16.687-7,.362-.7,1.484-2.862,8,3.336-2.482,3.313Zm-.915-.384-7.319-3.068,1.221-3.8,7.943,3.31Zm-8.234-3.452-7.245-3.038.276-1.843.329-2.2,7.86,3.277Zm-7.826-5.837-.36,2.4-7.15-3V27.047l7.754,3.233ZM71.877,44.673,70.834,43.28,69.4,41.359l8-3.336,1.846,3.561ZM32.652,126.819l.159,8.628-5.1,3.385-.022-1.115-.2-9.741,5.137-2.593Zm21.112,13.145,3.18-3.187,1.566-1.569,5.548,2.639-4.093,5.09-4-1.919Zm2.425,9.245,4.055-5.042,6.375,3.057-3.4,5.381L59.9,151Zm7.923,3.829.779-1.232,2.626-4.152,6.436,3.086-2.743,5.727-5.68-2.744Zm15.721,8.695,7.311,3.532-1.383,6.391-7.986-3.888Zm.321-.943,2.074-6.082,6.522,3.127L87.36,164.27l-3.387-1.636Zm41.145,4.475,7.311-3.532,2.058,6.035-7.986,3.888Zm8.761-2.345-.553-1.621,1.29-.624,5.972-2.886,2.721,5.682-7.927,3.86ZM145.229,152.6l-3.4-5.381,6.376-3.057,4.055,5.042-3.741,1.808Zm30.538-24.356.053-2.866,5.136,2.593-.17,8.476-.048,2.38-5.1-3.385Zm6.661-24.342,5.156.97-.261,12.08-5.121-1.774Zm-6.34-46.664L175.9,67.618l-.616.177-4.738,1.358.02-1.21.14-8.3.727-.324ZM144.9,48.165l-7.39-3.1,2.483-3.315,8.036,3.35Zm-49.538-15.3.276,1.843-7.245,3.038-1.22-3.8,7.86-3.277ZM68.784,40.542l-2.455-3.277,8.786-3.642,1.825,3.519Zm2.152,4.524-7.39,3.1L60.417,45.1l8.036-3.35Zm-8.38,3.514-7.391,3.1-3.788-2.81,8.048-3.355ZM37.742,59.639l.157,9.3,0,.218L33.165,67.8l-.616-.177-.191-10.376,4.657,2.073Zm-6.169,8.729.035,1.916.159,8.6L26.49,78.2l-.228-11.358,4.268,1.224Zm-5.557,35.539.227,11.276-5.121,1.774-.261-12.08Zm22.313,41.5,3.185-3.192,1.51-1.514,2.05.983,4.254,2.039-4.053,5.04-4.313-2.084ZM63.58,153.88l7.2,3.48-2.72,5.679-7.856-3.825Zm8.094,3.91,5.718,2.763,1.544.746-.431,1.263-1.627,4.769-7.926-3.86Zm23.983,18.684.7-6.76,3.273,1.582,4.1,1.981V180.4l-.735-.358Zm9.06,3.93v-7.127l7.373-3.563.7,6.759-6.691,3.258Zm43.567-28.177L152.892,150l4.015,4.993-7.774,3.786-3.371-5.332Zm4.886-3.46-4.052-5.04,6.3-3.022,1.51,1.514,3.185,3.192-2.488,1.2Zm29.262-94.349L182.2,65.81l-5.312,1.523.183-9.913.012-.622,3.444-1.533Zm-7.085,2.071L172.5,57.757l-2.292,1.02L162.866,55.7l4.46-2.552.295.123Zm-3.67-6.973-4.419,2.529-.155-.065-8.045-3.354.8-.6,2.95-2.188,4.152,1.721ZM130.589,36.76,123.5,33.807l-1.01-.421,1.205-3.754,4.815,2,3.9,1.616Zm-17.656-9.566-.311,2.077-5.479-2.284-2.426-1.011V21.765l8.5,3.524ZM87.477,38.132,80.158,41.2l-1.845-3.559,7.943-3.31ZM50.314,49.313l2.608,1.935,1.182.877-7.375,3.092-4.458-2.551Zm-9.195,3.833L45.58,55.7l-7.343,3.079-2.292-1.02L33.1,56.49l7.876-3.283ZM31.36,56.8l.023,1.268.171,9.267L29.342,66.7l-3.1-.889-.228-11.391,1.9.847ZM27.73,140l5.1-3.384.183,9.918L27.945,150.7l-.188-9.364Zm15.215,10.805,3.254-3.262,1.391-1.394,4.516,2.182,2.534,1.224-4.013,4.99-2.643-1.287Zm34.509,17.9,5.613,2.733,2.479,1.207L84.172,179l-8.762-4.3Zm9.223,3.39.165-.761,1.219-5.633,7.346,3.55-.3,2.9-.4,3.855-6.736-3.28Zm38.7-.657,5.613-2.733,2.043,5.99-8.761,4.3-1.374-6.348Zm6.509-3.169,3.189-1.553,4.843-2.358,2.7,5.635-8.689,4.263Zm25.932-13.726-4.013-4.99,2.372-1.146,4.678-2.26,1.391,1.394,3.254,3.262-5.039,2.454ZM180.5,150.7l-5.071-4.166.183-9.918,1.276.846L180.715,140l-.027,1.336Zm1.189-97.037-2.64,1.175-2.459,1.095-7.835-3.266-.345-.144L172.831,50l4.494,1.863ZM161.746,45.4l-3.752,2.783-8.206-3.42,3.1-3.034,4.369,1.81Zm-19.629-8.135-2.455,3.277-8.156-3.4,1.288-2.484.537-1.035,1.359.563ZM122.78,29.252,121.576,33l-8.012-3.34.444-2.964.153-1.02,4.6,1.905ZM70.427,34.5l-4.711,1.952-2.427-3.241,9.565-3.942,1.8,3.477Zm-5.042,3.16L66.394,39l1.448,1.933-1.481.617-6.712,2.8-.476-.466-2.621-2.567L59.239,40.2ZM45.634,45.842l3.557,2.638.2.146-7.762,3.236-.439.183-4.419-2.529,4.713-1.954ZM35.613,50l4.422,2.53-.751.313-7.43,3.1L29.4,54.842l-2.64-1.175,4.363-1.808ZM21.682,142.827l-.238-11.015-.017-.776,5.083-2.566.081,4.061.139,6.948-4.362,2.892ZM50.9,155.783l1.121.546,6.756,3.29L56.7,162.9l-1.264,2-8.511-4.176.335-.417Zm53.814,32.81V181.5l8.179-3.982.594,5.752.1.966Zm9.621-6.732-.5-4.8,8.141-3.964,1.374,6.351-8.822,4.328ZM153.006,164.9l-1.264-2-2.077-3.284,6.862-3.342,1.016-.495.528.656,3.447,4.287Zm28.686-24.252,1.919,1.272L186.738,144l-.252,11.623-5.013-4.117Zm6.879-35.588.587.11,4.521.851-.3,13.03-5.07-1.757Zm-5.635-51.95-9.018-3.737,4.384-2.508,9.694,3.995Zm-20.263-8.4L158.044,42.8l-4.39-1.819,3.067-3,9.666,3.984Zm-10.779-3.4-2.621,2.567-.476.466L140.6,40.935l2.456-3.279,6.607,2.739Zm-9.164-4.87-4.641-1.923-4.3-1.782,1.8-3.477,9.566,3.942ZM113.668,22.291l-.3,1.99-7.342-3.043-1.311-.543V16.542l9.241,3.808Zm-9.94-1.6-1.5.623-7.15,2.964L94.8,22.467l-.317-2.117,9.241-3.808Zm-9.443,4.985.153,1.02.444,2.964L86.869,33l-1.2-3.752,4.052-1.68Zm-9.537,3.953,1.2,3.754-1.21.5-6.886,2.87-1.824-3.517,3.927-1.627Zm-29.189,12.1,3.1,3.034-8.206,3.42L46.7,45.4l4.49-1.861Zm-10.85,3.426-1.764.731L35.683,48.9,31.3,46.389,40.989,42.4l.006,0Zm-10.18,4.219L25.51,53.112l-5.059-2.251,9.693-3.995ZM19,64.763l.271,12.513-5.189-.666-.31-13.346Zm.851,39.3-5.11.961-.007-.291-.3-12.867,5.148-.154Zm.022,1,.265,12.235-5.07,1.757-.3-13.03Zm-4.456,29.007,4.054-2.047.975-.492.258,11.943-4.993,3.311Zm6.541,21.551L21.707,144l3.127-2.074,1.919-1.272.218,10.852-4.309,3.54Zm15.651.536,4.6-4.607,7.785,3.79-.452.562-3.521,4.38-1.883-.924Zm37.478,19.489L83.956,180l-1.365,6.3-9.53-4.711Zm10,3.8,1.374-6.351,8.14,3.964-.405,3.925-.288,2.79-3.6-1.765Zm8.971,12.52.538-5.217.151-1.462,8.981,4.406v7.052l-2.415-1.193ZM124.488,180l3.275-1.607,5.593-2.744,2.027,5.944-9.53,4.711-.917-4.235Zm11.789,1.152-.23-.675-1.8-5.267,2.126-1.043,6.668-3.271,2.676,5.588-8.622,4.262Zm7.656-10.692,2.583-1.267,6.127-3.006,2.452,3.877.861,1.361-9.348,4.62Zm18.494-10.175-3.973-4.941,7.784-3.79,4.6,4.607-6.524,3.2Zm25.593-29.847.017-.785.245-11.312,4.57,1.583.5.173-.3,12.882-.2-.1Zm5.68-25.413-5.11-.961.267-12.35,5.148.154Zm-4.259-40.258,5.229-1.5-.31,13.346-5.19.666Zm5.253-2.535-5.231,1.5.166-7.65.107-4.91,5.27-2.345ZM178.23,45.767l-9.846-4.058,3.684-2.732,10.506,4.3ZM84.444,28.687,76.216,32.1l-.641.265-.485-.935-1.318-2.54,9.481-3.907,1.142,3.56Zm-16.56,1.557-5.207,2.146-2.4-3.205,10.341-4.237L72.4,28.383ZM62.345,33.6l2.429,3.243-8.99,3.726-3.065-3,5.331-2.2ZM54.79,40.977,50.4,42.8l-4.627,1.917-3.717-2.757,9.666-3.984Zm-14.728.732-9.847,4.058-4.343-2.485,10.506-4.3ZM18.98,63.727l-5.231-1.5-.311-13.406,5.27,2.345.113,5.2ZM42.356,166.412l3.936-4.9,8.615,4.227L51.6,170.98l-1.144-.565Zm11.263,3.22,2.181-3.45,8.711,4.273-.066.137-2.609,5.449-9.348-4.62Zm9.1,6.848,2.676-5.588,6.668,3.271,2.126,1.043-1.8,5.267-.23.675-1.483-.733Zm9.974,6.178.042-.123,9.636,4.763-1.355,6.262-10.293-5.126Zm12.174-2.213.87.427,8.058,3.954-.258,2.5-.431,4.179-9.605-4.748Zm19.845,16.3V189.7l8.981-4.406.151,1.462.539,5.217-7.622,3.768Zm10.185-9.426-.258-2.5,7.714-3.784,1.215-.6,1.365,6.308-9.605,4.748Zm21.7-5.23,1.424-.7,8.126-4.016,2.654,5.542-10.193,5.076Zm20.249-11.112-3.311-5.236,8.615-4.227,3.936,4.9-8.1,4ZM189.242,50.305l-9.855-4.061,4.346-2.487,10.528,4.314ZM155.727,37.563l-3.065,3-8.99-3.726L146.1,33.6l4.3,1.77Zm-9.959-5.174-5.207-2.146-4.514-1.86,1.781-3.436,10.341,4.237Zm-10.639-4.384-2.99-1.232-6.645-2.738,1.175-3.661,10.24,4.2ZM114.11,19.342l-7.563-3.116-1.829-.754V11.379l9.973,4.087ZM61.25,32.134l.483.645-1.518.626L51.949,36.81l-3.034-2.97L59.33,29.572ZM29.057,46.244,19.2,50.305l-5.019-2.234,10.528-4.314ZM16.032,160.489l-.291-12.535,2.554-1.694,2.437-1.616.255,11.775-.87.715Zm6.361-3.944,5.146-4.228,8.4,4.119-4.545,4.556L27.1,158.871Zm14.48.351,8.51,4.175-3.934,4.893-9.123-4.509ZM41.721,167.2l9.344,4.619-3.281,5.188-9.96-4.96,3.116-3.876Zm85.7,26.358-1.355-6.262,9.636-4.763,2.012,5.9-.247.123Zm43.2-21.511-9.96,4.96-3.281-5.188,9.344-4.619.781.971Zm-7.558-10.979,8.51-4.175,4.548,4.558L167,165.963Zm13.993-.079-4.545-4.556,8.4-4.119,5.147,4.228-4.706,2.326Zm10.4-4.573.255-11.775,2.437,1.616,2.554,1.694-.291,12.535-4.136-3.4ZM160.527,34.248,171,38.539l-3.484,2.584-.2.146-9.824-4.049,1.615-1.581Zm-67.714-18.4.581,3.879-4.907,2.022-4.617,1.9L82.694,20l9.966-4.084Zm-44.895,18.4,3.036,2.972-7.938,3.271-1.887.777-.079-.058-3.6-2.672L46.079,35Zm-11.4,3.6-3.647-2.705,11.27-4.593,3.005,2.943Zm-3.929-1.683,2.859,2.121-10.667,4.37L22.2,41.183l-1.727-.988L31.8,35.581ZM12.753,61.942l-5.19-1.489L7.205,46.048l5.233,2.329Zm1.028,44.266.306,13.185-5.02,1.74-.347-13.973,2.659-.5ZM9.463,137.076l4.864-2.456.113-.057.3,12.868L9.8,150.705Zm12.09,20.158,9.1,4.5-4.5,4.508-9.689-4.825Zm29.062,17.148,1.341-2.12,9.452,4.672-2.653,5.539-10.082-5.02Zm31.319,19.633,1.355-6.265,1.973.975L93,192.55l-.684,6.635L86.2,196.141Zm22.782,10.853v-7.016l9.778-4.833.685,6.639-8.607,4.286Zm11.41-5.682-.685-6.635,7.739-3.825,1.973-.975,1.355,6.265-4.237,2.11Zm30.91-22.252,9.452-4.672,1.341,2.12,1.942,3.071-10.082,5.02Zm30.757-15.2,9.1-4.5,5.089,4.18-9.69,4.825Zm15.591-.444.294-12.687,4.936,3.273-.333,13.436ZM194,134.563l4.977,2.513-.339,13.63-4.938-3.275Zm5.744-28.4-5.062-.953L195,91.893l5.1.152Zm1.133-45.705-5.189,1.489.315-13.565,5.232-2.329-.354,14.264Zm-74.828-41.4-10.271-4.208.573-3.828,10.857,4.424ZM70.16,24.066l-10.5,4.3L57.289,25.2,68.4,20.669ZM52.925,31.128l-4.779,1.958-3-2.941,11.2-4.564,2.375,3.172ZM27.088,166.7l3.276-3.283,1.223-1.227,3.133,1.548,6.093,3.012-3.9,4.845-6.485-3.23Zm32.126,17.1,9.391,4.676.907.452-.536,1.571-1.46,4.282L56.582,189.3Zm11.192,5.573,10.4,5.179-1.086,5.02-.259,1.2-11.051-5.543Zm10.3,10.328,1.016-4.695,8.955,4.46,1.536.765-.681,6.6-11.157-5.6Zm11.772,7.6.109-1.052.573-5.547,10.572,5.265v6.979Zm23.761-7.07,1.69-.842,8.8-4.383,1.016,4.695.331,1.529-11.157,5.6Zm12.491-.659-1.086-5.02,10.4-5.179,2,5.855-11.051,5.543Zm42.8-27.98-3.9-4.845,6.093-3.012,3.133-1.548L178,163.335l3.36,3.368-3.642,1.814ZM200.492,45.3l-4.06,1.807-.921.41-10.689-4.381,4.308-2.466,7.844,3.2ZM148.782,28.366l-10.5-4.3,1.761-3.4L151.156,25.2Zm-9.655-8.072-1.76,3.395-10.394-4.26,1.16-3.615,4.98,2.029Zm-23.713-9.662-.251,1.671-.323,2.155L104.717,10.31V6.274l2.169.884ZM103.728,6.274V10.31L93.6,14.458,93.281,12.3l-.25-1.671,8.817-3.592Zm-11.64,4.742.573,3.828-10.27,4.208-1.16-3.613,4.669-1.9Zm-11.776,4.8,1.053,3.28.107.335-10.394,4.26-1.76-3.395,6.061-2.469Zm-61,24.854.42.24,3.889,2.225-10.69,4.381-.92-.41L7.953,45.3l3.518-1.433ZM7.333,91.085l-5.059.151-.4-15.2,5.1.655Zm.379,15.259-5.015.944L2.3,92.225l5.058-.151ZM3.424,124.136l4.688-1.624.347,13.963-4.927,2.487-.388-14.729Zm41.465,59.3,3.253-5.144,6.781,3.376,3.405,1.7L55.7,188.858l-6.842-3.432Zm59.828,29.515v-6.979l10.572-5.265.542,5.25.139,1.348Zm48.03-24.093-2.631-5.493,3.3-1.641,6.891-3.431,3.253,5.144-3.908,1.96Zm47.239-52.383.346-13.963,4.688,1.624.281.1-.388,14.729Zm5.762-29.186-5.014-.944.353-14.27,5.058.151Zm.423-16.052-5.059-.151.357-14.391,5.1-.655ZM139.584,19.412,128.436,14.87l1.146-3.57,11.742,4.758Zm-47.647-9.4L80.928,14.5l-1.142-3.558,0-.01,11.589-4.7ZM78.863,11.3l1.146,3.57L68.861,19.412l-1.74-3.354ZM5.789,60.975l.8.23.359,14.489-5.1-.656-.4-15.309ZM3.974,155.756l4.882-3.238.337,13.587-4.842,3.977Zm3.717,12.864,2.069-1.7,10.473,5.254-4.4,4.414L4.784,171.008ZM21.9,171.9l4.452-4.463,9.931,4.945-2.131,2.651-1.726,2.147-8.17-4.1Zm10.8,6.522,4.262,2.138,6.512,3.267-3.222,5.1L28.873,183.18ZM68.086,196.18l6.892,3.457,4.265,2.139-1.337,6.178-11.8-5.963Zm12.07,6.054,11.264,5.651-.677,6.556-11.925-6.026Zm12.21,6.125,11.362,5.7V221l-12.039-6.083Zm24.659-.474,11.265-5.651,1.338,6.182L117.7,214.441Zm13.515.07-1.337-6.178,4.275-2.144,6.882-3.452,1.982,5.812ZM168.2,188.927l-3.222-5.1,10.774-5.4,3.822,4.753Zm7.822-11.743-3.857-4.8,9.931-4.945,4.452,4.463-1.163.583Zm16.6-.6-4.4-4.414,10.472-5.254,2.119,1.741,2.857,2.347Zm6.635-10.483.337-13.587,4.882,3.238-.378,14.327ZM206.6,75.038l-5.1.656.359-14.489.58-.166L207,59.728ZM202.276,44.5l-.531.236-11.524-4.7.07-.04,4.2-2.4,12.194,4.941Zm-38.2-15.114-11.358-4.628.483-.645,1.867-2.492,11.981,4.854Zm-12.305-5.013-6.662-2.715-4.6-1.875,1.74-3.356,11.873,4.811ZM103.728,5.206,92.88,9.626l-.323-2.157-.242-1.618,11.414-4.625ZM53.38,21.626l2.35,3.138L44.371,29.391,41.4,26.48ZM13.953,37.6l1.336.765,2.935,1.68L6.7,44.741l-.555-.247L1.759,42.542Zm7.211,135.041,6.589,3.305,4.038,2.025-2.826,3.514-.994,1.237-11.213-5.666Zm23.2,11.635,10.912,5.474L52.66,195.2l-11.526-5.824Zm11.8,5.917,11.039,5.538-1.981,5.809-11.669-5.9Zm48.563,23.864,11.362-5.7.677,6.56L104.717,221Zm51.068-18.86-2.61-5.448,10.912-5.474,3.224,5.1Zm24.69-12.475-1.089-1.354-2.731-3.4,4.326-2.17,6.3-3.161,4.406,4.416Z" transform="translate(0 0)" fill="url(#linear-gradient)"/>
  </g>
</svg>
