<?xml version="1.0" standalone="no"?>
<!DOCTYPE svg PUBLIC "-//W3C//DTD SVG 1.1//EN" "http://www.w3.org/Graphics/SVG/1.1/DTD/svg11.dtd">
<svg version="1.1" xmlns="http://www.w3.org/2000/svg" viewBox="0 0 695.9252885217647 364.9293660798688" width="695.9252885217647" height="364.9293660798688"><!-- svg-source:excalidraw --><metadata></metadata><defs><style class="style-fonts">
      </style></defs><rect x="0" y="0" width="695.9252885217647" height="364.9293660798688" fill="#121212"></rect><g stroke-linecap="round" transform="translate(372.25838788699906 178.33331298828125) rotate(0 83 22.333343505859375)"><path d="M0 0 C0 0, 0 0, 0 0 M0 0 C0 0, 0 0, 0 0 M-0.26 6.4 C1.9 5.34, 3.35 2.36, 4.99 0.36 M-0.26 6.4 C0.88 5.08, 1.65 3.81, 4.99 0.36 M0.13 12.04 C4.48 9.11, 8.01 5.09, 10.63 -0.03 M0.13 12.04 C3.59 6.66, 8.4 2.54, 10.63 -0.03 M-0.13 18.44 C4.79 10.64, 12.48 7.23, 15.62 0.33 M-0.13 18.44 C5.82 11.05, 11.07 5.6, 15.62 0.33 M0.27 24.08 C6.23 17.78, 13.58 8.51, 21.26 -0.07 M0.27 24.08 C6.33 16.63, 14.22 9.53, 21.26 -0.07 M0 30.48 C6.2 24.69, 13.31 17.64, 26.25 0.29 M0 30.48 C6.27 23.33, 13.07 15.86, 26.25 0.29 M-0.26 36.88 C8.67 28.45, 13.45 20.65, 31.89 -0.1 M-0.26 36.88 C8.88 25.23, 18.97 13.44, 31.89 -0.1 M0.14 42.52 C10.51 31.28, 20.08 21.67, 36.88 0.26 M0.14 42.52 C9.34 32.19, 17.09 20.7, 36.88 0.26 M3.16 45.14 C10.04 35.92, 18.64 24.14, 42.52 -0.14 M3.16 45.14 C15.35 31.7, 26.41 20.17, 42.52 -0.14 M8.8 44.75 C21.52 31.96, 32.09 19.05, 47.51 0.22 M8.8 44.75 C18.37 33.69, 29.67 20.82, 47.51 0.22 M13.79 45.11 C26.89 29.03, 44.26 9.59, 53.15 -0.17 M13.79 45.11 C26.06 33.28, 36.47 18.64, 53.15 -0.17 M18.77 45.47 C30.51 28.24, 47.26 13.27, 58.14 0.19 M18.77 45.47 C25.66 36.33, 33.63 26.15, 58.14 0.19 M24.42 45.08 C40.56 26.81, 53.68 12.83, 63.78 -0.21 M24.42 45.08 C37.55 29.72, 48.29 17.21, 63.78 -0.21 M29.4 45.44 C38.5 37.26, 46.12 28.24, 68.77 0.15 M29.4 45.44 C39.57 32.76, 51.51 21.35, 68.77 0.15 M35.05 45.04 C48.68 28.05, 62.75 10.16, 74.41 -0.24 M35.05 45.04 C47.84 31.57, 60 16.16, 74.41 -0.24 M40.03 45.4 C55.45 27.53, 72 8.9, 79.4 0.12 M40.03 45.4 C49.4 36.32, 56.9 24.35, 79.4 0.12 M45.68 45.01 C60.6 29.1, 73.5 10.5, 85.04 -0.28 M45.68 45.01 C60.54 28.19, 74.99 12.05, 85.04 -0.28 M50.66 45.37 C61.08 34.68, 68.81 23.89, 90.03 0.08 M50.66 45.37 C65.92 27.64, 82.1 9.94, 90.03 0.08 M56.31 44.97 C68 32.37, 80.53 18.79, 95.67 -0.31 M56.31 44.97 C66.94 30.98, 78.27 19.11, 95.67 -0.31 M61.29 45.33 C75.6 28.19, 86.36 14.23, 100.66 0.05 M61.29 45.33 C76.2 27.93, 91.86 9.21, 100.66 0.05 M66.94 44.94 C82.8 25.85, 96.7 9.44, 106.3 -0.34 M66.94 44.94 C77.43 32.65, 89.45 19.3, 106.3 -0.34 M71.92 45.3 C86.18 28.93, 96.31 15.65, 111.29 0.02 M71.92 45.3 C81.33 35.25, 90.48 24.56, 111.29 0.02 M77.57 44.9 C90.5 31.82, 102.92 16.52, 116.27 0.38 M77.57 44.9 C86.31 36.11, 93.84 26.56, 116.27 0.38 M82.55 45.26 C99.2 28.68, 111.46 9.55, 121.92 -0.02 M82.55 45.26 C91.87 34.24, 101.29 23.34, 121.92 -0.02 M88.2 44.87 C99.18 32.3, 109.25 23.9, 126.91 0.34 M88.2 44.87 C103.11 27.67, 117.8 10.27, 126.91 0.34 M93.18 45.23 C106.57 25.53, 124.53 10.73, 132.55 -0.05 M93.18 45.23 C105.99 29.79, 119.24 15.91, 132.55 -0.05 M98.83 44.83 C110.83 28.31, 125.11 13.37, 137.54 0.31 M98.83 44.83 C113.59 27.44, 130.02 9.48, 137.54 0.31 M103.81 45.19 C113.63 34.88, 119.92 25.23, 143.18 -0.09 M103.81 45.19 C115.61 31.84, 126.82 18.13, 143.18 -0.09 M109.46 44.8 C119.45 30.87, 131 20.15, 148.17 0.27 M109.46 44.8 C125.18 27.23, 138.09 10.47, 148.17 0.27 M114.44 45.16 C127.62 29.43, 141.87 15.24, 153.81 -0.12 M114.44 45.16 C127.01 30.82, 140.44 16.83, 153.81 -0.12 M120.09 44.77 C133.89 29.49, 147.83 13.22, 158.8 0.24 M120.09 44.77 C128.47 33.9, 136.81 24.03, 158.8 0.24 M125.07 45.13 C135.01 32.18, 148.61 19.45, 164.44 -0.16 M125.07 45.13 C137.99 31.22, 149.89 16.5, 164.44 -0.16 M130.06 45.49 C141.39 30.35, 157.01 14.77, 166.8 3.22 M130.06 45.49 C144.34 29.34, 157.64 14.56, 166.8 3.22 M135.7 45.09 C143.63 36.52, 151.31 24.39, 166.54 9.62 M135.7 45.09 C144.38 33.05, 155.98 21.78, 166.54 9.62 M140.69 45.45 C145.22 38.16, 153.5 31.17, 166.28 16.02 M140.69 45.45 C150.01 34.11, 160.89 21.94, 166.28 16.02 M146.34 45.06 C154.28 36.15, 159.42 31.46, 166.67 21.66 M146.34 45.06 C153 36.26, 160.48 28.94, 166.67 21.66 M151.32 45.42 C157.3 37.9, 162.86 33.01, 166.41 28.06 M151.32 45.42 C154.89 42.2, 157.54 37.3, 166.41 28.06 M156.97 45.02 C160.73 40.66, 163.22 38.88, 166.81 33.7 M156.97 45.02 C160.53 41.22, 163.16 37.14, 166.81 33.7 M161.95 45.38 C162.93 43.78, 163.47 43.37, 166.54 40.1 M161.95 45.38 C163.3 43.84, 164.69 42.28, 166.54 40.1" stroke="#905000" stroke-width="0.5" fill="none"></path><path d="M0 0 C41.67 0.47, 82.68 1.21, 166 0 M0 0 C56.57 -1.26, 111.02 -1.14, 166 0 M166 0 C165.44 18.81, 167.34 36.7, 166 44.67 M166 0 C167.39 11.07, 166.98 23.68, 166 44.67 M166 44.67 C108.88 44.5, 51.62 42.67, 0 44.67 M166 44.67 C120.82 46.03, 73.23 45.83, 0 44.67 M0 44.67 C-1.03 28.99, -0.07 15.81, 0 0 M0 44.67 C-0.57 29.48, 0.11 14.61, 0 0" stroke="#ededed" stroke-width="1" fill="none"></path></g><g transform="translate(411.0918229455928 189.1666259765625) rotate(0 44.5 11.5)"><text x="44.5" y="16.900390625" font-family="Helvetica, sans-serif, Segoe UI Emoji" font-size="20px" fill="#ededed" text-anchor="middle" style="white-space: pre;" direction="ltr" dominant-baseline="alphabetic">guardiand</text></g><g transform="translate(539.5918839807491 134.6666259765625) rotate(0 59.5 11.5)"><text x="0" y="16.900390625" font-family="Helvetica, sans-serif, Segoe UI Emoji" font-size="20px" fill="#50a260" text-anchor="start" style="white-space: pre;" direction="ltr" dominant-baseline="alphabetic">◎ admin.sock</text></g><g stroke-linecap="round"><g transform="translate(512.6400334856062 168.6499090269208) rotate(0 8.912605843148128 -7.518440075963724)"><path d="M0.33 0.32 C3.16 -2.07, 14.45 -12.62, 17.49 -15.35" stroke="#ededed" stroke-width="1.5" fill="none" stroke-dasharray="8 9"></path></g></g><mask></mask><g transform="translate(488.25838788699906 83.99993896484375) rotate(0 47.5 11.5)"><text x="0" y="16.900390625" font-family="Helvetica, sans-serif, Segoe UI Emoji" font-size="20px" fill="#ff8f8f" text-anchor="start" style="white-space: pre;" direction="ltr" dominant-baseline="alphabetic">▼ p2p key</text></g><g stroke-linecap="round"><g transform="translate(504.2584489221553 117.6666259765625) rotate(0 -4.273698902941533 19.982962473566886)"><path d="M0.04 0.15 C-1.42 6.84, -6.9 33.5, -8.33 40.21 M-0.6 -0.24 C-2.15 6.26, -7.21 32.72, -8.59 39.35" stroke="#ededed" stroke-width="1" fill="none"></path></g></g><mask></mask><g transform="translate(360.2584489221553 84) rotate(0 58.5 11.5)"><text x="0" y="16.900390625" font-family="Helvetica, sans-serif, Segoe UI Emoji" font-size="20px" fill="#ff8f8f" text-anchor="start" style="white-space: pre;" direction="ltr" dominant-baseline="alphabetic">▼ bridge key</text></g><g stroke-linecap="round"><g transform="translate(444.2584489221553 114.99993896484375) rotate(0 14.98313502520324 23.759700206345855)"><path d="M-0.81 1.09 C4.28 9.05, 25.37 39.16, 30.77 46.9 M0.97 0.62 C5.83 8.26, 24.53 37.4, 29.53 44.9" stroke="#ededed" stroke-width="1" fill="none"></path></g></g><mask></mask><g stroke-opacity="0.6" fill-opacity="0.6" stroke-linecap="round" transform="translate(155.5918229455928 97.66668701171875) rotate(0 62 24.666656494140625)"><path d="M0 0 C0 0, 0 0, 0 0 M0 0 C0 0, 0 0, 0 0 M-0.26 6.4 C1.42 4.3, 2.26 3.33, 4.99 0.36 M-0.26 6.4 C1.57 4.33, 3.76 1.69, 4.99 0.36 M0.13 12.04 C1.66 7.98, 5.47 6.86, 10.63 -0.03 M0.13 12.04 C3.06 9.89, 4.95 6.13, 10.63 -0.03 M-0.13 18.44 C5.67 9.96, 11.19 6.12, 15.62 0.33 M-0.13 18.44 C4.94 12.46, 11.4 5.71, 15.62 0.33 M0.27 24.08 C8.45 15.43, 15.18 6.91, 21.26 -0.07 M0.27 24.08 C5.98 16.63, 11.35 10.82, 21.26 -0.07 M0 30.48 C4.04 22.01, 12.77 17.81, 26.25 0.29 M0 30.48 C9.8 19.25, 20.14 8.53, 26.25 0.29 M-0.26 36.88 C11.67 24.1, 22.8 11.23, 31.89 -0.1 M-0.26 36.88 C8.83 27.13, 17.07 17.74, 31.89 -0.1 M0.14 42.52 C10.96 32.09, 20.74 18.66, 36.88 0.26 M0.14 42.52 C8.1 33.91, 16.21 25.44, 36.88 0.26 M-0.12 48.92 C11.66 36.1, 21.31 27.34, 42.52 -0.14 M-0.12 48.92 C11.75 34.98, 21.53 24.19, 42.52 -0.14 M4.21 50.03 C16.54 35.63, 28.47 22.57, 47.51 0.22 M4.21 50.03 C18.93 33.44, 32.42 16.81, 47.51 0.22 M9.85 49.64 C21.24 36.15, 37 18.34, 53.15 -0.17 M9.85 49.64 C23.29 34.51, 34.7 20.74, 53.15 -0.17 M14.84 50 C24.67 36.83, 36.66 26.39, 58.14 0.19 M14.84 50 C25.28 39.04, 35.52 26.8, 58.14 0.19 M20.48 49.6 C34.87 33.66, 48.26 19.66, 63.78 -0.21 M20.48 49.6 C35.54 32.07, 50 15.78, 63.78 -0.21 M25.47 49.96 C34.05 38.04, 46.66 25.89, 68.77 0.15 M25.47 49.96 C35.72 36.42, 47.72 24.29, 68.77 0.15 M31.11 49.57 C42.46 38.55, 48.58 26.99, 74.41 -0.24 M31.11 49.57 C42.18 35.72, 55.83 20.7, 74.41 -0.24 M36.1 49.93 C50.5 33.52, 67.23 12.87, 79.4 0.12 M36.1 49.93 C50.99 31.67, 66.24 14.81, 79.4 0.12 M41.74 49.53 C55.02 34.56, 67.84 20.29, 85.04 -0.28 M41.74 49.53 C59.03 30.63, 75.44 9.12, 85.04 -0.28 M46.73 49.89 C56.75 37.17, 64.88 24.97, 90.03 0.08 M46.73 49.89 C63.22 31.35, 79.26 11.2, 90.03 0.08 M52.37 49.5 C63.85 39.08, 72.3 25.27, 95.67 -0.31 M52.37 49.5 C63.31 35.48, 75.06 22.83, 95.67 -0.31 M57.36 49.86 C66.45 39.17, 73.77 30.38, 100.66 0.05 M57.36 49.86 C73.51 30.83, 90.15 11.93, 100.66 0.05 M63 49.47 C73.48 38, 81.56 28.36, 106.3 -0.34 M63 49.47 C73.22 36.46, 84.07 24.08, 106.3 -0.34 M67.99 49.83 C79.19 35.65, 90.78 25.33, 111.29 0.02 M67.99 49.83 C81.32 33.95, 96.22 16.74, 111.29 0.02 M73.63 49.43 C91.45 31.83, 108.08 13.14, 116.27 0.38 M73.63 49.43 C82.81 37.72, 91.88 27.99, 116.27 0.38 M78.62 49.79 C88.82 38.83, 97.15 28.34, 121.92 -0.02 M78.62 49.79 C91.11 35.66, 104 21.33, 121.92 -0.02 M84.26 49.4 C93.7 36.94, 104.93 23.02, 124.28 3.36 M84.26 49.4 C100.11 32.27, 115.98 14.23, 124.28 3.36 M89.25 49.76 C96.23 40.8, 106.08 32.2, 124.02 9.76 M89.25 49.76 C99.89 37.07, 111.34 23.52, 124.02 9.76 M94.24 50.12 C104.95 36.93, 116.44 24.32, 124.41 15.4 M94.24 50.12 C105.48 37.26, 115.43 25.73, 124.41 15.4 M99.88 49.72 C103.44 43.19, 109.57 37.23, 124.15 21.8 M99.88 49.72 C105.08 42.64, 111.87 35.9, 124.15 21.8 M104.87 50.08 C109.74 42.74, 118.2 35.59, 124.55 27.44 M104.87 50.08 C110.05 44.35, 113.87 39.61, 124.55 27.44 M110.51 49.69 C115.16 42.26, 119.03 37.61, 124.29 33.84 M110.51 49.69 C116.56 43.27, 120.04 36.91, 124.29 33.84 M115.5 50.05 C117.86 47.07, 120.76 44.42, 124.02 40.24 M115.5 50.05 C118.11 47.26, 119.86 45.74, 124.02 40.24 M121.14 49.65 C122.71 48.04, 123.91 46.78, 124.42 45.88 M121.14 49.65 C121.59 48.71, 122.73 47.96, 124.42 45.88" stroke="#a885ff" stroke-width="0.5" fill="none"></path><path d="M0 0 C26.67 -0.82, 54.36 -0.64, 124 0 M124 0 C124.41 20.02, 125.03 37.75, 124 49.33 M124 49.33 C79.08 47.27, 31.3 46.81, 0 49.33 M0 49.33 C-0.99 31.58, -0.58 18.19, 0 0" stroke="#e498f7" stroke-width="1.5" fill="none" stroke-dasharray="8 9"></path></g><g stroke-opacity="0.6" fill-opacity="0.6" stroke-linecap="round" transform="translate(152.9250748987178 242.9998779296875) rotate(0 62 24.666656494140625)"><path d="M0 0 C0 0, 0 0, 0 0 M0 0 C0 0, 0 0, 0 0 M-0.26 6.4 C0.81 4.98, 2.46 3.32, 4.99 0.36 M-0.26 6.4 C1.58 4.12, 3.96 2.12, 4.99 0.36 M0.13 12.04 C3.87 7.46, 9.79 3.61, 10.63 -0.03 M0.13 12.04 C3.06 8.62, 7.12 3.6, 10.63 -0.03 M-0.13 18.44 C6.89 11.91, 12.51 7.13, 15.62 0.33 M-0.13 18.44 C5.31 10.25, 12.04 4.11, 15.62 0.33 M0.27 24.08 C3.85 17.02, 12.74 13.71, 21.26 -0.07 M0.27 24.08 C5.2 18.68, 8.84 13.75, 21.26 -0.07 M0 30.48 C8.67 17.77, 19.3 6, 26.25 0.29 M0 30.48 C6.26 23.45, 12.06 15.35, 26.25 0.29 M-0.26 36.88 C6.98 24.8, 15.31 17.82, 31.89 -0.1 M-0.26 36.88 C7.52 27.71, 15.47 19.4, 31.89 -0.1 M0.14 42.52 C12.79 27.69, 27.24 11.15, 36.88 0.26 M0.14 42.52 C13.73 26.39, 27.68 11.89, 36.88 0.26 M-0.12 48.92 C14.71 33.57, 31.34 13.82, 42.52 -0.14 M-0.12 48.92 C14.01 34.14, 26.93 17.34, 42.52 -0.14 M4.21 50.03 C17.26 34.07, 29.4 19.22, 47.51 0.22 M4.21 50.03 C13.35 39.1, 24.21 27.39, 47.51 0.22 M9.85 49.64 C25.31 32.27, 41.39 12.65, 53.15 -0.17 M9.85 49.64 C24.45 32.57, 39.55 15.38, 53.15 -0.17 M14.84 50 C29.9 31.54, 46.11 14.17, 58.14 0.19 M14.84 50 C33.34 30.78, 50.35 9.65, 58.14 0.19 M20.48 49.6 C34.74 33.2, 46.97 15.71, 63.78 -0.21 M20.48 49.6 C34.78 34.22, 47.24 18.85, 63.78 -0.21 M25.47 49.96 C39.83 34.04, 50.05 22.8, 68.77 0.15 M25.47 49.96 C37.05 36.91, 45.69 26.32, 68.77 0.15 M31.11 49.57 C47.05 32.11, 61.77 15.07, 74.41 -0.24 M31.11 49.57 C48.04 29.98, 65.93 9.05, 74.41 -0.24 M36.1 49.93 C53.21 31.72, 68.09 11.78, 79.4 0.12 M36.1 49.93 C45.8 36.42, 57.43 25.63, 79.4 0.12 M41.74 49.53 C58.94 31.61, 76.83 10.71, 85.04 -0.28 M41.74 49.53 C56.24 31.19, 71.08 14.1, 85.04 -0.28 M46.73 49.89 C64.79 28.55, 79.93 12.32, 90.03 0.08 M46.73 49.89 C60.73 35.44, 72.73 19.12, 90.03 0.08 M52.37 49.5 C61.06 39.36, 70.7 26.44, 95.67 -0.31 M52.37 49.5 C62.5 37.83, 72.73 25, 95.67 -0.31 M57.36 49.86 C72.9 32.46, 87.07 16.47, 100.66 0.05 M57.36 49.86 C73.49 28.93, 92.02 9.35, 100.66 0.05 M63 49.47 C75.91 36.47, 85.31 24.44, 106.3 -0.34 M63 49.47 C76.46 33.23, 92.16 16.34, 106.3 -0.34 M67.99 49.83 C81.44 33.61, 94.8 19.3, 111.29 0.02 M67.99 49.83 C81.87 33.51, 95.32 18.69, 111.29 0.02 M73.63 49.43 C83.78 37.72, 91.84 29.44, 116.27 0.38 M73.63 49.43 C82.45 39.57, 91.34 27.75, 116.27 0.38 M78.62 49.79 C94.2 32.09, 105.89 16.63, 121.92 -0.02 M78.62 49.79 C95.48 30.34, 112.54 10.34, 121.92 -0.02 M84.26 49.4 C98.19 30.74, 113.59 16.66, 124.28 3.36 M84.26 49.4 C93.99 39.37, 103.96 27.85, 124.28 3.36 M89.25 49.76 C95.34 40.65, 106.46 31.89, 124.02 9.76 M89.25 49.76 C100.06 37.25, 111.22 25.28, 124.02 9.76 M94.24 50.12 C102.63 39.85, 115.08 27.07, 124.41 15.4 M94.24 50.12 C104.47 38.54, 114.16 27.2, 124.41 15.4 M99.88 49.72 C107.75 41.61, 114.82 32.84, 124.15 21.8 M99.88 49.72 C107.22 41.19, 115.59 32.45, 124.15 21.8 M104.87 50.08 C111 43.12, 115.51 38.88, 124.55 27.44 M104.87 50.08 C112.5 40.86, 120.29 32.85, 124.55 27.44 M110.51 49.69 C113.7 46.65, 116.41 40.4, 124.29 33.84 M110.51 49.69 C115.56 42.84, 120.46 37.09, 124.29 33.84 M115.5 50.05 C117.21 48.3, 118.38 45.59, 124.02 40.24 M115.5 50.05 C118.35 46.6, 121.71 42.37, 124.02 40.24 M121.14 49.65 C121.94 48.55, 122.6 47.58, 124.42 45.88 M121.14 49.65 C122.37 48.5, 122.95 47.49, 124.42 45.88" stroke="#326f00" stroke-width="0.5" fill="none"></path><path d="M0 0 C27.5 -1.79, 50.51 -1.17, 124 0 M124 0 C124.3 14.45, 124.34 25.75, 124 49.33 M124 49.33 C90.42 47.64, 54.67 46.41, 0 49.33 M0 49.33 C0 36.18, 2.16 28.02, 0 0" stroke="#4ab091" stroke-width="1.5" fill="none" stroke-dasharray="8 9"></path></g><g transform="translate(180.2584489221553 109.99993896484375) rotate(0 40 11.5)"><text x="0" y="16.900390625" font-family="Helvetica, sans-serif, Segoe UI Emoji" font-size="20px" fill="#ededed" text-anchor="start" style="white-space: pre;" direction="ltr" dominant-baseline="alphabetic">Eth node</text></g><g transform="translate(180.9251969690303 255.99981689453125) rotate(0 31 11.5)"><text x="0" y="16.900390625" font-family="Helvetica, sans-serif, Segoe UI Emoji" font-size="20px" fill="#ededed" text-anchor="start" style="white-space: pre;" direction="ltr" dominant-baseline="alphabetic">Solana</text></g><g stroke-linecap="round"><g transform="translate(373.5918229455928 203.66656494140625) rotate(0 -46.42856154066487 -27.61201374383461)"><path d="M-1.07 0.69 C-16.3 -8.57, -77.12 -46.47, -92.34 -55.91 M0.56 0 C-14.76 -9.11, -77.78 -45.74, -93.42 -54.95" stroke="#ededed" stroke-width="1" fill="none"></path></g><g transform="translate(373.5918229455928 203.66656494140625) rotate(0 -46.42856154066487 -27.61201374383461)"><path d="M-68.82 -50.47 C-73.01 -52.1, -81.32 -53.11, -93.42 -54.95 M-68.82 -50.47 C-73.46 -50.87, -78.75 -51.93, -93.42 -54.95" stroke="#ededed" stroke-width="1" fill="none"></path></g><g transform="translate(373.5918229455928 203.66656494140625) rotate(0 -46.42856154066487 -27.61201374383461)"><path d="M-77.46 -35.71 C-79.72 -40.46, -86.16 -44.69, -93.42 -54.95 M-77.46 -35.71 C-80.43 -39.11, -83.97 -43.18, -93.42 -54.95" stroke="#ededed" stroke-width="1" fill="none"></path></g></g><mask></mask><g stroke-linecap="round"><g transform="translate(367.020528931437 200.26055656750714) rotate(0 -43.25419075937481 37.33131444556835)"><path d="M0.76 1.02 C-13.65 13.57, -71.75 62.05, -86.24 74.16 M-0.3 0.51 C-14.9 12.84, -72.82 60.75, -87.27 72.6" stroke="#ededed" stroke-width="1" fill="none"></path></g><g transform="translate(367.020528931437 200.26055656750714) rotate(0 -43.25419075937481 37.33131444556835)"><path d="M-74.58 51.06 C-77.13 57.74, -81.07 64.69, -87.27 72.6 M-74.58 51.06 C-78.5 58.19, -84.57 64.99, -87.27 72.6" stroke="#ededed" stroke-width="1" fill="none"></path></g><g transform="translate(367.020528931437 200.26055656750714) rotate(0 -43.25419075937481 37.33131444556835)"><path d="M-63.7 64.25 C-69.59 66.81, -76.99 69.56, -87.27 72.6 M-63.7 64.25 C-71.27 66.76, -81.1 68.99, -87.27 72.6" stroke="#ededed" stroke-width="1" fill="none"></path></g></g><mask></mask><g stroke-linecap="round"><g stroke-opacity="0.2" fill-opacity="0.2" transform="translate(17.59188398074906 79) rotate(0 48.83061219539172 -10.793664546769264)" fill-rule="evenodd"><path d="M1.65 -29.04 C1.65 -29.04, 1.65 -29.04, 1.65 -29.04 M1.65 -29.04 C1.65 -29.04, 1.65 -29.04, 1.65 -29.04 M0.74 -21.88 C4.78 -25.16, 7.88 -28.69, 9.92 -32.45 M0.74 -21.88 C3.23 -24.96, 6.47 -28.72, 9.92 -32.45 M-3.46 -10.96 C1.19 -17.92, 8.23 -23.96, 16.88 -34.35 M-3.46 -10.96 C1.68 -17.83, 7.71 -25.21, 16.88 -34.35 M-1.75 -6.82 C4.26 -14.81, 10.48 -24.09, 23.83 -36.26 M-1.75 -6.82 C7.43 -18.54, 18.1 -29.34, 23.83 -36.26 M-0.7 -1.94 C6.55 -8.28, 14.4 -17.49, 28.16 -35.14 M-0.7 -1.94 C7.34 -11.49, 14.67 -19.09, 28.16 -35.14 M6.25 -3.84 C13.28 -7.77, 17.79 -14.76, 29.87 -31.01 M6.25 -3.84 C13.45 -12.38, 21.73 -22.42, 29.87 -31.01 M35.77 -37.8 C35.77 -37.8, 35.77 -37.8, 35.77 -37.8 M35.77 -37.8 C35.77 -37.8, 35.77 -37.8, 35.77 -37.8 M6.65 1.8 C21.18 -12.16, 34.39 -29.3, 45.35 -42.72 M6.65 1.8 C15.62 -9.53, 25.47 -19.17, 45.35 -42.72 M5.73 8.96 C20.66 -6.47, 30.89 -21.04, 51 -43.12 M5.73 8.96 C18.3 -5.79, 30.96 -20.23, 51 -43.12 M10.72 9.32 C28.91 -8.8, 45.68 -29.63, 56.64 -43.51 M10.72 9.32 C25.83 -5.89, 39.04 -23.83, 56.64 -43.51 M11.11 14.96 C23.73 3.08, 32.83 -7.97, 60.32 -41.64 M11.11 14.96 C23.62 0.69, 35.48 -13.97, 60.32 -41.64 M16.1 15.32 C30.85 -0.29, 45.76 -17.04, 63.99 -39.78 M16.1 15.32 C30.91 -1.41, 46.41 -18.79, 63.99 -39.78 M21.08 15.68 C35.86 -0.31, 50.37 -17.37, 68.32 -38.66 M21.08 15.68 C33.83 2.1, 44.37 -11.4, 68.32 -38.66 M26.07 16.04 C40.43 -1.92, 57.74 -20.93, 71.34 -36.04 M26.07 16.04 C40.86 -0.32, 55.35 -17.17, 71.34 -36.04 M30.4 17.15 C39.83 4.21, 48.44 -7.17, 76.98 -36.43 M30.4 17.15 C45.15 -0.12, 59.17 -15.3, 76.98 -36.43 M32.11 21.29 C48.07 3.92, 60.46 -9.97, 81.97 -36.07 M32.11 21.29 C42.39 8.92, 54.17 -2.94, 81.97 -36.07 M34.47 24.67 C47.78 6.88, 65.19 -11.13, 88.27 -37.22 M34.47 24.67 C54.22 1.6, 75.93 -22.15, 88.27 -37.22 M40.12 24.27 C60.47 -1.38, 80.9 -23.88, 92.6 -36.11 M40.12 24.27 C57.76 2.69, 76.93 -18.5, 92.6 -36.11 M47.07 22.37 C48.18 20.71, 49.13 18.78, 51.66 17.08 M47.07 22.37 C49.05 20.53, 50.8 18.66, 51.66 17.08 M51.66 17.08 C69.41 -1.05, 82.97 -18.02, 96.28 -34.24 M51.66 17.08 C63.13 2.91, 77.11 -11.78, 96.28 -34.24 M54.68 19.71 C69.87 4, 83.79 -12.19, 99.95 -32.37 M54.68 19.71 C72.07 1.4, 86.23 -16.52, 99.95 -32.37 M57.04 23.09 C74.41 3.05, 92.58 -18.39, 102.97 -29.74 M57.04 23.09 C70.21 9.45, 81.79 -5.8, 102.97 -29.74 M60.06 25.71 C67.51 14.35, 79.09 6.38, 103.36 -24.1 M60.06 25.71 C73.35 10.52, 86.85 -5.73, 103.36 -24.1 M65.71 25.32 C68.85 22.21, 70.72 19.6, 74.24 15.51 M65.71 25.32 C67.95 22.09, 71.66 18.81, 74.24 15.51 M74.24 15.51 C82.07 4.82, 87.84 -4.09, 95.23 -8.64 M74.24 15.51 C82.97 5.46, 91.35 -2.37, 95.23 -8.64 M95.23 -8.64 C99.12 -12.67, 101.31 -15.35, 103.1 -17.7 M95.23 -8.64 C97.59 -10.85, 99.1 -12.62, 103.1 -17.7 M73.32 22.66 C75.64 19.72, 77.36 17.75, 78.57 16.62 M73.32 22.66 C74.84 21.48, 75.97 19.19, 78.57 16.62 M79.88 15.11 C86.19 8.73, 91.51 0.39, 98.25 -6.02 M79.88 15.11 C86.49 8.69, 90.7 1.56, 98.25 -6.02 M87.49 12.45 C91.64 8.68, 97.13 2.77, 100.61 -2.64 M87.49 12.45 C92.28 7.59, 96.94 0.57, 100.61 -2.64" stroke="#d471ed" stroke-width="0.5" fill="none"></path><path d="M0.65 -0.47 C-0.06 -2.31, -3.88 -7.86, -4.51 -11.05 C-5.15 -14.24, -4.13 -16.62, -3.16 -19.63 C-2.2 -22.64, -2.42 -26.35, 1.27 -29.12 C4.96 -31.9, 14.69 -35.02, 18.97 -36.27 C23.26 -37.52, 25.17 -37.82, 26.99 -36.61 C28.81 -35.4, 28.78 -28.8, 29.88 -28.99 C30.98 -29.19, 31.46 -35.05, 33.6 -37.77 C35.75 -40.49, 39.44 -44.02, 42.76 -45.31 C46.07 -46.6, 49.25 -46.32, 53.5 -45.52 C57.76 -44.71, 65.41 -42.22, 68.27 -40.47 C71.13 -38.72, 70.02 -35.62, 70.68 -35.02 C71.35 -34.43, 71.04 -36.15, 72.27 -36.91 C73.5 -37.67, 75.38 -39.34, 78.06 -39.58 C80.74 -39.83, 85.62 -38.92, 88.34 -38.38 C91.07 -37.84, 92.68 -37.03, 94.41 -36.36 C96.14 -35.69, 97.39 -35.66, 98.72 -34.37 C100.04 -33.08, 102.19 -32.17, 102.36 -28.63 C102.54 -25.1, 100.44 -16.48, 99.76 -13.17 C99.08 -9.85, 99.11 -9.28, 98.28 -8.74 C97.44 -8.21, 94.95 -10.49, 94.76 -9.96 C94.58 -9.43, 96.76 -7.79, 97.17 -5.55 C97.59 -3.3, 97.65 1.37, 97.26 3.51 C96.88 5.65, 96.51 5.86, 94.86 7.29 C93.2 8.71, 91.03 10.98, 87.34 12.07 C83.65 13.17, 74.58 13.71, 72.73 13.85 C70.88 14, 75.74 12.12, 76.25 12.94 C76.76 13.76, 76.44 17.04, 75.79 18.78 C75.13 20.51, 75.43 22.45, 72.32 23.35 C69.21 24.25, 60.7 25.2, 57.14 24.16 C53.57 23.11, 51.73 18.01, 50.92 17.07 C50.12 16.13, 52.99 17.75, 52.3 18.5 C51.6 19.26, 50.11 21.2, 46.77 21.62 C43.42 22.04, 35.22 21.9, 32.23 21.01 C29.23 20.11, 32.38 17.72, 28.81 16.25 C25.25 14.78, 14 13.64, 10.82 12.19 C7.64 10.74, 10.47 8.29, 9.75 7.56 C9.03 6.83, 7.72 10, 6.5 7.79 C5.27 5.58, 3.64 -4.36, 2.39 -5.71 C1.14 -7.06, -0.8 -1.16, -1.01 -0.32 M-0.46 -1.76 C-0.81 -3.98, -1.8 -10.24, -2.42 -13.02 C-3.04 -15.81, -4.84 -15.93, -4.19 -18.47 C-3.54 -21.01, -2.16 -25.33, 1.48 -28.26 C5.12 -31.18, 13.76 -35.02, 17.66 -36.02 C21.57 -37.03, 22.72 -35.29, 24.91 -34.31 C27.11 -33.33, 29.01 -29.61, 30.81 -30.16 C32.6 -30.72, 33.41 -35.44, 35.68 -37.64 C37.95 -39.84, 41.45 -41.97, 44.44 -43.37 C47.44 -44.78, 49.61 -46.61, 53.66 -46.06 C57.71 -45.51, 66.13 -41.94, 68.73 -40.08 C71.34 -38.23, 68.57 -35.36, 69.28 -34.93 C69.99 -34.5, 71.7 -36.62, 72.99 -37.51 C74.29 -38.39, 74.95 -40.04, 77.04 -40.26 C79.13 -40.47, 82.44 -39.67, 85.54 -38.78 C88.64 -37.9, 93.11 -35.72, 95.66 -34.95 C98.2 -34.18, 99.81 -35.34, 100.8 -34.17 C101.79 -32.99, 101.49 -31.34, 101.62 -27.9 C101.74 -24.46, 102.56 -16.47, 101.56 -13.52 C100.56 -10.58, 96.9 -11.16, 95.6 -10.21 C94.29 -9.26, 93.49 -8.35, 93.73 -7.82 C93.96 -7.29, 96.5 -8.72, 97.03 -7.01 C97.55 -5.31, 97.05 0.16, 96.86 2.39 C96.67 4.62, 97.2 4.71, 95.89 6.38 C94.58 8.05, 92.66 11.19, 89 12.4 C85.34 13.61, 76.39 13.09, 73.92 13.63 C71.45 14.16, 73.66 15.01, 74.18 15.61 C74.71 16.2, 77.39 16.21, 77.07 17.21 C76.75 18.21, 75.36 20.61, 72.24 21.62 C69.12 22.62, 62.01 23.72, 58.35 23.24 C54.7 22.76, 51.28 19.3, 50.33 18.75 C49.39 18.21, 53.56 19.61, 52.69 19.97 C51.82 20.34, 48.81 20.64, 45.1 20.92 C41.38 21.2, 33.39 22.47, 30.4 21.65 C27.41 20.84, 30.27 17.5, 27.15 16.05 C24.04 14.61, 14.33 14.1, 11.68 12.99 C9.03 11.87, 12.52 9.79, 11.27 9.35 C10.02 8.91, 5.24 12.71, 4.17 10.32 C3.1 7.94, 5.43 -3.15, 4.86 -4.96 C4.28 -6.76, 1.76 -1.25, 0.7 -0.49" stroke="#ededed" stroke-width="1" fill="none"></path></g></g><mask></mask><g stroke-linecap="round"><g stroke-opacity="0.2" fill-opacity="0.2" transform="translate(12.92525800418656 330.33331298828114) rotate(0 49.44674718394376 -10.221538953764991)" fill-rule="evenodd"><path d="M1.65 -29.04 C1.65 -29.04, 1.65 -29.04, 1.65 -29.04 M1.65 -29.04 C1.65 -29.04, 1.65 -29.04, 1.65 -29.04 M0.74 -21.88 C2.93 -24.1, 4.56 -26.29, 9.92 -32.45 M0.74 -21.88 C3.04 -24.86, 5.52 -26.95, 9.92 -32.45 M-3.46 -10.96 C1.65 -18.67, 9.08 -24.87, 16.88 -34.35 M-3.46 -10.96 C0.35 -17.1, 6.03 -22.18, 16.88 -34.35 M-1.75 -6.82 C6.38 -14.46, 14.59 -22.57, 23.83 -36.26 M-1.75 -6.82 C7.65 -19.35, 18.85 -31.01, 23.83 -36.26 M-0.7 -1.94 C8.11 -10.61, 17.78 -21.61, 28.16 -35.14 M-0.7 -1.94 C7.65 -11.35, 15.96 -20.79, 28.16 -35.14 M6.25 -3.84 C12.06 -14.16, 22.83 -20.7, 29.87 -31.01 M6.25 -3.84 C15.19 -12.34, 22.52 -23.07, 29.87 -31.01 M35.77 -37.8 C35.77 -37.8, 35.77 -37.8, 35.77 -37.8 M35.77 -37.8 C35.77 -37.8, 35.77 -37.8, 35.77 -37.8 M6.65 1.8 C17.16 -8.21, 24.01 -21.14, 45.35 -42.72 M6.65 1.8 C20.07 -14.31, 34.12 -28.53, 45.35 -42.72 M5.73 8.96 C19.93 -5.92, 31.7 -21.99, 51 -43.12 M5.73 8.96 C15.7 -1.67, 24.62 -12.87, 51 -43.12 M10.72 9.32 C30.14 -12.74, 45.32 -32.57, 56.64 -43.51 M10.72 9.32 C29.96 -11.26, 48.11 -32.57, 56.64 -43.51 M11.11 14.96 C24.88 1.54, 37.69 -13.84, 60.32 -41.64 M11.11 14.96 C21.42 2.64, 32.6 -9.59, 60.32 -41.64 M16.1 15.32 C29.18 -1.72, 42.26 -16.34, 63.99 -39.78 M16.1 15.32 C29.08 0.85, 42.52 -14.96, 63.99 -39.78 M21.08 15.68 C35.48 -1.32, 47.89 -15.5, 68.32 -38.66 M21.08 15.68 C34.49 -0.08, 48.8 -16.09, 68.32 -38.66 M26.07 16.04 C44.02 -3.68, 62.47 -23.03, 71.34 -36.04 M26.07 16.04 C39.39 1.03, 52.59 -13.75, 71.34 -36.04 M30.4 17.15 C40.15 5, 53.98 -11.19, 76.98 -36.43 M30.4 17.15 C40.57 6.22, 49.44 -4.83, 76.98 -36.43 M32.11 21.29 C44.31 7.78, 57.79 -11.22, 81.97 -36.07 M32.11 21.29 C46.95 2.92, 62.02 -14.05, 81.97 -36.07 M34.47 24.67 C55.4 0.18, 76.55 -24.26, 88.27 -37.22 M34.47 24.67 C47.27 10.33, 60.95 -5.7, 88.27 -37.22 M40.12 24.27 C57.03 5.12, 73.69 -17.98, 92.6 -36.11 M40.12 24.27 C59.7 0.63, 77.8 -20.18, 92.6 -36.11 M47.07 22.37 C48.48 20.41, 50.04 20.25, 51.66 17.08 M47.07 22.37 C48.6 21.12, 49.63 19.89, 51.66 17.08 M51.66 17.08 C63.53 6.64, 70.93 -6.78, 96.28 -34.24 M51.66 17.08 C63.18 2.66, 73.88 -9.5, 96.28 -34.24 M54.68 19.71 C69.51 -0.01, 84.63 -17.22, 99.95 -32.37 M54.68 19.71 C68.77 4.73, 82.47 -10.15, 99.95 -32.37 M57.04 23.09 C67.34 10.01, 75.07 2.45, 102.97 -29.74 M57.04 23.09 C71.59 7.37, 87.33 -9.44, 102.97 -29.74 M60.06 25.71 C75.16 6.75, 91.97 -9.98, 103.36 -24.1 M60.06 25.71 C73.47 11.05, 84.98 -3.68, 103.36 -24.1 M65.71 25.32 C69.11 23.2, 70.61 19.74, 74.24 15.51 M65.71 25.32 C67.99 23.62, 69.43 21.34, 74.24 15.51 M74.24 15.51 C80.38 7.49, 84.46 4.31, 95.23 -8.64 M74.24 15.51 C81.94 5.1, 89.77 -3.89, 95.23 -8.64 M95.23 -8.64 C97.23 -10.34, 100.01 -14.61, 103.1 -17.7 M95.23 -8.64 C97.84 -11.24, 99.19 -13.53, 103.1 -17.7 M73.32 22.66 C74.46 21.81, 76.3 20.32, 78.57 16.62 M73.32 22.66 C75.11 21.32, 76.46 19.54, 78.57 16.62 M79.88 15.11 C87.53 7.71, 90.79 1.88, 98.25 -6.02 M79.88 15.11 C84.56 9.82, 88.98 3.78, 98.25 -6.02 M87.49 12.45 C90.13 7.56, 95.98 5.21, 100.61 -2.64 M87.49 12.45 C92.16 6.71, 97.55 -0.06, 100.61 -2.64" stroke="#326f00" stroke-width="0.5" fill="none"></path><path d="M0.73 -0.96 C0.35 -2.62, -1.85 -7.25, -2.28 -10.48 C-2.72 -13.72, -2.62 -17.48, -1.88 -20.36 C-1.13 -23.23, -1.14 -25.17, 2.17 -27.74 C5.49 -30.3, 13.94 -34.28, 18.01 -35.76 C22.09 -37.24, 24.6 -37.55, 26.64 -36.62 C28.69 -35.69, 28.8 -29.85, 30.3 -30.19 C31.8 -30.54, 33.44 -36.44, 35.63 -38.69 C37.81 -40.95, 40.08 -42.8, 43.42 -43.74 C46.75 -44.67, 51.5 -45.14, 55.63 -44.31 C59.76 -43.48, 65.87 -40.17, 68.21 -38.76 C70.56 -37.35, 69.27 -36.01, 69.71 -35.85 C70.16 -35.68, 69.23 -37.16, 70.88 -37.78 C72.53 -38.39, 76.76 -39.58, 79.59 -39.54 C82.43 -39.51, 85.51 -37.88, 87.88 -37.56 C90.25 -37.25, 91.84 -38.46, 93.81 -37.66 C95.78 -36.86, 98.38 -34.21, 99.69 -32.78 C101.01 -31.36, 101.48 -32.55, 101.71 -29.12 C101.93 -25.7, 101.86 -15.54, 101.06 -12.23 C100.26 -8.93, 98.11 -9.75, 96.9 -9.27 C95.69 -8.8, 93.45 -10.05, 93.8 -9.39 C94.16 -8.73, 98.43 -7.41, 99.03 -5.32 C99.62 -3.22, 97.75 0.95, 97.35 3.2 C96.96 5.45, 98.17 6.76, 96.64 8.19 C95.12 9.62, 92.05 10.76, 88.22 11.77 C84.39 12.79, 75.59 13.77, 73.67 14.28 C71.74 14.79, 76.37 14.08, 76.65 14.83 C76.93 15.58, 76.04 17.34, 75.34 18.79 C74.65 20.24, 75.46 22.92, 72.5 23.54 C69.55 24.15, 61.28 23.49, 57.61 22.47 C53.93 21.45, 51.42 17.93, 50.44 17.44 C49.46 16.95, 52.3 18.69, 51.72 19.53 C51.15 20.37, 50.32 21.94, 46.99 22.47 C43.67 23, 34.88 23.77, 31.77 22.72 C28.65 21.67, 31.93 17.77, 28.32 16.18 C24.71 14.58, 12.87 14.5, 10.09 13.15 C7.31 11.8, 12.3 8.7, 11.64 8.08 C10.98 7.46, 7.66 11.62, 6.12 9.43 C4.59 7.23, 3.35 -3.35, 2.46 -5.11 C1.56 -6.86, 1.18 -1.89, 0.77 -1.08 M-0.35 1.15 C-0.79 -0.8, -2.37 -8.7, -2.68 -12.16 C-3 -15.61, -3.15 -16.64, -2.23 -19.58 C-1.3 -22.52, -0.82 -27.19, 2.86 -29.81 C6.54 -32.42, 15.66 -34.49, 19.86 -35.25 C24.06 -36, 26.72 -35.48, 28.05 -34.33 C29.37 -33.18, 26.61 -27.54, 27.79 -28.33 C28.97 -29.12, 32.77 -36.33, 35.11 -39.05 C37.44 -41.76, 38.76 -43.77, 41.79 -44.63 C44.81 -45.49, 48.77 -44.81, 53.25 -44.23 C57.72 -43.64, 65.61 -42.48, 68.64 -41.14 C71.68 -39.8, 71.09 -36.57, 71.46 -36.19 C71.83 -35.8, 69.55 -38.17, 70.87 -38.83 C72.19 -39.5, 76.44 -40.41, 79.37 -40.2 C82.31 -39.98, 85.94 -38.09, 88.5 -37.54 C91.06 -37, 93.06 -37.9, 94.74 -36.93 C96.43 -35.97, 97.65 -33.13, 98.63 -31.75 C99.61 -30.37, 100.41 -31.92, 100.62 -28.65 C100.83 -25.37, 100.45 -15.04, 99.88 -12.1 C99.3 -9.16, 97.82 -11.27, 97.16 -11.02 C96.51 -10.77, 96.08 -11.33, 95.92 -10.61 C95.76 -9.88, 96.01 -9.36, 96.19 -6.66 C96.37 -3.96, 97.2 3.17, 97 5.57 C96.79 7.97, 96.68 6.69, 94.96 7.75 C93.24 8.81, 90.56 10.85, 86.68 11.94 C82.8 13.03, 73.67 13.8, 71.69 14.28 C69.71 14.76, 74.01 14.34, 74.8 14.83 C75.58 15.32, 76.78 16.06, 76.4 17.24 C76.02 18.41, 75.41 20.72, 72.52 21.9 C69.63 23.08, 62.89 25.37, 59.07 24.33 C55.25 23.29, 50.8 16.72, 49.59 15.65 C48.38 14.57, 52.51 16.79, 51.81 17.89 C51.12 18.98, 48.52 21.77, 45.44 22.22 C42.37 22.67, 36.53 21.65, 33.36 20.61 C30.18 19.56, 30.2 16.97, 26.4 15.95 C22.6 14.92, 13.22 15.42, 10.57 14.46 C7.92 13.49, 11.65 11.03, 10.49 10.14 C9.33 9.26, 4.53 12.13, 3.61 9.16 C2.68 6.19, 5.59 -5.89, 4.95 -7.7 C4.31 -9.5, 0.5 -2.98, -0.26 -1.66" stroke="#ededed" stroke-width="1" fill="none"></path></g></g><mask></mask><g stroke-linecap="round"><g stroke-opacity="0.2" fill-opacity="0.2" transform="translate(152.2584489221553 116.99993896484375) rotate(0 -31.757153794816702 -19.477841937439536)"><path d="M-0.52 -0.68 C-11.14 -7.22, -54.39 -32.43, -64.92 -38.96 M1.41 1.57 C-8.74 -5.31, -51.74 -33.86, -62.7 -40.53" stroke="#ededed" stroke-width="1" fill="none"></path></g><g stroke-opacity="0.2" fill-opacity="0.2" transform="translate(152.2584489221553 116.99993896484375) rotate(0 -31.757153794816702 -19.477841937439536)"><path d="M-38.3 -35.06 C-44.36 -37.8, -46.38 -36.85, -62.7 -40.53 M-38.3 -35.06 C-46.15 -36.61, -53.78 -39.02, -62.7 -40.53" stroke="#ededed" stroke-width="1" fill="none"></path></g><g stroke-opacity="0.2" fill-opacity="0.2" transform="translate(152.2584489221553 116.99993896484375) rotate(0 -31.757153794816702 -19.477841937439536)"><path d="M-47.53 -20.66 C-51.76 -26.26, -51.93 -28.2, -62.7 -40.53 M-47.53 -20.66 C-52.49 -26.68, -57.24 -33.59, -62.7 -40.53" stroke="#ededed" stroke-width="1" fill="none"></path></g></g><mask></mask><g stroke-linecap="round"><g stroke-opacity="0.2" fill-opacity="0.2" transform="translate(147.5918229455928 274.99993896484375) rotate(0 -22.11906400384032 12.63226305110146)"><path d="M0.09 0.46 C-7.25 4.49, -36.68 20.37, -44.01 24.41 M-0.52 0.21 C-7.92 4.32, -37.07 20.86, -44.33 25.05" stroke="#ededed" stroke-width="1" fill="none"></path></g><g stroke-opacity="0.2" fill-opacity="0.2" transform="translate(147.5918229455928 274.99993896484375) rotate(0 -22.11906400384032 12.63226305110146)"><path d="M-28.17 5.97 C-32.3 12.27, -38.31 18.36, -44.33 25.05 M-28.17 5.97 C-33.46 12.62, -38.91 18.78, -44.33 25.05" stroke="#ededed" stroke-width="1" fill="none"></path></g><g stroke-opacity="0.2" fill-opacity="0.2" transform="translate(147.5918229455928 274.99993896484375) rotate(0 -22.11906400384032 12.63226305110146)"><path d="M-19.69 20.82 C-26.46 22.54, -35.09 24.05, -44.33 25.05 M-19.69 20.82 C-27.8 22.62, -36.02 23.93, -44.33 25.05" stroke="#ededed" stroke-width="1" fill="none"></path></g></g><mask></mask><g stroke-opacity="0.2" fill-opacity="0.2" transform="translate(41.59182294559281 55.99993896484375) rotate(0 19 11.5)"><text x="0" y="16.900390625" font-family="Helvetica, sans-serif, Segoe UI Emoji" font-size="20px" fill="#ededed" text-anchor="start" style="white-space: pre;" direction="ltr" dominant-baseline="alphabetic">P2P</text></g><g stroke-opacity="0.2" fill-opacity="0.2" transform="translate(42.92519696903031 307.99993896484375) rotate(0 19 11.5)"><text x="0" y="16.900390625" font-family="Helvetica, sans-serif, Segoe UI Emoji" font-size="20px" fill="#ededed" text-anchor="start" style="white-space: pre;" direction="ltr" dominant-baseline="alphabetic">P2P</text></g><g stroke-opacity="0.2" fill-opacity="0.2" transform="translate(419.5919450159053 10) rotate(0 66.5 11.5)"><text x="0" y="16.900390625" font-family="Helvetica, sans-serif, Segoe UI Emoji" font-size="20px" fill="#ededed" text-anchor="start" style="white-space: pre;" direction="ltr" dominant-baseline="alphabetic">Guardian node</text></g><g stroke-opacity="0.4" fill-opacity="0.4" stroke-linecap="round" transform="translate(320.5919144983272 48.8333740234375) rotate(0 182.66668701171875 103)"><path d="M0 0 C131.81 1.83, 263.88 0.29, 365.33 0 M0 0 C89.97 0.16, 179.26 0.19, 365.33 0 M365.33 0 C367.42 43.23, 366.92 83.17, 365.33 206 M365.33 0 C367.35 51.94, 366.86 101.59, 365.33 206 M365.33 206 C227.47 203.47, 91 204.17, 0 206 M365.33 206 C240.09 204.68, 116.16 204.13, 0 206 M0 206 C0.07 157.42, 0.99 108.87, 0 0 M0 206 C2.19 156.71, 1.19 109.3, 0 0" stroke="#a4aab0" stroke-width="1" fill="none"></path></g></svg>