<svg version="1.1" xmlns="http://www.w3.org/2000/svg" viewBox="0 0 857.2812959476411 364.9254963866482" width="857.2812959476411" height="364.9254963866482">
  <!-- svg-source:excalidraw -->
  
  <defs>
    <style>
      @font-face {
        font-family: "Virgil";
        src: url("https://excalidraw.com/Virgil.woff2");
      }
      @font-face {
        font-family: "Cascadia";
        src: url("https://excalidraw.com/Cascadia.woff2");
      }
    </style>
  </defs>
  <rect x="0" y="0" width="857.2812959476411" height="364.9254963866482" fill="#ffffff"></rect><g stroke-linecap="round" transform="translate(533.6143953128754 178.33331298828125) rotate(0 83 22.333343505859375)"><path d="M0 0 C0 0, 0 0, 0 0 M0 0 C0 0, 0 0, 0 0 M-0.16 6.36 C0.89 4.68, 2.76 3.56, 4.79 0.48 M-0.13 6.76 C1.92 3.99, 3.5 1.91, 4.96 0.64 M1.1 11.9 C3.06 9, 6.67 5.42, 9.55 -1.27 M-0.47 12.49 C3.82 8.04, 7.24 2.99, 10.41 -0.48 M1.36 18.7 C4.01 14.24, 9.45 8.8, 17.25 1.51 M-0.99 17.68 C6.27 12.84, 10.16 6.37, 14.72 0.12 M2.12 22.81 C8.06 18.45, 12.06 9.91, 22.38 1.17 M-0.03 24.94 C6.62 15.65, 14.68 8.63, 21.24 0.78 M1.66 30.79 C8.24 20.29, 16.14 9.47, 27.84 1.99 M0.01 30.32 C7.28 20.41, 16.79 11.62, 25.31 1.15 M-2.2 35.27 C9.89 28.08, 18.57 19.23, 30.48 0.59 M0.63 37.64 C10.43 22.77, 23.66 9.37, 32.08 0.74 M1.44 41.94 C14.19 25.01, 26.06 9.98, 38.85 0.4 M-0.49 42.53 C13.07 26.18, 27.9 10.17, 37.61 0.51 M3.78 46.28 C16.46 28.27, 33.4 10.92, 41.72 -1.58 M2.83 46.02 C17.49 28.63, 33.77 9.58, 42.51 0.42 M5.58 48.07 C16.34 36.25, 25.12 27.12, 46.02 -0.08 M7.65 45.92 C23.63 27.33, 38.23 10.04, 47 1.13 M11.18 46.71 C21.28 38.28, 29.32 26.92, 53.4 1.27 M13.08 46.98 C22.84 36.46, 32.21 24.45, 52.63 -0.45 M16.93 46.84 C33.7 26.24, 51.08 10.11, 58.2 0.6 M17.82 45.46 C28.47 35.21, 37.02 26.04, 57.29 0.51 M21.83 44.94 C36.6 29.83, 47.78 16.74, 63.94 0.63 M23.92 46.55 C36.77 31.87, 50.03 16.11, 62.96 0.37 M28.12 48.01 C40.77 32.82, 51.01 22.79, 69.36 -0.63 M28.51 45.96 C38.15 34.92, 47.56 24.87, 68.72 0.68 M35.21 48.39 C48.71 30.49, 63.11 13.11, 72.88 0.88 M32.84 45.55 C49.96 28.52, 65.32 11.07, 74.46 -0.26 M40.21 46.44 C51.51 32.08, 60.05 20.61, 78.61 2.03 M39.95 46.99 C53.61 28.97, 68.5 13.86, 79.97 0.28 M43.93 45.36 C52.78 36.3, 60.47 25.82, 84.88 -0.76 M43.78 47.34 C60.83 28.46, 76.34 12.23, 84.55 -0.95 M51.36 45.87 C59.74 35.24, 70.95 23.74, 90.19 -0.74 M50.79 46.71 C62.08 33.64, 73.08 19.93, 90.16 0.47 M53.7 45.03 C62.65 34.45, 73.71 27.02, 93.74 -2.15 M55.1 45.85 C68.31 30.95, 82.16 15.09, 95.05 0.24 M60.85 46.92 C71.75 34.18, 82.66 17.79, 101.43 -1.39 M60.11 45.81 C72.55 32.53, 84.52 17.13, 100.86 0.99 M67.39 45.46 C78.79 31.9, 92.81 13.34, 106.37 -0.33 M65.61 45.56 C78.78 31.07, 91.56 16.3, 106.25 -0.15 M72.45 47.83 C84.94 29.15, 99.22 11.67, 110.83 0.5 M70.78 46.33 C85.92 29.47, 100.44 11.26, 112.05 0.15 M76.97 45.56 C90.74 29.48, 106.22 10.86, 118.15 1.35 M76.56 45.52 C87.78 31.89, 98.46 19.49, 116.2 -0.29 M81.01 45.47 C89.7 36.57, 98.65 26.55, 121.98 -1.75 M82.08 46.59 C94.75 32.3, 105.62 17.66, 122.16 0.8 M87.55 45.16 C94.59 36.14, 103.62 26.74, 127.57 2.09 M87.63 47.36 C97 35.93, 105.85 24.37, 127.36 -0.04 M92.54 47.81 C105.87 32.18, 119.17 16.1, 131.61 -1.97 M91.76 47.73 C107.04 28.97, 123.43 9.72, 132.08 0.39 M97.36 44.91 C111.11 31.1, 124.34 13.62, 136.26 0.29 M96.94 47.24 C114.03 28.15, 128.21 10.02, 136.67 -0.44 M102.83 46.99 C114.88 32.09, 129.67 13.98, 141.58 -1.11 M102.65 46.72 C116.3 32.73, 128.43 17.82, 143.1 0.88 M109.74 46.38 C120.19 32.45, 132.8 18.8, 147.63 -1.58 M109.04 45.91 C119.13 34.67, 129.17 20.69, 148.15 -0.72 M112.8 47.98 C128.15 27.51, 143.08 12.19, 154.87 0.76 M114.03 47.08 C125.89 32.58, 137.59 18.72, 152.97 0.85 M117.18 47.99 C131.11 30.97, 140.59 20.6, 158.23 -0.15 M118.94 46.67 C127.85 34.5, 137.88 24.1, 158.27 0.46 M124.49 44.66 C133.36 35.86, 142.07 25.58, 163.57 0.44 M123.62 46.89 C137.57 30.2, 152.43 12.58, 163.88 -0.61 M129.28 45.05 C143.35 32.21, 154.79 15.84, 168.41 2.34 M130.06 45.37 C140.11 34.07, 151.76 21.64, 168.62 2.49 M133.06 47.76 C143.57 39.03, 151.22 29.29, 169.71 7.91 M133.56 46.79 C141.71 39.45, 147.6 29.61, 167.22 8.5 M140.77 45.72 C149.71 34.32, 159.52 27.45, 169.08 12.05 M140.28 46.46 C148.82 35.79, 159.09 26.01, 168.66 12.9 M146.8 44.91 C150.54 40.69, 156.63 32.63, 167.56 21.2 M144.44 46 C153.98 36.23, 162.99 24.93, 168 19.88 M151.5 47.08 C155.39 37.34, 165.12 32.37, 168.7 25.15 M149.9 46.92 C154.32 39.78, 160.81 35.03, 168.7 26.89 M155.17 44.68 C160.78 43.24, 163.51 38.66, 167.9 31.98 M155.32 46.3 C160.03 42.47, 163.73 38.02, 168.94 32.54 M161.87 46.59 C163.52 44.94, 163.73 42.6, 168.74 38.81 M161.48 46.22 C163.67 43.42, 165.73 41.58, 168.06 38.56" stroke="#fab005" stroke-width="0.5" fill="none"></path><path d="M0.52 0.76 C41.53 1.21, 83 -0.73, 166.33 1.84 M0.96 0.48 C33.11 1.06, 67.36 2, 166.68 -0.3 M164.06 1.14 C165.45 18.34, 167.91 34.08, 165.91 45.22 M165.19 0.42 C166.57 13.33, 165.01 25.81, 166.39 44.46 M165.84 46.12 C114.55 44.46, 60.34 43.2, -0.4 44.98 M165.96 43.74 C118.11 44.97, 68.44 44.35, 0.63 45.27 M-1.46 45.39 C-0.69 28.54, 1.35 16.1, 1.71 1.6 M-0.45 44.69 C0.16 33.92, 0.08 24.93, -0.95 -0.21" stroke="#000000" stroke-width="1" fill="none"></path></g><g transform="translate(572.4478303714692 189.1666259765625) rotate(0 44.5 11.5)"><text x="44.5" y="18" font-family="Helvetica, Segoe UI Emoji" font-size="20px" fill="#000000" text-anchor="middle" style="white-space: pre;" direction="ltr">guardiand</text></g><g transform="translate(700.9478914066254 134.6666259765625) rotate(0 59.5 11.5)"><text x="0" y="18" font-family="Helvetica, Segoe UI Emoji" font-size="20px" fill="#2b8a3e" text-anchor="start" style="white-space: pre;" direction="ltr">◎ admin.sock</text></g><g stroke-linecap="round"><g transform="translate(673.9960409114826 168.6499090269208) rotate(0 8.912605843148128 -7.518440075963724)"><path d="M0.33 0.32 C3.16 -2.07, 14.45 -12.62, 17.49 -15.35" stroke="#000000" stroke-width="1.5" fill="none" stroke-dasharray="8 9"></path></g></g><g transform="translate(649.6143953128754 83.99993896484375) rotate(0 47.5 11.5)"><text x="0" y="18" font-family="Helvetica, Segoe UI Emoji" font-size="20px" fill="#c92a2a" text-anchor="start" style="white-space: pre;" direction="ltr">▼ p2p key</text></g><g stroke-linecap="round"><g transform="translate(665.6144563480317 117.6666259765625) rotate(0 -4.202634682259486 19.96084975583014)"><path d="M0.1 0.34 C-1.4 7.04, -6.51 33.69, -7.94 40.45 M-1.31 -0.53 C-3 5.78, -7.2 31.98, -8.5 38.57" stroke="#000000" stroke-width="1" fill="none"></path></g></g><g transform="translate(521.6144563480317 84) rotate(0 58.5 11.5)"><text x="0" y="18" font-family="Helvetica, Segoe UI Emoji" font-size="20px" fill="#c92a2a" text-anchor="start" style="white-space: pre;" direction="ltr">▼ bridge key</text></g><g stroke-linecap="round"><g transform="translate(605.6144563480317 114.99993896484375) rotate(0 14.98313502520324 23.759700206345855)"><path d="M-0.81 1.09 C4.28 9.05, 25.37 39.16, 30.77 46.9 M0.97 0.62 C5.83 8.26, 24.53 37.4, 29.53 44.9" stroke="#000000" stroke-width="1" fill="none"></path></g></g><g stroke-opacity="0.6" fill-opacity="0.6" stroke-linecap="round" transform="translate(316.9478303714692 97.66668701171875) rotate(0 62 24.666656494140625)"><path d="M0 0 C0 0, 0 0, 0 0 M0 0 C0 0, 0 0, 0 0 M-0.21 6.05 C2.33 3.53, 3.87 1.69, 4.39 0.01 M-0.25 6.08 C1.95 4.11, 3.88 2.13, 4.9 0.2 M0.76 11.63 C3.05 9.79, 6.57 3.48, 9.86 0.24 M-0.62 11.54 C2.81 9.77, 5.58 6.66, 9.99 -0.12 M0.55 20.37 C5.25 14.24, 9.23 9.05, 14.76 -0.51 M-0.63 19.04 C3.85 13.2, 8.51 7.88, 16.18 0.56 M-0.47 22.65 C8.34 15.44, 16.83 7.4, 19.95 -1.69 M0.79 24.72 C5.31 17.92, 12.32 12.25, 20.33 -0.25 M-0.89 31 C9.73 18.74, 20.94 7.65, 28.09 -1.09 M0.49 30.49 C8.47 20.03, 16.91 10.83, 26.68 -0.45 M0.79 35.59 C7.85 26.46, 17.52 13.52, 32.25 -1.05 M-0.99 36.54 C7.04 28.45, 15.23 20.01, 31.17 0.07 M-0.32 43.16 C15.27 27.44, 26.12 11.96, 37.7 -1.57 M0.78 43.1 C12.67 27.95, 26.75 12.93, 36.39 1.12 M1.73 48.01 C13.21 33.24, 28.81 17.22, 42.39 -1.63 M0.54 48.32 C11.79 36.29, 22.16 22.91, 43.2 -0.24 M2.2 52.46 C11.5 40.68, 23.26 25.02, 46.96 -0.39 M2.93 51.57 C16.23 36.68, 31.3 19.3, 47.86 0 M6.43 51.66 C27.76 32.01, 42.81 9.89, 51.26 1.54 M8.39 51.22 C22.71 33.9, 37.72 16.68, 53.68 0.35 M14.33 52.33 C24.55 37.22, 36.5 25.19, 56.33 0.86 M12.74 52.13 C26.18 38.41, 36.24 23.94, 58.1 -0.49 M19.62 53.5 C33.4 35.03, 49.36 15.22, 64.91 -1.67 M17.57 51.35 C30.97 37.88, 43.89 22.59, 64.34 -0.07 M23.73 52.21 C39.92 32.76, 53.87 16.95, 67.43 1.5 M23.28 50.67 C39.3 34.02, 52.39 16.96, 68.53 -0.5 M29.77 50.36 C47.28 32.7, 60.42 14.6, 74.51 -0.52 M30.14 52.33 C45.95 32.46, 63.15 12.17, 75.32 -0.87 M35.06 53.34 C47.92 33.54, 63.28 16.41, 78.98 1.7 M33.97 50.57 C47.34 36.42, 59.45 23.4, 79.02 0.4 M41.11 52.9 C50.04 40.65, 62.36 26.27, 84.35 0.61 M39.22 51.34 C48.53 40.73, 57.11 31.35, 85.21 -0.84 M46.13 49.83 C58.58 35.34, 70.33 22.98, 90.83 -1.49 M44.63 51.81 C60.57 33.65, 75.94 15.99, 89.89 -0.8 M51.01 52.7 C63.21 38.27, 70.56 25.1, 95.84 -1.79 M50.35 52.12 C65.7 33.08, 81.3 16.33, 95.05 -0.2 M55.84 52.66 C71.71 33.22, 89.22 10.81, 99.97 1.86 M55.55 50.9 C66.21 39.54, 75.15 29.13, 99.87 -0.55 M61.92 50.17 C72 39.82, 83.95 27.37, 107.52 1.64 M61.55 50.98 C72.7 38.66, 85.76 23.67, 106.29 -0.62 M67.58 50.47 C79.68 37.78, 94.15 21.96, 112.5 -1.44 M66.78 51.68 C83.54 30.95, 102.82 10.06, 112.15 -0.74 M73.47 50.61 C87.31 34, 105.93 11.41, 114.41 1.9 M71.23 50.77 C84.76 35.69, 99.05 20.61, 116.17 -0.46 M75.84 50.48 C90.75 32.74, 107.34 19.17, 123.64 0.27 M76.79 52.29 C91.16 34.44, 106.19 19.34, 122.35 -0.68 M82.38 52.21 C91.19 41.65, 102.4 28.04, 125.3 2.1 M82.28 50.92 C99.6 32.37, 116.67 12.27, 125.04 1.76 M86.23 51.06 C97.24 40.42, 105.14 29.63, 127.19 7.11 M86.51 51.68 C95.53 42.8, 103.95 32.51, 125.96 8.41 M94.49 50.02 C98.46 41.85, 107.81 33.16, 125.57 12.05 M91.99 51.43 C99.2 44.05, 106.26 35.49, 125.15 13.85 M98.19 50.7 C104.32 43.41, 111.26 38.9, 127.25 21.48 M97.97 52.63 C104.6 44.29, 109.79 37.75, 126.12 19.31 M104.8 51.96 C106.69 45.12, 114.56 42.06, 127.45 26.04 M104.12 50.85 C112.29 41.25, 121.07 30.63, 124.9 25.83 M108.25 52.77 C113.53 46.18, 119.72 42.04, 125.7 33.91 M107.63 52.47 C112.35 47.42, 117.47 40.66, 125.02 32.61 M113.48 50.91 C117.19 48.47, 123.57 42.78, 126.99 37.83 M114.78 52.21 C117.99 47.83, 121.37 42.12, 125.93 38.77 M118.62 52.71 C121.95 49.43, 124.35 46.61, 126.66 45.22 M118.78 51.51 C121.59 49.3, 124.4 46.28, 125.54 44.05" stroke="#7950f2" stroke-width="0.5" fill="none"></path><path d="M0.45 0.13 C28.14 -0.64, 54.2 0.08, 124.31 0.16 M125.37 -1.43 C122.3 17.74, 123.3 32.62, 122.65 49.87 M122.37 48.61 C91.38 46.79, 57.47 47.06, -1.17 48.04 M1.66 47.86 C0.32 40.44, -0.89 28.08, 0.81 -0.45" stroke="#862e9c" stroke-width="1.5" fill="none" stroke-dasharray="8 9"></path></g><g stroke-opacity="0.6" fill-opacity="0.6" stroke-linecap="round" transform="translate(315.6144563480317 164.99993896484375) rotate(0 62 24.666656494140625)"><path d="M0 0 C0 0, 0 0, 0 0 M0 0 C0 0, 0 0, 0 0 M0.08 6.88 C1.92 4.81, 4.2 2.01, 5.65 0.11 M0.13 6.6 C1.69 4.28, 3.36 2.14, 4.6 0.22 M0.77 12.91 C4.39 8.45, 7 4.47, 10.62 0.36 M-0.13 12.69 C3.72 8.24, 7.48 3.62, 10.06 -0.36 M1.35 18.7 C4.35 9.63, 13.79 4.38, 14.47 0.62 M-0.77 18.93 C3.67 13.76, 7.29 9.51, 14.87 0.94 M-1.59 24.52 C7.65 19.67, 11.64 12.08, 22.01 0.1 M-0.67 24.89 C7.41 16.87, 12.75 8.16, 20.39 0.27 M1.64 30.16 C7.43 21.21, 16.14 14.28, 24.77 -0.66 M0.33 30.02 C8.11 21, 15.79 11.92, 26.54 0.61 M-1.17 36.49 C6.75 28.77, 15.46 16.89, 31.92 0.59 M0.61 36.25 C7.58 28.72, 15.15 19.7, 32.78 0.24 M-1.17 43.21 C12.75 26.63, 26.44 8.83, 37.85 1.18 M0.34 42.79 C7.07 33.27, 15.37 24.19, 36.36 1.13 M-1.68 50.33 C14.28 34.57, 28.91 16.4, 44.09 -1.23 M-0.91 48.77 C12.36 33.56, 25.44 17.69, 43.22 -0.75 M1.78 53.17 C20.28 34.87, 35.23 16.62, 46.87 0.58 M2.77 51.29 C18.6 32.37, 34.99 14.85, 48.28 1.01 M7.76 53.65 C21.83 37.07, 35.08 21.45, 55.12 0.63 M8.65 51.91 C16.31 40.7, 26.79 30.59, 52.42 -0.44 M14.85 53.5 C25.15 39.45, 36.82 25.44, 57.91 1.05 M14.33 50.97 C28.83 32.68, 46.69 14.32, 58.78 -0.77 M18.46 53.52 C28.56 40.69, 41.98 27.9, 62.51 1.26 M19.29 51.94 C29.61 40.13, 38.36 28.82, 63.66 -0.15 M22.17 49.84 C37.03 34.39, 53.85 19.16, 69.87 -0.72 M23.18 50.82 C37.88 36.86, 51.33 21.37, 68.91 -0.82 M29.23 51.14 C43.49 33.65, 58.09 16.45, 72.62 0.91 M28.18 52.52 C42.27 37.84, 55.33 23.06, 74.77 -0.76 M36.59 51.93 C49.92 35.91, 62.01 19.19, 78.57 1.05 M33.89 51.21 C46.22 38.56, 56.44 25.39, 80.28 0.71 M38.37 53.8 C55.4 31.96, 71.26 14.44, 84.7 0.91 M39.68 52.73 C56.51 32.83, 72.24 13.61, 84.14 -0.72 M43.86 50.63 C60.74 34.61, 76.32 17.86, 88.68 1.28 M45.61 50.95 C62.64 31.03, 79.83 11.09, 89.07 0.08 M49.05 49.9 C66.5 36.09, 82.37 16.31, 94.85 -0.25 M50.73 52.12 C63.73 36.27, 75.75 23.12, 94.73 -0.02 M54.59 49.91 C68.76 37.35, 78.78 25.46, 101.75 0 M56.04 51.28 C69.36 36.7, 81.92 20.95, 100.03 0.02 M61.32 53 C70.04 39.76, 80.83 29.23, 108.08 1.03 M60.81 52.63 C75.69 36.65, 88.97 20.42, 106.06 -0.24 M67.61 51.62 C81.87 33.36, 100.62 10.9, 112.22 -1.6 M66.81 52.64 C76.08 41.41, 85.44 29.64, 110.45 -0.32 M72.13 49.76 C85.39 37.11, 102.61 17.3, 117.58 2.24 M71.98 52.67 C88.06 34.44, 102.55 15.15, 115.57 0.25 M76.61 52.49 C86.58 38.11, 97.64 28.52, 123.38 -1.25 M76.06 51.64 C86.4 40.76, 95.71 30.08, 122.2 0.64 M83.26 51.96 C95.17 37.66, 109.49 22.46, 126.1 1.22 M82.84 51.09 C98.01 33.83, 114.83 14.16, 125.88 2.76 M86.17 52.63 C94.89 44.02, 105.04 34.01, 124.86 8.02 M86.52 51.6 C96.09 42.8, 104.11 32.85, 125.14 8.47 M93.39 52.53 C99.47 43.95, 107.51 34.05, 124.73 14.78 M92.58 51.15 C104.94 38.04, 117.48 24.37, 125.69 14.84 M98.4 52.51 C106.79 40.82, 117.55 27.3, 124.32 19.73 M98.16 51.51 C104.16 44.73, 109.28 37.2, 126.88 18.63 M102.09 53.5 C110.85 43.68, 113.14 39.72, 127.14 24.44 M102.93 52.57 C112.24 42.57, 118.43 33.45, 125.95 26.11 M108.29 53.75 C111.76 48.71, 113.43 42.84, 126.98 31.77 M109.49 52.79 C111.22 48.89, 115.68 44.86, 126.27 32.23 M113.81 50.2 C117.5 45.74, 123.99 43.77, 126.62 39.29 M114.2 51.51 C116.26 49.24, 119.74 45.25, 125.09 37.27 M119.44 51.49 C120.61 49.02, 123.21 47.63, 125.34 44.9 M119.38 51.62 C121 49.93, 122.4 48.39, 126.23 44.75" stroke="#228be6" stroke-width="0.5" fill="none"></path><path d="M-1.91 0.35 C41.56 0.21, 81.66 0.36, 123.4 1.87 M125.01 -1.29 C125.57 10.64, 122.42 20.61, 123.14 50.87 M123.25 47.72 C81.54 50.62, 40.65 51.38, -0.51 49.47 M-1.23 48.14 C1.17 33.54, 0.04 21.79, 1.57 -0.39" stroke="#1864ab" stroke-width="1.5" fill="none" stroke-dasharray="8 9"></path></g><g stroke-opacity="0.6" fill-opacity="0.6" stroke-linecap="round" transform="translate(314.2810823245942 242.9998779296875) rotate(0 62 24.666656494140625)"><path d="M0 0 C0 0, 0 0, 0 0 M0 0 C0 0, 0 0, 0 0 M-0.49 6.34 C1.61 4.03, 1.96 3.58, 4.83 0.99 M0.1 6.08 C1.21 4.11, 3.49 1.92, 4.69 0.45 M1.72 10.7 C3.36 10.99, 5.33 7.08, 10.06 0.47 M-0.51 11.85 C3.68 7.05, 7.92 2.21, 10.88 -0.05 M-0.71 19.76 C6.48 11.49, 8.27 5.27, 16.85 -0.86 M-0.44 18.53 C4.25 14.42, 8.16 10.04, 15.25 0.81 M0.99 25.72 C7.41 15.71, 14.94 10.14, 22.38 1.02 M0.95 23.87 C5.66 18.93, 9.56 12.71, 22.23 -0.62 M1.88 31.4 C7.58 20.81, 15.83 8.78, 26.7 -1.23 M-0.71 31.2 C5.97 23.47, 13.05 15.49, 25.71 0.53 M-1.57 37.75 C10.08 24.77, 23.26 9.52, 31.16 -0.79 M0.73 36.27 C7.79 28.6, 16.55 19.03, 31.21 0.14 M-0.33 41.04 C10.55 28.86, 22.67 15.79, 37.82 0.75 M-0.53 41.89 C10.03 31, 18.15 21.93, 36.28 -0.48 M-2.06 50.37 C17.63 28.3, 34.09 10.19, 43.38 -1.38 M-0.6 48.51 C16.45 29.62, 32.38 10.55, 43.37 -0.26 M0.9 50.63 C21.71 30.78, 35.76 9.44, 46.76 2.12 M2.94 52.33 C21.2 31.35, 38.13 12.38, 48.21 0.02 M9.77 53.82 C18.95 41.92, 26.87 28.28, 55.03 -0.14 M8.17 51.75 C20.57 35.36, 35.01 19.9, 52.71 0.1 M13.32 52.24 C24.55 39.65, 35.53 24.89, 58.96 1.05 M13.72 51.67 C25.04 40.01, 35.28 26.09, 57.3 0.65 M16.62 53.79 C29.4 38.89, 41.46 26.52, 62.98 0.67 M18.35 51.93 C27.04 40.29, 36.57 30, 63.82 -0.41 M24.42 50.16 C37.72 36.31, 51.03 18.55, 68.71 0.82 M23.26 50.59 C36.09 37.45, 47.69 24.29, 67.91 0.52 M28.65 50.11 C44.51 36.14, 56.88 16.07, 72.96 -0.11 M28.42 52.41 C38.58 39.39, 48.8 29.45, 73.85 -0.97 M34.43 52.73 C43.68 39.45, 55.36 25.83, 79.19 1.86 M35.47 51.15 C48.17 36.58, 61.91 21.51, 78.97 -0.85 M39.55 52.68 C49.63 40.21, 58.45 30.38, 83.58 1.5 M40.06 51.97 C53.56 36, 67 20.54, 84.5 -0.34 M44.47 49.43 C59.72 37.62, 69.73 22.3, 90.46 1.7 M44.79 51.83 C58.41 35.88, 71.78 21.56, 89.97 0.5 M51.86 52.55 C62.4 36.34, 73.46 23.39, 94.35 -1.39 M49.51 51.82 C61.63 38.95, 70.66 27.18, 96.05 -0.85 M56.54 50.88 C67.63 36.59, 79.62 24.66, 99.44 -0.99 M56.26 51.57 C74.05 32, 92.1 11.94, 100.96 0.98 M61.02 49.87 C75.45 36.75, 91.6 16.39, 105.62 1.45 M61.58 51.61 C71.78 39.09, 82.7 26.21, 105.32 -0.37 M64.84 53.54 C81.69 34.76, 99.55 14.56, 111.94 1.58 M66.79 52.5 C75.28 42.31, 83.95 29.25, 110.55 -0.58 M71.33 49.96 C85.59 38.04, 97.08 20.31, 117.98 2.11 M71.62 51.43 C81.07 40.24, 89.84 30.1, 117.06 0.42 M78.42 52.77 C89.87 37.01, 100.74 24.91, 122.63 -1.67 M75.85 52.91 C95.88 31.82, 112.3 10.49, 121.93 -0.9 M83.97 51.21 C95.82 33.97, 112 17.77, 125.55 1.09 M81.56 51.81 C92.84 37.69, 104.17 26.15, 125.23 2.5 M89.25 51.31 C100.94 39.85, 111.36 23.83, 124.51 6.84 M87.48 51.8 C96.7 41.31, 104.98 29.95, 126.27 7.29 M92.98 53.17 C102.79 42.09, 107.03 34.87, 126.78 13.8 M93.89 51.7 C105.25 37.06, 118.2 23.82, 125.81 13.12 M98.81 52.24 C103.87 45.14, 114.54 33.27, 124.62 19.27 M96.96 51.86 C105.86 42.33, 114.74 32.44, 126.49 19.1 M105.3 52.51 C111.59 43.88, 116.32 35.1, 126.73 24.4 M103.67 52.52 C110.43 44.23, 117.59 35.57, 125.08 25.59 M109.47 51.81 C113.88 44.12, 123.41 38.4, 127.56 32.13 M108.13 52.21 C113.46 45.45, 119.3 39.68, 124.74 31.37 M112.88 51.07 C118.7 45.52, 123.47 39.39, 126.11 36.86 M114.47 52.05 C119.23 46.75, 124.01 40.56, 126.61 38.19 M119.82 51.64 C122.65 48.08, 123.14 47.14, 125.27 44.85 M119.27 52.16 C121.22 49.66, 123.67 46.79, 125.75 43.98" stroke="#82c91e" stroke-width="0.5" fill="none"></path><path d="M1.84 -0.56 C24.85 -1.17, 50.9 -2.66, 124.52 0.66 M123.51 0.98 C122.29 17.12, 123.65 32.07, 122.25 47.88 M122.05 51.13 C96.98 49.06, 67.69 50.6, 0.77 49.33 M-0.32 49.62 C-1.5 34.93, -2.2 19.4, 0.39 0.29" stroke="#087f5b" stroke-width="1.5" fill="none" stroke-dasharray="8 9"></path></g><g stroke-opacity="0.6" fill-opacity="0.6" stroke-linecap="round" transform="translate(134.2810823245942 171.66668701171875) rotate(0 62 24.666656494140625)"><path d="M0 0 C0 0, 0 0, 0 0 M0 0 C0 0, 0 0, 0 0 M-0.12 6.85 C0.69 4.42, 2.78 2.52, 4.53 -0.41 M0.05 6.34 C1.44 4.68, 2.77 3.2, 5.24 0.38 M0.77 10.58 C4.98 6.48, 9.36 2.8, 9.43 -0.96 M-0.08 11.73 C3.27 7.78, 7.53 4.99, 10.55 0.41 M0.73 19.76 C5.87 13.08, 10.64 6.79, 14.33 0.19 M-1.09 17.89 C6.72 11.92, 12.03 5.08, 15.3 1.26 M1.74 22.51 C6.49 14.13, 17.75 5.77, 22.54 -0.83 M0.32 24.44 C5.67 17.45, 9.22 11.89, 20.32 -0.22 M-0.87 30.42 C7.36 19.42, 13.48 10.97, 27.09 0.69 M-0.97 30.81 C8.59 19.78, 19.08 8.23, 25.65 -0.08 M0.89 36.45 C5.02 28.66, 11.9 22.46, 32 0.7 M-0.78 36.91 C10.73 23.13, 23.14 11.08, 32.62 -0.22 M1.07 41.63 C13.41 30.63, 20.68 16.84, 37.97 0.99 M0.73 42.96 C8.97 32.56, 16.77 23.11, 36.96 -0.61 M1.06 50.06 C12.5 34.86, 27.57 19.18, 42.92 -0.12 M-0.56 49.32 C11.37 36.22, 22.99 21.79, 42.45 0.29 M4.09 53.35 C18.13 34.53, 30.9 18.69, 47.94 -0.98 M2.9 51.85 C16.17 37.57, 29.09 20.42, 47.99 1.21 M7.94 51.47 C24.34 32.2, 44.16 11.98, 53.85 -1.91 M8.17 51.64 C19.6 37.11, 31.84 22.9, 53.27 -0.35 M13.48 51.43 C23.6 41.63, 31.15 30.27, 59.12 1.58 M13.5 50.53 C25.49 37.42, 38.92 23.3, 57.9 -0.49 M19.89 52.04 C33.67 32.37, 50.83 15.98, 64.45 1.55 M18.62 52.79 C30.77 38.65, 42.94 24.13, 63 0.74 M22.54 49.65 C37.74 36.92, 50.04 24.46, 70.72 0.35 M23.82 51.69 C41.51 31.09, 59.58 10.87, 68.33 0.96 M31 52.94 C47.67 30.06, 66.32 11.95, 75.52 1.39 M29.02 51.21 C39.02 41.05, 49.1 29.53, 73.96 -0.96 M33.55 49.62 C44.92 38.43, 57.45 22.46, 79.11 -0.11 M35.44 51.55 C47.67 37.17, 59.17 23.91, 79.33 0.79 M39.14 53.24 C55.97 35.31, 70.86 15.55, 84.96 1.6 M40.68 50.88 C57.1 33.46, 72.66 13.62, 84.94 0.55 M45.94 49.85 C61.21 31.91, 78.78 10.41, 89.75 1.61 M46.39 50.87 C56.01 39.54, 65.63 28.83, 89.4 0.81 M51.29 52.86 C59.19 39.06, 70.71 26.62, 95.83 -0.96 M51.35 52.37 C69.46 30.36, 87.03 10.55, 95.14 -0.14 M56.24 49.69 C69.69 38.53, 81.58 22.44, 101.26 -0.18 M55.14 50.99 C67.43 38.47, 76.44 28.06, 101.47 -0.61 M59.54 52.6 C69.65 41.73, 77.79 32.25, 108.29 -0.55 M61.21 50.78 C73.3 39.4, 83.97 26.3, 106.22 0.12 M65.46 50.14 C73.43 40.6, 86.29 32.6, 109.36 1.71 M65.92 52.56 C80.03 36.63, 92.97 19.32, 110.9 -0.55 M73.12 50.15 C88.28 33.18, 106.41 10.94, 114.97 2.2 M70.88 51.8 C85.53 34.81, 101.38 17.93, 115.62 -0.21 M77.72 50.81 C89.06 37.96, 103.55 20.88, 122.91 -0.68 M77.4 52.52 C90.23 34.15, 105.92 17.83, 121.51 0.48 M82.39 52.06 C91.28 40.74, 100.46 29.35, 126.28 2.78 M81.42 51.65 C93.88 37.75, 106.64 23.77, 125.85 1.14 M88.25 50.43 C99.35 38.14, 112.47 23.35, 125.32 9.12 M86.69 52.66 C95.14 41.64, 104.34 33.45, 126.98 8.08 M94.83 49.74 C101.46 39.65, 111.44 29.13, 125.25 15.37 M92.32 51.15 C101.15 42.69, 106.93 33.95, 125.35 14.82 M98.12 51.88 C104.03 42.84, 115.36 33.86, 126.32 17.91 M98 52.55 C108.72 39.58, 117.8 27.16, 126.62 19.84 M103.04 51.51 C110.47 42.66, 118.1 36.7, 125.72 26.65 M103.52 51.66 C110.96 42.57, 118.12 34.56, 126.72 25.65 M109.48 50.89 C113.51 47.27, 118.97 41.68, 125.42 32.58 M107.98 52.34 C112.55 47.24, 116.98 42.25, 124.83 33.17 M112.89 50.65 C117.84 45.32, 121.97 40.13, 125.53 38.65 M113.46 51.14 C116.01 48.94, 118.68 45.37, 125.8 37.63 M118.4 52 C121.28 48.87, 122.93 47.96, 125.51 43.77 M119.45 52.33 C121.62 49.62, 123.83 47.18, 126.1 44.33" stroke="#ced4da" stroke-width="0.5" fill="none"></path><path d="M0.69 -1.53 C34.16 -0.81, 71.42 -1.28, 125.07 -0.05 M124.68 1.57 C122.01 17.92, 122.3 39.32, 122.37 49.18 M124.93 47.47 C97.82 49.61, 72.81 50.47, -1.49 48.19 M1.74 49.61 C-0.84 35.1, -1.11 21.58, 0.7 1.13" stroke="#1864ab" stroke-width="1.5" fill="none" stroke-dasharray="8 9"></path></g><g transform="translate(341.6144563480317 109.99993896484375) rotate(0 40 11.5)"><text x="0" y="18" font-family="Helvetica, Segoe UI Emoji" font-size="20px" fill="#000000" text-anchor="start" style="white-space: pre;" direction="ltr">Eth node</text></g><g transform="translate(334.2810823245942 177.9998779296875) rotate(0 45.5 11.5)"><text x="0" y="18" font-family="Helvetica, Segoe UI Emoji" font-size="20px" fill="#000000" text-anchor="start" style="white-space: pre;" direction="ltr">Terra LCD</text></g><g transform="translate(342.2812043949067 255.99981689453125) rotate(0 31 11.5)"><text x="0" y="18" font-family="Helvetica, Segoe UI Emoji" font-size="20px" fill="#000000" text-anchor="start" style="white-space: pre;" direction="ltr">Solana</text></g><g stroke-opacity="0.7" fill-opacity="0.7" transform="translate(155.61439531287544 181.9998779296875) rotate(0 47.5 11.5)"><text x="0" y="18" font-family="Helvetica, Segoe UI Emoji" font-size="20px" fill="#000000" text-anchor="start" style="white-space: pre;" direction="ltr">Terra node</text></g><g stroke-linecap="round"><g transform="translate(534.9478303714692 203.66656494140625) rotate(0 -46.42856154066487 -27.61201374383461)"><path d="M-1.07 0.69 C-16.3 -8.57, -77.12 -46.47, -92.34 -55.91 M0.56 0 C-14.76 -9.11, -77.78 -45.74, -93.42 -54.95" stroke="#000000" stroke-width="1" fill="none"></path></g><g transform="translate(534.9478303714692 203.66656494140625) rotate(0 -46.42856154066487 -27.61201374383461)"><path d="M-62.76 -50.01 C-72.12 -51.48, -78.64 -50.81, -93.31 -54.15 M-64.42 -49.54 C-74.5 -52.02, -83.7 -52.99, -92.69 -55.07" stroke="#000000" stroke-width="1" fill="none"></path></g><g transform="translate(534.9478303714692 203.66656494140625) rotate(0 -46.42856154066487 -27.61201374383461)"><path d="M-73.12 -32.29 C-80.18 -37.52, -84.45 -40.7, -93.31 -54.15 M-74.78 -31.82 C-81.25 -40.55, -86.82 -47.73, -92.69 -55.07" stroke="#000000" stroke-width="1" fill="none"></path></g></g><g stroke-linecap="round"><g transform="translate(528.3765363573134 200.26055656750714) rotate(0 -43.25419075937481 37.33131444556841)"><path d="M0.76 1.02 C-13.65 13.57, -71.75 62.05, -86.24 74.16 M-0.3 0.51 C-14.9 12.84, -72.82 60.75, -87.27 72.6" stroke="#000000" stroke-width="1" fill="none"></path></g><g transform="translate(528.3765363573134 200.26055656750714) rotate(0 -43.25419075937481 37.33131444556841)"><path d="M-70.35 46.5 C-75.34 54.91, -81.04 61.3, -88.18 73.98 M-72.42 47.7 C-75.6 52.68, -79.74 60.72, -86.48 73.27" stroke="#000000" stroke-width="1" fill="none"></path></g><g transform="translate(528.3765363573134 200.26055656750714) rotate(0 -43.25419075937481 37.33131444556841)"><path d="M-57.29 62.34 C-66.29 65.79, -76.15 67.14, -88.18 73.98 M-59.36 63.53 C-65.95 64.08, -73.64 67.81, -86.48 73.27" stroke="#000000" stroke-width="1" fill="none"></path></g></g><g stroke-linecap="round"><g transform="translate(310.9478303714692 196.70869512790307) rotate(0 -23.980514529300876 0.07430934017196478)"><path d="M-0.82 -0.89 C-8.87 -1.14, -40.44 -0.93, -48.43 -1.11 M0.95 1.26 C-7.17 1.18, -40.54 0.84, -48.91 0.44" stroke="#000000" stroke-width="1" fill="none"></path></g><g transform="translate(310.9478303714692 196.70869512790307) rotate(0 -23.980514529300876 0.07430934017196478)"><path d="M-26.99 -5.89 C-32.16 -4.41, -40.35 -4.02, -47.01 2 M-26.39 -6.4 C-30.4 -4.93, -36.11 -4, -48.77 -0.18" stroke="#000000" stroke-width="1" fill="none"></path></g><g transform="translate(310.9478303714692 196.70869512790307) rotate(0 -23.980514529300876 0.07430934017196478)"><path d="M-27.43 10.98 C-32.53 7.62, -40.59 3.16, -47.01 2 M-26.83 10.47 C-30.68 8.19, -36.3 5.38, -48.77 -0.18" stroke="#000000" stroke-width="1" fill="none"></path></g></g><g stroke-linecap="round"><g transform="translate(537.6144563480317 206.33331298828125) rotate(0 -49.50379976420754 -2.3444357796150257)"><path d="M-0.87 -1.19 C-17.31 -1.91, -82.81 -4.94, -99.31 -5.48 M0.88 0.79 C-15.6 0.33, -82.98 -3.06, -99.88 -4.28" stroke="#000000" stroke-width="1" fill="none"></path></g><g transform="translate(537.6144563480317 206.33331298828125) rotate(0 -49.50379976420754 -2.3444357796150257)"><path d="M-73.12 -11.68 C-79.31 -10.7, -84.58 -10.83, -99.52 -4.64 M-71.64 -12.4 C-76.06 -11, -83.12 -10.05, -99.29 -3.68" stroke="#000000" stroke-width="1" fill="none"></path></g><g transform="translate(537.6144563480317 206.33331298828125) rotate(0 -49.50379976420754 -2.3444357796150257)"><path d="M-74.34 8.8 C-80.03 4.79, -85 -0.33, -99.52 -4.64 M-72.86 8.08 C-76.96 5.33, -83.78 2.12, -99.29 -3.68" stroke="#000000" stroke-width="1" fill="none"></path></g></g><g stroke-linecap="round"><g stroke-opacity="0.2" fill-opacity="0.2" transform="translate(178.94789140662544 79) rotate(0 48.82599558221099 -10.793800595486147)" fill-rule="evenodd"><path d="M1.65 -29.04 C1.65 -29.04, 1.65 -29.04, 1.65 -29.04 M1.65 -29.04 C1.65 -29.04, 1.65 -29.04, 1.65 -29.04 M-0.2 -21.26 C3.32 -25.34, 6.05 -27.49, 8.64 -32.7 M0.63 -21.58 C3.45 -24.77, 5.07 -27.15, 9.39 -32.71 M-3.75 -12.31 C-0.16 -15.02, 6.03 -23.34, 15.26 -35.23 M-3.89 -11.41 C2.49 -16.89, 8.85 -24.3, 16.45 -34.43 M-0.75 -6.81 C4.73 -16.61, 15.43 -24, 25.69 -34.74 M-1.62 -7.43 C7.21 -16.94, 14.75 -26.62, 23.56 -35.98 M-2.29 -2.79 C8.77 -14.66, 18.93 -24.71, 30.02 -36.4 M-0.43 -1.01 C9.82 -13.56, 19.26 -25.56, 28.1 -35.56 M6.17 -3.57 C12.42 -8.72, 17.45 -18.27, 30.83 -31.49 M5.65 -3.47 C13.36 -12, 20.95 -21.54, 30.34 -30.37 M35.77 -37.8 C35.77 -37.8, 35.77 -37.8, 35.77 -37.8 M35.77 -37.8 C35.77 -37.8, 35.77 -37.8, 35.77 -37.8 M5.48 1.96 C16.47 -8, 25.46 -18.69, 46.3 -43.64 M6.34 1.92 C19.49 -12.85, 32.11 -27.28, 45.32 -42.23 M7.49 9.34 C16.41 -3.79, 29.53 -17.51, 49.85 -45.04 M6.01 8.9 C20.43 -7.86, 35.7 -24.93, 51.97 -44.05 M9 8.34 C25.09 -9.6, 42.05 -27.46, 57.06 -44.99 M10.18 9.29 C25.51 -7.52, 38.85 -22.69, 55.79 -43.3 M12.58 16.8 C30.5 -5.87, 48.81 -31.63, 59.9 -41.25 M10.62 14.21 C23.74 0.83, 36.37 -14.08, 60.84 -41.01 M16.04 16.45 C31.18 -0.03, 42.96 -16.79, 63.1 -38.78 M15.71 15.16 C29.55 -1.51, 45.09 -16.77, 63.38 -39.05 M22.23 16.17 C37.53 -0.85, 52.65 -21.38, 70.15 -38.98 M21.32 16.15 C38.72 -3.77, 56.52 -24.09, 69.04 -38.5 M24.67 15.62 C44.45 -3.07, 57.17 -20.98, 73.22 -37.46 M25.56 16.2 C41.62 -2.54, 56.95 -19.5, 71.84 -36.51 M29.54 16.02 C41.52 4.84, 55.68 -10.61, 76.97 -37.02 M29.92 17 C42.92 2.98, 56.59 -12.59, 77.09 -36.5 M30.27 21.65 C49.41 2.26, 67.04 -16.84, 80.66 -35.89 M32.98 21.26 C42.43 10.6, 52.28 -0.89, 82.68 -35.41 M33.39 25.06 C45.55 9.93, 58.74 -3.74, 89.87 -37.26 M35.32 24.84 C50.98 4.45, 67.14 -14.12, 87.9 -36.45 M39.8 22.61 C52.34 11.01, 64.27 -3.25, 93.25 -36.5 M40.07 25.13 C53.97 8.16, 67.15 -6.72, 93.31 -35.36 M47.45 22.85 C47.93 20.95, 49.51 19.9, 51.43 16.58 M47.13 22.66 C48.24 21.09, 49.34 20.07, 51.91 17.11 M52.98 18.35 C62.5 4.17, 77.95 -13.76, 96.27 -34.69 M51.06 18.03 C68.45 -2.58, 83.82 -21.71, 95.9 -33.29 M54.07 18.73 C73.43 0.95, 89.21 -19.48, 98.96 -31.02 M54.52 19.43 C66.62 6.59, 77.81 -8.01, 99.11 -32.56 M55.41 24.83 C66.84 11.4, 74.19 2.62, 101.05 -30.2 M57.35 24.05 C67.03 12.56, 75.77 -0.32, 101.98 -30.72 M60.72 25.05 C73.6 12.12, 87.42 -3.66, 102.87 -24.81 M60.73 25.07 C72.33 12.42, 83.41 -2.9, 102.65 -23.62 M65.21 26.14 C69.64 21.71, 70.84 17.63, 75.13 15.52 M65.83 25.42 C68.26 21.87, 72.1 18.09, 74.8 15.02 M75.13 16.79 C77.62 8.75, 85.5 3.25, 96.1 -8.39 M74.13 16.28 C79.58 10.6, 83.98 4.35, 95.01 -9.46 M96.12 -9.72 C98.64 -10.23, 99.95 -14.84, 103.99 -18.73 M94.63 -8.41 C97.34 -10.42, 99.07 -12.68, 102.87 -17.39 M73.79 22.92 C74.04 21.11, 76.7 19.19, 78.68 17.02 M73.01 22.5 C74.53 20.63, 76.3 18.93, 78.49 16.45 M79.63 14.9 C83.5 10.54, 90.01 2.8, 97.39 -5.49 M79.05 15.15 C85.03 8.94, 91.55 1.8, 98.37 -5.77 M87.25 10.56 C90.34 7.64, 94.58 3.58, 100.63 -3.52 M88.24 12.45 C91.59 6.33, 96.91 2.03, 101.56 -2.82" stroke="#be4bdb" stroke-width="0.5" fill="none"></path><path d="M0.65 -0.47 C-0.06 -2.31, -3.88 -7.86, -4.51 -11.05 C-5.15 -14.24, -4.13 -16.62, -3.16 -19.63 C-2.2 -22.64, -2.42 -26.35, 1.27 -29.12 C4.96 -31.9, 14.69 -35.02, 18.97 -36.27 C23.26 -37.52, 25.17 -37.82, 26.99 -36.61 C28.81 -35.4, 28.78 -28.8, 29.88 -28.99 C30.98 -29.19, 31.46 -35.05, 33.6 -37.77 C35.75 -40.49, 39.44 -44.02, 42.76 -45.31 C46.07 -46.6, 49.25 -46.32, 53.5 -45.52 C57.76 -44.71, 65.41 -42.22, 68.27 -40.47 C71.13 -38.72, 70.02 -35.62, 70.68 -35.02 C71.35 -34.43, 71.04 -36.15, 72.27 -36.91 C73.5 -37.67, 75.38 -39.34, 78.06 -39.58 C80.74 -39.83, 85.62 -38.92, 88.34 -38.38 C91.07 -37.84, 92.68 -37.03, 94.41 -36.36 C96.14 -35.69, 97.39 -35.66, 98.72 -34.37 C100.04 -33.08, 102.19 -32.17, 102.36 -28.63 C102.54 -25.1, 100.44 -16.48, 99.76 -13.17 C99.08 -9.85, 99.11 -9.28, 98.28 -8.74 C97.44 -8.21, 94.95 -10.49, 94.76 -9.96 C94.58 -9.43, 96.76 -7.79, 97.17 -5.55 C97.59 -3.3, 97.65 1.37, 97.26 3.51 C96.88 5.65, 96.51 5.86, 94.86 7.29 C93.2 8.71, 91.03 10.98, 87.34 12.07 C83.65 13.17, 74.58 13.71, 72.73 13.85 C70.88 14, 75.74 12.12, 76.25 12.94 C76.76 13.76, 76.44 17.04, 75.79 18.78 C75.13 20.51, 75.43 22.45, 72.32 23.35 C69.21 24.25, 60.7 25.2, 57.14 24.16 C53.57 23.11, 51.73 18.01, 50.92 17.07 C50.12 16.13, 52.99 17.75, 52.3 18.5 C51.6 19.26, 50.11 21.2, 46.77 21.62 C43.42 22.04, 35.22 21.9, 32.23 21.01 C29.23 20.11, 32.38 17.72, 28.81 16.25 C25.25 14.78, 14 13.64, 10.82 12.19 C7.64 10.74, 10.47 8.29, 9.75 7.56 C9.03 6.83, 7.72 10, 6.5 7.79 C5.27 5.58, 3.64 -4.36, 2.39 -5.71 C1.14 -7.06, -0.8 -1.16, -1.01 -0.32 M-0.46 -1.76 C-0.81 -3.98, -1.8 -10.24, -2.42 -13.02 C-3.04 -15.81, -4.84 -15.93, -4.19 -18.47 C-3.54 -21.01, -2.16 -25.33, 1.48 -28.26 C5.12 -31.18, 13.76 -35.02, 17.66 -36.02 C21.57 -37.03, 22.72 -35.29, 24.91 -34.31 C27.11 -33.33, 29.01 -29.61, 30.81 -30.16 C32.6 -30.72, 33.41 -35.44, 35.68 -37.64 C37.95 -39.84, 41.45 -41.97, 44.44 -43.37 C47.44 -44.78, 49.61 -46.61, 53.66 -46.06 C57.71 -45.51, 66.13 -41.94, 68.73 -40.08 C71.34 -38.23, 68.57 -35.36, 69.28 -34.93 C69.99 -34.5, 71.7 -36.62, 72.99 -37.51 C74.29 -38.39, 74.95 -40.04, 77.04 -40.26 C79.13 -40.47, 82.44 -39.67, 85.54 -38.78 C88.64 -37.9, 93.11 -35.72, 95.66 -34.95 C98.2 -34.18, 99.81 -35.34, 100.8 -34.17 C101.79 -32.99, 101.49 -31.34, 101.62 -27.9 C101.74 -24.46, 102.56 -16.47, 101.56 -13.52 C100.56 -10.58, 96.9 -11.16, 95.6 -10.21 C94.29 -9.26, 93.49 -8.35, 93.73 -7.82 C93.96 -7.29, 96.5 -8.72, 97.03 -7.01 C97.55 -5.31, 97.05 0.16, 96.86 2.39 C96.67 4.62, 97.2 4.71, 95.89 6.38 C94.58 8.05, 92.66 11.19, 89 12.4 C85.34 13.61, 76.39 13.09, 73.92 13.63 C71.45 14.16, 73.66 15.01, 74.18 15.61 C74.71 16.2, 77.39 16.21, 77.07 17.21 C76.75 18.21, 75.36 20.61, 72.24 21.62 C69.12 22.62, 62.01 23.72, 58.35 23.24 C54.7 22.76, 51.28 19.3, 50.33 18.75 C49.39 18.21, 53.56 19.61, 52.69 19.97 C51.82 20.34, 48.81 20.64, 45.1 20.92 C41.38 21.2, 33.39 22.47, 30.4 21.65 C27.41 20.84, 30.27 17.5, 27.15 16.05 C24.04 14.61, 14.33 14.1, 11.68 12.99 C9.03 11.87, 12.52 9.79, 11.27 9.35 C10.02 8.91, 5.24 12.71, 4.17 10.32 C3.1 7.94, 5.43 -3.15, 4.86 -4.96 C4.28 -6.76, 1.76 -1.25, 0.7 -0.49" stroke="#000000" stroke-width="1" fill="none"></path></g></g><g stroke-linecap="round"><g stroke-opacity="0.2" fill-opacity="0.2" transform="translate(174.28126543006294 330.33331298828114) rotate(0 49.44774659958131 -10.221013255485957)" fill-rule="evenodd"><path d="M1.65 -29.04 C1.65 -29.04, 1.65 -29.04, 1.65 -29.04 M1.65 -29.04 C1.65 -29.04, 1.65 -29.04, 1.65 -29.04 M0.51 -22.27 C3.19 -23.81, 4.98 -28.29, 8.75 -32.72 M0.17 -21.27 C2.77 -24.35, 3.87 -25.73, 9.25 -32.61 M-2.86 -9.04 C1.47 -14.11, 3.63 -22.22, 14.91 -36.32 M-3.13 -11.29 C2.9 -17.29, 9.41 -24.73, 16.63 -34.71 M-0.43 -8.11 C5.96 -14.03, 11.1 -25.1, 22.41 -35.3 M-2.13 -6.19 C7.92 -17.21, 15.58 -28.11, 24.52 -36.25 M-0.34 -1.61 C8.11 -13.65, 20.88 -26.39, 29.89 -36.63 M-0.26 -1.29 C5.56 -10.68, 14.04 -18.65, 28.6 -35.02 M6.05 -2.29 C12.89 -8.71, 17.45 -16.33, 29.44 -32.64 M6.99 -4.74 C14.14 -10.97, 20.27 -20.61, 30.61 -31.86 M35.77 -37.8 C35.77 -37.8, 35.77 -37.8, 35.77 -37.8 M35.77 -37.8 C35.77 -37.8, 35.77 -37.8, 35.77 -37.8 M5.09 1 C16.55 -12.59, 29.17 -25.47, 44.97 -43.61 M6.52 1.7 C16.19 -9.55, 27.34 -22.51, 44.93 -42.46 M4.07 9.03 C18.6 -6.24, 34.15 -23.4, 51.25 -42.63 M5.61 8.01 C18 -6.43, 31.4 -21.44, 51.01 -43.56 M12.22 9.31 C25.79 -10.62, 43.3 -27.12, 58.54 -43.88 M11.64 8.39 C26.3 -7.88, 42.02 -27.71, 56.74 -42.62 M10.15 15.08 C26.05 0.88, 37.75 -14.58, 59.74 -40.81 M11.1 14.57 C23.79 2, 34.42 -11.81, 60.07 -41.09 M14.2 16.75 C30.43 2.1, 42.68 -15.64, 62.46 -38.32 M16.44 14.44 C29.29 2.05, 39.8 -11.64, 63.81 -38.78 M19.74 15.65 C38 -1.81, 54.82 -23.35, 68.56 -39.48 M20.24 14.89 C35.92 -0.99, 51.32 -19.24, 67.97 -39.49 M24.29 14.14 C37.12 4.05, 48.19 -6.92, 69.59 -36.79 M25.22 17.03 C41.22 -1.86, 55.98 -18.67, 72.11 -35.06 M31.02 16.93 C45.56 -0.85, 63.12 -21.07, 76.05 -34.69 M30.59 16.65 C46.71 -0.37, 63.68 -19.54, 77.49 -36.9 M32.83 23.03 C43.05 9.88, 55.07 -3.97, 81.02 -35.27 M33.04 21.33 C42.87 8.24, 52.52 -4.35, 81.56 -36.41 M35.69 25.51 C43.29 11.86, 54.1 1.01, 89.4 -37.34 M34.92 25.24 C45.98 12.32, 58.52 -1.33, 88.02 -37.03 M41.47 25.48 C59.8 2.36, 79.34 -19.74, 92.14 -37.08 M39.95 24.35 C57.82 4, 74.52 -15.92, 92.03 -35.76 M47.65 22.92 C48.85 21.79, 49.14 19.94, 51.86 16.41 M47.02 22.7 C48.22 20.92, 49.42 19.58, 51.43 17.13 M52.39 15.55 C66.31 -1.57, 84.88 -22.66, 95.55 -34.26 M52.22 16.43 C69.05 -2.38, 86.9 -22.88, 96.32 -33.51 M54.65 21.22 C65.39 4.81, 80.01 -7.57, 100.29 -30.42 M55.59 19.3 C72.98 -1.08, 88.82 -21.47, 99.69 -31.56 M57.38 23.72 C64.88 10.7, 75.64 -1.83, 101.65 -30.94 M57.43 23.62 C70.43 7.43, 86.2 -8.7, 102.7 -28.77 M59.15 27.04 C73.03 8.5, 91.34 -9.38, 103.69 -25.9 M60.71 25.62 C72.12 12.07, 83.81 -1.19, 103.46 -24.02 M64.76 25.27 C68.1 21.3, 72.87 19.09, 73.63 15.38 M65.15 25.81 C68.43 22.03, 71.03 19.35, 73.81 15.28 M73.06 14.32 C80.8 10.64, 84.68 3.12, 96.51 -9.96 M74.94 15.25 C80.72 8.02, 88.86 -1.39, 95.26 -8.4 M94.38 -7.62 C97.31 -10.2, 98.33 -14.15, 102.27 -17.45 M94.76 -8.9 C97.39 -11.73, 100.74 -14.65, 103.31 -17.82 M73.25 23.01 C74.95 21.34, 76.05 20.05, 78.89 16.78 M73.01 22.4 C74.72 20.9, 76.53 19.06, 78.47 16.65 M80.47 15.56 C87.47 9.87, 90.87 3.36, 98.61 -6.88 M79.46 16.09 C86 7.05, 92.73 1.54, 98.93 -5.12 M87.18 12.03 C89.94 6.88, 93.58 3.34, 101.99 -1.2 M88.49 11.93 C90.72 9.79, 94.41 5.31, 100.65 -1.93" stroke="#82c91e" stroke-width="0.5" fill="none"></path><path d="M0.73 -0.96 C0.35 -2.62, -1.85 -7.25, -2.28 -10.48 C-2.72 -13.72, -2.62 -17.48, -1.88 -20.36 C-1.13 -23.23, -1.14 -25.17, 2.17 -27.74 C5.49 -30.3, 13.94 -34.28, 18.01 -35.76 C22.09 -37.24, 24.6 -37.55, 26.64 -36.62 C28.69 -35.69, 28.8 -29.85, 30.3 -30.19 C31.8 -30.54, 33.44 -36.44, 35.63 -38.69 C37.81 -40.95, 40.08 -42.8, 43.42 -43.74 C46.75 -44.67, 51.5 -45.14, 55.63 -44.31 C59.76 -43.48, 65.87 -40.17, 68.21 -38.76 C70.56 -37.35, 69.27 -36.01, 69.71 -35.85 C70.16 -35.68, 69.23 -37.16, 70.88 -37.78 C72.53 -38.39, 76.76 -39.58, 79.59 -39.54 C82.43 -39.51, 85.51 -37.88, 87.88 -37.56 C90.25 -37.25, 91.84 -38.46, 93.81 -37.66 C95.78 -36.86, 98.38 -34.21, 99.69 -32.78 C101.01 -31.36, 101.48 -32.55, 101.71 -29.12 C101.93 -25.7, 101.86 -15.54, 101.06 -12.23 C100.26 -8.93, 98.11 -9.75, 96.9 -9.27 C95.69 -8.8, 93.45 -10.05, 93.8 -9.39 C94.16 -8.73, 98.43 -7.41, 99.03 -5.32 C99.62 -3.22, 97.75 0.95, 97.35 3.2 C96.96 5.45, 98.17 6.76, 96.64 8.19 C95.12 9.62, 92.05 10.76, 88.22 11.77 C84.39 12.79, 75.59 13.77, 73.67 14.28 C71.74 14.79, 76.37 14.08, 76.65 14.83 C76.93 15.58, 76.04 17.34, 75.34 18.79 C74.65 20.24, 75.46 22.92, 72.5 23.54 C69.55 24.15, 61.28 23.49, 57.61 22.47 C53.93 21.45, 51.42 17.93, 50.44 17.44 C49.46 16.95, 52.3 18.69, 51.72 19.53 C51.15 20.37, 50.32 21.94, 46.99 22.47 C43.67 23, 34.88 23.77, 31.77 22.72 C28.65 21.67, 31.93 17.77, 28.32 16.18 C24.71 14.58, 12.87 14.5, 10.09 13.15 C7.31 11.8, 12.3 8.7, 11.64 8.08 C10.98 7.46, 7.66 11.62, 6.12 9.43 C4.59 7.23, 3.35 -3.35, 2.46 -5.11 C1.56 -6.86, 1.18 -1.89, 0.77 -1.08 M-0.35 1.15 C-0.79 -0.8, -2.37 -8.7, -2.68 -12.16 C-3 -15.61, -3.15 -16.64, -2.23 -19.58 C-1.3 -22.52, -0.82 -27.19, 2.86 -29.81 C6.54 -32.42, 15.66 -34.49, 19.86 -35.25 C24.06 -36, 26.72 -35.48, 28.05 -34.33 C29.37 -33.18, 26.61 -27.54, 27.79 -28.33 C28.97 -29.12, 32.77 -36.33, 35.11 -39.05 C37.44 -41.76, 38.76 -43.77, 41.79 -44.63 C44.81 -45.49, 48.77 -44.81, 53.25 -44.23 C57.72 -43.64, 65.61 -42.48, 68.64 -41.14 C71.68 -39.8, 71.09 -36.57, 71.46 -36.19 C71.83 -35.8, 69.55 -38.17, 70.87 -38.83 C72.19 -39.5, 76.44 -40.41, 79.37 -40.2 C82.31 -39.98, 85.94 -38.09, 88.5 -37.54 C91.06 -37, 93.06 -37.9, 94.74 -36.93 C96.43 -35.97, 97.65 -33.13, 98.63 -31.75 C99.61 -30.37, 100.41 -31.92, 100.62 -28.65 C100.83 -25.37, 100.45 -15.04, 99.88 -12.1 C99.3 -9.16, 97.82 -11.27, 97.16 -11.02 C96.51 -10.77, 96.08 -11.33, 95.92 -10.61 C95.76 -9.88, 96.01 -9.36, 96.19 -6.66 C96.37 -3.96, 97.2 3.17, 97 5.57 C96.79 7.97, 96.68 6.69, 94.96 7.75 C93.24 8.81, 90.56 10.85, 86.68 11.94 C82.8 13.03, 73.67 13.8, 71.69 14.28 C69.71 14.76, 74.01 14.34, 74.8 14.83 C75.58 15.32, 76.78 16.06, 76.4 17.24 C76.02 18.41, 75.41 20.72, 72.52 21.9 C69.63 23.08, 62.89 25.37, 59.07 24.33 C55.25 23.29, 50.8 16.72, 49.59 15.65 C48.38 14.57, 52.51 16.79, 51.81 17.89 C51.12 18.98, 48.52 21.77, 45.44 22.22 C42.37 22.67, 36.53 21.65, 33.36 20.61 C30.18 19.56, 30.2 16.97, 26.4 15.95 C22.6 14.92, 13.22 15.42, 10.57 14.46 C7.92 13.49, 11.65 11.03, 10.49 10.14 C9.33 9.26, 4.53 12.13, 3.61 9.16 C2.68 6.19, 5.59 -5.89, 4.95 -7.7 C4.31 -9.5, 0.5 -2.98, -0.26 -1.66" stroke="#000000" stroke-width="1" fill="none"></path></g></g><g stroke-linecap="round"><g stroke-opacity="0.2" fill-opacity="0.2" transform="translate(13.614639453500445 261.6666259765624) rotate(0 49.438149373278094 -10.385089239622971)" fill-rule="evenodd"><path d="M1.65 -29.04 C1.65 -29.04, 1.65 -29.04, 1.65 -29.04 M1.65 -29.04 C1.65 -29.04, 1.65 -29.04, 1.65 -29.04 M0.54 -21.69 C3.38 -24.15, 4.38 -27.62, 8.83 -33.01 M0.57 -22.02 C2.35 -24.19, 4.86 -26.15, 9.83 -32.52 M-4.48 -11.82 C1.84 -16.76, 4.82 -22.91, 15.22 -34.28 M-4.43 -10.83 C2.11 -17.31, 8.18 -23.36, 16.76 -35.3 M-1.82 -6.8 C4.05 -13.43, 11.34 -23.92, 25.34 -36.26 M-1.8 -5.87 C4.79 -13.84, 10.95 -21.94, 24.76 -37.19 M-2.03 -1.74 C7.95 -10.65, 13.15 -19.77, 27.2 -35.02 M-0.5 -2.22 C10.72 -15.35, 20.81 -28.12, 28.15 -35.53 M6.89 -4.33 C15.37 -13.64, 23.55 -23.73, 27.97 -29.58 M5.35 -4.6 C16.07 -15.17, 23.8 -24.37, 30.21 -31.88 M35.77 -37.8 C35.77 -37.8, 35.77 -37.8, 35.77 -37.8 M35.77 -37.8 C35.77 -37.8, 35.77 -37.8, 35.77 -37.8 M5.54 1.09 C17.45 -14.6, 31.26 -27.83, 43.57 -44.62 M6.82 0.93 C19.43 -13.23, 33.05 -29.46, 44.5 -41.73 M5.02 10.5 C22.36 -6.22, 35.77 -23.02, 51.61 -43.34 M5.66 8.49 C17.57 -3.52, 28.26 -17.65, 51.18 -43.62 M11.34 10.34 C24.29 -9.61, 39.36 -26.64, 57.36 -41.77 M11.45 8.84 C22.06 -4.54, 32.76 -16.1, 57.57 -43.48 M9.19 14.13 C25.52 -3.57, 41.38 -18.91, 61.54 -40.81 M11.69 15.52 C21.3 2.94, 31.81 -8.74, 60.76 -41.08 M16.74 14.82 C30.85 -0.54, 46.99 -17.15, 65.34 -38.57 M16.98 15.09 C30.94 -2.48, 46.62 -20.6, 63.82 -39.7 M20.95 14.54 C36.15 -1.75, 49.34 -16.2, 69.98 -37.09 M21.18 15.96 C38.4 -6.46, 57.46 -27.61, 68.17 -37.72 M24.68 14.68 C40.18 1.78, 55.09 -15.34, 72.07 -37.57 M25.39 15.68 C35.84 5.42, 45.87 -6.07, 71.9 -36.69 M30.19 17.24 C46.7 -1.47, 60.84 -19.7, 76.95 -34.92 M30.34 17.32 C43.12 4.63, 53.88 -8.89, 77.89 -36.84 M31.21 20.77 C53.23 -2.12, 72.69 -20.92, 82.31 -35.44 M31.37 20.63 C42.37 9.29, 53.99 -3.25, 82.35 -35.54 M36.29 24.12 C48.45 10.93, 60.48 -3.37, 87.36 -35.89 M34.59 24.83 C44.4 11.37, 55.58 -1.01, 88.92 -37.31 M39.64 24.47 C56.68 6.51, 71.07 -12.39, 91.15 -36.18 M40.63 23.81 C53.33 8.67, 66.11 -6.67, 91.74 -35.35 M46.66 21.91 C48.42 20.01, 49.65 19.31, 51.25 16.67 M46.8 22.59 C48.6 20.41, 50.69 18.32, 51.91 16.99 M49.85 17.15 C63.52 2.71, 74.89 -10.46, 94.87 -32.53 M51.11 16.39 C64.79 2.61, 78.01 -12.93, 95.49 -34.67 M55.25 20.39 C64.1 7.25, 73.68 -4.92, 99.79 -31.48 M55.09 20.11 C70.17 1.69, 85.47 -16.54, 99.19 -33.01 M55.32 22.6 C70.9 7.71, 85.56 -10.37, 103.56 -29.29 M58.03 23.27 C73.84 3.41, 92.33 -16.72, 102.55 -28.76 M61.71 27.07 C75.27 9.81, 88.24 -6.38, 103.06 -24.52 M59.43 26.4 C72.3 12.46, 83 -0.11, 104.36 -24.63 M65.6 25.37 C69.27 22.69, 71.14 19.69, 75.23 15.35 M66.11 25.4 C68.78 22.27, 71.87 17.99, 74.08 15.12 M75.78 17.35 C81.81 9.99, 85.55 4.11, 96.05 -8.58 M74.61 14.7 C82.79 5.61, 90.9 -2.18, 94.51 -9.4 M95.11 -8.39 C97.3 -10.36, 100.08 -14.79, 102.68 -17.48 M95.47 -8.93 C97.72 -12.3, 100.8 -15.33, 102.99 -17.87 M73.57 22.81 C74.77 20.83, 76.29 19.02, 77.97 16.87 M73.43 22.67 C75.13 19.98, 77.2 18.43, 78.55 16.72 M79.84 15.45 C83.49 10.85, 87.66 2.39, 98.84 -5.9 M80.82 14.36 C85.06 8.37, 92.63 0.2, 98.65 -6.77 M87.66 12.74 C93.8 6.38, 94.7 3.96, 101.57 -1.95 M87.93 12.21 C91.79 6.69, 96.71 1.89, 100.07 -2.11" stroke="#4c6ef5" stroke-width="0.5" fill="none"></path><path d="M-1.03 0.42 C-1.31 -1.36, -2.78 -7.74, -2.86 -10.97 C-2.94 -14.2, -2.41 -15.84, -1.52 -18.94 C-0.62 -22.04, -0.75 -26.55, 2.5 -29.59 C5.75 -32.63, 14.14 -36.12, 17.98 -37.18 C21.81 -38.24, 23.78 -37.28, 25.49 -35.95 C27.19 -34.62, 26.61 -28.67, 28.21 -29.19 C29.8 -29.7, 32.55 -36.64, 35.06 -39.06 C37.57 -41.48, 39.95 -42.75, 43.28 -43.7 C46.6 -44.65, 50.93 -45.41, 55 -44.75 C59.07 -44.09, 65.13 -41.28, 67.7 -39.76 C70.27 -38.25, 69.88 -36.19, 70.41 -35.65 C70.95 -35.11, 69.68 -36.1, 70.93 -36.54 C72.18 -36.97, 75.07 -37.78, 77.9 -38.27 C80.72 -38.76, 85.4 -39.59, 87.89 -39.47 C90.38 -39.35, 90.84 -38.65, 92.84 -37.52 C94.84 -36.39, 98.41 -33.9, 99.91 -32.68 C101.41 -31.46, 101.8 -33.78, 101.85 -30.2 C101.9 -26.63, 100.82 -14.69, 100.21 -11.24 C99.6 -7.79, 99.28 -9.7, 98.22 -9.51 C97.16 -9.32, 93.77 -10.77, 93.87 -10.08 C93.97 -9.38, 98.01 -7.67, 98.82 -5.32 C99.64 -2.97, 99.14 1.85, 98.79 4 C98.43 6.14, 98.58 6.39, 96.7 7.55 C94.83 8.71, 91.47 9.83, 87.53 10.95 C83.58 12.08, 74.95 13.6, 73.02 14.28 C71.1 14.96, 75.66 14.41, 76 15.04 C76.35 15.66, 75.68 16.62, 75.11 18.03 C74.53 19.45, 75.29 22.53, 72.53 23.54 C69.77 24.55, 62.25 25.2, 58.53 24.1 C54.82 23, 51.35 17.76, 50.24 16.95 C49.12 16.14, 52.46 18.37, 51.84 19.24 C51.22 20.1, 49.97 21.51, 46.52 22.15 C43.08 22.8, 34.19 24.27, 31.17 23.11 C28.15 21.95, 31.78 16.7, 28.4 15.21 C25.03 13.72, 13.74 15.23, 10.93 14.19 C8.13 13.16, 12.48 9.95, 11.56 8.99 C10.64 8.03, 6.95 10.92, 5.42 8.41 C3.88 5.9, 3.26 -4.67, 2.35 -6.05 C1.45 -7.44, 0.23 -0.76, -0.01 0.07 M0.63 -0.4 C0.33 -2.53, -3.17 -9.46, -3.56 -12.9 C-3.94 -16.35, -2.22 -18.4, -1.68 -21.07 C-1.13 -23.75, -3.88 -26.25, -0.3 -28.97 C3.28 -31.7, 15.37 -36.08, 19.8 -37.41 C24.23 -38.74, 24.87 -38.13, 26.28 -36.97 C27.69 -35.81, 26.93 -30.01, 28.26 -30.45 C29.58 -30.89, 32.03 -37.26, 34.25 -39.61 C36.47 -41.97, 37.96 -43.7, 41.58 -44.58 C45.19 -45.46, 51.56 -45.83, 55.94 -44.9 C60.33 -43.97, 65.71 -40.5, 67.86 -39 C70.02 -37.5, 68.36 -36.23, 68.87 -35.89 C69.38 -35.55, 69.02 -36.55, 70.94 -36.94 C72.87 -37.34, 77.52 -37.67, 80.45 -38.25 C83.37 -38.84, 86.37 -40.7, 88.51 -40.45 C90.64 -40.19, 91.52 -38.2, 93.26 -36.72 C95.01 -35.24, 97.7 -32.67, 98.96 -31.59 C100.22 -30.52, 100.29 -33.79, 100.84 -30.29 C101.39 -26.79, 103.13 -14.35, 102.24 -10.58 C101.35 -6.82, 96.55 -8.16, 95.51 -7.72 C94.47 -7.29, 95.36 -8.17, 96.03 -7.99 C96.7 -7.81, 99.02 -8.52, 99.54 -6.67 C100.07 -4.81, 99.93 0.89, 99.18 3.13 C98.43 5.37, 97.31 5.52, 95.05 6.78 C92.79 8.04, 89.07 9.44, 85.62 10.69 C82.18 11.94, 75.73 13.54, 74.37 14.28 C73.01 15.02, 77.19 14.23, 77.46 15.14 C77.74 16.05, 76.85 18.61, 76.03 19.74 C75.21 20.87, 75.76 21.34, 72.56 21.91 C69.36 22.48, 60.09 23.72, 56.82 23.16 C53.56 22.6, 53.75 18.91, 52.95 18.57 C52.14 18.23, 53.37 20.57, 52 21.09 C50.63 21.62, 47.98 21.71, 44.73 21.73 C41.47 21.75, 35.48 22.42, 32.45 21.21 C29.42 20, 30.57 15.94, 26.53 14.47 C22.48 13, 10.89 13.48, 8.19 12.38 C5.5 11.28, 10.7 8.67, 10.36 7.87 C10.03 7.08, 7.11 9.84, 6.19 7.61 C5.26 5.38, 6.07 -4.23, 4.79 -5.48 C3.52 -6.73, -0.94 -0.64, -1.45 0.11" stroke="#000000" stroke-width="1" fill="none"></path></g></g><g stroke-linecap="round"><g stroke-opacity="0.2" fill-opacity="0.2" transform="translate(313.6144563480317 116.99993896484375) rotate(0 -31.757153794816702 -19.477841937439536)"><path d="M-0.52 -0.68 C-11.14 -7.22, -54.39 -32.43, -64.92 -38.96 M1.41 1.57 C-8.74 -5.31, -51.74 -33.86, -62.7 -40.53" stroke="#000000" stroke-width="1" fill="none"></path></g><g stroke-opacity="0.2" fill-opacity="0.2" transform="translate(313.6144563480317 116.99993896484375) rotate(0 -31.757153794816702 -19.477841937439536)"><path d="M-34.56 -35.5 C-37.58 -34.9, -44.97 -36.75, -63.29 -40.99 M-33.58 -34.22 C-42.32 -35.69, -52.51 -38.24, -62.76 -40.14" stroke="#000000" stroke-width="1" fill="none"></path></g><g stroke-opacity="0.2" fill-opacity="0.2" transform="translate(313.6144563480317 116.99993896484375) rotate(0 -31.757153794816702 -19.477841937439536)"><path d="M-45.63 -18.22 C-46.47 -21.05, -51.63 -26.37, -63.29 -40.99 M-44.65 -16.94 C-49.77 -23.94, -56.39 -32.06, -62.76 -40.14" stroke="#000000" stroke-width="1" fill="none"></path></g></g><g stroke-linecap="round"><g stroke-opacity="0.2" fill-opacity="0.2" transform="translate(308.9478303714692 274.99993896484375) rotate(0 -22.12649339604195 13.081945585128892)"><path d="M0.2 0.99 C-7.11 4.98, -36.47 20.31, -43.75 24.28 M-1.15 0.47 C-8.59 4.6, -37.33 21.39, -44.45 25.69" stroke="#000000" stroke-width="1" fill="none"></path></g><g stroke-opacity="0.2" fill-opacity="0.2" transform="translate(308.9478303714692 274.99993896484375) rotate(0 -22.12649339604195 13.081945585128892)"><path d="M-26.76 6.94 C-33.69 13.4, -37.72 19.65, -44.3 25.39 M-27.79 5.42 C-33.88 14.35, -41.65 21.16, -44.68 26.36" stroke="#000000" stroke-width="1" fill="none"></path></g><g stroke-opacity="0.2" fill-opacity="0.2" transform="translate(308.9478303714692 274.99993896484375) rotate(0 -22.12649339604195 13.081945585128892)"><path d="M-17.95 21.82 C-27.65 23.71, -34.39 25.36, -44.3 25.39 M-18.97 20.3 C-28.36 23.61, -39.48 24.75, -44.68 26.36" stroke="#000000" stroke-width="1" fill="none"></path></g></g><g stroke-linecap="round"><g stroke-opacity="0.2" fill-opacity="0.2" transform="translate(149.47616897124442 222) rotate(0 -24.491299688356122 8.008167227436843)"><path d="M0 1.04 C-8.22 3.37, -40.95 11.82, -48.98 14.27 M-1.46 0.54 C-9.34 2.99, -38.81 13.25, -46.74 15.48" stroke="#000000" stroke-width="1" fill="none"></path></g><g stroke-opacity="0.2" fill-opacity="0.2" transform="translate(149.47616897124442 222) rotate(0 -24.491299688356122 8.008167227436843)"><path d="M-25.07 -1.38 C-34.4 4.95, -38.46 11.14, -45.46 13.65 M-26.37 0.24 C-32.78 5.15, -37.1 8.24, -45.97 16.2" stroke="#000000" stroke-width="1" fill="none"></path></g><g stroke-opacity="0.2" fill-opacity="0.2" transform="translate(149.47616897124442 222) rotate(0 -24.491299688356122 8.008167227436843)"><path d="M-19.86 15.03 C-30.94 15.95, -36.73 16.73, -45.46 13.65 M-21.15 16.65 C-29.04 17.15, -34.76 15.84, -45.97 16.2" stroke="#000000" stroke-width="1" fill="none"></path></g></g><g stroke-opacity="0.2" fill-opacity="0.2" transform="translate(202.9478303714692 55.99993896484375) rotate(0 19 11.5)"><text x="0" y="18" font-family="Helvetica, Segoe UI Emoji" font-size="20px" fill="#000000" text-anchor="start" style="white-space: pre;" direction="ltr">P2P</text></g><g stroke-opacity="0.2" fill-opacity="0.2" transform="translate(41.614517383187945 237.99993896484375) rotate(0 19 11.5)"><text x="0" y="18" font-family="Helvetica, Segoe UI Emoji" font-size="20px" fill="#000000" text-anchor="start" style="white-space: pre;" direction="ltr">P2P</text></g><g stroke-opacity="0.2" fill-opacity="0.2" transform="translate(204.2812043949067 307.99993896484375) rotate(0 19 11.5)"><text x="0" y="18" font-family="Helvetica, Segoe UI Emoji" font-size="20px" fill="#000000" text-anchor="start" style="white-space: pre;" direction="ltr">P2P</text></g><g stroke-opacity="0.2" fill-opacity="0.2" transform="translate(580.9479524417817 10) rotate(0 66.5 11.5)"><text x="0" y="18" font-family="Helvetica, Segoe UI Emoji" font-size="20px" fill="#000000" text-anchor="start" style="white-space: pre;" direction="ltr">Guardian node</text></g><g transform="translate(567.9479219242036 52.8333740234375) rotate(0 0.00004999999998744897 0.00004999999998744897)" stroke="none" fill="#000000"><path d="M 1.8561553006146871 -1.8561553006146871 Q 1.8561553006146871 -1.8561553006146871 2.224418597338462 -1.1333978856726465 2.5926818940622365 -0.41064047073060594 2.224418597338462 -1.1333978856726465 1.8561553006146871 -1.8561553006146871 2.224418597338462 -1.1333978856726465 2.5926818940622365 -0.41064047073060594 2.465787010028351 0.39054229554285214 2.3388921259944655 1.1917250618163102 1.7653085939053876 1.765308593905388 1.19172506181631 2.338892125994466 0.39054229554285225 2.465787010028351 -0.4106404707306055 2.5926818940622365 -1.1333978856726463 2.224418597338462 -1.856155300614687 1.8561553006146874 -2.224418597338462 1.1333978856726468 -2.5926818940622365 0.41064047073060617 -2.465787010028351 -0.3905422955428519 -2.338892125994466 -1.19172506181631 -1.7653085939053883 -1.7653085939053876 -1.1917250618163107 -2.3388921259944655 -0.3905422955428537 -2.465787010028351 0.4106404707306033 -2.592681894062237 1.1333978856726452 -2.2244185973384623 Z"></path></g><g stroke-opacity="0.4" fill-opacity="0.4" stroke-linecap="round" transform="translate(481.94792192420357 48.8333740234375) rotate(0 182.66668701171875 103)"><path d="M-0.62 1.19 C131.45 0.29, 264.18 -0.37, 365.55 0.59 M-0.61 0.51 C142.42 -1.96, 284.98 -2.13, 365.24 -0.32 M366.95 0.16 C364.61 79.4, 365.05 155.03, 363.85 204.42 M365.85 -0.55 C364.19 50.52, 365.52 100.13, 364.74 205.41 M365.17 205.24 C267.59 204.11, 170.77 205.93, -0.86 205.23 M364.75 206.05 C229.15 207.93, 92.94 207.85, -0.31 205.67 M-0.61 207.12 C-0.22 146.09, 0.35 89.21, 0.61 1.69 M-0.16 205.26 C1.45 130.32, 0.08 56.72, 0.88 -0.13" stroke="#495057" stroke-width="1" fill="none"></path></g></svg>