<svg version="1.1" xmlns="http://www.w3.org/2000/svg" viewBox="0 0 795.7854418073384 439.333282470703" width="795.7854418073384" height="439.333282470703">
  <!-- svg-source:excalidraw -->
  
  <defs>
    <style>
      @font-face {
        font-family: "Virgil";
        src: url("https://excalidraw.com/Virgil.woff2");
      }
      @font-face {
        font-family: "Cascadia";
        src: url("https://excalidraw.com/Cascadia.woff2");
      }
    </style>
  </defs>
  <g stroke-linecap="round" transform="translate(60.28571428571445 88.09526279994418) rotate(0 67.66665649414062 28.333328247070312)"><path d="M0 0 C0 0, 0 0, 0 0 M0 0 C0 0, 0 0, 0 0 M0.2 6.54 C0.16 4.73, 2.33 3.54, 4.33 -0.29 M-0.21 6.45 C1.47 4.46, 2.98 2.61, 5.02 0.76 M0.95 12.21 C3.58 7.2, 7.86 2.8, 9.16 0.25 M-0.5 11.28 C2.61 8.46, 5.18 5.14, 11.21 -0.6 M-0.9 16.61 C2.06 12.86, 5.84 9.89, 14.6 -1.52 M-0.55 18.96 C6.16 11.15, 11.68 5.09, 15.25 1.15 M1.36 23.75 C6.78 17.51, 10.83 9.15, 19.74 -1.2 M1.09 23.31 C5.6 19.85, 9.24 14.31, 20.85 0.69 M-1.64 30.98 C5.83 22.72, 11.41 16.93, 25.8 -1.54 M-0.13 31.32 C10.34 19.55, 19.47 8.87, 27.12 0.95 M-0.83 38.41 C8.82 27.85, 14.99 19.35, 30.51 0.84 M-0.95 36.11 C8.39 26.7, 17.64 17.42, 32.38 0.62 M1.93 43.89 C14.56 25.09, 27.09 10.05, 36.84 0.31 M0.91 43.12 C8.45 32.91, 16.01 25.21, 37.5 1.09 M-1.86 47.98 C11.97 33.54, 27.61 17.98, 42.52 0.81 M-0.83 49.52 C7.36 38.71, 16.66 29.78, 42.4 0.65 M1.6 53.35 C18.74 35.97, 32.7 16.4, 49.14 0.65 M0.84 55.13 C13.5 40.05, 25.25 26.78, 47.21 -0.34 M3.39 59.21 C14.98 43.98, 23.59 30.84, 51.69 -0.92 M1.39 59.31 C15.07 42.11, 28.93 26.81, 52.83 0.65 M6.88 59.03 C27 37.01, 46.38 13.92, 59.65 1.07 M8.62 58.11 C18.5 45.66, 27.98 35.17, 58.05 -0.47 M12.8 57.76 C24.72 45.42, 34.9 36.32, 62.51 -0.04 M11.89 57.99 C26.88 41.93, 40.41 26.96, 64.11 -0.27 M16.69 57.42 C32.3 44.04, 44.85 27.09, 66.86 2.13 M18.54 58.89 C34.3 40.15, 50.41 19.72, 67.81 -0.66 M22.7 57.61 C44.04 34.59, 62.98 14.01, 73.96 1.74 M23.74 59.19 C41.54 38.11, 58.92 18.67, 74.12 -0.72 M29.12 58.19 C45.24 40.89, 59.09 23.26, 80.78 1.35 M29.04 57.82 C42.85 43.1, 56.9 26.93, 79.26 0.48 M33.47 59.93 C47.06 45.91, 59.48 27.71, 85.57 -1.32 M33.52 59.49 C51.6 38.66, 69.4 19.09, 85.27 -0.03 M38.07 59.23 C58.61 39.24, 74.81 17.09, 88.95 -0.77 M40.32 58.76 C52.5 42.83, 67.51 26.08, 89.15 0.12 M43.05 56.83 C59.71 42.54, 72.53 25.21, 95.41 -0.99 M43.79 59.25 C56.3 45.11, 67.91 31.92, 95.42 -1.29 M51.98 56.41 C62.8 41.62, 78.24 23.19, 102.45 1.22 M50.06 57.8 C66.99 38.88, 84.38 19.1, 101.22 0.18 M56.88 57.39 C72.97 38.96, 92.9 16.99, 106.08 -1.07 M56.12 57.58 C71.36 39.54, 88.76 20.7, 106.92 -0.31 M59.16 58.28 C73.85 46, 83.46 31.09, 109.9 -0.23 M59.78 59.07 C74.35 44.34, 87.86 28.8, 111.2 0.36 M65.94 57.67 C83.8 37.58, 102.66 15.89, 118.03 1.36 M66.04 59.37 C79.72 42.91, 92.8 28.18, 116.97 0.12 M72.42 57.14 C89.81 40.34, 105.14 21.85, 123.42 0.26 M70.44 58.71 C89.29 36.28, 107.62 15.43, 121.79 -0.88 M76.76 58.7 C95.9 36.21, 113.88 13.58, 126.23 -1.08 M76.05 58.26 C87.13 45.26, 98.22 33.08, 127.19 0.2 M83.14 59.5 C93.85 45.07, 104.89 30.9, 132.69 -0.93 M81.52 58.37 C93.04 43.69, 105.5 29.35, 131.68 0.69 M85.36 56.48 C99.65 40, 115.73 23.96, 137.56 1.22 M86.68 57.66 C99.82 43.92, 111.09 31.09, 136.1 1.42 M93.87 57.09 C109.71 38.53, 126.12 20.67, 136.36 9.08 M92.65 59.23 C108.25 39.55, 122.16 22.73, 135.99 7.6 M99.34 59.95 C111.05 43.24, 124.67 26.19, 135.55 14.91 M97.41 57.76 C111.33 42.13, 126.77 24.56, 136.79 13.61 M103.72 57.59 C112.02 47.05, 124.7 34.16, 135.77 19.58 M101.93 59.73 C109.77 50.58, 116.69 41.93, 137.01 19.59 M107.8 57.06 C117.65 47.84, 124.27 42.43, 136.63 27.45 M107.71 58.5 C118.12 48.25, 127.91 35.75, 136.22 25.72 M114.29 58.69 C120.93 50.16, 130.1 41.97, 137.12 31.32 M112.95 58.56 C119.44 50.75, 126.34 43.25, 137.32 31.66 M119.37 56.71 C123.22 51.38, 128.77 45.12, 137.9 39.35 M118.05 58.59 C123.29 54.11, 125.81 49.77, 135.98 37 M123.75 58.01 C126.84 53.23, 131.37 46.48, 136.23 44.53 M123.78 57.69 C129.45 52.89, 134.27 46.39, 137.55 43.1 M128.82 58.54 C131.88 56.41, 134.17 52.98, 136.9 50.73 M129.16 58.4 C132.5 55.29, 135.81 52.01, 136.97 49.59 M-0.13 56.55 C-0.13 56.55, -0.13 56.55, -0.13 56.55 M-0.13 56.55 C-0.13 56.55, -0.13 56.55, -0.13 56.55 M6.23 57.53 C4.15 55.61, 2.98 54.42, 0.19 52.1 M6.02 56.51 C5.32 55.94, 3.56 54.46, -0.14 51.89 M13.07 55.69 C10.11 52.36, 7.32 52.82, 0.8 45.56 M12.28 56.79 C9.56 53.71, 6.03 52.46, 0.56 46.22 M17.67 54.85 C14.5 53.67, 10.52 49.57, 1.82 40.22 M19.08 57 C12.9 52.77, 8.34 48.19, -0.68 41.15 M25.89 57.55 C20.98 53.42, 13.17 46.04, 1.29 33.61 M25.11 56.95 C17.15 50.3, 10.92 44.61, -0.83 35.54 M30.14 54.91 C23.35 47.43, 12.16 40.59, -0.54 31.36 M30.21 55.8 C18.92 47.05, 7.73 37.16, 0.89 29.63 M38.48 55.38 C26.87 49.2, 16.28 41.07, -2.22 25.88 M36.06 57.2 C23.96 44.43, 10.41 32.15, -0.12 24.96 M43.89 54.54 C27.29 42.25, 9.37 28.47, 1.5 18.19 M41.42 55.98 C24.58 42.83, 8.68 27.31, -0.3 19.94 M50.7 57.13 C37.69 45.21, 23.25 35.81, -0.04 15.38 M49.46 57.57 C31.22 42.41, 15.72 27.18, 0.42 13.68 M55.51 55.1 C44.82 44.66, 32.08 37.76, 0.9 8.54 M54.84 56.51 C43.3 46.55, 32.92 37.45, -0.07 9.44 M61.89 58.26 C44.62 45.08, 31.18 30.06, -1.2 2.17 M61.31 56.63 C40.92 39.2, 20.71 19.95, 0.33 2.56 M68.85 54.96 C48.61 40.9, 33.15 28.34, 1.92 0.84 M66.3 56.14 C46.57 37.86, 25.64 20.73, -0.02 -1.55 M73.93 56.17 C58.15 44.52, 41.82 29.7, 8.38 -2.17 M73.05 57.21 C58.34 44.17, 46.47 34.05, 7.67 -0.18 M77.53 55.43 C56.38 36.75, 36.04 19.28, 11.16 -1.96 M78.9 56.37 C63.82 42.34, 49.16 29.15, 12.56 -0.97 M85.97 56.92 C73.49 46.14, 60.62 33.54, 17.72 -0.27 M85.4 56.06 C70.53 42.62, 55.24 29.49, 19.93 -1.74 M92 56.13 C68.28 36.1, 46.13 13.67, 23.84 -1.97 M90.94 55.79 C69.99 37.32, 47.95 17.57, 23.95 -1.47 M97.44 58.53 C69.68 31.89, 46.58 13.21, 29.87 0.89 M98.29 56.22 C83.54 44.04, 67.99 31.08, 32.07 -1.89 M102.19 57.64 C81.99 37.27, 58.13 19.78, 35.83 1.16 M103.73 55.77 C78.97 34.11, 53.92 12.59, 37.04 0.05 M110.57 56.99 C88.12 40.68, 71.3 23.3, 41.94 -2.75 M110.38 55.97 C82.92 34.91, 56.53 10.52, 43.57 -0.68 M116.35 56.18 C89.19 37.55, 67.53 14.19, 51.23 -0.21 M115.3 56.1 C101.97 44.72, 88.56 33.62, 49.89 -1.05 M121.34 57.58 C103.35 41.44, 85.67 27.52, 54.56 -2.29 M121.08 57.21 C100.64 36.33, 78.44 16.61, 54.87 -1.41 M127.98 54.96 C108.53 38.05, 90.01 22.13, 60.96 0.2 M128.43 57.36 C113.67 43.14, 98.83 31.75, 61.35 -0.11 M134.3 57.58 C113.88 38.67, 91.8 19.78, 66.66 -1.21 M134.28 57.09 C120.19 43.98, 105.86 32.21, 67.19 -0.93 M135.36 55.51 C115.41 31.4, 91.33 11.54, 73.69 -2 M137.1 53.25 C118.22 37.56, 98.08 19.76, 72.95 -0.93 M136.2 48.98 C122.26 36.35, 109.47 23.15, 78.43 0.02 M137.04 49.81 C119.29 31.46, 99.72 14.4, 80.43 -1.33 M136.53 45.03 C123.1 32.63, 112.67 22.79, 86.66 0.76 M136.51 42.95 C121.43 28.7, 103.01 13.21, 86.76 -1.98 M139.17 38.92 C121.1 23.08, 102.96 9.98, 93.87 -2.15 M137.76 37.99 C126.1 28.79, 113.38 17.77, 92.77 -0.93 M138.16 30.84 C124.82 19.45, 108.61 9.33, 100.35 -1.32 M136.95 32.53 C128.92 25.37, 119.63 17.93, 99.05 -0.86 M137.09 27.85 C129.98 21.98, 123.64 15.99, 103.73 -2.92 M137.54 27.88 C129.02 21.79, 122.42 13.47, 104.59 -1.97 M137.38 21.33 C127.23 11.85, 118.07 5.58, 109.55 -0.05 M136.61 22.95 C127.72 13.87, 120.24 6.66, 110.33 0.15 M136.62 16.9 C129.29 10.44, 121.18 4.52, 116.31 -2.58 M138.21 17.68 C130.3 11.15, 122.05 4.08, 116.28 -0.9 M136.87 11.85 C133.64 7.39, 127.58 3.52, 121.85 0.63 M137.66 10.96 C132.24 5.66, 126.59 1.26, 122.84 -0.98 M138.27 5.78 C135.44 4.69, 133 2.34, 128.61 -0.16 M137.24 6.17 C135.73 4.37, 132.99 3.46, 129.58 -0.74" stroke="#fab005" stroke-width="0.5" fill="none"></path><path d="M-1.81 -1.77 C51.23 0.94, 102.86 0.65, 135.4 -1.71 M135.12 1.89 C134.19 18.85, 136.64 41.39, 136.81 58.41 M134.78 55.61 C100.51 56.53, 63.81 59.24, 1.34 54.79 M-1.51 57.49 C-0.31 44.64, -1.87 27.79, 0.7 -0.81" stroke="#000000" stroke-width="1.5" fill="none" stroke-dasharray="1.5 7"></path></g><g stroke-linecap="round" transform="translate(10 291.3333435058594) rotate(0 67.66665649414062 28.333328247070312)"><path d="M0 0 C0 0, 0 0, 0 0 M0 0 C0 0, 0 0, 0 0 M-0.21 7.15 C1.17 5.33, 3.07 2.53, 4.3 0.9 M-0.5 6.75 C1.41 4.25, 3.06 2.62, 5 0.13 M-1.19 11.43 C3.25 7.49, 5.49 3.89, 11.44 -1.55 M0.17 12.06 C4.03 8.7, 6.13 3.75, 10.26 -0.04 M-0.72 17.69 C6.92 13.54, 10.64 7.58, 16.48 -0.35 M0.33 19.1 C5.31 13.29, 8.99 7.17, 15.79 0.06 M-0.92 24.2 C3.74 18.29, 8.87 14, 21.64 1.13 M-0.53 24.35 C4.24 19.7, 10.35 13.29, 22.12 -0.12 M1.66 28.71 C4.48 22.84, 10.68 14.98, 26.79 -1.44 M-0.93 31.39 C6.44 23.21, 13.06 15.57, 26.14 1.26 M-1.29 37.71 C9.38 25.5, 15.4 16.25, 30.92 -1.95 M0.2 36.32 C8.57 26.12, 19.61 13.8, 31.15 -0.84 M2.12 43.26 C14.32 27.2, 28.44 10.18, 35.44 -1.53 M-0.16 43.13 C8.3 33.11, 17.06 23.61, 36.85 -0.09 M-1.67 49.95 C12.5 34.22, 23.57 20.55, 43.74 0.11 M0.28 48.17 C13.42 34.27, 26.86 17.87, 42.93 0.3 M-0.71 56.26 C16.59 37.65, 35.77 17.22, 48.22 -0.6 M0.08 54.01 C17.9 33.25, 37.87 10.91, 47.19 -0.2 M3.4 59.06 C21.63 33.73, 39.97 12.07, 53.9 1.56 M2.1 59.35 C13.18 45.69, 24.97 31.87, 53.08 -0.39 M8.55 57.27 C21.71 41.12, 38.13 22.31, 57.43 -0.67 M8.47 59.2 C18.4 45.06, 29.65 32.46, 57.89 0.96 M11.17 59.1 C28.55 40.5, 48.3 20.45, 62.72 1.61 M12.78 59.56 C28.7 40.13, 44.81 22.24, 64.22 0.14 M17.68 57.65 C28.2 47.46, 40.34 31.87, 67.92 0.19 M17.5 57.49 C36.79 36.6, 56.8 14.74, 68.18 0.73 M24.31 57.43 C43.06 36.97, 59.23 15.87, 73.06 -1.57 M22.83 59.1 C39.91 39.63, 54.56 21.13, 74.94 0.7 M28.63 58.98 C41.05 41.82, 56.42 27.12, 79.06 1.92 M28.28 58.65 C46.72 38.25, 64.18 17.01, 78.79 0.66 M32.59 57.61 C46.66 43.96, 63.19 26.24, 83.31 -0.81 M34.78 58.75 C46.33 43.78, 60.52 27.66, 84.82 -1.12 M38.15 60.05 C60 34.44, 80.29 11.27, 90.75 0.39 M40.23 57.46 C54.21 43.28, 67.32 26.87, 90.92 -0.4 M46.28 59.15 C57.06 45.94, 69.09 30.59, 97.4 -2.01 M43.64 58.52 C57.05 45.41, 68.34 30.09, 95.43 0.04 M48.55 58.58 C62.16 47.47, 68.51 32.9, 101.43 1.46 M50.71 58.44 C64.74 41.6, 77.63 25.67, 101.24 0.66 M54.2 59.51 C72.84 38.2, 89.66 19.82, 106.76 -2.07 M55.91 58.71 C67.94 45.09, 81.28 30.29, 105.33 0.28 M61 58.05 C72.75 43.51, 80.79 30.75, 110.07 -1.06 M59.44 59.66 C78.79 37.27, 94.91 17.05, 110.93 0.23 M65.68 60.16 C76.22 43.98, 90.41 31.54, 115.74 1.81 M66.58 58.89 C80.71 39.91, 96.04 22.78, 116.39 0.25 M72.17 58.63 C82.72 42.55, 99.16 30.09, 122.17 0.63 M70.07 58.69 C85.97 41.22, 101.65 25.09, 122.63 0.92 M76.6 56.5 C93.51 36.76, 109.21 19.09, 126.15 -0.84 M76.1 58.89 C93.61 37.08, 113.16 15.4, 127.45 1.08 M80.29 59.73 C91.74 46.73, 105.27 30.33, 131.75 -1.72 M81.29 58.1 C99.63 39.41, 116.44 19.57, 133.5 0.66 M87.36 59.91 C108.46 37.19, 127.93 13.92, 138.73 1.47 M87.42 57.8 C97.64 45.44, 109.09 33.93, 136.7 0.69 M93.77 58.96 C106.98 43.04, 121.61 24.75, 136.82 9.18 M92.41 59.51 C106.92 41.02, 121.2 24.73, 137.58 7.16 M96.9 59.76 C109.37 43.44, 119.99 32.8, 137.88 14.27 M96.99 58.97 C110.45 41.77, 124.88 27.01, 137.44 12.84 M104.58 58.91 C115.02 46.76, 121.68 34.34, 137.1 20 M101.73 59.27 C115.5 45.36, 126.55 31.08, 136.61 18.83 M108.69 57.36 C114.54 47.44, 124.29 39.7, 135.87 24.93 M107.71 59.03 C117.57 48.92, 126.62 38.47, 137.33 25.89 M114.19 57.14 C118.79 51.48, 127.97 42.4, 136.13 29.88 M113.54 59.53 C122.08 50.15, 130.28 40.01, 137.12 30.86 M120.72 60.01 C123.55 50.65, 132.1 43.42, 136.68 38.84 M118 58.87 C125.63 51.42, 131.95 42.85, 137.14 38.06 M123.63 60.17 C128.53 54.09, 133.47 50.21, 138.09 42.45 M123.11 59.17 C128.42 52.5, 133.56 47.43, 136.18 44.2 M130.64 58.65 C131.24 55.36, 133.31 53.97, 136.23 50.34 M129.1 58.48 C131.87 54.91, 134.99 51.78, 137.26 49.75 M-0.13 56.55 C-0.13 56.55, -0.13 56.55, -0.13 56.55 M-0.13 56.55 C-0.13 56.55, -0.13 56.55, -0.13 56.55 M5.47 57.29 C4.99 54.55, 3.32 53.15, 0.25 52 M6.32 57.03 C4.11 55.15, 1.78 52.64, 0.4 51.82 M10.71 57.2 C10.14 52.81, 6.8 51.99, 0.43 44.62 M12.2 55.95 C9.18 53.51, 6.78 51.94, -0.66 45.43 M17.76 57.11 C13.59 54.39, 8.67 47.27, 0.51 41 M19.04 57.42 C11.03 51.3, 3.11 44.62, -0.31 40.21 M24.87 58.23 C14.6 49.83, 6.43 41.67, -0.64 33.76 M23.75 56.24 C15.34 47.96, 5.91 40.17, 0.05 35.41 M28.8 58.11 C18.12 47.42, 7.23 37.81, 0.76 30.63 M29.71 57.5 C23.73 52.11, 18.86 45.71, -0.34 30.57 M37.75 54.99 C29.52 47.32, 18.6 42.62, -1.01 24.14 M37.15 56.62 C28.77 48.97, 18.18 41.15, 0.58 25.36 M42.05 56.13 C32.05 48.24, 23.93 42.63, -0.68 19.29 M43.22 56.79 C25.89 42.51, 10.19 26.81, -0.05 19.84 M50.5 57.72 C35.07 44.85, 24.81 36.35, 0.28 12.92 M48.43 57.36 C36.8 45.73, 23.59 34.9, -0.7 13.45 M53.44 56.95 C34.48 37.46, 10.46 18.1, 2.02 9.69 M54.64 57.43 C40.8 44.05, 24.83 30.82, 0.92 9.32 M59.3 56.73 C39.2 36.25, 15.15 19.58, 0.57 1.53 M61.75 56.95 C42.13 41.11, 22.39 23.04, -0.81 3.24 M69.19 56.31 C41.92 36.58, 20.26 12.87, 0.97 0.18 M67.25 56.87 C40.21 34.72, 13.76 11.09, 1.68 -1.28 M73.9 57.35 C52.6 35.58, 30.78 17.35, 7.29 -0.03 M73.29 55.65 C50.82 36.35, 26.06 17.94, 6.26 -0.87 M80.29 57.92 C57.37 36.71, 32.53 18.6, 13.64 -1.41 M80.09 56.76 C62.88 44.03, 47.02 29.77, 12.12 -0.93 M84.31 58.51 C68.34 43.47, 54.51 29.66, 17.82 0.98 M84.95 57.14 C66.37 39.61, 47.47 23.93, 18.46 -0.42 M89.54 56.77 C78.05 45.8, 62.9 31.05, 25.11 0.7 M91.91 57.4 C72.95 38.74, 53.41 21.94, 24.25 -1.87 M95.82 56.12 C75.86 37.64, 55.56 22.24, 30.56 -2.02 M98.33 56.9 C76.9 37.57, 53.75 18.97, 31.67 0.02 M102.23 57.86 C85.57 38.77, 64.61 23.04, 36.09 -2.25 M102.96 57.33 C77.81 34.97, 53.58 11.33, 37.11 -1.07 M111.5 57.07 C94.52 42.53, 82.98 31.48, 44.99 0.3 M110.32 57.12 C92.76 42.3, 77.49 26.84, 42.82 -0.93 M116.98 58.78 C89.84 33.37, 66.57 11.36, 50.56 -2.03 M116.74 57.01 C92.82 37.53, 67.75 15.37, 49.49 -1.72 M123.23 54.54 C98.75 37.37, 77.1 16.29, 55.11 -0.77 M121 57.14 C102.94 38.67, 83 22.41, 56.32 -0.39 M128.63 57.13 C111.89 40.57, 93.29 24.27, 62.29 0.57 M127.94 57.21 C114.13 44.46, 100.74 32.38, 61.41 -0.27 M134.38 54.66 C110.08 35.84, 83.9 12.94, 68.19 -1.33 M133.47 57.04 C113.98 38.69, 93.04 21.78, 67.81 -1.53 M135.83 53.84 C120.74 39.81, 103.08 22.69, 73.82 -0.98 M137 53.32 C117.32 36.93, 96.79 18.54, 74.12 -2.05 M137.58 47.35 C119.88 33.58, 103.37 15.74, 79.79 -1.44 M138.49 49.45 C115.94 30.14, 92.55 10.57, 80.14 -1.26 M135.99 44.51 C123.15 32.12, 110.71 18.21, 87.23 -0.21 M138.07 43.67 C124.78 32.84, 111.56 22.77, 85.87 -1.63 M137.8 38.63 C127.24 27.73, 115.88 21.03, 92.25 0.73 M136.63 38.93 C129.06 30.92, 119.14 23.44, 92.93 -1.22 M138.12 33.82 C126.67 24.13, 116.33 15.97, 98.88 0.97 M136.88 33.03 C124.52 22.24, 112.12 10.08, 99.62 -1.16 M136.8 28.84 C127.23 17.65, 115.69 10.93, 105.71 0.36 M137.72 27.13 C126.94 18.14, 115.65 8.91, 104.52 -1.47 M136.72 20.58 C128.71 17.16, 122.6 10.23, 110.41 -0.35 M137.57 22.54 C130.51 16.94, 124.63 10.58, 111.09 0.01 M136.1 16 C130.83 12.9, 126.57 6.91, 116.81 0.58 M136.76 17.21 C131.48 12.66, 125.48 6.03, 115.74 -0.78 M138.73 11.54 C132.36 6, 127.77 4.65, 123.2 -2.09 M136.8 10.64 C131.67 6.66, 126.98 3.13, 122.24 -1.7 M138.15 5.74 C136.48 5.86, 133.59 3.33, 129.33 -0.78 M137.06 6.28 C134.63 4.51, 132.08 2.01, 129.41 -0.87" stroke="#fab005" stroke-width="0.5" fill="none"></path><path d="M0.7 -1.86 C49.82 -0.71, 103.56 1.31, 134.04 -0.73 M135.57 -0.32 C136.23 12.35, 135 25.42, 134.42 58.4 M133.56 55.83 C90.13 56.91, 47.54 55.9, -1.93 54.95 M-1.16 57.55 C-1 42.77, 0.15 30.43, 0.33 -0.34" stroke="#000000" stroke-width="1.5" fill="none" stroke-dasharray="1.5 7"></path></g><g stroke-linecap="round" transform="translate(304.666748046875 10) rotate(0 67.66665649414062 28.333328247070312)"><path d="M0 0 C0 0, 0 0, 0 0 M0 0 C0 0, 0 0, 0 0 M0.45 6.73 C1.28 4.15, 4.1 1.29, 4.93 0.42 M-0.36 6.49 C1.06 5.06, 1.44 4.31, 4.89 0.53 M-0.03 11.6 C1.17 9.89, 5.29 7.54, 11.63 -0.35 M0.65 12.27 C2.92 7.69, 6.66 5.38, 10.35 0.56 M-0.53 19.43 C6.54 11.71, 13.42 5.41, 14.45 -0.34 M0.46 18.8 C2.86 13.64, 7.5 9.78, 14.63 0.68 M0.93 25.85 C9.83 15.58, 16.04 5.67, 19.64 1.76 M-0.15 23.43 C7.16 16.72, 13.52 9.49, 20.28 -0.09 M0.45 32.28 C10.44 20.15, 19.69 9.01, 28.07 -1.6 M-0.17 30.79 C6.88 22.32, 14.13 15.72, 26.73 -0.12 M0.84 38.05 C7.36 25.5, 18.94 14.73, 31.89 -2.06 M0.63 36.69 C12.56 23.2, 23.5 9.33, 31.82 0.71 M-1.72 40.8 C8.31 32.82, 19.06 20.99, 36.15 -1.1 M-0.02 42.85 C12.63 27.77, 25.12 13.17, 37.74 0.46 M-0.96 47.11 C14.43 30.16, 29.19 11.08, 40.8 -1.72 M0.32 48.47 C12.53 33.75, 26.13 18.25, 42.35 -0.46 M0.76 53.52 C11.23 42.65, 23.7 29.24, 46.09 1.86 M-0.46 55.26 C14.46 40.57, 26.84 25.31, 47.14 -0.02 M3.86 58.59 C17.19 44.18, 27.84 25.92, 54.51 0.49 M2.87 58.63 C21.56 35.92, 42.3 13.51, 52.59 -0.17 M6.86 58.22 C20.2 41.24, 34.38 27.22, 56.24 0.47 M7.64 58.95 C20.18 43.7, 30.68 30.35, 58.13 0.48 M11.86 60.53 C29.28 41.29, 44.87 23.82, 63.11 -0.2 M13.27 59.49 C31.27 36.72, 49.27 15.62, 63.51 -1 M18.37 57.05 C31.41 41.75, 46.45 26.76, 69.96 -1.49 M18.52 57.67 C34.36 42.18, 48.36 24.65, 68.72 -0.51 M21.46 56.87 C36.66 40.63, 49.66 27.02, 72.68 -1.03 M24.15 58.2 C38.72 41.35, 53.81 24.77, 75.37 -0.57 M29.71 58.91 C37.44 44.81, 48.31 33.97, 77.55 0.23 M28.32 57.4 C46.63 38.48, 62.91 17.47, 78.66 1.03 M34.61 58.26 C48.49 42.11, 61.37 25.88, 83.25 -1.71 M34.47 58.57 C51.97 38.43, 70.09 17.4, 84.69 -0.48 M40.55 58.47 C49 45.78, 59.66 35.34, 90.28 0.46 M38.76 58.33 C57.62 38.37, 73.89 19.2, 90.47 0.58 M46.2 57.88 C57.4 48.45, 66.69 34.81, 94.85 1.6 M43.94 57.93 C64.17 36.85, 82.85 13.43, 95.24 0.61 M50.51 57.93 C65 36.61, 83.15 20.09, 102.39 -1.47 M50.8 57.64 C63.26 42.94, 75.63 28.16, 100.44 0.13 M54.1 57.46 C74.92 36.23, 93.01 13.87, 105.44 -1.74 M56.03 58.06 C73.98 35.71, 93.48 14.74, 107.08 0.07 M60.55 57.78 C81.02 38.61, 100.04 14.52, 113.1 0.33 M61.02 59.24 C79.31 37.18, 99.07 15.38, 111.64 -0.85 M65.14 57.24 C78.85 45.49, 87.18 31.28, 116.32 1.9 M64.99 58.25 C83.03 40.04, 100.06 19.08, 116.85 0.97 M69.55 59.78 C81.23 44.69, 92.22 32.02, 120.59 0.25 M71.22 59.78 C88.24 37.84, 106.25 18.06, 122.86 -0.42 M77.14 58 C94.72 37.65, 114.82 12.89, 128.71 1.43 M76.81 58.25 C90.94 42.05, 104.26 26.05, 127.44 0.12 M80.4 57.48 C99.57 41.23, 114.63 19.7, 132.01 -0.77 M81.53 58.14 C100.89 36.82, 119.02 15.1, 131.71 0.87 M88.87 59.06 C100.56 43.15, 114.72 25.99, 137.19 0.32 M86.28 59.31 C97.97 46.61, 107.44 34.61, 136.39 0.35 M92.6 59.2 C102.95 47.52, 111.16 36.87, 134.92 6.29 M91.96 59.42 C109.89 39.4, 125.6 20.25, 136.97 6.47 M98.06 60.25 C110.35 43.32, 119.15 32.55, 138.42 12.62 M97.93 59.17 C109.84 43.27, 122.65 29.5, 137.63 13.49 M103.63 58.8 C110.69 48.82, 120.63 40.1, 135.02 18.4 M102.82 58.73 C112.09 49.4, 120.29 37.79, 137.38 18.76 M107.45 59.96 C117.43 43.46, 129.13 31.39, 135.41 26.78 M109.06 59.03 C113.71 50.12, 120.37 42.95, 136.7 25.25 M114.94 57.68 C121.29 50, 131.2 38.22, 138.32 31.57 M113.67 58.15 C118.29 51.21, 124.62 44.95, 136.76 31.12 M118.69 57.07 C122.9 54.05, 130.96 46.22, 137.27 37.82 M118.75 58.6 C124.35 52.78, 131.25 46.02, 137.56 38.38 M121.94 58.74 C127.14 51.62, 134.17 47.09, 135.84 44.86 M124.33 57.75 C128.01 53.84, 131.93 49, 137.75 42.91 M130.04 57.6 C132.92 55.57, 134.01 51.99, 135.84 50.32 M129.15 58.72 C131.03 56.93, 132.33 55.35, 137.15 50.47 M-0.13 56.55 C-0.13 56.55, -0.13 56.55, -0.13 56.55 M-0.13 56.55 C-0.13 56.55, -0.13 56.55, -0.13 56.55 M6.34 56.64 C5.54 55.34, 3.76 54.55, 0.92 51.83 M6.56 56.75 C4.46 55.15, 3.2 54.44, 0.11 51.54 M13.01 56.55 C7.05 52.67, 5.57 50.85, 0.77 46.74 M12.37 55.67 C7.66 52.76, 4.74 50.04, -0.38 45.95 M18.47 58.39 C14.36 51.48, 9.96 50.43, 0.7 42.13 M18.83 57.31 C13.39 51, 7.58 46.54, -0.48 40.69 M23.71 55.61 C13.86 49.88, 6.16 40.87, -1.17 35.59 M25.38 57.42 C17.5 50.52, 9.31 43.81, -0.21 35.44 M28.78 54.73 C21.5 47.76, 10.8 38.23, -1.5 31.17 M31.16 57.31 C21.49 49.13, 11.06 40.16, -0.52 30.87 M38.43 55.17 C24.51 47.44, 12.71 36.61, 0.67 25.91 M37.3 56.99 C28.38 48.84, 18.32 41.55, -0.12 24.69 M43.88 56.99 C32.19 48.94, 22.58 39.52, -1.01 21.55 M42.88 55.78 C29.61 44.39, 17.8 33.19, 0.75 19.22 M49.46 56.49 C30.93 43.26, 15.98 27.94, 0.38 15.62 M49.15 55.84 C36.89 46.25, 25.55 37.41, -0.68 13.49 M54.04 57.9 C37.28 41.37, 22.09 28.11, -0.22 9 M55.4 56.98 C42.83 45.36, 31 34.33, 0.57 8.88 M62.01 57.67 C39.3 40.27, 20.09 22.22, 0.79 4.97 M61.36 56.94 C39.8 38.47, 17.3 20.19, 0.33 3.13 M68.2 58.77 C43.54 38.93, 23.92 18.49, -0.82 -2.55 M66.64 56.7 C46.46 39.92, 27.43 21.76, 0.2 -1.33 M73.29 56.37 C56.51 39.93, 35.02 24.44, 7.27 1.31 M73.61 56.25 C57.65 42.62, 41.81 29.54, 6.48 -0.07 M80.55 55.42 C63 41.98, 46.19 27.7, 11.32 0.87 M78.56 57.17 C59.36 39.98, 40.59 22.27, 12.97 -0.11 M87.22 56.4 C72.78 45.35, 60.23 33.84, 19.57 -2.69 M86.62 56.38 C69.91 43.08, 52.56 27.6, 19.52 -1.49 M89.49 57.54 C76.61 43.71, 65.78 32.54, 24.37 -2.25 M91.12 57.44 C76.76 43.78, 62.51 32.61, 25.59 -2.17 M97.42 55.15 C74.76 36.33, 54.56 17.58, 30.9 0.88 M98.08 56.92 C77 39.43, 53.96 19.45, 31.46 -1.34 M104.39 55.33 C82.98 42.1, 66.84 25.02, 36.57 -1.39 M104.03 57.06 C89.02 43.73, 74.68 30.03, 37.1 0.23 M109.76 57.52 C88.81 36.77, 67.84 22.68, 43.98 -1.6 M110.24 57.45 C87.68 37.55, 66.1 19.85, 43.6 -0.4 M116.34 58.21 C87.87 33.14, 64.3 11.45, 47.86 -0.48 M116.55 57.72 C95 39, 71.97 19.18, 49.57 -0.13 M121.29 55.26 C107.55 45.27, 89.65 30.52, 56.49 0.77 M121.85 55.87 C103.33 39.82, 84.19 25.22, 55.02 -0.97 M129.13 58.15 C102.05 36.18, 77.3 13.85, 62.4 0.06 M127.43 57.61 C108.48 39.9, 91.41 23.74, 61.57 -0.53 M135.07 57.68 C106.85 33.23, 82.43 12.37, 67.82 -1.91 M133.92 56.06 C112.05 37.31, 89.4 17.71, 68.3 -1.21 M138.78 52.98 C119.02 39.6, 101.61 21.19, 75.59 -1.33 M137.42 53.76 C118.39 37.64, 101.07 21.08, 74.19 -1.93 M137.8 50.38 C118.77 31.17, 95.92 13.11, 82.1 -1 M138.43 49.65 C123.45 37.84, 109.71 24.9, 79.54 -0.77 M136.5 41.8 C120.75 27.8, 107.48 15.33, 84.77 -0.65 M137.27 44.4 C121.79 29.89, 106.62 17.16, 86.81 -1.27 M138.98 39.66 C124.64 27.63, 114.06 16.4, 90.67 0.67 M138.45 37.44 C128.68 29.22, 116.62 20.03, 91.85 -1.82 M137.54 31.35 C126.33 25.89, 117.93 18.08, 100.01 -1.73 M137.59 32.38 C125.46 22.89, 111.79 10.75, 98.78 0.1 M139.35 26.69 C125.91 19.86, 115.58 11.06, 103.07 0.12 M137.58 28.55 C127.07 18.05, 114.73 8.69, 103.37 -0.75 M135.11 21.05 C129.88 15.58, 120.99 9.81, 111.11 -0.85 M137.71 23.14 C128.77 15.76, 121.64 8.84, 111.5 -1.1 M137.8 18.88 C130.31 12.84, 123.34 6.71, 117.84 -3.08 M137.88 16.78 C131.44 11.64, 125.07 5.97, 117 -0.41 M135.42 12.75 C133.51 7.61, 127.74 3.59, 122.11 -0.79 M137.67 11.61 C133.81 7.89, 130.99 5.06, 121.91 -1.24 M137.32 6.89 C135.26 4.34, 131.5 2.09, 129.18 -0.42 M137.03 6.75 C135.65 4.96, 133.3 3.09, 128.59 -0.62" stroke="#fab005" stroke-width="0.5" fill="none"></path><path d="M1.41 0.62 C55.2 -1.66, 107.23 -2.29, 134.98 -1.89 M135.72 0.38 C135.14 13.75, 134.05 25.72, 135.39 57.05 M136.49 58.5 C103.78 56.57, 76.59 57.36, 1.45 55.64 M0.45 57.95 C-1.54 39.97, 1.21 27.24, -0.38 0.4" stroke="#000000" stroke-width="1.5" fill="none" stroke-dasharray="1.5 7"></path></g><g stroke-linecap="round" transform="translate(307.3333740234375 372.6666259765624) rotate(0 67.66665649414062 28.333328247070312)"><path d="M0 0 C0 0, 0 0, 0 0 M0 0 C0 0, 0 0, 0 0 M-0.73 6.23 C0.34 4.38, 2.61 2.69, 4.88 1.15 M-0.55 6.76 C2.11 4.33, 3.8 1.6, 5.06 0.51 M0.74 12.82 C4.77 6.41, 7.19 3.37, 11.7 0.04 M-0.21 12.53 C5.02 6.71, 8.07 2.05, 9.97 -0.65 M-0.23 19.04 C4.32 12.03, 10.2 8.06, 17.31 0.05 M-0.4 18.25 C6.14 11.08, 11.62 5.58, 16.41 0.18 M0.52 22.12 C5.15 14.93, 13.07 11.45, 22.76 -1.89 M0.99 24.85 C5.07 18.39, 9.62 13.08, 21.42 0.83 M1.17 30.2 C8.68 16.99, 21.03 5.78, 27.62 0.32 M0.99 31.4 C7.85 21.26, 14.25 13.88, 25.3 0.81 M-0.93 38.77 C8.36 27.07, 21.46 12.47, 33.71 -2.02 M0.62 36.85 C9.87 24.27, 19.71 12.65, 31.32 0.28 M1 42.01 C13.02 26.31, 27.34 11.86, 38.24 0.58 M0.29 42.43 C11.72 30.04, 23.09 15.07, 36.68 0.99 M-0.72 50.05 C11.29 34.87, 24.18 19.64, 43.09 -1.33 M0.3 48.93 C14.56 31.97, 30.19 14.58, 43.35 0.25 M0.4 52.58 C15.73 38.97, 28.11 24.23, 47.63 0.87 M0.91 55.49 C18.57 32.43, 38.61 10.54, 47.17 0.03 M3.81 57.61 C21.94 37.06, 38.83 13.06, 54.05 0.76 M1.53 58.34 C18.05 38.54, 35.22 20.96, 52.65 -1.09 M8.62 57.33 C24.27 39.46, 39.71 21.79, 56.15 1.84 M6.78 57.88 C23.55 40.25, 39.89 22.35, 58.17 -0.8 M14.47 57.66 C22.62 46.38, 35.65 32.29, 64.67 0.44 M11.84 58.24 C32.09 34.65, 53.5 13, 64.68 -1.13 M18.69 60.09 C28.71 46.52, 39.91 32.74, 68.09 -1.29 M18.97 58.19 C37.34 34.64, 58.13 12.78, 68.92 0.7 M21.88 58.38 C35.5 44.54, 50.45 29.05, 73.95 -0.52 M23.5 58.07 C37.15 43.15, 51.98 26.84, 74.17 0.2 M29.18 57.53 C45.41 39.13, 64.16 17.89, 77.64 -0.7 M28.5 57.7 C47.28 37.12, 64.69 17.05, 79.43 0.72 M35.1 58.71 C51.17 37.46, 69.62 18.71, 83.75 -0.74 M34.07 59.46 C53.06 34.77, 74.04 12.51, 84.15 -0.57 M40.84 58.16 C54.59 40.37, 69.36 22.13, 90.87 2.03 M39.97 58.35 C57.76 38.35, 76.56 16.5, 89.49 0.38 M43.09 60.18 C59.66 42.48, 75.52 23.26, 96.88 -1.26 M44.93 58.97 C63.99 36.38, 82.73 13.04, 94.97 0.51 M51.35 60.05 C68.57 37.09, 84.83 17.44, 99.79 1.92 M49.28 57.57 C66.85 38.96, 83.12 18.91, 99.73 0.74 M56.73 56.95 C69.8 42.3, 85.18 23.68, 107.03 0.47 M54.24 59.1 C71.76 37.87, 90.61 16.84, 107.25 -0.1 M60.62 57.66 C77.49 38.23, 92.74 21.24, 112.3 0.57 M59.96 57.97 C81.45 35.09, 100.69 12.32, 110.55 -0.15 M66.79 57.74 C80.64 41.98, 95.91 22.54, 116.17 1.37 M65.98 59.33 C75.14 46.09, 87.05 34.96, 116.26 0.21 M71.46 60.74 C90.43 36.12, 109.65 17.64, 122.21 0.18 M70.81 59.37 C84 43.14, 98.86 26.15, 121.14 -0.33 M77.97 59.87 C90.64 41.78, 104.47 26.06, 127.1 -0.33 M76.91 59.07 C95.63 38.64, 112.34 17.19, 127.54 0.28 M79.59 56.93 C100.12 34.68, 121.27 13.6, 131.24 1.53 M80.97 58.29 C95.48 42.49, 108.79 27.43, 132.51 -0.84 M86.84 59.25 C104.85 37.7, 124.01 12.78, 136.93 2.21 M87.59 58.71 C106.73 35.61, 127.67 13.19, 137.3 1.4 M90.29 58.68 C108.99 43.43, 122.58 22.73, 136.44 5.57 M91.52 57.95 C106.55 43.17, 119.43 26.83, 135.88 6.74 M95.9 56.41 C110.59 46.17, 119.07 32.41, 137.82 12.51 M97.37 58.55 C106.89 48.7, 117.22 38.1, 136.17 12.37 M103.79 58.05 C112.04 48.59, 117.12 41.92, 135.96 21.25 M101.84 58.04 C111.94 47.17, 122.71 35.99, 137.48 19.25 M107.57 58.45 C117.91 48.38, 128.19 38.71, 137.16 26.51 M107.41 57.9 C118.31 45.93, 128.46 35.19, 136.46 26.34 M113.17 60.7 C117.85 51.49, 125.52 43.02, 135.19 32.63 M112.61 59.68 C121.15 49.62, 128.83 40.53, 137.63 31.93 M118.14 57.06 C125.99 50.27, 129.96 46.89, 137.42 36.83 M119.66 57.97 C125.75 51.88, 131.9 43.83, 136.88 37.92 M122.45 59.87 C128.17 53.22, 130.76 50.51, 135.46 42.86 M124.8 58.46 C127.91 54.68, 131.02 49.78, 136.51 43.55 M128.6 58.42 C132.31 55.5, 135.42 51.23, 136.33 51.06 M129.72 58.65 C130.86 56.97, 132.84 54.53, 137.16 49.71 M-0.13 56.55 C-0.13 56.55, -0.13 56.55, -0.13 56.55 M-0.13 56.55 C-0.13 56.55, -0.13 56.55, -0.13 56.55 M5.71 56.62 C4.14 56.26, 2.97 53.59, 0.58 52.02 M6.43 57.11 C4.18 55.01, 1.76 52.44, 0.39 51.19 M10.43 56.52 C9.85 53.82, 5.75 51.52, -1.2 47.42 M11.64 55.96 C8.18 53.56, 5.9 50.31, 0.57 45.67 M16.49 54.7 C14.57 54.91, 10.93 48.47, -0.14 42.23 M17.65 57.63 C11.05 50.37, 4.4 44.4, -0.24 41.09 M24.35 55.25 C19.23 51.81, 11.87 44.92, -1.14 34.86 M24.01 57.63 C18.86 52.1, 13.78 48.21, -0.24 34.38 M31.32 58.37 C21.55 51.55, 15.66 46.53, 0.46 29.26 M30.6 56.9 C20.05 47.27, 9.35 39.14, 0.98 31.04 M34.9 58.75 C22.74 43.29, 12.39 32.51, 0.64 23.4 M35.98 56.77 C26.18 48.48, 17.93 39.97, 0.2 24.61 M41.19 56.02 C30.77 46.15, 18.44 35.48, 0.6 19.88 M42.47 57.36 C30.62 46.49, 20.76 36.61, 0.2 19.91 M47 56.9 C34.18 44.58, 18.48 30.88, -1.24 15.54 M49.7 56.77 C34.37 44.59, 22.37 33.67, 0.26 14.81 M56.61 57.55 C38.53 43.4, 21.53 26.25, 0.85 7.76 M55.75 57.61 C35.19 40.99, 15.74 22.52, -0.39 9.55 M60.11 58.51 C35.74 36.16, 14.84 13.94, -0.01 4.02 M60.92 56.93 C41.32 40.91, 23.26 24.27, -0.1 2.45 M65.73 57.53 C52.3 43.1, 36.06 28.13, -0.55 0.84 M66.45 57.25 C45.41 38.65, 25.86 19.99, 1.44 -0.07 M74.59 57.99 C59.58 44.32, 46.01 32.72, 8.55 0.7 M72.69 56 C56.1 43.65, 39.41 29.54, 7.43 -0.49 M80.84 57.04 C53.33 31.92, 29.57 12.64, 11.35 -0.83 M79.65 55.79 C60.41 40.58, 42.11 24.99, 12.06 -1.97 M86.44 57.98 C66.31 41.3, 46.08 22.83, 18.04 -1.1 M85.13 57.85 C63.31 39.47, 42.45 19.2, 18.39 -0.26 M89.43 55.14 C74.1 42.72, 60.06 28.88, 26.51 -2.61 M91.48 57.04 C65.58 34, 40.51 12.63, 25.23 -0.79 M98.33 56.78 C76.61 37.62, 52.84 17, 30.41 -0.82 M97.36 55.83 C81.45 43.91, 66.61 30.9, 31.62 -0.47 M104.86 55.45 C86.26 41.88, 69.57 26, 37.9 0.2 M102.86 56.77 C86.09 40.62, 67.11 24.86, 37.07 -0.19 M110.09 58.2 C89.59 40.38, 68.32 22.52, 44.06 0.65 M109.08 55.72 C82.17 33.52, 57.17 10.52, 44.26 -1.85 M117.17 56.87 C95.06 39.48, 73.83 18.06, 49.12 -0.06 M115.26 56.34 C91.19 34.31, 64.94 12.67, 48.76 -0.34 M121.69 55.04 C98.09 35.21, 75.55 16.04, 55.31 -0.99 M122.54 56.08 C103 39.73, 85.36 23.58, 56.27 -1.15 M128.02 56.91 C101.84 34.61, 76.27 10.69, 60.92 -1.49 M128.68 57.13 C110.88 41.98, 93.59 26.88, 62.04 -1.01 M132.04 55.66 C113.77 41.24, 96.83 23.35, 69.12 1.2 M134.27 55.93 C114.97 38.83, 95.87 23.6, 68.14 -1.54 M138.25 55.01 C115.72 34.57, 94.6 16.77, 74.23 -1.24 M138.18 54.77 C124.42 42.56, 109.37 31.75, 73.16 -1.17 M136.6 50.8 C117.48 31.83, 99.57 17.42, 82.11 0.8 M137.8 48.53 C119.81 33.17, 101.34 17.32, 80.92 -0.19 M138.81 43.93 C119.2 29.27, 105.93 14.5, 84.88 -0.88 M137.81 43.61 C123.25 31.92, 109.23 19.05, 86.7 -1.31 M138.63 37.97 C121.61 24.68, 104.32 8.71, 93.06 -0.05 M137.8 38.75 C122.46 26.14, 107.59 11.18, 91.7 -1.35 M135.67 32.17 C124.53 23.81, 115.01 12.29, 98.34 0.26 M136.54 32.04 C127.47 24.17, 119.34 17.29, 99.28 0.16 M137.49 27.6 C128.02 18.65, 116.32 10.57, 105.9 0.71 M137.45 28.24 C129.8 21.04, 124.07 15.51, 103.62 -1.98 M135.63 20.91 C131.13 16.06, 125.14 12.15, 108.74 0.51 M137.07 22.54 C130.53 16.44, 124.65 10.42, 111.54 -0.68 M135.69 18.43 C133.24 11.95, 127.29 10.97, 116.47 -0.23 M136.5 17.85 C129.54 9.72, 122.02 3.41, 115.62 -2.08 M137.39 10.02 C133.15 8.67, 130.86 4.31, 121.46 -2.21 M137.85 10.61 C131.92 6.93, 124.87 2.28, 123.67 -0.35 M137.01 6.68 C134.75 3.3, 132.38 1.59, 128.11 -0.84 M137.71 6.16 C133.94 3.72, 131.46 0.49, 128.6 -0.88" stroke="#fab005" stroke-width="0.5" fill="none"></path><path d="M-1.69 1.95 C49.17 0.31, 100.16 0.49, 136.31 1.36 M134.78 -1.96 C135.62 18.99, 136.21 37.03, 133.59 56.18 M135.97 56.42 C85.84 56.72, 37.4 56.56, -1.11 58.57 M-0.41 56.58 C-1.18 42.37, 0.94 31.55, -1.61 -0.62" stroke="#000000" stroke-width="1.5" fill="none" stroke-dasharray="1.5 7"></path></g><g transform="translate(83.45237077985507 103.92859104701449) rotate(0 44.5 12.5)"><text x="44.5" y="18" font-family="Virgil, Segoe UI Emoji" font-size="20px" fill="#000000" text-anchor="middle" style="white-space: pre;" direction="ltr">Ethereum</text></g><g transform="translate(340.5000305175781 24.500015258789062) rotate(0 32.5 12.5)"><text x="32.5" y="18" font-family="Virgil, Segoe UI Emoji" font-size="20px" fill="#000000" text-anchor="middle" style="white-space: pre;" direction="ltr">Solana</text></g><g transform="translate(356.1666564941406 387.16664123535145) rotate(0 19.5 12.5)"><text x="19.5" y="18" font-family="Virgil, Segoe UI Emoji" font-size="20px" fill="#000000" text-anchor="middle" style="white-space: pre;" direction="ltr">BSC</text></g><g transform="translate(52.500030517578125 306.5000457763672) rotate(0 28.5 12.5)"><text x="28.5" y="18" font-family="Virgil, Segoe UI Emoji" font-size="20px" fill="#000000" text-anchor="middle" style="white-space: pre;" direction="ltr">Terra</text></g><g transform="translate(305.9998779296875 211.66668701171875) rotate(0 30.5 12.5)"><text x="0" y="18" font-family="Virgil, Segoe UI Emoji" font-size="20px" fill="#000000" text-anchor="start" style="white-space: pre;" direction="ltr">Bridge</text></g><g stroke-linecap="round" transform="translate(266.66656494140625 202) rotate(0 10.3333740234375 9.666656494140625)"><path d="M7.12 1.03 C9.29 0.63, 13.5 0.56, 15.55 1.46 C17.6 2.37, 18.59 4.66, 19.44 6.44 C20.28 8.23, 21.2 10.2, 20.61 12.17 C20.02 14.14, 17.88 16.93, 15.89 18.25 C13.9 19.56, 10.9 20.45, 8.67 20.09 C6.45 19.72, 4.1 17.61, 2.53 16.04 C0.96 14.48, -0.66 12.68, -0.76 10.69 C-0.86 8.71, 0.4 5.99, 1.94 4.14 C3.47 2.29, 7.44 0.35, 8.47 -0.42 C9.51 -1.19, 8.18 -0.58, 8.12 -0.48 M9.31 1.39 C11.56 1.12, 16.47 1.55, 18.45 2.57 C20.44 3.59, 20.91 5.71, 21.23 7.5 C21.54 9.3, 21.72 11.44, 20.34 13.32 C18.97 15.2, 15.47 17.83, 12.98 18.8 C10.5 19.76, 7.37 19.98, 5.44 19.08 C3.5 18.19, 2.23 15.37, 1.36 13.42 C0.49 11.47, -0.15 9.49, 0.2 7.39 C0.55 5.29, 1.59 1.94, 3.46 0.8 C5.32 -0.34, 10.36 0.68, 11.39 0.55 C12.43 0.41, 9.61 -0.32, 9.66 -0.01" stroke="#000000" stroke-width="1" fill="none"></path></g><g stroke-linecap="round" transform="translate(387.33331298828125 203.33331298828125) rotate(0 10.3333740234375 9.666656494140625)"><path d="M14.14 -0.14 C16.33 0.55, 18.73 3.14, 19.68 5.1 C20.62 7.06, 20.35 9.64, 19.81 11.63 C19.27 13.61, 18.21 15.63, 16.43 17.02 C14.65 18.4, 11.23 20.05, 9.13 19.94 C7.03 19.83, 5.36 17.69, 3.84 16.36 C2.31 15.02, 0.2 13.9, -0.02 11.92 C-0.25 9.93, 1.21 6.33, 2.49 4.44 C3.78 2.55, 5.42 1.01, 7.68 0.56 C9.94 0.12, 14.75 1.55, 16.05 1.79 C17.36 2.04, 15.86 2.06, 15.5 2.05 M13.87 0.95 C15.54 1.72, 17.4 4.17, 18.42 5.83 C19.43 7.49, 20.34 9.18, 19.97 10.92 C19.6 12.65, 18.04 14.87, 16.19 16.24 C14.33 17.6, 11.05 18.86, 8.83 19.08 C6.61 19.3, 4.27 18.76, 2.88 17.54 C1.49 16.32, 0.55 13.74, 0.52 11.76 C0.48 9.78, 1.63 7.54, 2.65 5.66 C3.67 3.78, 4.48 1.15, 6.63 0.5 C8.78 -0.16, 14.23 1.87, 15.54 1.73 C16.86 1.59, 14.9 -0.21, 14.52 -0.34" stroke="#000000" stroke-width="1" fill="none"></path></g><g stroke-linecap="round" transform="translate(307.99993896484375 168.00006103515625) rotate(0 10.3333740234375 9.666656494140625)"><path d="M10.15 0.21 C11.98 -0.01, 14.61 0.74, 16.48 2.2 C18.34 3.66, 20.92 6.9, 21.33 8.97 C21.75 11.03, 20.26 13.04, 18.98 14.58 C17.71 16.11, 15.7 17.55, 13.69 18.17 C11.68 18.79, 9.09 19.03, 6.93 18.31 C4.76 17.59, 1.94 15.76, 0.7 13.86 C-0.53 11.95, -0.99 8.91, -0.47 6.88 C0.05 4.86, 1.55 2.74, 3.81 1.68 C6.07 0.62, 11.25 0.51, 13.1 0.52 C14.95 0.53, 14.9 1.66, 14.91 1.72 M10.82 -1.22 C12.62 -1.6, 14.93 0.12, 16.54 1.67 C18.15 3.22, 20.28 5.85, 20.49 8.1 C20.71 10.35, 18.77 13.2, 17.83 15.18 C16.88 17.15, 16.53 19.12, 14.83 19.94 C13.13 20.76, 10.03 20.8, 7.61 20.12 C5.2 19.43, 1.5 17.7, 0.34 15.82 C-0.81 13.94, -0.1 11.06, 0.67 8.84 C1.45 6.62, 3.42 4.05, 5 2.5 C6.59 0.95, 9.49 0.03, 10.18 -0.47 C10.86 -0.97, 9.28 -0.77, 9.11 -0.51" stroke="#000000" stroke-width="1" fill="none"></path></g><g stroke-linecap="round" transform="translate(356.66656494140625 167.3333740234375) rotate(0 10.3333740234375 9.666656494140625)"><path d="M9.29 0.41 C11.21 -0.25, 13.02 0, 14.75 1 C16.47 1.99, 18.76 4.55, 19.64 6.4 C20.52 8.25, 20.68 10.03, 20.04 12.09 C19.41 14.15, 17.65 17.48, 15.85 18.76 C14.05 20.05, 11.34 20.37, 9.25 19.77 C7.16 19.17, 4.69 16.8, 3.3 15.17 C1.92 13.53, 0.96 11.76, 0.93 9.94 C0.89 8.12, 1.28 5.91, 3.08 4.24 C4.88 2.56, 9.9 0.6, 11.71 -0.1 C13.52 -0.79, 14.07 0.01, 13.94 0.06 M10.74 0.72 C12.56 0.75, 14.11 2.04, 15.83 3.13 C17.56 4.23, 20.42 5.6, 21.11 7.3 C21.8 9.01, 21.27 11.53, 19.97 13.38 C18.67 15.22, 15.36 17.54, 13.34 18.38 C11.31 19.22, 9.64 19, 7.81 18.43 C5.98 17.85, 3.62 16.94, 2.37 14.91 C1.12 12.87, -0.14 8.52, 0.3 6.22 C0.74 3.92, 3.02 2.15, 5.01 1.11 C6.99 0.07, 11.35 0.22, 12.23 0 C13.11 -0.23, 10.34 -0.45, 10.29 -0.24" stroke="#000000" stroke-width="1" fill="none"></path></g><g stroke-linecap="round" transform="translate(282.00006103515625 248.666748046875) rotate(0 10.3333740234375 9.666656494140625)"><path d="M11.87 -0.92 C14.03 -0.78, 16.83 1.55, 18.17 3.3 C19.51 5.05, 20 7.59, 19.93 9.58 C19.86 11.57, 18.97 13.51, 17.73 15.24 C16.5 16.98, 14.52 19.32, 12.52 19.97 C10.51 20.62, 7.55 20.2, 5.69 19.15 C3.84 18.1, 2.43 15.57, 1.4 13.66 C0.36 11.74, -0.95 9.51, -0.53 7.68 C-0.1 5.84, 1.78 3.94, 3.94 2.65 C6.1 1.35, 10.91 0.11, 12.44 -0.09 C13.97 -0.29, 13.11 1.31, 13.12 1.45 M8.78 1.28 C10.75 0.59, 12.19 0.53, 14.11 1.21 C16.03 1.89, 19.41 3.7, 20.29 5.36 C21.18 7.03, 20.33 8.9, 19.39 11.18 C18.46 13.47, 16.22 17.66, 14.69 19.07 C13.16 20.48, 12.03 20.3, 10.22 19.66 C8.41 19.02, 5.68 17.03, 3.83 15.25 C1.98 13.46, -0.42 10.93, -0.9 8.95 C-1.38 6.97, -0.45 4.85, 0.93 3.35 C2.31 1.86, 6.02 0.59, 7.38 -0.04 C8.73 -0.67, 8.76 -0.51, 9.04 -0.43" stroke="#000000" stroke-width="1" fill="none"></path></g><g stroke-linecap="round" transform="translate(328.00006103515625 264.0001220703125) rotate(0 10.3333740234375 9.666656494140625)"><path d="M7.74 0.39 C9.75 -0.11, 12.89 0.73, 14.91 1.62 C16.92 2.51, 18.95 3.82, 19.83 5.73 C20.72 7.65, 20.73 11.14, 20.21 13.09 C19.68 15.03, 18.63 16.22, 16.67 17.41 C14.71 18.59, 10.73 20.45, 8.46 20.21 C6.18 19.96, 4.42 17.42, 3.01 15.92 C1.6 14.43, 0.09 13.16, 0 11.22 C-0.09 9.29, 0.95 6.12, 2.47 4.32 C3.99 2.52, 7.83 1.05, 9.11 0.42 C10.39 -0.22, 10.2 0.47, 10.15 0.54 M13.61 -0.43 C15.66 -0.28, 18.35 1.91, 19.61 3.93 C20.86 5.95, 21.72 9.6, 21.13 11.69 C20.54 13.78, 17.63 15.04, 16.09 16.45 C14.54 17.86, 13.95 19.79, 11.83 20.15 C9.71 20.51, 5.29 19.99, 3.38 18.6 C1.47 17.21, 0.67 13.95, 0.39 11.82 C0.11 9.7, 0.43 7.78, 1.68 5.86 C2.93 3.95, 6.06 1.1, 7.89 0.34 C9.72 -0.42, 11.51 1.01, 12.64 1.31 C13.78 1.62, 14.64 2.03, 14.68 2.15" stroke="#000000" stroke-width="1" fill="none"></path></g><g stroke-linecap="round" transform="translate(371.33343505859375 250.66680908203125) rotate(0 10.3333740234375 9.666656494140625)"><path d="M5.99 0.24 C7.95 -0.46, 11.09 -0.3, 13.42 0.35 C15.75 1.01, 18.66 2.44, 19.95 4.17 C21.24 5.91, 21.74 8.64, 21.14 10.75 C20.54 12.87, 18.2 15.51, 16.33 16.88 C14.47 18.26, 11.89 18.82, 9.93 19.01 C7.97 19.21, 6.12 19.5, 4.58 18.08 C3.04 16.66, 1.29 12.63, 0.69 10.5 C0.09 8.37, -0.4 6.91, 0.97 5.27 C2.34 3.63, 7.22 1.43, 8.89 0.68 C10.56 -0.07, 10.8 0.65, 10.97 0.78 M6.89 0.89 C8.9 -0.47, 11.3 -1.52, 13.2 -0.96 C15.1 -0.41, 17.06 2.56, 18.28 4.21 C19.5 5.85, 20.8 6.79, 20.53 8.92 C20.26 11.06, 18.34 15.26, 16.67 17 C15 18.74, 12.59 18.97, 10.52 19.37 C8.46 19.76, 6.13 20.28, 4.27 19.37 C2.41 18.47, -0.23 16.3, -0.64 13.93 C-1.06 11.57, 0.77 7.37, 1.8 5.18 C2.83 2.99, 5.11 1.39, 5.51 0.81 C5.92 0.23, 4.36 1.69, 4.24 1.73" stroke="#000000" stroke-width="1" fill="none"></path></g><g stroke-linecap="round"><g transform="translate(284.6666259765625 210.6666259765625) rotate(0 16.139753658594543 -13.924372773245011)"><path d="M0.8 0.24 C6.33 -4.4, 27.55 -23.44, 32.51 -28.09 M-0.23 -0.68 C5.3 -5.1, 26.64 -22.35, 32.19 -26.6" stroke="#000000" stroke-width="1" fill="none"></path></g></g><g stroke-linecap="round"><g transform="translate(331.333251953125 174.6666259765625) rotate(0 13.382267655283158 0.2692979774817843)"><path d="M0.98 -0.23 C5.01 -0.03, 20.27 1.5, 24.47 1.96 M0.04 -1.4 C4.42 -1.61, 22.43 -0.2, 26.72 0.16" stroke="#000000" stroke-width="1" fill="none"></path></g></g><g stroke-linecap="round"><g transform="translate(375.333251953125 180.6666259765625) rotate(0 8.872017675377379 12.551605936735854)"><path d="M-0.09 0.97 C3.17 4.81, 16.04 19.7, 19.34 23.66 M-1.59 0.44 C1.59 4.33, 15.23 20.4, 18.74 24.67" stroke="#000000" stroke-width="1" fill="none"></path></g></g><g stroke-linecap="round"><g transform="translate(398.6666259765625 222) rotate(0 -7.7018710820376555 13.536398128718133)"><path d="M-0.71 -0.09 C-3.36 4.37, -12.9 22.24, -15.49 26.93 M1.11 -1.18 C-1.74 3.43, -14.03 23.72, -16.52 28.25" stroke="#000000" stroke-width="1" fill="none"></path></g></g><g stroke-linecap="round"><g transform="translate(371.9998779296875 266.6666259765625) rotate(0 -8.646661876290977 2.6191703854501043)"><path d="M-0.87 -0.14 C-3.89 0.96, -14.57 4.29, -17.03 5.54 M0.87 -1.25 C-2.44 0.05, -15.39 5.38, -18.16 6.49" stroke="#000000" stroke-width="1" fill="none"></path></g></g><g stroke-linecap="round"><g transform="translate(303.333251953125 262) rotate(0 12.395627402141656 4.741622404633063)"><path d="M-0.35 0.44 C3.85 2.16, 20.75 8.35, 25.15 9.85 M1.66 -0.37 C5.7 1.02, 20.11 6.13, 24.1 8" stroke="#000000" stroke-width="1" fill="none"></path></g></g><g stroke-linecap="round"><g transform="translate(281.333251953125 220) rotate(0 2.2555937270540767 12.459626911906525)"><path d="M-1.16 0.17 C-0.81 4.64, 2.34 21.61, 3.32 25.7 M0.43 -0.78 C1.07 3.47, 5.02 19.65, 5.67 24.12" stroke="#000000" stroke-width="1" fill="none"></path></g></g><g stroke-linecap="round"><g transform="translate(300.6666259765625 247.33331298828125) rotate(0 5.814910732358669 -4.950420657880613)"><path d="M-0.23 -0.68 C1.45 -2.61, 9.2 -9.72, 11.17 -11.48 M-1.81 1.58 C0.15 -0.17, 11.38 -8.11, 13.44 -10.02" stroke="#000000" stroke-width="1" fill="none"></path></g></g><g stroke-linecap="round"><g transform="translate(335.9998779296875 260.6666259765625) rotate(0 0.04162906271403699 -9.250170223982991)"><path d="M1.2 0.32 C1 -2.58, -0.04 -13.8, -0.11 -16.92 M0.37 -0.55 C-0.09 -3.86, -1.12 -15.98, -1.12 -18.82" stroke="#000000" stroke-width="1" fill="none"></path></g></g><g stroke-linecap="round"><g transform="translate(371.9998779296875 250) rotate(0 -4.969520087270098 -6.945651142671693)"><path d="M0.59 -0.4 C-1.09 -2.82, -8.13 -11.52, -9.95 -13.5 M-0.56 -1.65 C-2.34 -3.37, -8.8 -9.98, -10.53 -12.04" stroke="#000000" stroke-width="1" fill="none"></path></g></g><g stroke-linecap="round"><g transform="translate(384.6666259765625 216) rotate(0 -4.535620709173372 0.3538833845406657)"><path d="M1.01 -1.02 C-0.45 -0.61, -7.72 1.17, -9.66 1.73 M0.08 1.05 C-1.37 1.16, -8.17 -0.09, -10.08 -0.18" stroke="#000000" stroke-width="1" fill="none"></path></g></g><g stroke-linecap="round"><g transform="translate(360.6666259765625 189.33331298828125) rotate(0 -2.855741049228186 7.966323311952863)"><path d="M0.4 0.05 C-0.38 2.7, -4.53 14.09, -5.68 16.9 M-0.85 -0.97 C-1.61 1.88, -5.05 12.59, -6.11 15.25" stroke="#000000" stroke-width="1" fill="none"></path></g></g><g stroke-linecap="round"><g transform="translate(322.6666259765625 191.33331298828125) rotate(0 2.40268575403843 7.327460273951317)"><path d="M0.22 0.15 C1.1 2.6, 5.06 11.94, 5.93 14.19 M-1.12 -0.82 C-0.4 1.84, 4.32 12.94, 5.29 15.47" stroke="#000000" stroke-width="1" fill="none"></path></g></g><g stroke-linecap="round"><g transform="translate(288.6666259765625 216) rotate(0 5.597347874566935 1.3512824941799408)"><path d="M-0.57 -0.4 C1.56 0.18, 9.86 3.52, 11.77 4.36 M1.33 -1.66 C3.37 -1.53, 8.72 1.72, 10.7 2.43" stroke="#000000" stroke-width="1" fill="none"></path></g></g><g stroke-linecap="round"><g transform="translate(172.41975007065685 146.7619192940848) rotate(0 44.00581900729168 24.90887386639065)"><path d="M2.41 0.16 C16.3 8.63, 68.76 40.35, 82.45 49.06 M0.28 -2.22 C15.12 6.78, 73.98 43.67, 87.74 52.04" stroke="#a61e4d" stroke-width="1" fill="none"></path></g><g transform="translate(172.41975007065685 146.7619192940848) rotate(0 44.00581900729168 24.90887386639065)"><path d="M58.59 43 C64.5 47.15, 77.14 50.21, 85.34 49.02 M59.92 45.68 C63.71 48.5, 72.61 47, 86.84 53.12" stroke="#a61e4d" stroke-width="1" fill="none"></path></g><g transform="translate(172.41975007065685 146.7619192940848) rotate(0 44.00581900729168 24.90887386639065)"><path d="M69.39 25.55 C72.18 34.59, 81.91 42.34, 85.34 49.02 M70.72 28.23 C72.02 34.92, 78.51 37.3, 86.84 53.12" stroke="#a61e4d" stroke-width="1" fill="none"></path></g></g><g stroke-linecap="round"><g transform="translate(370 77.3333740234375) rotate(0 -7.059218419492254 37.9153373366222)"><path d="M-2.05 -1.19 C-4.78 12.14, -12.12 67.21, -13.94 80.13 M2.03 -4.3 C-1.28 8.25, -13.44 62.47, -16.15 76.27" stroke="#a61e4d" stroke-width="1" fill="none"></path></g><g transform="translate(370 77.3333740234375) rotate(0 -7.059218419492254 37.9153373366222)"><path d="M-22.01 46.65 C-15.63 59.59, -19.46 66.55, -19.24 75.32 M-21.49 47.71 C-17.47 53.42, -18.34 64.77, -17.34 77.21" stroke="#a61e4d" stroke-width="1" fill="none"></path></g><g transform="translate(370 77.3333740234375) rotate(0 -7.059218419492254 37.9153373366222)"><path d="M-1.94 50.92 C-3.32 61.92, -14.9 67.23, -19.24 75.32 M-1.42 51.98 C-3.25 56.41, -9.91 66.53, -17.34 77.21" stroke="#a61e4d" stroke-width="1" fill="none"></path></g></g><g stroke-linecap="round"><g transform="translate(367.99993896484375 362) rotate(0 -6.221754011549137 -36.45663416024297)"><path d="M2.79 1.33 C0.38 -10.53, -11.48 -57.84, -14.28 -70.2 M0.85 -0.42 C-1.73 -13.15, -12.68 -62.6, -15.23 -74.24" stroke="#a61e4d" stroke-width="1" fill="none"></path></g><g transform="translate(367.99993896484375 362) rotate(0 -6.221754011549137 -36.45663416024297)"><path d="M2.75 -45.51 C-1.67 -52.63, -10.4 -64.18, -11.82 -75.06 M2.23 -48.62 C-1.49 -56.47, -6.79 -61.19, -17.08 -74.81" stroke="#a61e4d" stroke-width="1" fill="none"></path></g><g transform="translate(367.99993896484375 362) rotate(0 -6.221754011549137 -36.45663416024297)"><path d="M-17.29 -41.1 C-15.6 -49.97, -18.21 -62.87, -11.82 -75.06 M-17.81 -44.2 C-16.19 -53.56, -16.16 -59.45, -17.08 -74.81" stroke="#a61e4d" stroke-width="1" fill="none"></path></g></g><g stroke-linecap="round"><g transform="translate(154.66668701171875 318.7719210533862) rotate(0 54.675212132080844 -20.604492870536262)"><path d="M0.06 2.13 C19.18 -4.9, 94.46 -35.68, 112.7 -43.34 M-3.35 0.82 C15.68 -5.77, 91.27 -33.5, 111.03 -40.62" stroke="#a61e4d" stroke-width="1" fill="none"></path></g><g transform="translate(154.66668701171875 318.7719210533862) rotate(0 54.675212132080844 -20.604492870536262)"><path d="M91.09 -19.85 C91.02 -28.74, 95.54 -31.05, 110.56 -37.51 M89.23 -23.06 C93.99 -26.08, 100.3 -31.76, 110.3 -41.9" stroke="#a61e4d" stroke-width="1" fill="none"></path></g><g transform="translate(154.66668701171875 318.7719210533862) rotate(0 54.675212132080844 -20.604492870536262)"><path d="M84.07 -39.14 C85.43 -43.66, 91.55 -41.59, 110.56 -37.51 M82.22 -42.35 C88.77 -39.9, 97.1 -40.03, 110.3 -41.9" stroke="#a61e4d" stroke-width="1" fill="none"></path></g></g><g transform="translate(98.66665213448675 205.666748046875) rotate(0 61.5 25.5)"><text x="61.5" y="18.5" font-family="Virgil, Segoe UI Emoji" font-size="20px" fill="#a61e4d" text-anchor="middle" style="white-space: pre;" direction="ltr">Message</text><text x="61.5" y="44" font-family="Virgil, Segoe UI Emoji" font-size="20px" fill="#a61e4d" text-anchor="middle" style="white-space: pre;" direction="ltr">observations</text></g><g stroke-linecap="round" transform="translate(592.6668090820312 174.66671752929682) rotate(0 25.33331298828125 42.66665649414065)"><path d="M25.96 0.04 C25.96 0.04, 25.96 0.04, 25.96 0.04 M25.96 0.04 C25.96 0.04, 25.96 0.04, 25.96 0.04 M15.09 20.67 C15.06 11.81, 25.57 5.64, 32.14 1.2 M12.89 20.57 C17.78 11.8, 22.73 8.37, 26.51 4.42 M0.27 38.97 C6.22 29.42, 15.59 27.41, 29.29 11.19 M3.45 41.4 C8.71 30.79, 19.54 20.04, 29.75 5.91 M1.26 44.12 C14.58 36.84, 16.48 30.29, 33.9 11.42 M2.52 45.24 C12.29 32.47, 25.68 21.98, 33.44 9.86 M5.68 46.8 C9.78 37.47, 17.81 30.86, 36.85 17.72 M3.71 47.86 C16.09 37.19, 23.97 23.84, 34.12 15.92 M10.8 53.71 C14.28 44.7, 26.12 32.6, 38.45 21.6 M8.6 52.95 C16.63 45.02, 25.41 32.02, 36.66 19.73 M11.06 52.05 C16.9 48.63, 25.59 43.37, 40.48 25 M8.29 55.47 C22.19 41.02, 32.33 30.76, 38.34 20.56 M12 61.4 C25.38 46.92, 34.5 36.07, 40.79 23.32 M13.41 58.47 C22.56 49.24, 30.14 37.23, 41.48 27.31 M13.54 64.57 C21.39 55.77, 28.84 51.05, 39.88 32.59 M11.49 62.9 C21.91 56.54, 29.31 47.54, 44.14 30.62 M17.31 66 C21.45 58.86, 34.23 51.6, 45.63 31.35 M14.28 66.95 C25.89 53.56, 39.78 39.97, 46.84 31.66 M15.24 73.61 C25.98 59.19, 34.85 46.6, 47.82 35.74 M16.51 70.83 C23.26 63.22, 31.69 52.48, 47.2 38.19 M20.24 77.99 C30.63 58.9, 40.23 50.68, 52.78 42.64 M18.52 72.85 C26.56 66.66, 32.28 56.8, 48.66 38.62 M20.72 75.4 C30.93 69.23, 35.39 63.53, 52.08 47.59 M22.93 79.48 C31.03 66.47, 40.66 56.18, 53.15 44.85 M21.34 77.79 C31.84 73.34, 28.8 70.26, 44.63 58.19 M23.39 80.16 C29.29 72.86, 36.11 68.23, 41.34 60.66 M26.3 85.59 C26.3 85.59, 26.3 85.59, 26.3 85.59 M26.3 85.59 C26.3 85.59, 26.3 85.59, 26.3 85.59 M29.17 80.45 C27.5 80.71, 26.15 79.65, 19.31 75.86 M27.89 80.82 C25.19 78.43, 21.68 76.7, 17.91 73.38 M29.51 79.1 C24.72 73.49, 17.67 65.49, 14.36 66.47 M31.94 79.87 C24.4 74.29, 20.77 70.57, 12.26 64.22 M32.96 77.58 C20.77 67.73, 14.55 60.83, 6.42 49.42 M31.19 75.91 C25.24 67.7, 15.41 60.63, 3 52.25 M34.57 70.25 C22.82 58.76, 8.76 49.15, 3.13 42.43 M33.81 69.84 C23.46 62.83, 13.23 51.98, 0.37 42.69 M36.43 68.06 C26.31 55.71, 15.59 47.34, 0.31 40.63 M37.03 65.92 C24.53 57.69, 11.07 47.32, 1.5 39.25 M37.43 62.94 C30.38 53.56, 16.22 48.55, 6.66 36.71 M38.14 63.31 C27.45 55.98, 15.43 44.12, 6.16 35.54 M42.91 62.52 C25.37 47.05, 18.77 42.94, 8 31.29 M40.18 59.68 C29.47 53.26, 22.42 44.21, 7.15 32.39 M42.77 60.86 C31.52 48.24, 31.38 41.32, 10.83 30.49 M44.13 56.95 C31.07 50.51, 19.49 39.88, 9.85 28.35 M45.11 57.15 C34.5 43.48, 19.92 34.07, 12.46 24.55 M46.59 52.88 C32.82 42.24, 20.63 31.64, 12.48 25.26 M49.34 53.04 C39.73 39.39, 32.52 36.95, 10.66 22.63 M46.97 49.37 C36.25 42.34, 26.19 33.54, 11.73 19.98 M47.81 47.41 C34.51 35.86, 21.82 27.4, 16.74 18.1 M49.18 48.13 C34.39 37.04, 20.82 23.37, 14 16.6 M51.19 46.4 C39.56 29.68, 31.95 20.89, 17.99 15.96 M49.06 43.66 C37.94 30.99, 25.35 22.28, 17.82 14.84 M53.86 37.38 C46.42 31.08, 37.12 25.78, 15.97 8.23 M51.84 38.2 C43.72 31.87, 38.27 27.75, 18.23 12.33 M47.92 29.24 C38.83 25.01, 25.86 10, 19.72 7.26 M48.23 28.88 C35.57 19.96, 26.62 14.13, 20.07 6.9 M38.3 16.63 C32.77 15.62, 28.05 9.52, 28.08 5.16 M41.56 16.97 C33.96 13.33, 28.26 9.51, 22.36 2.9 M36.04 9.21 C33.89 6.34, 27.12 2.95, 24.86 0.94 M35.51 8.5 C31.04 4.5, 27.92 2.33, 25.24 -0.02" stroke="#e64980" stroke-width="0.5" fill="none"></path><path d="M26.99 -0.63 C31.6 7.39, 39.01 17.82, 51.53 43.19 M24.39 0.96 C32.85 13.29, 41.23 24.12, 51.85 44.13 M50.77 45.2 C49.36 52.97, 44.97 60.15, 28.13 86.94 M51.52 44.27 C41.32 58.89, 34.4 72.24, 26.98 87.3 M27.49 82.08 C15.5 75.24, 12.64 66.22, -2.32 42.6 M24.76 84.12 C19.26 75.63, 13.48 66.06, 0.43 42.96 M0.63 43.13 C14.3 23.77, 24.15 12.39, 28.98 -0.61 M-1.01 41.54 C11.65 25.7, 21.4 10.84, 27.29 -1.25" stroke="#862e9c" stroke-width="1" fill="none"></path></g><g stroke-linecap="round"><g transform="translate(418.02574487522315 262.1670832819268) rotate(0 78.74151594717546 -13.522699473143291)"><path d="M-1.92 -2.51 C9.99 -3.27, 47.12 2.55, 74 -2.11 C100.89 -6.77, 145.17 -25.22, 159.4 -30.49 M2.24 2.3 C13.76 3.04, 47.11 5.26, 73.13 0.36 C99.14 -4.54, 143.72 -21.6, 158.31 -27.09" stroke="#364fc7" stroke-width="1" fill="none"></path></g><g transform="translate(418.02574487522315 262.1670832819268) rotate(0 78.74151594717546 -13.522699473143291)"><path d="M131.9 -4.05 C141.03 -13.04, 153.8 -20.65, 154.49 -28.51 M134.21 -8.63 C140.54 -12.26, 148.61 -16.18, 158.34 -28.61" stroke="#364fc7" stroke-width="1" fill="none"></path></g><g transform="translate(418.02574487522315 262.1670832819268) rotate(0 78.74151594717546 -13.522699473143291)"><path d="M124.73 -23.28 C137.02 -24.64, 152.59 -24.72, 154.49 -28.51 M127.05 -27.86 C135.67 -25.99, 145.75 -24.53, 158.34 -28.61" stroke="#364fc7" stroke-width="1" fill="none"></path></g></g><g stroke-linecap="round"><g transform="translate(587.3588747580357 191.50039627020806) rotate(0 -69.21966404389104 -53.23653220810519)"><path d="M1.1 1.1 C-11.33 -3.93, -57.62 -17.78, -77.04 -29.83 C-96.47 -41.88, -105.02 -58.23, -115.44 -71.19 C-125.86 -84.15, -135.76 -101.26, -139.54 -107.58 M-1.75 -0.76 C-13.11 -5.58, -52.84 -16.32, -72.02 -27.57 C-91.2 -38.82, -105.65 -55.44, -116.83 -68.27 C-128.01 -81.1, -135.08 -97.82, -139.11 -104.54" stroke="#364fc7" stroke-width="1" fill="none"></path></g><g transform="translate(587.3588747580357 191.50039627020806) rotate(0 -69.21966404389104 -53.23653220810519)"><path d="M-121.13 -93.47 C-129.81 -91.71, -130.17 -96.31, -137.98 -102.93 M-121.19 -91.65 C-126.52 -93.29, -131.41 -98.49, -139.33 -105.42" stroke="#364fc7" stroke-width="1" fill="none"></path></g><g transform="translate(587.3588747580357 191.50039627020806) rotate(0 -69.21966404389104 -53.23653220810519)"><path d="M-134.42 -86.37 C-140.31 -86.21, -137.87 -92.31, -137.98 -102.93 M-134.48 -84.55 C-136.07 -88.24, -137.33 -95.38, -139.33 -105.42" stroke="#364fc7" stroke-width="1" fill="none"></path></g></g><g stroke-linecap="round"><g transform="translate(586.6922487814732 196.83377029364556) rotate(0 -141.4191655401837 -45.193060776037726)"><path d="M-2.36 -2.45 C-14.25 -7.28, -47.05 -16.38, -72.5 -27.89 C-97.95 -39.4, -119.75 -60.68, -155.06 -71.5 C-190.38 -82.31, -263.08 -89.74, -284.4 -92.78 M1.56 2.39 C-10.42 -2.11, -47.11 -12.72, -73.65 -24.57 C-100.19 -36.43, -122.74 -57.71, -157.69 -68.74 C-192.64 -79.77, -262.09 -87.6, -283.35 -90.76" stroke="#364fc7" stroke-width="1" fill="none"></path></g><g transform="translate(586.6922487814732 196.83377029364556) rotate(0 -141.4191655401837 -45.193060776037726)"><path d="M-257.53 -94.27 C-262.42 -98.13, -270.14 -93.08, -284.89 -87.54 M-253.04 -95.93 C-264.87 -94, -274.12 -92.92, -282.98 -88.91" stroke="#364fc7" stroke-width="1" fill="none"></path></g><g transform="translate(586.6922487814732 196.83377029364556) rotate(0 -141.4191655401837 -45.193060776037726)"><path d="M-260.29 -73.94 C-264.63 -83.03, -271.63 -83.26, -284.89 -87.54 M-255.81 -75.6 C-266.22 -81.19, -274.44 -87.64, -282.98 -88.91" stroke="#364fc7" stroke-width="1" fill="none"></path></g></g><g transform="translate(656.7854418073384 185.3808637346542) rotate(0 64.5 25.5)"><text x="64.5" y="18.5" font-family="Virgil, Segoe UI Emoji" font-size="20px" fill="#5f3dc4" text-anchor="middle" style="white-space: pre;" direction="ltr">User agent /</text><text x="64.5" y="44" font-family="Virgil, Segoe UI Emoji" font-size="20px" fill="#5f3dc4" text-anchor="middle" style="white-space: pre;" direction="ltr">wallet</text></g><g transform="translate(427.45194571358843 285.38080269949796) rotate(0 83.5 20)"><text x="83.5" y="14" font-family="Virgil, Segoe UI Emoji" font-size="16px" fill="#364fc7" text-anchor="middle" style="white-space: pre;" direction="ltr">Signed message</text><text x="83.5" y="34" font-family="Virgil, Segoe UI Emoji" font-size="16px" fill="#364fc7" text-anchor="middle" style="white-space: pre;" direction="ltr">published by Wormhole</text></g><g transform="translate(529.4523119245259 63.38086373465427) rotate(0 73.5 30)"><text x="73.5" y="14" font-family="Virgil, Segoe UI Emoji" font-size="16px" fill="#364fc7" text-anchor="middle" style="white-space: pre;" direction="ltr">Signed message</text><text x="73.5" y="34" font-family="Virgil, Segoe UI Emoji" font-size="16px" fill="#364fc7" text-anchor="middle" style="white-space: pre;" direction="ltr">published to chains</text><text x="73.5" y="54" font-family="Virgil, Segoe UI Emoji" font-size="16px" fill="#364fc7" text-anchor="middle" style="white-space: pre;" direction="ltr">(fee paid by user)</text></g></svg>