<?xml version="1.0" encoding="utf-8"?>
<!-- Generator: Adobe Illustrator 25.0.0, SVG Export Plug-In . SVG Version: 6.00 Build 0)  -->
<svg version="1.1" id="BACKGROUND" xmlns="http://www.w3.org/2000/svg" xmlns:xlink="http://www.w3.org/1999/xlink" x="0px" y="0px"
	 viewBox="0 0 512 512" style="enable-background:new 0 0 512 512;" xml:space="preserve">
<style type="text/css">
	.st0{fill:none;}
	.st1{fill:#F0B90B;}
</style>
<rect y="0" class="st0" width="512" height="512"/>
<g>
	<path class="st1" d="M87.1,256.4l0.3,99.2l84.3,49.6v58.1L38,384.8V227.4L87.1,256.4z M87.1,157.2V215L38,186v-57.8l49.1-29
		l49.3,29L87.1,157.2z M206.8,128.2l49.1-29l49.3,29l-49.3,29L206.8,128.2z"/>
	<path class="st1" d="M122.5,335v-58.1l49.1,29v57.8L122.5,335L122.5,335z M206.8,425.9l49.1,29l49.3-29v57.8l-49.3,29l-49.1-29
		L206.8,425.9z M375.6,128.2l49.1-29l49.3,29V186l-49.3,29v-57.8L375.6,128.2z M424.7,355.6l0.3-99.2l49.1-29v157.5l-133.6,78.4
		v-58.1L424.7,355.6L424.7,355.6z"/>
	<path class="st1" d="M389.5,335l-49.1,28.8V306l49.1-29V335z"/>
	<path class="st1" d="M389.5,177.8l0.3,58.1l-84.5,49.6v99.4l-49.1,28.8l-49.1-28.8v-99.4l-84.5-49.6v-58.1l49.3-29l84,49.8
		l84.5-49.8l49.3,29H389.5z M122.5,78.6L255.9,0l133.6,78.6l-49.1,29l-84.5-49.8l-84.3,49.8L122.5,78.6z"/>
</g>
</svg>
