<svg xmlns="http://www.w3.org/2000/svg" viewBox="0 0 163 40.4" class="">
    <title>logo-certus-one-white</title>
    <path d="M20.2 36.28A16.08 16.08 0 1135.05 14h4.38a20.2 20.2 0 100 12.34h-4.38a16.1 16.1 0 01-14.85 9.94z"
        fill="rgba(0,64,220,.9)"></path>
    <path
        d="M27.75 22.26a7.84 7.84 0 110-4.12h8.4a16.08 16.08 0 00-1.1-4.14h-4.63a12 12 0 100 12.34h4.63a16.08 16.08 0 001.1-4.11zM39.43 26.38h4.26a24.46 24.46 0 00.7-4.12h-4.13a20.06 20.06 0 01-.83 4.12zM40.27 18.14h4.12a24.18 24.18 0 00-.71-4.14h-4.25a19.85 19.85 0 01.84 4.14z"
        fill="rgba(0,64,220,.9)"></path>
    <path d="M40.37 20.2c0-.7 0-1.38-.1-2.06h-4.12a16.39 16.39 0 010 4.12h4.12c.06-.68.1-1.37.1-2.06z" fill="rgba(0,64,220,.9)">
    </path>
    <circle cx="20.18" cy="20.16" r="3.22" fill="rgba(0,64,220,.9)"></circle>
    <path
        d="M48.46 18.14H44.4c.05.67.09 1.34.09 2s0 1.41-.1 2.1h4.06q.09-1 .09-2.1c0-.66-.03-1.33-.08-2zM62.8 27.17a7 7 0 115.88-10.78 5.64 5.64 0 01.91 2.19H66a3.5 3.5 0 00-3.25-2.34 3.7 3.7 0 00-3.6 3.92 3.78 3.78 0 003.62 4A3.55 3.55 0 0066 21.89h3.59a6.89 6.89 0 01-6.79 5.28zM133 27.12a6.91 6.91 0 01-7-6.78 7.72 7.72 0 01.53-2.86 6.11 6.11 0 01.87-1.5 7 7 0 115.6 11.14zm0-10.89a3.72 3.72 0 00-3.66 3.91 3.66 3.66 0 107.29.05 3.76 3.76 0 00-3.56-3.96zM88.72 16.94a3.32 3.32 0 00-1.8.48 2.83 2.83 0 00-1.13 1.42v-1.71h-3.1v9.76h3.2v-4.83a2.62 2.62 0 01.15-.88 2 2 0 01.46-.74 2.49 2.49 0 01.75-.51 3.7 3.7 0 011-.19h.49zM96.31 19.76h-2v3.88a.81.81 0 00.31.76 1.65 1.65 0 00.83.17h.42a2.82 2.82 0 01.41 0v2.35l-.87.05a8.77 8.77 0 01-.88 0 7.19 7.19 0 01-1.68-.17 2 2 0 01-1.59-1.61 7.65 7.65 0 01-.15-1.66v-3.77h-1.04V17h1.07v-2.82h3.2V17h2zM107.65 26.89h-3.1v-1.34a3.2 3.2 0 01-1.28 1.19 3.75 3.75 0 01-1.69.43 4.58 4.58 0 01-1.74-.29 2.65 2.65 0 01-1.15-.88 3.33 3.33 0 01-.59-1.32 8.15 8.15 0 01-.17-1.68v-5.87h3.2v5.66a1.83 1.83 0 00.4 1.36 1.65 1.65 0 001.18.39 1.7 1.7 0 00.56-.1 1.54 1.54 0 00.57-.34 2.23 2.23 0 00.44-.67 2.71 2.71 0 00.18-1.07v-5.23h3.19zM112.41 23.67a1.29 1.29 0 00.52 1.09 1.51 1.51 0 00.54.26 2.75 2.75 0 00.65.08 2.25 2.25 0 00.49-.06 1.62 1.62 0 00.48-.17 1.32 1.32 0 00.38-.32.78.78 0 00.15-.48.65.65 0 00-.17-.46 1.28 1.28 0 00-.4-.29 1.8 1.8 0 00-.51-.17l-.48-.12c-.5-.12-1-.23-1.55-.33a6.17 6.17 0 01-1.47-.47 3 3 0 01-1.09-.85 2.47 2.47 0 01-.42-1.54 2.4 2.4 0 01.42-1.46 3.28 3.28 0 011.08-.91 5 5 0 011.45-.48 9 9 0 011.51-.14 9.28 9.28 0 011.58.14 4.59 4.59 0 011.42.49 2.85 2.85 0 011.05 1 3.06 3.06 0 01.44 1.57h-3a.93.93 0 00-.42-.85 1.86 1.86 0 00-1-.24 3.31 3.31 0 00-.44 0 1.63 1.63 0 00-.45.09.89.89 0 00-.34.23.52.52 0 00-.14.39.65.65 0 00.35.56 3.13 3.13 0 00.9.37c.35.09.74.18 1.17.25l1.19.23a3.52 3.52 0 011.21.47 2.87 2.87 0 01.76.7 2.16 2.16 0 01.39.77 2.38 2.38 0 01.12.69 3 3 0 01-.43 1.65 3.28 3.28 0 01-1.09 1.07 4.74 4.74 0 01-1.5.58 7.88 7.88 0 01-1.66.18 8.85 8.85 0 01-1.71-.16 4.83 4.83 0 01-1.52-.56 3.25 3.25 0 01-1.09-1.09 3.43 3.43 0 01-.46-1.69zM120.74 23.39h3.5v3.5h-3.5zM141.5 17.13h3.1v1.34a3 3 0 01.56-.68 3.61 3.61 0 01.76-.51 4.22 4.22 0 01.86-.32 3.92 3.92 0 01.88-.11 4 4 0 011.93.39 2.83 2.83 0 011.05 1 3.21 3.21 0 01.45 1.23 8.93 8.93 0 01.09 1.19v6.26H148v-5.7a2.32 2.32 0 00-.14-.86 1.24 1.24 0 00-.47-.61 1.65 1.65 0 00-1-.24 1.61 1.61 0 00-.78.18 1.64 1.64 0 00-.54.47 2.06 2.06 0 00-.31.67 2.8 2.8 0 00-.1.77v5.32h-3.2zM81.22 22a5.22 5.22 0 10-10.43-.09 5.26 5.26 0 005 5.21h.69a6.28 6.28 0 001.24-.12 5 5 0 001.43-.58 4.13 4.13 0 001.12-1 3.93 3.93 0 00.73-1.48h-3a1.51 1.51 0 01-.73.8 2.29 2.29 0 01-1.09.27 2.05 2.05 0 01-1.58-.6 1.77 1.77 0 01-.31-.46 2.61 2.61 0 01-.29-1.16h7.16a4.19 4.19 0 00.06-.79zm-5.17-3a1.75 1.75 0 011.34.58A2.17 2.17 0 0178 21h-4a2.63 2.63 0 01.68-1.44 1.84 1.84 0 011.37-.56zM163 22a5.22 5.22 0 10-10.43-.09 5.26 5.26 0 005 5.21h.69a6.5 6.5 0 001.24-.12 4.82 4.82 0 001.42-.58 4 4 0 001.13-1 3.93 3.93 0 00.71-1.45h-3a1.55 1.55 0 01-.73.8 2.33 2.33 0 01-1.1.27 2 2 0 01-1.57-.6 2.1 2.1 0 01-.32-.46 2.61 2.61 0 01-.28-1.16h7.16A4.19 4.19 0 00163 22zm-5.17-3a1.75 1.75 0 011.34.58 2.17 2.17 0 01.56 1.41h-4a2.57 2.57 0 01.69-1.44 1.84 1.84 0 011.41-.55z"
        fill="rgba(0,64,220,.9)"></path>
</svg>