<svg width="26" height="26" viewBox="0 0 26 26" fill="none" xmlns="http://www.w3.org/2000/svg">
<path d="M0.312619 2.20182L23.0221 24.9113C23.105 24.9942 23.2177 25.0405 23.3353 25.0401C23.453 25.0396 23.566 24.9925 23.6495 24.9089L24.909 23.6494C24.9926 23.5659 25.0397 23.4529 25.0402 23.3352C25.0406 23.2176 24.9943 23.1049 24.9114 23.022L2.20192 0.312516C2.11904 0.229632 2.00637 0.183317 1.88871 0.183761C1.77105 0.184205 1.65803 0.231371 1.57452 0.314883L0.314987 1.57442C0.231475 1.65793 0.184309 1.77095 0.183865 1.88861C0.183421 2.00627 0.229735 2.11893 0.312619 2.20182Z" fill="white"/>
<path d="M2.20182 24.9113L24.9113 2.20177C24.9942 2.11888 25.0405 2.00622 25.0401 1.88856C25.0396 1.7709 24.9925 1.65788 24.9089 1.57437L23.6494 0.314833C23.5659 0.23132 23.4529 0.184153 23.3352 0.18371C23.2176 0.183267 23.1049 0.229579 23.022 0.312464L0.312516 23.022C0.229632 23.1048 0.183317 23.2175 0.183761 23.3352C0.184205 23.4528 0.231371 23.5658 0.314883 23.6494L1.57442 24.9089C1.65793 24.9924 1.77095 25.0396 1.88861 25.04C2.00627 25.0405 2.11893 24.9941 2.20182 24.9113Z" fill="white"/>
</svg>
