<svg width="33" height="38" viewBox="0 0 33 38" fill="none" xmlns="http://www.w3.org/2000/svg">
<path d="M32.558 8.46094H0.441964C0.324748 8.46094 0.212333 8.41402 0.129448 8.33051C0.046564 8.247 0 8.13373 0 8.01562L0 6.23438C0 6.11627 0.046564 6.003 0.129448 5.91949C0.212333 5.83598 0.324748 5.78906 0.441964 5.78906H32.558C32.6753 5.78906 32.7877 5.83598 32.8706 5.91949C32.9534 6.003 33 6.11627 33 6.23438V8.01562C33 8.13373 32.9534 8.247 32.8706 8.33051C32.7877 8.41402 32.6753 8.46094 32.558 8.46094V8.46094ZM32.558 20.3359H0.441964C0.324748 20.3359 0.212333 20.289 0.129448 20.2055C0.046564 20.122 0 20.0087 0 19.8906L0 18.1094C0 17.9913 0.046564 17.878 0.129448 17.7945C0.212333 17.711 0.324748 17.6641 0.441964 17.6641H32.558C32.6753 17.6641 32.7877 17.711 32.8706 17.7945C32.9534 17.878 33 17.9913 33 18.1094V19.8906C33 20.0087 32.9534 20.122 32.8706 20.2055C32.7877 20.289 32.6753 20.3359 32.558 20.3359V20.3359ZM32.558 32.2109H0.441964C0.324748 32.2109 0.212333 32.164 0.129448 32.0805C0.046564 31.997 0 31.8837 0 31.7656L0 29.9844C0 29.8663 0.046564 29.753 0.129448 29.6695C0.212333 29.586 0.324748 29.5391 0.441964 29.5391H32.558C32.6753 29.5391 32.7877 29.586 32.8706 29.6695C32.9534 29.753 33 29.8663 33 29.9844V31.7656C33 31.8837 32.9534 31.997 32.8706 32.0805C32.7877 32.164 32.6753 32.2109 32.558 32.2109V32.2109Z" fill="white"/>
</svg>
