<svg width="1094" height="571" viewBox="0 0 1094 571" fill="none" xmlns="http://www.w3.org/2000/svg">
<path d="M809.013 569.369C966.021 569.369 1093.3 442.276 1093.3 285.5C1093.3 128.724 966.021 1.63141 809.013 1.63141C652.005 1.63141 524.724 128.724 524.724 285.5C524.724 442.276 652.005 569.369 809.013 569.369Z" stroke="white" stroke-width="0.5" stroke-miterlimit="10"/>
<path opacity="0.75" d="M721.831 569.369C878.839 569.369 1006.12 442.276 1006.12 285.5C1006.12 128.724 878.839 1.63141 721.831 1.63141C564.823 1.63141 437.542 128.724 437.542 285.5C437.542 442.276 564.823 569.369 721.831 569.369Z" stroke="white" stroke-width="0.5" stroke-miterlimit="10"/>
<path opacity="0.5" d="M634.65 569.369C791.658 569.369 918.938 442.276 918.938 285.5C918.938 128.724 791.658 1.63141 634.65 1.63141C477.642 1.63141 350.361 128.724 350.361 285.5C350.361 442.276 477.642 569.369 634.65 569.369Z" stroke="white" stroke-width="0.5" stroke-miterlimit="10"/>
<path opacity="0.4" d="M547.468 569.369C704.476 569.369 831.756 442.276 831.756 285.5C831.756 128.724 704.476 1.63141 547.468 1.63141C390.459 1.63141 263.179 128.724 263.179 285.5C263.179 442.276 390.459 569.369 547.468 569.369Z" stroke="white" stroke-width="0.5" stroke-miterlimit="10"/>
<path opacity="0.3" d="M460.285 569.369C617.293 569.369 744.573 442.276 744.573 285.5C744.573 128.724 617.293 1.63141 460.285 1.63141C303.277 1.63141 175.997 128.724 175.997 285.5C175.997 442.276 303.277 569.369 460.285 569.369Z" stroke="white" stroke-width="0.5" stroke-miterlimit="10"/>
<path opacity="0.25" d="M373.104 569.369C530.112 569.369 657.392 442.276 657.392 285.5C657.392 128.724 530.112 1.63141 373.104 1.63141C216.096 1.63141 88.8159 128.724 88.8159 285.5C88.8159 442.276 216.096 569.369 373.104 569.369Z" stroke="white" stroke-width="0.5" stroke-miterlimit="10"/>
<path opacity="0.1" d="M285.922 569.369C442.93 569.369 570.21 442.276 570.21 285.5C570.21 128.724 442.93 1.63141 285.922 1.63141C128.914 1.63141 1.63367 128.724 1.63367 285.5C1.63367 442.276 128.914 569.369 285.922 569.369Z" stroke="white" stroke-width="0.5" stroke-miterlimit="10"/>
</svg>
