<svg width="21" height="22" viewBox="0 0 21 22" fill="none" xmlns="http://www.w3.org/2000/svg">
<path d="M18.0764 0.57959H2.08748C0.988245 0.57959 0.0888672 1.53518 0.0888672 2.70312V19.6914C0.0888672 20.8593 0.988245 21.8149 2.08748 21.8149H18.0764C19.1757 21.8149 20.075 20.8593 20.075 19.6914V2.70312C20.075 1.53518 19.1757 0.57959 18.0764 0.57959ZM6.08472 18.6296H3.08679V9.07372H6.08472V18.6296ZM4.58576 7.26871C3.58645 7.26871 2.787 6.4193 2.787 5.35754C2.787 4.29577 3.58645 3.44636 4.58576 3.44636C5.58507 3.44636 6.38451 4.29577 6.38451 5.35754C6.38451 6.4193 5.58507 7.26871 4.58576 7.26871ZM17.0771 18.6296H14.0792V13.0022C14.0792 12.1529 13.3797 11.4096 12.5802 11.4096C11.7808 11.4096 11.0813 12.1529 11.0813 13.0022V18.6296H8.08334V9.07372H11.0813V10.3478C11.5809 9.49842 12.6802 8.86136 13.5795 8.86136C15.4782 8.86136 17.0771 10.5602 17.0771 12.5775V18.6296Z" fill="#5A5A66"/>
</svg>
